<?xml version="1.0" encoding="UTF-8" standalone="no"?>
<!DOCTYPE svg PUBLIC "-//W3C//DTD SVG 1.1//EN"
 "http://www.w3.org/Graphics/SVG/1.1/DTD/svg11.dtd">
<!-- Generated by graphviz version 2.40.1 (20161225.0304)
 -->
<!-- Title: jaegertracingc/alloc.h Pages: 1 -->
<svg width="2056pt" height="520pt"
 viewBox="0.00 0.00 2055.65 520.00" xmlns="http://www.w3.org/2000/svg" xmlns:xlink="http://www.w3.org/1999/xlink">
<g id="graph0" class="graph" transform="scale(1 1) rotate(0) translate(4 516)">
<title>jaegertracingc/alloc.h</title>
<polygon fill="#ffffff" stroke="transparent" points="-4,4 -4,-516 2051.6481,-516 2051.6481,4 -4,4"/>
<!-- Node7 -->
<g id="node1" class="node">
<title>Node7</title>
<polygon fill="#bfbfbf" stroke="#000000" points="1059.6481,-492.5 1059.6481,-511.5 1168.6481,-511.5 1168.6481,-492.5 1059.6481,-492.5"/>
<text text-anchor="middle" x="1114.1481" y="-499.5" font-family="Helvetica,sans-Serif" font-size="10.00" fill="#000000">jaegertracingc/alloc.h</text>
</g>
<!-- Node8 -->
<g id="node2" class="node">
<title>Node8</title>
<g id="a_node2"><a xlink:href="common_8h.html" target="_top" xlink:title="Common headers, struct definitions, and macros. ">
<polygon fill="#ffffff" stroke="#000000" points="1051.1481,-436.5 1051.1481,-455.5 1177.1481,-455.5 1177.1481,-436.5 1051.1481,-436.5"/>
<text text-anchor="middle" x="1114.1481" y="-443.5" font-family="Helvetica,sans-Serif" font-size="10.00" fill="#000000">jaegertracingc/common.h</text>
</a>
</g>
</g>
<!-- Node7&#45;&gt;Node8 -->
<g id="edge1" class="edge">
<title>Node7&#45;&gt;Node8</title>
<path fill="none" stroke="#191970" d="M1114.1481,-482.1575C1114.1481,-473.155 1114.1481,-462.9199 1114.1481,-455.6427"/>
<polygon fill="#191970" stroke="#191970" points="1110.6482,-482.2455 1114.1481,-492.2455 1117.6482,-482.2456 1110.6482,-482.2455"/>
</g>
<!-- Node24 -->
<g id="node18" class="node">
<title>Node24</title>
<g id="a_node18"><a xlink:href="key__value_8h.html" target="_top" xlink:title="Key value pair representation. ">
<polygon fill="#ffffff" stroke="#000000" points="1212.1481,-302.5 1212.1481,-332.5 1308.1481,-332.5 1308.1481,-302.5 1212.1481,-302.5"/>
<text text-anchor="start" x="1220.1481" y="-320.5" font-family="Helvetica,sans-Serif" font-size="10.00" fill="#000000">jaegertracingc/key</text>
<text text-anchor="middle" x="1260.1481" y="-309.5" font-family="Helvetica,sans-Serif" font-size="10.00" fill="#000000">_value.h</text>
</a>
</g>
</g>
<!-- Node7&#45;&gt;Node24 -->
<g id="edge72" class="edge">
<title>Node7&#45;&gt;Node24</title>
<path fill="none" stroke="#191970" d="M1142.1595,-487.5719C1156.301,-479.4666 1173.1632,-468.4781 1186.1481,-456 1223.6929,-419.9205 1246.4063,-360.5816 1255.5201,-332.7745"/>
<polygon fill="#191970" stroke="#191970" points="1140.3761,-484.5587 1133.3275,-492.4687 1143.7704,-490.6807 1140.3761,-484.5587"/>
</g>
<!-- Node31 -->
<g id="node25" class="node">
<title>Node31</title>
<g id="a_node25"><a xlink:href="tag_8h.html" target="_top" xlink:title="Tag representation and functions. ">
<polygon fill="#ffffff" stroke="#000000" points="30.1481,-308 30.1481,-327 132.1481,-327 132.1481,-308 30.1481,-308"/>
<text text-anchor="middle" x="81.1481" y="-315" font-family="Helvetica,sans-Serif" font-size="10.00" fill="#000000">jaegertracingc/tag.h</text>
</a>
</g>
</g>
<!-- Node7&#45;&gt;Node31 -->
<g id="edge73" class="edge">
<title>Node7&#45;&gt;Node31</title>
<path fill="none" stroke="#191970" d="M1049.2005,-499.4819C838.2194,-490.7501 181.4796,-459.0314 108.1481,-400 85.7258,-381.9502 81.7321,-344.91 81.1495,-327.2641"/>
<polygon fill="#191970" stroke="#191970" points="1049.3646,-502.9915 1059.4997,-499.9045 1049.6516,-495.9973 1049.3646,-502.9915"/>
</g>
<!-- Node9 -->
<g id="node3" class="node">
<title>Node9</title>
<g id="a_node3"><a xlink:href="clock_8h.html" target="_top" xlink:title="Timestamp and duration representations. ">
<polygon fill="#ffffff" stroke="#000000" points="466.1481,-375 466.1481,-394 578.1481,-394 578.1481,-375 466.1481,-375"/>
<text text-anchor="middle" x="522.1481" y="-382" font-family="Helvetica,sans-Serif" font-size="10.00" fill="#000000">jaegertracingc/clock.h</text>
</a>
</g>
</g>
<!-- Node8&#45;&gt;Node9 -->
<g id="edge2" class="edge">
<title>Node8&#45;&gt;Node9</title>
<path fill="none" stroke="#191970" d="M1040.6192,-442.5393C939.2338,-437.0818 751.0114,-424.4819 592.1481,-400 581.9375,-398.4265 570.9896,-396.244 560.8558,-394.0127"/>
<polygon fill="#191970" stroke="#191970" points="1040.5817,-446.0422 1050.753,-443.0765 1040.9523,-439.052 1040.5817,-446.0422"/>
</g>
<!-- Node10 -->
<g id="node4" class="node">
<title>Node10</title>
<g id="a_node4"><a xlink:href="log__record_8h.html" target="_top" xlink:title="Log record representation for use in span. ">
<polygon fill="#ffffff" stroke="#000000" points="189.6481,-235.5 189.6481,-265.5 282.6481,-265.5 282.6481,-235.5 189.6481,-235.5"/>
<text text-anchor="start" x="197.6481" y="-253.5" font-family="Helvetica,sans-Serif" font-size="10.00" fill="#000000">jaegertracingc/log</text>
<text text-anchor="middle" x="236.1481" y="-242.5" font-family="Helvetica,sans-Serif" font-size="10.00" fill="#000000">_record.h</text>
</a>
</g>
</g>
<!-- Node8&#45;&gt;Node10 -->
<g id="edge30" class="edge">
<title>Node8&#45;&gt;Node10</title>
<path fill="none" stroke="#191970" d="M1040.8964,-444.5333C839.2497,-440.1691 288.9649,-425.93 260.1481,-400 221.848,-365.5368 228.1266,-296.2112 233.1735,-265.608"/>
<polygon fill="#191970" stroke="#191970" points="1041.0209,-448.0366 1051.0937,-444.752 1041.1711,-441.0383 1041.0209,-448.0366"/>
</g>
<!-- Node11 -->
<g id="node5" class="node">
<title>Node11</title>
<g id="a_node5"><a xlink:href="span_8h.html" target="_top" xlink:title="Span, span context, and span ref representations and functions. ">
<polygon fill="#ffffff" stroke="#000000" points="325.1481,-174 325.1481,-193 435.1481,-193 435.1481,-174 325.1481,-174"/>
<text text-anchor="middle" x="380.1481" y="-181" font-family="Helvetica,sans-Serif" font-size="10.00" fill="#000000">jaegertracingc/span.h</text>
</a>
</g>
</g>
<!-- Node8&#45;&gt;Node11 -->
<g id="edge47" class="edge">
<title>Node8&#45;&gt;Node11</title>
<path fill="none" stroke="#191970" d="M1040.8958,-444.274C835.8316,-439.1633 268.8221,-423.0142 236.1481,-400 172.8352,-355.405 132.7048,-296.2076 180.1481,-235 197.7757,-212.2583 271.914,-197.7894 324.7749,-190.1591"/>
<polygon fill="#191970" stroke="#191970" points="1040.884,-447.7747 1050.9676,-444.5233 1041.0573,-440.7768 1040.884,-447.7747"/>
</g>
<!-- Node13 -->
<g id="node7" class="node">
<title>Node13</title>
<g id="a_node7"><a xlink:href="tracer_8h.html" target="_top" xlink:title="Tracer implementation. ">
<polygon fill="#ffffff" stroke="#000000" points="893.6481,-56.5 893.6481,-75.5 1006.6481,-75.5 1006.6481,-56.5 893.6481,-56.5"/>
<text text-anchor="middle" x="950.1481" y="-63.5" font-family="Helvetica,sans-Serif" font-size="10.00" fill="#000000">jaegertracingc/tracer.h</text>
</a>
</g>
</g>
<!-- Node8&#45;&gt;Node13 -->
<g id="edge48" class="edge">
<title>Node8&#45;&gt;Node13</title>
<path fill="none" stroke="#191970" d="M1187.3435,-440.1155C1242.3888,-434.1164 1319.0324,-422.3768 1383.1481,-400 1448.8133,-377.0824 1540.355,-361.9801 1505.1481,-302 1400.3358,-123.4372 1126.2841,-79.9197 1006.9957,-69.3608"/>
<polygon fill="#191970" stroke="#191970" points="1186.9032,-436.6424 1177.3245,-441.1701 1187.636,-443.6039 1186.9032,-436.6424"/>
</g>
<!-- Node14 -->
<g id="node8" class="node">
<title>Node14</title>
<g id="a_node8"><a xlink:href="reporter_8h.html" target="_top" xlink:title="Span reporter interface. ">
<polygon fill="#ffffff" stroke="#000000" points="934.1481,-112.5 934.1481,-131.5 1056.1481,-131.5 1056.1481,-112.5 934.1481,-112.5"/>
<text text-anchor="middle" x="995.1481" y="-119.5" font-family="Helvetica,sans-Serif" font-size="10.00" fill="#000000">jaegertracingc/reporter.h</text>
</a>
</g>
</g>
<!-- Node8&#45;&gt;Node14 -->
<g id="edge49" class="edge">
<title>Node8&#45;&gt;Node14</title>
<path fill="none" stroke="#191970" d="M1186.9689,-434.8286C1251.6966,-420.2755 1336.1481,-387.8145 1336.1481,-317.5 1336.1481,-317.5 1336.1481,-317.5 1336.1481,-250.5 1336.1481,-190.7143 1150.2829,-149.1658 1052.9941,-131.5129"/>
<polygon fill="#191970" stroke="#191970" points="1186.2137,-431.4109 1177.1705,-436.931 1187.6823,-438.2551 1186.2137,-431.4109"/>
</g>
<!-- Node15 -->
<g id="node9" class="node">
<title>Node15</title>
<g id="a_node9"><a xlink:href="sampler_8h.html" target="_top" xlink:title="Span sampler interface. ">
<polygon fill="#ffffff" stroke="#000000" points="844.6481,-241 844.6481,-260 967.6481,-260 967.6481,-241 844.6481,-241"/>
<text text-anchor="middle" x="906.1481" y="-248" font-family="Helvetica,sans-Serif" font-size="10.00" fill="#000000">jaegertracingc/sampler.h</text>
</a>
</g>
</g>
<!-- Node8&#45;&gt;Node15 -->
<g id="edge50" class="edge">
<title>Node8&#45;&gt;Node15</title>
<path fill="none" stroke="#191970" d="M1085.0202,-431.5351C1071.7019,-423.7192 1056.6,-412.9942 1046.1481,-400 1016.7668,-363.4723 1038.7227,-336.6493 1007.1481,-302 988.5879,-281.6324 960.1216,-268.1397 938.1349,-260.0938"/>
<polygon fill="#191970" stroke="#191970" points="1083.438,-434.6602 1093.8766,-436.4734 1086.8471,-428.5464 1083.438,-434.6602"/>
</g>
<!-- Node16 -->
<g id="node10" class="node">
<title>Node16</title>
<g id="a_node10"><a xlink:href="mock__agent_8h.html" target="_top" xlink:title="Key value pair representation. ">
<polygon fill="#ffffff" stroke="#000000" points="607.1481,-168.5 607.1481,-198.5 711.1481,-198.5 711.1481,-168.5 607.1481,-168.5"/>
<text text-anchor="start" x="615.1481" y="-186.5" font-family="Helvetica,sans-Serif" font-size="10.00" fill="#000000">jaegertracingc/mock</text>
<text text-anchor="middle" x="659.1481" y="-175.5" font-family="Helvetica,sans-Serif" font-size="10.00" fill="#000000">_agent.h</text>
</a>
</g>
</g>
<!-- Node8&#45;&gt;Node16 -->
<g id="edge42" class="edge">
<title>Node8&#45;&gt;Node16</title>
<path fill="none" stroke="#191970" d="M1040.8023,-444.5937C844.219,-440.4686 318.6375,-426.9576 293.1481,-400 189.8023,-290.7018 482.8063,-218.2413 606.7166,-193.2157"/>
<polygon fill="#191970" stroke="#191970" points="1040.9633,-448.0977 1051.0338,-444.8062 1041.1086,-441.0992 1040.9633,-448.0977"/>
</g>
<!-- Node17 -->
<g id="node11" class="node">
<title>Node17</title>
<g id="a_node11"><a xlink:href="token__bucket_8h.html" target="_top" xlink:title="Token bucket implementation. ">
<polygon fill="#ffffff" stroke="#000000" points="894.1481,-302.5 894.1481,-332.5 998.1481,-332.5 998.1481,-302.5 894.1481,-302.5"/>
<text text-anchor="start" x="902.1481" y="-320.5" font-family="Helvetica,sans-Serif" font-size="10.00" fill="#000000">jaegertracingc/token</text>
<text text-anchor="middle" x="946.1481" y="-309.5" font-family="Helvetica,sans-Serif" font-size="10.00" fill="#000000">_bucket.h</text>
</a>
</g>
</g>
<!-- Node8&#45;&gt;Node17 -->
<g id="edge70" class="edge">
<title>Node8&#45;&gt;Node17</title>
<path fill="none" stroke="#191970" d="M1074.1217,-433.0052C1054.2515,-425.3476 1030.6135,-414.327 1012.1481,-400 987.512,-380.8853 966.4911,-350.7765 955.148,-332.7044"/>
<polygon fill="#191970" stroke="#191970" points="1072.9412,-436.3003 1083.5343,-436.494 1075.374,-429.7366 1072.9412,-436.3003"/>
</g>
<!-- Node18 -->
<g id="node12" class="node">
<title>Node18</title>
<g id="a_node12"><a xlink:href="constants_8h_source.html" target="_top" xlink:title="jaegertracingc/constants.h">
<polygon fill="#ffffff" stroke="#000000" points="1364.6481,-308 1364.6481,-327 1495.6481,-327 1495.6481,-308 1364.6481,-308"/>
<text text-anchor="middle" x="1430.1481" y="-315" font-family="Helvetica,sans-Serif" font-size="10.00" fill="#000000">jaegertracingc/constants.h</text>
</a>
</g>
</g>
<!-- Node8&#45;&gt;Node18 -->
<g id="edge16" class="edge">
<title>Node8&#45;&gt;Node18</title>
<path fill="none" stroke="#191970" d="M1187.2365,-436.6346C1245.7787,-428.2416 1322.5237,-414.971 1350.1481,-400 1383.651,-381.8431 1411.6937,-344.8556 1423.7743,-327.2434"/>
<polygon fill="#191970" stroke="#191970" points="1186.6845,-433.1777 1177.2721,-438.0416 1187.6633,-440.1089 1186.6845,-433.1777"/>
</g>
<!-- Node19 -->
<g id="node13" class="node">
<title>Node19</title>
<g id="a_node13"><a xlink:href="options_8h.html" target="_top" xlink:title="Configuration options. ">
<polygon fill="#ffffff" stroke="#000000" points="1410.1481,-112.5 1410.1481,-131.5 1530.1481,-131.5 1530.1481,-112.5 1410.1481,-112.5"/>
<text text-anchor="middle" x="1470.1481" y="-119.5" font-family="Helvetica,sans-Serif" font-size="10.00" fill="#000000">jaegertracingc/options.h</text>
</a>
</g>
</g>
<!-- Node8&#45;&gt;Node19 -->
<g id="edge46" class="edge">
<title>Node8&#45;&gt;Node19</title>
<path fill="none" stroke="#191970" d="M1187.4633,-445.0864C1309.5239,-442.6256 1548.5644,-433.5396 1625.1481,-400 1665.7882,-382.2018 1674.9777,-370.2047 1699.1481,-333 1723.4671,-295.5664 1745.383,-272.4881 1721.1481,-235 1679.2475,-170.1854 1590.3198,-142.1765 1530.3757,-130.3299"/>
<polygon fill="#191970" stroke="#191970" points="1187.3835,-441.5872 1177.4526,-445.2786 1187.518,-448.5859 1187.3835,-441.5872"/>
</g>
<!-- Node20 -->
<g id="node14" class="node">
<title>Node20</title>
<g id="a_node14"><a xlink:href="hashtable_8h.html" target="_top" xlink:title="Hashtable data structure. ">
<polygon fill="#ffffff" stroke="#000000" points="1852.6481,-241 1852.6481,-260 1983.6481,-260 1983.6481,-241 1852.6481,-241"/>
<text text-anchor="middle" x="1918.1481" y="-248" font-family="Helvetica,sans-Serif" font-size="10.00" fill="#000000">jaegertracingc/hashtable.h</text>
</a>
</g>
</g>
<!-- Node8&#45;&gt;Node20 -->
<g id="edge21" class="edge">
<title>Node8&#45;&gt;Node20</title>
<path fill="none" stroke="#191970" d="M1187.4141,-444.2182C1377.4703,-439.2633 1873.3747,-424.0807 1899.1481,-400 1938.9127,-362.847 1926.6028,-287.3743 1920.5886,-260.3781"/>
<polygon fill="#191970" stroke="#191970" points="1187.1452,-440.7239 1177.2391,-444.4813 1187.3263,-447.7215 1187.1452,-440.7239"/>
</g>
<!-- Node21 -->
<g id="node15" class="node">
<title>Node21</title>
<g id="a_node15"><a xlink:href="internal_2random_8h_source.html" target="_top" xlink:title="jaegertracingc/internal\l/random.h">
<polygon fill="#ffffff" stroke="#000000" points="558.1481,-235.5 558.1481,-265.5 670.1481,-265.5 670.1481,-235.5 558.1481,-235.5"/>
<text text-anchor="start" x="566.1481" y="-253.5" font-family="Helvetica,sans-Serif" font-size="10.00" fill="#000000">jaegertracingc/internal</text>
<text text-anchor="middle" x="614.1481" y="-242.5" font-family="Helvetica,sans-Serif" font-size="10.00" fill="#000000">/random.h</text>
</a>
</g>
</g>
<!-- Node8&#45;&gt;Node21 -->
<g id="edge22" class="edge">
<title>Node8&#45;&gt;Node21</title>
<path fill="none" stroke="#191970" d="M1040.9815,-435.0487C928.9321,-417.0761 721.6444,-378.7147 663.1481,-333 640.5715,-315.3564 626.2128,-284.1796 619.2206,-265.6194"/>
<polygon fill="#191970" stroke="#191970" points="1040.4342,-438.5055 1050.8599,-436.6199 1041.5338,-431.5924 1040.4342,-438.5055"/>
</g>
<!-- Node22 -->
<g id="node16" class="node">
<title>Node22</title>
<g id="a_node16"><a xlink:href="siphash_8h.html" target="_top" xlink:title="Siphash implementation. ">
<polygon fill="#ffffff" stroke="#000000" points="1768.1481,-375 1768.1481,-394 1890.1481,-394 1890.1481,-375 1768.1481,-375"/>
<text text-anchor="middle" x="1829.1481" y="-382" font-family="Helvetica,sans-Serif" font-size="10.00" fill="#000000">jaegertracingc/siphash.h</text>
</a>
</g>
</g>
<!-- Node8&#45;&gt;Node22 -->
<g id="edge23" class="edge">
<title>Node8&#45;&gt;Node22</title>
<path fill="none" stroke="#191970" d="M1187.6887,-443.8698C1307.0524,-439.7053 1550.1673,-428.2825 1754.1481,-400 1765.2109,-398.4661 1777.0887,-396.27 1788.0555,-394.0114"/>
<polygon fill="#191970" stroke="#191970" points="1187.4458,-440.3759 1177.5713,-444.2156 1187.6851,-447.3718 1187.4458,-440.3759"/>
</g>
<!-- Node8&#45;&gt;Node24 -->
<g id="edge25" class="edge">
<title>Node8&#45;&gt;Node24</title>
<path fill="none" stroke="#191970" d="M1146.8156,-432.1439C1163.2732,-424.2049 1182.9127,-413.1928 1198.1481,-400 1221.0381,-380.1789 1240.7261,-350.5738 1251.4642,-332.7408"/>
<polygon fill="#191970" stroke="#191970" points="1145.1398,-429.0633 1137.5507,-436.4563 1148.0937,-435.4095 1145.1398,-429.0633"/>
</g>
<!-- Node25 -->
<g id="node19" class="node">
<title>Node25</title>
<g id="a_node19"><a xlink:href="list_8h_source.html" target="_top" xlink:title="jaegertracingc/list.h">
<polygon fill="#ffffff" stroke="#000000" points="1946.6481,-375 1946.6481,-394 2047.6481,-394 2047.6481,-375 1946.6481,-375"/>
<text text-anchor="middle" x="1997.1481" y="-382" font-family="Helvetica,sans-Serif" font-size="10.00" fill="#000000">jaegertracingc/list.h</text>
</a>
</g>
</g>
<!-- Node8&#45;&gt;Node25 -->
<g id="edge28" class="edge">
<title>Node8&#45;&gt;Node25</title>
<path fill="none" stroke="#191970" d="M1187.1795,-443.5606C1359.8614,-437.5228 1789.4968,-420.85 1932.1481,-400 1942.0202,-398.5571 1952.5949,-396.3344 1962.2862,-394.0187"/>
<polygon fill="#191970" stroke="#191970" points="1187.0423,-440.0631 1177.17,-443.9087 1187.2857,-447.0589 1187.0423,-440.0631"/>
</g>
<!-- Node26 -->
<g id="node20" class="node">
<title>Node26</title>
<g id="a_node20"><a xlink:href="threading_8h.html" target="_top" xlink:title="Threading utilities. ">
<polygon fill="#ffffff" stroke="#000000" points="672.1481,-308 672.1481,-327 800.1481,-327 800.1481,-308 672.1481,-308"/>
<text text-anchor="middle" x="736.1481" y="-315" font-family="Helvetica,sans-Serif" font-size="10.00" fill="#000000">jaegertracingc/threading.h</text>
</a>
</g>
</g>
<!-- Node8&#45;&gt;Node26 -->
<g id="edge31" class="edge">
<title>Node8&#45;&gt;Node26</title>
<path fill="none" stroke="#191970" d="M1075.904,-433.2259C1048.4158,-424.028 1010.4786,-411.3005 977.1481,-400 899.8754,-373.8013 808.8055,-342.514 763.9622,-327.0808"/>
<polygon fill="#191970" stroke="#191970" points="1074.9368,-436.5929 1085.5306,-436.4457 1077.1572,-429.9544 1074.9368,-436.5929"/>
</g>
<!-- Node27 -->
<g id="node21" class="node">
<title>Node27</title>
<g id="a_node21"><a xlink:href="metrics_8h.html" target="_top" xlink:title="Metrics interfaces to track various numbers while tracing. ">
<polygon fill="#ffffff" stroke="#000000" points="1552.6481,-308 1552.6481,-327 1673.6481,-327 1673.6481,-308 1552.6481,-308"/>
<text text-anchor="middle" x="1613.1481" y="-315" font-family="Helvetica,sans-Serif" font-size="10.00" fill="#000000">jaegertracingc/metrics.h</text>
</a>
</g>
</g>
<!-- Node8&#45;&gt;Node27 -->
<g id="edge37" class="edge">
<title>Node8&#45;&gt;Node27</title>
<path fill="none" stroke="#191970" d="M1187.5083,-444.2613C1292.2516,-440.7363 1478.5893,-430.2931 1538.1481,-400 1571.2745,-383.151 1596.8988,-345.1693 1607.6405,-327.2314"/>
<polygon fill="#191970" stroke="#191970" points="1187.2052,-440.7692 1177.3236,-444.5909 1187.4316,-447.7656 1187.2052,-440.7692"/>
</g>
<!-- Node28 -->
<g id="node22" class="node">
<title>Node28</title>
<g id="a_node22"><a xlink:href="baggage_8h.html" target="_top" xlink:title="Trace ID representation. ">
<polygon fill="#ffffff" stroke="#000000" points="1586.6481,-241 1586.6481,-260 1711.6481,-260 1711.6481,-241 1586.6481,-241"/>
<text text-anchor="middle" x="1649.1481" y="-248" font-family="Helvetica,sans-Serif" font-size="10.00" fill="#000000">jaegertracingc/baggage.h</text>
</a>
</g>
</g>
<!-- Node8&#45;&gt;Node28 -->
<g id="edge71" class="edge">
<title>Node8&#45;&gt;Node28</title>
<path fill="none" stroke="#191970" d="M1187.3036,-442.4662C1297.61,-436.4887 1500.9766,-422.7591 1570.1481,-400 1625.6097,-381.7518 1654.2485,-383.7327 1683.1481,-333 1697.4103,-307.9629 1672.9994,-275.7567 1658.5833,-260.0159"/>
<polygon fill="#191970" stroke="#191970" points="1187.0507,-438.9746 1177.2518,-443.0034 1187.4243,-445.9647 1187.0507,-438.9746"/>
</g>
<!-- Node29 -->
<g id="node23" class="node">
<title>Node29</title>
<g id="a_node23"><a xlink:href="net_8h.html" target="_top" xlink:title="Network utilities. ">
<polygon fill="#ffffff" stroke="#000000" points="1092.1481,-308 1092.1481,-327 1194.1481,-327 1194.1481,-308 1092.1481,-308"/>
<text text-anchor="middle" x="1143.1481" y="-315" font-family="Helvetica,sans-Serif" font-size="10.00" fill="#000000">jaegertracingc/net.h</text>
</a>
</g>
</g>
<!-- Node8&#45;&gt;Node29 -->
<g id="edge43" class="edge">
<title>Node8&#45;&gt;Node29</title>
<path fill="none" stroke="#191970" d="M1148.6991,-431.742C1161.9632,-424.3601 1175.6965,-413.9233 1183.1481,-400 1197.0432,-374.0368 1169.9662,-342.5144 1153.8782,-327.0264"/>
<polygon fill="#191970" stroke="#191970" points="1146.9755,-428.6925 1139.6742,-436.3698 1150.1696,-434.9213 1146.9755,-428.6925"/>
</g>
<!-- Node30 -->
<g id="node24" class="node">
<title>Node30</title>
<g id="a_node24"><a xlink:href="vector_8h.html" target="_top" xlink:title="C generic vector implementation. ">
<polygon fill="#ffffff" stroke="#000000" points="302.1481,-375 302.1481,-394 418.1481,-394 418.1481,-375 302.1481,-375"/>
<text text-anchor="middle" x="360.1481" y="-382" font-family="Helvetica,sans-Serif" font-size="10.00" fill="#000000">jaegertracingc/vector.h</text>
</a>
</g>
</g>
<!-- Node8&#45;&gt;Node30 -->
<g id="edge51" class="edge">
<title>Node8&#45;&gt;Node30</title>
<path fill="none" stroke="#191970" d="M1040.7114,-442.9831C919.0747,-437.5101 668.2501,-424.2084 457.1481,-400 443.2549,-398.4068 428.3098,-396.2439 414.4122,-394.0398"/>
<polygon fill="#191970" stroke="#191970" points="1040.8678,-446.4935 1051.0136,-443.4418 1041.1792,-439.5004 1040.8678,-446.4935"/>
</g>
<!-- Node8&#45;&gt;Node31 -->
<g id="edge64" class="edge">
<title>Node8&#45;&gt;Node31</title>
<path fill="none" stroke="#191970" d="M1040.9728,-444.1803C822.1984,-438.5218 185.743,-420.387 146.1481,-400 114.8597,-383.89 93.804,-345.1799 85.3355,-327.103"/>
<polygon fill="#191970" stroke="#191970" points="1040.984,-447.6817 1051.0708,-444.4403 1041.1643,-440.684 1040.984,-447.6817"/>
</g>
<!-- Node32 -->
<g id="node26" class="node">
<title>Node32</title>
<g id="a_node26"><a xlink:href="trace__id_8h.html" target="_top" xlink:title="Trace ID representation. ">
<polygon fill="#ffffff" stroke="#000000" points="492.6481,-308 492.6481,-327 615.6481,-327 615.6481,-308 492.6481,-308"/>
<text text-anchor="middle" x="554.1481" y="-315" font-family="Helvetica,sans-Serif" font-size="10.00" fill="#000000">jaegertracingc/trace_id.h</text>
</a>
</g>
</g>
<!-- Node8&#45;&gt;Node32 -->
<g id="edge65" class="edge">
<title>Node8&#45;&gt;Node32</title>
<path fill="none" stroke="#191970" d="M1040.7246,-441.9183C914.4042,-434.4686 666.0006,-417.7886 630.1481,-400 596.654,-383.3816 570.651,-345.2845 559.7429,-327.2747"/>
<polygon fill="#191970" stroke="#191970" points="1040.8938,-445.4341 1051.0813,-442.5245 1041.3029,-438.4461 1040.8938,-445.4341"/>
</g>
<!-- Node33 -->
<g id="node27" class="node">
<title>Node33</title>
<g id="a_node27"><a xlink:href="sampling__strategy_8h.html" target="_top" xlink:title="Sampling strategy type definitions. ">
<polygon fill="#ffffff" stroke="#000000" points="1054.6481,-369.5 1054.6481,-399.5 1173.6481,-399.5 1173.6481,-369.5 1054.6481,-369.5"/>
<text text-anchor="start" x="1062.6481" y="-387.5" font-family="Helvetica,sans-Serif" font-size="10.00" fill="#000000">jaegertracingc/sampling</text>
<text text-anchor="middle" x="1114.1481" y="-376.5" font-family="Helvetica,sans-Serif" font-size="10.00" fill="#000000">_strategy.h</text>
</a>
</g>
</g>
<!-- Node8&#45;&gt;Node33 -->
<g id="edge68" class="edge">
<title>Node8&#45;&gt;Node33</title>
<path fill="none" stroke="#191970" d="M1114.1481,-426.3693C1114.1481,-417.681 1114.1481,-407.6241 1114.1481,-399.5446"/>
<polygon fill="#191970" stroke="#191970" points="1110.6482,-426.3906 1114.1481,-436.3906 1117.6482,-426.3907 1110.6482,-426.3906"/>
</g>
<!-- Node9&#45;&gt;Node10 -->
<g id="edge3" class="edge">
<title>Node9&#45;&gt;Node10</title>
<path fill="none" stroke="#191970" d="M492.5211,-370.6188C438.4789,-345.2984 324.3251,-291.8137 268.4,-265.611"/>
<polygon fill="#191970" stroke="#191970" points="491.0393,-373.7897 501.5797,-374.8631 494.0093,-367.4509 491.0393,-373.7897"/>
</g>
<!-- Node9&#45;&gt;Node11 -->
<g id="edge10" class="edge">
<title>Node9&#45;&gt;Node11</title>
<path fill="none" stroke="#191970" d="M508.2365,-366.5417C500.7025,-356.7138 491.2952,-344.2752 483.1481,-333 445.4904,-280.8837 402.4437,-216.8938 386.5096,-193.0482"/>
<polygon fill="#191970" stroke="#191970" points="505.6643,-368.938 514.539,-374.7251 511.2103,-364.6668 505.6643,-368.938"/>
</g>
<!-- Node9&#45;&gt;Node15 -->
<g id="edge11" class="edge">
<title>Node9&#45;&gt;Node15</title>
<path fill="none" stroke="#191970" d="M588.2474,-379.582C669.0806,-372.5941 800.3173,-357.8076 842.1481,-333 872.0842,-315.2465 893.1161,-277.717 901.7611,-260.0618"/>
<polygon fill="#191970" stroke="#191970" points="587.8322,-376.1045 578.1633,-380.436 588.423,-383.0795 587.8322,-376.1045"/>
</g>
<!-- Node9&#45;&gt;Node17 -->
<g id="edge14" class="edge">
<title>Node9&#45;&gt;Node17</title>
<path fill="none" stroke="#191970" d="M588.5003,-376.7256C660.5855,-367.8676 778.9977,-352.1148 880.1481,-333 884.6586,-332.1476 889.3265,-331.1952 893.9993,-330.1931"/>
<polygon fill="#191970" stroke="#191970" points="587.7106,-373.2959 578.2084,-377.9821 588.5589,-380.2443 587.7106,-373.2959"/>
</g>
<!-- Node10&#45;&gt;Node11 -->
<g id="edge4" class="edge">
<title>Node10&#45;&gt;Node11</title>
<path fill="none" stroke="#191970" d="M277.633,-231.198C304.4618,-218.7152 338.2266,-203.0051 359.5068,-193.1039"/>
<polygon fill="#191970" stroke="#191970" points="276.0546,-228.072 268.4645,-235.4639 279.0076,-234.4187 276.0546,-228.072"/>
</g>
<!-- Node12 -->
<g id="node6" class="node">
<title>Node12</title>
<g id="a_node6"><a xlink:href="propagation_8c.html" target="_top" xlink:title="Trace ID representation. ">
<polygon fill="#ffffff" stroke="#000000" points="1052.6481,-.5 1052.6481,-19.5 1191.6481,-19.5 1191.6481,-.5 1052.6481,-.5"/>
<text text-anchor="middle" x="1122.1481" y="-7.5" font-family="Helvetica,sans-Serif" font-size="10.00" fill="#000000">jaegertracingc/propagation.c</text>
</a>
</g>
</g>
<!-- Node11&#45;&gt;Node12 -->
<g id="edge5" class="edge">
<title>Node11&#45;&gt;Node12</title>
<path fill="none" stroke="#191970" d="M419.7013,-170.9328C467.76,-155.8903 551.4424,-130.4258 624.1481,-112 739.1524,-82.8545 768.9092,-79.7483 885.1481,-56 949.2101,-42.9118 1023.2036,-28.6933 1071.236,-19.5822"/>
<polygon fill="#191970" stroke="#191970" points="418.4955,-167.6429 410.0035,-173.9783 420.5928,-174.3213 418.4955,-167.6429"/>
</g>
<!-- Node11&#45;&gt;Node13 -->
<g id="edge6" class="edge">
<title>Node11&#45;&gt;Node13</title>
<path fill="none" stroke="#191970" d="M432.257,-171.6774C437.9537,-170.4197 443.6705,-169.1727 449.1481,-168 614.9296,-132.5074 812.2186,-93.1975 901.7168,-75.5236"/>
<polygon fill="#191970" stroke="#191970" points="431.0831,-168.3528 422.0805,-173.9387 432.6016,-175.1861 431.0831,-168.3528"/>
</g>
<!-- Node11&#45;&gt;Node14 -->
<g id="edge8" class="edge">
<title>Node11&#45;&gt;Node14</title>
<path fill="none" stroke="#191970" d="M428.3317,-171.7951C435.2877,-170.3626 442.3808,-169.0402 449.1481,-168 623.7964,-141.1559 832.4553,-129.0494 933.8216,-124.4264"/>
<polygon fill="#191970" stroke="#191970" points="427.334,-168.4295 418.2926,-173.9525 428.8047,-175.2733 427.334,-168.4295"/>
</g>
<!-- Node13&#45;&gt;Node12 -->
<g id="edge7" class="edge">
<title>Node13&#45;&gt;Node12</title>
<path fill="none" stroke="#191970" d="M989.4916,-53.1905C1021.0032,-42.9309 1064.5,-28.7691 1092.9661,-19.5011"/>
<polygon fill="#191970" stroke="#191970" points="988.1411,-49.9493 979.7159,-56.3733 990.3082,-56.6054 988.1411,-49.9493"/>
</g>
<!-- Node14&#45;&gt;Node13 -->
<g id="edge9" class="edge">
<title>Node14&#45;&gt;Node13</title>
<path fill="none" stroke="#191970" d="M980.8535,-104.2112C973.2485,-94.7472 964.1942,-83.4797 957.8967,-75.6427"/>
<polygon fill="#191970" stroke="#191970" points="978.3174,-106.6428 987.3097,-112.2455 983.774,-102.2581 978.3174,-106.6428"/>
</g>
<!-- Node15&#45;&gt;Node13 -->
<g id="edge13" class="edge">
<title>Node15&#45;&gt;Node13</title>
<path fill="none" stroke="#191970" d="M906.6379,-230.6173C907.8098,-203.2578 911.7729,-152.7594 925.1481,-112 929.5124,-98.7002 937.6728,-84.7554 943.4828,-75.7544"/>
<polygon fill="#191970" stroke="#191970" points="903.1325,-230.716 906.2872,-240.8303 910.1284,-230.9563 903.1325,-230.716"/>
</g>
<!-- Node15&#45;&gt;Node16 -->
<g id="edge12" class="edge">
<title>Node15&#45;&gt;Node16</title>
<path fill="none" stroke="#191970" d="M861.2935,-238.333C819.0781,-226.8818 755.8684,-209.7359 711.3954,-197.6723"/>
<polygon fill="#191970" stroke="#191970" points="860.4538,-241.7316 871.0213,-240.9717 862.2864,-234.9757 860.4538,-241.7316"/>
</g>
<!-- Node17&#45;&gt;Node15 -->
<g id="edge15" class="edge">
<title>Node17&#45;&gt;Node15</title>
<path fill="none" stroke="#191970" d="M931.8198,-293.5001C924.9215,-281.9456 917.042,-268.7473 911.8525,-260.055"/>
<polygon fill="#191970" stroke="#191970" points="928.9401,-295.5046 937.0715,-302.2967 934.9505,-291.9163 928.9401,-295.5046"/>
</g>
<!-- Node18&#45;&gt;Node15 -->
<g id="edge20" class="edge">
<title>Node18&#45;&gt;Node15</title>
<path fill="none" stroke="#191970" d="M1354.5176,-307.0017C1342.0368,-305.305 1329.2318,-303.5858 1317.1481,-302 1193.2629,-285.7424 1048.2156,-267.8298 967.7997,-257.9978"/>
<polygon fill="#191970" stroke="#191970" points="1354.0563,-310.4712 1364.4376,-308.3548 1355.0024,-303.5354 1354.0563,-310.4712"/>
</g>
<!-- Node18&#45;&gt;Node19 -->
<g id="edge17" class="edge">
<title>Node18&#45;&gt;Node19</title>
<path fill="none" stroke="#191970" d="M1434.1586,-297.8987C1442.5916,-256.6824 1461.8977,-162.3237 1468.1525,-131.7534"/>
<polygon fill="#191970" stroke="#191970" points="1430.7073,-297.3065 1432.1317,-307.8051 1437.5652,-298.7097 1430.7073,-297.3065"/>
</g>
<!-- Node19&#45;&gt;Node12 -->
<g id="edge18" class="edge">
<title>Node19&#45;&gt;Node12</title>
<path fill="none" stroke="#191970" d="M1430.6474,-109.2871C1360.1843,-86.6094 1214.3418,-39.6716 1151.7433,-19.5249"/>
<polygon fill="#191970" stroke="#191970" points="1429.8863,-112.7189 1440.4778,-112.4509 1432.0309,-106.0555 1429.8863,-112.7189"/>
</g>
<!-- Node19&#45;&gt;Node13 -->
<g id="edge19" class="edge">
<title>Node19&#45;&gt;Node13</title>
<path fill="none" stroke="#191970" d="M1399.9827,-112.4619C1398.6944,-112.305 1397.4153,-112.1509 1396.1481,-112 1256.4374,-95.3595 1091.6766,-79.2856 1006.8868,-71.2737"/>
<polygon fill="#191970" stroke="#191970" points="1399.6367,-115.9457 1409.9928,-113.7095 1400.5025,-108.9995 1399.6367,-115.9457"/>
</g>
<!-- Node23 -->
<g id="node17" class="node">
<title>Node23</title>
<g id="a_node17"><a xlink:href="siphash_8c.html" target="_top" xlink:title="Siphash implementation. ">
<polygon fill="#ffffff" stroke="#000000" points="1768.1481,-308 1768.1481,-327 1890.1481,-327 1890.1481,-308 1768.1481,-308"/>
<text text-anchor="middle" x="1829.1481" y="-315" font-family="Helvetica,sans-Serif" font-size="10.00" fill="#000000">jaegertracingc/siphash.c</text>
</a>
</g>
</g>
<!-- Node22&#45;&gt;Node23 -->
<g id="edge24" class="edge">
<title>Node22&#45;&gt;Node23</title>
<path fill="none" stroke="#191970" d="M1829.1481,-364.6079C1829.1481,-352.214 1829.1481,-336.8263 1829.1481,-327.0817"/>
<polygon fill="#191970" stroke="#191970" points="1825.6482,-364.9005 1829.1481,-374.9005 1832.6482,-364.9006 1825.6482,-364.9005"/>
</g>
<!-- Node24&#45;&gt;Node11 -->
<g id="edge27" class="edge">
<title>Node24&#45;&gt;Node11</title>
<path fill="none" stroke="#191970" d="M1208.3979,-299.0554C1152.2179,-279.8283 1059.484,-250.396 977.1481,-235 924.7087,-225.1944 573.0119,-198.038 435.2971,-187.6316"/>
<polygon fill="#191970" stroke="#191970" points="1207.517,-302.4538 1218.1118,-302.4031 1209.7978,-295.8358 1207.517,-302.4538"/>
</g>
<!-- Node24&#45;&gt;Node20 -->
<g id="edge26" class="edge">
<title>Node24&#45;&gt;Node20</title>
<path fill="none" stroke="#191970" d="M1318.6131,-307.4038C1330.9842,-305.4517 1343.9787,-303.5382 1356.1481,-302 1450.5583,-290.0669 1725.2712,-266.5915 1852.3057,-255.9608"/>
<polygon fill="#191970" stroke="#191970" points="1317.7178,-304.0026 1308.3999,-309.0451 1318.8286,-310.914 1317.7178,-304.0026"/>
</g>
<!-- Node25&#45;&gt;Node20 -->
<g id="edge29" class="edge">
<title>Node25&#45;&gt;Node20</title>
<path fill="none" stroke="#191970" d="M1986.3326,-366.1548C1969.2996,-337.2633 1936.8228,-282.1762 1923.7781,-260.0496"/>
<polygon fill="#191970" stroke="#191970" points="1983.3729,-368.0262 1991.4666,-374.8631 1989.403,-364.4711 1983.3729,-368.0262"/>
</g>
<!-- Node26&#45;&gt;Node11 -->
<g id="edge34" class="edge">
<title>Node26&#45;&gt;Node11</title>
<path fill="none" stroke="#191970" d="M728.4737,-298.706C719.5815,-279.4544 703.0265,-250.2509 679.1481,-235 639.5834,-209.7305 510.1549,-194.6826 435.1867,-187.8731"/>
<polygon fill="#191970" stroke="#191970" points="725.315,-300.2185 732.5237,-307.9828 731.7303,-297.4177 725.315,-300.2185"/>
</g>
<!-- Node26&#45;&gt;Node14 -->
<g id="edge35" class="edge">
<title>Node26&#45;&gt;Node14</title>
<path fill="none" stroke="#191970" d="M755.0346,-301.2298C774.8992,-284.2814 807.2292,-257.1596 836.1481,-235 888.2969,-195.0399 952.7182,-150.7507 980.8634,-131.642"/>
<polygon fill="#191970" stroke="#191970" points="752.6501,-298.6637 747.3307,-307.8264 757.203,-303.9809 752.6501,-298.6637"/>
</g>
<!-- Node26&#45;&gt;Node15 -->
<g id="edge36" class="edge">
<title>Node26&#45;&gt;Node15</title>
<path fill="none" stroke="#191970" d="M770.1973,-304.0806C803.2423,-291.057 852.5698,-271.6162 881.8364,-260.0817"/>
<polygon fill="#191970" stroke="#191970" points="768.5251,-300.9776 760.5049,-307.9005 771.0918,-307.49 768.5251,-300.9776"/>
</g>
<!-- Node26&#45;&gt;Node16 -->
<g id="edge33" class="edge">
<title>Node26&#45;&gt;Node16</title>
<path fill="none" stroke="#191970" d="M733.3555,-297.816C730.2179,-280.3404 723.9404,-254.6093 712.1481,-235 703.6847,-220.9265 690.4347,-208.0515 679.3006,-198.6949"/>
<polygon fill="#191970" stroke="#191970" points="729.9438,-298.6447 734.9904,-307.9605 736.8546,-297.5309 729.9438,-298.6447"/>
</g>
<!-- Node26&#45;&gt;Node21 -->
<g id="edge32" class="edge">
<title>Node26&#45;&gt;Node21</title>
<path fill="none" stroke="#191970" d="M709.7158,-302.9839C689.5582,-291.9138 661.883,-276.7151 641.5011,-265.5218"/>
<polygon fill="#191970" stroke="#191970" points="708.2184,-306.1546 718.6684,-307.9005 711.588,-300.019 708.2184,-306.1546"/>
</g>
<!-- Node27&#45;&gt;Node12 -->
<g id="edge38" class="edge">
<title>Node27&#45;&gt;Node12</title>
<path fill="none" stroke="#191970" d="M1598.9003,-299.9678C1591.761,-290.4184 1583.5161,-278.1059 1578.1481,-266 1562.8543,-231.51 1558.1481,-221.2287 1558.1481,-183.5 1558.1481,-183.5 1558.1481,-183.5 1558.1481,-122 1558.1481,-47.2671 1314.8103,-21.6869 1191.7157,-13.5278"/>
<polygon fill="#191970" stroke="#191970" points="1596.1383,-302.1175 1605.0318,-307.8757 1601.6702,-297.8282 1596.1383,-302.1175"/>
</g>
<!-- Node27&#45;&gt;Node14 -->
<g id="edge39" class="edge">
<title>Node27&#45;&gt;Node14</title>
<path fill="none" stroke="#191970" d="M1592.3972,-301.8983C1549.644,-270.6494 1447.5649,-200.5941 1350.1481,-168 1297.1058,-150.2529 1143.1476,-134.721 1056.4098,-127.063"/>
<polygon fill="#191970" stroke="#191970" points="1590.4724,-304.8278 1600.5968,-307.95 1594.6293,-299.1956 1590.4724,-304.8278"/>
</g>
<!-- Node27&#45;&gt;Node15 -->
<g id="edge40" class="edge">
<title>Node27&#45;&gt;Node15</title>
<path fill="none" stroke="#191970" d="M1542.1569,-306.7258C1529.8332,-305.0231 1517.1304,-303.3738 1505.1481,-302 1309.4193,-279.5589 1076.6867,-262.2133 967.9182,-254.6488"/>
<polygon fill="#191970" stroke="#191970" points="1542.0059,-310.2389 1552.3955,-308.1638 1542.9795,-303.3069 1542.0059,-310.2389"/>
</g>
<!-- Node27&#45;&gt;Node28 -->
<g id="edge41" class="edge">
<title>Node27&#45;&gt;Node28</title>
<path fill="none" stroke="#191970" d="M1623.2295,-298.7374C1629.9867,-286.1614 1638.6035,-270.1246 1643.9997,-260.0817"/>
<polygon fill="#191970" stroke="#191970" points="1619.9561,-297.435 1618.306,-307.9005 1626.1223,-300.7482 1619.9561,-297.435"/>
</g>
<!-- Node29&#45;&gt;Node14 -->
<g id="edge44" class="edge">
<title>Node29&#45;&gt;Node14</title>
<path fill="none" stroke="#191970" d="M1129.6792,-299.7083C1099.2502,-259.5132 1026.0199,-162.78 1002.5317,-131.7534"/>
<polygon fill="#191970" stroke="#191970" points="1126.9823,-301.9447 1135.8087,-307.8051 1132.5634,-297.7195 1126.9823,-301.9447"/>
</g>
<!-- Node29&#45;&gt;Node15 -->
<g id="edge45" class="edge">
<title>Node29&#45;&gt;Node15</title>
<path fill="none" stroke="#191970" d="M1099.7601,-305.2342C1053.7878,-292.2378 982.1552,-271.9872 940.1202,-260.1039"/>
<polygon fill="#191970" stroke="#191970" points="1098.8684,-308.6192 1109.4434,-307.9717 1100.7727,-301.8832 1098.8684,-308.6192"/>
</g>
<!-- Node30&#45;&gt;Node10 -->
<g id="edge53" class="edge">
<title>Node30&#45;&gt;Node10</title>
<path fill="none" stroke="#191970" d="M338.7575,-368.7443C326.2889,-359.0833 310.6157,-346.0898 298.1481,-333 277.512,-311.3341 257.4153,-282.8274 245.936,-265.6249"/>
<polygon fill="#191970" stroke="#191970" points="336.7205,-371.5924 346.7987,-374.8605 340.9583,-366.0209 336.7205,-371.5924"/>
</g>
<!-- Node30&#45;&gt;Node11 -->
<g id="edge55" class="edge">
<title>Node30&#45;&gt;Node11</title>
<path fill="none" stroke="#191970" d="M349.0346,-365.8253C344.0293,-356.3442 338.682,-344.4364 336.1481,-333 333.1676,-319.5485 333.7117,-315.5607 336.1481,-302 343.754,-259.665 365.5054,-212.6929 375.2835,-193.0003"/>
<polygon fill="#191970" stroke="#191970" points="346.0626,-367.682 353.9947,-374.7057 352.174,-364.2685 346.0626,-367.682"/>
</g>
<!-- Node30&#45;&gt;Node13 -->
<g id="edge56" class="edge">
<title>Node30&#45;&gt;Node13</title>
<path fill="none" stroke="#191970" d="M291.5752,-378.2098C198.2817,-369.0333 40.6612,-351.0912 21.1481,-333 -6.4442,-307.4184 2.1481,-288.1265 2.1481,-250.5 2.1481,-250.5 2.1481,-250.5 2.1481,-183.5 2.1481,-93.1675 688.8104,-71.4859 893.3338,-67.0314"/>
<polygon fill="#191970" stroke="#191970" points="291.4931,-381.7182 301.7853,-379.2043 292.1718,-374.7512 291.4931,-381.7182"/>
</g>
<!-- Node30&#45;&gt;Node14 -->
<g id="edge57" class="edge">
<title>Node30&#45;&gt;Node14</title>
<path fill="none" stroke="#191970" d="M373.0045,-366.8695C405.2937,-324.129 494.6601,-215.0542 598.1481,-168 656.5732,-141.4351 837.8819,-129.2421 933.9575,-124.5222"/>
<polygon fill="#191970" stroke="#191970" points="370.1623,-364.8262 366.9961,-374.9369 375.7763,-369.0074 370.1623,-364.8262"/>
</g>
<!-- Node30&#45;&gt;Node15 -->
<g id="edge58" class="edge">
<title>Node30&#45;&gt;Node15</title>
<path fill="none" stroke="#191970" d="M426.4078,-373.4009C436.6857,-371.8272 447.1925,-370.3034 457.1481,-369 613.0778,-348.5846 666.0753,-398.2768 809.1481,-333 827.4557,-324.6472 826.9648,-315.2063 842.1481,-302 859.5805,-286.8373 880.5789,-270.2416 893.6493,-260.0985"/>
<polygon fill="#191970" stroke="#191970" points="425.5774,-369.988 416.235,-374.985 426.6545,-376.9046 425.5774,-369.988"/>
</g>
<!-- Node30&#45;&gt;Node16 -->
<g id="edge54" class="edge">
<title>Node30&#45;&gt;Node16</title>
<path fill="none" stroke="#191970" d="M378.335,-367.7288C410.8476,-338.3113 481.8488,-276.5911 549.1481,-235 572.1082,-220.8106 599.6082,-207.9356 621.3682,-198.6079"/>
<polygon fill="#191970" stroke="#191970" points="375.605,-365.4813 370.571,-374.8039 380.3199,-370.6553 375.605,-365.4813"/>
</g>
<!-- Node30&#45;&gt;Node24 -->
<g id="edge52" class="edge">
<title>Node30&#45;&gt;Node24</title>
<path fill="none" stroke="#191970" d="M422.7638,-373.458C434.1751,-371.7412 445.9963,-370.1565 457.1481,-369 787.3187,-334.7592 875.2823,-384.8566 1203.1481,-333 1206.0856,-332.5354 1209.089,-331.9771 1212.1057,-331.3524"/>
<polygon fill="#191970" stroke="#191970" points="422.2135,-370.0014 412.8683,-374.9932 423.2867,-376.9186 422.2135,-370.0014"/>
</g>
<!-- Node30&#45;&gt;Node31 -->
<g id="edge59" class="edge">
<title>Node30&#45;&gt;Node31</title>
<path fill="none" stroke="#191970" d="M310.4261,-372.5596C256.3686,-359.578 171.0398,-339.0869 121.1405,-327.1039"/>
<polygon fill="#191970" stroke="#191970" points="309.9296,-376.0398 320.4705,-374.9717 311.5642,-369.2333 309.9296,-376.0398"/>
</g>
<!-- Node31&#45;&gt;Node10 -->
<g id="edge60" class="edge">
<title>Node31&#45;&gt;Node10</title>
<path fill="none" stroke="#191970" d="M112.6657,-303.8763C138.4241,-292.742 174.7982,-277.019 201.3962,-265.5218"/>
<polygon fill="#191970" stroke="#191970" points="111.1462,-300.72 103.3558,-307.9005 113.9237,-307.1454 111.1462,-300.72"/>
</g>
<!-- Node31&#45;&gt;Node11 -->
<g id="edge61" class="edge">
<title>Node31&#45;&gt;Node11</title>
<path fill="none" stroke="#191970" d="M90.7506,-298.875C101.5847,-279.7928 121.0213,-250.7554 146.1481,-235 175.4872,-216.6034 265.6464,-200.3518 325.1014,-191.237"/>
<polygon fill="#191970" stroke="#191970" points="87.5872,-297.3661 85.8847,-307.8233 93.7368,-300.7102 87.5872,-297.3661"/>
</g>
<!-- Node31&#45;&gt;Node13 -->
<g id="edge62" class="edge">
<title>Node31&#45;&gt;Node13</title>
<path fill="none" stroke="#191970" d="M82.8304,-297.8931C85.4458,-279.3018 92.1211,-251.7875 109.1481,-235 178.0072,-167.1094 222.3706,-191.5902 316.1481,-168 525.8941,-115.2373 781.8372,-83.8665 893.507,-71.7661"/>
<polygon fill="#191970" stroke="#191970" points="79.3449,-297.5683 81.6911,-307.9 86.3,-298.3602 79.3449,-297.5683"/>
</g>
<!-- Node31&#45;&gt;Node15 -->
<g id="edge63" class="edge">
<title>Node31&#45;&gt;Node15</title>
<path fill="none" stroke="#191970" d="M142.5902,-312.5102C295.4623,-300.0951 691.6036,-267.9236 844.5942,-255.4989"/>
<polygon fill="#191970" stroke="#191970" points="142.1277,-309.0361 132.4438,-313.3342 142.6943,-316.0131 142.1277,-309.0361"/>
</g>
<!-- Node32&#45;&gt;Node11 -->
<g id="edge66" class="edge">
<title>Node32&#45;&gt;Node11</title>
<path fill="none" stroke="#191970" d="M533.6553,-301.7182C497.2046,-273.647 422.1542,-215.8496 392.5483,-193.0496"/>
<polygon fill="#191970" stroke="#191970" points="531.576,-304.5345 541.6344,-307.8631 535.8471,-298.9885 531.576,-304.5345"/>
</g>
<!-- Node32&#45;&gt;Node15 -->
<g id="edge67" class="edge">
<title>Node32&#45;&gt;Node15</title>
<path fill="none" stroke="#191970" d="M614.3609,-306.039C682.5062,-293.0682 792.283,-272.1732 855.9769,-260.0496"/>
<polygon fill="#191970" stroke="#191970" points="613.3764,-302.6635 604.2073,-307.9717 614.6854,-309.54 613.3764,-302.6635"/>
</g>
<!-- Node33&#45;&gt;Node15 -->
<g id="edge69" class="edge">
<title>Node33&#45;&gt;Node15</title>
<path fill="none" stroke="#191970" d="M1097.9799,-361.077C1084.368,-342.8515 1063.4314,-318.0417 1040.1481,-302 1010.9024,-281.8503 972.6956,-268.1757 944.5657,-260.0109"/>
<polygon fill="#191970" stroke="#191970" points="1095.3402,-363.3982 1104.0519,-369.4279 1101.0018,-359.2816 1095.3402,-363.3982"/>
</g>
</g>
</svg>
