<?xml version="1.0" encoding="UTF-8" standalone="no"?>
<!DOCTYPE svg PUBLIC "-//W3C//DTD SVG 1.1//EN"
 "http://www.w3.org/Graphics/SVG/1.1/DTD/svg11.dtd">
<!-- Generated by graphviz version 2.40.1 (20161225.0304)
 -->
<!-- Title: jaegertracingc/alloc.h Pages: 1 -->
<svg width="332pt" height="140pt"
 viewBox="0.00 0.00 331.50 140.00" xmlns="http://www.w3.org/2000/svg" xmlns:xlink="http://www.w3.org/1999/xlink">
<g id="graph0" class="graph" transform="scale(1 1) rotate(0) translate(4 136)">
<title>jaegertracingc/alloc.h</title>
<polygon fill="#ffffff" stroke="transparent" points="-4,4 -4,-136 327.5,-136 327.5,4 -4,4"/>
<!-- Node0 -->
<g id="node1" class="node">
<title>Node0</title>
<polygon fill="#bfbfbf" stroke="#000000" points="73.5,-112.5 73.5,-131.5 182.5,-131.5 182.5,-112.5 73.5,-112.5"/>
<text text-anchor="middle" x="128" y="-119.5" font-family="Helvetica,sans-Serif" font-size="10.00" fill="#000000">jaegertracingc/alloc.h</text>
</g>
<!-- Node1 -->
<g id="node2" class="node">
<title>Node1</title>
<polygon fill="#ffffff" stroke="#bfbfbf" points="0,-56.5 0,-75.5 52,-75.5 52,-56.5 0,-56.5"/>
<text text-anchor="middle" x="26" y="-63.5" font-family="Helvetica,sans-Serif" font-size="10.00" fill="#000000">assert.h</text>
</g>
<!-- Node0&#45;&gt;Node1 -->
<g id="edge1" class="edge">
<title>Node0&#45;&gt;Node1</title>
<path fill="none" stroke="#191970" d="M110.233,-112.2455C94.2905,-103.4928 70.6741,-90.527 52.5011,-80.5496"/>
<polygon fill="#191970" stroke="#191970" points="54.0137,-77.3873 43.5634,-75.6427 50.6448,-83.5233 54.0137,-77.3873"/>
</g>
<!-- Node2 -->
<g id="node3" class="node">
<title>Node2</title>
<polygon fill="#ffffff" stroke="#bfbfbf" points="70.5,-56.5 70.5,-75.5 119.5,-75.5 119.5,-56.5 70.5,-56.5"/>
<text text-anchor="middle" x="95" y="-63.5" font-family="Helvetica,sans-Serif" font-size="10.00" fill="#000000">stdint.h</text>
</g>
<!-- Node0&#45;&gt;Node2 -->
<g id="edge2" class="edge">
<title>Node0&#45;&gt;Node2</title>
<path fill="none" stroke="#191970" d="M122.2518,-112.2455C117.7565,-104.617 111.3752,-93.7881 105.9175,-84.5267"/>
<polygon fill="#191970" stroke="#191970" points="108.7747,-82.4811 100.6823,-75.6427 102.7439,-86.035 108.7747,-82.4811"/>
</g>
<!-- Node3 -->
<g id="node4" class="node">
<title>Node3</title>
<polygon fill="#ffffff" stroke="#bfbfbf" points="137.5,-56.5 137.5,-75.5 186.5,-75.5 186.5,-56.5 137.5,-56.5"/>
<text text-anchor="middle" x="162" y="-63.5" font-family="Helvetica,sans-Serif" font-size="10.00" fill="#000000">string.h</text>
</g>
<!-- Node0&#45;&gt;Node3 -->
<g id="edge3" class="edge">
<title>Node0&#45;&gt;Node3</title>
<path fill="none" stroke="#191970" d="M133.9223,-112.2455C138.6027,-104.5367 145.2673,-93.5598 150.9289,-84.2348"/>
<polygon fill="#191970" stroke="#191970" points="153.9475,-86.007 156.1455,-75.6427 147.9639,-82.3741 153.9475,-86.007"/>
</g>
<!-- Node4 -->
<g id="node5" class="node">
<title>Node4</title>
<g id="a_node5"><a xlink:href="logging_8h.html" target="_top" xlink:title="Logging interface and initialization functions. ">
<polygon fill="#ffffff" stroke="#000000" points="204.5,-56.5 204.5,-75.5 323.5,-75.5 323.5,-56.5 204.5,-56.5"/>
<text text-anchor="middle" x="264" y="-63.5" font-family="Helvetica,sans-Serif" font-size="10.00" fill="#000000">jaegertracingc/logging.h</text>
</a>
</g>
</g>
<!-- Node0&#45;&gt;Node4 -->
<g id="edge4" class="edge">
<title>Node0&#45;&gt;Node4</title>
<path fill="none" stroke="#191970" d="M151.3792,-112.3733C173.5045,-103.2629 206.9134,-89.5062 231.6019,-79.3404"/>
<polygon fill="#191970" stroke="#191970" points="233.0117,-82.5451 240.9258,-75.5011 230.3464,-76.0723 233.0117,-82.5451"/>
</g>
<!-- Node5 -->
<g id="node6" class="node">
<title>Node5</title>
<polygon fill="#ffffff" stroke="#bfbfbf" points="204,-.5 204,-19.5 256,-19.5 256,-.5 204,-.5"/>
<text text-anchor="middle" x="230" y="-7.5" font-family="Helvetica,sans-Serif" font-size="10.00" fill="#000000">stdarg.h</text>
</g>
<!-- Node4&#45;&gt;Node5 -->
<g id="edge5" class="edge">
<title>Node4&#45;&gt;Node5</title>
<path fill="none" stroke="#191970" d="M258.0777,-56.2455C253.3973,-48.5367 246.7327,-37.5598 241.0711,-28.2348"/>
<polygon fill="#191970" stroke="#191970" points="244.0361,-26.3741 235.8545,-19.6427 238.0525,-30.007 244.0361,-26.3741"/>
</g>
<!-- Node6 -->
<g id="node7" class="node">
<title>Node6</title>
<polygon fill="#ffffff" stroke="#bfbfbf" points="274,-.5 274,-19.5 320,-19.5 320,-.5 274,-.5"/>
<text text-anchor="middle" x="297" y="-7.5" font-family="Helvetica,sans-Serif" font-size="10.00" fill="#000000">stdio.h</text>
</g>
<!-- Node4&#45;&gt;Node6 -->
<g id="edge6" class="edge">
<title>Node4&#45;&gt;Node6</title>
<path fill="none" stroke="#191970" d="M269.7482,-56.2455C274.2435,-48.617 280.6248,-37.7881 286.0825,-28.5267"/>
<polygon fill="#191970" stroke="#191970" points="289.2561,-30.035 291.3177,-19.6427 283.2253,-26.4811 289.2561,-30.035"/>
</g>
</g>
</svg>
