<?xml version="1.0" encoding="UTF-8" standalone="no"?>
<!DOCTYPE svg PUBLIC "-//W3C//DTD SVG 1.1//EN"
 "http://www.w3.org/Graphics/SVG/1.1/DTD/svg11.dtd">
<!-- Generated by graphviz version 2.40.1 (20161225.0304)
 -->
<!-- Title: jaegertracingc/alloc.h Pages: 1 -->
<svg width="1940pt" height="531pt"
 viewBox="0.00 0.00 1939.86 531.00" xmlns="http://www.w3.org/2000/svg" xmlns:xlink="http://www.w3.org/1999/xlink">
<g id="graph0" class="graph" transform="scale(1 1) rotate(0) translate(4 527)">
<title>jaegertracingc/alloc.h</title>
<polygon fill="#ffffff" stroke="transparent" points="-4,4 -4,-527 1935.8592,-527 1935.8592,4 -4,4"/>
<!-- Node7 -->
<g id="node1" class="node">
<title>Node7</title>
<polygon fill="#bfbfbf" stroke="#000000" points="426.5399,-503.5 426.5399,-522.5 535.5399,-522.5 535.5399,-503.5 426.5399,-503.5"/>
<text text-anchor="middle" x="481.0399" y="-510.5" font-family="Helvetica,sans-Serif" font-size="10.00" fill="#000000">jaegertracingc/alloc.h</text>
</g>
<!-- Node8 -->
<g id="node2" class="node">
<title>Node8</title>
<g id="a_node2"><a xlink:href="common_8h.html" target="_top" xlink:title="Common headers, struct definitions, and macros. ">
<polygon fill="#ffffff" stroke="#000000" points="848.0399,-447.5 848.0399,-466.5 974.0399,-466.5 974.0399,-447.5 848.0399,-447.5"/>
<text text-anchor="middle" x="911.0399" y="-454.5" font-family="Helvetica,sans-Serif" font-size="10.00" fill="#000000">jaegertracingc/common.h</text>
</a>
</g>
</g>
<!-- Node7&#45;&gt;Node8 -->
<g id="edge1" class="edge">
<title>Node7&#45;&gt;Node8</title>
<path fill="none" stroke="#191970" d="M546.0905,-504.5283C627.757,-493.8927 766.918,-475.7694 847.7485,-465.2426"/>
<polygon fill="#191970" stroke="#191970" points="545.4007,-501.0885 535.9364,-505.8507 546.3047,-508.0299 545.4007,-501.0885"/>
</g>
<!-- Node26 -->
<g id="node20" class="node">
<title>Node26</title>
<g id="a_node20"><a xlink:href="key__value_8h.html" target="_top" xlink:title="Key value pair representation. ">
<polygon fill="#ffffff" stroke="#000000" points="126.0399,-313.5 126.0399,-343.5 222.0399,-343.5 222.0399,-313.5 126.0399,-313.5"/>
<text text-anchor="start" x="134.0399" y="-331.5" font-family="Helvetica,sans-Serif" font-size="10.00" fill="#000000">jaegertracingc/key</text>
<text text-anchor="middle" x="174.0399" y="-320.5" font-family="Helvetica,sans-Serif" font-size="10.00" fill="#000000">_value.h</text>
</a>
</g>
</g>
<!-- Node7&#45;&gt;Node26 -->
<g id="edge75" class="edge">
<title>Node7&#45;&gt;Node26</title>
<path fill="none" stroke="#191970" d="M416.2185,-506.1092C313.3487,-493.6887 120.1156,-463.7995 79.0399,-411 57.8475,-383.7588 99.0019,-358.7176 133.6164,-343.5374"/>
<polygon fill="#191970" stroke="#191970" points="415.8427,-509.5891 426.1856,-507.2921 416.6678,-502.6378 415.8427,-509.5891"/>
</g>
<!-- Node31 -->
<g id="node25" class="node">
<title>Node31</title>
<g id="a_node25"><a xlink:href="tag_8h.html" target="_top" xlink:title="Tag representation and functions. ">
<polygon fill="#ffffff" stroke="#000000" points="430.0399,-319 430.0399,-338 532.0399,-338 532.0399,-319 430.0399,-319"/>
<text text-anchor="middle" x="481.0399" y="-326" font-family="Helvetica,sans-Serif" font-size="10.00" fill="#000000">jaegertracingc/tag.h</text>
</a>
</g>
</g>
<!-- Node7&#45;&gt;Node31 -->
<g id="edge76" class="edge">
<title>Node7&#45;&gt;Node31</title>
<path fill="none" stroke="#191970" d="M481.0399,-493.1587C481.0399,-453.7567 481.0399,-366.9547 481.0399,-338.0641"/>
<polygon fill="#191970" stroke="#191970" points="477.54,-493.3402 481.0399,-503.3402 484.54,-493.3403 477.54,-493.3402"/>
</g>
<!-- Node9 -->
<g id="node3" class="node">
<title>Node9</title>
<g id="a_node3"><a xlink:href="baggage_8h.html" target="_top" xlink:title="Baggage restriction utilities. ">
<polygon fill="#ffffff" stroke="#000000" points="1610.5399,-123.5 1610.5399,-142.5 1735.5399,-142.5 1735.5399,-123.5 1610.5399,-123.5"/>
<text text-anchor="middle" x="1673.0399" y="-130.5" font-family="Helvetica,sans-Serif" font-size="10.00" fill="#000000">jaegertracingc/baggage.h</text>
</a>
</g>
</g>
<!-- Node8&#45;&gt;Node9 -->
<g id="edge2" class="edge">
<title>Node8&#45;&gt;Node9</title>
<path fill="none" stroke="#191970" d="M984.4607,-455.2768C1197.9244,-450.0156 1805.6094,-433.1612 1842.0399,-411 1882.0897,-386.6372 1902.7452,-354.5501 1881.0399,-313 1843.9338,-241.9686 1791.2146,-265.1183 1733.0399,-210 1710.4035,-188.5529 1689.3108,-158.1577 1679.2368,-142.7569"/>
<polygon fill="#191970" stroke="#191970" points="984.2055,-451.7819 974.2943,-455.5259 984.3771,-458.7798 984.2055,-451.7819"/>
</g>
<!-- Node10 -->
<g id="node4" class="node">
<title>Node10</title>
<g id="a_node4"><a xlink:href="tracer_8h.html" target="_top" xlink:title="Tracer implementation. ">
<polygon fill="#ffffff" stroke="#000000" points="772.5399,-62 772.5399,-81 885.5399,-81 885.5399,-62 772.5399,-62"/>
<text text-anchor="middle" x="829.0399" y="-69" font-family="Helvetica,sans-Serif" font-size="10.00" fill="#000000">jaegertracingc/tracer.h</text>
</a>
</g>
</g>
<!-- Node8&#45;&gt;Node10 -->
<g id="edge3" class="edge">
<title>Node8&#45;&gt;Node10</title>
<path fill="none" stroke="#191970" d="M984.381,-454.9322C1075.6952,-451.154 1235.9951,-440.5543 1370.0399,-411 1468.7738,-389.231 1582.0399,-429.6053 1582.0399,-328.5 1582.0399,-328.5 1582.0399,-328.5 1582.0399,-194.5 1582.0399,-123.9641 1060.7561,-85.6544 885.6373,-74.7748"/>
<polygon fill="#191970" stroke="#191970" points="983.9893,-451.4449 974.1362,-455.3393 984.2673,-458.4394 983.9893,-451.4449"/>
</g>
<!-- Node12 -->
<g id="node6" class="node">
<title>Node12</title>
<g id="a_node6"><a xlink:href="clock_8h.html" target="_top" xlink:title="Timestamp and duration representations. ">
<polygon fill="#ffffff" stroke="#000000" points="958.0399,-386 958.0399,-405 1070.0399,-405 1070.0399,-386 958.0399,-386"/>
<text text-anchor="middle" x="1014.0399" y="-393" font-family="Helvetica,sans-Serif" font-size="10.00" fill="#000000">jaegertracingc/clock.h</text>
</a>
</g>
</g>
<!-- Node8&#45;&gt;Node12 -->
<g id="edge5" class="edge">
<title>Node8&#45;&gt;Node12</title>
<path fill="none" stroke="#191970" d="M935.7289,-442.2585C955.0667,-430.7122 981.3981,-414.99 998.0592,-405.0419"/>
<polygon fill="#191970" stroke="#191970" points="933.9253,-439.2589 927.1336,-447.3906 937.5139,-445.2691 933.9253,-439.2589"/>
</g>
<!-- Node13 -->
<g id="node7" class="node">
<title>Node13</title>
<g id="a_node7"><a xlink:href="log__record_8h.html" target="_top" xlink:title="Log record representation for use in span. ">
<polygon fill="#ffffff" stroke="#000000" points="503.5399,-246.5 503.5399,-276.5 596.5399,-276.5 596.5399,-246.5 503.5399,-246.5"/>
<text text-anchor="start" x="511.5399" y="-264.5" font-family="Helvetica,sans-Serif" font-size="10.00" fill="#000000">jaegertracingc/log</text>
<text text-anchor="middle" x="550.0399" y="-253.5" font-family="Helvetica,sans-Serif" font-size="10.00" fill="#000000">_record.h</text>
</a>
</g>
</g>
<!-- Node8&#45;&gt;Node13 -->
<g id="edge35" class="edge">
<title>Node8&#45;&gt;Node13</title>
<path fill="none" stroke="#191970" d="M857.0448,-445.223C773.1472,-425.8756 617.1434,-385.3657 579.0399,-344 561.5537,-325.0168 554.503,-294.8649 551.7392,-276.7489"/>
<polygon fill="#191970" stroke="#191970" points="856.3776,-448.6607 866.906,-447.4762 857.9369,-441.8365 856.3776,-448.6607"/>
</g>
<!-- Node14 -->
<g id="node8" class="node">
<title>Node14</title>
<g id="a_node8"><a xlink:href="span_8h.html" target="_top" xlink:title="Span, span context, and span ref representations and functions. ">
<polygon fill="#ffffff" stroke="#000000" points="529.0399,-185 529.0399,-204 639.0399,-204 639.0399,-185 529.0399,-185"/>
<text text-anchor="middle" x="584.0399" y="-192" font-family="Helvetica,sans-Serif" font-size="10.00" fill="#000000">jaegertracingc/span.h</text>
</a>
</g>
</g>
<!-- Node8&#45;&gt;Node14 -->
<g id="edge52" class="edge">
<title>Node8&#45;&gt;Node14</title>
<path fill="none" stroke="#191970" d="M921.9585,-438.4151C936.9559,-410.3185 960.1257,-355.7708 942.0399,-313 925.3921,-273.6298 911.0818,-265.4928 873.0399,-246 833.0696,-225.5191 711.1505,-208.8284 639.0682,-200.417"/>
<polygon fill="#191970" stroke="#191970" points="918.8811,-436.7476 917.0757,-447.1874 924.9974,-440.1521 918.8811,-436.7476"/>
</g>
<!-- Node15 -->
<g id="node9" class="node">
<title>Node15</title>
<g id="a_node9"><a xlink:href="reporter_8h.html" target="_top" xlink:title="Span reporter interface. ">
<polygon fill="#ffffff" stroke="#000000" points="640.0399,-123.5 640.0399,-142.5 762.0399,-142.5 762.0399,-123.5 640.0399,-123.5"/>
<text text-anchor="middle" x="701.0399" y="-130.5" font-family="Helvetica,sans-Serif" font-size="10.00" fill="#000000">jaegertracingc/reporter.h</text>
</a>
</g>
</g>
<!-- Node8&#45;&gt;Node15 -->
<g id="edge53" class="edge">
<title>Node8&#45;&gt;Node15</title>
<path fill="none" stroke="#191970" d="M837.8026,-455.1672C636.8444,-449.8581 89.589,-433.4089 58.0399,-411 5.5551,-373.7208 15.4976,-340.1601 3.0399,-277 -28.3853,-117.6752 194.7231,-204.8935 355.0399,-179 454.4951,-162.9365 570.6967,-148.3367 639.9498,-140.0742"/>
<polygon fill="#191970" stroke="#191970" points="837.8778,-458.6703 847.9662,-455.434 838.0615,-451.6727 837.8778,-458.6703"/>
</g>
<!-- Node16 -->
<g id="node10" class="node">
<title>Node16</title>
<g id="a_node10"><a xlink:href="sampler_8h.html" target="_top" xlink:title="Span sampler interface. ">
<polygon fill="#ffffff" stroke="#000000" points="1066.5399,-252 1066.5399,-271 1189.5399,-271 1189.5399,-252 1066.5399,-252"/>
<text text-anchor="middle" x="1128.0399" y="-259" font-family="Helvetica,sans-Serif" font-size="10.00" fill="#000000">jaegertracingc/sampler.h</text>
</a>
</g>
</g>
<!-- Node8&#45;&gt;Node16 -->
<g id="edge54" class="edge">
<title>Node8&#45;&gt;Node16</title>
<path fill="none" stroke="#191970" d="M984.3945,-452.2713C1080.0986,-445.3419 1237.4997,-431.0418 1255.0399,-411 1274.5178,-388.7441 1243.7172,-325.2717 1233.0399,-313 1214.9147,-292.1682 1186.4138,-278.9355 1163.6767,-271.1072"/>
<polygon fill="#191970" stroke="#191970" points="983.914,-448.7966 974.1884,-452.9993 984.4121,-455.7788 983.914,-448.7966"/>
</g>
<!-- Node17 -->
<g id="node11" class="node">
<title>Node17</title>
<g id="a_node11"><a xlink:href="mock__agent_8h.html" target="_top" xlink:title="Key value pair representation. ">
<polygon fill="#ffffff" stroke="#000000" points="399.0399,-179.5 399.0399,-209.5 503.0399,-209.5 503.0399,-179.5 399.0399,-179.5"/>
<text text-anchor="start" x="407.0399" y="-197.5" font-family="Helvetica,sans-Serif" font-size="10.00" fill="#000000">jaegertracingc/mock</text>
<text text-anchor="middle" x="451.0399" y="-186.5" font-family="Helvetica,sans-Serif" font-size="10.00" fill="#000000">_agent.h</text>
</a>
</g>
</g>
<!-- Node8&#45;&gt;Node17 -->
<g id="edge47" class="edge">
<title>Node8&#45;&gt;Node17</title>
<path fill="none" stroke="#191970" d="M837.5744,-454.5095C674.1989,-448.6101 290.8258,-432.6392 236.0399,-411 215.768,-402.9931 216.6071,-391.4158 198.0399,-380 164.4803,-359.3662 138.507,-377.0328 117.0399,-344 109.5322,-332.4474 109.1381,-324.2867 117.0399,-313 150.0775,-265.8103 313.4788,-224.255 398.8604,-205.3387"/>
<polygon fill="#191970" stroke="#191970" points="837.8927,-458.0231 848.0117,-454.8835 838.1434,-451.0276 837.8927,-458.0231"/>
</g>
<!-- Node18 -->
<g id="node12" class="node">
<title>Node18</title>
<g id="a_node12"><a xlink:href="token__bucket_8h.html" target="_top" xlink:title="Token bucket implementation. ">
<polygon fill="#ffffff" stroke="#000000" points="1104.0399,-313.5 1104.0399,-343.5 1208.0399,-343.5 1208.0399,-313.5 1104.0399,-313.5"/>
<text text-anchor="start" x="1112.0399" y="-331.5" font-family="Helvetica,sans-Serif" font-size="10.00" fill="#000000">jaegertracingc/token</text>
<text text-anchor="middle" x="1156.0399" y="-320.5" font-family="Helvetica,sans-Serif" font-size="10.00" fill="#000000">_bucket.h</text>
</a>
</g>
</g>
<!-- Node8&#45;&gt;Node18 -->
<g id="edge74" class="edge">
<title>Node8&#45;&gt;Node18</title>
<path fill="none" stroke="#191970" d="M984.0357,-446.1511C1014.9185,-439.3118 1050.3142,-428.3585 1079.0399,-411 1107.8814,-393.5715 1132.7262,-362.3208 1145.9253,-343.6889"/>
<polygon fill="#191970" stroke="#191970" points="983.2437,-442.7411 974.1816,-448.23 984.6887,-449.5903 983.2437,-442.7411"/>
</g>
<!-- Node19 -->
<g id="node13" class="node">
<title>Node19</title>
<g id="a_node13"><a xlink:href="constants_8h_source.html" target="_top" xlink:title="jaegertracingc/constants.h">
<polygon fill="#ffffff" stroke="#000000" points="1422.5399,-319 1422.5399,-338 1553.5399,-338 1553.5399,-319 1422.5399,-319"/>
<text text-anchor="middle" x="1488.0399" y="-326" font-family="Helvetica,sans-Serif" font-size="10.00" fill="#000000">jaegertracingc/constants.h</text>
</a>
</g>
</g>
<!-- Node8&#45;&gt;Node19 -->
<g id="edge18" class="edge">
<title>Node8&#45;&gt;Node19</title>
<path fill="none" stroke="#191970" d="M984.2152,-451.7162C1083.974,-444.0006 1257.2101,-428.6355 1318.0399,-411 1378.5358,-393.4613 1443.9128,-355.8244 1472.8204,-338.1021"/>
<polygon fill="#191970" stroke="#191970" points="983.9077,-448.2294 974.2046,-452.4839 984.4429,-455.2089 983.9077,-448.2294"/>
</g>
<!-- Node20 -->
<g id="node14" class="node">
<title>Node20</title>
<g id="a_node14"><a xlink:href="options_8h.html" target="_top" xlink:title="Configuration options. ">
<polygon fill="#ffffff" stroke="#000000" points="1742.0399,-185 1742.0399,-204 1862.0399,-204 1862.0399,-185 1742.0399,-185"/>
<text text-anchor="middle" x="1802.0399" y="-192" font-family="Helvetica,sans-Serif" font-size="10.00" fill="#000000">jaegertracingc/options.h</text>
</a>
</g>
</g>
<!-- Node8&#45;&gt;Node20 -->
<g id="edge51" class="edge">
<title>Node8&#45;&gt;Node20</title>
<path fill="none" stroke="#191970" d="M984.1796,-456.3785C1209.8429,-454.106 1882.0047,-444.5381 1914.0399,-411 1977.0309,-345.0538 1854.605,-236.7176 1814.2921,-204.0898"/>
<polygon fill="#191970" stroke="#191970" points="984.06,-452.8794 974.0951,-456.4781 984.1292,-459.879 984.06,-452.8794"/>
</g>
<!-- Node21 -->
<g id="node15" class="node">
<title>Node21</title>
<g id="a_node15"><a xlink:href="hashtable_8h.html" target="_top" xlink:title="Hashtable data structure. ">
<polygon fill="#ffffff" stroke="#000000" points="12.5399,-252 12.5399,-271 143.5399,-271 143.5399,-252 12.5399,-252"/>
<text text-anchor="middle" x="78.0399" y="-259" font-family="Helvetica,sans-Serif" font-size="10.00" fill="#000000">jaegertracingc/hashtable.h</text>
</a>
</g>
</g>
<!-- Node8&#45;&gt;Node21 -->
<g id="edge23" class="edge">
<title>Node8&#45;&gt;Node21</title>
<path fill="none" stroke="#191970" d="M837.8578,-455.5067C639.8053,-451.1287 106.3114,-436.9703 79.0399,-411 39.9438,-373.7693 63.7187,-298.3451 74.0088,-271.37"/>
<polygon fill="#191970" stroke="#191970" points="837.8055,-459.0063 847.8798,-455.7262 837.9589,-452.0079 837.8055,-459.0063"/>
</g>
<!-- Node23 -->
<g id="node17" class="node">
<title>Node23</title>
<g id="a_node17"><a xlink:href="internal_2random_8h_source.html" target="_top" xlink:title="jaegertracingc/internal\l/random.h">
<polygon fill="#ffffff" stroke="#000000" points="729.0399,-246.5 729.0399,-276.5 841.0399,-276.5 841.0399,-246.5 729.0399,-246.5"/>
<text text-anchor="start" x="737.0399" y="-264.5" font-family="Helvetica,sans-Serif" font-size="10.00" fill="#000000">jaegertracingc/internal</text>
<text text-anchor="middle" x="785.0399" y="-253.5" font-family="Helvetica,sans-Serif" font-size="10.00" fill="#000000">/random.h</text>
</a>
</g>
</g>
<!-- Node8&#45;&gt;Node23 -->
<g id="edge27" class="edge">
<title>Node8&#45;&gt;Node23</title>
<path fill="none" stroke="#191970" d="M889.0198,-440.9482C863.5821,-421.1438 822.4865,-385.0193 801.0399,-344 789.7508,-322.4082 786.3816,-293.8789 785.4034,-276.6518"/>
<polygon fill="#191970" stroke="#191970" points="887.2291,-443.9837 897.3066,-447.254 891.468,-438.413 887.2291,-443.9837"/>
</g>
<!-- Node24 -->
<g id="node18" class="node">
<title>Node24</title>
<g id="a_node18"><a xlink:href="siphash_8h.html" target="_top" xlink:title="Siphash implementation. ">
<polygon fill="#ffffff" stroke="#000000" points="1711.0399,-386 1711.0399,-405 1833.0399,-405 1833.0399,-386 1711.0399,-386"/>
<text text-anchor="middle" x="1772.0399" y="-393" font-family="Helvetica,sans-Serif" font-size="10.00" fill="#000000">jaegertracingc/siphash.h</text>
</a>
</g>
</g>
<!-- Node8&#45;&gt;Node24 -->
<g id="edge28" class="edge">
<title>Node8&#45;&gt;Node24</title>
<path fill="none" stroke="#191970" d="M984.3688,-454.3147C1118.5155,-448.9966 1412.3507,-435.4696 1659.0399,-411 1675.8877,-409.3288 1694.0864,-407.045 1710.8542,-404.7441"/>
<polygon fill="#191970" stroke="#191970" points="984.0681,-450.8237 974.2132,-454.7137 984.343,-457.8183 984.0681,-450.8237"/>
</g>
<!-- Node8&#45;&gt;Node26 -->
<g id="edge30" class="edge">
<title>Node8&#45;&gt;Node26</title>
<path fill="none" stroke="#191970" d="M837.7293,-456.1738C697.1776,-453.8263 395.0498,-444.8772 297.0399,-411 254.5114,-396.3 212.6494,-363.1454 190.4162,-343.6364"/>
<polygon fill="#191970" stroke="#191970" points="837.9171,-459.6772 847.9719,-456.338 838.0293,-452.6781 837.9171,-459.6772"/>
</g>
<!-- Node27 -->
<g id="node21" class="node">
<title>Node27</title>
<g id="a_node21"><a xlink:href="list_8h_source.html" target="_top" xlink:title="jaegertracingc/list.h">
<polygon fill="#ffffff" stroke="#000000" points="88.5399,-386 88.5399,-405 189.5399,-405 189.5399,-386 88.5399,-386"/>
<text text-anchor="middle" x="139.0399" y="-393" font-family="Helvetica,sans-Serif" font-size="10.00" fill="#000000">jaegertracingc/list.h</text>
</a>
</g>
</g>
<!-- Node8&#45;&gt;Node27 -->
<g id="edge33" class="edge">
<title>Node8&#45;&gt;Node27</title>
<path fill="none" stroke="#191970" d="M837.6164,-453.8008C682.241,-446.7724 324.5728,-429.1589 204.0399,-411 194.289,-409.531 183.8474,-407.3287 174.2487,-405.042"/>
<polygon fill="#191970" stroke="#191970" points="837.8535,-457.3149 848.0008,-454.2683 838.1684,-450.322 837.8535,-457.3149"/>
</g>
<!-- Node28 -->
<g id="node22" class="node">
<title>Node28</title>
<g id="a_node22"><a xlink:href="threading_8h.html" target="_top" xlink:title="Threading utilities. ">
<polygon fill="#ffffff" stroke="#000000" points="626.0399,-319 626.0399,-338 754.0399,-338 754.0399,-319 626.0399,-319"/>
<text text-anchor="middle" x="690.0399" y="-326" font-family="Helvetica,sans-Serif" font-size="10.00" fill="#000000">jaegertracingc/threading.h</text>
</a>
</g>
</g>
<!-- Node8&#45;&gt;Node28 -->
<g id="edge36" class="edge">
<title>Node8&#45;&gt;Node28</title>
<path fill="none" stroke="#191970" d="M851.0328,-444.8619C824.2698,-437.6958 793.1798,-426.843 768.0399,-411 736.3558,-391.0329 708.7371,-355.26 696.6021,-338.1417"/>
<polygon fill="#191970" stroke="#191970" points="850.5009,-448.3386 861.0567,-447.4306 852.2386,-441.5577 850.5009,-448.3386"/>
</g>
<!-- Node29 -->
<g id="node23" class="node">
<title>Node29</title>
<g id="a_node23"><a xlink:href="metrics_8h.html" target="_top" xlink:title="Metrics interfaces to track various numbers while tracing. ">
<polygon fill="#ffffff" stroke="#000000" points="1610.5399,-319 1610.5399,-338 1731.5399,-338 1731.5399,-319 1610.5399,-319"/>
<text text-anchor="middle" x="1671.0399" y="-326" font-family="Helvetica,sans-Serif" font-size="10.00" fill="#000000">jaegertracingc/metrics.h</text>
</a>
</g>
</g>
<!-- Node8&#45;&gt;Node29 -->
<g id="edge42" class="edge">
<title>Node8&#45;&gt;Node29</title>
<path fill="none" stroke="#191970" d="M984.1351,-455.1697C1149.4709,-450.5905 1542.0326,-437.0896 1596.0399,-411 1629.6792,-394.7497 1655.2248,-356.1109 1665.7608,-338.0775"/>
<polygon fill="#191970" stroke="#191970" points="983.9546,-451.6732 974.0541,-455.4456 984.1462,-458.6706 983.9546,-451.6732"/>
</g>
<!-- Node30 -->
<g id="node24" class="node">
<title>Node30</title>
<g id="a_node24"><a xlink:href="net_8h.html" target="_top" xlink:title="Network utilities. ">
<polygon fill="#ffffff" stroke="#000000" points="1302.0399,-319 1302.0399,-338 1404.0399,-338 1404.0399,-319 1302.0399,-319"/>
<text text-anchor="middle" x="1353.0399" y="-326" font-family="Helvetica,sans-Serif" font-size="10.00" fill="#000000">jaegertracingc/net.h</text>
</a>
</g>
</g>
<!-- Node8&#45;&gt;Node30 -->
<g id="edge48" class="edge">
<title>Node8&#45;&gt;Node30</title>
<path fill="none" stroke="#191970" d="M984.3065,-454.6379C1078.9621,-450.4734 1237.5835,-439.3859 1288.0399,-411 1318.5526,-393.8341 1339.8587,-356.0108 1348.6048,-338.172"/>
<polygon fill="#191970" stroke="#191970" points="984.0651,-451.1449 974.2226,-455.066 984.3621,-458.1386 984.0651,-451.1449"/>
</g>
<!-- Node8&#45;&gt;Node31 -->
<g id="edge55" class="edge">
<title>Node8&#45;&gt;Node31</title>
<path fill="none" stroke="#191970" d="M837.9201,-454.2972C746.0316,-449.7947 594.4754,-438.3751 546.0399,-411 515.5612,-393.7738 494.238,-355.9807 485.4814,-338.1607"/>
<polygon fill="#191970" stroke="#191970" points="837.8393,-457.7972 847.9939,-454.7748 838.1709,-450.805 837.8393,-457.7972"/>
</g>
<!-- Node32 -->
<g id="node26" class="node">
<title>Node32</title>
<g id="a_node26"><a xlink:href="vector_8h.html" target="_top" xlink:title="C generic vector implementation. ">
<polygon fill="#ffffff" stroke="#000000" points="306.0399,-386 306.0399,-405 422.0399,-405 422.0399,-386 306.0399,-386"/>
<text text-anchor="middle" x="364.0399" y="-393" font-family="Helvetica,sans-Serif" font-size="10.00" fill="#000000">jaegertracingc/vector.h</text>
</a>
</g>
</g>
<!-- Node8&#45;&gt;Node32 -->
<g id="edge60" class="edge">
<title>Node8&#45;&gt;Node32</title>
<path fill="none" stroke="#191970" d="M838.0251,-448.7908C728.1988,-436.4429 522.6813,-413.3363 422.265,-402.0463"/>
<polygon fill="#191970" stroke="#191970" points="837.6966,-452.2759 848.0251,-449.9152 838.4788,-445.3197 837.6966,-452.2759"/>
</g>
<!-- Node33 -->
<g id="node27" class="node">
<title>Node33</title>
<g id="a_node27"><a xlink:href="trace__id_8h.html" target="_top" xlink:title="Trace ID representation. ">
<polygon fill="#ffffff" stroke="#000000" points="810.5399,-319 810.5399,-338 933.5399,-338 933.5399,-319 810.5399,-319"/>
<text text-anchor="middle" x="872.0399" y="-326" font-family="Helvetica,sans-Serif" font-size="10.00" fill="#000000">jaegertracingc/trace_id.h</text>
</a>
</g>
</g>
<!-- Node8&#45;&gt;Node33 -->
<g id="edge69" class="edge">
<title>Node8&#45;&gt;Node33</title>
<path fill="none" stroke="#191970" d="M905.1351,-437.5446C896.6745,-409.6679 881.4172,-359.3972 875.0052,-338.2705"/>
<polygon fill="#191970" stroke="#191970" points="901.8551,-438.7891 908.1086,-447.3416 908.5534,-436.7561 901.8551,-438.7891"/>
</g>
<!-- Node34 -->
<g id="node28" class="node">
<title>Node34</title>
<g id="a_node28"><a xlink:href="sampling__strategy_8h.html" target="_top" xlink:title="Sampling strategy type definitions. ">
<polygon fill="#ffffff" stroke="#000000" points="1126.5399,-380.5 1126.5399,-410.5 1245.5399,-410.5 1245.5399,-380.5 1126.5399,-380.5"/>
<text text-anchor="start" x="1134.5399" y="-398.5" font-family="Helvetica,sans-Serif" font-size="10.00" fill="#000000">jaegertracingc/sampling</text>
<text text-anchor="middle" x="1186.0399" y="-387.5" font-family="Helvetica,sans-Serif" font-size="10.00" fill="#000000">_strategy.h</text>
</a>
</g>
</g>
<!-- Node8&#45;&gt;Node34 -->
<g id="edge72" class="edge">
<title>Node8&#45;&gt;Node34</title>
<path fill="none" stroke="#191970" d="M963.5815,-445.2498C1010.0771,-434.8517 1077.8862,-419.6871 1126.4027,-408.837"/>
<polygon fill="#191970" stroke="#191970" points="962.702,-441.8599 953.7069,-447.4581 964.2297,-448.6912 962.702,-441.8599"/>
</g>
<!-- Node11 -->
<g id="node5" class="node">
<title>Node11</title>
<g id="a_node5"><a xlink:href="propagation_8c.html" target="_top" xlink:title="Trace ID representation. ">
<polygon fill="#ffffff" stroke="#000000" points="759.5399,-.5 759.5399,-19.5 898.5399,-19.5 898.5399,-.5 759.5399,-.5"/>
<text text-anchor="middle" x="829.0399" y="-7.5" font-family="Helvetica,sans-Serif" font-size="10.00" fill="#000000">jaegertracingc/propagation.c</text>
</a>
</g>
</g>
<!-- Node10&#45;&gt;Node11 -->
<g id="edge4" class="edge">
<title>Node10&#45;&gt;Node11</title>
<path fill="none" stroke="#191970" d="M829.0399,-51.7462C829.0399,-41.0519 829.0399,-28.314 829.0399,-19.7449"/>
<polygon fill="#191970" stroke="#191970" points="825.54,-51.8906 829.0399,-61.8906 832.54,-51.8907 825.54,-51.8906"/>
</g>
<!-- Node12&#45;&gt;Node13 -->
<g id="edge6" class="edge">
<title>Node12&#45;&gt;Node13</title>
<path fill="none" stroke="#191970" d="M947.6385,-392.8066C849.7393,-387.8512 672.2901,-374.8217 617.0399,-344 589.0024,-328.3591 568.126,-295.8671 557.6288,-276.6567"/>
<polygon fill="#191970" stroke="#191970" points="947.5645,-396.3071 957.7244,-393.3028 947.9085,-389.3155 947.5645,-396.3071"/>
</g>
<!-- Node12&#45;&gt;Node14 -->
<g id="edge12" class="edge">
<title>Node12&#45;&gt;Node14</title>
<path fill="none" stroke="#191970" d="M1021.2167,-376.2106C1031.5533,-344.7092 1046.093,-282.1212 1014.0399,-246 989.5559,-218.4087 749.9093,-202.855 639.3768,-197.0977"/>
<polygon fill="#191970" stroke="#191970" points="1017.8042,-375.3674 1017.8191,-385.9622 1024.4145,-377.6705 1017.8042,-375.3674"/>
</g>
<!-- Node12&#45;&gt;Node16 -->
<g id="edge13" class="edge">
<title>Node12&#45;&gt;Node16</title>
<path fill="none" stroke="#191970" d="M1029.0109,-377.9025C1053.4091,-349.2239 1100.9278,-293.3686 1119.9156,-271.0496"/>
<polygon fill="#191970" stroke="#191970" points="1026.0525,-375.9785 1022.2385,-385.8631 1031.3841,-380.5144 1026.0525,-375.9785"/>
</g>
<!-- Node12&#45;&gt;Node18 -->
<g id="edge16" class="edge">
<title>Node12&#45;&gt;Node18</title>
<path fill="none" stroke="#191970" d="M1043.5401,-381.5809C1067.0986,-370.4653 1100.0502,-354.9177 1124.2027,-343.5218"/>
<polygon fill="#191970" stroke="#191970" points="1041.9354,-378.468 1034.385,-385.9005 1044.9224,-384.7987 1041.9354,-378.468"/>
</g>
<!-- Node13&#45;&gt;Node14 -->
<g id="edge7" class="edge">
<title>Node13&#45;&gt;Node14</title>
<path fill="none" stroke="#191970" d="M562.3934,-237.1564C568.2148,-225.6846 574.8237,-212.6613 579.1911,-204.055"/>
<polygon fill="#191970" stroke="#191970" points="559.1592,-235.7953 557.755,-246.2967 565.4015,-238.963 559.1592,-235.7953"/>
</g>
<!-- Node14&#45;&gt;Node9 -->
<g id="edge8" class="edge">
<title>Node14&#45;&gt;Node9</title>
<path fill="none" stroke="#191970" d="M649.2406,-190.8179C843.8372,-179.8283 1418.8011,-147.3578 1610.2359,-136.5468"/>
<polygon fill="#191970" stroke="#191970" points="648.9514,-187.3285 639.1647,-191.3869 649.3462,-194.3174 648.9514,-187.3285"/>
</g>
<!-- Node14&#45;&gt;Node11 -->
<g id="edge9" class="edge">
<title>Node14&#45;&gt;Node11</title>
<path fill="none" stroke="#191970" d="M593.3026,-175.5021C601.577,-159.9733 614.8722,-138.1811 631.0399,-123 684.5624,-72.7433 764.4807,-35.9879 804.4391,-19.5552"/>
<polygon fill="#191970" stroke="#191970" points="590.0509,-174.1735 588.6105,-184.67 596.2822,-177.3627 590.0509,-174.1735"/>
</g>
<!-- Node14&#45;&gt;Node15 -->
<g id="edge10" class="edge">
<title>Node14&#45;&gt;Node15</title>
<path fill="none" stroke="#191970" d="M611.1945,-180.2264C633.2368,-168.6401 663.7044,-152.6251 682.887,-142.5419"/>
<polygon fill="#191970" stroke="#191970" points="609.5443,-177.1397 602.3211,-184.8906 612.8013,-183.3359 609.5443,-177.1397"/>
</g>
<!-- Node15&#45;&gt;Node10 -->
<g id="edge11" class="edge">
<title>Node15&#45;&gt;Node10</title>
<path fill="none" stroke="#191970" d="M730.1038,-119.0357C754.266,-107.4265 788.0068,-91.2151 809.1803,-81.0419"/>
<polygon fill="#191970" stroke="#191970" points="728.5377,-115.9051 721.0399,-123.3906 731.5693,-122.2146 728.5377,-115.9051"/>
</g>
<!-- Node16&#45;&gt;Node10 -->
<g id="edge14" class="edge">
<title>Node16&#45;&gt;Node10</title>
<path fill="none" stroke="#191970" d="M1104.13,-246.3064C1044.9452,-208.6973 892.8907,-112.0741 844.2477,-81.1638"/>
<polygon fill="#191970" stroke="#191970" points="1102.4841,-249.4074 1112.8014,-251.8167 1106.2384,-243.4993 1102.4841,-249.4074"/>
</g>
<!-- Node16&#45;&gt;Node17 -->
<g id="edge15" class="edge">
<title>Node16&#45;&gt;Node17</title>
<path fill="none" stroke="#191970" d="M1056.4315,-258.6031C942.3692,-253.2784 712.6343,-239.647 520.0399,-210 514.5792,-209.1594 508.9063,-208.1354 503.2645,-207.0185"/>
<polygon fill="#191970" stroke="#191970" points="1056.2887,-262.1002 1066.4388,-259.0628 1056.61,-255.1075 1056.2887,-262.1002"/>
</g>
<!-- Node18&#45;&gt;Node16 -->
<g id="edge17" class="edge">
<title>Node18&#45;&gt;Node16</title>
<path fill="none" stroke="#191970" d="M1145.7224,-303.8118C1140.9636,-292.4246 1135.5937,-279.5752 1132.033,-271.055"/>
<polygon fill="#191970" stroke="#191970" points="1142.6009,-305.4196 1149.6863,-313.2967 1149.0596,-302.7204 1142.6009,-305.4196"/>
</g>
<!-- Node19&#45;&gt;Node16 -->
<g id="edge22" class="edge">
<title>Node19&#45;&gt;Node16</title>
<path fill="none" stroke="#191970" d="M1432.5992,-316.8798C1426.0119,-315.5472 1419.379,-314.2276 1413.0399,-313 1333.1946,-297.5377 1240.4708,-281.055 1183.0183,-271.0142"/>
<polygon fill="#191970" stroke="#191970" points="1432.3663,-320.4042 1442.864,-318.973 1433.7651,-313.5454 1432.3663,-320.4042"/>
</g>
<!-- Node19&#45;&gt;Node20 -->
<g id="edge19" class="edge">
<title>Node19&#45;&gt;Node20</title>
<path fill="none" stroke="#191970" d="M1520.1616,-314.792C1583.8898,-287.5959 1724.8831,-227.4268 1779.6624,-204.0496"/>
<polygon fill="#191970" stroke="#191970" points="1518.4457,-311.7188 1510.622,-318.8631 1521.1933,-318.1571 1518.4457,-311.7188"/>
</g>
<!-- Node20&#45;&gt;Node10 -->
<g id="edge20" class="edge">
<title>Node20&#45;&gt;Node10</title>
<path fill="none" stroke="#191970" d="M1793.0219,-175.8761C1783.6366,-158.7902 1767.204,-134.4535 1745.0399,-123 1668.9382,-83.6739 1073.8972,-74.0746 885.8194,-72.0118"/>
<polygon fill="#191970" stroke="#191970" points="1790.0139,-177.6786 1797.7235,-184.9458 1796.2285,-174.457 1790.0139,-177.6786"/>
</g>
<!-- Node20&#45;&gt;Node11 -->
<g id="edge21" class="edge">
<title>Node20&#45;&gt;Node11</title>
<path fill="none" stroke="#191970" d="M1798.9486,-174.4851C1795.2751,-157.9291 1787.4336,-135.2196 1771.0399,-123 1701.2526,-70.9818 1104.4981,-27.8266 898.5704,-14.3619"/>
<polygon fill="#191970" stroke="#191970" points="1795.5926,-175.5779 1800.8798,-184.7592 1802.4721,-174.2847 1795.5926,-175.5779"/>
</g>
<!-- Node21&#45;&gt;Node14 -->
<g id="edge26" class="edge">
<title>Node21&#45;&gt;Node14</title>
<path fill="none" stroke="#191970" d="M153.7807,-254.6884C240.6324,-246.3739 387.1305,-230.809 512.0399,-210 522.1299,-208.3191 532.9449,-206.1751 543.0465,-204.0215"/>
<polygon fill="#191970" stroke="#191970" points="153.3738,-251.2112 143.7499,-255.6417 154.0362,-258.1798 153.3738,-251.2112"/>
</g>
<!-- Node22 -->
<g id="node16" class="node">
<title>Node22</title>
<g id="a_node16"><a xlink:href="strings_8h.html" target="_top" xlink:title="jaegertracingc/internal\l/strings.h">
<polygon fill="#ffffff" stroke="#000000" points="88.0399,-56.5 88.0399,-86.5 200.0399,-86.5 200.0399,-56.5 88.0399,-56.5"/>
<text text-anchor="start" x="96.0399" y="-74.5" font-family="Helvetica,sans-Serif" font-size="10.00" fill="#000000">jaegertracingc/internal</text>
<text text-anchor="middle" x="144.0399" y="-63.5" font-family="Helvetica,sans-Serif" font-size="10.00" fill="#000000">/strings.h</text>
</a>
</g>
</g>
<!-- Node21&#45;&gt;Node22 -->
<g id="edge24" class="edge">
<title>Node21&#45;&gt;Node22</title>
<path fill="none" stroke="#191970" d="M84.8202,-241.9809C98.0104,-204.0092 126.8698,-120.9289 138.7595,-86.7011"/>
<polygon fill="#191970" stroke="#191970" points="81.3788,-241.2219 81.4036,-251.8167 87.9912,-243.5188 81.3788,-241.2219"/>
</g>
<!-- Node22&#45;&gt;Node11 -->
<g id="edge25" class="edge">
<title>Node22&#45;&gt;Node11</title>
<path fill="none" stroke="#191970" d="M210.3933,-59.5948C219.0047,-58.2633 227.7202,-57.0214 236.0399,-56 424.6235,-32.8466 648.4629,-19.2126 759.4553,-13.3749"/>
<polygon fill="#191970" stroke="#191970" points="209.6878,-56.1629 200.3621,-61.191 210.7879,-63.0759 209.6878,-56.1629"/>
</g>
<!-- Node25 -->
<g id="node19" class="node">
<title>Node25</title>
<g id="a_node19"><a xlink:href="siphash_8c.html" target="_top" xlink:title="Siphash implementation. ">
<polygon fill="#ffffff" stroke="#000000" points="1750.0399,-319 1750.0399,-338 1872.0399,-338 1872.0399,-319 1750.0399,-319"/>
<text text-anchor="middle" x="1811.0399" y="-326" font-family="Helvetica,sans-Serif" font-size="10.00" fill="#000000">jaegertracingc/siphash.c</text>
</a>
</g>
</g>
<!-- Node24&#45;&gt;Node25 -->
<g id="edge29" class="edge">
<title>Node24&#45;&gt;Node25</title>
<path fill="none" stroke="#191970" d="M1782.7446,-377.1099C1790.0966,-364.4795 1799.5587,-348.2241 1805.4625,-338.0817"/>
<polygon fill="#191970" stroke="#191970" points="1779.6335,-375.4973 1777.6276,-385.9005 1785.6832,-379.0188 1779.6335,-375.4973"/>
</g>
<!-- Node26&#45;&gt;Node14 -->
<g id="edge32" class="edge">
<title>Node26&#45;&gt;Node14</title>
<path fill="none" stroke="#191970" d="M218.895,-309.5321C261.8384,-291.774 328.6841,-265.1739 388.0399,-246 440.6025,-229.0206 502.4121,-213.4976 542.3572,-204.0309"/>
<polygon fill="#191970" stroke="#191970" points="217.4682,-306.3348 209.5753,-313.4025 220.153,-312.7995 217.4682,-306.3348"/>
</g>
<!-- Node26&#45;&gt;Node21 -->
<g id="edge31" class="edge">
<title>Node26&#45;&gt;Node21</title>
<path fill="none" stroke="#191970" d="M144.0154,-307.5454C126.5177,-295.3335 105.2951,-280.5219 91.7306,-271.055"/>
<polygon fill="#191970" stroke="#191970" points="142.0525,-310.4436 152.256,-313.2967 146.0588,-304.7033 142.0525,-310.4436"/>
</g>
<!-- Node27&#45;&gt;Node21 -->
<g id="edge34" class="edge">
<title>Node27&#45;&gt;Node21</title>
<path fill="none" stroke="#191970" d="M115.5758,-380.0251C103.9643,-370.9996 90.9787,-358.5337 84.0399,-344 72.5317,-319.8953 74.579,-287.2665 76.559,-271.225"/>
<polygon fill="#191970" stroke="#191970" points="113.5479,-382.8782 123.6817,-385.9694 117.6874,-377.2333 113.5479,-382.8782"/>
</g>
<!-- Node28&#45;&gt;Node14 -->
<g id="edge39" class="edge">
<title>Node28&#45;&gt;Node14</title>
<path fill="none" stroke="#191970" d="M680.2968,-309.7017C670.8761,-292.3425 655.6238,-266.2595 639.0399,-246 625.9482,-230.0068 608.0659,-214.1378 596.2934,-204.3318"/>
<polygon fill="#191970" stroke="#191970" points="677.3513,-311.6173 685.1356,-318.8044 683.5322,-308.3316 677.3513,-311.6173"/>
</g>
<!-- Node28&#45;&gt;Node15 -->
<g id="edge40" class="edge">
<title>Node28&#45;&gt;Node15</title>
<path fill="none" stroke="#191970" d="M691.1577,-308.6343C693.4845,-267.2803 698.7747,-173.2585 700.4911,-142.7534"/>
<polygon fill="#191970" stroke="#191970" points="687.6528,-308.6243 690.5854,-318.8051 694.6417,-309.0176 687.6528,-308.6243"/>
</g>
<!-- Node28&#45;&gt;Node16 -->
<g id="edge41" class="edge">
<title>Node28&#45;&gt;Node16</title>
<path fill="none" stroke="#191970" d="M762.3979,-317.4315C847.2291,-304.4551 986.3698,-283.171 1066.3186,-270.9414"/>
<polygon fill="#191970" stroke="#191970" points="761.6852,-313.9998 752.3295,-318.9717 762.7437,-320.9193 761.6852,-313.9998"/>
</g>
<!-- Node28&#45;&gt;Node17 -->
<g id="edge38" class="edge">
<title>Node28&#45;&gt;Node17</title>
<path fill="none" stroke="#191970" d="M673.3574,-311.5198C650.903,-288.7891 612.8584,-250.7571 605.0399,-246 573.6104,-226.8772 534.2056,-213.8678 503.124,-205.7083"/>
<polygon fill="#191970" stroke="#191970" points="671.0621,-314.177 680.5745,-318.8422 676.0475,-309.2632 671.0621,-314.177"/>
</g>
<!-- Node28&#45;&gt;Node23 -->
<g id="edge37" class="edge">
<title>Node28&#45;&gt;Node23</title>
<path fill="none" stroke="#191970" d="M712.1312,-312.9198C727.6784,-301.955 748.372,-287.3605 763.7404,-276.5218"/>
<polygon fill="#191970" stroke="#191970" points="709.8059,-310.2768 703.6511,-318.9005 713.8404,-315.9973 709.8059,-310.2768"/>
</g>
<!-- Node29&#45;&gt;Node9 -->
<g id="edge43" class="edge">
<title>Node29&#45;&gt;Node9</title>
<path fill="none" stroke="#191970" d="M1671.2431,-308.6343C1671.6662,-267.2803 1672.628,-173.2585 1672.9401,-142.7534"/>
<polygon fill="#191970" stroke="#191970" points="1667.7416,-308.7698 1671.1391,-318.8051 1674.7413,-308.8415 1667.7416,-308.7698"/>
</g>
<!-- Node29&#45;&gt;Node11 -->
<g id="edge44" class="edge">
<title>Node29&#45;&gt;Node11</title>
<path fill="none" stroke="#191970" d="M1705.9662,-315.3062C1767.7904,-290.8586 1890.0399,-237.1273 1890.0399,-194.5 1890.0399,-194.5 1890.0399,-194.5 1890.0399,-133 1890.0399,-32.8651 1134.6991,-14.1424 898.6551,-10.7363"/>
<polygon fill="#191970" stroke="#191970" points="1704.6293,-312.0708 1696.5906,-318.9722 1707.1785,-318.5901 1704.6293,-312.0708"/>
</g>
<!-- Node29&#45;&gt;Node15 -->
<g id="edge45" class="edge">
<title>Node29&#45;&gt;Node15</title>
<path fill="none" stroke="#191970" d="M1626.4751,-316.2934C1523.9949,-288.5793 1263.3792,-220.1279 1042.0399,-179 944.8379,-160.9385 830.7968,-147.0046 762.3139,-139.4102"/>
<polygon fill="#191970" stroke="#191970" points="1625.612,-319.6856 1636.1795,-318.9239 1627.4435,-312.9295 1625.612,-319.6856"/>
</g>
<!-- Node29&#45;&gt;Node16 -->
<g id="edge46" class="edge">
<title>Node29&#45;&gt;Node16</title>
<path fill="none" stroke="#191970" d="M1600.6071,-318.1354C1588.1009,-316.3682 1575.1923,-314.5912 1563.0399,-313 1430.1392,-295.5987 1274.0465,-277.7472 1189.6911,-268.3136"/>
<polygon fill="#191970" stroke="#191970" points="1600.1351,-321.6034 1610.5284,-319.5469 1601.1211,-314.6732 1600.1351,-321.6034"/>
</g>
<!-- Node30&#45;&gt;Node15 -->
<g id="edge49" class="edge">
<title>Node30&#45;&gt;Node15</title>
<path fill="none" stroke="#191970" d="M1329.68,-313.3999C1300.2898,-295.0216 1247.7536,-264.1954 1199.0399,-246 1047.0551,-189.2312 857.8823,-155.8809 762.3532,-141.4769"/>
<polygon fill="#191970" stroke="#191970" points="1328.0521,-316.5115 1338.3748,-318.8977 1331.7932,-310.595 1328.0521,-316.5115"/>
</g>
<!-- Node30&#45;&gt;Node16 -->
<g id="edge50" class="edge">
<title>Node30&#45;&gt;Node16</title>
<path fill="none" stroke="#191970" d="M1311.0483,-315.9958C1267.3491,-302.9832 1199.8706,-282.8896 1160.2171,-271.0817"/>
<polygon fill="#191970" stroke="#191970" points="1310.2199,-319.401 1320.8029,-318.9005 1312.2177,-312.6921 1310.2199,-319.401"/>
</g>
<!-- Node31&#45;&gt;Node10 -->
<g id="edge56" class="edge">
<title>Node31&#45;&gt;Node10</title>
<path fill="none" stroke="#191970" d="M458.7807,-312.7742C421.6382,-284.6333 354.4417,-224.3671 390.0399,-179 437.0255,-119.1205 664.9074,-88.2608 772.5317,-76.8253"/>
<polygon fill="#191970" stroke="#191970" points="456.9438,-315.7688 467.0658,-318.8986 461.1048,-310.1397 456.9438,-315.7688"/>
</g>
<!-- Node31&#45;&gt;Node13 -->
<g id="edge57" class="edge">
<title>Node31&#45;&gt;Node13</title>
<path fill="none" stroke="#191970" d="M498.3668,-311.6753C509.4956,-300.8691 523.8247,-286.9553 534.5697,-276.5218"/>
<polygon fill="#191970" stroke="#191970" points="495.662,-309.4232 490.9259,-318.9005 500.5384,-314.4452 495.662,-309.4232"/>
</g>
<!-- Node31&#45;&gt;Node14 -->
<g id="edge58" class="edge">
<title>Node31&#45;&gt;Node14</title>
<path fill="none" stroke="#191970" d="M479.5559,-308.7318C479.2085,-290.8274 481.2857,-264.4967 494.0399,-246 508.2448,-225.3995 533.5574,-211.9869 553.7276,-204.0299"/>
<polygon fill="#191970" stroke="#191970" points="476.067,-309.0536 480.0289,-318.8798 483.0594,-308.7276 476.067,-309.0536"/>
</g>
<!-- Node31&#45;&gt;Node16 -->
<g id="edge59" class="edge">
<title>Node31&#45;&gt;Node16</title>
<path fill="none" stroke="#191970" d="M542.1818,-321.3599C565.5906,-318.6714 592.5469,-315.6299 617.0399,-313 779.0571,-295.6039 970.1656,-276.8001 1066.2658,-267.4636"/>
<polygon fill="#191970" stroke="#191970" points="541.5758,-317.9065 532.042,-322.5278 542.3769,-324.8605 541.5758,-317.9065"/>
</g>
<!-- Node32&#45;&gt;Node10 -->
<g id="edge61" class="edge">
<title>Node32&#45;&gt;Node10</title>
<path fill="none" stroke="#191970" d="M350.8264,-377.4236C344.7301,-367.971 338.1628,-355.9107 335.0399,-344 331.5455,-330.6727 333.0019,-326.6262 335.0399,-313 349.5061,-216.2768 356.1219,-161.4629 446.0399,-123 503.5612,-98.395 680.5437,-82.3074 772.4001,-75.3858"/>
<polygon fill="#191970" stroke="#191970" points="348.0896,-379.6223 356.6208,-385.9048 353.8695,-375.6734 348.0896,-379.6223"/>
</g>
<!-- Node32&#45;&gt;Node13 -->
<g id="edge63" class="edge">
<title>Node32&#45;&gt;Node13</title>
<path fill="none" stroke="#191970" d="M372.8305,-376.8296C382.3731,-358.3578 399.2168,-330.3969 421.0399,-313 445.0816,-293.8344 477.1741,-280.985 503.3344,-272.9142"/>
<polygon fill="#191970" stroke="#191970" points="369.5964,-375.4736 368.2949,-385.9882 375.8693,-378.5802 369.5964,-375.4736"/>
</g>
<!-- Node32&#45;&gt;Node14 -->
<g id="edge65" class="edge">
<title>Node32&#45;&gt;Node14</title>
<path fill="none" stroke="#191970" d="M366.767,-375.6837C369.981,-357.9466 376.678,-331.8998 390.0399,-313 431.2781,-254.6704 511.1822,-219.5852 554.4615,-204.0339"/>
<polygon fill="#191970" stroke="#191970" points="363.2806,-375.3205 365.155,-385.7482 370.1925,-376.4276 363.2806,-375.3205"/>
</g>
<!-- Node32&#45;&gt;Node15 -->
<g id="edge66" class="edge">
<title>Node32&#45;&gt;Node15</title>
<path fill="none" stroke="#191970" d="M354.7896,-376.67C350.6088,-367.1294 346.1413,-355.2158 344.0399,-344 330.0203,-269.1722 329.3571,-224.9712 390.0399,-179 428.2707,-150.0377 560.5876,-139.1615 639.7872,-135.1887"/>
<polygon fill="#191970" stroke="#191970" points="351.7078,-378.3443 359.088,-385.9459 358.0591,-375.4011 351.7078,-378.3443"/>
</g>
<!-- Node32&#45;&gt;Node16 -->
<g id="edge67" class="edge">
<title>Node32&#45;&gt;Node16</title>
<path fill="none" stroke="#191970" d="M432.6857,-392.2077C564.2914,-385.4308 847.4343,-368.4765 942.0399,-344 1007.703,-327.0115 1079.4964,-289.0995 1111.2892,-271.2053"/>
<polygon fill="#191970" stroke="#191970" points="432.1424,-388.7308 422.3337,-392.7358 432.4991,-395.7217 432.1424,-388.7308"/>
</g>
<!-- Node32&#45;&gt;Node17 -->
<g id="edge64" class="edge">
<title>Node32&#45;&gt;Node17</title>
<path fill="none" stroke="#191970" d="M356.0748,-375.9324C350.3151,-359.082 344.4459,-334.2022 350.0399,-313 358.7733,-279.899 365.9672,-272.1677 388.0399,-246 399.7899,-232.0701 415.6951,-219.102 428.5843,-209.6634"/>
<polygon fill="#191970" stroke="#191970" points="352.9523,-377.5769 359.7223,-385.7267 359.5122,-375.1339 352.9523,-377.5769"/>
</g>
<!-- Node32&#45;&gt;Node26 -->
<g id="edge62" class="edge">
<title>Node32&#45;&gt;Node26</title>
<path fill="none" stroke="#191970" d="M327.0623,-382.4605C295.4057,-371.2974 249.8175,-355.2216 216.6389,-343.5218"/>
<polygon fill="#191970" stroke="#191970" points="326.2227,-385.8757 336.8175,-385.9005 328.5507,-379.2741 326.2227,-385.8757"/>
</g>
<!-- Node32&#45;&gt;Node31 -->
<g id="edge68" class="edge">
<title>Node32&#45;&gt;Node31</title>
<path fill="none" stroke="#191970" d="M389.5623,-380.8846C412.2526,-367.891 444.7732,-349.2681 464.3077,-338.0817"/>
<polygon fill="#191970" stroke="#191970" points="387.7417,-377.8939 380.8031,-385.9005 391.2203,-383.9684 387.7417,-377.8939"/>
</g>
<!-- Node33&#45;&gt;Node14 -->
<g id="edge70" class="edge">
<title>Node33&#45;&gt;Node14</title>
<path fill="none" stroke="#191970" d="M872.3794,-308.8382C871.5821,-289.9804 867.2648,-262.0698 850.0399,-246 820.1169,-218.0837 707.9851,-204.3244 639.2208,-198.3741"/>
<polygon fill="#191970" stroke="#191970" points="868.8814,-309.026 872.5091,-318.9804 875.8808,-308.9364 868.8814,-309.026"/>
</g>
<!-- Node33&#45;&gt;Node16 -->
<g id="edge71" class="edge">
<title>Node33&#45;&gt;Node16</title>
<path fill="none" stroke="#191970" d="M918.2831,-316.3973C967.9146,-303.4078 1045.749,-283.0371 1091.3443,-271.1039"/>
<polygon fill="#191970" stroke="#191970" points="917.2345,-313.0537 908.4466,-318.9717 919.0069,-319.8257 917.2345,-313.0537"/>
</g>
<!-- Node34&#45;&gt;Node16 -->
<g id="edge73" class="edge">
<title>Node34&#45;&gt;Node16</title>
<path fill="none" stroke="#191970" d="M1205.6227,-371.9566C1217.2653,-354.9359 1227.8452,-331.7365 1217.0399,-313 1205.0001,-292.123 1180.9084,-278.943 1160.8239,-271.1478"/>
<polygon fill="#191970" stroke="#191970" points="1202.6402,-370.105 1199.5452,-380.2378 1208.2835,-374.2467 1202.6402,-370.105"/>
</g>
</g>
</svg>
