<?xml version="1.0" encoding="UTF-8" standalone="no"?>
<!DOCTYPE svg PUBLIC "-//W3C//DTD SVG 1.1//EN"
 "http://www.w3.org/Graphics/SVG/1.1/DTD/svg11.dtd">
<!-- Generated by graphviz version 2.40.1 (20161225.0304)
 -->
<!-- Title: jaegertracingc/baggage.h Pages: 1 -->
<svg width="1358pt" height="509pt"
 viewBox="0.00 0.00 1358.00 509.00" xmlns="http://www.w3.org/2000/svg" xmlns:xlink="http://www.w3.org/1999/xlink">
<g id="graph0" class="graph" transform="scale(1 1) rotate(0) translate(4 505)">
<title>jaegertracingc/baggage.h</title>
<polygon fill="#ffffff" stroke="transparent" points="-4,4 -4,-505 1354,-505 1354,4 -4,4"/>
<!-- Node0 -->
<g id="node1" class="node">
<title>Node0</title>
<polygon fill="#bfbfbf" stroke="#000000" points="26.5,-481.5 26.5,-500.5 151.5,-500.5 151.5,-481.5 26.5,-481.5"/>
<text text-anchor="middle" x="89" y="-488.5" font-family="Helvetica,sans-Serif" font-size="10.00" fill="#000000">jaegertracingc/baggage.h</text>
</g>
<!-- Node1 -->
<g id="node2" class="node">
<title>Node1</title>
<g id="a_node2"><a xlink:href="common_8h.html" target="_top" xlink:title="Common headers, struct definitions, and macros. ">
<polygon fill="#ffffff" stroke="#000000" points="537,-168.5 537,-187.5 663,-187.5 663,-168.5 537,-168.5"/>
<text text-anchor="middle" x="600" y="-175.5" font-family="Helvetica,sans-Serif" font-size="10.00" fill="#000000">jaegertracingc/common.h</text>
</a>
</g>
</g>
<!-- Node0&#45;&gt;Node1 -->
<g id="edge1" class="edge">
<title>Node0&#45;&gt;Node1</title>
<path fill="none" stroke="#191970" d="M66.9559,-481.4382C51.644,-473.7155 31.9231,-461.4296 20,-445 .6191,-418.2938 0,-406.4976 0,-373.5 0,-373.5 0,-373.5 0,-306.5 0,-266.3146 4.1861,-247.1972 37,-224 76.1257,-196.3408 383.6319,-184.1035 526.9439,-179.8614"/>
<polygon fill="#191970" stroke="#191970" points="527.0787,-183.3591 536.9726,-179.5697 526.8751,-176.3621 527.0787,-183.3591"/>
</g>
<!-- Node19 -->
<g id="node20" class="node">
<title>Node19</title>
<g id="a_node20"><a xlink:href="metrics_8h.html" target="_top" xlink:title="Metrics interfaces to track various numbers while tracing. ">
<polygon fill="#ffffff" stroke="#000000" points="28.5,-425.5 28.5,-444.5 149.5,-444.5 149.5,-425.5 28.5,-425.5"/>
<text text-anchor="middle" x="89" y="-432.5" font-family="Helvetica,sans-Serif" font-size="10.00" fill="#000000">jaegertracingc/metrics.h</text>
</a>
</g>
</g>
<!-- Node0&#45;&gt;Node19 -->
<g id="edge25" class="edge">
<title>Node0&#45;&gt;Node19</title>
<path fill="none" stroke="#191970" d="M89,-481.2455C89,-473.9382 89,-463.6944 89,-454.7046"/>
<polygon fill="#191970" stroke="#191970" points="92.5001,-454.6426 89,-444.6427 85.5001,-454.6427 92.5001,-454.6426"/>
</g>
<!-- Node20 -->
<g id="node21" class="node">
<title>Node20</title>
<g id="a_node21"><a xlink:href="span_8h.html" target="_top" xlink:title="Span, span context, and span ref representations and functions. ">
<polygon fill="#ffffff" stroke="#000000" points="423,-425.5 423,-444.5 533,-444.5 533,-425.5 423,-425.5"/>
<text text-anchor="middle" x="478" y="-432.5" font-family="Helvetica,sans-Serif" font-size="10.00" fill="#000000">jaegertracingc/span.h</text>
</a>
</g>
</g>
<!-- Node0&#45;&gt;Node20 -->
<g id="edge27" class="edge">
<title>Node0&#45;&gt;Node20</title>
<path fill="none" stroke="#191970" d="M151.9319,-481.9404C223.6062,-471.6222 340.1542,-454.8441 412.771,-444.3903"/>
<polygon fill="#191970" stroke="#191970" points="413.3175,-447.8478 422.7168,-442.9585 412.3201,-440.9192 413.3175,-447.8478"/>
</g>
<!-- Node2 -->
<g id="node3" class="node">
<title>Node2</title>
<g id="a_node3"><a xlink:href="config_8h_source.html" target="_top" xlink:title="jaegertracingc/config.h">
<polygon fill="#ffffff" stroke="#000000" points="1230.5,-112.5 1230.5,-131.5 1345.5,-131.5 1345.5,-112.5 1230.5,-112.5"/>
<text text-anchor="middle" x="1288" y="-119.5" font-family="Helvetica,sans-Serif" font-size="10.00" fill="#000000">jaegertracingc/config.h</text>
</a>
</g>
</g>
<!-- Node1&#45;&gt;Node2 -->
<g id="edge2" class="edge">
<title>Node1&#45;&gt;Node2</title>
<path fill="none" stroke="#191970" d="M663.2754,-169.0536C666.5617,-168.6762 669.8182,-168.3218 673,-168 912.9565,-143.7278 977.1528,-157.9379 1220.2323,-132.1119"/>
<polygon fill="#191970" stroke="#191970" points="1220.8757,-135.563 1230.4446,-131.0146 1220.1279,-128.603 1220.8757,-135.563"/>
</g>
<!-- Node4 -->
<g id="node5" class="node">
<title>Node4</title>
<polygon fill="#ffffff" stroke="#bfbfbf" points="200,-56.5 200,-75.5 252,-75.5 252,-56.5 200,-56.5"/>
<text text-anchor="middle" x="226" y="-63.5" font-family="Helvetica,sans-Serif" font-size="10.00" fill="#000000">assert.h</text>
</g>
<!-- Node1&#45;&gt;Node4 -->
<g id="edge4" class="edge">
<title>Node1&#45;&gt;Node4</title>
<path fill="none" stroke="#191970" d="M536.6997,-173.2379C459.374,-166.6159 333.7022,-153.0171 292,-132 269.7423,-120.7826 250.405,-99.2189 238.5137,-83.7911"/>
<polygon fill="#191970" stroke="#191970" points="241.1697,-81.4964 232.407,-75.5411 235.5434,-85.6611 241.1697,-81.4964"/>
</g>
<!-- Node5 -->
<g id="node6" class="node">
<title>Node5</title>
<polygon fill="#ffffff" stroke="#bfbfbf" points="618.5,-112.5 618.5,-131.5 667.5,-131.5 667.5,-112.5 618.5,-112.5"/>
<text text-anchor="middle" x="643" y="-119.5" font-family="Helvetica,sans-Serif" font-size="10.00" fill="#000000">ctype.h</text>
</g>
<!-- Node1&#45;&gt;Node5 -->
<g id="edge5" class="edge">
<title>Node1&#45;&gt;Node5</title>
<path fill="none" stroke="#191970" d="M607.49,-168.2455C613.5326,-160.3761 622.1903,-149.101 629.4441,-139.6542"/>
<polygon fill="#191970" stroke="#191970" points="632.2815,-141.7058 635.5958,-131.6427 626.7295,-137.4426 632.2815,-141.7058"/>
</g>
<!-- Node6 -->
<g id="node7" class="node">
<title>Node6</title>
<polygon fill="#ffffff" stroke="#bfbfbf" points="685.5,-112.5 685.5,-131.5 744.5,-131.5 744.5,-112.5 685.5,-112.5"/>
<text text-anchor="middle" x="715" y="-119.5" font-family="Helvetica,sans-Serif" font-size="10.00" fill="#000000">inttypes.h</text>
</g>
<!-- Node1&#45;&gt;Node6 -->
<g id="edge6" class="edge">
<title>Node1&#45;&gt;Node6</title>
<path fill="none" stroke="#191970" d="M619.7692,-168.3733C638.1469,-159.4241 665.7312,-145.9917 686.4893,-135.8835"/>
<polygon fill="#191970" stroke="#191970" points="688.0304,-139.026 695.4888,-131.5011 684.9657,-132.7325 688.0304,-139.026"/>
</g>
<!-- Node7 -->
<g id="node8" class="node">
<title>Node7</title>
<polygon fill="#ffffff" stroke="#bfbfbf" points="763,-112.5 763,-131.5 811,-131.5 811,-112.5 763,-112.5"/>
<text text-anchor="middle" x="787" y="-119.5" font-family="Helvetica,sans-Serif" font-size="10.00" fill="#000000">limits.h</text>
</g>
<!-- Node1&#45;&gt;Node7 -->
<g id="edge7" class="edge">
<title>Node1&#45;&gt;Node7</title>
<path fill="none" stroke="#191970" d="M632.1611,-168.4339C661.3152,-159.7532 705.7243,-146.5083 753.0369,-132.2824"/>
<polygon fill="#191970" stroke="#191970" points="754.2851,-135.5619 762.8528,-129.3294 752.2684,-128.8587 754.2851,-135.5619"/>
</g>
<!-- Node8 -->
<g id="node9" class="node">
<title>Node8</title>
<polygon fill="#ffffff" stroke="#bfbfbf" points="400,-.5 400,-19.5 452,-19.5 452,-.5 400,-.5"/>
<text text-anchor="middle" x="426" y="-7.5" font-family="Helvetica,sans-Serif" font-size="10.00" fill="#000000">stdarg.h</text>
</g>
<!-- Node1&#45;&gt;Node8 -->
<g id="edge8" class="edge">
<title>Node1&#45;&gt;Node8</title>
<path fill="none" stroke="#191970" d="M595.6107,-168.1502C583.8938,-142.2032 551.5147,-72.8141 533,-56 513.0096,-37.8457 484.7573,-26.1141 462.303,-19.0447"/>
<polygon fill="#191970" stroke="#191970" points="463.0273,-15.6088 452.4447,-16.1183 461.0353,-22.3194 463.0273,-15.6088"/>
</g>
<!-- Node9 -->
<g id="node10" class="node">
<title>Node9</title>
<polygon fill="#ffffff" stroke="#bfbfbf" points="829,-112.5 829,-131.5 885,-131.5 885,-112.5 829,-112.5"/>
<text text-anchor="middle" x="857" y="-119.5" font-family="Helvetica,sans-Serif" font-size="10.00" fill="#000000">stdbool.h</text>
</g>
<!-- Node1&#45;&gt;Node9 -->
<g id="edge9" class="edge">
<title>Node1&#45;&gt;Node9</title>
<path fill="none" stroke="#191970" d="M649.5494,-168.4907C692.075,-160.1373 755.2138,-147.2808 818.9445,-132.1589"/>
<polygon fill="#191970" stroke="#191970" points="819.8489,-135.5414 828.7613,-129.8125 818.2216,-128.7332 819.8489,-135.5414"/>
</g>
<!-- Node10 -->
<g id="node11" class="node">
<title>Node10</title>
<polygon fill="#ffffff" stroke="#bfbfbf" points="903,-112.5 903,-131.5 955,-131.5 955,-112.5 903,-112.5"/>
<text text-anchor="middle" x="929" y="-119.5" font-family="Helvetica,sans-Serif" font-size="10.00" fill="#000000">stddef.h</text>
</g>
<!-- Node1&#45;&gt;Node10 -->
<g id="edge10" class="edge">
<title>Node1&#45;&gt;Node10</title>
<path fill="none" stroke="#191970" d="M663.0471,-169.0651C731.4684,-159.2145 837.371,-143.4823 892.6762,-132.0412"/>
<polygon fill="#191970" stroke="#191970" points="893.673,-135.4071 902.7152,-129.8853 892.2032,-128.5631 893.673,-135.4071"/>
</g>
<!-- Node11 -->
<g id="node12" class="node">
<title>Node11</title>
<polygon fill="#ffffff" stroke="#bfbfbf" points="407.5,-56.5 407.5,-75.5 456.5,-75.5 456.5,-56.5 407.5,-56.5"/>
<text text-anchor="middle" x="432" y="-63.5" font-family="Helvetica,sans-Serif" font-size="10.00" fill="#000000">stdint.h</text>
</g>
<!-- Node1&#45;&gt;Node11 -->
<g id="edge11" class="edge">
<title>Node1&#45;&gt;Node11</title>
<path fill="none" stroke="#191970" d="M581.8316,-168.3772C565.3671,-159.4649 540.6016,-145.5762 520,-132 495.7444,-116.0159 469.245,-95.7255 451.7315,-81.8893"/>
<polygon fill="#191970" stroke="#191970" points="453.9096,-79.1497 443.905,-75.6627 449.5515,-84.6275 453.9096,-79.1497"/>
</g>
<!-- Node12 -->
<g id="node13" class="node">
<title>Node12</title>
<polygon fill="#ffffff" stroke="#bfbfbf" points="518,-.5 518,-19.5 564,-19.5 564,-.5 518,-.5"/>
<text text-anchor="middle" x="541" y="-7.5" font-family="Helvetica,sans-Serif" font-size="10.00" fill="#000000">stdio.h</text>
</g>
<!-- Node1&#45;&gt;Node12 -->
<g id="edge12" class="edge">
<title>Node1&#45;&gt;Node12</title>
<path fill="none" stroke="#191970" d="M598.0717,-168.2645C593.7442,-147.2655 582.3424,-96.3519 566,-56 562.1743,-46.5539 556.904,-36.558 552.1884,-28.306"/>
<polygon fill="#191970" stroke="#191970" points="555.123,-26.3919 547.0273,-19.5574 549.0939,-29.9487 555.123,-26.3919"/>
</g>
<!-- Node13 -->
<g id="node14" class="node">
<title>Node13</title>
<polygon fill="#ffffff" stroke="#bfbfbf" points="973,-112.5 973,-131.5 1021,-131.5 1021,-112.5 973,-112.5"/>
<text text-anchor="middle" x="997" y="-119.5" font-family="Helvetica,sans-Serif" font-size="10.00" fill="#000000">stdlib.h</text>
</g>
<!-- Node1&#45;&gt;Node13 -->
<g id="edge13" class="edge">
<title>Node1&#45;&gt;Node13</title>
<path fill="none" stroke="#191970" d="M663.3013,-169.2771C666.5809,-168.8413 669.8288,-168.4133 673,-168 799.0712,-151.5675 834.777,-158.6275 963.158,-131.8731"/>
<polygon fill="#191970" stroke="#191970" points="963.9123,-135.2911 972.9732,-129.8001 962.4658,-128.4422 963.9123,-135.2911"/>
</g>
<!-- Node14 -->
<g id="node15" class="node">
<title>Node14</title>
<polygon fill="#ffffff" stroke="#bfbfbf" points="474.5,-56.5 474.5,-75.5 523.5,-75.5 523.5,-56.5 474.5,-56.5"/>
<text text-anchor="middle" x="499" y="-63.5" font-family="Helvetica,sans-Serif" font-size="10.00" fill="#000000">string.h</text>
</g>
<!-- Node1&#45;&gt;Node14 -->
<g id="edge14" class="edge">
<title>Node1&#45;&gt;Node14</title>
<path fill="none" stroke="#191970" d="M583.5642,-168.387C570.1743,-159.9884 551.3636,-146.8402 538,-132 525.2433,-117.8337 514.5526,-98.8585 507.6095,-84.8903"/>
<polygon fill="#191970" stroke="#191970" points="510.7091,-83.259 503.2402,-75.7446 504.3929,-86.2765 510.7091,-83.259"/>
</g>
<!-- Node15 -->
<g id="node16" class="node">
<title>Node15</title>
<polygon fill="#ffffff" stroke="#bfbfbf" points="1039,-112.5 1039,-131.5 1083,-131.5 1083,-112.5 1039,-112.5"/>
<text text-anchor="middle" x="1061" y="-119.5" font-family="Helvetica,sans-Serif" font-size="10.00" fill="#000000">time.h</text>
</g>
<!-- Node1&#45;&gt;Node15 -->
<g id="edge15" class="edge">
<title>Node1&#45;&gt;Node15</title>
<path fill="none" stroke="#191970" d="M663.2904,-169.1896C666.5728,-168.7766 669.8244,-168.3775 673,-168 828.1088,-149.5614 872.1152,-164.0409 1028.8084,-131.8655"/>
<polygon fill="#191970" stroke="#191970" points="1029.7255,-135.2497 1038.8008,-129.7825 1028.2969,-128.397 1029.7255,-135.2497"/>
</g>
<!-- Node16 -->
<g id="node17" class="node">
<title>Node16</title>
<polygon fill="#ffffff" stroke="#bfbfbf" points="1101.5,-112.5 1101.5,-131.5 1212.5,-131.5 1212.5,-112.5 1101.5,-112.5"/>
<text text-anchor="middle" x="1157" y="-119.5" font-family="Helvetica,sans-Serif" font-size="10.00" fill="#000000">opentracing&#45;c/tracer.h</text>
</g>
<!-- Node1&#45;&gt;Node16 -->
<g id="edge16" class="edge">
<title>Node1&#45;&gt;Node16</title>
<path fill="none" stroke="#191970" d="M663.2838,-169.1322C666.5679,-168.7342 669.8217,-168.354 673,-168 855.4943,-147.6736 904.6994,-153.9883 1091.2189,-132.0168"/>
<polygon fill="#191970" stroke="#191970" points="1091.8478,-135.4667 1101.3644,-130.8099 1091.0209,-128.5157 1091.8478,-135.4667"/>
</g>
<!-- Node17 -->
<g id="node18" class="node">
<title>Node17</title>
<g id="a_node18"><a xlink:href="alloc_8h.html" target="_top" xlink:title="Allocator struct and functions. ">
<polygon fill="#ffffff" stroke="#000000" points="300.5,-112.5 300.5,-131.5 409.5,-131.5 409.5,-112.5 300.5,-112.5"/>
<text text-anchor="middle" x="355" y="-119.5" font-family="Helvetica,sans-Serif" font-size="10.00" fill="#000000">jaegertracingc/alloc.h</text>
</a>
</g>
</g>
<!-- Node1&#45;&gt;Node17 -->
<g id="edge17" class="edge">
<title>Node1&#45;&gt;Node17</title>
<path fill="none" stroke="#191970" d="M558.1614,-168.4369C516.2315,-158.8529 451.6052,-144.0812 406.5376,-133.78"/>
<polygon fill="#191970" stroke="#191970" points="407.1946,-130.34 396.6661,-131.5237 405.6347,-137.164 407.1946,-130.34"/>
</g>
<!-- Node18 -->
<g id="node19" class="node">
<title>Node18</title>
<g id="a_node19"><a xlink:href="logging_8h.html" target="_top" xlink:title="Logging interface and initialization functions. ">
<polygon fill="#ffffff" stroke="#000000" points="270.5,-56.5 270.5,-75.5 389.5,-75.5 389.5,-56.5 270.5,-56.5"/>
<text text-anchor="middle" x="330" y="-63.5" font-family="Helvetica,sans-Serif" font-size="10.00" fill="#000000">jaegertracingc/logging.h</text>
</a>
</g>
</g>
<!-- Node1&#45;&gt;Node18 -->
<g id="edge24" class="edge">
<title>Node1&#45;&gt;Node18</title>
<path fill="none" stroke="#191970" d="M576.3852,-168.3489C553.707,-159.0693 518.4901,-144.6294 488,-132 444.3183,-113.9064 393.9278,-92.8201 362.0251,-79.4435"/>
<polygon fill="#191970" stroke="#191970" points="363.3211,-76.1918 352.7457,-75.5515 360.6136,-82.647 363.3211,-76.1918"/>
</g>
<!-- Node3 -->
<g id="node4" class="node">
<title>Node3</title>
<g id="a_node4"><a xlink:href="visibility_8h_source.html" target="_top" xlink:title="jaegertracingc/visibility.h">
<polygon fill="#ffffff" stroke="#000000" points="1226,-56.5 1226,-75.5 1350,-75.5 1350,-56.5 1226,-56.5"/>
<text text-anchor="middle" x="1288" y="-63.5" font-family="Helvetica,sans-Serif" font-size="10.00" fill="#000000">jaegertracingc/visibility.h</text>
</a>
</g>
</g>
<!-- Node2&#45;&gt;Node3 -->
<g id="edge3" class="edge">
<title>Node2&#45;&gt;Node3</title>
<path fill="none" stroke="#191970" d="M1288,-112.2455C1288,-104.9382 1288,-94.6944 1288,-85.7046"/>
<polygon fill="#191970" stroke="#191970" points="1291.5001,-85.6426 1288,-75.6427 1284.5001,-85.6427 1291.5001,-85.6426"/>
</g>
<!-- Node17&#45;&gt;Node4 -->
<g id="edge18" class="edge">
<title>Node17&#45;&gt;Node4</title>
<path fill="none" stroke="#191970" d="M332.8241,-112.3733C312.0234,-103.3435 280.7083,-89.7494 257.3542,-79.6111"/>
<polygon fill="#191970" stroke="#191970" points="258.4532,-76.2727 247.8865,-75.5011 255.6657,-82.6938 258.4532,-76.2727"/>
</g>
<!-- Node17&#45;&gt;Node11 -->
<g id="edge19" class="edge">
<title>Node17&#45;&gt;Node11</title>
<path fill="none" stroke="#191970" d="M368.4124,-112.2455C380.0057,-103.814 396.9748,-91.4729 410.4678,-81.6598"/>
<polygon fill="#191970" stroke="#191970" points="412.7126,-84.355 418.7413,-75.6427 408.5953,-78.6938 412.7126,-84.355"/>
</g>
<!-- Node17&#45;&gt;Node14 -->
<g id="edge20" class="edge">
<title>Node17&#45;&gt;Node14</title>
<path fill="none" stroke="#191970" d="M379.7545,-112.3733C403.2849,-103.2226 438.8687,-89.3844 465.0426,-79.2057"/>
<polygon fill="#191970" stroke="#191970" points="466.5171,-82.3877 474.5685,-75.5011 463.9799,-75.8636 466.5171,-82.3877"/>
</g>
<!-- Node17&#45;&gt;Node18 -->
<g id="edge21" class="edge">
<title>Node17&#45;&gt;Node18</title>
<path fill="none" stroke="#191970" d="M350.6453,-112.2455C347.2756,-104.6973 342.507,-94.0158 338.4017,-84.8197"/>
<polygon fill="#191970" stroke="#191970" points="341.5773,-83.3473 334.3048,-75.6427 335.1853,-86.2009 341.5773,-83.3473"/>
</g>
<!-- Node18&#45;&gt;Node8 -->
<g id="edge22" class="edge">
<title>Node18&#45;&gt;Node8</title>
<path fill="none" stroke="#191970" d="M346.7219,-56.2455C361.5889,-47.5731 383.5466,-34.7645 400.5858,-24.825"/>
<polygon fill="#191970" stroke="#191970" points="402.5955,-27.7047 409.4697,-19.6427 399.0683,-21.6582 402.5955,-27.7047"/>
</g>
<!-- Node18&#45;&gt;Node12 -->
<g id="edge23" class="edge">
<title>Node18&#45;&gt;Node12</title>
<path fill="none" stroke="#191970" d="M366.2722,-56.3733C406.1842,-45.7805 469.7629,-28.9065 508.2243,-18.6988"/>
<polygon fill="#191970" stroke="#191970" points="509.1311,-22.0793 517.8986,-16.1312 507.3354,-15.3136 509.1311,-22.0793"/>
</g>
<!-- Node19&#45;&gt;Node1 -->
<g id="edge26" class="edge">
<title>Node19&#45;&gt;Node1</title>
<path fill="none" stroke="#191970" d="M83.0031,-425.4692C63.1611,-392.618 3.8935,-282.8931 58,-224 89.0678,-190.1838 385.8154,-181.1991 526.5835,-178.8339"/>
<polygon fill="#191970" stroke="#191970" points="526.9097,-182.3292 536.852,-178.6685 526.7969,-175.3301 526.9097,-182.3292"/>
</g>
<!-- Node20&#45;&gt;Node1 -->
<g id="edge30" class="edge">
<title>Node20&#45;&gt;Node1</title>
<path fill="none" stroke="#191970" d="M533.038,-434.1418C650.9413,-431.6747 924.1499,-422.4217 1010,-389 1055.4792,-371.2948 1075.4529,-365.7898 1097,-322 1168.8204,-176.0403 1098.487,-284.2803 831,-224 773.9529,-211.144 708.556,-198.2966 661.94,-189.4601"/>
<polygon fill="#191970" stroke="#191970" points="662.4686,-185.9981 651.9927,-187.5813 661.1694,-192.8765 662.4686,-185.9981"/>
</g>
<!-- Node21 -->
<g id="node22" class="node">
<title>Node21</title>
<g id="a_node22"><a xlink:href="clock_8h.html" target="_top" xlink:title="Timestamp and duration representations. ">
<polygon fill="#ffffff" stroke="#000000" points="727,-297 727,-316 839,-316 839,-297 727,-297"/>
<text text-anchor="middle" x="783" y="-304" font-family="Helvetica,sans-Serif" font-size="10.00" fill="#000000">jaegertracingc/clock.h</text>
</a>
</g>
</g>
<!-- Node20&#45;&gt;Node21 -->
<g id="edge28" class="edge">
<title>Node20&#45;&gt;Node21</title>
<path fill="none" stroke="#191970" d="M500.9246,-425.3416C554.7091,-402.6816 689.1107,-346.0566 750.9475,-320.0041"/>
<polygon fill="#191970" stroke="#191970" points="752.3689,-323.2033 760.2255,-316.0952 749.651,-316.7524 752.3689,-323.2033"/>
</g>
<!-- Node22 -->
<g id="node23" class="node">
<title>Node22</title>
<g id="a_node23"><a xlink:href="hashtable_8h.html" target="_top" xlink:title="Hashtable data structure. ">
<polygon fill="#ffffff" stroke="#000000" points="137.5,-364 137.5,-383 268.5,-383 268.5,-364 137.5,-364"/>
<text text-anchor="middle" x="203" y="-371" font-family="Helvetica,sans-Serif" font-size="10.00" fill="#000000">jaegertracingc/hashtable.h</text>
</a>
</g>
</g>
<!-- Node20&#45;&gt;Node22 -->
<g id="edge31" class="edge">
<title>Node20&#45;&gt;Node22</title>
<path fill="none" stroke="#191970" d="M435.333,-425.4581C386.9622,-414.6406 308.0631,-396.9959 255.8393,-385.3168"/>
<polygon fill="#191970" stroke="#191970" points="256.2899,-381.8312 245.7671,-383.0643 254.7622,-388.6624 256.2899,-381.8312"/>
</g>
<!-- Node23 -->
<g id="node24" class="node">
<title>Node23</title>
<g id="a_node24"><a xlink:href="key__value_8h.html" target="_top" xlink:title="Key value pair representation. ">
<polygon fill="#ffffff" stroke="#000000" points="229,-291.5 229,-321.5 325,-321.5 325,-291.5 229,-291.5"/>
<text text-anchor="start" x="237" y="-309.5" font-family="Helvetica,sans-Serif" font-size="10.00" fill="#000000">jaegertracingc/key</text>
<text text-anchor="middle" x="277" y="-298.5" font-family="Helvetica,sans-Serif" font-size="10.00" fill="#000000">_value.h</text>
</a>
</g>
</g>
<!-- Node20&#45;&gt;Node23 -->
<g id="edge41" class="edge">
<title>Node20&#45;&gt;Node23</title>
<path fill="none" stroke="#191970" d="M432.7991,-425.4435C406.1973,-418.3413 372.8193,-406.7565 347,-389 324.2559,-373.3583 304.5574,-348.4893 291.9026,-330.1407"/>
<polygon fill="#191970" stroke="#191970" points="294.7429,-328.0917 286.2736,-321.726 288.9247,-331.9838 294.7429,-328.0917"/>
</g>
<!-- Node24 -->
<g id="node25" class="node">
<title>Node24</title>
<g id="a_node25"><a xlink:href="vector_8h.html" target="_top" xlink:title="C generic vector implementation. ">
<polygon fill="#ffffff" stroke="#000000" points="338,-230 338,-249 454,-249 454,-230 338,-230"/>
<text text-anchor="middle" x="396" y="-237" font-family="Helvetica,sans-Serif" font-size="10.00" fill="#000000">jaegertracingc/vector.h</text>
</a>
</g>
</g>
<!-- Node20&#45;&gt;Node24 -->
<g id="edge61" class="edge">
<title>Node20&#45;&gt;Node24</title>
<path fill="none" stroke="#191970" d="M437.7075,-425.4495C418.5342,-418.6623 397.3598,-407.3805 386,-389 360.7992,-348.2242 377.0598,-288.6891 388.1499,-258.5287"/>
<polygon fill="#191970" stroke="#191970" points="391.4288,-259.7536 391.7806,-249.1646 384.9022,-257.2231 391.4288,-259.7536"/>
</g>
<!-- Node26 -->
<g id="node27" class="node">
<title>Node26</title>
<g id="a_node27"><a xlink:href="log__record_8h.html" target="_top" xlink:title="Log record representation for use in span. ">
<polygon fill="#ffffff" stroke="#000000" points="394.5,-358.5 394.5,-388.5 487.5,-388.5 487.5,-358.5 394.5,-358.5"/>
<text text-anchor="start" x="402.5" y="-376.5" font-family="Helvetica,sans-Serif" font-size="10.00" fill="#000000">jaegertracingc/log</text>
<text text-anchor="middle" x="441" y="-365.5" font-family="Helvetica,sans-Serif" font-size="10.00" fill="#000000">_record.h</text>
</a>
</g>
</g>
<!-- Node20&#45;&gt;Node26 -->
<g id="edge42" class="edge">
<title>Node20&#45;&gt;Node26</title>
<path fill="none" stroke="#191970" d="M472.2188,-425.3906C467.6749,-417.838 461.147,-406.9876 455.2341,-397.1593"/>
<polygon fill="#191970" stroke="#191970" points="458.2055,-395.309 450.0512,-388.5446 452.2074,-398.9177 458.2055,-395.309"/>
</g>
<!-- Node27 -->
<g id="node28" class="node">
<title>Node27</title>
<g id="a_node28"><a xlink:href="tag_8h.html" target="_top" xlink:title="Tag representation and functions. ">
<polygon fill="#ffffff" stroke="#000000" points="465,-297 465,-316 567,-316 567,-297 465,-297"/>
<text text-anchor="middle" x="516" y="-304" font-family="Helvetica,sans-Serif" font-size="10.00" fill="#000000">jaegertracingc/tag.h</text>
</a>
</g>
</g>
<!-- Node20&#45;&gt;Node27 -->
<g id="edge52" class="edge">
<title>Node20&#45;&gt;Node27</title>
<path fill="none" stroke="#191970" d="M482.5559,-425.3045C486.7419,-416.1134 492.9005,-401.8407 497,-389 503.6828,-368.0676 509.04,-343.448 512.3408,-326.5864"/>
<polygon fill="#191970" stroke="#191970" points="515.8682,-326.7696 514.2884,-316.2932 508.9902,-325.4681 515.8682,-326.7696"/>
</g>
<!-- Node30 -->
<g id="node31" class="node">
<title>Node30</title>
<g id="a_node31"><a xlink:href="threading_8h.html" target="_top" xlink:title="Threading utilities. ">
<polygon fill="#ffffff" stroke="#000000" points="873,-364 873,-383 1001,-383 1001,-364 873,-364"/>
<text text-anchor="middle" x="937" y="-371" font-family="Helvetica,sans-Serif" font-size="10.00" fill="#000000">jaegertracingc/threading.h</text>
</a>
</g>
</g>
<!-- Node20&#45;&gt;Node30 -->
<g id="edge53" class="edge">
<title>Node20&#45;&gt;Node30</title>
<path fill="none" stroke="#191970" d="M533.3661,-427.5817C615.7573,-416.5423 770.7863,-395.7705 862.8794,-383.4312"/>
<polygon fill="#191970" stroke="#191970" points="863.5173,-386.8771 872.9639,-382.08 862.5877,-379.9391 863.5173,-386.8771"/>
</g>
<!-- Node34 -->
<g id="node35" class="node">
<title>Node34</title>
<g id="a_node35"><a xlink:href="trace__id_8h.html" target="_top" xlink:title="Trace ID representation. ">
<polygon fill="#ffffff" stroke="#000000" points="585.5,-297 585.5,-316 708.5,-316 708.5,-297 585.5,-297"/>
<text text-anchor="middle" x="647" y="-304" font-family="Helvetica,sans-Serif" font-size="10.00" fill="#000000">jaegertracingc/trace_id.h</text>
</a>
</g>
</g>
<!-- Node20&#45;&gt;Node34 -->
<g id="edge58" class="edge">
<title>Node20&#45;&gt;Node34</title>
<path fill="none" stroke="#191970" d="M490.7025,-425.3416C519.5751,-403.3881 590.3753,-349.5549 625.9199,-322.5283"/>
<polygon fill="#191970" stroke="#191970" points="628.3083,-325.1092 634.1501,-316.2705 624.0714,-319.537 628.3083,-325.1092"/>
</g>
<!-- Node21&#45;&gt;Node1 -->
<g id="edge29" class="edge">
<title>Node21&#45;&gt;Node1</title>
<path fill="none" stroke="#191970" d="M777.9406,-296.9779C768.4991,-280.0493 746.6271,-244.5669 719,-224 698.4935,-208.734 672.2885,-197.883 649.6918,-190.5691"/>
<polygon fill="#191970" stroke="#191970" points="650.515,-187.1603 639.9274,-187.5517 648.4482,-193.8482 650.515,-187.1603"/>
</g>
<!-- Node22&#45;&gt;Node1 -->
<g id="edge32" class="edge">
<title>Node22&#45;&gt;Node1</title>
<path fill="none" stroke="#191970" d="M203.0483,-363.9057C203.5311,-347.7715 206.2762,-314.6536 220,-291 242.598,-252.0515 255.19,-243.0314 296,-224 335.8164,-205.432 450.119,-191.7237 526.6555,-184.3025"/>
<polygon fill="#191970" stroke="#191970" points="527.1039,-187.7757 536.726,-183.341 526.4386,-180.8074 527.1039,-187.7757"/>
</g>
<!-- Node22&#45;&gt;Node23 -->
<g id="edge33" class="edge">
<title>Node22&#45;&gt;Node23</title>
<path fill="none" stroke="#191970" d="M213.6024,-363.9005C223.8251,-354.6448 239.6575,-340.3101 252.9427,-328.2816"/>
<polygon fill="#191970" stroke="#191970" points="255.3449,-330.8281 260.4088,-321.5218 250.6467,-325.639 255.3449,-330.8281"/>
</g>
<!-- Node25 -->
<g id="node26" class="node">
<title>Node25</title>
<g id="a_node26"><a xlink:href="list_8h_source.html" target="_top" xlink:title="jaegertracingc/list.h">
<polygon fill="#ffffff" stroke="#000000" points="66.5,-230 66.5,-249 167.5,-249 167.5,-230 66.5,-230"/>
<text text-anchor="middle" x="117" y="-237" font-family="Helvetica,sans-Serif" font-size="10.00" fill="#000000">jaegertracingc/list.h</text>
</a>
</g>
</g>
<!-- Node22&#45;&gt;Node25 -->
<g id="edge39" class="edge">
<title>Node22&#45;&gt;Node25</title>
<path fill="none" stroke="#191970" d="M196.8151,-363.8631C182.559,-341.6501 147.1989,-286.5541 128.7008,-257.7316"/>
<polygon fill="#191970" stroke="#191970" points="131.4757,-255.5751 123.1289,-249.0496 125.5846,-259.356 131.4757,-255.5751"/>
</g>
<!-- Node23&#45;&gt;Node1 -->
<g id="edge35" class="edge">
<title>Node23&#45;&gt;Node1</title>
<path fill="none" stroke="#191970" d="M282.1699,-291.2324C289.4525,-272.2156 304.6335,-240.2536 329,-224 360.5779,-202.9361 457.5596,-190.2877 526.4645,-183.7299"/>
<polygon fill="#191970" stroke="#191970" points="527.2074,-187.1761 536.8415,-182.7678 526.5611,-180.206 527.2074,-187.1761"/>
</g>
<!-- Node23&#45;&gt;Node17 -->
<g id="edge34" class="edge">
<title>Node23&#45;&gt;Node17</title>
<path fill="none" stroke="#191970" d="M279.0771,-291.4962C281.7215,-274.6495 287.0548,-246.6995 296,-224 308.3022,-192.7816 329.0605,-159.6947 342.3887,-139.9493"/>
<polygon fill="#191970" stroke="#191970" points="345.3242,-141.8574 348.0989,-131.6324 339.5534,-137.8953 345.3242,-141.8574"/>
</g>
<!-- Node23&#45;&gt;Node18 -->
<g id="edge36" class="edge">
<title>Node23&#45;&gt;Node18</title>
<path fill="none" stroke="#191970" d="M275.118,-291.3926C271.5586,-257.7079 266.328,-174.4988 292,-112 296.4278,-101.2205 304.3025,-91.0317 311.7395,-82.9961"/>
<polygon fill="#191970" stroke="#191970" points="314.3653,-85.3178 318.8867,-75.7362 309.377,-80.4069 314.3653,-85.3178"/>
</g>
<!-- Node23&#45;&gt;Node24 -->
<g id="edge37" class="edge">
<title>Node23&#45;&gt;Node24</title>
<path fill="none" stroke="#191970" d="M303.7059,-291.4639C323.5827,-280.2728 350.5601,-265.0838 370.2132,-254.0186"/>
<polygon fill="#191970" stroke="#191970" points="371.9456,-257.0599 378.9423,-249.1039 368.5113,-250.9602 371.9456,-257.0599"/>
</g>
<!-- Node24&#45;&gt;Node1 -->
<g id="edge38" class="edge">
<title>Node24&#45;&gt;Node1</title>
<path fill="none" stroke="#191970" d="M427.875,-229.8906C463.0559,-219.2846 519.8088,-202.1753 558.4515,-190.5257"/>
<polygon fill="#191970" stroke="#191970" points="559.7847,-193.7794 568.3488,-187.5419 557.7642,-187.0773 559.7847,-193.7794"/>
</g>
<!-- Node25&#45;&gt;Node1 -->
<g id="edge40" class="edge">
<title>Node25&#45;&gt;Node1</title>
<path fill="none" stroke="#191970" d="M153.6164,-229.926C162.8345,-227.7487 172.7415,-225.6069 182,-224 301.978,-203.1766 443.0567,-189.9606 526.8098,-183.2786"/>
<polygon fill="#191970" stroke="#191970" points="527.2907,-186.7516 536.9847,-182.4765 526.7405,-179.7733 527.2907,-186.7516"/>
</g>
<!-- Node26&#45;&gt;Node1 -->
<g id="edge44" class="edge">
<title>Node26&#45;&gt;Node1</title>
<path fill="none" stroke="#191970" d="M440.6217,-358.3809C440.8571,-340.9285 443.3703,-311.9436 456,-291 483.7065,-245.0547 537.5006,-210.5626 570.9214,-192.4006"/>
<polygon fill="#191970" stroke="#191970" points="572.9751,-195.2738 580.1782,-187.5043 569.7021,-189.0861 572.9751,-195.2738"/>
</g>
<!-- Node26&#45;&gt;Node21 -->
<g id="edge43" class="edge">
<title>Node26&#45;&gt;Node21</title>
<path fill="none" stroke="#191970" d="M487.7021,-365.5555C542.8782,-355.999 637.3721,-339.0972 718,-322 723.3907,-320.8569 729.0187,-319.6044 734.6104,-318.3224"/>
<polygon fill="#191970" stroke="#191970" points="735.6322,-321.6781 744.5771,-316.0002 734.0438,-314.8607 735.6322,-321.6781"/>
</g>
<!-- Node26&#45;&gt;Node24 -->
<g id="edge51" class="edge">
<title>Node26&#45;&gt;Node24</title>
<path fill="none" stroke="#191970" d="M435.564,-358.2039C431.9505,-347.9736 427.1285,-334.2015 423,-322 415.7094,-300.453 407.63,-275.6349 402.2262,-258.8934"/>
<polygon fill="#191970" stroke="#191970" points="405.4932,-257.6197 399.0968,-249.1736 398.83,-259.7651 405.4932,-257.6197"/>
</g>
<!-- Node26&#45;&gt;Node27 -->
<g id="edge45" class="edge">
<title>Node26&#45;&gt;Node27</title>
<path fill="none" stroke="#191970" d="M458.0187,-358.2967C469.8175,-347.7564 485.5184,-333.7303 497.6057,-322.9323"/>
<polygon fill="#191970" stroke="#191970" points="500.1783,-325.3273 505.3041,-316.055 495.5147,-320.107 500.1783,-325.3273"/>
</g>
<!-- Node27&#45;&gt;Node1 -->
<g id="edge47" class="edge">
<title>Node27&#45;&gt;Node1</title>
<path fill="none" stroke="#191970" d="M522.3137,-296.8416C536.2389,-275.5393 569.7859,-224.2203 587.905,-196.5025"/>
<polygon fill="#191970" stroke="#191970" points="591.071,-198.0558 593.6131,-187.7705 585.2118,-194.2257 591.071,-198.0558"/>
</g>
<!-- Node27&#45;&gt;Node17 -->
<g id="edge46" class="edge">
<title>Node27&#45;&gt;Node17</title>
<path fill="none" stroke="#191970" d="M510.8136,-296.8347C502.0342,-280.8789 483.2164,-248.3706 463,-224 435.4043,-190.7339 397.6547,-157.3094 374.8721,-138.1906"/>
<polygon fill="#191970" stroke="#191970" points="376.8555,-135.2883 366.9257,-131.5937 372.3842,-140.6742 376.8555,-135.2883"/>
</g>
<!-- Node27&#45;&gt;Node24 -->
<g id="edge50" class="edge">
<title>Node27&#45;&gt;Node24</title>
<path fill="none" stroke="#191970" d="M498.8069,-296.9005C478.7573,-285.7062 445.4012,-267.0823 422.1398,-254.0947"/>
<polygon fill="#191970" stroke="#191970" points="423.5987,-250.9007 413.1612,-249.0817 420.1862,-257.0126 423.5987,-250.9007"/>
</g>
<!-- Node28 -->
<g id="node29" class="node">
<title>Node28</title>
<g id="a_node29"><a xlink:href="jaeger_8pb-c_8h_source.html" target="_top" xlink:title="jaegertracingc/protoc\l&#45;gen/jaeger.pb&#45;c.h">
<polygon fill="#ffffff" stroke="#000000" points="586.5,-224.5 586.5,-254.5 693.5,-254.5 693.5,-224.5 586.5,-224.5"/>
<text text-anchor="start" x="594.5" y="-242.5" font-family="Helvetica,sans-Serif" font-size="10.00" fill="#000000">jaegertracingc/protoc</text>
<text text-anchor="middle" x="640" y="-231.5" font-family="Helvetica,sans-Serif" font-size="10.00" fill="#000000">&#45;gen/jaeger.pb&#45;c.h</text>
</a>
</g>
</g>
<!-- Node27&#45;&gt;Node28 -->
<g id="edge48" class="edge">
<title>Node27&#45;&gt;Node28</title>
<path fill="none" stroke="#191970" d="M533.7662,-296.9005C551.8567,-287.1258 580.4309,-271.6865 603.39,-259.2812"/>
<polygon fill="#191970" stroke="#191970" points="605.0645,-262.3548 612.1985,-254.5218 601.7368,-256.1962 605.0645,-262.3548"/>
</g>
<!-- Node29 -->
<g id="node30" class="node">
<title>Node29</title>
<polygon fill="#ffffff" stroke="#bfbfbf" points="681.5,-168.5 681.5,-187.5 796.5,-187.5 796.5,-168.5 681.5,-168.5"/>
<text text-anchor="middle" x="739" y="-175.5" font-family="Helvetica,sans-Serif" font-size="10.00" fill="#000000">protobuf&#45;c/protobuf&#45;c.h</text>
</g>
<!-- Node28&#45;&gt;Node29 -->
<g id="edge49" class="edge">
<title>Node28&#45;&gt;Node29</title>
<path fill="none" stroke="#191970" d="M664.2181,-224.4554C679.5773,-214.9141 699.3757,-202.6151 714.7425,-193.0691"/>
<polygon fill="#191970" stroke="#191970" points="717.011,-195.7802 723.6585,-187.5303 713.3172,-189.8341 717.011,-195.7802"/>
</g>
<!-- Node30&#45;&gt;Node1 -->
<g id="edge54" class="edge">
<title>Node30&#45;&gt;Node1</title>
<path fill="none" stroke="#191970" d="M937.5015,-363.8307C937.8437,-346.9862 936.1254,-312.0508 918,-291 882.7133,-250.0181 732.9574,-209.3811 652.1715,-189.9022"/>
<polygon fill="#191970" stroke="#191970" points="652.7382,-186.4391 642.1987,-187.5206 651.1122,-193.2477 652.7382,-186.4391"/>
</g>
<!-- Node31 -->
<g id="node32" class="node">
<title>Node31</title>
<polygon fill="#ffffff" stroke="#bfbfbf" points="965.5,-297 965.5,-316 1012.5,-316 1012.5,-297 965.5,-297"/>
<text text-anchor="middle" x="989" y="-304" font-family="Helvetica,sans-Serif" font-size="10.00" fill="#000000">errno.h</text>
</g>
<!-- Node30&#45;&gt;Node31 -->
<g id="edge55" class="edge">
<title>Node30&#45;&gt;Node31</title>
<path fill="none" stroke="#191970" d="M944.4503,-363.9005C952.4821,-353.552 965.4415,-336.8542 975.3174,-324.1295"/>
<polygon fill="#191970" stroke="#191970" points="978.1972,-326.1275 981.5635,-316.0817 972.6672,-321.8356 978.1972,-326.1275"/>
</g>
<!-- Node32 -->
<g id="node33" class="node">
<title>Node32</title>
<polygon fill="#ffffff" stroke="#bfbfbf" points="1030.5,-297 1030.5,-316 1087.5,-316 1087.5,-297 1030.5,-297"/>
<text text-anchor="middle" x="1059" y="-304" font-family="Helvetica,sans-Serif" font-size="10.00" fill="#000000">pthread.h</text>
</g>
<!-- Node30&#45;&gt;Node32 -->
<g id="edge56" class="edge">
<title>Node30&#45;&gt;Node32</title>
<path fill="none" stroke="#191970" d="M954.4796,-363.9005C974.954,-352.6564 1009.0772,-333.9166 1032.7393,-320.9219"/>
<polygon fill="#191970" stroke="#191970" points="1034.4724,-323.9632 1041.5528,-316.0817 1031.1028,-317.8276 1034.4724,-323.9632"/>
</g>
<!-- Node33 -->
<g id="node34" class="node">
<title>Node33</title>
<polygon fill="#ffffff" stroke="#bfbfbf" points="857.5,-297 857.5,-316 908.5,-316 908.5,-297 857.5,-297"/>
<text text-anchor="middle" x="883" y="-304" font-family="Helvetica,sans-Serif" font-size="10.00" fill="#000000">sched.h</text>
</g>
<!-- Node30&#45;&gt;Node33 -->
<g id="edge57" class="edge">
<title>Node30&#45;&gt;Node33</title>
<path fill="none" stroke="#191970" d="M929.2631,-363.9005C920.9225,-353.552 907.4646,-336.8542 897.2088,-324.1295"/>
<polygon fill="#191970" stroke="#191970" points="899.7229,-321.6713 890.7225,-316.0817 894.2727,-326.064 899.7229,-321.6713"/>
</g>
<!-- Node34&#45;&gt;Node1 -->
<g id="edge59" class="edge">
<title>Node34&#45;&gt;Node1</title>
<path fill="none" stroke="#191970" d="M661.9105,-296.9347C683.8199,-281.6515 720.3326,-250.7233 703,-224 692.7943,-208.2649 675.8105,-197.8651 658.5479,-191.0109"/>
<polygon fill="#191970" stroke="#191970" points="659.5645,-187.6569 648.9701,-187.5564 657.1894,-194.2417 659.5645,-187.6569"/>
</g>
<!-- Node34&#45;&gt;Node28 -->
<g id="edge60" class="edge">
<title>Node34&#45;&gt;Node28</title>
<path fill="none" stroke="#191970" d="M645.9971,-296.9005C645.1204,-288.5099 643.8077,-275.9451 642.6337,-264.7085"/>
<polygon fill="#191970" stroke="#191970" points="646.0897,-264.1039 641.5694,-254.5218 639.1276,-264.8314 646.0897,-264.1039"/>
</g>
</g>
</svg>
