<?xml version="1.0" encoding="UTF-8" standalone="no"?>
<!DOCTYPE svg PUBLIC "-//W3C//DTD SVG 1.1//EN"
 "http://www.w3.org/Graphics/SVG/1.1/DTD/svg11.dtd">
<!-- Generated by graphviz version 2.40.1 (20161225.0304)
 -->
<!-- Title: jaegertracingc/clock.h Pages: 1 -->
<svg width="384pt" height="330pt"
 viewBox="0.00 0.00 383.50 330.00" xmlns="http://www.w3.org/2000/svg" xmlns:xlink="http://www.w3.org/1999/xlink">
<g id="graph0" class="graph" transform="scale(1 1) rotate(0) translate(4 326)">
<title>jaegertracingc/clock.h</title>
<polygon fill="#ffffff" stroke="transparent" points="-4,4 -4,-326 379.5,-326 379.5,4 -4,4"/>
<!-- Node19 -->
<g id="node1" class="node">
<title>Node19</title>
<polygon fill="#bfbfbf" stroke="#000000" points="96.5,-302.5 96.5,-321.5 208.5,-321.5 208.5,-302.5 96.5,-302.5"/>
<text text-anchor="middle" x="152.5" y="-309.5" font-family="Helvetica,sans-Serif" font-size="10.00" fill="#000000">jaegertracingc/clock.h</text>
</g>
<!-- Node20 -->
<g id="node2" class="node">
<title>Node20</title>
<g id="a_node2"><a xlink:href="log__record_8h.html" target="_top" xlink:title="Log record representation for use in span. ">
<polygon fill="#ffffff" stroke="#000000" points="12,-235.5 12,-265.5 105,-265.5 105,-235.5 12,-235.5"/>
<text text-anchor="start" x="20" y="-253.5" font-family="Helvetica,sans-Serif" font-size="10.00" fill="#000000">jaegertracingc/log</text>
<text text-anchor="middle" x="58.5" y="-242.5" font-family="Helvetica,sans-Serif" font-size="10.00" fill="#000000">_record.h</text>
</a>
</g>
</g>
<!-- Node19&#45;&gt;Node20 -->
<g id="edge1" class="edge">
<title>Node19&#45;&gt;Node20</title>
<path fill="none" stroke="#191970" d="M129.3507,-296.8545C114.7766,-287.3193 96.0396,-275.0605 81.495,-265.5446"/>
<polygon fill="#191970" stroke="#191970" points="127.5281,-299.8445 137.8125,-302.3906 131.3606,-293.9868 127.5281,-299.8445"/>
</g>
<!-- Node21 -->
<g id="node3" class="node">
<title>Node21</title>
<g id="a_node3"><a xlink:href="span_8h.html" target="_top" xlink:title="Span, span context, and span ref representations and functions. ">
<polygon fill="#ffffff" stroke="#000000" points="10.5,-179.5 10.5,-198.5 120.5,-198.5 120.5,-179.5 10.5,-179.5"/>
<text text-anchor="middle" x="65.5" y="-186.5" font-family="Helvetica,sans-Serif" font-size="10.00" fill="#000000">jaegertracingc/span.h</text>
</a>
</g>
</g>
<!-- Node19&#45;&gt;Node21 -->
<g id="edge8" class="edge">
<title>Node19&#45;&gt;Node21</title>
<path fill="none" stroke="#191970" d="M144.9899,-292.9201C138.1108,-276.683 126.9665,-253.1721 113.5,-235 103.0544,-220.9044 88.0911,-207.3305 77.6573,-198.6281"/>
<polygon fill="#191970" stroke="#191970" points="141.8476,-294.4827 148.8761,-302.4106 148.3255,-291.83 141.8476,-294.4827"/>
</g>
<!-- Node25 -->
<g id="node7" class="node">
<title>Node25</title>
<g id="a_node7"><a xlink:href="sampler_8h.html" target="_top" xlink:title="Span sampler interface. ">
<polygon fill="#ffffff" stroke="#000000" points="186,-179.5 186,-198.5 309,-198.5 309,-179.5 186,-179.5"/>
<text text-anchor="middle" x="247.5" y="-186.5" font-family="Helvetica,sans-Serif" font-size="10.00" fill="#000000">jaegertracingc/sampler.h</text>
</a>
</g>
</g>
<!-- Node19&#45;&gt;Node25 -->
<g id="edge9" class="edge">
<title>Node19&#45;&gt;Node25</title>
<path fill="none" stroke="#191970" d="M159.3418,-292.6133C165.7475,-276.1846 176.4373,-252.5649 190.5,-235 202.3419,-220.209 219.7084,-207.0527 232.157,-198.6388"/>
<polygon fill="#191970" stroke="#191970" points="155.9687,-291.6421 155.7587,-302.2349 162.5286,-294.0851 155.9687,-291.6421"/>
</g>
<!-- Node27 -->
<g id="node9" class="node">
<title>Node27</title>
<g id="a_node9"><a xlink:href="token__bucket_8h.html" target="_top" xlink:title="Token bucket implementation. ">
<polygon fill="#ffffff" stroke="#000000" points="199.5,-235.5 199.5,-265.5 303.5,-265.5 303.5,-235.5 199.5,-235.5"/>
<text text-anchor="start" x="207.5" y="-253.5" font-family="Helvetica,sans-Serif" font-size="10.00" fill="#000000">jaegertracingc/token</text>
<text text-anchor="middle" x="251.5" y="-242.5" font-family="Helvetica,sans-Serif" font-size="10.00" fill="#000000">_bucket.h</text>
</a>
</g>
</g>
<!-- Node19&#45;&gt;Node27 -->
<g id="edge12" class="edge">
<title>Node19&#45;&gt;Node27</title>
<path fill="none" stroke="#191970" d="M176.8806,-296.8545C192.2299,-287.3193 211.9636,-275.0605 227.2819,-265.5446"/>
<polygon fill="#191970" stroke="#191970" points="174.6163,-294.1407 167.9688,-302.3906 178.3101,-300.0868 174.6163,-294.1407"/>
</g>
<!-- Node20&#45;&gt;Node21 -->
<g id="edge2" class="edge">
<title>Node20&#45;&gt;Node21</title>
<path fill="none" stroke="#191970" d="M61.37,-225.2849C62.4284,-215.9858 63.5664,-205.9883 64.3792,-198.8469"/>
<polygon fill="#191970" stroke="#191970" points="57.8838,-224.9661 60.2303,-235.2977 64.8389,-225.7578 57.8838,-224.9661"/>
</g>
<!-- Node22 -->
<g id="node4" class="node">
<title>Node22</title>
<g id="a_node4"><a xlink:href="propagation_8c.html" target="_top" xlink:title="Trace ID representation. ">
<polygon fill="#ffffff" stroke="#000000" points="0,-.5 0,-19.5 139,-19.5 139,-.5 0,-.5"/>
<text text-anchor="middle" x="69.5" y="-7.5" font-family="Helvetica,sans-Serif" font-size="10.00" fill="#000000">jaegertracingc/propagation.c</text>
</a>
</g>
</g>
<!-- Node21&#45;&gt;Node22 -->
<g id="edge3" class="edge">
<title>Node21&#45;&gt;Node22</title>
<path fill="none" stroke="#191970" d="M65.6218,-169.265C65.8221,-143.2912 66.3236,-96.2149 67.5,-56 67.8693,-43.3754 68.5446,-28.812 69.0075,-19.5119"/>
<polygon fill="#191970" stroke="#191970" points="62.1216,-169.2946 65.5514,-179.3189 69.1214,-169.3437 62.1216,-169.2946"/>
</g>
<!-- Node23 -->
<g id="node5" class="node">
<title>Node23</title>
<g id="a_node5"><a xlink:href="tracer_8h.html" target="_top" xlink:title="Tracer implementation. ">
<polygon fill="#ffffff" stroke="#000000" points="77,-56.5 77,-75.5 190,-75.5 190,-56.5 77,-56.5"/>
<text text-anchor="middle" x="133.5" y="-63.5" font-family="Helvetica,sans-Serif" font-size="10.00" fill="#000000">jaegertracingc/tracer.h</text>
</a>
</g>
</g>
<!-- Node21&#45;&gt;Node23 -->
<g id="edge4" class="edge">
<title>Node21&#45;&gt;Node23</title>
<path fill="none" stroke="#191970" d="M67.2311,-169.3334C69.3702,-153.0421 74.1036,-129.7664 84.5,-112 93.2217,-97.0954 108.2361,-84.0498 119.3523,-75.6952"/>
<polygon fill="#191970" stroke="#191970" points="63.7446,-169.0191 66.127,-179.3426 70.7024,-169.7867 63.7446,-169.0191"/>
</g>
<!-- Node24 -->
<g id="node6" class="node">
<title>Node24</title>
<g id="a_node6"><a xlink:href="reporter_8h.html" target="_top" xlink:title="Span reporter interface. ">
<polygon fill="#ffffff" stroke="#000000" points="93.5,-118 93.5,-137 215.5,-137 215.5,-118 93.5,-118"/>
<text text-anchor="middle" x="154.5" y="-125" font-family="Helvetica,sans-Serif" font-size="10.00" fill="#000000">jaegertracingc/reporter.h</text>
</a>
</g>
</g>
<!-- Node21&#45;&gt;Node24 -->
<g id="edge6" class="edge">
<title>Node21&#45;&gt;Node24</title>
<path fill="none" stroke="#191970" d="M87.9764,-173.4685C104.5678,-162.0037 126.6206,-146.765 140.6914,-137.0419"/>
<polygon fill="#191970" stroke="#191970" points="85.6435,-170.8263 79.4063,-179.3906 89.6229,-176.5851 85.6435,-170.8263"/>
</g>
<!-- Node23&#45;&gt;Node22 -->
<g id="edge5" class="edge">
<title>Node23&#45;&gt;Node22</title>
<path fill="none" stroke="#191970" d="M114.8086,-49.645C103.6781,-39.9058 89.9337,-27.8795 80.5202,-19.6427"/>
<polygon fill="#191970" stroke="#191970" points="112.5215,-52.2945 122.3521,-56.2455 117.131,-47.0264 112.5215,-52.2945"/>
</g>
<!-- Node24&#45;&gt;Node23 -->
<g id="edge7" class="edge">
<title>Node24&#45;&gt;Node23</title>
<path fill="none" stroke="#191970" d="M147.9845,-108.4189C144.2869,-97.5901 139.8152,-84.4944 136.8275,-75.7449"/>
<polygon fill="#191970" stroke="#191970" points="144.675,-109.5581 151.2188,-117.8906 151.2995,-107.2961 144.675,-109.5581"/>
</g>
<!-- Node25&#45;&gt;Node23 -->
<g id="edge11" class="edge">
<title>Node25&#45;&gt;Node23</title>
<path fill="none" stroke="#191970" d="M245.893,-168.963C243.5982,-152.0854 238.0267,-128.1736 224.5,-112 209.736,-94.347 186.5002,-82.7607 167.204,-75.6318"/>
<polygon fill="#191970" stroke="#191970" points="242.4605,-169.7764 247.0157,-179.342 249.4199,-169.0236 242.4605,-169.7764"/>
</g>
<!-- Node26 -->
<g id="node8" class="node">
<title>Node26</title>
<g id="a_node8"><a xlink:href="mock__agent_8h.html" target="_top" xlink:title="Key value pair representation. ">
<polygon fill="#ffffff" stroke="#000000" points="271.5,-112.5 271.5,-142.5 375.5,-142.5 375.5,-112.5 271.5,-112.5"/>
<text text-anchor="start" x="279.5" y="-130.5" font-family="Helvetica,sans-Serif" font-size="10.00" fill="#000000">jaegertracingc/mock</text>
<text text-anchor="middle" x="323.5" y="-119.5" font-family="Helvetica,sans-Serif" font-size="10.00" fill="#000000">_agent.h</text>
</a>
</g>
</g>
<!-- Node25&#45;&gt;Node26 -->
<g id="edge10" class="edge">
<title>Node25&#45;&gt;Node26</title>
<path fill="none" stroke="#191970" d="M267.2248,-173.0385C278.8545,-163.6276 293.4817,-151.7911 304.9083,-142.5446"/>
<polygon fill="#191970" stroke="#191970" points="264.947,-170.3793 259.375,-179.3906 269.3504,-175.8209 264.947,-170.3793"/>
</g>
<!-- Node27&#45;&gt;Node25 -->
<g id="edge13" class="edge">
<title>Node27&#45;&gt;Node25</title>
<path fill="none" stroke="#191970" d="M249.86,-225.2849C249.2552,-215.9858 248.6049,-205.9883 248.1405,-198.8469"/>
<polygon fill="#191970" stroke="#191970" points="246.3695,-225.546 250.5112,-235.2977 253.3547,-225.0916 246.3695,-225.546"/>
</g>
</g>
</svg>
