<?xml version="1.0" encoding="UTF-8" standalone="no"?>
<!DOCTYPE svg PUBLIC "-//W3C//DTD SVG 1.1//EN"
 "http://www.w3.org/Graphics/SVG/1.1/DTD/svg11.dtd">
<!-- Generated by graphviz version 2.40.1 (20161225.0304)
 -->
<!-- Title: jaegertracingc/clock.h Pages: 1 -->
<svg width="472pt" height="330pt"
 viewBox="0.00 0.00 471.50 330.00" xmlns="http://www.w3.org/2000/svg" xmlns:xlink="http://www.w3.org/1999/xlink">
<g id="graph0" class="graph" transform="scale(1 1) rotate(0) translate(4 326)">
<title>jaegertracingc/clock.h</title>
<polygon fill="#ffffff" stroke="transparent" points="-4,4 -4,-326 467.5,-326 467.5,4 -4,4"/>
<!-- Node19 -->
<g id="node1" class="node">
<title>Node19</title>
<polygon fill="#bfbfbf" stroke="#000000" points="184.5,-302.5 184.5,-321.5 296.5,-321.5 296.5,-302.5 184.5,-302.5"/>
<text text-anchor="middle" x="240.5" y="-309.5" font-family="Helvetica,sans-Serif" font-size="10.00" fill="#000000">jaegertracingc/clock.h</text>
</g>
<!-- Node20 -->
<g id="node2" class="node">
<title>Node20</title>
<g id="a_node2"><a xlink:href="log__record_8h.html" target="_top" xlink:title="Log record representation for use in span. ">
<polygon fill="#ffffff" stroke="#000000" points="100,-235.5 100,-265.5 193,-265.5 193,-235.5 100,-235.5"/>
<text text-anchor="start" x="108" y="-253.5" font-family="Helvetica,sans-Serif" font-size="10.00" fill="#000000">jaegertracingc/log</text>
<text text-anchor="middle" x="146.5" y="-242.5" font-family="Helvetica,sans-Serif" font-size="10.00" fill="#000000">_record.h</text>
</a>
</g>
</g>
<!-- Node19&#45;&gt;Node20 -->
<g id="edge1" class="edge">
<title>Node19&#45;&gt;Node20</title>
<path fill="none" stroke="#191970" d="M217.3507,-296.8545C202.7766,-287.3193 184.0396,-275.0605 169.495,-265.5446"/>
<polygon fill="#191970" stroke="#191970" points="215.5281,-299.8445 225.8125,-302.3906 219.3606,-293.9868 215.5281,-299.8445"/>
</g>
<!-- Node21 -->
<g id="node3" class="node">
<title>Node21</title>
<g id="a_node3"><a xlink:href="span_8h.html" target="_top" xlink:title="Span, span context, and span ref representations and functions. ">
<polygon fill="#ffffff" stroke="#000000" points="98.5,-179.5 98.5,-198.5 208.5,-198.5 208.5,-179.5 98.5,-179.5"/>
<text text-anchor="middle" x="153.5" y="-186.5" font-family="Helvetica,sans-Serif" font-size="10.00" fill="#000000">jaegertracingc/span.h</text>
</a>
</g>
</g>
<!-- Node19&#45;&gt;Node21 -->
<g id="edge8" class="edge">
<title>Node19&#45;&gt;Node21</title>
<path fill="none" stroke="#191970" d="M232.9899,-292.9201C226.1108,-276.683 214.9665,-253.1721 201.5,-235 191.0544,-220.9044 176.0911,-207.3305 165.6573,-198.6281"/>
<polygon fill="#191970" stroke="#191970" points="229.8476,-294.4827 236.8761,-302.4106 236.3255,-291.83 229.8476,-294.4827"/>
</g>
<!-- Node26 -->
<g id="node8" class="node">
<title>Node26</title>
<g id="a_node8"><a xlink:href="sampler_8h.html" target="_top" xlink:title="Span sampler interface. ">
<polygon fill="#ffffff" stroke="#000000" points="274,-179.5 274,-198.5 397,-198.5 397,-179.5 274,-179.5"/>
<text text-anchor="middle" x="335.5" y="-186.5" font-family="Helvetica,sans-Serif" font-size="10.00" fill="#000000">jaegertracingc/sampler.h</text>
</a>
</g>
</g>
<!-- Node19&#45;&gt;Node26 -->
<g id="edge9" class="edge">
<title>Node19&#45;&gt;Node26</title>
<path fill="none" stroke="#191970" d="M247.3418,-292.6133C253.7475,-276.1846 264.4373,-252.5649 278.5,-235 290.3419,-220.209 307.7084,-207.0527 320.157,-198.6388"/>
<polygon fill="#191970" stroke="#191970" points="243.9687,-291.6421 243.7587,-302.2349 250.5286,-294.0851 243.9687,-291.6421"/>
</g>
<!-- Node28 -->
<g id="node10" class="node">
<title>Node28</title>
<g id="a_node10"><a xlink:href="token__bucket_8h.html" target="_top" xlink:title="Token bucket implementation. ">
<polygon fill="#ffffff" stroke="#000000" points="287.5,-235.5 287.5,-265.5 391.5,-265.5 391.5,-235.5 287.5,-235.5"/>
<text text-anchor="start" x="295.5" y="-253.5" font-family="Helvetica,sans-Serif" font-size="10.00" fill="#000000">jaegertracingc/token</text>
<text text-anchor="middle" x="339.5" y="-242.5" font-family="Helvetica,sans-Serif" font-size="10.00" fill="#000000">_bucket.h</text>
</a>
</g>
</g>
<!-- Node19&#45;&gt;Node28 -->
<g id="edge12" class="edge">
<title>Node19&#45;&gt;Node28</title>
<path fill="none" stroke="#191970" d="M264.8806,-296.8545C280.2299,-287.3193 299.9636,-275.0605 315.2819,-265.5446"/>
<polygon fill="#191970" stroke="#191970" points="262.6163,-294.1407 255.9688,-302.3906 266.3101,-300.0868 262.6163,-294.1407"/>
</g>
<!-- Node20&#45;&gt;Node21 -->
<g id="edge2" class="edge">
<title>Node20&#45;&gt;Node21</title>
<path fill="none" stroke="#191970" d="M149.37,-225.2849C150.4284,-215.9858 151.5664,-205.9883 152.3792,-198.8469"/>
<polygon fill="#191970" stroke="#191970" points="145.8838,-224.9661 148.2303,-235.2977 152.8389,-225.7578 145.8838,-224.9661"/>
</g>
<!-- Node22 -->
<g id="node4" class="node">
<title>Node22</title>
<g id="a_node4"><a xlink:href="baggage_8h.html" target="_top" xlink:title="Baggage restriction utilities. ">
<polygon fill="#ffffff" stroke="#000000" points="0,-118 0,-137 125,-137 125,-118 0,-118"/>
<text text-anchor="middle" x="62.5" y="-125" font-family="Helvetica,sans-Serif" font-size="10.00" fill="#000000">jaegertracingc/baggage.h</text>
</a>
</g>
</g>
<!-- Node21&#45;&gt;Node22 -->
<g id="edge3" class="edge">
<title>Node21&#45;&gt;Node22</title>
<path fill="none" stroke="#191970" d="M130.9883,-173.786C113.9725,-162.2864 91.1391,-146.855 76.6189,-137.0419"/>
<polygon fill="#191970" stroke="#191970" points="129.0361,-176.691 139.2813,-179.3906 132.9557,-170.8913 129.0361,-176.691"/>
</g>
<!-- Node23 -->
<g id="node5" class="node">
<title>Node23</title>
<g id="a_node5"><a xlink:href="propagation_8c.html" target="_top" xlink:title="Trace ID representation. ">
<polygon fill="#ffffff" stroke="#000000" points="128,-.5 128,-19.5 267,-19.5 267,-.5 128,-.5"/>
<text text-anchor="middle" x="197.5" y="-7.5" font-family="Helvetica,sans-Serif" font-size="10.00" fill="#000000">jaegertracingc/propagation.c</text>
</a>
</g>
</g>
<!-- Node21&#45;&gt;Node23 -->
<g id="edge4" class="edge">
<title>Node21&#45;&gt;Node23</title>
<path fill="none" stroke="#191970" d="M155.3096,-169.2884C158.083,-142.9931 164.3849,-95.1993 176.5,-56 180.5439,-42.9155 187.4574,-28.6962 192.2415,-19.5839"/>
<polygon fill="#191970" stroke="#191970" points="151.8057,-169.1559 154.3028,-179.4522 158.7716,-169.8459 151.8057,-169.1559"/>
</g>
<!-- Node24 -->
<g id="node6" class="node">
<title>Node24</title>
<g id="a_node6"><a xlink:href="reporter_8h.html" target="_top" xlink:title="Span reporter interface. ">
<polygon fill="#ffffff" stroke="#000000" points="181.5,-118 181.5,-137 303.5,-137 303.5,-118 181.5,-118"/>
<text text-anchor="middle" x="242.5" y="-125" font-family="Helvetica,sans-Serif" font-size="10.00" fill="#000000">jaegertracingc/reporter.h</text>
</a>
</g>
</g>
<!-- Node21&#45;&gt;Node24 -->
<g id="edge5" class="edge">
<title>Node21&#45;&gt;Node24</title>
<path fill="none" stroke="#191970" d="M175.9764,-173.4685C192.5678,-162.0037 214.6206,-146.765 228.6914,-137.0419"/>
<polygon fill="#191970" stroke="#191970" points="173.6435,-170.8263 167.4063,-179.3906 177.6229,-176.5851 173.6435,-170.8263"/>
</g>
<!-- Node25 -->
<g id="node7" class="node">
<title>Node25</title>
<g id="a_node7"><a xlink:href="tracer_8h.html" target="_top" xlink:title="Tracer implementation. ">
<polygon fill="#ffffff" stroke="#000000" points="186,-56.5 186,-75.5 299,-75.5 299,-56.5 186,-56.5"/>
<text text-anchor="middle" x="242.5" y="-63.5" font-family="Helvetica,sans-Serif" font-size="10.00" fill="#000000">jaegertracingc/tracer.h</text>
</a>
</g>
</g>
<!-- Node24&#45;&gt;Node25 -->
<g id="edge6" class="edge">
<title>Node24&#45;&gt;Node25</title>
<path fill="none" stroke="#191970" d="M242.5,-107.7462C242.5,-97.0519 242.5,-84.314 242.5,-75.7449"/>
<polygon fill="#191970" stroke="#191970" points="239.0001,-107.8906 242.5,-117.8906 246.0001,-107.8907 239.0001,-107.8906"/>
</g>
<!-- Node25&#45;&gt;Node23 -->
<g id="edge7" class="edge">
<title>Node25&#45;&gt;Node23</title>
<path fill="none" stroke="#191970" d="M228.2054,-48.2112C220.6004,-38.7472 211.5462,-27.4797 205.2486,-19.6427"/>
<polygon fill="#191970" stroke="#191970" points="225.6694,-50.6428 234.6616,-56.2455 231.1259,-46.2581 225.6694,-50.6428"/>
</g>
<!-- Node26&#45;&gt;Node25 -->
<g id="edge10" class="edge">
<title>Node26&#45;&gt;Node25</title>
<path fill="none" stroke="#191970" d="M333.3362,-168.7963C330.7056,-152.1814 324.9535,-128.7319 312.5,-112 300.2576,-95.5518 280.2658,-83.2677 264.7749,-75.5505"/>
<polygon fill="#191970" stroke="#191970" points="329.9111,-169.5911 334.7026,-179.0405 336.8496,-168.6655 329.9111,-169.5911"/>
</g>
<!-- Node27 -->
<g id="node9" class="node">
<title>Node27</title>
<g id="a_node9"><a xlink:href="mock__agent_8h.html" target="_top" xlink:title="Key value pair representation. ">
<polygon fill="#ffffff" stroke="#000000" points="359.5,-112.5 359.5,-142.5 463.5,-142.5 463.5,-112.5 359.5,-112.5"/>
<text text-anchor="start" x="367.5" y="-130.5" font-family="Helvetica,sans-Serif" font-size="10.00" fill="#000000">jaegertracingc/mock</text>
<text text-anchor="middle" x="411.5" y="-119.5" font-family="Helvetica,sans-Serif" font-size="10.00" fill="#000000">_agent.h</text>
</a>
</g>
</g>
<!-- Node26&#45;&gt;Node27 -->
<g id="edge11" class="edge">
<title>Node26&#45;&gt;Node27</title>
<path fill="none" stroke="#191970" d="M355.2248,-173.0385C366.8545,-163.6276 381.4817,-151.7911 392.9083,-142.5446"/>
<polygon fill="#191970" stroke="#191970" points="352.947,-170.3793 347.375,-179.3906 357.3504,-175.8209 352.947,-170.3793"/>
</g>
<!-- Node28&#45;&gt;Node26 -->
<g id="edge13" class="edge">
<title>Node28&#45;&gt;Node26</title>
<path fill="none" stroke="#191970" d="M337.86,-225.2849C337.2552,-215.9858 336.6049,-205.9883 336.1405,-198.8469"/>
<polygon fill="#191970" stroke="#191970" points="334.3695,-225.546 338.5112,-235.2977 341.3547,-225.0916 334.3695,-225.546"/>
</g>
</g>
</svg>
