<?xml version="1.0" encoding="UTF-8" standalone="no"?>
<!DOCTYPE svg PUBLIC "-//W3C//DTD SVG 1.1//EN"
 "http://www.w3.org/Graphics/SVG/1.1/DTD/svg11.dtd">
<!-- Generated by graphviz version 2.40.1 (20161225.0304)
 -->
<!-- Title: jaegertracingc/common.h Pages: 1 -->
<svg width="2042pt" height="464pt"
 viewBox="0.00 0.00 2041.67 464.00" xmlns="http://www.w3.org/2000/svg" xmlns:xlink="http://www.w3.org/1999/xlink">
<g id="graph0" class="graph" transform="scale(1 1) rotate(0) translate(4 460)">
<title>jaegertracingc/common.h</title>
<polygon fill="#ffffff" stroke="transparent" points="-4,4 -4,-460 2037.6725,-460 2037.6725,4 -4,4"/>
<!-- Node18 -->
<g id="node1" class="node">
<title>Node18</title>
<polygon fill="#bfbfbf" stroke="#000000" points="1027.6725,-436.5 1027.6725,-455.5 1153.6725,-455.5 1153.6725,-436.5 1027.6725,-436.5"/>
<text text-anchor="middle" x="1090.6725" y="-443.5" font-family="Helvetica,sans-Serif" font-size="10.00" fill="#000000">jaegertracingc/common.h</text>
</g>
<!-- Node19 -->
<g id="node2" class="node">
<title>Node19</title>
<g id="a_node2"><a xlink:href="clock_8h.html" target="_top" xlink:title="Timestamp and duration representations. ">
<polygon fill="#ffffff" stroke="#000000" points="383.6725,-375 383.6725,-394 495.6725,-394 495.6725,-375 383.6725,-375"/>
<text text-anchor="middle" x="439.6725" y="-382" font-family="Helvetica,sans-Serif" font-size="10.00" fill="#000000">jaegertracingc/clock.h</text>
</a>
</g>
</g>
<!-- Node18&#45;&gt;Node19 -->
<g id="edge1" class="edge">
<title>Node18&#45;&gt;Node19</title>
<path fill="none" stroke="#191970" d="M1017.5485,-443.4698C907.0469,-438.912 691.1395,-427.1404 509.6725,-400 499.455,-398.4719 488.5047,-396.3053 478.3707,-394.0749"/>
<polygon fill="#191970" stroke="#191970" points="1017.4518,-446.9686 1027.5852,-443.8758 1017.7348,-439.9744 1017.4518,-446.9686"/>
</g>
<!-- Node20 -->
<g id="node3" class="node">
<title>Node20</title>
<g id="a_node3"><a xlink:href="log__record_8h.html" target="_top" xlink:title="Log record representation for use in span. ">
<polygon fill="#ffffff" stroke="#000000" points="117.1725,-235.5 117.1725,-265.5 210.1725,-265.5 210.1725,-235.5 117.1725,-235.5"/>
<text text-anchor="start" x="125.1725" y="-253.5" font-family="Helvetica,sans-Serif" font-size="10.00" fill="#000000">jaegertracingc/log</text>
<text text-anchor="middle" x="163.6725" y="-242.5" font-family="Helvetica,sans-Serif" font-size="10.00" fill="#000000">_record.h</text>
</a>
</g>
</g>
<!-- Node18&#45;&gt;Node20 -->
<g id="edge29" class="edge">
<title>Node18&#45;&gt;Node20</title>
<path fill="none" stroke="#191970" d="M1017.4999,-443.7733C860.5661,-438.5943 496.0549,-424.2966 374.6725,-400 284.8153,-382.0136 239.8016,-402.1543 179.6725,-333 163.3026,-314.173 161.6629,-283.6877 162.3788,-265.5191"/>
<polygon fill="#191970" stroke="#191970" points="1017.4229,-447.2726 1027.5319,-444.1013 1017.6517,-440.2763 1017.4229,-447.2726"/>
</g>
<!-- Node21 -->
<g id="node4" class="node">
<title>Node21</title>
<g id="a_node4"><a xlink:href="span_8h.html" target="_top" xlink:title="Span, span context, and span ref representations and functions. ">
<polygon fill="#ffffff" stroke="#000000" points="478.6725,-174 478.6725,-193 588.6725,-193 588.6725,-174 478.6725,-174"/>
<text text-anchor="middle" x="533.6725" y="-181" font-family="Helvetica,sans-Serif" font-size="10.00" fill="#000000">jaegertracingc/span.h</text>
</a>
</g>
</g>
<!-- Node18&#45;&gt;Node21 -->
<g id="edge46" class="edge">
<title>Node18&#45;&gt;Node21</title>
<path fill="none" stroke="#191970" d="M1017.1735,-445.1521C801.401,-442.3081 179.5141,-431.4493 93.6725,-400 47.8471,-383.2112 28.2196,-376.7898 6.6725,-333 -17.3061,-284.2686 30.2547,-257.5302 79.6725,-235 149.5945,-203.1217 373.729,-189.9974 478.5975,-185.4997"/>
<polygon fill="#191970" stroke="#191970" points="1017.3992,-448.6552 1027.4438,-445.2854 1017.4901,-441.6558 1017.3992,-448.6552"/>
</g>
<!-- Node23 -->
<g id="node6" class="node">
<title>Node23</title>
<g id="a_node6"><a xlink:href="tracer_8h.html" target="_top" xlink:title="Tracer implementation. ">
<polygon fill="#ffffff" stroke="#000000" points="798.1725,-56.5 798.1725,-75.5 911.1725,-75.5 911.1725,-56.5 798.1725,-56.5"/>
<text text-anchor="middle" x="854.6725" y="-63.5" font-family="Helvetica,sans-Serif" font-size="10.00" fill="#000000">jaegertracingc/tracer.h</text>
</a>
</g>
</g>
<!-- Node18&#45;&gt;Node23 -->
<g id="edge47" class="edge">
<title>Node18&#45;&gt;Node23</title>
<path fill="none" stroke="#191970" d="M1164.1537,-444.6105C1280.5331,-441.4748 1501.3758,-431.4526 1572.6725,-400 1650.297,-365.7559 1719.6287,-302.8358 1668.6725,-235 1601.1156,-145.0644 1288.4016,-131.7839 1177.6725,-112 1084.8334,-95.4125 976.1261,-80.9433 911.4633,-72.8537"/>
<polygon fill="#191970" stroke="#191970" points="1163.8147,-441.118 1153.9088,-444.876 1163.9962,-448.1157 1163.8147,-441.118"/>
</g>
<!-- Node24 -->
<g id="node7" class="node">
<title>Node24</title>
<g id="a_node7"><a xlink:href="reporter_8h.html" target="_top" xlink:title="Span reporter interface. ">
<polygon fill="#ffffff" stroke="#000000" points="1046.6725,-112.5 1046.6725,-131.5 1168.6725,-131.5 1168.6725,-112.5 1046.6725,-112.5"/>
<text text-anchor="middle" x="1107.6725" y="-119.5" font-family="Helvetica,sans-Serif" font-size="10.00" fill="#000000">jaegertracingc/reporter.h</text>
</a>
</g>
</g>
<!-- Node18&#45;&gt;Node24 -->
<g id="edge48" class="edge">
<title>Node18&#45;&gt;Node24</title>
<path fill="none" stroke="#191970" d="M1159.248,-434.6686C1254.3685,-417.3662 1418.5448,-381.222 1452.6725,-333 1460.6317,-321.7538 1459.8146,-313.7821 1452.6725,-302 1388.3221,-195.8435 1238.6062,-149.3439 1159.2242,-131.5526"/>
<polygon fill="#191970" stroke="#191970" points="1158.3589,-431.2722 1149.1349,-436.4846 1159.5961,-438.162 1158.3589,-431.2722"/>
</g>
<!-- Node25 -->
<g id="node8" class="node">
<title>Node25</title>
<g id="a_node8"><a xlink:href="sampler_8h.html" target="_top" xlink:title="Span sampler interface. ">
<polygon fill="#ffffff" stroke="#000000" points="562.1725,-241 562.1725,-260 685.1725,-260 685.1725,-241 562.1725,-241"/>
<text text-anchor="middle" x="623.6725" y="-248" font-family="Helvetica,sans-Serif" font-size="10.00" fill="#000000">jaegertracingc/sampler.h</text>
</a>
</g>
</g>
<!-- Node18&#45;&gt;Node25 -->
<g id="edge49" class="edge">
<title>Node18&#45;&gt;Node25</title>
<path fill="none" stroke="#191970" d="M1017.3108,-444.1589C891.3562,-440.2336 644.9047,-428.9131 618.6725,-400 582.3769,-359.9951 608.3624,-286.3048 619.383,-260.0774"/>
<polygon fill="#191970" stroke="#191970" points="1017.5386,-447.6673 1027.6403,-444.4726 1017.7512,-440.6706 1017.5386,-447.6673"/>
</g>
<!-- Node26 -->
<g id="node9" class="node">
<title>Node26</title>
<g id="a_node9"><a xlink:href="mock__agent_8h.html" target="_top" xlink:title="Key value pair representation. ">
<polygon fill="#ffffff" stroke="#000000" points="779.6725,-168.5 779.6725,-198.5 883.6725,-198.5 883.6725,-168.5 779.6725,-168.5"/>
<text text-anchor="start" x="787.6725" y="-186.5" font-family="Helvetica,sans-Serif" font-size="10.00" fill="#000000">jaegertracingc/mock</text>
<text text-anchor="middle" x="831.6725" y="-175.5" font-family="Helvetica,sans-Serif" font-size="10.00" fill="#000000">_agent.h</text>
</a>
</g>
</g>
<!-- Node18&#45;&gt;Node26 -->
<g id="edge41" class="edge">
<title>Node18&#45;&gt;Node26</title>
<path fill="none" stroke="#191970" d="M1107.8219,-428.6541C1132.8887,-401.1016 1174.1321,-345.9564 1150.6725,-302 1125.4834,-254.8032 1099.723,-256.3559 1050.6725,-235 996.2398,-211.3007 929.2399,-197.5886 883.786,-190.3588"/>
<polygon fill="#191970" stroke="#191970" points="1104.9542,-426.5944 1100.6514,-436.2762 1110.0527,-431.3908 1104.9542,-426.5944"/>
</g>
<!-- Node27 -->
<g id="node10" class="node">
<title>Node27</title>
<g id="a_node10"><a xlink:href="token__bucket_8h.html" target="_top" xlink:title="Token bucket implementation. ">
<polygon fill="#ffffff" stroke="#000000" points="467.6725,-302.5 467.6725,-332.5 571.6725,-332.5 571.6725,-302.5 467.6725,-302.5"/>
<text text-anchor="start" x="475.6725" y="-320.5" font-family="Helvetica,sans-Serif" font-size="10.00" fill="#000000">jaegertracingc/token</text>
<text text-anchor="middle" x="519.6725" y="-309.5" font-family="Helvetica,sans-Serif" font-size="10.00" fill="#000000">_bucket.h</text>
</a>
</g>
</g>
<!-- Node18&#45;&gt;Node27 -->
<g id="edge69" class="edge">
<title>Node18&#45;&gt;Node27</title>
<path fill="none" stroke="#191970" d="M1016.8512,-442.4683C885.792,-435.73 622.7097,-419.9195 585.6725,-400 557.5643,-384.8827 537.1753,-352.2026 526.9975,-332.8178"/>
<polygon fill="#191970" stroke="#191970" points="1017.0361,-445.9822 1027.2013,-442.9957 1017.3924,-438.9913 1017.0361,-445.9822"/>
</g>
<!-- Node28 -->
<g id="node11" class="node">
<title>Node28</title>
<g id="a_node11"><a xlink:href="constants_8h_source.html" target="_top" xlink:title="jaegertracingc/constants.h">
<polygon fill="#ffffff" stroke="#000000" points="1198.1725,-308 1198.1725,-327 1329.1725,-327 1329.1725,-308 1198.1725,-308"/>
<text text-anchor="middle" x="1263.6725" y="-315" font-family="Helvetica,sans-Serif" font-size="10.00" fill="#000000">jaegertracingc/constants.h</text>
</a>
</g>
</g>
<!-- Node18&#45;&gt;Node28 -->
<g id="edge15" class="edge">
<title>Node18&#45;&gt;Node28</title>
<path fill="none" stroke="#191970" d="M1125.0639,-432.3717C1143.329,-424.3202 1165.6604,-413.1345 1183.6725,-400 1213.9788,-377.9005 1242.9172,-343.7668 1256.1525,-327.1926"/>
<polygon fill="#191970" stroke="#191970" points="1123.4716,-429.2462 1115.6587,-436.4022 1126.2289,-435.6803 1123.4716,-429.2462"/>
</g>
<!-- Node29 -->
<g id="node12" class="node">
<title>Node29</title>
<g id="a_node12"><a xlink:href="options_8h.html" target="_top" xlink:title="Configuration options. ">
<polygon fill="#ffffff" stroke="#000000" points="1433.6725,-112.5 1433.6725,-131.5 1553.6725,-131.5 1553.6725,-112.5 1433.6725,-112.5"/>
<text text-anchor="middle" x="1493.6725" y="-119.5" font-family="Helvetica,sans-Serif" font-size="10.00" fill="#000000">jaegertracingc/options.h</text>
</a>
</g>
</g>
<!-- Node18&#45;&gt;Node29 -->
<g id="edge45" class="edge">
<title>Node18&#45;&gt;Node29</title>
<path fill="none" stroke="#191970" d="M1163.9054,-443.1208C1322.2228,-436.541 1683.6219,-419.4607 1701.6725,-400 1751.5426,-346.2343 1739.1597,-298.0277 1701.6725,-235 1666.1693,-175.308 1586.8937,-145.182 1537.1115,-131.5998"/>
<polygon fill="#191970" stroke="#191970" points="1163.6239,-439.6293 1153.7768,-443.5389 1163.9127,-446.6234 1163.6239,-439.6293"/>
</g>
<!-- Node30 -->
<g id="node13" class="node">
<title>Node30</title>
<g id="a_node13"><a xlink:href="hashtable_8h.html" target="_top" xlink:title="Hashtable data structure. ">
<polygon fill="#ffffff" stroke="#000000" points="1754.1725,-241 1754.1725,-260 1885.1725,-260 1885.1725,-241 1754.1725,-241"/>
<text text-anchor="middle" x="1819.6725" y="-248" font-family="Helvetica,sans-Serif" font-size="10.00" fill="#000000">jaegertracingc/hashtable.h</text>
</a>
</g>
</g>
<!-- Node18&#45;&gt;Node30 -->
<g id="edge20" class="edge">
<title>Node18&#45;&gt;Node30</title>
<path fill="none" stroke="#191970" d="M1164.073,-444.7567C1323.7819,-441.4879 1692.3414,-430.6798 1739.6725,-400 1791.2994,-366.5357 1811.9508,-288.0677 1817.7935,-260.3832"/>
<polygon fill="#191970" stroke="#191970" points="1163.7888,-441.2616 1153.8609,-444.9613 1163.929,-448.2602 1163.7888,-441.2616"/>
</g>
<!-- Node31 -->
<g id="node14" class="node">
<title>Node31</title>
<g id="a_node14"><a xlink:href="internal_2random_8h_source.html" target="_top" xlink:title="jaegertracingc/internal\l/random.h">
<polygon fill="#ffffff" stroke="#000000" points="929.6725,-235.5 929.6725,-265.5 1041.6725,-265.5 1041.6725,-235.5 929.6725,-235.5"/>
<text text-anchor="start" x="937.6725" y="-253.5" font-family="Helvetica,sans-Serif" font-size="10.00" fill="#000000">jaegertracingc/internal</text>
<text text-anchor="middle" x="985.6725" y="-242.5" font-family="Helvetica,sans-Serif" font-size="10.00" fill="#000000">/random.h</text>
</a>
</g>
</g>
<!-- Node18&#45;&gt;Node31 -->
<g id="edge21" class="edge">
<title>Node18&#45;&gt;Node31</title>
<path fill="none" stroke="#191970" d="M1080.572,-427.1939C1059.822,-388.5594 1012.7571,-300.9289 993.8049,-265.6418"/>
<polygon fill="#191970" stroke="#191970" points="1077.6505,-429.1514 1085.4655,-436.3051 1083.8173,-425.8393 1077.6505,-429.1514"/>
</g>
<!-- Node32 -->
<g id="node15" class="node">
<title>Node32</title>
<g id="a_node15"><a xlink:href="siphash_8h.html" target="_top" xlink:title="Siphash implementation. ">
<polygon fill="#ffffff" stroke="#000000" points="1911.6725,-375 1911.6725,-394 2033.6725,-394 2033.6725,-375 1911.6725,-375"/>
<text text-anchor="middle" x="1972.6725" y="-382" font-family="Helvetica,sans-Serif" font-size="10.00" fill="#000000">jaegertracingc/siphash.h</text>
</a>
</g>
</g>
<!-- Node18&#45;&gt;Node32 -->
<g id="edge22" class="edge">
<title>Node18&#45;&gt;Node32</title>
<path fill="none" stroke="#191970" d="M1164.0267,-443.3627C1335.9706,-436.935 1761.1474,-419.5474 1902.6725,-400 1913.1531,-398.5524 1924.391,-396.3573 1934.728,-394.0707"/>
<polygon fill="#191970" stroke="#191970" points="1163.6736,-439.8734 1153.8107,-443.7429 1163.9339,-446.8685 1163.6736,-439.8734"/>
</g>
<!-- Node34 -->
<g id="node17" class="node">
<title>Node34</title>
<g id="a_node17"><a xlink:href="key__value_8h.html" target="_top" xlink:title="Key value pair representation. ">
<polygon fill="#ffffff" stroke="#000000" points="1347.6725,-302.5 1347.6725,-332.5 1443.6725,-332.5 1443.6725,-302.5 1347.6725,-302.5"/>
<text text-anchor="start" x="1355.6725" y="-320.5" font-family="Helvetica,sans-Serif" font-size="10.00" fill="#000000">jaegertracingc/key</text>
<text text-anchor="middle" x="1395.6725" y="-309.5" font-family="Helvetica,sans-Serif" font-size="10.00" fill="#000000">_value.h</text>
</a>
</g>
</g>
<!-- Node18&#45;&gt;Node34 -->
<g id="edge24" class="edge">
<title>Node18&#45;&gt;Node34</title>
<path fill="none" stroke="#191970" d="M1127.3992,-433.0019C1151.9807,-424.122 1184.9666,-411.858 1213.6725,-400 1267.059,-377.9468 1327.9888,-349.6819 1364.0668,-332.6139"/>
<polygon fill="#191970" stroke="#191970" points="1125.9775,-429.7936 1117.7506,-436.4696 1128.3451,-436.3811 1125.9775,-429.7936"/>
</g>
<!-- Node35 -->
<g id="node18" class="node">
<title>Node35</title>
<g id="a_node18"><a xlink:href="list_8h_source.html" target="_top" xlink:title="jaegertracingc/list.h">
<polygon fill="#ffffff" stroke="#000000" points="1792.1725,-375 1792.1725,-394 1893.1725,-394 1893.1725,-375 1792.1725,-375"/>
<text text-anchor="middle" x="1842.6725" y="-382" font-family="Helvetica,sans-Serif" font-size="10.00" fill="#000000">jaegertracingc/list.h</text>
</a>
</g>
</g>
<!-- Node18&#45;&gt;Node35 -->
<g id="edge27" class="edge">
<title>Node18&#45;&gt;Node35</title>
<path fill="none" stroke="#191970" d="M1164.3557,-445.0981C1290.604,-442.6551 1556.0958,-433.5954 1777.6725,-400 1787.422,-398.5218 1797.8632,-396.3164 1807.4618,-394.0297"/>
<polygon fill="#191970" stroke="#191970" points="1163.976,-441.6044 1154.0425,-445.2889 1164.1055,-448.6032 1163.976,-441.6044"/>
</g>
<!-- Node36 -->
<g id="node19" class="node">
<title>Node36</title>
<g id="a_node19"><a xlink:href="threading_8h.html" target="_top" xlink:title="Threading utilities. ">
<polygon fill="#ffffff" stroke="#000000" points="817.6725,-308 817.6725,-327 945.6725,-327 945.6725,-308 817.6725,-308"/>
<text text-anchor="middle" x="881.6725" y="-315" font-family="Helvetica,sans-Serif" font-size="10.00" fill="#000000">jaegertracingc/threading.h</text>
</a>
</g>
</g>
<!-- Node18&#45;&gt;Node36 -->
<g id="edge30" class="edge">
<title>Node18&#45;&gt;Node36</title>
<path fill="none" stroke="#191970" d="M1059.63,-432.1591C1041.2355,-423.5882 1017.6851,-411.9628 997.6725,-400 958.0062,-376.289 914.3941,-343.1975 893.766,-327.0817"/>
<polygon fill="#191970" stroke="#191970" points="1058.1857,-435.3473 1068.7331,-436.3484 1061.1121,-428.9883 1058.1857,-435.3473"/>
</g>
<!-- Node37 -->
<g id="node20" class="node">
<title>Node37</title>
<g id="a_node20"><a xlink:href="metrics_8h.html" target="_top" xlink:title="Metrics interfaces to track various numbers while tracing. ">
<polygon fill="#ffffff" stroke="#000000" points="1500.1725,-308 1500.1725,-327 1621.1725,-327 1621.1725,-308 1500.1725,-308"/>
<text text-anchor="middle" x="1560.6725" y="-315" font-family="Helvetica,sans-Serif" font-size="10.00" fill="#000000">jaegertracingc/metrics.h</text>
</a>
</g>
</g>
<!-- Node18&#45;&gt;Node37 -->
<g id="edge36" class="edge">
<title>Node18&#45;&gt;Node37</title>
<path fill="none" stroke="#191970" d="M1163.994,-443.5709C1262.4087,-439.278 1431.1772,-427.988 1485.6725,-400 1518.7324,-383.0209 1544.39,-345.1042 1555.1525,-327.207"/>
<polygon fill="#191970" stroke="#191970" points="1163.6613,-440.0817 1153.818,-444.0008 1163.9569,-447.0755 1163.6613,-440.0817"/>
</g>
<!-- Node38 -->
<g id="node21" class="node">
<title>Node38</title>
<g id="a_node21"><a xlink:href="baggage_8h.html" target="_top" xlink:title="Trace ID representation. ">
<polygon fill="#ffffff" stroke="#000000" points="1534.1725,-241 1534.1725,-260 1659.1725,-260 1659.1725,-241 1534.1725,-241"/>
<text text-anchor="middle" x="1596.6725" y="-248" font-family="Helvetica,sans-Serif" font-size="10.00" fill="#000000">jaegertracingc/baggage.h</text>
</a>
</g>
</g>
<!-- Node18&#45;&gt;Node38 -->
<g id="edge70" class="edge">
<title>Node18&#45;&gt;Node38</title>
<path fill="none" stroke="#191970" d="M1163.9625,-441.8739C1268.2549,-435.3615 1453.9132,-421.2181 1517.6725,-400 1573.0719,-381.5639 1601.773,-383.7327 1630.6725,-333 1644.9347,-307.9629 1620.5238,-275.7567 1606.1077,-260.0159"/>
<polygon fill="#191970" stroke="#191970" points="1163.5877,-438.3903 1153.822,-442.4991 1164.0185,-445.377 1163.5877,-438.3903"/>
</g>
<!-- Node39 -->
<g id="node22" class="node">
<title>Node39</title>
<g id="a_node22"><a xlink:href="net_8h.html" target="_top" xlink:title="Network utilities. ">
<polygon fill="#ffffff" stroke="#000000" points="1039.6725,-308 1039.6725,-327 1141.6725,-327 1141.6725,-308 1039.6725,-308"/>
<text text-anchor="middle" x="1090.6725" y="-315" font-family="Helvetica,sans-Serif" font-size="10.00" fill="#000000">jaegertracingc/net.h</text>
</a>
</g>
</g>
<!-- Node18&#45;&gt;Node39 -->
<g id="edge42" class="edge">
<title>Node18&#45;&gt;Node39</title>
<path fill="none" stroke="#191970" d="M1090.6725,-426.1733C1090.6725,-398.2236 1090.6725,-348.3037 1090.6725,-327.2705"/>
<polygon fill="#191970" stroke="#191970" points="1087.1726,-426.3416 1090.6725,-436.3416 1094.1726,-426.3416 1087.1726,-426.3416"/>
</g>
<!-- Node40 -->
<g id="node23" class="node">
<title>Node40</title>
<g id="a_node23"><a xlink:href="vector_8h.html" target="_top" xlink:title="C generic vector implementation. ">
<polygon fill="#ffffff" stroke="#000000" points="765.6725,-375 765.6725,-394 881.6725,-394 881.6725,-375 765.6725,-375"/>
<text text-anchor="middle" x="823.6725" y="-382" font-family="Helvetica,sans-Serif" font-size="10.00" fill="#000000">jaegertracingc/vector.h</text>
</a>
</g>
</g>
<!-- Node18&#45;&gt;Node40 -->
<g id="edge50" class="edge">
<title>Node18&#45;&gt;Node40</title>
<path fill="none" stroke="#191970" d="M1039.4752,-434.2074C988.8064,-422.5365 912.2,-404.8912 865.1955,-394.0643"/>
<polygon fill="#191970" stroke="#191970" points="1038.7162,-437.6241 1049.2467,-436.4581 1040.2875,-430.8027 1038.7162,-437.6241"/>
</g>
<!-- Node41 -->
<g id="node24" class="node">
<title>Node41</title>
<g id="a_node24"><a xlink:href="tag_8h.html" target="_top" xlink:title="Tag representation and functions. ">
<polygon fill="#ffffff" stroke="#000000" points="15.6725,-308 15.6725,-327 117.6725,-327 117.6725,-308 15.6725,-308"/>
<text text-anchor="middle" x="66.6725" y="-315" font-family="Helvetica,sans-Serif" font-size="10.00" fill="#000000">jaegertracingc/tag.h</text>
</a>
</g>
</g>
<!-- Node18&#45;&gt;Node41 -->
<g id="edge63" class="edge">
<title>Node18&#45;&gt;Node41</title>
<path fill="none" stroke="#191970" d="M1017.4199,-444.1442C799.9713,-438.417 170.8501,-420.1831 131.6725,-400 100.3877,-383.883 79.3302,-345.1765 70.8606,-327.1017"/>
<polygon fill="#191970" stroke="#191970" points="1017.3711,-447.6441 1027.4594,-444.4075 1017.5546,-440.6465 1017.3711,-447.6441"/>
</g>
<!-- Node42 -->
<g id="node25" class="node">
<title>Node42</title>
<g id="a_node25"><a xlink:href="trace__id_8h.html" target="_top" xlink:title="Trace ID representation. ">
<polygon fill="#ffffff" stroke="#000000" points="288.1725,-308 288.1725,-327 411.1725,-327 411.1725,-308 288.1725,-308"/>
<text text-anchor="middle" x="349.6725" y="-315" font-family="Helvetica,sans-Serif" font-size="10.00" fill="#000000">jaegertracingc/trace_id.h</text>
</a>
</g>
</g>
<!-- Node18&#45;&gt;Node42 -->
<g id="edge64" class="edge">
<title>Node18&#45;&gt;Node42</title>
<path fill="none" stroke="#191970" d="M1017.5287,-444.6192C889.8555,-441.4135 631.8968,-431.1816 547.6725,-400 525.5783,-391.8203 525.6486,-379.7267 504.6725,-369 467.3075,-349.8924 421.3404,-335.6652 389.2058,-327.0617"/>
<polygon fill="#191970" stroke="#191970" points="1017.5264,-448.1201 1027.6086,-444.8644 1017.6967,-441.1221 1017.5264,-448.1201"/>
</g>
<!-- Node43 -->
<g id="node26" class="node">
<title>Node43</title>
<g id="a_node26"><a xlink:href="sampling__strategy_8h.html" target="_top" xlink:title="Sampling strategy type definitions. ">
<polygon fill="#ffffff" stroke="#000000" points="628.1725,-369.5 628.1725,-399.5 747.1725,-399.5 747.1725,-369.5 628.1725,-369.5"/>
<text text-anchor="start" x="636.1725" y="-387.5" font-family="Helvetica,sans-Serif" font-size="10.00" fill="#000000">jaegertracingc/sampling</text>
<text text-anchor="middle" x="687.6725" y="-376.5" font-family="Helvetica,sans-Serif" font-size="10.00" fill="#000000">_strategy.h</text>
</a>
</g>
</g>
<!-- Node18&#45;&gt;Node43 -->
<g id="edge67" class="edge">
<title>Node18&#45;&gt;Node43</title>
<path fill="none" stroke="#191970" d="M1017.4725,-437.7155C949.6156,-429.6106 845.9747,-416.1503 756.6725,-400 753.6521,-399.4538 750.5635,-398.8664 747.449,-398.2511"/>
<polygon fill="#191970" stroke="#191970" points="1017.2903,-441.2183 1027.633,-438.921 1018.1151,-434.2671 1017.2903,-441.2183"/>
</g>
<!-- Node19&#45;&gt;Node20 -->
<g id="edge2" class="edge">
<title>Node19&#45;&gt;Node20</title>
<path fill="none" stroke="#191970" d="M373.6354,-376.0891C314.5523,-367.4627 233.4112,-352.5521 207.6725,-333 185.3104,-316.0129 173.0781,-284.3088 167.4969,-265.5363"/>
<polygon fill="#191970" stroke="#191970" points="373.258,-379.5707 383.653,-377.5228 374.2498,-372.6413 373.258,-379.5707"/>
</g>
<!-- Node19&#45;&gt;Node21 -->
<g id="edge9" class="edge">
<title>Node19&#45;&gt;Node21</title>
<path fill="none" stroke="#191970" d="M373.422,-375.5516C318.1507,-365.0129 252.3388,-343.4189 278.6725,-302 322.4132,-233.2023 417.6018,-203.7362 478.5009,-191.5632"/>
<polygon fill="#191970" stroke="#191970" points="373.1315,-379.0558 383.5951,-377.393 374.3784,-372.1678 373.1315,-379.0558"/>
</g>
<!-- Node19&#45;&gt;Node25 -->
<g id="edge10" class="edge">
<title>Node19&#45;&gt;Node25</title>
<path fill="none" stroke="#191970" d="M438.9599,-364.7442C439.3803,-346.2401 442.9544,-318.9635 458.6725,-302 474.5813,-284.8306 532.372,-269.4625 575.0935,-260.076"/>
<polygon fill="#191970" stroke="#191970" points="435.4612,-364.984 439.0253,-374.9614 442.4611,-364.9392 435.4612,-364.984"/>
</g>
<!-- Node19&#45;&gt;Node27 -->
<g id="edge13" class="edge">
<title>Node19&#45;&gt;Node27</title>
<path fill="none" stroke="#191970" d="M459.0143,-368.3012C472.0179,-357.4107 489.0361,-343.1579 501.7361,-332.5218"/>
<polygon fill="#191970" stroke="#191970" points="456.5538,-365.7965 451.1345,-374.9005 461.0483,-371.1631 456.5538,-365.7965"/>
</g>
<!-- Node20&#45;&gt;Node21 -->
<g id="edge3" class="edge">
<title>Node20&#45;&gt;Node21</title>
<path fill="none" stroke="#191970" d="M220.2135,-235.9588C221.7137,-235.6291 223.2021,-235.3088 224.6725,-235 312.8927,-216.4739 416.4092,-200.3486 478.4321,-191.2814"/>
<polygon fill="#191970" stroke="#191970" points="219.1728,-232.6064 210.2056,-238.2491 220.7344,-239.43 219.1728,-232.6064"/>
</g>
<!-- Node22 -->
<g id="node5" class="node">
<title>Node22</title>
<g id="a_node5"><a xlink:href="propagation_8c.html" target="_top" xlink:title="Trace ID representation. ">
<polygon fill="#ffffff" stroke="#000000" points="992.1725,-.5 992.1725,-19.5 1131.1725,-19.5 1131.1725,-.5 992.1725,-.5"/>
<text text-anchor="middle" x="1061.6725" y="-7.5" font-family="Helvetica,sans-Serif" font-size="10.00" fill="#000000">jaegertracingc/propagation.c</text>
</a>
</g>
</g>
<!-- Node21&#45;&gt;Node22 -->
<g id="edge4" class="edge">
<title>Node21&#45;&gt;Node22</title>
<path fill="none" stroke="#191970" d="M551.6272,-166.8352C569.5118,-150.9575 598.3208,-127.2731 626.6725,-112 744.9859,-48.2643 902.3908,-24.0797 991.7885,-15.1043"/>
<polygon fill="#191970" stroke="#191970" points="548.8474,-164.6299 543.7749,-173.9315 553.5408,-169.8233 548.8474,-164.6299"/>
</g>
<!-- Node21&#45;&gt;Node23 -->
<g id="edge5" class="edge">
<title>Node21&#45;&gt;Node23</title>
<path fill="none" stroke="#191970" d="M558.3959,-168.7239C585.7835,-152.8728 631.6397,-127.8466 673.6725,-112 716.7526,-95.7585 767.7305,-83.3817 804.5897,-75.5794"/>
<polygon fill="#191970" stroke="#191970" points="556.3802,-165.8481 549.5153,-173.9179 559.9143,-171.8905 556.3802,-165.8481"/>
</g>
<!-- Node21&#45;&gt;Node24 -->
<g id="edge7" class="edge">
<title>Node21&#45;&gt;Node24</title>
<path fill="none" stroke="#191970" d="M598.8334,-176.5185C710.5894,-164.5446 937.2868,-140.2556 1046.3486,-128.5704"/>
<polygon fill="#191970" stroke="#191970" points="598.2802,-173.0576 588.71,-177.6031 599.026,-180.0178 598.2802,-173.0576"/>
</g>
<!-- Node23&#45;&gt;Node22 -->
<g id="edge6" class="edge">
<title>Node23&#45;&gt;Node22</title>
<path fill="none" stroke="#191970" d="M900.065,-53.7199C938.1275,-43.4228 991.7005,-28.9296 1026.5523,-19.5011"/>
<polygon fill="#191970" stroke="#191970" points="898.996,-50.3832 890.2571,-56.3733 900.8241,-57.1403 898.996,-50.3832"/>
</g>
<!-- Node24&#45;&gt;Node23 -->
<g id="edge8" class="edge">
<title>Node24&#45;&gt;Node23</title>
<path fill="none" stroke="#191970" d="M1054.5537,-110.2425C1007.9462,-99.9262 941.0245,-85.1135 897.6991,-75.5237"/>
<polygon fill="#191970" stroke="#191970" points="1053.9476,-113.693 1064.4677,-112.4369 1055.4604,-106.8584 1053.9476,-113.693"/>
</g>
<!-- Node25&#45;&gt;Node23 -->
<g id="edge12" class="edge">
<title>Node25&#45;&gt;Node23</title>
<path fill="none" stroke="#191970" d="M634.5991,-231.8749C652.6284,-202.6074 691.2697,-145.7167 737.6725,-112 761.5095,-94.6798 792.7427,-82.8348 816.9424,-75.507"/>
<polygon fill="#191970" stroke="#191970" points="631.4631,-230.2976 629.2936,-240.668 637.4566,-233.914 631.4631,-230.2976"/>
</g>
<!-- Node25&#45;&gt;Node26 -->
<g id="edge11" class="edge">
<title>Node25&#45;&gt;Node26</title>
<path fill="none" stroke="#191970" d="M663.2565,-237.7494C697.9437,-226.5761 748.4015,-210.3229 785.0378,-198.5218"/>
<polygon fill="#191970" stroke="#191970" points="661.9191,-234.503 653.4738,-240.9005 664.0653,-241.1659 661.9191,-234.503"/>
</g>
<!-- Node27&#45;&gt;Node25 -->
<g id="edge14" class="edge">
<title>Node27&#45;&gt;Node25</title>
<path fill="none" stroke="#191970" d="M551.4244,-297.0445C570.4926,-284.7601 593.8656,-269.7025 608.7649,-260.1039"/>
<polygon fill="#191970" stroke="#191970" points="549.5231,-294.1058 543.0121,-302.4639 553.3142,-299.9904 549.5231,-294.1058"/>
</g>
<!-- Node28&#45;&gt;Node25 -->
<g id="edge19" class="edge">
<title>Node28&#45;&gt;Node25</title>
<path fill="none" stroke="#191970" d="M1188.0775,-306.7166C1175.5923,-305.0547 1162.7767,-303.421 1150.6725,-302 982.6771,-282.2773 783.9261,-264.301 685.4173,-255.7494"/>
<polygon fill="#191970" stroke="#191970" points="1187.6222,-310.1868 1197.9997,-308.052 1188.5559,-303.2494 1187.6222,-310.1868"/>
</g>
<!-- Node28&#45;&gt;Node29 -->
<g id="edge16" class="edge">
<title>Node28&#45;&gt;Node29</title>
<path fill="none" stroke="#191970" d="M1282.8676,-301.1841C1329.158,-261.8373 1445.8132,-162.6804 1482.4691,-131.5229"/>
<polygon fill="#191970" stroke="#191970" points="1280.4309,-298.6618 1275.0782,-307.8051 1284.9644,-303.9954 1280.4309,-298.6618"/>
</g>
<!-- Node29&#45;&gt;Node22 -->
<g id="edge17" class="edge">
<title>Node29&#45;&gt;Node22</title>
<path fill="none" stroke="#191970" d="M1447.033,-109.9083C1360.5135,-87.4773 1176.8365,-39.8573 1098.4113,-19.5249"/>
<polygon fill="#191970" stroke="#191970" points="1446.282,-113.3292 1456.8404,-112.4509 1448.0388,-106.5533 1446.282,-113.3292"/>
</g>
<!-- Node29&#45;&gt;Node23 -->
<g id="edge18" class="edge">
<title>Node29&#45;&gt;Node23</title>
<path fill="none" stroke="#191970" d="M1423.5114,-112.424C1422.2218,-112.2788 1420.9412,-112.1373 1419.6725,-112 1234.0139,-91.912 1013.1723,-76.3308 911.3033,-69.6116"/>
<polygon fill="#191970" stroke="#191970" points="1423.1895,-115.9101 1433.5296,-113.6009 1424.0063,-108.958 1423.1895,-115.9101"/>
</g>
<!-- Node33 -->
<g id="node16" class="node">
<title>Node33</title>
<g id="a_node16"><a xlink:href="siphash_8c.html" target="_top" xlink:title="Siphash implementation. ">
<polygon fill="#ffffff" stroke="#000000" points="1911.6725,-308 1911.6725,-327 2033.6725,-327 2033.6725,-308 1911.6725,-308"/>
<text text-anchor="middle" x="1972.6725" y="-315" font-family="Helvetica,sans-Serif" font-size="10.00" fill="#000000">jaegertracingc/siphash.c</text>
</a>
</g>
</g>
<!-- Node32&#45;&gt;Node33 -->
<g id="edge23" class="edge">
<title>Node32&#45;&gt;Node33</title>
<path fill="none" stroke="#191970" d="M1972.6725,-364.6079C1972.6725,-352.214 1972.6725,-336.8263 1972.6725,-327.0817"/>
<polygon fill="#191970" stroke="#191970" points="1969.1726,-364.9005 1972.6725,-374.9005 1976.1726,-364.9006 1969.1726,-364.9005"/>
</g>
<!-- Node34&#45;&gt;Node21 -->
<g id="edge26" class="edge">
<title>Node34&#45;&gt;Node21</title>
<path fill="none" stroke="#191970" d="M1337.86,-301.018C1269.7429,-282.2196 1152.8851,-251.9074 1050.6725,-235 883.5902,-207.3623 683.5032,-192.563 588.6918,-186.6364"/>
<polygon fill="#191970" stroke="#191970" points="1336.9772,-304.4052 1347.5488,-303.705 1338.8479,-297.6598 1336.9772,-304.4052"/>
</g>
<!-- Node34&#45;&gt;Node30 -->
<g id="edge25" class="edge">
<title>Node34&#45;&gt;Node30</title>
<path fill="none" stroke="#191970" d="M1454.2234,-308.005C1466.5885,-306.0114 1479.5589,-303.9289 1491.6725,-302 1584.7447,-287.1797 1692.7235,-270.2831 1758.6037,-260.0075"/>
<polygon fill="#191970" stroke="#191970" points="1453.3256,-304.6045 1444.0112,-309.6534 1454.4411,-311.5151 1453.3256,-304.6045"/>
</g>
<!-- Node35&#45;&gt;Node30 -->
<g id="edge28" class="edge">
<title>Node35&#45;&gt;Node30</title>
<path fill="none" stroke="#191970" d="M1839.2609,-364.624C1834.2375,-335.3572 1825.0434,-281.7914 1821.3116,-260.0496"/>
<polygon fill="#191970" stroke="#191970" points="1835.8771,-365.5993 1841.0184,-374.8631 1842.7762,-364.4151 1835.8771,-365.5993"/>
</g>
<!-- Node36&#45;&gt;Node21 -->
<g id="edge33" class="edge">
<title>Node36&#45;&gt;Node21</title>
<path fill="none" stroke="#191970" d="M852.5302,-303.601C815.8995,-286.3898 750.8823,-256.6951 693.6725,-235 650.4254,-218.5999 599.3968,-202.766 566.8004,-193.0839"/>
<polygon fill="#191970" stroke="#191970" points="851.107,-306.7995 861.6444,-307.9014 854.0941,-300.4688 851.107,-306.7995"/>
</g>
<!-- Node36&#45;&gt;Node24 -->
<g id="edge34" class="edge">
<title>Node36&#45;&gt;Node24</title>
<path fill="none" stroke="#191970" d="M887.2462,-298.1122C893.1921,-280.1105 904.0652,-253.3933 920.6725,-235 967.319,-183.3369 1043.1736,-147.6786 1082.3968,-131.625"/>
<polygon fill="#191970" stroke="#191970" points="883.8582,-297.221 884.2408,-307.8089 890.5444,-299.2933 883.8582,-297.221"/>
</g>
<!-- Node36&#45;&gt;Node25 -->
<g id="edge35" class="edge">
<title>Node36&#45;&gt;Node25</title>
<path fill="none" stroke="#191970" d="M835.068,-305.3973C785.0487,-292.4078 706.6063,-272.0371 660.6548,-260.1039"/>
<polygon fill="#191970" stroke="#191970" points="834.4227,-308.8457 844.9814,-307.9717 836.1822,-302.0705 834.4227,-308.8457"/>
</g>
<!-- Node36&#45;&gt;Node26 -->
<g id="edge32" class="edge">
<title>Node36&#45;&gt;Node26</title>
<path fill="none" stroke="#191970" d="M874.5494,-298.4101C864.5252,-271.5452 846.4605,-223.132 837.3109,-198.611"/>
<polygon fill="#191970" stroke="#191970" points="871.3015,-299.7176 878.0766,-307.8631 877.8598,-297.2704 871.3015,-299.7176"/>
</g>
<!-- Node36&#45;&gt;Node31 -->
<g id="edge31" class="edge">
<title>Node36&#45;&gt;Node31</title>
<path fill="none" stroke="#191970" d="M905.3809,-302.2263C922.4528,-291.2281 945.3735,-276.4618 962.3551,-265.5218"/>
<polygon fill="#191970" stroke="#191970" points="903.0842,-299.5425 896.5732,-307.9005 906.8752,-305.427 903.0842,-299.5425"/>
</g>
<!-- Node37&#45;&gt;Node22 -->
<g id="edge37" class="edge">
<title>Node37&#45;&gt;Node22</title>
<path fill="none" stroke="#191970" d="M1544.9415,-300.0628C1537.5441,-290.685 1529.5177,-278.499 1525.6725,-266 1521.6212,-252.8313 1523.3085,-248.5735 1525.6725,-235 1535.4674,-178.7601 1598.7237,-156.2626 1562.6725,-112 1509.0691,-46.1874 1255.9416,-21.7804 1131.3238,-13.6442"/>
<polygon fill="#191970" stroke="#191970" points="1542.3216,-302.3859 1551.4202,-307.8141 1547.6925,-297.8967 1542.3216,-302.3859"/>
</g>
<!-- Node37&#45;&gt;Node24 -->
<g id="edge38" class="edge">
<title>Node37&#45;&gt;Node24</title>
<path fill="none" stroke="#191970" d="M1537.4911,-302.0327C1523.6322,-292.3476 1505.9929,-279.2303 1491.6725,-266 1449.1087,-226.6763 1456.4759,-195.8754 1405.6725,-168 1365.974,-146.2177 1243.8398,-132.8683 1168.8164,-126.5017"/>
<polygon fill="#191970" stroke="#191970" points="1535.7563,-305.0873 1545.9797,-307.8683 1539.7219,-299.3189 1535.7563,-305.0873"/>
</g>
<!-- Node37&#45;&gt;Node25 -->
<g id="edge39" class="edge">
<title>Node37&#45;&gt;Node25</title>
<path fill="none" stroke="#191970" d="M1490.535,-306.5977C1477.9504,-304.8802 1464.9389,-303.2592 1452.6725,-302 1303.7563,-286.7134 851.0947,-262.3472 685.3378,-253.6843"/>
<polygon fill="#191970" stroke="#191970" points="1490.1257,-310.0744 1500.5136,-307.9907 1491.0936,-303.1417 1490.1257,-310.0744"/>
</g>
<!-- Node37&#45;&gt;Node38 -->
<g id="edge40" class="edge">
<title>Node37&#45;&gt;Node38</title>
<path fill="none" stroke="#191970" d="M1570.7539,-298.7374C1577.5111,-286.1614 1586.1279,-270.1246 1591.5241,-260.0817"/>
<polygon fill="#191970" stroke="#191970" points="1567.4805,-297.435 1565.8304,-307.9005 1573.6467,-300.7482 1567.4805,-297.435"/>
</g>
<!-- Node39&#45;&gt;Node24 -->
<g id="edge43" class="edge">
<title>Node39&#45;&gt;Node24</title>
<path fill="none" stroke="#191970" d="M1104.5828,-299.8488C1111.1534,-290.3877 1118.2862,-278.1919 1121.6725,-266 1133.3289,-224.0332 1128.0832,-211.0812 1121.6725,-168 1119.7558,-155.1193 1114.9763,-140.8554 1111.5349,-131.6772"/>
<polygon fill="#191970" stroke="#191970" points="1101.6992,-297.8621 1098.5959,-307.9923 1107.3391,-302.0084 1101.6992,-297.8621"/>
</g>
<!-- Node39&#45;&gt;Node25 -->
<g id="edge44" class="edge">
<title>Node39&#45;&gt;Node25</title>
<path fill="none" stroke="#191970" d="M1029.3767,-308.706C940.0417,-295.8892 774.989,-272.2092 685.4069,-259.357"/>
<polygon fill="#191970" stroke="#191970" points="1028.9637,-312.1825 1039.3594,-310.1382 1029.9579,-305.2534 1028.9637,-312.1825"/>
</g>
<!-- Node40&#45;&gt;Node20 -->
<g id="edge52" class="edge">
<title>Node40&#45;&gt;Node20</title>
<path fill="none" stroke="#191970" d="M776.4489,-372.7861C769.5125,-371.3425 762.4297,-370.0193 755.6725,-369 545.448,-337.2878 478.4721,-405.6645 278.6725,-333 238.2619,-318.3032 199.3606,-285.1474 178.789,-265.6373"/>
<polygon fill="#191970" stroke="#191970" points="775.9358,-376.2564 786.4518,-374.9659 777.4263,-369.4169 775.9358,-376.2564"/>
</g>
<!-- Node40&#45;&gt;Node21 -->
<g id="edge54" class="edge">
<title>Node40&#45;&gt;Node21</title>
<path fill="none" stroke="#191970" d="M783.0844,-371.9443C715.1121,-350.108 582.729,-303.8484 552.6725,-266 535.3971,-244.2461 533.2738,-209.6458 533.3457,-193.0248"/>
<polygon fill="#191970" stroke="#191970" points="782.0353,-375.2834 792.626,-374.985 784.1608,-368.6138 782.0353,-375.2834"/>
</g>
<!-- Node40&#45;&gt;Node23 -->
<g id="edge55" class="edge">
<title>Node40&#45;&gt;Node23</title>
<path fill="none" stroke="#191970" d="M807.0539,-367.1298C785.7899,-343.0025 751.6725,-297.0394 751.6725,-250.5 751.6725,-250.5 751.6725,-250.5 751.6725,-183.5 751.6725,-132.5005 807.2211,-93.038 836.7313,-75.6719"/>
<polygon fill="#191970" stroke="#191970" points="804.6422,-369.6798 813.9623,-374.7185 809.8186,-364.9675 804.6422,-369.6798"/>
</g>
<!-- Node40&#45;&gt;Node24 -->
<g id="edge56" class="edge">
<title>Node40&#45;&gt;Node24</title>
<path fill="none" stroke="#191970" d="M871.7564,-372.1332C923.6828,-356.2651 1005.0731,-323.6525 1050.6725,-266 1084.8656,-222.7688 1100.8476,-156.435 1105.8584,-131.7209"/>
<polygon fill="#191970" stroke="#191970" points="870.6944,-368.7974 862.1012,-374.9948 872.6836,-375.5088 870.6944,-368.7974"/>
</g>
<!-- Node40&#45;&gt;Node25 -->
<g id="edge57" class="edge">
<title>Node40&#45;&gt;Node25</title>
<path fill="none" stroke="#191970" d="M797.6633,-369.7156C780.4145,-359.7188 757.4081,-346.0151 737.6725,-333 699.7378,-307.9832 656.7471,-275.7677 636.0729,-260.0204"/>
<polygon fill="#191970" stroke="#191970" points="796.1839,-372.9025 806.5963,-374.8601 799.6773,-366.8365 796.1839,-372.9025"/>
</g>
<!-- Node40&#45;&gt;Node26 -->
<g id="edge53" class="edge">
<title>Node40&#45;&gt;Node26</title>
<path fill="none" stroke="#191970" d="M816.6248,-365.15C813.5161,-355.611 810.2206,-343.8512 808.6725,-333 801.6627,-283.8657 817.5396,-225.7949 826.3304,-198.764"/>
<polygon fill="#191970" stroke="#191970" points="813.3861,-366.4946 819.9523,-374.8094 820.0044,-364.2147 813.3861,-366.4946"/>
</g>
<!-- Node40&#45;&gt;Node34 -->
<g id="edge51" class="edge">
<title>Node40&#45;&gt;Node34</title>
<path fill="none" stroke="#191970" d="M892.2264,-381.2665C991.4008,-375.7715 1180.3635,-362.2311 1338.6725,-333 1341.5971,-332.46 1344.5905,-331.8434 1347.5996,-331.1746"/>
<polygon fill="#191970" stroke="#191970" points="891.8353,-377.7825 882.04,-381.82 892.2152,-384.7721 891.8353,-377.7825"/>
</g>
<!-- Node40&#45;&gt;Node41 -->
<g id="edge58" class="edge">
<title>Node40&#45;&gt;Node41</title>
<path fill="none" stroke="#191970" d="M776.4533,-372.7562C769.5163,-371.3169 762.4322,-370.0029 755.6725,-369 530.9022,-335.6517 472.2047,-350.8021 245.6725,-333 202.6034,-329.6154 153.7435,-325.3562 117.9648,-322.1595"/>
<polygon fill="#191970" stroke="#191970" points="775.9412,-376.2266 786.4567,-374.9328 777.4295,-369.3866 775.9412,-376.2266"/>
</g>
<!-- Node41&#45;&gt;Node20 -->
<g id="edge59" class="edge">
<title>Node41&#45;&gt;Node20</title>
<path fill="none" stroke="#191970" d="M89.2288,-301.9198C105.1033,-290.955 126.2326,-276.3605 141.9246,-265.5218"/>
<polygon fill="#191970" stroke="#191970" points="86.8091,-299.3374 80.5702,-307.9005 90.7874,-305.097 86.8091,-299.3374"/>
</g>
<!-- Node41&#45;&gt;Node21 -->
<g id="edge60" class="edge">
<title>Node41&#45;&gt;Node21</title>
<path fill="none" stroke="#191970" d="M70.7071,-298.0761C75.8119,-278.7459 86.6066,-249.8789 107.6725,-235 137.4127,-213.9945 370.1703,-195.0371 478.5237,-187.2499"/>
<polygon fill="#191970" stroke="#191970" points="67.2719,-297.394 68.3757,-307.9312 74.0839,-299.0056 67.2719,-297.394"/>
</g>
<!-- Node41&#45;&gt;Node23 -->
<g id="edge61" class="edge">
<title>Node41&#45;&gt;Node23</title>
<path fill="none" stroke="#191970" d="M64.0443,-297.8659C62.7253,-279.2544 63.9986,-251.7255 79.6725,-235 250.0617,-53.1787 382.9721,-163.9768 626.6725,-112 688.281,-98.86 759.4692,-84.6529 805.6843,-75.5585"/>
<polygon fill="#191970" stroke="#191970" points="60.5693,-298.2905 65.0628,-307.8852 67.5334,-297.5824 60.5693,-298.2905"/>
</g>
<!-- Node41&#45;&gt;Node25 -->
<g id="edge62" class="edge">
<title>Node41&#45;&gt;Node25</title>
<path fill="none" stroke="#191970" d="M128.0739,-310.1142C235.099,-297.2404 454.6189,-270.835 561.9021,-257.9302"/>
<polygon fill="#191970" stroke="#191970" points="127.5857,-306.6476 118.0753,-311.3169 128.4218,-313.5975 127.5857,-306.6476"/>
</g>
<!-- Node42&#45;&gt;Node21 -->
<g id="edge65" class="edge">
<title>Node42&#45;&gt;Node21</title>
<path fill="none" stroke="#191970" d="M371.343,-301.7182C409.8885,-273.647 489.2522,-215.8496 520.5596,-193.0496"/>
<polygon fill="#191970" stroke="#191970" points="368.9285,-299.1468 362.9053,-307.8631 373.0493,-304.8053 368.9285,-299.1468"/>
</g>
<!-- Node42&#45;&gt;Node25 -->
<g id="edge66" class="edge">
<title>Node42&#45;&gt;Node25</title>
<path fill="none" stroke="#191970" d="M398.5034,-305.5596C451.5922,-292.578 535.3918,-272.0869 584.3968,-260.1039"/>
<polygon fill="#191970" stroke="#191970" points="397.5215,-302.1965 388.639,-307.9717 399.1842,-308.9962 397.5215,-302.1965"/>
</g>
<!-- Node43&#45;&gt;Node25 -->
<g id="edge68" class="edge">
<title>Node43&#45;&gt;Node25</title>
<path fill="none" stroke="#191970" d="M675.9909,-360.0417C661.6846,-330.0879 638.138,-280.7871 628.2596,-260.1042"/>
<polygon fill="#191970" stroke="#191970" points="672.9872,-361.8738 680.4553,-369.389 679.3037,-358.8569 672.9872,-361.8738"/>
</g>
</g>
</svg>
