<?xml version="1.0" encoding="UTF-8" standalone="no"?>
<!DOCTYPE svg PUBLIC "-//W3C//DTD SVG 1.1//EN"
 "http://www.w3.org/Graphics/SVG/1.1/DTD/svg11.dtd">
<!-- Generated by graphviz version 2.40.1 (20161225.0304)
 -->
<!-- Title: jaegertracingc/common.h Pages: 1 -->
<svg width="2047pt" height="475pt"
 viewBox="0.00 0.00 2047.15 475.00" xmlns="http://www.w3.org/2000/svg" xmlns:xlink="http://www.w3.org/1999/xlink">
<g id="graph0" class="graph" transform="scale(1 1) rotate(0) translate(4 471)">
<title>jaegertracingc/common.h</title>
<polygon fill="#ffffff" stroke="transparent" points="-4,4 -4,-471 2043.1475,-471 2043.1475,4 -4,4"/>
<!-- Node18 -->
<g id="node1" class="node">
<title>Node18</title>
<polygon fill="#bfbfbf" stroke="#000000" points="1042.1475,-447.5 1042.1475,-466.5 1168.1475,-466.5 1168.1475,-447.5 1042.1475,-447.5"/>
<text text-anchor="middle" x="1105.1475" y="-454.5" font-family="Helvetica,sans-Serif" font-size="10.00" fill="#000000">jaegertracingc/common.h</text>
</g>
<!-- Node19 -->
<g id="node2" class="node">
<title>Node19</title>
<g id="a_node2"><a xlink:href="baggage_8h.html" target="_top" xlink:title="Baggage restriction utilities. ">
<polygon fill="#ffffff" stroke="#000000" points="400.6475,-123.5 400.6475,-142.5 525.6475,-142.5 525.6475,-123.5 400.6475,-123.5"/>
<text text-anchor="middle" x="463.1475" y="-130.5" font-family="Helvetica,sans-Serif" font-size="10.00" fill="#000000">jaegertracingc/baggage.h</text>
</a>
</g>
</g>
<!-- Node18&#45;&gt;Node19 -->
<g id="edge1" class="edge">
<title>Node18&#45;&gt;Node19</title>
<path fill="none" stroke="#191970" d="M1031.6134,-454.9367C828.4347,-448.9922 272.084,-430.9721 238.1475,-411 174.3357,-373.4458 166.8959,-302.1609 215.1475,-246 266.9481,-185.7085 357.5651,-155.8845 413.7433,-142.5049"/>
<polygon fill="#191970" stroke="#191970" points="1031.7888,-458.4432 1041.8865,-455.2358 1031.9926,-451.4462 1031.7888,-458.4432"/>
</g>
<!-- Node20 -->
<g id="node3" class="node">
<title>Node20</title>
<g id="a_node3"><a xlink:href="tracer_8h.html" target="_top" xlink:title="Tracer implementation. ">
<polygon fill="#ffffff" stroke="#000000" points="1465.6475,-62 1465.6475,-81 1578.6475,-81 1578.6475,-62 1465.6475,-62"/>
<text text-anchor="middle" x="1522.1475" y="-69" font-family="Helvetica,sans-Serif" font-size="10.00" fill="#000000">jaegertracingc/tracer.h</text>
</a>
</g>
</g>
<!-- Node18&#45;&gt;Node20 -->
<g id="edge2" class="edge">
<title>Node18&#45;&gt;Node20</title>
<path fill="none" stroke="#191970" d="M1178.5663,-455.1369C1319.7759,-450.9645 1624.1722,-438.9534 1725.1475,-411 1803.7819,-389.2313 1889.1475,-410.0919 1889.1475,-328.5 1889.1475,-328.5 1889.1475,-328.5 1889.1475,-261.5 1889.1475,-123.3858 1681.6334,-85.5501 1578.687,-75.2778"/>
<polygon fill="#191970" stroke="#191970" points="1178.1715,-451.6468 1168.2773,-455.4355 1178.3747,-458.6438 1178.1715,-451.6468"/>
</g>
<!-- Node22 -->
<g id="node5" class="node">
<title>Node22</title>
<g id="a_node5"><a xlink:href="clock_8h.html" target="_top" xlink:title="Timestamp and duration representations. ">
<polygon fill="#ffffff" stroke="#000000" points="1049.1475,-386 1049.1475,-405 1161.1475,-405 1161.1475,-386 1049.1475,-386"/>
<text text-anchor="middle" x="1105.1475" y="-393" font-family="Helvetica,sans-Serif" font-size="10.00" fill="#000000">jaegertracingc/clock.h</text>
</a>
</g>
</g>
<!-- Node18&#45;&gt;Node22 -->
<g id="edge4" class="edge">
<title>Node18&#45;&gt;Node22</title>
<path fill="none" stroke="#191970" d="M1105.1475,-437.2462C1105.1475,-426.5519 1105.1475,-413.814 1105.1475,-405.2449"/>
<polygon fill="#191970" stroke="#191970" points="1101.6476,-437.3906 1105.1475,-447.3906 1108.6476,-437.3907 1101.6476,-437.3906"/>
</g>
<!-- Node23 -->
<g id="node6" class="node">
<title>Node23</title>
<g id="a_node6"><a xlink:href="log__record_8h.html" target="_top" xlink:title="Log record representation for use in span. ">
<polygon fill="#ffffff" stroke="#000000" points="416.6475,-246.5 416.6475,-276.5 509.6475,-276.5 509.6475,-246.5 416.6475,-246.5"/>
<text text-anchor="start" x="424.6475" y="-264.5" font-family="Helvetica,sans-Serif" font-size="10.00" fill="#000000">jaegertracingc/log</text>
<text text-anchor="middle" x="463.1475" y="-253.5" font-family="Helvetica,sans-Serif" font-size="10.00" fill="#000000">_record.h</text>
</a>
</g>
</g>
<!-- Node18&#45;&gt;Node23 -->
<g id="edge34" class="edge">
<title>Node18&#45;&gt;Node23</title>
<path fill="none" stroke="#191970" d="M1031.7722,-454.199C890.0436,-448.3175 588.8628,-433.3521 547.1475,-411 495.1892,-383.1594 473.3547,-308.953 466.1279,-276.7573"/>
<polygon fill="#191970" stroke="#191970" points="1031.9711,-457.7101 1042.1064,-454.6235 1032.2585,-450.7159 1031.9711,-457.7101"/>
</g>
<!-- Node24 -->
<g id="node7" class="node">
<title>Node24</title>
<g id="a_node7"><a xlink:href="span_8h.html" target="_top" xlink:title="Span, span context, and span ref representations and functions. ">
<polygon fill="#ffffff" stroke="#000000" points="408.1475,-185 408.1475,-204 518.1475,-204 518.1475,-185 408.1475,-185"/>
<text text-anchor="middle" x="463.1475" y="-192" font-family="Helvetica,sans-Serif" font-size="10.00" fill="#000000">jaegertracingc/span.h</text>
</a>
</g>
</g>
<!-- Node18&#45;&gt;Node24 -->
<g id="edge51" class="edge">
<title>Node18&#45;&gt;Node24</title>
<path fill="none" stroke="#191970" d="M1032.0497,-456.415C866.8538,-454.4777 469.0954,-446.1898 340.1475,-411 277.0593,-393.7833 243.2739,-399.7847 209.1475,-344 159.0142,-262.0495 319.0361,-219.8917 407.9236,-203.2377"/>
<polygon fill="#191970" stroke="#191970" points="1032.0766,-459.9155 1042.1154,-456.5286 1032.1556,-452.9159 1032.0766,-459.9155"/>
</g>
<!-- Node25 -->
<g id="node8" class="node">
<title>Node25</title>
<g id="a_node8"><a xlink:href="reporter_8h.html" target="_top" xlink:title="Span reporter interface. ">
<polygon fill="#ffffff" stroke="#000000" points="1384.1475,-123.5 1384.1475,-142.5 1506.1475,-142.5 1506.1475,-123.5 1384.1475,-123.5"/>
<text text-anchor="middle" x="1445.1475" y="-130.5" font-family="Helvetica,sans-Serif" font-size="10.00" fill="#000000">jaegertracingc/reporter.h</text>
</a>
</g>
</g>
<!-- Node18&#45;&gt;Node25 -->
<g id="edge52" class="edge">
<title>Node18&#45;&gt;Node25</title>
<path fill="none" stroke="#191970" d="M1178.6367,-453.5858C1266.9344,-448.4148 1408.9716,-436.3747 1455.1475,-411 1497.0395,-387.9794 1524.1475,-376.3005 1524.1475,-328.5 1524.1475,-328.5 1524.1475,-328.5 1524.1475,-261.5 1524.1475,-210.4338 1478.3105,-162.6061 1456.4663,-142.7126"/>
<polygon fill="#191970" stroke="#191970" points="1178.1954,-450.1051 1168.4105,-454.1681 1178.5934,-457.0938 1178.1954,-450.1051"/>
</g>
<!-- Node26 -->
<g id="node9" class="node">
<title>Node26</title>
<g id="a_node9"><a xlink:href="sampler_8h.html" target="_top" xlink:title="Span sampler interface. ">
<polygon fill="#ffffff" stroke="#000000" points="1186.6475,-252 1186.6475,-271 1309.6475,-271 1309.6475,-252 1186.6475,-252"/>
<text text-anchor="middle" x="1248.1475" y="-259" font-family="Helvetica,sans-Serif" font-size="10.00" fill="#000000">jaegertracingc/sampler.h</text>
</a>
</g>
</g>
<!-- Node18&#45;&gt;Node26 -->
<g id="edge53" class="edge">
<title>Node18&#45;&gt;Node26</title>
<path fill="none" stroke="#191970" d="M1162.2659,-444.8002C1212.7193,-430.4662 1282.3181,-401.0106 1309.1475,-344 1315.0142,-331.5337 1314.9514,-325.4957 1309.1475,-313 1300.4483,-294.2705 1281.2111,-279.8972 1266.6498,-271.1539"/>
<polygon fill="#191970" stroke="#191970" points="1161.1804,-441.4682 1152.4488,-447.4691 1163.0168,-448.2231 1161.1804,-441.4682"/>
</g>
<!-- Node27 -->
<g id="node10" class="node">
<title>Node27</title>
<g id="a_node10"><a xlink:href="mock__agent_8h.html" target="_top" xlink:title="Key value pair representation. ">
<polygon fill="#ffffff" stroke="#000000" points="994.1475,-179.5 994.1475,-209.5 1098.1475,-209.5 1098.1475,-179.5 994.1475,-179.5"/>
<text text-anchor="start" x="1002.1475" y="-197.5" font-family="Helvetica,sans-Serif" font-size="10.00" fill="#000000">jaegertracingc/mock</text>
<text text-anchor="middle" x="1046.1475" y="-186.5" font-family="Helvetica,sans-Serif" font-size="10.00" fill="#000000">_agent.h</text>
</a>
</g>
</g>
<!-- Node18&#45;&gt;Node27 -->
<g id="edge46" class="edge">
<title>Node18&#45;&gt;Node27</title>
<path fill="none" stroke="#191970" d="M1137.2812,-442.5718C1149.928,-435.0964 1163.0929,-424.635 1170.1475,-411 1176.4788,-398.7631 1172.9843,-393.4826 1170.1475,-380 1156.7493,-316.3214 1150.9295,-297.4962 1111.1475,-246 1099.9692,-231.5301 1083.8848,-218.7425 1070.5131,-209.5291"/>
<polygon fill="#191970" stroke="#191970" points="1135.3638,-439.6308 1128.2587,-447.4901 1138.7141,-445.7769 1135.3638,-439.6308"/>
</g>
<!-- Node28 -->
<g id="node11" class="node">
<title>Node28</title>
<g id="a_node11"><a xlink:href="token__bucket_8h.html" target="_top" xlink:title="Token bucket implementation. ">
<polygon fill="#ffffff" stroke="#000000" points="1196.1475,-313.5 1196.1475,-343.5 1300.1475,-343.5 1300.1475,-313.5 1196.1475,-313.5"/>
<text text-anchor="start" x="1204.1475" y="-331.5" font-family="Helvetica,sans-Serif" font-size="10.00" fill="#000000">jaegertracingc/token</text>
<text text-anchor="middle" x="1248.1475" y="-320.5" font-family="Helvetica,sans-Serif" font-size="10.00" fill="#000000">_bucket.h</text>
</a>
</g>
</g>
<!-- Node18&#45;&gt;Node28 -->
<g id="edge73" class="edge">
<title>Node18&#45;&gt;Node28</title>
<path fill="none" stroke="#191970" d="M1147.6998,-443.8181C1166.3649,-436.4343 1187.5307,-425.6997 1203.1475,-411 1223.3436,-391.99 1236.5608,-361.8469 1243.1619,-343.7398"/>
<polygon fill="#191970" stroke="#191970" points="1146.3439,-440.5885 1138.2097,-447.3772 1148.8019,-447.1428 1146.3439,-440.5885"/>
</g>
<!-- Node29 -->
<g id="node12" class="node">
<title>Node29</title>
<g id="a_node12"><a xlink:href="constants_8h_source.html" target="_top" xlink:title="jaegertracingc/constants.h">
<polygon fill="#ffffff" stroke="#000000" points="1552.6475,-319 1552.6475,-338 1683.6475,-338 1683.6475,-319 1552.6475,-319"/>
<text text-anchor="middle" x="1618.1475" y="-326" font-family="Helvetica,sans-Serif" font-size="10.00" fill="#000000">jaegertracingc/constants.h</text>
</a>
</g>
</g>
<!-- Node18&#45;&gt;Node29 -->
<g id="edge17" class="edge">
<title>Node18&#45;&gt;Node29</title>
<path fill="none" stroke="#191970" d="M1178.3254,-455.2076C1284.8141,-451.5974 1476.5069,-441.0278 1538.1475,-411 1572.5848,-394.2241 1600.3662,-356.2058 1612.1045,-338.2451"/>
<polygon fill="#191970" stroke="#191970" points="1178.1734,-451.7106 1168.2932,-455.5357 1178.4023,-458.7069 1178.1734,-451.7106"/>
</g>
<!-- Node30 -->
<g id="node13" class="node">
<title>Node30</title>
<g id="a_node13"><a xlink:href="options_8h.html" target="_top" xlink:title="Configuration options. ">
<polygon fill="#ffffff" stroke="#000000" points="1694.1475,-185 1694.1475,-204 1814.1475,-204 1814.1475,-185 1694.1475,-185"/>
<text text-anchor="middle" x="1754.1475" y="-192" font-family="Helvetica,sans-Serif" font-size="10.00" fill="#000000">jaegertracingc/options.h</text>
</a>
</g>
</g>
<!-- Node18&#45;&gt;Node30 -->
<g id="edge50" class="edge">
<title>Node18&#45;&gt;Node30</title>
<path fill="none" stroke="#191970" d="M1178.4061,-452.613C1301.209,-444.912 1543.3821,-428.145 1627.1475,-411 1721.0545,-391.7792 1775.873,-421.596 1832.1475,-344 1867.3809,-295.4173 1796.1683,-228.7758 1766.3961,-204.1516"/>
<polygon fill="#191970" stroke="#191970" points="1178.1012,-449.1251 1168.3384,-453.2408 1178.5369,-456.1115 1178.1012,-449.1251"/>
</g>
<!-- Node31 -->
<g id="node14" class="node">
<title>Node31</title>
<g id="a_node14"><a xlink:href="hashtable_8h.html" target="_top" xlink:title="Hashtable data structure. ">
<polygon fill="#ffffff" stroke="#000000" points="7.6475,-252 7.6475,-271 138.6475,-271 138.6475,-252 7.6475,-252"/>
<text text-anchor="middle" x="73.1475" y="-259" font-family="Helvetica,sans-Serif" font-size="10.00" fill="#000000">jaegertracingc/hashtable.h</text>
</a>
</g>
</g>
<!-- Node18&#45;&gt;Node31 -->
<g id="edge22" class="edge">
<title>Node18&#45;&gt;Node31</title>
<path fill="none" stroke="#191970" d="M1031.7507,-456.6644C792.485,-455.2144 48.388,-447.7562 13.1475,-411 -26.9176,-369.2116 37.0395,-297.2562 62.9909,-271.2418"/>
<polygon fill="#191970" stroke="#191970" points="1032.0625,-460.1662 1042.0829,-456.7252 1032.1037,-453.1663 1032.0625,-460.1662"/>
</g>
<!-- Node33 -->
<g id="node16" class="node">
<title>Node33</title>
<g id="a_node16"><a xlink:href="internal_2random_8h_source.html" target="_top" xlink:title="jaegertracingc/internal\l/random.h">
<polygon fill="#ffffff" stroke="#000000" points="990.1475,-246.5 990.1475,-276.5 1102.1475,-276.5 1102.1475,-246.5 990.1475,-246.5"/>
<text text-anchor="start" x="998.1475" y="-264.5" font-family="Helvetica,sans-Serif" font-size="10.00" fill="#000000">jaegertracingc/internal</text>
<text text-anchor="middle" x="1046.1475" y="-253.5" font-family="Helvetica,sans-Serif" font-size="10.00" fill="#000000">/random.h</text>
</a>
</g>
</g>
<!-- Node18&#45;&gt;Node33 -->
<g id="edge26" class="edge">
<title>Node18&#45;&gt;Node33</title>
<path fill="none" stroke="#191970" d="M1073.0138,-442.5718C1060.3671,-435.0964 1047.2022,-424.635 1040.1475,-411 1028.2109,-387.9293 1038.5874,-309.659 1043.6983,-276.5197"/>
<polygon fill="#191970" stroke="#191970" points="1071.5809,-445.7769 1082.0363,-447.4901 1074.9313,-439.6308 1071.5809,-445.7769"/>
</g>
<!-- Node34 -->
<g id="node17" class="node">
<title>Node34</title>
<g id="a_node17"><a xlink:href="siphash_8h.html" target="_top" xlink:title="Siphash implementation. ">
<polygon fill="#ffffff" stroke="#000000" points="1917.1475,-386 1917.1475,-405 2039.1475,-405 2039.1475,-386 1917.1475,-386"/>
<text text-anchor="middle" x="1978.1475" y="-393" font-family="Helvetica,sans-Serif" font-size="10.00" fill="#000000">jaegertracingc/siphash.h</text>
</a>
</g>
</g>
<!-- Node18&#45;&gt;Node34 -->
<g id="edge27" class="edge">
<title>Node18&#45;&gt;Node34</title>
<path fill="none" stroke="#191970" d="M1178.4513,-454.1488C1348.1829,-447.3239 1764.2687,-429.254 1903.1475,-411 1914.3527,-409.5272 1926.3853,-407.3236 1937.4606,-405.037"/>
<polygon fill="#191970" stroke="#191970" points="1178.214,-450.6554 1168.3621,-454.5528 1178.4942,-457.6498 1178.214,-450.6554"/>
</g>
<!-- Node36 -->
<g id="node19" class="node">
<title>Node36</title>
<g id="a_node19"><a xlink:href="key__value_8h.html" target="_top" xlink:title="Key value pair representation. ">
<polygon fill="#ffffff" stroke="#000000" points="218.1475,-313.5 218.1475,-343.5 314.1475,-343.5 314.1475,-313.5 218.1475,-313.5"/>
<text text-anchor="start" x="226.1475" y="-331.5" font-family="Helvetica,sans-Serif" font-size="10.00" fill="#000000">jaegertracingc/key</text>
<text text-anchor="middle" x="266.1475" y="-320.5" font-family="Helvetica,sans-Serif" font-size="10.00" fill="#000000">_value.h</text>
</a>
</g>
</g>
<!-- Node18&#45;&gt;Node36 -->
<g id="edge29" class="edge">
<title>Node18&#45;&gt;Node36</title>
<path fill="none" stroke="#191970" d="M1031.8239,-456.3124C877.659,-454.1901 524.7258,-445.5887 410.1475,-411 361.8776,-396.4284 312.3104,-363.2266 285.7762,-343.6749"/>
<polygon fill="#191970" stroke="#191970" points="1032.0851,-459.8161 1042.1306,-456.4487 1032.1777,-452.8167 1032.0851,-459.8161"/>
</g>
<!-- Node37 -->
<g id="node20" class="node">
<title>Node37</title>
<g id="a_node20"><a xlink:href="list_8h_source.html" target="_top" xlink:title="jaegertracingc/list.h">
<polygon fill="#ffffff" stroke="#000000" points="22.6475,-386 22.6475,-405 123.6475,-405 123.6475,-386 22.6475,-386"/>
<text text-anchor="middle" x="73.1475" y="-393" font-family="Helvetica,sans-Serif" font-size="10.00" fill="#000000">jaegertracingc/list.h</text>
</a>
</g>
</g>
<!-- Node18&#45;&gt;Node37 -->
<g id="edge32" class="edge">
<title>Node18&#45;&gt;Node37</title>
<path fill="none" stroke="#191970" d="M1031.8322,-455.2844C837.183,-450.4463 310.52,-435.4338 138.1475,-411 128.2693,-409.5998 117.6925,-407.3911 108.0013,-405.0751"/>
<polygon fill="#191970" stroke="#191970" points="1031.8744,-458.7865 1041.9578,-455.5344 1032.0472,-451.7886 1031.8744,-458.7865"/>
</g>
<!-- Node38 -->
<g id="node21" class="node">
<title>Node38</title>
<g id="a_node21"><a xlink:href="threading_8h.html" target="_top" xlink:title="Threading utilities. ">
<polygon fill="#ffffff" stroke="#000000" points="898.1475,-319 898.1475,-338 1026.1475,-338 1026.1475,-319 898.1475,-319"/>
<text text-anchor="middle" x="962.1475" y="-326" font-family="Helvetica,sans-Serif" font-size="10.00" fill="#000000">jaegertracingc/threading.h</text>
</a>
</g>
</g>
<!-- Node18&#45;&gt;Node38 -->
<g id="edge35" class="edge">
<title>Node18&#45;&gt;Node38</title>
<path fill="none" stroke="#191970" d="M1062.5953,-443.8181C1043.9301,-436.4343 1022.7643,-425.6997 1007.1475,-411 984.6942,-389.8653 970.8669,-354.9699 965.1672,-338.152"/>
<polygon fill="#191970" stroke="#191970" points="1061.4931,-447.1428 1072.0853,-447.3772 1063.9512,-440.5885 1061.4931,-447.1428"/>
</g>
<!-- Node39 -->
<g id="node22" class="node">
<title>Node39</title>
<g id="a_node22"><a xlink:href="metrics_8h.html" target="_top" xlink:title="Metrics interfaces to track various numbers while tracing. ">
<polygon fill="#ffffff" stroke="#000000" points="1701.6475,-319 1701.6475,-338 1822.6475,-338 1822.6475,-319 1701.6475,-319"/>
<text text-anchor="middle" x="1762.1475" y="-326" font-family="Helvetica,sans-Serif" font-size="10.00" fill="#000000">jaegertracingc/metrics.h</text>
</a>
</g>
</g>
<!-- Node18&#45;&gt;Node39 -->
<g id="edge41" class="edge">
<title>Node18&#45;&gt;Node39</title>
<path fill="none" stroke="#191970" d="M1178.6898,-452.5174C1290.7686,-445.2158 1498.9259,-429.677 1571.1475,-411 1638.2906,-393.6363 1712.1566,-355.9119 1744.8931,-338.1349"/>
<polygon fill="#191970" stroke="#191970" points="1178.2345,-449.0394 1168.481,-453.177 1178.6859,-456.0249 1178.2345,-449.0394"/>
</g>
<!-- Node40 -->
<g id="node23" class="node">
<title>Node40</title>
<g id="a_node23"><a xlink:href="net_8h.html" target="_top" xlink:title="Network utilities. ">
<polygon fill="#ffffff" stroke="#000000" points="1394.1475,-319 1394.1475,-338 1496.1475,-338 1496.1475,-319 1394.1475,-319"/>
<text text-anchor="middle" x="1445.1475" y="-326" font-family="Helvetica,sans-Serif" font-size="10.00" fill="#000000">jaegertracingc/net.h</text>
</a>
</g>
</g>
<!-- Node18&#45;&gt;Node40 -->
<g id="edge47" class="edge">
<title>Node18&#45;&gt;Node40</title>
<path fill="none" stroke="#191970" d="M1178.4972,-451.482C1270.2203,-443.87 1417.4434,-429.0235 1435.1475,-411 1454.3572,-391.4438 1450.5609,-355.4718 1447.3267,-338.2237"/>
<polygon fill="#191970" stroke="#191970" points="1178.1062,-448.0022 1168.4255,-452.3074 1178.678,-454.9788 1178.1062,-448.0022"/>
</g>
<!-- Node41 -->
<g id="node24" class="node">
<title>Node41</title>
<g id="a_node24"><a xlink:href="tag_8h.html" target="_top" xlink:title="Tag representation and functions. ">
<polygon fill="#ffffff" stroke="#000000" points="332.1475,-319 332.1475,-338 434.1475,-338 434.1475,-319 332.1475,-319"/>
<text text-anchor="middle" x="383.1475" y="-326" font-family="Helvetica,sans-Serif" font-size="10.00" fill="#000000">jaegertracingc/tag.h</text>
</a>
</g>
</g>
<!-- Node18&#45;&gt;Node41 -->
<g id="edge54" class="edge">
<title>Node18&#45;&gt;Node41</title>
<path fill="none" stroke="#191970" d="M1031.8024,-455.197C871.1973,-450.7725 498.6759,-437.7371 448.1475,-411 417.0417,-394.5403 395.8933,-356.0078 387.3681,-338.0395"/>
<polygon fill="#191970" stroke="#191970" points="1031.9776,-458.703 1042.069,-455.476 1032.1678,-451.7055 1031.9776,-458.703"/>
</g>
<!-- Node42 -->
<g id="node25" class="node">
<title>Node42</title>
<g id="a_node25"><a xlink:href="vector_8h.html" target="_top" xlink:title="C generic vector implementation. ">
<polygon fill="#ffffff" stroke="#000000" points="556.1475,-386 556.1475,-405 672.1475,-405 672.1475,-386 556.1475,-386"/>
<text text-anchor="middle" x="614.1475" y="-393" font-family="Helvetica,sans-Serif" font-size="10.00" fill="#000000">jaegertracingc/vector.h</text>
</a>
</g>
</g>
<!-- Node18&#45;&gt;Node42 -->
<g id="edge59" class="edge">
<title>Node18&#45;&gt;Node42</title>
<path fill="none" stroke="#191970" d="M1031.8458,-447.8186C933.8778,-435.5477 762.2123,-414.0458 672.5022,-402.8092"/>
<polygon fill="#191970" stroke="#191970" points="1031.6055,-451.3158 1041.963,-449.0859 1032.4756,-444.3701 1031.6055,-451.3158"/>
</g>
<!-- Node43 -->
<g id="node26" class="node">
<title>Node43</title>
<g id="a_node26"><a xlink:href="trace__id_8h.html" target="_top" xlink:title="Trace ID representation. ">
<polygon fill="#ffffff" stroke="#000000" points="718.6475,-319 718.6475,-338 841.6475,-338 841.6475,-319 718.6475,-319"/>
<text text-anchor="middle" x="780.1475" y="-326" font-family="Helvetica,sans-Serif" font-size="10.00" fill="#000000">jaegertracingc/trace_id.h</text>
</a>
</g>
</g>
<!-- Node18&#45;&gt;Node43 -->
<g id="edge68" class="edge">
<title>Node18&#45;&gt;Node43</title>
<path fill="none" stroke="#191970" d="M1068.4468,-444.071C1043.2264,-435.0715 1009.0303,-422.6429 979.1475,-411 914.504,-385.8136 839.0564,-353.8105 802.4038,-338.0939"/>
<polygon fill="#191970" stroke="#191970" points="1067.3901,-447.4098 1077.9848,-447.4637 1069.7361,-440.8147 1067.3901,-447.4098"/>
</g>
<!-- Node44 -->
<g id="node27" class="node">
<title>Node44</title>
<g id="a_node27"><a xlink:href="sampling__strategy_8h.html" target="_top" xlink:title="Sampling strategy type definitions. ">
<polygon fill="#ffffff" stroke="#000000" points="1306.6475,-380.5 1306.6475,-410.5 1425.6475,-410.5 1425.6475,-380.5 1306.6475,-380.5"/>
<text text-anchor="start" x="1314.6475" y="-398.5" font-family="Helvetica,sans-Serif" font-size="10.00" fill="#000000">jaegertracingc/sampling</text>
<text text-anchor="middle" x="1366.1475" y="-387.5" font-family="Helvetica,sans-Serif" font-size="10.00" fill="#000000">_strategy.h</text>
</a>
</g>
</g>
<!-- Node18&#45;&gt;Node44 -->
<g id="edge71" class="edge">
<title>Node18&#45;&gt;Node44</title>
<path fill="none" stroke="#191970" d="M1155.6421,-445.1018C1198.8218,-434.9273 1261.03,-420.2691 1306.6247,-409.5255"/>
<polygon fill="#191970" stroke="#191970" points="1154.5731,-441.7578 1145.6424,-447.4581 1156.1786,-448.5712 1154.5731,-441.7578"/>
</g>
<!-- Node21 -->
<g id="node4" class="node">
<title>Node21</title>
<g id="a_node4"><a xlink:href="propagation_8c.html" target="_top" xlink:title="Trace ID representation. ">
<polygon fill="#ffffff" stroke="#000000" points="1452.6475,-.5 1452.6475,-19.5 1591.6475,-19.5 1591.6475,-.5 1452.6475,-.5"/>
<text text-anchor="middle" x="1522.1475" y="-7.5" font-family="Helvetica,sans-Serif" font-size="10.00" fill="#000000">jaegertracingc/propagation.c</text>
</a>
</g>
</g>
<!-- Node20&#45;&gt;Node21 -->
<g id="edge3" class="edge">
<title>Node20&#45;&gt;Node21</title>
<path fill="none" stroke="#191970" d="M1522.1475,-51.7462C1522.1475,-41.0519 1522.1475,-28.314 1522.1475,-19.7449"/>
<polygon fill="#191970" stroke="#191970" points="1518.6476,-51.8906 1522.1475,-61.8906 1525.6476,-51.8907 1518.6476,-51.8906"/>
</g>
<!-- Node22&#45;&gt;Node23 -->
<g id="edge5" class="edge">
<title>Node22&#45;&gt;Node23</title>
<path fill="none" stroke="#191970" d="M1038.8045,-390.8314C959.5798,-384.3498 823.427,-370.3304 709.1475,-344 633.4269,-326.5537 548.0568,-295.1604 500.4218,-276.5372"/>
<polygon fill="#191970" stroke="#191970" points="1038.8762,-394.3484 1049.1241,-391.6593 1039.4361,-387.3708 1038.8762,-394.3484"/>
</g>
<!-- Node22&#45;&gt;Node24 -->
<g id="edge11" class="edge">
<title>Node22&#45;&gt;Node24</title>
<path fill="none" stroke="#191970" d="M1039.0558,-387.6105C994.8877,-380.481 936.4369,-367.3809 889.1475,-344 869.6093,-334.3399 870.6561,-322.7198 851.1475,-313 790.9423,-283.0038 767.6954,-299.0478 704.1475,-277 672.7679,-266.1129 667.2501,-257.6551 636.1475,-246 590.3699,-228.8457 536.1423,-213.4743 500.7621,-204.0829"/>
<polygon fill="#191970" stroke="#191970" points="1038.6867,-391.0951 1049.1052,-389.17 1039.7601,-384.1779 1038.6867,-391.0951"/>
</g>
<!-- Node22&#45;&gt;Node26 -->
<g id="edge12" class="edge">
<title>Node22&#45;&gt;Node26</title>
<path fill="none" stroke="#191970" d="M1121.6454,-378.0349C1137.9106,-361.0261 1163.67,-334.6444 1187.1475,-313 1203.6555,-297.7809 1223.6981,-281.2002 1236.1912,-271.0757"/>
<polygon fill="#191970" stroke="#191970" points="1118.8331,-375.913 1114.4749,-385.57 1123.9041,-380.7386 1118.8331,-375.913"/>
</g>
<!-- Node22&#45;&gt;Node28 -->
<g id="edge15" class="edge">
<title>Node22&#45;&gt;Node28</title>
<path fill="none" stroke="#191970" d="M1134.8554,-381.5809C1158.5799,-370.4653 1191.7635,-354.9177 1216.0861,-343.5218"/>
<polygon fill="#191970" stroke="#191970" points="1133.2063,-378.4884 1125.6359,-385.9005 1136.1763,-384.8271 1133.2063,-378.4884"/>
</g>
<!-- Node23&#45;&gt;Node24 -->
<g id="edge6" class="edge">
<title>Node23&#45;&gt;Node24</title>
<path fill="none" stroke="#191970" d="M463.1475,-236.1199C463.1475,-224.9072 463.1475,-212.4031 463.1475,-204.055"/>
<polygon fill="#191970" stroke="#191970" points="459.6476,-236.2966 463.1475,-246.2967 466.6476,-236.2967 459.6476,-236.2966"/>
</g>
<!-- Node24&#45;&gt;Node19 -->
<g id="edge7" class="edge">
<title>Node24&#45;&gt;Node19</title>
<path fill="none" stroke="#191970" d="M463.1475,-174.7462C463.1475,-164.0519 463.1475,-151.314 463.1475,-142.7449"/>
<polygon fill="#191970" stroke="#191970" points="459.6476,-174.8906 463.1475,-184.8906 466.6476,-174.8907 459.6476,-174.8906"/>
</g>
<!-- Node24&#45;&gt;Node21 -->
<g id="edge8" class="edge">
<title>Node24&#45;&gt;Node21</title>
<path fill="none" stroke="#191970" d="M431.5314,-180.2498C404.4076,-166.1299 372.4307,-143.6801 391.1475,-123 462.57,-44.086 1216.9186,-17.9251 1452.3603,-11.6495"/>
<polygon fill="#191970" stroke="#191970" points="430.3201,-183.5565 440.8319,-184.8802 433.4399,-177.2902 430.3201,-183.5565"/>
</g>
<!-- Node24&#45;&gt;Node25 -->
<g id="edge9" class="edge">
<title>Node24&#45;&gt;Node25</title>
<path fill="none" stroke="#191970" d="M528.5111,-190.4065C708.3918,-179.141 1208.9725,-147.791 1383.8793,-136.8371"/>
<polygon fill="#191970" stroke="#191970" points="528.1642,-186.9212 518.4025,-191.0395 528.6018,-193.9075 528.1642,-186.9212"/>
</g>
<!-- Node25&#45;&gt;Node20 -->
<g id="edge10" class="edge">
<title>Node25&#45;&gt;Node20</title>
<path fill="none" stroke="#191970" d="M1464.9934,-117.1491C1479.3005,-105.722 1498.1399,-90.6749 1510.2008,-81.0419"/>
<polygon fill="#191970" stroke="#191970" points="1462.8081,-114.415 1457.1788,-123.3906 1467.1767,-119.8846 1462.8081,-114.415"/>
</g>
<!-- Node26&#45;&gt;Node20 -->
<g id="edge13" class="edge">
<title>Node26&#45;&gt;Node20</title>
<path fill="none" stroke="#191970" d="M1319.4567,-250.2783C1381.8133,-236.4378 1469.356,-206.4228 1515.1475,-143 1528.4355,-124.5957 1526.3677,-96.2216 1524.0619,-81.3557"/>
<polygon fill="#191970" stroke="#191970" points="1318.7258,-246.8554 1309.6753,-252.3634 1320.1853,-253.7016 1318.7258,-246.8554"/>
</g>
<!-- Node26&#45;&gt;Node27 -->
<g id="edge14" class="edge">
<title>Node26&#45;&gt;Node27</title>
<path fill="none" stroke="#191970" d="M1209.7054,-248.7494C1176.0188,-237.5761 1127.0164,-221.3229 1091.437,-209.5218"/>
<polygon fill="#191970" stroke="#191970" points="1208.6124,-252.0743 1219.2058,-251.9005 1210.8162,-245.4303 1208.6124,-252.0743"/>
</g>
<!-- Node28&#45;&gt;Node26 -->
<g id="edge16" class="edge">
<title>Node28&#45;&gt;Node26</title>
<path fill="none" stroke="#191970" d="M1248.1475,-303.1199C1248.1475,-291.9072 1248.1475,-279.4031 1248.1475,-271.055"/>
<polygon fill="#191970" stroke="#191970" points="1244.6476,-303.2966 1248.1475,-313.2967 1251.6476,-303.2967 1244.6476,-303.2966"/>
</g>
<!-- Node29&#45;&gt;Node26 -->
<g id="edge21" class="edge">
<title>Node29&#45;&gt;Node26</title>
<path fill="none" stroke="#191970" d="M1555.2963,-317.1188C1483.6997,-304.154 1367.9727,-283.1981 1300.8842,-271.0496"/>
<polygon fill="#191970" stroke="#191970" points="1555.0648,-320.6338 1565.5285,-318.9717 1556.3122,-313.7458 1555.0648,-320.6338"/>
</g>
<!-- Node29&#45;&gt;Node30 -->
<g id="edge18" class="edge">
<title>Node29&#45;&gt;Node30</title>
<path fill="none" stroke="#191970" d="M1635.2611,-311.6381C1664.1344,-283.1894 1721.608,-226.561 1744.4554,-204.0496"/>
<polygon fill="#191970" stroke="#191970" points="1632.5951,-309.3514 1627.9283,-318.8631 1637.5081,-314.3377 1632.5951,-309.3514"/>
</g>
<!-- Node30&#45;&gt;Node20 -->
<g id="edge19" class="edge">
<title>Node30&#45;&gt;Node20</title>
<path fill="none" stroke="#191970" d="M1727.0739,-180.1463C1679.2029,-154.7664 1580.8458,-102.6202 1540.2676,-81.1068"/>
<polygon fill="#191970" stroke="#191970" points="1725.4683,-183.2565 1735.9429,-184.8484 1728.7472,-177.0719 1725.4683,-183.2565"/>
</g>
<!-- Node30&#45;&gt;Node21 -->
<g id="edge20" class="edge">
<title>Node30&#45;&gt;Node21</title>
<path fill="none" stroke="#191970" d="M1735.4839,-178.0171C1705.2113,-151.4916 1643.2327,-98.051 1588.1475,-56 1570.8288,-42.7792 1550.109,-28.5897 1536.5642,-19.5215"/>
<polygon fill="#191970" stroke="#191970" points="1733.3273,-180.7814 1743.1495,-184.7531 1737.948,-175.523 1733.3273,-180.7814"/>
</g>
<!-- Node31&#45;&gt;Node24 -->
<g id="edge25" class="edge">
<title>Node31&#45;&gt;Node24</title>
<path fill="none" stroke="#191970" d="M138.485,-250.2754C213.9895,-237.3041 336.9238,-216.1846 407.8755,-203.9954"/>
<polygon fill="#191970" stroke="#191970" points="137.8738,-246.829 128.6108,-251.9717 139.0591,-253.7279 137.8738,-246.829"/>
</g>
<!-- Node32 -->
<g id="node15" class="node">
<title>Node32</title>
<g id="a_node15"><a xlink:href="strings_8h.html" target="_top" xlink:title="jaegertracingc/internal\l/strings.h">
<polygon fill="#ffffff" stroke="#000000" points="25.1475,-56.5 25.1475,-86.5 137.1475,-86.5 137.1475,-56.5 25.1475,-56.5"/>
<text text-anchor="start" x="33.1475" y="-74.5" font-family="Helvetica,sans-Serif" font-size="10.00" fill="#000000">jaegertracingc/internal</text>
<text text-anchor="middle" x="81.1475" y="-63.5" font-family="Helvetica,sans-Serif" font-size="10.00" fill="#000000">/strings.h</text>
</a>
</g>
</g>
<!-- Node31&#45;&gt;Node32 -->
<g id="edge23" class="edge">
<title>Node31&#45;&gt;Node32</title>
<path fill="none" stroke="#191970" d="M73.9901,-241.4895C75.5982,-203.297 79.0725,-120.782 80.5075,-86.7011"/>
<polygon fill="#191970" stroke="#191970" points="70.4791,-241.6782 73.5552,-251.8167 77.4729,-241.9728 70.4791,-241.6782"/>
</g>
<!-- Node32&#45;&gt;Node21 -->
<g id="edge24" class="edge">
<title>Node32&#45;&gt;Node21</title>
<path fill="none" stroke="#191970" d="M147.2283,-56.7993C149.22,-56.5087 151.1964,-56.2408 153.1475,-56 408.4879,-24.4817 1210.1907,-13.381 1452.2565,-10.6997"/>
<polygon fill="#191970" stroke="#191970" points="146.5014,-53.3713 137.1892,-58.4243 147.62,-60.2814 146.5014,-53.3713"/>
</g>
<!-- Node35 -->
<g id="node18" class="node">
<title>Node35</title>
<g id="a_node18"><a xlink:href="siphash_8c.html" target="_top" xlink:title="Siphash implementation. ">
<polygon fill="#ffffff" stroke="#000000" points="1917.1475,-319 1917.1475,-338 2039.1475,-338 2039.1475,-319 1917.1475,-319"/>
<text text-anchor="middle" x="1978.1475" y="-326" font-family="Helvetica,sans-Serif" font-size="10.00" fill="#000000">jaegertracingc/siphash.c</text>
</a>
</g>
</g>
<!-- Node34&#45;&gt;Node35 -->
<g id="edge28" class="edge">
<title>Node34&#45;&gt;Node35</title>
<path fill="none" stroke="#191970" d="M1978.1475,-375.6079C1978.1475,-363.214 1978.1475,-347.8263 1978.1475,-338.0817"/>
<polygon fill="#191970" stroke="#191970" points="1974.6476,-375.9005 1978.1475,-385.9005 1981.6476,-375.9006 1974.6476,-375.9005"/>
</g>
<!-- Node36&#45;&gt;Node24 -->
<g id="edge31" class="edge">
<title>Node36&#45;&gt;Node24</title>
<path fill="none" stroke="#191970" d="M296.7987,-307.651C340.0822,-278.2094 417.365,-225.6414 449.028,-204.1042"/>
<polygon fill="#191970" stroke="#191970" points="294.663,-304.8707 288.363,-313.389 298.6,-310.6587 294.663,-304.8707"/>
</g>
<!-- Node36&#45;&gt;Node31 -->
<g id="edge30" class="edge">
<title>Node36&#45;&gt;Node31</title>
<path fill="none" stroke="#191970" d="M213.3239,-310.1623C176.8281,-297.4928 129.7694,-281.1563 100.5284,-271.0053"/>
<polygon fill="#191970" stroke="#191970" points="212.2397,-313.4907 222.8346,-313.4639 214.5355,-306.8779 212.2397,-313.4907"/>
</g>
<!-- Node37&#45;&gt;Node31 -->
<g id="edge33" class="edge">
<title>Node37&#45;&gt;Node31</title>
<path fill="none" stroke="#191970" d="M73.1475,-375.624C73.1475,-346.3572 73.1475,-292.7914 73.1475,-271.0496"/>
<polygon fill="#191970" stroke="#191970" points="69.6476,-375.863 73.1475,-385.8631 76.6476,-375.8631 69.6476,-375.863"/>
</g>
<!-- Node38&#45;&gt;Node24 -->
<g id="edge38" class="edge">
<title>Node38&#45;&gt;Node24</title>
<path fill="none" stroke="#191970" d="M918.4916,-316.1483C883.6007,-306.1037 833.5274,-291.3008 790.1475,-277 751.5606,-264.2793 743.2145,-257.1598 704.1475,-246 641.2043,-228.0198 567.4144,-213.1361 518.2259,-204.0701"/>
<polygon fill="#191970" stroke="#191970" points="917.7818,-319.5858 928.3592,-318.9787 919.7119,-312.8571 917.7818,-319.5858"/>
</g>
<!-- Node38&#45;&gt;Node25 -->
<g id="edge39" class="edge">
<title>Node38&#45;&gt;Node25</title>
<path fill="none" stroke="#191970" d="M957.9564,-308.5071C952.3452,-275.4551 947.0764,-209.9991 985.1475,-179 1015.4493,-154.327 1265.8626,-140.5721 1383.9547,-135.4025"/>
<polygon fill="#191970" stroke="#191970" points="954.5929,-309.5586 959.885,-318.7371 961.4717,-308.2618 954.5929,-309.5586"/>
</g>
<!-- Node38&#45;&gt;Node26 -->
<g id="edge40" class="edge">
<title>Node38&#45;&gt;Node26</title>
<path fill="none" stroke="#191970" d="M1012.7718,-316.6405C1068.167,-303.6633 1155.8941,-283.1118 1207.1517,-271.1039"/>
<polygon fill="#191970" stroke="#191970" points="1011.7587,-313.283 1002.8206,-318.9717 1013.3554,-320.0984 1011.7587,-313.283"/>
</g>
<!-- Node38&#45;&gt;Node27 -->
<g id="edge37" class="edge">
<title>Node38&#45;&gt;Node27</title>
<path fill="none" stroke="#191970" d="M963.0302,-308.8027C964.6291,-291.1461 969.046,-265.1504 981.1475,-246 990.6076,-231.0297 1005.9824,-218.5561 1019.4043,-209.636"/>
<polygon fill="#191970" stroke="#191970" points="959.536,-308.5986 962.3444,-318.8144 966.5197,-309.077 959.536,-308.5986"/>
</g>
<!-- Node38&#45;&gt;Node33 -->
<g id="edge36" class="edge">
<title>Node38&#45;&gt;Node33</title>
<path fill="none" stroke="#191970" d="M982.0675,-312.6115C995.7694,-301.6825 1013.8524,-287.2592 1027.3143,-276.5218"/>
<polygon fill="#191970" stroke="#191970" points="979.818,-309.9287 974.1827,-318.9005 984.1829,-315.4011 979.818,-309.9287"/>
</g>
<!-- Node39&#45;&gt;Node19 -->
<g id="edge42" class="edge">
<title>Node39&#45;&gt;Node19</title>
<path fill="none" stroke="#191970" d="M1718.9036,-316.2029C1614.6478,-287.0911 1340.7735,-213.7964 1107.1475,-179 895.3907,-147.4608 641.1284,-137.3778 525.6624,-134.2908"/>
<polygon fill="#191970" stroke="#191970" points="1718.1731,-319.633 1728.7466,-318.9611 1720.062,-312.8926 1718.1731,-319.633"/>
</g>
<!-- Node39&#45;&gt;Node21 -->
<g id="edge43" class="edge">
<title>Node39&#45;&gt;Node21</title>
<path fill="none" stroke="#191970" d="M1782.4056,-312.1603C1808.6693,-288.9948 1851.1475,-243.8927 1851.1475,-194.5 1851.1475,-194.5 1851.1475,-194.5 1851.1475,-133 1851.1475,-75.9844 1675.5982,-36.6341 1580.9661,-19.5639"/>
<polygon fill="#191970" stroke="#191970" points="1779.8567,-309.7343 1774.5226,-318.8885 1784.4011,-315.0587 1779.8567,-309.7343"/>
</g>
<!-- Node39&#45;&gt;Node25 -->
<g id="edge44" class="edge">
<title>Node39&#45;&gt;Node25</title>
<path fill="none" stroke="#191970" d="M1745.1619,-311.4488C1714.0935,-281.0847 1644.9547,-217.2501 1576.1475,-179 1546.4417,-162.4865 1509.7185,-150.2091 1482.7196,-142.511"/>
<polygon fill="#191970" stroke="#191970" points="1742.9764,-314.2096 1752.5514,-318.745 1747.8946,-309.2284 1742.9764,-314.2096"/>
</g>
<!-- Node39&#45;&gt;Node26 -->
<g id="edge45" class="edge">
<title>Node39&#45;&gt;Node26</title>
<path fill="none" stroke="#191970" d="M1712.7102,-316.7326C1706.1528,-315.3664 1699.5025,-314.0784 1693.1475,-313 1557.2386,-289.9369 1396.2013,-274.122 1309.9865,-266.5746"/>
<polygon fill="#191970" stroke="#191970" points="1712.3692,-320.2394 1722.8821,-318.9251 1713.8441,-313.3966 1712.3692,-320.2394"/>
</g>
<!-- Node40&#45;&gt;Node25 -->
<g id="edge48" class="edge">
<title>Node40&#45;&gt;Node25</title>
<path fill="none" stroke="#191970" d="M1445.1475,-308.6343C1445.1475,-267.2803 1445.1475,-173.2585 1445.1475,-142.7534"/>
<polygon fill="#191970" stroke="#191970" points="1441.6476,-308.8051 1445.1475,-318.8051 1448.6476,-308.8052 1441.6476,-308.8051"/>
</g>
<!-- Node40&#45;&gt;Node26 -->
<g id="edge49" class="edge">
<title>Node40&#45;&gt;Node26</title>
<path fill="none" stroke="#191970" d="M1407.1664,-315.5826C1368.8794,-302.5611 1310.6739,-282.7653 1276.3205,-271.0817"/>
<polygon fill="#191970" stroke="#191970" points="1406.3278,-318.9942 1416.9222,-318.9005 1408.5818,-312.367 1406.3278,-318.9942"/>
</g>
<!-- Node41&#45;&gt;Node20 -->
<g id="edge55" class="edge">
<title>Node41&#45;&gt;Node20</title>
<path fill="none" stroke="#191970" d="M376.3979,-308.9632C363.642,-268.043 341.4845,-172.9916 391.1475,-123 429.351,-84.5438 1241.7305,-74.1215 1465.5161,-71.9754"/>
<polygon fill="#191970" stroke="#191970" points="373.1024,-310.1467 379.5343,-318.5658 379.7564,-307.9733 373.1024,-310.1467"/>
</g>
<!-- Node41&#45;&gt;Node23 -->
<g id="edge56" class="edge">
<title>Node41&#45;&gt;Node23</title>
<path fill="none" stroke="#191970" d="M402.4893,-312.3012C415.493,-301.4107 432.5112,-287.1579 445.2111,-276.5218"/>
<polygon fill="#191970" stroke="#191970" points="400.0288,-309.7965 394.6096,-318.9005 404.5233,-315.1631 400.0288,-309.7965"/>
</g>
<!-- Node41&#45;&gt;Node24 -->
<g id="edge57" class="edge">
<title>Node41&#45;&gt;Node24</title>
<path fill="none" stroke="#191970" d="M385.8108,-308.737C388.8626,-291.209 395.0868,-265.4454 407.1475,-246 417.8689,-228.714 435.9563,-213.5885 448.6676,-204.2796"/>
<polygon fill="#191970" stroke="#191970" points="382.306,-308.499 384.2339,-318.9169 389.2235,-309.5705 382.306,-308.499"/>
</g>
<!-- Node41&#45;&gt;Node26 -->
<g id="edge58" class="edge">
<title>Node41&#45;&gt;Node26</title>
<path fill="none" stroke="#191970" d="M444.5706,-325.0292C569.9806,-317.7497 864.4742,-299.6691 1111.1475,-277 1135.8178,-274.7328 1162.9333,-271.7653 1186.4844,-269.0343"/>
<polygon fill="#191970" stroke="#191970" points="444.1807,-321.5458 434.3995,-325.6174 444.5849,-328.5341 444.1807,-321.5458"/>
</g>
<!-- Node42&#45;&gt;Node20 -->
<g id="edge60" class="edge">
<title>Node42&#45;&gt;Node20</title>
<path fill="none" stroke="#191970" d="M614.1475,-375.6205C614.1475,-349.4557 614.1475,-302.0301 614.1475,-261.5 614.1475,-261.5 614.1475,-261.5 614.1475,-194.5 614.1475,-108.1998 1266.5647,-79.8273 1465.3481,-73.1855"/>
<polygon fill="#191970" stroke="#191970" points="610.6476,-375.7482 614.1475,-385.7483 617.6476,-375.7483 610.6476,-375.7482"/>
</g>
<!-- Node42&#45;&gt;Node23 -->
<g id="edge62" class="edge">
<title>Node42&#45;&gt;Node23</title>
<path fill="none" stroke="#191970" d="M582.6725,-381.5387C564.3716,-372.4777 541.5589,-359.4858 524.1475,-344 501.6534,-323.9936 482.2744,-294.4479 471.7006,-276.6766"/>
<polygon fill="#191970" stroke="#191970" points="581.2492,-384.7378 591.7788,-385.9111 584.2791,-378.4275 581.2492,-384.7378"/>
</g>
<!-- Node42&#45;&gt;Node24 -->
<g id="edge64" class="edge">
<title>Node42&#45;&gt;Node24</title>
<path fill="none" stroke="#191970" d="M604.0944,-376.7259C587.9467,-347.3689 554.3502,-289.4607 518.1475,-246 504.7517,-229.9186 486.6163,-213.8217 474.8985,-204.0106"/>
<polygon fill="#191970" stroke="#191970" points="601.2027,-378.7348 609.0541,-385.8487 607.3526,-375.3913 601.2027,-378.7348"/>
</g>
<!-- Node42&#45;&gt;Node25 -->
<g id="edge65" class="edge">
<title>Node42&#45;&gt;Node25</title>
<path fill="none" stroke="#191970" d="M622.2035,-376.4828C630.7847,-358.1627 645.9198,-330.6934 666.1475,-313 773.9279,-218.7234 820.8268,-216.0414 959.1475,-179 1037.7402,-157.9534 1271.8189,-142.6017 1383.9462,-136.2413"/>
<polygon fill="#191970" stroke="#191970" points="618.9088,-375.2767 618.0194,-385.8342 625.2984,-378.1357 618.9088,-375.2767"/>
</g>
<!-- Node42&#45;&gt;Node26 -->
<g id="edge66" class="edge">
<title>Node42&#45;&gt;Node26</title>
<path fill="none" stroke="#191970" d="M682.358,-392.3527C766.4164,-387.292 913.1015,-374.5956 1035.1475,-344 1108.8095,-325.5337 1191.4556,-288.5299 1228.4253,-271.0556"/>
<polygon fill="#191970" stroke="#191970" points="681.9523,-388.8704 672.1731,-392.9469 682.36,-395.8585 681.9523,-388.8704"/>
</g>
<!-- Node42&#45;&gt;Node27 -->
<g id="edge63" class="edge">
<title>Node42&#45;&gt;Node27</title>
<path fill="none" stroke="#191970" d="M630.1702,-378.1356C647.9367,-359.7639 678.1959,-330.9944 709.1475,-313 802.7076,-258.6068 925.3006,-223.3077 993.8753,-206.345"/>
<polygon fill="#191970" stroke="#191970" points="627.2719,-376.1053 622.9286,-385.769 632.3503,-380.923 627.2719,-376.1053"/>
</g>
<!-- Node42&#45;&gt;Node36 -->
<g id="edge61" class="edge">
<title>Node42&#45;&gt;Node36</title>
<path fill="none" stroke="#191970" d="M546.1669,-385.2513C486.9705,-375.903 398.99,-360.9866 323.1475,-344 320.2454,-343.35 317.2694,-342.6484 314.2733,-341.9151"/>
<polygon fill="#191970" stroke="#191970" points="545.7219,-388.7242 556.1437,-386.8171 546.8073,-381.8089 545.7219,-388.7242"/>
</g>
<!-- Node42&#45;&gt;Node41 -->
<g id="edge67" class="edge">
<title>Node42&#45;&gt;Node41</title>
<path fill="none" stroke="#191970" d="M571.3192,-383.0779C526.4635,-370.0678 456.9795,-349.9145 416.1828,-338.0817"/>
<polygon fill="#191970" stroke="#191970" points="570.4717,-386.4763 581.0509,-385.9005 572.4217,-379.7534 570.4717,-386.4763"/>
</g>
<!-- Node43&#45;&gt;Node24 -->
<g id="edge69" class="edge">
<title>Node43&#45;&gt;Node24</title>
<path fill="none" stroke="#191970" d="M748.0016,-314.9115C683.8188,-287.7806 541.2077,-227.4971 485.7884,-204.0706"/>
<polygon fill="#191970" stroke="#191970" points="747.0301,-318.3007 757.6038,-318.9705 749.7557,-311.8531 747.0301,-318.3007"/>
</g>
<!-- Node43&#45;&gt;Node26 -->
<g id="edge70" class="edge">
<title>Node43&#45;&gt;Node26</title>
<path fill="none" stroke="#191970" d="M851.8136,-318.2401C943.2579,-305.1487 1099.9076,-282.7224 1186.3469,-270.3475"/>
<polygon fill="#191970" stroke="#191970" points="851.2146,-314.7901 841.8116,-319.672 852.2067,-321.7194 851.2146,-314.7901"/>
</g>
<!-- Node44&#45;&gt;Node26 -->
<g id="edge72" class="edge">
<title>Node44&#45;&gt;Node26</title>
<path fill="none" stroke="#191970" d="M1363.8792,-370.0479C1361.1676,-352.4174 1355.215,-329.2808 1342.1475,-313 1325.8407,-292.6833 1299.2567,-279.1858 1278.5131,-271.1251"/>
<polygon fill="#191970" stroke="#191970" points="1360.438,-370.7305 1365.1833,-380.2033 1367.381,-369.8389 1360.438,-370.7305"/>
</g>
</g>
</svg>
