<?xml version="1.0" encoding="UTF-8" standalone="no"?>
<!DOCTYPE svg PUBLIC "-//W3C//DTD SVG 1.1//EN"
 "http://www.w3.org/Graphics/SVG/1.1/DTD/svg11.dtd">
<!-- Generated by graphviz version 2.40.1 (20161225.0304)
 -->
<!-- Title: jaegertracingc Pages: 1 -->
<svg width="198pt" height="132pt"
 viewBox="0.00 0.00 198.00 132.00" xmlns="http://www.w3.org/2000/svg" xmlns:xlink="http://www.w3.org/1999/xlink">
<g id="graph0" class="graph" transform="scale(1 1) rotate(0) translate(4 128)">
<title>jaegertracingc</title>
<polygon fill="#ffffff" stroke="transparent" points="-4,4 -4,-128 194,-128 194,4 -4,4"/>
<g id="clust1" class="cluster">
<title>clusterdir_540b75e2e1ac0188a70d8b392ece32a3</title>
<g id="a_clust1"><a xlink:href="dir_540b75e2e1ac0188a70d8b392ece32a3.html" target="_top">
<polygon fill="#eeeeff" stroke="#000000" points="8,-64 8,-116 182,-116 182,-64 8,-64"/>
</a>
</g>
</g>
<!-- dir_540b75e2e1ac0188a70d8b392ece32a3 -->
<g id="node1" class="node">
<title>dir_540b75e2e1ac0188a70d8b392ece32a3</title>
<text text-anchor="middle" x="135" y="-87.5" font-family="Helvetica,sans-Serif" font-size="10.00" fill="#000000">jaegertracingc</text>
</g>
<!-- dir_b43f99739bc5c186bc3b41e1a036827d -->
<g id="node3" class="node">
<title>dir_b43f99739bc5c186bc3b41e1a036827d</title>
<g id="a_node3"><a xlink:href="dir_b43f99739bc5c186bc3b41e1a036827d.html" target="_top" xlink:title="jaegertracingc">
<polygon fill="#ffffff" stroke="#ff0000" points="173.5,-36 96.5,-36 96.5,0 173.5,0 173.5,-36"/>
<text text-anchor="middle" x="135" y="-15.5" font-family="Helvetica,sans-Serif" font-size="10.00" fill="#000000">jaegertracingc</text>
</a>
</g>
</g>
<!-- dir_540b75e2e1ac0188a70d8b392ece32a3&#45;&gt;dir_b43f99739bc5c186bc3b41e1a036827d -->
<g id="edge1" class="edge">
<title>dir_540b75e2e1ac0188a70d8b392ece32a3&#45;&gt;dir_b43f99739bc5c186bc3b41e1a036827d</title>
<path fill="none" stroke="#000000" d="M135,-71.8314C135,-64.131 135,-54.9743 135,-46.4166"/>
<polygon fill="#000000" stroke="#000000" points="138.5001,-46.4132 135,-36.4133 131.5001,-46.4133 138.5001,-46.4132"/>
<g id="a_edge1&#45;headlabel"><a xlink:href="dir_000000_000002.html" target="_top" xlink:title="1">
<text text-anchor="middle" x="141.3393" y="-47.5079" font-family="Helvetica,sans-Serif" font-size="10.00" fill="#000000">1</text>
</a>
</g>
</g>
<!-- dir_3671d8a4b54f02198b0a35bedb3ba4df -->
<g id="node2" class="node">
<title>dir_3671d8a4b54f02198b0a35bedb3ba4df</title>
<g id="a_node2"><a xlink:href="dir_3671d8a4b54f02198b0a35bedb3ba4df.html" target="_top" xlink:title="protoc&#45;gen">
<polygon fill="#ffffff" stroke="#000000" points="78,-108 16,-108 16,-72 78,-72 78,-108"/>
<text text-anchor="middle" x="47" y="-87.5" font-family="Helvetica,sans-Serif" font-size="10.00" fill="#000000">protoc&#45;gen</text>
</a>
</g>
</g>
</g>
</svg>
