<?xml version="1.0" encoding="UTF-8" standalone="no"?>
<!DOCTYPE svg PUBLIC "-//W3C//DTD SVG 1.1//EN"
 "http://www.w3.org/Graphics/SVG/1.1/DTD/svg11.dtd">
<!-- Generated by graphviz version 2.40.1 (20161225.0304)
 -->
<!-- Title: jaegertracingc/internal/endian.h Pages: 1 -->
<svg width="152pt" height="95pt"
 viewBox="0.00 0.00 151.50 95.00" xmlns="http://www.w3.org/2000/svg" xmlns:xlink="http://www.w3.org/1999/xlink">
<g id="graph0" class="graph" transform="scale(1 1) rotate(0) translate(4 91)">
<title>jaegertracingc/internal/endian.h</title>
<polygon fill="#ffffff" stroke="transparent" points="-4,4 -4,-91 147.5,-91 147.5,4 -4,4"/>
<!-- Node1 -->
<g id="node1" class="node">
<title>Node1</title>
<polygon fill="#bfbfbf" stroke="#000000" points="13.5,-56.5 13.5,-86.5 125.5,-86.5 125.5,-56.5 13.5,-56.5"/>
<text text-anchor="start" x="21.5" y="-74.5" font-family="Helvetica,sans-Serif" font-size="10.00" fill="#000000">jaegertracingc/internal</text>
<text text-anchor="middle" x="69.5" y="-63.5" font-family="Helvetica,sans-Serif" font-size="10.00" fill="#000000">/endian.h</text>
</g>
<!-- Node1&#45;&gt;Node1 -->
<g id="edge2" class="edge">
<title>Node1&#45;&gt;Node1</title>
<path fill="none" stroke="#191970" d="M135.5416,-79.8865C140.4721,-78.0116 143.5,-75.2161 143.5,-71.5 143.5,-65.6992 136.1221,-62.1417 125.6461,-60.8275"/>
<polygon fill="#191970" stroke="#191970" points="134.6016,-76.5113 125.6461,-82.1725 136.1774,-83.3317 134.6016,-76.5113"/>
</g>
<!-- Node2 -->
<g id="node2" class="node">
<title>Node2</title>
<g id="a_node2"><a xlink:href="propagation_8c.html" target="_top" xlink:title="Trace ID representation. ">
<polygon fill="#ffffff" stroke="#000000" points="0,-.5 0,-19.5 139,-19.5 139,-.5 0,-.5"/>
<text text-anchor="middle" x="69.5" y="-7.5" font-family="Helvetica,sans-Serif" font-size="10.00" fill="#000000">jaegertracingc/propagation.c</text>
</a>
</g>
</g>
<!-- Node1&#45;&gt;Node2 -->
<g id="edge1" class="edge">
<title>Node1&#45;&gt;Node2</title>
<path fill="none" stroke="#191970" d="M69.5,-46.2849C69.5,-36.9858 69.5,-26.9883 69.5,-19.8469"/>
<polygon fill="#191970" stroke="#191970" points="66.0001,-46.2977 69.5,-56.2977 73.0001,-46.2978 66.0001,-46.2977"/>
</g>
</g>
</svg>
