<?xml version="1.0" encoding="UTF-8" standalone="no"?>
<!DOCTYPE svg PUBLIC "-//W3C//DTD SVG 1.1//EN"
 "http://www.w3.org/Graphics/SVG/1.1/DTD/svg11.dtd">
<!-- Generated by graphviz version 2.40.1 (20161225.0304)
 -->
<!-- Title: jaegertracingc/hashtable.h Pages: 1 -->
<svg width="1151pt" height="375pt"
 viewBox="0.00 0.00 1150.62 375.00" xmlns="http://www.w3.org/2000/svg" xmlns:xlink="http://www.w3.org/1999/xlink">
<g id="graph0" class="graph" transform="scale(1 1) rotate(0) translate(4 371)">
<title>jaegertracingc/hashtable.h</title>
<polygon fill="#ffffff" stroke="transparent" points="-4,4 -4,-371 1146.6223,-371 1146.6223,4 -4,4"/>
<!-- Node0 -->
<g id="node1" class="node">
<title>Node0</title>
<polygon fill="#bfbfbf" stroke="#000000" points="555.6223,-347.5 555.6223,-366.5 686.6223,-366.5 686.6223,-347.5 555.6223,-347.5"/>
<text text-anchor="middle" x="621.1223" y="-354.5" font-family="Helvetica,sans-Serif" font-size="10.00" fill="#000000">jaegertracingc/hashtable.h</text>
</g>
<!-- Node1 -->
<g id="node2" class="node">
<title>Node1</title>
<g id="a_node2"><a xlink:href="common_8h.html" target="_top" xlink:title="Common headers, struct definitions, and macros. ">
<polygon fill="#ffffff" stroke="#000000" points="518.1223,-168.5 518.1223,-187.5 644.1223,-187.5 644.1223,-168.5 518.1223,-168.5"/>
<text text-anchor="middle" x="581.1223" y="-175.5" font-family="Helvetica,sans-Serif" font-size="10.00" fill="#000000">jaegertracingc/common.h</text>
</a>
</g>
</g>
<!-- Node0&#45;&gt;Node1 -->
<g id="edge1" class="edge">
<title>Node0&#45;&gt;Node1</title>
<path fill="none" stroke="#191970" d="M620.5436,-347.4673C619.0189,-325.3735 614.0787,-269.1095 601.1223,-224 598.4561,-214.7173 594.3463,-204.844 590.5442,-196.6342"/>
<polygon fill="#191970" stroke="#191970" points="593.6791,-195.0773 586.1766,-187.5965 587.3765,-198.1232 593.6791,-195.0773"/>
</g>
<!-- Node19 -->
<g id="node20" class="node">
<title>Node19</title>
<g id="a_node20"><a xlink:href="key__value_8h.html" target="_top" xlink:title="Key value pair representation. ">
<polygon fill="#ffffff" stroke="#000000" points="745.1223,-280.5 745.1223,-310.5 841.1223,-310.5 841.1223,-280.5 745.1223,-280.5"/>
<text text-anchor="start" x="753.1223" y="-298.5" font-family="Helvetica,sans-Serif" font-size="10.00" fill="#000000">jaegertracingc/key</text>
<text text-anchor="middle" x="793.1223" y="-287.5" font-family="Helvetica,sans-Serif" font-size="10.00" fill="#000000">_value.h</text>
</a>
</g>
</g>
<!-- Node0&#45;&gt;Node19 -->
<g id="edge25" class="edge">
<title>Node0&#45;&gt;Node19</title>
<path fill="none" stroke="#191970" d="M647.9973,-347.3906C672.8919,-338.4893 710.5978,-325.0073 741.3362,-314.0165"/>
<polygon fill="#191970" stroke="#191970" points="742.8086,-317.2072 751.0463,-310.5446 740.4517,-310.6158 742.8086,-317.2072"/>
</g>
<!-- Node21 -->
<g id="node22" class="node">
<title>Node21</title>
<g id="a_node22"><a xlink:href="list_8h_source.html" target="_top" xlink:title="jaegertracingc/list.h">
<polygon fill="#ffffff" stroke="#000000" points="491.6223,-224.5 491.6223,-243.5 592.6223,-243.5 592.6223,-224.5 491.6223,-224.5"/>
<text text-anchor="middle" x="542.1223" y="-231.5" font-family="Helvetica,sans-Serif" font-size="10.00" fill="#000000">jaegertracingc/list.h</text>
</a>
</g>
</g>
<!-- Node0&#45;&gt;Node21 -->
<g id="edge31" class="edge">
<title>Node0&#45;&gt;Node21</title>
<path fill="none" stroke="#191970" d="M614.9233,-347.3484C601.7707,-326.8703 570.8847,-278.782 553.8735,-252.2962"/>
<polygon fill="#191970" stroke="#191970" points="556.6416,-250.1293 548.2925,-243.6068 550.7517,-253.9122 556.6416,-250.1293"/>
</g>
<!-- Node2 -->
<g id="node3" class="node">
<title>Node2</title>
<g id="a_node3"><a xlink:href="config_8h_source.html" target="_top" xlink:title="jaegertracingc/config.h">
<polygon fill="#ffffff" stroke="#000000" points="26.6223,-112.5 26.6223,-131.5 141.6223,-131.5 141.6223,-112.5 26.6223,-112.5"/>
<text text-anchor="middle" x="84.1223" y="-119.5" font-family="Helvetica,sans-Serif" font-size="10.00" fill="#000000">jaegertracingc/config.h</text>
</a>
</g>
</g>
<!-- Node1&#45;&gt;Node2 -->
<g id="edge2" class="edge">
<title>Node1&#45;&gt;Node2</title>
<path fill="none" stroke="#191970" d="M518.0475,-171.7738C434.9968,-163.4381 284.4675,-147.8549 156.1223,-132 154.8189,-131.839 153.5026,-131.6745 152.1764,-131.5072"/>
<polygon fill="#191970" stroke="#191970" points="152.2366,-127.986 141.8707,-130.1768 151.3403,-134.9284 152.2366,-127.986"/>
</g>
<!-- Node4 -->
<g id="node5" class="node">
<title>Node4</title>
<polygon fill="#ffffff" stroke="#bfbfbf" points="886.1223,-56.5 886.1223,-75.5 938.1223,-75.5 938.1223,-56.5 886.1223,-56.5"/>
<text text-anchor="middle" x="912.1223" y="-63.5" font-family="Helvetica,sans-Serif" font-size="10.00" fill="#000000">assert.h</text>
</g>
<!-- Node1&#45;&gt;Node4 -->
<g id="edge4" class="edge">
<title>Node1&#45;&gt;Node4</title>
<path fill="none" stroke="#191970" d="M517.6843,-175.8879C405.1799,-171.0038 186.1838,-155.7798 227.1223,-112 249.4619,-88.1099 737.2214,-71.3659 875.7384,-67.0801"/>
<polygon fill="#191970" stroke="#191970" points="875.9508,-70.5754 885.8389,-66.7706 875.7364,-63.5786 875.9508,-70.5754"/>
</g>
<!-- Node5 -->
<g id="node6" class="node">
<title>Node5</title>
<polygon fill="#ffffff" stroke="#bfbfbf" points="236.6223,-112.5 236.6223,-131.5 285.6223,-131.5 285.6223,-112.5 236.6223,-112.5"/>
<text text-anchor="middle" x="261.1223" y="-119.5" font-family="Helvetica,sans-Serif" font-size="10.00" fill="#000000">ctype.h</text>
</g>
<!-- Node1&#45;&gt;Node5 -->
<g id="edge5" class="edge">
<title>Node1&#45;&gt;Node5</title>
<path fill="none" stroke="#191970" d="M517.944,-170.3745C461.7586,-163.0267 377.2566,-150.5906 295.8073,-132.1742"/>
<polygon fill="#191970" stroke="#191970" points="296.4212,-128.7242 285.8917,-129.8986 294.8554,-135.5468 296.4212,-128.7242"/>
</g>
<!-- Node6 -->
<g id="node7" class="node">
<title>Node6</title>
<polygon fill="#ffffff" stroke="#bfbfbf" points="303.6223,-112.5 303.6223,-131.5 362.6223,-131.5 362.6223,-112.5 303.6223,-112.5"/>
<text text-anchor="middle" x="333.1223" y="-119.5" font-family="Helvetica,sans-Serif" font-size="10.00" fill="#000000">inttypes.h</text>
</g>
<!-- Node1&#45;&gt;Node6 -->
<g id="edge6" class="edge">
<title>Node1&#45;&gt;Node6</title>
<path fill="none" stroke="#191970" d="M535.7656,-168.4871C495.5151,-159.9395 434.8705,-146.8044 372.8666,-132.119"/>
<polygon fill="#191970" stroke="#191970" points="373.4453,-128.659 362.9067,-129.7492 371.8249,-135.4689 373.4453,-128.659"/>
</g>
<!-- Node7 -->
<g id="node8" class="node">
<title>Node7</title>
<polygon fill="#ffffff" stroke="#bfbfbf" points="381.1223,-112.5 381.1223,-131.5 429.1223,-131.5 429.1223,-112.5 381.1223,-112.5"/>
<text text-anchor="middle" x="405.1223" y="-119.5" font-family="Helvetica,sans-Serif" font-size="10.00" fill="#000000">limits.h</text>
</g>
<!-- Node1&#45;&gt;Node7 -->
<g id="edge7" class="edge">
<title>Node1&#45;&gt;Node7</title>
<path fill="none" stroke="#191970" d="M550.8668,-168.3733C519.827,-158.4969 471.6262,-143.1603 439.2457,-132.8575"/>
<polygon fill="#191970" stroke="#191970" points="439.9208,-129.3994 429.3303,-129.7026 437.7983,-136.0699 439.9208,-129.3994"/>
</g>
<!-- Node8 -->
<g id="node9" class="node">
<title>Node8</title>
<polygon fill="#ffffff" stroke="#bfbfbf" points="944.1223,-.5 944.1223,-19.5 996.1223,-19.5 996.1223,-.5 944.1223,-.5"/>
<text text-anchor="middle" x="970.1223" y="-7.5" font-family="Helvetica,sans-Serif" font-size="10.00" fill="#000000">stdarg.h</text>
</g>
<!-- Node1&#45;&gt;Node8 -->
<g id="edge8" class="edge">
<title>Node1&#45;&gt;Node8</title>
<path fill="none" stroke="#191970" d="M644.3357,-173.3289C710.8521,-167.2885 810.0089,-154.7384 840.1223,-132 870.1033,-109.3616 850.6411,-82.6478 877.1223,-56 893.0164,-40.0059 915.6034,-28.6546 934.5374,-21.23"/>
<polygon fill="#191970" stroke="#191970" points="935.8921,-24.4606 944.0509,-17.7015 933.4579,-17.8975 935.8921,-24.4606"/>
</g>
<!-- Node9 -->
<g id="node10" class="node">
<title>Node9</title>
<polygon fill="#ffffff" stroke="#bfbfbf" points="447.1223,-112.5 447.1223,-131.5 503.1223,-131.5 503.1223,-112.5 447.1223,-112.5"/>
<text text-anchor="middle" x="475.1223" y="-119.5" font-family="Helvetica,sans-Serif" font-size="10.00" fill="#000000">stdbool.h</text>
</g>
<!-- Node1&#45;&gt;Node9 -->
<g id="edge9" class="edge">
<title>Node1&#45;&gt;Node9</title>
<path fill="none" stroke="#191970" d="M562.6585,-168.2455C546.0148,-159.4527 521.323,-146.4079 502.4031,-136.4125"/>
<polygon fill="#191970" stroke="#191970" points="503.8514,-133.2193 493.3745,-131.6427 500.5815,-139.4086 503.8514,-133.2193"/>
</g>
<!-- Node10 -->
<g id="node11" class="node">
<title>Node10</title>
<polygon fill="#ffffff" stroke="#bfbfbf" points="521.1223,-112.5 521.1223,-131.5 573.1223,-131.5 573.1223,-112.5 521.1223,-112.5"/>
<text text-anchor="middle" x="547.1223" y="-119.5" font-family="Helvetica,sans-Serif" font-size="10.00" fill="#000000">stddef.h</text>
</g>
<!-- Node1&#45;&gt;Node10 -->
<g id="edge10" class="edge">
<title>Node1&#45;&gt;Node10</title>
<path fill="none" stroke="#191970" d="M575.1999,-168.2455C570.5196,-160.5367 563.855,-149.5598 558.1934,-140.2348"/>
<polygon fill="#191970" stroke="#191970" points="561.1584,-138.3741 552.9768,-131.6427 555.1748,-142.007 561.1584,-138.3741"/>
</g>
<!-- Node11 -->
<g id="node12" class="node">
<title>Node11</title>
<polygon fill="#ffffff" stroke="#bfbfbf" points="956.6223,-56.5 956.6223,-75.5 1005.6223,-75.5 1005.6223,-56.5 956.6223,-56.5"/>
<text text-anchor="middle" x="981.1223" y="-63.5" font-family="Helvetica,sans-Serif" font-size="10.00" fill="#000000">stdint.h</text>
</g>
<!-- Node1&#45;&gt;Node11 -->
<g id="edge11" class="edge">
<title>Node1&#45;&gt;Node11</title>
<path fill="none" stroke="#191970" d="M644.1384,-175.1802C704.5141,-170.8451 797.3814,-159.8537 873.1223,-132 906.1459,-119.8556 940.1112,-97.082 960.9201,-81.7274"/>
<polygon fill="#191970" stroke="#191970" points="963.1056,-84.4631 968.9916,-75.6537 958.8967,-78.8698 963.1056,-84.4631"/>
</g>
<!-- Node12 -->
<g id="node13" class="node">
<title>Node12</title>
<polygon fill="#ffffff" stroke="#bfbfbf" points="484.1223,-.5 484.1223,-19.5 530.1223,-19.5 530.1223,-.5 484.1223,-.5"/>
<text text-anchor="middle" x="507.1223" y="-7.5" font-family="Helvetica,sans-Serif" font-size="10.00" fill="#000000">stdio.h</text>
</g>
<!-- Node1&#45;&gt;Node12 -->
<g id="edge12" class="edge">
<title>Node1&#45;&gt;Node12</title>
<path fill="none" stroke="#191970" d="M517.8684,-175.1198C374.1059,-168.2681 33.9036,-150.2057 17.1223,-132 -5.7709,-107.1637 -5.6186,-80.9758 17.1223,-56 47.8495,-22.2531 368.6132,-12.7947 473.8701,-10.5893"/>
<polygon fill="#191970" stroke="#191970" points="474.0041,-14.0874 483.9317,-10.387 473.8633,-7.0888 474.0041,-14.0874"/>
</g>
<!-- Node13 -->
<g id="node14" class="node">
<title>Node13</title>
<polygon fill="#ffffff" stroke="#bfbfbf" points="591.1223,-112.5 591.1223,-131.5 639.1223,-131.5 639.1223,-112.5 591.1223,-112.5"/>
<text text-anchor="middle" x="615.1223" y="-119.5" font-family="Helvetica,sans-Serif" font-size="10.00" fill="#000000">stdlib.h</text>
</g>
<!-- Node1&#45;&gt;Node13 -->
<g id="edge13" class="edge">
<title>Node1&#45;&gt;Node13</title>
<path fill="none" stroke="#191970" d="M587.0446,-168.2455C591.725,-160.5367 598.3895,-149.5598 604.0511,-140.2348"/>
<polygon fill="#191970" stroke="#191970" points="607.0697,-142.007 609.2678,-131.6427 601.0862,-138.3741 607.0697,-142.007"/>
</g>
<!-- Node14 -->
<g id="node15" class="node">
<title>Node14</title>
<polygon fill="#ffffff" stroke="#bfbfbf" points="475.6223,-56.5 475.6223,-75.5 524.6223,-75.5 524.6223,-56.5 475.6223,-56.5"/>
<text text-anchor="middle" x="500.1223" y="-63.5" font-family="Helvetica,sans-Serif" font-size="10.00" fill="#000000">string.h</text>
</g>
<!-- Node1&#45;&gt;Node14 -->
<g id="edge14" class="edge">
<title>Node1&#45;&gt;Node14</title>
<path fill="none" stroke="#191970" d="M517.7661,-174.9978C413.5242,-169.4029 215.2118,-155.7447 194.1223,-132 188.2195,-125.354 188.3229,-118.7364 194.1223,-112 211.676,-91.6102 389.1371,-74.9634 465.4919,-68.6874"/>
<polygon fill="#191970" stroke="#191970" points="465.8829,-72.1673 475.5677,-67.8713 465.3178,-65.1901 465.8829,-72.1673"/>
</g>
<!-- Node15 -->
<g id="node16" class="node">
<title>Node15</title>
<polygon fill="#ffffff" stroke="#bfbfbf" points="657.1223,-112.5 657.1223,-131.5 701.1223,-131.5 701.1223,-112.5 657.1223,-112.5"/>
<text text-anchor="middle" x="679.1223" y="-119.5" font-family="Helvetica,sans-Serif" font-size="10.00" fill="#000000">time.h</text>
</g>
<!-- Node1&#45;&gt;Node15 -->
<g id="edge15" class="edge">
<title>Node1&#45;&gt;Node15</title>
<path fill="none" stroke="#191970" d="M598.1926,-168.2455C613.3693,-159.5731 635.7844,-146.7645 653.1786,-136.825"/>
<polygon fill="#191970" stroke="#191970" points="655.3017,-139.643 662.2476,-131.6427 651.8287,-133.5653 655.3017,-139.643"/>
</g>
<!-- Node16 -->
<g id="node17" class="node">
<title>Node16</title>
<polygon fill="#ffffff" stroke="#bfbfbf" points="719.6223,-112.5 719.6223,-131.5 830.6223,-131.5 830.6223,-112.5 719.6223,-112.5"/>
<text text-anchor="middle" x="775.1223" y="-119.5" font-family="Helvetica,sans-Serif" font-size="10.00" fill="#000000">opentracing&#45;c/tracer.h</text>
</g>
<!-- Node1&#45;&gt;Node16 -->
<g id="edge16" class="edge">
<title>Node1&#45;&gt;Node16</title>
<path fill="none" stroke="#191970" d="M614.4721,-168.3733C647.1503,-158.9404 697.0841,-144.5265 732.5992,-134.2747"/>
<polygon fill="#191970" stroke="#191970" points="733.5706,-137.6373 742.2077,-131.5011 731.6292,-130.9119 733.5706,-137.6373"/>
</g>
<!-- Node17 -->
<g id="node18" class="node">
<title>Node17</title>
<g id="a_node18"><a xlink:href="alloc_8h.html" target="_top" xlink:title="Allocator struct and functions. ">
<polygon fill="#ffffff" stroke="#000000" points="925.6223,-112.5 925.6223,-131.5 1034.6223,-131.5 1034.6223,-112.5 925.6223,-112.5"/>
<text text-anchor="middle" x="980.1223" y="-119.5" font-family="Helvetica,sans-Serif" font-size="10.00" fill="#000000">jaegertracingc/alloc.h</text>
</a>
</g>
</g>
<!-- Node1&#45;&gt;Node17 -->
<g id="edge17" class="edge">
<title>Node1&#45;&gt;Node17</title>
<path fill="none" stroke="#191970" d="M644.3998,-169.2833C710.8401,-160.1066 818.3452,-145.1892 911.1223,-132 912.5828,-131.7924 914.0607,-131.5818 915.5509,-131.3692"/>
<polygon fill="#191970" stroke="#191970" points="916.1103,-134.8249 925.513,-129.9423 915.1177,-127.8956 916.1103,-134.8249"/>
</g>
<!-- Node18 -->
<g id="node19" class="node">
<title>Node18</title>
<g id="a_node19"><a xlink:href="logging_8h.html" target="_top" xlink:title="Logging interface and initialization functions. ">
<polygon fill="#ffffff" stroke="#000000" points="1023.6223,-56.5 1023.6223,-75.5 1142.6223,-75.5 1142.6223,-56.5 1023.6223,-56.5"/>
<text text-anchor="middle" x="1083.1223" y="-63.5" font-family="Helvetica,sans-Serif" font-size="10.00" fill="#000000">jaegertracingc/logging.h</text>
</a>
</g>
</g>
<!-- Node1&#45;&gt;Node18 -->
<g id="edge24" class="edge">
<title>Node1&#45;&gt;Node18</title>
<path fill="none" stroke="#191970" d="M644.5481,-174.8725C763.516,-168.5459 1011.1831,-153.0228 1044.1223,-132 1060.8948,-121.2953 1071.378,-100.5848 1077.1975,-85.2058"/>
<polygon fill="#191970" stroke="#191970" points="1080.559,-86.1936 1080.5014,-75.599 1073.9395,-83.9171 1080.559,-86.1936"/>
</g>
<!-- Node3 -->
<g id="node4" class="node">
<title>Node3</title>
<g id="a_node4"><a xlink:href="visibility_8h_source.html" target="_top" xlink:title="jaegertracingc/visibility.h">
<polygon fill="#ffffff" stroke="#000000" points="26.1223,-56.5 26.1223,-75.5 150.1223,-75.5 150.1223,-56.5 26.1223,-56.5"/>
<text text-anchor="middle" x="88.1223" y="-63.5" font-family="Helvetica,sans-Serif" font-size="10.00" fill="#000000">jaegertracingc/visibility.h</text>
</a>
</g>
</g>
<!-- Node2&#45;&gt;Node3 -->
<g id="edge3" class="edge">
<title>Node2&#45;&gt;Node3</title>
<path fill="none" stroke="#191970" d="M84.819,-112.2455C85.341,-104.9382 86.0727,-94.6944 86.7148,-85.7046"/>
<polygon fill="#191970" stroke="#191970" points="90.2121,-85.8667 87.4335,-75.6427 83.2299,-85.3679 90.2121,-85.8667"/>
</g>
<!-- Node17&#45;&gt;Node4 -->
<g id="edge18" class="edge">
<title>Node17&#45;&gt;Node4</title>
<path fill="none" stroke="#191970" d="M968.2776,-112.2455C958.2343,-103.9746 943.6228,-91.9416 931.8219,-82.2232"/>
<polygon fill="#191970" stroke="#191970" points="933.7756,-79.298 923.8312,-75.6427 929.3256,-84.7015 933.7756,-79.298"/>
</g>
<!-- Node17&#45;&gt;Node11 -->
<g id="edge19" class="edge">
<title>Node17&#45;&gt;Node11</title>
<path fill="none" stroke="#191970" d="M980.2965,-112.2455C980.427,-104.9382 980.6099,-94.6944 980.7704,-85.7046"/>
<polygon fill="#191970" stroke="#191970" points="984.2709,-85.7036 980.9501,-75.6427 977.272,-85.5786 984.2709,-85.7036"/>
</g>
<!-- Node17&#45;&gt;Node14 -->
<g id="edge20" class="edge">
<title>Node17&#45;&gt;Node14</title>
<path fill="none" stroke="#191970" d="M925.5275,-115.6306C825.9534,-104.0136 617.5105,-79.6953 534.9106,-70.0586"/>
<polygon fill="#191970" stroke="#191970" points="535.1322,-66.5608 524.794,-68.8784 534.321,-73.5137 535.1322,-66.5608"/>
</g>
<!-- Node17&#45;&gt;Node18 -->
<g id="edge21" class="edge">
<title>Node17&#45;&gt;Node18</title>
<path fill="none" stroke="#191970" d="M998.0635,-112.2455C1014.1623,-103.4928 1038.0102,-90.527 1056.3614,-80.5496"/>
<polygon fill="#191970" stroke="#191970" points="1058.273,-83.4942 1065.3866,-75.6427 1054.9294,-77.3444 1058.273,-83.4942"/>
</g>
<!-- Node18&#45;&gt;Node8 -->
<g id="edge22" class="edge">
<title>Node18&#45;&gt;Node8</title>
<path fill="none" stroke="#191970" d="M1063.6969,-56.3733C1045.7201,-47.4644 1018.7782,-34.1127 998.4132,-24.0203"/>
<polygon fill="#191970" stroke="#191970" points="999.8084,-20.8055 989.2942,-19.5011 996.7001,-27.0776 999.8084,-20.8055"/>
</g>
<!-- Node18&#45;&gt;Node12 -->
<g id="edge23" class="edge">
<title>Node18&#45;&gt;Node12</title>
<path fill="none" stroke="#191970" d="M1023.4432,-57.0317C1020.6322,-56.6696 1017.8476,-56.3235 1015.1223,-56 836.4943,-34.7948 621.5014,-18.2794 540.3179,-12.3623"/>
<polygon fill="#191970" stroke="#191970" points="540.4344,-8.8616 530.2076,-11.6299 539.9286,-15.8433 540.4344,-8.8616"/>
</g>
<!-- Node19&#45;&gt;Node1 -->
<g id="edge27" class="edge">
<title>Node19&#45;&gt;Node1</title>
<path fill="none" stroke="#191970" d="M793.38,-280.4262C792.8053,-264.2182 789.2994,-238.7912 774.1223,-224 756.9648,-207.2788 701.4677,-195.1475 654.363,-187.5551"/>
<polygon fill="#191970" stroke="#191970" points="654.8767,-184.093 644.4556,-186.0038 653.7938,-191.0087 654.8767,-184.093"/>
</g>
<!-- Node19&#45;&gt;Node17 -->
<g id="edge26" class="edge">
<title>Node19&#45;&gt;Node17</title>
<path fill="none" stroke="#191970" d="M809.3902,-280.4065C844.2522,-248.0613 925.9347,-172.2757 962.2141,-138.6153"/>
<polygon fill="#191970" stroke="#191970" points="964.6764,-141.1053 969.6266,-131.738 959.9153,-135.9738 964.6764,-141.1053"/>
</g>
<!-- Node19&#45;&gt;Node18 -->
<g id="edge28" class="edge">
<title>Node19&#45;&gt;Node18</title>
<path fill="none" stroke="#191970" d="M839.9853,-280.4738C901.7603,-258.1883 1009.3479,-210.3606 1067.1223,-132 1076.9494,-118.6713 1080.8095,-100.1013 1082.292,-86.0533"/>
<polygon fill="#191970" stroke="#191970" points="1085.7926,-86.1741 1083.0399,-75.9431 1078.8116,-85.6577 1085.7926,-86.1741"/>
</g>
<!-- Node20 -->
<g id="node21" class="node">
<title>Node20</title>
<g id="a_node21"><a xlink:href="vector_8h.html" target="_top" xlink:title="C generic vector implementation. ">
<polygon fill="#ffffff" stroke="#000000" points="649.1223,-224.5 649.1223,-243.5 765.1223,-243.5 765.1223,-224.5 649.1223,-224.5"/>
<text text-anchor="middle" x="707.1223" y="-231.5" font-family="Helvetica,sans-Serif" font-size="10.00" fill="#000000">jaegertracingc/vector.h</text>
</a>
</g>
</g>
<!-- Node19&#45;&gt;Node20 -->
<g id="edge29" class="edge">
<title>Node19&#45;&gt;Node20</title>
<path fill="none" stroke="#191970" d="M771.8638,-280.2977C758.8505,-270.9917 742.232,-259.1075 729.0905,-249.7099"/>
<polygon fill="#191970" stroke="#191970" points="730.8052,-246.6332 720.6352,-243.6633 726.7334,-252.3271 730.8052,-246.6332"/>
</g>
<!-- Node20&#45;&gt;Node1 -->
<g id="edge30" class="edge">
<title>Node20&#45;&gt;Node1</title>
<path fill="none" stroke="#191970" d="M685.4621,-224.3733C665.1451,-215.3435 634.5583,-201.7494 611.7473,-191.6111"/>
<polygon fill="#191970" stroke="#191970" points="613.0594,-188.3642 602.4998,-187.5011 610.2164,-194.7609 613.0594,-188.3642"/>
</g>
<!-- Node21&#45;&gt;Node1 -->
<g id="edge32" class="edge">
<title>Node21&#45;&gt;Node1</title>
<path fill="none" stroke="#191970" d="M548.9156,-224.2455C554.3401,-216.4564 562.0884,-205.3308 568.6256,-195.9439"/>
<polygon fill="#191970" stroke="#191970" points="571.564,-197.849 574.4068,-187.6427 565.8197,-193.8485 571.564,-197.849"/>
</g>
</g>
</svg>
