<?xml version="1.0" encoding="UTF-8" standalone="no"?>
<!DOCTYPE svg PUBLIC "-//W3C//DTD SVG 1.1//EN"
 "http://www.w3.org/Graphics/SVG/1.1/DTD/svg11.dtd">
<!-- Generated by graphviz version 2.40.1 (20161225.0304)
 -->
<!-- Title: jaegertracingc/hashtable.h Pages: 1 -->
<svg width="442pt" height="263pt"
 viewBox="0.00 0.00 442.00 263.00" xmlns="http://www.w3.org/2000/svg" xmlns:xlink="http://www.w3.org/1999/xlink">
<g id="graph0" class="graph" transform="scale(1 1) rotate(0) translate(4 259)">
<title>jaegertracingc/hashtable.h</title>
<polygon fill="#ffffff" stroke="transparent" points="-4,4 -4,-259 438,-259 438,4 -4,4"/>
<!-- Node22 -->
<g id="node1" class="node">
<title>Node22</title>
<polygon fill="#bfbfbf" stroke="#000000" points="54.5,-235.5 54.5,-254.5 185.5,-254.5 185.5,-235.5 54.5,-235.5"/>
<text text-anchor="middle" x="120" y="-242.5" font-family="Helvetica,sans-Serif" font-size="10.00" fill="#000000">jaegertracingc/hashtable.h</text>
</g>
<!-- Node23 -->
<g id="node2" class="node">
<title>Node23</title>
<g id="a_node2"><a xlink:href="strings_8h.html" target="_top" xlink:title="jaegertracingc/internal\l/strings.h">
<polygon fill="#ffffff" stroke="#000000" points="0,-56.5 0,-86.5 112,-86.5 112,-56.5 0,-56.5"/>
<text text-anchor="start" x="8" y="-74.5" font-family="Helvetica,sans-Serif" font-size="10.00" fill="#000000">jaegertracingc/internal</text>
<text text-anchor="middle" x="56" y="-63.5" font-family="Helvetica,sans-Serif" font-size="10.00" fill="#000000">/strings.h</text>
</a>
</g>
</g>
<!-- Node22&#45;&gt;Node23 -->
<g id="edge1" class="edge">
<title>Node22&#45;&gt;Node23</title>
<path fill="none" stroke="#191970" d="M112.9807,-225.9712C100.1828,-191.2769 73.3006,-118.4009 61.6189,-86.7325"/>
<polygon fill="#191970" stroke="#191970" points="109.7233,-227.254 116.4679,-235.4248 116.2908,-224.8314 109.7233,-227.254"/>
</g>
<!-- Node25 -->
<g id="node4" class="node">
<title>Node25</title>
<g id="a_node4"><a xlink:href="span_8h.html" target="_top" xlink:title="Span, span context, and span ref representations and functions. ">
<polygon fill="#ffffff" stroke="#000000" points="130,-179.5 130,-198.5 240,-198.5 240,-179.5 130,-179.5"/>
<text text-anchor="middle" x="185" y="-186.5" font-family="Helvetica,sans-Serif" font-size="10.00" fill="#000000">jaegertracingc/span.h</text>
</a>
</g>
</g>
<!-- Node22&#45;&gt;Node25 -->
<g id="edge3" class="edge">
<title>Node22&#45;&gt;Node25</title>
<path fill="none" stroke="#191970" d="M138.9835,-228.645C150.2879,-218.9058 164.247,-206.8795 173.8076,-198.6427"/>
<polygon fill="#191970" stroke="#191970" points="136.6138,-226.0668 131.3221,-235.2455 141.1827,-231.3701 136.6138,-226.0668"/>
</g>
<!-- Node24 -->
<g id="node3" class="node">
<title>Node24</title>
<g id="a_node3"><a xlink:href="propagation_8c.html" target="_top" xlink:title="Trace ID representation. ">
<polygon fill="#ffffff" stroke="#000000" points="70.5,-.5 70.5,-19.5 209.5,-19.5 209.5,-.5 70.5,-.5"/>
<text text-anchor="middle" x="140" y="-7.5" font-family="Helvetica,sans-Serif" font-size="10.00" fill="#000000">jaegertracingc/propagation.c</text>
</a>
</g>
</g>
<!-- Node23&#45;&gt;Node24 -->
<g id="edge2" class="edge">
<title>Node23&#45;&gt;Node24</title>
<path fill="none" stroke="#191970" d="M85.183,-50.1339C99.2476,-39.8366 115.4331,-27.9865 126.5505,-19.8469"/>
<polygon fill="#191970" stroke="#191970" points="82.7651,-47.5663 76.7641,-56.2977 86.9003,-53.2143 82.7651,-47.5663"/>
</g>
<!-- Node25&#45;&gt;Node24 -->
<g id="edge5" class="edge">
<title>Node25&#45;&gt;Node24</title>
<path fill="none" stroke="#191970" d="M172.5421,-170.6532C167.576,-162.5116 162.2728,-152.612 159,-143 143.889,-98.6194 140.7941,-41.9396 140.1617,-19.6336"/>
<polygon fill="#191970" stroke="#191970" points="169.7304,-172.7524 178.0751,-179.2805 175.6227,-168.9734 169.7304,-172.7524"/>
</g>
<!-- Node26 -->
<g id="node5" class="node">
<title>Node26</title>
<g id="a_node5"><a xlink:href="baggage_8h.html" target="_top" xlink:title="Baggage restriction utilities. ">
<polygon fill="#ffffff" stroke="#000000" points="168.5,-123.5 168.5,-142.5 293.5,-142.5 293.5,-123.5 168.5,-123.5"/>
<text text-anchor="middle" x="231" y="-130.5" font-family="Helvetica,sans-Serif" font-size="10.00" fill="#000000">jaegertracingc/baggage.h</text>
</a>
</g>
</g>
<!-- Node25&#45;&gt;Node26 -->
<g id="edge4" class="edge">
<title>Node25&#45;&gt;Node26</title>
<path fill="none" stroke="#191970" d="M199.3747,-171.5004C207.1971,-161.9775 216.576,-150.5596 223.0792,-142.6427"/>
<polygon fill="#191970" stroke="#191970" points="196.6555,-169.2967 193.0126,-179.2455 202.0646,-173.7399 196.6555,-169.2967"/>
</g>
<!-- Node27 -->
<g id="node6" class="node">
<title>Node27</title>
<g id="a_node6"><a xlink:href="reporter_8h.html" target="_top" xlink:title="Span reporter interface. ">
<polygon fill="#ffffff" stroke="#000000" points="312,-123.5 312,-142.5 434,-142.5 434,-123.5 312,-123.5"/>
<text text-anchor="middle" x="373" y="-130.5" font-family="Helvetica,sans-Serif" font-size="10.00" fill="#000000">jaegertracingc/reporter.h</text>
</a>
</g>
</g>
<!-- Node25&#45;&gt;Node27 -->
<g id="edge6" class="edge">
<title>Node25&#45;&gt;Node27</title>
<path fill="none" stroke="#191970" d="M227.1117,-176.4561C261.6218,-166.1765 309.7199,-151.8494 341.1034,-142.5011"/>
<polygon fill="#191970" stroke="#191970" points="225.903,-173.1641 217.3184,-179.3733 227.9014,-179.8728 225.903,-173.1641"/>
</g>
<!-- Node28 -->
<g id="node7" class="node">
<title>Node28</title>
<g id="a_node7"><a xlink:href="tracer_8h.html" target="_top" xlink:title="Tracer implementation. ">
<polygon fill="#ffffff" stroke="#000000" points="242.5,-62 242.5,-81 355.5,-81 355.5,-62 242.5,-62"/>
<text text-anchor="middle" x="299" y="-69" font-family="Helvetica,sans-Serif" font-size="10.00" fill="#000000">jaegertracingc/tracer.h</text>
</a>
</g>
</g>
<!-- Node27&#45;&gt;Node28 -->
<g id="edge7" class="edge">
<title>Node27&#45;&gt;Node28</title>
<path fill="none" stroke="#191970" d="M353.5906,-116.8692C339.9799,-105.5576 322.2302,-90.8062 310.7255,-81.2449"/>
<polygon fill="#191970" stroke="#191970" points="351.5097,-119.6907 361.4375,-123.3906 355.9838,-114.3072 351.5097,-119.6907"/>
</g>
<!-- Node28&#45;&gt;Node24 -->
<g id="edge8" class="edge">
<title>Node28&#45;&gt;Node24</title>
<path fill="none" stroke="#191970" d="M264.4795,-58.1477C234.3718,-46.5023 191.4363,-29.8952 164.6693,-19.5419"/>
<polygon fill="#191970" stroke="#191970" points="263.567,-61.5474 274.1563,-61.8906 266.0922,-55.0188 263.567,-61.5474"/>
</g>
</g>
</svg>
