<?xml version="1.0" encoding="UTF-8" standalone="no"?>
<!DOCTYPE svg PUBLIC "-//W3C//DTD SVG 1.1//EN"
 "http://www.w3.org/Graphics/SVG/1.1/DTD/svg11.dtd">
<!-- Generated by graphviz version 2.40.1 (20161225.0304)
 -->
<!-- Title: jaegertracingc/key_value.h Pages: 1 -->
<svg width="442pt" height="330pt"
 viewBox="0.00 0.00 442.00 330.00" xmlns="http://www.w3.org/2000/svg" xmlns:xlink="http://www.w3.org/1999/xlink">
<g id="graph0" class="graph" transform="scale(1 1) rotate(0) translate(4 326)">
<title>jaegertracingc/key_value.h</title>
<polygon fill="#ffffff" stroke="transparent" points="-4,4 -4,-326 438,-326 438,4 -4,4"/>
<!-- Node20 -->
<g id="node1" class="node">
<title>Node20</title>
<polygon fill="#bfbfbf" stroke="#000000" points="95,-291.5 95,-321.5 191,-321.5 191,-291.5 95,-291.5"/>
<text text-anchor="start" x="103" y="-309.5" font-family="Helvetica,sans-Serif" font-size="10.00" fill="#000000">jaegertracingc/key</text>
<text text-anchor="middle" x="143" y="-298.5" font-family="Helvetica,sans-Serif" font-size="10.00" fill="#000000">_value.h</text>
</g>
<!-- Node21 -->
<g id="node2" class="node">
<title>Node21</title>
<g id="a_node2"><a xlink:href="hashtable_8h.html" target="_top" xlink:title="Hashtable data structure. ">
<polygon fill="#ffffff" stroke="#000000" points="30.5,-235.5 30.5,-254.5 161.5,-254.5 161.5,-235.5 30.5,-235.5"/>
<text text-anchor="middle" x="96" y="-242.5" font-family="Helvetica,sans-Serif" font-size="10.00" fill="#000000">jaegertracingc/hashtable.h</text>
</a>
</g>
</g>
<!-- Node20&#45;&gt;Node21 -->
<g id="edge1" class="edge">
<title>Node20&#45;&gt;Node21</title>
<path fill="none" stroke="#191970" d="M125.098,-283.0751C117.6182,-273.2877 109.335,-262.449 103.5253,-254.8469"/>
<polygon fill="#191970" stroke="#191970" points="122.529,-285.4776 131.382,-291.2977 128.0908,-281.2271 122.529,-285.4776"/>
</g>
<!-- Node24 -->
<g id="node5" class="node">
<title>Node24</title>
<g id="a_node5"><a xlink:href="span_8h.html" target="_top" xlink:title="Span, span context, and span ref representations and functions. ">
<polygon fill="#ffffff" stroke="#000000" points="135,-179.5 135,-198.5 245,-198.5 245,-179.5 135,-179.5"/>
<text text-anchor="middle" x="190" y="-186.5" font-family="Helvetica,sans-Serif" font-size="10.00" fill="#000000">jaegertracingc/span.h</text>
</a>
</g>
</g>
<!-- Node20&#45;&gt;Node24 -->
<g id="edge10" class="edge">
<title>Node20&#45;&gt;Node24</title>
<path fill="none" stroke="#191970" d="M157.6002,-282.2419C162.2912,-273.8107 167.2409,-264.1675 171,-255 178.9619,-235.5833 184.9566,-211.6693 187.9258,-198.6191"/>
<polygon fill="#191970" stroke="#191970" points="154.4272,-280.7396 152.4912,-291.156 160.5004,-284.2204 154.4272,-280.7396"/>
</g>
<!-- Node22 -->
<g id="node3" class="node">
<title>Node22</title>
<g id="a_node3"><a xlink:href="strings_8h.html" target="_top" xlink:title="jaegertracingc/internal\l/strings.h">
<polygon fill="#ffffff" stroke="#000000" points="0,-56.5 0,-86.5 112,-86.5 112,-56.5 0,-56.5"/>
<text text-anchor="start" x="8" y="-74.5" font-family="Helvetica,sans-Serif" font-size="10.00" fill="#000000">jaegertracingc/internal</text>
<text text-anchor="middle" x="56" y="-63.5" font-family="Helvetica,sans-Serif" font-size="10.00" fill="#000000">/strings.h</text>
</a>
</g>
</g>
<!-- Node21&#45;&gt;Node22 -->
<g id="edge2" class="edge">
<title>Node21&#45;&gt;Node22</title>
<path fill="none" stroke="#191970" d="M91.509,-225.5205C83.4696,-190.6495 66.7814,-118.2644 59.5118,-86.7325"/>
<polygon fill="#191970" stroke="#191970" points="88.1353,-226.4667 93.7924,-235.4248 94.9564,-224.894 88.1353,-226.4667"/>
</g>
<!-- Node21&#45;&gt;Node24 -->
<g id="edge4" class="edge">
<title>Node21&#45;&gt;Node24</title>
<path fill="none" stroke="#191970" d="M121.1005,-230.0465C137.826,-220.0824 159.3168,-207.2794 173.8141,-198.6427"/>
<polygon fill="#191970" stroke="#191970" points="119.1732,-227.1206 112.3736,-235.2455 122.7559,-233.1343 119.1732,-227.1206"/>
</g>
<!-- Node23 -->
<g id="node4" class="node">
<title>Node23</title>
<g id="a_node4"><a xlink:href="propagation_8c.html" target="_top" xlink:title="Trace ID representation. ">
<polygon fill="#ffffff" stroke="#000000" points="70.5,-.5 70.5,-19.5 209.5,-19.5 209.5,-.5 70.5,-.5"/>
<text text-anchor="middle" x="140" y="-7.5" font-family="Helvetica,sans-Serif" font-size="10.00" fill="#000000">jaegertracingc/propagation.c</text>
</a>
</g>
</g>
<!-- Node22&#45;&gt;Node23 -->
<g id="edge3" class="edge">
<title>Node22&#45;&gt;Node23</title>
<path fill="none" stroke="#191970" d="M85.183,-50.1339C99.2476,-39.8366 115.4331,-27.9865 126.5505,-19.8469"/>
<polygon fill="#191970" stroke="#191970" points="82.7651,-47.5663 76.7641,-56.2977 86.9003,-53.2143 82.7651,-47.5663"/>
</g>
<!-- Node24&#45;&gt;Node23 -->
<g id="edge6" class="edge">
<title>Node24&#45;&gt;Node23</title>
<path fill="none" stroke="#191970" d="M175.9764,-171.4219C170.1361,-163.2291 163.8346,-153.0779 160,-143 143.3095,-99.1348 140.4989,-42.1611 140.0616,-19.705"/>
<polygon fill="#191970" stroke="#191970" points="173.1948,-173.5464 181.9943,-179.4472 178.7951,-169.3469 173.1948,-173.5464"/>
</g>
<!-- Node25 -->
<g id="node6" class="node">
<title>Node25</title>
<g id="a_node6"><a xlink:href="baggage_8h.html" target="_top" xlink:title="Baggage restriction utilities. ">
<polygon fill="#ffffff" stroke="#000000" points="168.5,-123.5 168.5,-142.5 293.5,-142.5 293.5,-123.5 168.5,-123.5"/>
<text text-anchor="middle" x="231" y="-130.5" font-family="Helvetica,sans-Serif" font-size="10.00" fill="#000000">jaegertracingc/baggage.h</text>
</a>
</g>
</g>
<!-- Node24&#45;&gt;Node25 -->
<g id="edge5" class="edge">
<title>Node24&#45;&gt;Node25</title>
<path fill="none" stroke="#191970" d="M203.2364,-170.9209C210.1211,-161.5176 218.2609,-150.3997 223.9402,-142.6427"/>
<polygon fill="#191970" stroke="#191970" points="200.2251,-169.1093 197.1417,-179.2455 205.8731,-173.2445 200.2251,-169.1093"/>
</g>
<!-- Node26 -->
<g id="node7" class="node">
<title>Node26</title>
<g id="a_node7"><a xlink:href="reporter_8h.html" target="_top" xlink:title="Span reporter interface. ">
<polygon fill="#ffffff" stroke="#000000" points="312,-123.5 312,-142.5 434,-142.5 434,-123.5 312,-123.5"/>
<text text-anchor="middle" x="373" y="-130.5" font-family="Helvetica,sans-Serif" font-size="10.00" fill="#000000">jaegertracingc/reporter.h</text>
</a>
</g>
</g>
<!-- Node24&#45;&gt;Node26 -->
<g id="edge7" class="edge">
<title>Node24&#45;&gt;Node26</title>
<path fill="none" stroke="#191970" d="M231.425,-176.3235C264.9856,-166.0536 311.534,-151.8093 341.9517,-142.5011"/>
<polygon fill="#191970" stroke="#191970" points="229.9969,-173.1002 221.4588,-179.3733 232.0453,-179.7938 229.9969,-173.1002"/>
</g>
<!-- Node27 -->
<g id="node8" class="node">
<title>Node27</title>
<g id="a_node8"><a xlink:href="tracer_8h.html" target="_top" xlink:title="Tracer implementation. ">
<polygon fill="#ffffff" stroke="#000000" points="242.5,-62 242.5,-81 355.5,-81 355.5,-62 242.5,-62"/>
<text text-anchor="middle" x="299" y="-69" font-family="Helvetica,sans-Serif" font-size="10.00" fill="#000000">jaegertracingc/tracer.h</text>
</a>
</g>
</g>
<!-- Node26&#45;&gt;Node27 -->
<g id="edge8" class="edge">
<title>Node26&#45;&gt;Node27</title>
<path fill="none" stroke="#191970" d="M353.5906,-116.8692C339.9799,-105.5576 322.2302,-90.8062 310.7255,-81.2449"/>
<polygon fill="#191970" stroke="#191970" points="351.5097,-119.6907 361.4375,-123.3906 355.9838,-114.3072 351.5097,-119.6907"/>
</g>
<!-- Node27&#45;&gt;Node23 -->
<g id="edge9" class="edge">
<title>Node27&#45;&gt;Node23</title>
<path fill="none" stroke="#191970" d="M264.4795,-58.1477C234.3718,-46.5023 191.4363,-29.8952 164.6693,-19.5419"/>
<polygon fill="#191970" stroke="#191970" points="263.567,-61.5474 274.1563,-61.8906 266.0922,-55.0188 263.567,-61.5474"/>
</g>
</g>
</svg>
