<?xml version="1.0" encoding="UTF-8" standalone="no"?>
<!DOCTYPE svg PUBLIC "-//W3C//DTD SVG 1.1//EN"
 "http://www.w3.org/Graphics/SVG/1.1/DTD/svg11.dtd">
<!-- Generated by graphviz version 2.40.1 (20161225.0304)
 -->
<!-- Title: jaegertracingc/key_value.h Pages: 1 -->
<svg width="1149pt" height="319pt"
 viewBox="0.00 0.00 1148.98 319.00" xmlns="http://www.w3.org/2000/svg" xmlns:xlink="http://www.w3.org/1999/xlink">
<g id="graph0" class="graph" transform="scale(1 1) rotate(0) translate(4 315)">
<title>jaegertracingc/key_value.h</title>
<polygon fill="#ffffff" stroke="transparent" points="-4,4 -4,-315 1144.975,-315 1144.975,4 -4,4"/>
<!-- Node0 -->
<g id="node1" class="node">
<title>Node0</title>
<polygon fill="#bfbfbf" stroke="#000000" points="476.8443,-280.5 476.8443,-310.5 572.8443,-310.5 572.8443,-280.5 476.8443,-280.5"/>
<text text-anchor="start" x="484.8443" y="-298.5" font-family="Helvetica,sans-Serif" font-size="10.00" fill="#000000">jaegertracingc/key</text>
<text text-anchor="middle" x="524.8443" y="-287.5" font-family="Helvetica,sans-Serif" font-size="10.00" fill="#000000">_value.h</text>
</g>
<!-- Node1 -->
<g id="node2" class="node">
<title>Node1</title>
<g id="a_node2"><a xlink:href="alloc_8h.html" target="_top" xlink:title="Allocator struct and functions. ">
<polygon fill="#ffffff" stroke="#000000" points="15.3443,-112.5 15.3443,-131.5 124.3443,-131.5 124.3443,-112.5 15.3443,-112.5"/>
<text text-anchor="middle" x="69.8443" y="-119.5" font-family="Helvetica,sans-Serif" font-size="10.00" fill="#000000">jaegertracingc/alloc.h</text>
</a>
</g>
</g>
<!-- Node0&#45;&gt;Node1 -->
<g id="edge1" class="edge">
<title>Node0&#45;&gt;Node1</title>
<path fill="none" stroke="#191970" d="M485.262,-280.4065C397.3784,-246.8948 187.2083,-166.7531 104.3091,-135.1421"/>
<polygon fill="#191970" stroke="#191970" points="105.4379,-131.8267 94.8471,-131.534 102.9438,-138.3673 105.4379,-131.8267"/>
</g>
<!-- Node5 -->
<g id="node6" class="node">
<title>Node5</title>
<g id="a_node6"><a xlink:href="logging_8h.html" target="_top" xlink:title="Logging interface and initialization functions. ">
<polygon fill="#ffffff" stroke="#000000" points="1008.3443,-56.5 1008.3443,-75.5 1127.3443,-75.5 1127.3443,-56.5 1008.3443,-56.5"/>
<text text-anchor="middle" x="1067.8443" y="-63.5" font-family="Helvetica,sans-Serif" font-size="10.00" fill="#000000">jaegertracingc/logging.h</text>
</a>
</g>
</g>
<!-- Node0&#45;&gt;Node5 -->
<g id="edge26" class="edge">
<title>Node0&#45;&gt;Node5</title>
<path fill="none" stroke="#191970" d="M573.132,-290.0951C667.9617,-277.3908 881.5703,-238.2429 1022.8443,-132 1039.2344,-119.6741 1051.7044,-99.5661 1059.3142,-84.7792"/>
<polygon fill="#191970" stroke="#191970" points="1062.5745,-86.0777 1063.7946,-75.5533 1056.2777,-83.0198 1062.5745,-86.0777"/>
</g>
<!-- Node8 -->
<g id="node9" class="node">
<title>Node8</title>
<g id="a_node9"><a xlink:href="common_8h.html" target="_top" xlink:title="Common headers, struct definitions, and macros. ">
<polygon fill="#ffffff" stroke="#000000" points="462.8443,-168.5 462.8443,-187.5 588.8443,-187.5 588.8443,-168.5 462.8443,-168.5"/>
<text text-anchor="middle" x="525.8443" y="-175.5" font-family="Helvetica,sans-Serif" font-size="10.00" fill="#000000">jaegertracingc/common.h</text>
</a>
</g>
</g>
<!-- Node0&#45;&gt;Node8 -->
<g id="edge8" class="edge">
<title>Node0&#45;&gt;Node8</title>
<path fill="none" stroke="#191970" d="M535.1179,-280.3937C543.5986,-266.0819 553.5373,-243.88 548.8443,-224 546.5737,-214.3814 541.9668,-204.4809 537.4684,-196.3404"/>
<polygon fill="#191970" stroke="#191970" points="540.4773,-194.5524 532.384,-187.7151 534.447,-198.1071 540.4773,-194.5524"/>
</g>
<!-- Node19 -->
<g id="node20" class="node">
<title>Node19</title>
<g id="a_node20"><a xlink:href="vector_8h.html" target="_top" xlink:title="C generic vector implementation. ">
<polygon fill="#ffffff" stroke="#000000" points="423.8443,-224.5 423.8443,-243.5 539.8443,-243.5 539.8443,-224.5 423.8443,-224.5"/>
<text text-anchor="middle" x="481.8443" y="-231.5" font-family="Helvetica,sans-Serif" font-size="10.00" fill="#000000">jaegertracingc/vector.h</text>
</a>
</g>
</g>
<!-- Node0&#45;&gt;Node19 -->
<g id="edge27" class="edge">
<title>Node0&#45;&gt;Node19</title>
<path fill="none" stroke="#191970" d="M514.2151,-280.2977C508.2463,-271.7609 500.7605,-261.0545 494.4914,-252.0883"/>
<polygon fill="#191970" stroke="#191970" points="497.3278,-250.0368 488.7292,-243.8469 491.5909,-254.048 497.3278,-250.0368"/>
</g>
<!-- Node2 -->
<g id="node3" class="node">
<title>Node2</title>
<polygon fill="#ffffff" stroke="#bfbfbf" points="5.8443,-56.5 5.8443,-75.5 57.8443,-75.5 57.8443,-56.5 5.8443,-56.5"/>
<text text-anchor="middle" x="31.8443" y="-63.5" font-family="Helvetica,sans-Serif" font-size="10.00" fill="#000000">assert.h</text>
</g>
<!-- Node1&#45;&gt;Node2 -->
<g id="edge2" class="edge">
<title>Node1&#45;&gt;Node2</title>
<path fill="none" stroke="#191970" d="M63.2252,-112.2455C57.9397,-104.4564 50.3902,-93.3308 44.0206,-83.9439"/>
<polygon fill="#191970" stroke="#191970" points="46.8988,-81.9522 38.3876,-75.6427 41.1064,-85.8827 46.8988,-81.9522"/>
</g>
<!-- Node3 -->
<g id="node4" class="node">
<title>Node3</title>
<polygon fill="#ffffff" stroke="#bfbfbf" points="83.3443,-56.5 83.3443,-75.5 132.3443,-75.5 132.3443,-56.5 83.3443,-56.5"/>
<text text-anchor="middle" x="107.8443" y="-63.5" font-family="Helvetica,sans-Serif" font-size="10.00" fill="#000000">stdint.h</text>
</g>
<!-- Node1&#45;&gt;Node3 -->
<g id="edge3" class="edge">
<title>Node1&#45;&gt;Node3</title>
<path fill="none" stroke="#191970" d="M76.4634,-112.2455C81.7489,-104.4564 89.2984,-93.3308 95.6681,-83.9439"/>
<polygon fill="#191970" stroke="#191970" points="98.5822,-85.8827 101.3011,-75.6427 92.7898,-81.9522 98.5822,-85.8827"/>
</g>
<!-- Node4 -->
<g id="node5" class="node">
<title>Node4</title>
<polygon fill="#ffffff" stroke="#bfbfbf" points="436.3443,-56.5 436.3443,-75.5 485.3443,-75.5 485.3443,-56.5 436.3443,-56.5"/>
<text text-anchor="middle" x="460.8443" y="-63.5" font-family="Helvetica,sans-Serif" font-size="10.00" fill="#000000">string.h</text>
</g>
<!-- Node1&#45;&gt;Node4 -->
<g id="edge4" class="edge">
<title>Node1&#45;&gt;Node4</title>
<path fill="none" stroke="#191970" d="M124.6229,-114.1545C206.2186,-102.4681 357.387,-80.8174 425.7048,-71.0328"/>
<polygon fill="#191970" stroke="#191970" points="426.532,-74.4501 435.9348,-69.5676 425.5395,-67.5208 426.532,-74.4501"/>
</g>
<!-- Node1&#45;&gt;Node5 -->
<g id="edge5" class="edge">
<title>Node1&#45;&gt;Node5</title>
<path fill="none" stroke="#191970" d="M124.5865,-116.0818C139.8685,-114.5797 156.4915,-113.0859 171.8443,-112 535.516,-86.2765 630.8395,-109.991 997.942,-75.9852"/>
<polygon fill="#191970" stroke="#191970" points="998.4182,-79.4561 1008.0492,-75.0408 997.7669,-72.4864 998.4182,-79.4561"/>
</g>
<!-- Node6 -->
<g id="node7" class="node">
<title>Node6</title>
<polygon fill="#ffffff" stroke="#bfbfbf" points="937.8443,-.5 937.8443,-19.5 989.8443,-19.5 989.8443,-.5 937.8443,-.5"/>
<text text-anchor="middle" x="963.8443" y="-7.5" font-family="Helvetica,sans-Serif" font-size="10.00" fill="#000000">stdarg.h</text>
</g>
<!-- Node5&#45;&gt;Node6 -->
<g id="edge6" class="edge">
<title>Node5&#45;&gt;Node6</title>
<path fill="none" stroke="#191970" d="M1049.7289,-56.2455C1033.3993,-47.4527 1009.1733,-34.4079 990.6104,-24.4125"/>
<polygon fill="#191970" stroke="#191970" points="992.2162,-21.3021 981.7521,-19.6427 988.8975,-27.4654 992.2162,-21.3021"/>
</g>
<!-- Node7 -->
<g id="node8" class="node">
<title>Node7</title>
<polygon fill="#ffffff" stroke="#bfbfbf" points="1088.8443,-.5 1088.8443,-19.5 1134.8443,-19.5 1134.8443,-.5 1088.8443,-.5"/>
<text text-anchor="middle" x="1111.8443" y="-7.5" font-family="Helvetica,sans-Serif" font-size="10.00" fill="#000000">stdio.h</text>
</g>
<!-- Node5&#45;&gt;Node7 -->
<g id="edge7" class="edge">
<title>Node5&#45;&gt;Node7</title>
<path fill="none" stroke="#191970" d="M1075.5085,-56.2455C1081.6916,-48.3761 1090.5507,-37.101 1097.9732,-27.6542"/>
<polygon fill="#191970" stroke="#191970" points="1100.8418,-29.6683 1104.2679,-19.6427 1095.3376,-25.3435 1100.8418,-29.6683"/>
</g>
<!-- Node8&#45;&gt;Node1 -->
<g id="edge24" class="edge">
<title>Node8&#45;&gt;Node1</title>
<path fill="none" stroke="#191970" d="M462.7727,-171.0054C386.1208,-162.3888 252.8798,-147.0382 138.8443,-132 137.3818,-131.8071 135.9021,-131.61 134.4102,-131.4093"/>
<polygon fill="#191970" stroke="#191970" points="134.8221,-127.9331 124.4397,-130.0441 133.8724,-134.8684 134.8221,-127.9331"/>
</g>
<!-- Node8&#45;&gt;Node2 -->
<g id="edge11" class="edge">
<title>Node8&#45;&gt;Node2</title>
<path fill="none" stroke="#191970" d="M462.5282,-177.0819C330.6374,-174.5115 36.1367,-165.0904 5.8443,-132 -6.6683,-118.3316 4.5104,-97.9298 15.8531,-83.432"/>
<polygon fill="#191970" stroke="#191970" points="18.6188,-85.5812 22.3727,-75.6736 13.2597,-81.0778 18.6188,-85.5812"/>
</g>
<!-- Node8&#45;&gt;Node3 -->
<g id="edge18" class="edge">
<title>Node8&#45;&gt;Node3</title>
<path fill="none" stroke="#191970" d="M462.476,-172.0513C367.6571,-162.8066 197.222,-144.7318 171.8443,-132 149.9011,-120.9913 131.2224,-99.3855 119.8068,-83.8909"/>
<polygon fill="#191970" stroke="#191970" points="122.5811,-81.7518 113.955,-75.6003 116.8622,-85.7885 122.5811,-81.7518"/>
</g>
<!-- Node8&#45;&gt;Node4 -->
<g id="edge21" class="edge">
<title>Node8&#45;&gt;Node4</title>
<path fill="none" stroke="#191970" d="M589.109,-175.7841C657.5955,-171.8975 760.3506,-161.2272 784.8443,-132 790.5538,-125.1872 790.6712,-118.7126 784.8443,-112 766.0427,-90.3404 575.3065,-74.2295 495.5793,-68.3904"/>
<polygon fill="#191970" stroke="#191970" points="495.7633,-64.8947 485.5375,-67.6664 495.2599,-71.8765 495.7633,-64.8947"/>
</g>
<!-- Node8&#45;&gt;Node5 -->
<g id="edge25" class="edge">
<title>Node8&#45;&gt;Node5</title>
<path fill="none" stroke="#191970" d="M589.1164,-176.673C699.8479,-173.5493 923.7629,-163.4387 994.8443,-132 1019.1027,-121.2707 1040.786,-99.2817 1054.0958,-83.6357"/>
<polygon fill="#191970" stroke="#191970" points="1056.9611,-85.6612 1060.5919,-75.7079 1051.5466,-81.2245 1056.9611,-85.6612"/>
</g>
<!-- Node8&#45;&gt;Node6 -->
<g id="edge15" class="edge">
<title>Node8&#45;&gt;Node6</title>
<path fill="none" stroke="#191970" d="M589.0188,-172.9444C658.9108,-166.4009 766.2471,-153.2476 800.8443,-132 836.5972,-110.0426 823.9808,-82.0842 856.8443,-56 877.8579,-39.3213 905.8314,-27.5748 927.9059,-20.1281"/>
<polygon fill="#191970" stroke="#191970" points="929.1433,-23.4067 937.5869,-17.007 926.9953,-16.7443 929.1433,-23.4067"/>
</g>
<!-- Node8&#45;&gt;Node7 -->
<g id="edge19" class="edge">
<title>Node8&#45;&gt;Node7</title>
<path fill="none" stroke="#191970" d="M588.9356,-175.0167C703.8683,-169.1095 942.8745,-154.5158 1022.8443,-132 1077.1814,-116.7012 1106.9981,-123.9142 1136.8443,-76 1146.1974,-60.9848 1137.0495,-41.914 1127.2935,-28.1377"/>
<polygon fill="#191970" stroke="#191970" points="1129.8582,-25.7315 1120.9831,-19.9451 1124.3125,-30.0032 1129.8582,-25.7315"/>
</g>
<!-- Node9 -->
<g id="node10" class="node">
<title>Node9</title>
<g id="a_node10"><a xlink:href="config_8h_source.html" target="_top" xlink:title="jaegertracingc/config.h">
<polygon fill="#ffffff" stroke="#000000" points="870.3443,-112.5 870.3443,-131.5 985.3443,-131.5 985.3443,-112.5 870.3443,-112.5"/>
<text text-anchor="middle" x="927.8443" y="-119.5" font-family="Helvetica,sans-Serif" font-size="10.00" fill="#000000">jaegertracingc/config.h</text>
</a>
</g>
</g>
<!-- Node8&#45;&gt;Node9 -->
<g id="edge9" class="edge">
<title>Node8&#45;&gt;Node9</title>
<path fill="none" stroke="#191970" d="M589.099,-169.1884C662.8002,-158.9216 784.1089,-142.0228 859.8017,-131.4786"/>
<polygon fill="#191970" stroke="#191970" points="860.7484,-134.8806 870.1698,-130.0343 859.7826,-127.9475 860.7484,-134.8806"/>
</g>
<!-- Node11 -->
<g id="node12" class="node">
<title>Node11</title>
<polygon fill="#ffffff" stroke="#bfbfbf" points="181.3443,-112.5 181.3443,-131.5 230.3443,-131.5 230.3443,-112.5 181.3443,-112.5"/>
<text text-anchor="middle" x="205.8443" y="-119.5" font-family="Helvetica,sans-Serif" font-size="10.00" fill="#000000">ctype.h</text>
</g>
<!-- Node8&#45;&gt;Node11 -->
<g id="edge12" class="edge">
<title>Node8&#45;&gt;Node11</title>
<path fill="none" stroke="#191970" d="M462.666,-170.3745C406.4806,-163.0267 321.9786,-150.5906 240.5293,-132.1742"/>
<polygon fill="#191970" stroke="#191970" points="241.1433,-128.7242 230.6137,-129.8986 239.5774,-135.5468 241.1433,-128.7242"/>
</g>
<!-- Node12 -->
<g id="node13" class="node">
<title>Node12</title>
<polygon fill="#ffffff" stroke="#bfbfbf" points="248.3443,-112.5 248.3443,-131.5 307.3443,-131.5 307.3443,-112.5 248.3443,-112.5"/>
<text text-anchor="middle" x="277.8443" y="-119.5" font-family="Helvetica,sans-Serif" font-size="10.00" fill="#000000">inttypes.h</text>
</g>
<!-- Node8&#45;&gt;Node12 -->
<g id="edge13" class="edge">
<title>Node8&#45;&gt;Node12</title>
<path fill="none" stroke="#191970" d="M480.4876,-168.4871C440.2372,-159.9395 379.5925,-146.8044 317.5887,-132.119"/>
<polygon fill="#191970" stroke="#191970" points="318.1673,-128.659 307.6287,-129.7492 316.547,-135.4689 318.1673,-128.659"/>
</g>
<!-- Node13 -->
<g id="node14" class="node">
<title>Node13</title>
<polygon fill="#ffffff" stroke="#bfbfbf" points="325.8443,-112.5 325.8443,-131.5 373.8443,-131.5 373.8443,-112.5 325.8443,-112.5"/>
<text text-anchor="middle" x="349.8443" y="-119.5" font-family="Helvetica,sans-Serif" font-size="10.00" fill="#000000">limits.h</text>
</g>
<!-- Node8&#45;&gt;Node13 -->
<g id="edge14" class="edge">
<title>Node8&#45;&gt;Node13</title>
<path fill="none" stroke="#191970" d="M495.5888,-168.3733C464.549,-158.4969 416.3482,-143.1603 383.9678,-132.8575"/>
<polygon fill="#191970" stroke="#191970" points="384.6428,-129.3994 374.0523,-129.7026 382.5204,-136.0699 384.6428,-129.3994"/>
</g>
<!-- Node14 -->
<g id="node15" class="node">
<title>Node14</title>
<polygon fill="#ffffff" stroke="#bfbfbf" points="391.8443,-112.5 391.8443,-131.5 447.8443,-131.5 447.8443,-112.5 391.8443,-112.5"/>
<text text-anchor="middle" x="419.8443" y="-119.5" font-family="Helvetica,sans-Serif" font-size="10.00" fill="#000000">stdbool.h</text>
</g>
<!-- Node8&#45;&gt;Node14 -->
<g id="edge16" class="edge">
<title>Node8&#45;&gt;Node14</title>
<path fill="none" stroke="#191970" d="M507.3805,-168.2455C490.7369,-159.4527 466.045,-146.4079 447.1251,-136.4125"/>
<polygon fill="#191970" stroke="#191970" points="448.5734,-133.2193 438.0965,-131.6427 445.3035,-139.4086 448.5734,-133.2193"/>
</g>
<!-- Node15 -->
<g id="node16" class="node">
<title>Node15</title>
<polygon fill="#ffffff" stroke="#bfbfbf" points="465.8443,-112.5 465.8443,-131.5 517.8443,-131.5 517.8443,-112.5 465.8443,-112.5"/>
<text text-anchor="middle" x="491.8443" y="-119.5" font-family="Helvetica,sans-Serif" font-size="10.00" fill="#000000">stddef.h</text>
</g>
<!-- Node8&#45;&gt;Node15 -->
<g id="edge17" class="edge">
<title>Node8&#45;&gt;Node15</title>
<path fill="none" stroke="#191970" d="M519.922,-168.2455C515.2416,-160.5367 508.5771,-149.5598 502.9155,-140.2348"/>
<polygon fill="#191970" stroke="#191970" points="505.8804,-138.3741 497.6988,-131.6427 499.8969,-142.007 505.8804,-138.3741"/>
</g>
<!-- Node16 -->
<g id="node17" class="node">
<title>Node16</title>
<polygon fill="#ffffff" stroke="#bfbfbf" points="535.8443,-112.5 535.8443,-131.5 583.8443,-131.5 583.8443,-112.5 535.8443,-112.5"/>
<text text-anchor="middle" x="559.8443" y="-119.5" font-family="Helvetica,sans-Serif" font-size="10.00" fill="#000000">stdlib.h</text>
</g>
<!-- Node8&#45;&gt;Node16 -->
<g id="edge20" class="edge">
<title>Node8&#45;&gt;Node16</title>
<path fill="none" stroke="#191970" d="M531.7667,-168.2455C536.447,-160.5367 543.1116,-149.5598 548.7732,-140.2348"/>
<polygon fill="#191970" stroke="#191970" points="551.7918,-142.007 553.9898,-131.6427 545.8082,-138.3741 551.7918,-142.007"/>
</g>
<!-- Node17 -->
<g id="node18" class="node">
<title>Node17</title>
<polygon fill="#ffffff" stroke="#bfbfbf" points="601.8443,-112.5 601.8443,-131.5 645.8443,-131.5 645.8443,-112.5 601.8443,-112.5"/>
<text text-anchor="middle" x="623.8443" y="-119.5" font-family="Helvetica,sans-Serif" font-size="10.00" fill="#000000">time.h</text>
</g>
<!-- Node8&#45;&gt;Node17 -->
<g id="edge22" class="edge">
<title>Node8&#45;&gt;Node17</title>
<path fill="none" stroke="#191970" d="M542.9146,-168.2455C558.0914,-159.5731 580.5064,-146.7645 597.9006,-136.825"/>
<polygon fill="#191970" stroke="#191970" points="600.0237,-139.643 606.9696,-131.6427 596.5507,-133.5653 600.0237,-139.643"/>
</g>
<!-- Node18 -->
<g id="node19" class="node">
<title>Node18</title>
<polygon fill="#ffffff" stroke="#bfbfbf" points="664.3443,-112.5 664.3443,-131.5 775.3443,-131.5 775.3443,-112.5 664.3443,-112.5"/>
<text text-anchor="middle" x="719.8443" y="-119.5" font-family="Helvetica,sans-Serif" font-size="10.00" fill="#000000">opentracing&#45;c/tracer.h</text>
</g>
<!-- Node8&#45;&gt;Node18 -->
<g id="edge23" class="edge">
<title>Node8&#45;&gt;Node18</title>
<path fill="none" stroke="#191970" d="M559.1941,-168.3733C591.8723,-158.9404 641.8061,-144.5265 677.3213,-134.2747"/>
<polygon fill="#191970" stroke="#191970" points="678.2927,-137.6373 686.9297,-131.5011 676.3513,-130.9119 678.2927,-137.6373"/>
</g>
<!-- Node10 -->
<g id="node11" class="node">
<title>Node10</title>
<g id="a_node11"><a xlink:href="visibility_8h_source.html" target="_top" xlink:title="jaegertracingc/visibility.h">
<polygon fill="#ffffff" stroke="#000000" points="865.8443,-56.5 865.8443,-75.5 989.8443,-75.5 989.8443,-56.5 865.8443,-56.5"/>
<text text-anchor="middle" x="927.8443" y="-63.5" font-family="Helvetica,sans-Serif" font-size="10.00" fill="#000000">jaegertracingc/visibility.h</text>
</a>
</g>
</g>
<!-- Node9&#45;&gt;Node10 -->
<g id="edge10" class="edge">
<title>Node9&#45;&gt;Node10</title>
<path fill="none" stroke="#191970" d="M927.8443,-112.2455C927.8443,-104.9382 927.8443,-94.6944 927.8443,-85.7046"/>
<polygon fill="#191970" stroke="#191970" points="931.3444,-85.6426 927.8443,-75.6427 924.3444,-85.6427 931.3444,-85.6426"/>
</g>
<!-- Node19&#45;&gt;Node8 -->
<g id="edge28" class="edge">
<title>Node19&#45;&gt;Node8</title>
<path fill="none" stroke="#191970" d="M489.5085,-224.2455C495.6916,-216.3761 504.5507,-205.101 511.9732,-195.6542"/>
<polygon fill="#191970" stroke="#191970" points="514.8418,-197.6683 518.2679,-187.6427 509.3376,-193.3435 514.8418,-197.6683"/>
</g>
</g>
</svg>
