<?xml version="1.0" encoding="UTF-8" standalone="no"?>
<!DOCTYPE svg PUBLIC "-//W3C//DTD SVG 1.1//EN"
 "http://www.w3.org/Graphics/SVG/1.1/DTD/svg11.dtd">
<!-- Generated by graphviz version 2.40.1 (20161225.0304)
 -->
<!-- Title: jaegertracingc/key_value.h Pages: 1 -->
<svg width="363pt" height="263pt"
 viewBox="0.00 0.00 362.50 263.00" xmlns="http://www.w3.org/2000/svg" xmlns:xlink="http://www.w3.org/1999/xlink">
<g id="graph0" class="graph" transform="scale(1 1) rotate(0) translate(4 259)">
<title>jaegertracingc/key_value.h</title>
<polygon fill="#ffffff" stroke="transparent" points="-4,4 -4,-259 358.5,-259 358.5,4 -4,4"/>
<!-- Node20 -->
<g id="node1" class="node">
<title>Node20</title>
<polygon fill="#bfbfbf" stroke="#000000" points="86.5,-224.5 86.5,-254.5 182.5,-254.5 182.5,-224.5 86.5,-224.5"/>
<text text-anchor="start" x="94.5" y="-242.5" font-family="Helvetica,sans-Serif" font-size="10.00" fill="#000000">jaegertracingc/key</text>
<text text-anchor="middle" x="134.5" y="-231.5" font-family="Helvetica,sans-Serif" font-size="10.00" fill="#000000">_value.h</text>
</g>
<!-- Node21 -->
<g id="node2" class="node">
<title>Node21</title>
<g id="a_node2"><a xlink:href="hashtable_8h.html" target="_top" xlink:title="Hashtable data structure. ">
<polygon fill="#ffffff" stroke="#000000" points="0,-168.5 0,-187.5 131,-187.5 131,-168.5 0,-168.5"/>
<text text-anchor="middle" x="65.5" y="-175.5" font-family="Helvetica,sans-Serif" font-size="10.00" fill="#000000">jaegertracingc/hashtable.h</text>
</a>
</g>
</g>
<!-- Node20&#45;&gt;Node21 -->
<g id="edge1" class="edge">
<title>Node20&#45;&gt;Node21</title>
<path fill="none" stroke="#191970" d="M109.8725,-217.5494C98.475,-207.3907 85.5077,-195.8329 76.5478,-187.8469"/>
<polygon fill="#191970" stroke="#191970" points="107.6498,-220.2568 117.4438,-224.2977 112.3075,-215.0312 107.6498,-220.2568"/>
</g>
<!-- Node22 -->
<g id="node3" class="node">
<title>Node22</title>
<g id="a_node3"><a xlink:href="span_8h.html" target="_top" xlink:title="Span, span context, and span ref representations and functions. ">
<polygon fill="#ffffff" stroke="#000000" points="149.5,-168.5 149.5,-187.5 259.5,-187.5 259.5,-168.5 149.5,-168.5"/>
<text text-anchor="middle" x="204.5" y="-175.5" font-family="Helvetica,sans-Serif" font-size="10.00" fill="#000000">jaegertracingc/span.h</text>
</a>
</g>
</g>
<!-- Node20&#45;&gt;Node22 -->
<g id="edge2" class="edge">
<title>Node20&#45;&gt;Node22</title>
<path fill="none" stroke="#191970" d="M159.4844,-217.5494C171.0471,-207.3907 184.2024,-195.8329 193.2921,-187.8469"/>
<polygon fill="#191970" stroke="#191970" points="157.0058,-215.0681 151.8034,-224.2977 161.6259,-220.3269 157.0058,-215.0681"/>
</g>
<!-- Node23 -->
<g id="node4" class="node">
<title>Node23</title>
<g id="a_node4"><a xlink:href="propagation_8c.html" target="_top" xlink:title="Trace ID representation. ">
<polygon fill="#ffffff" stroke="#000000" points="139,-.5 139,-19.5 278,-19.5 278,-.5 139,-.5"/>
<text text-anchor="middle" x="208.5" y="-7.5" font-family="Helvetica,sans-Serif" font-size="10.00" fill="#000000">jaegertracingc/propagation.c</text>
</a>
</g>
</g>
<!-- Node22&#45;&gt;Node23 -->
<g id="edge3" class="edge">
<title>Node22&#45;&gt;Node23</title>
<path fill="none" stroke="#191970" d="M197.0396,-159.0051C188.5817,-134.8581 177.0056,-91.9828 185.5,-56 188.6592,-42.6176 196.3406,-28.6895 201.9603,-19.7151"/>
<polygon fill="#191970" stroke="#191970" points="193.766,-160.2441 200.5144,-168.4117 200.3323,-157.8184 193.766,-160.2441"/>
</g>
<!-- Node24 -->
<g id="node5" class="node">
<title>Node24</title>
<g id="a_node5"><a xlink:href="tracer_8h.html" target="_top" xlink:title="Tracer implementation. ">
<polygon fill="#ffffff" stroke="#000000" points="195,-56.5 195,-75.5 308,-75.5 308,-56.5 195,-56.5"/>
<text text-anchor="middle" x="251.5" y="-63.5" font-family="Helvetica,sans-Serif" font-size="10.00" fill="#000000">jaegertracingc/tracer.h</text>
</a>
</g>
</g>
<!-- Node22&#45;&gt;Node24 -->
<g id="edge4" class="edge">
<title>Node22&#45;&gt;Node24</title>
<path fill="none" stroke="#191970" d="M208.7092,-158.3175C211.9193,-144.9389 216.9115,-127.013 223.5,-112 229.2859,-98.8159 238.2432,-84.8475 244.4625,-75.8095"/>
<polygon fill="#191970" stroke="#191970" points="205.2387,-157.7953 206.4361,-168.3223 212.0648,-159.3463 205.2387,-157.7953"/>
</g>
<!-- Node25 -->
<g id="node6" class="node">
<title>Node25</title>
<g id="a_node6"><a xlink:href="reporter_8h.html" target="_top" xlink:title="Span reporter interface. ">
<polygon fill="#ffffff" stroke="#000000" points="232.5,-112.5 232.5,-131.5 354.5,-131.5 354.5,-112.5 232.5,-112.5"/>
<text text-anchor="middle" x="293.5" y="-119.5" font-family="Helvetica,sans-Serif" font-size="10.00" fill="#000000">jaegertracingc/reporter.h</text>
</a>
</g>
</g>
<!-- Node22&#45;&gt;Node25 -->
<g id="edge6" class="edge">
<title>Node22&#45;&gt;Node25</title>
<path fill="none" stroke="#191970" d="M228.7064,-162.769C244.4775,-152.8456 264.576,-140.1994 278.175,-131.6427"/>
<polygon fill="#191970" stroke="#191970" points="226.6026,-159.9575 220.0026,-168.2455 230.3305,-165.8823 226.6026,-159.9575"/>
</g>
<!-- Node24&#45;&gt;Node23 -->
<g id="edge5" class="edge">
<title>Node24&#45;&gt;Node23</title>
<path fill="none" stroke="#191970" d="M237.8408,-48.2112C230.5737,-38.7472 221.9219,-27.4797 215.9042,-19.6427"/>
<polygon fill="#191970" stroke="#191970" points="235.1436,-50.4456 244.01,-56.2455 240.6957,-46.1824 235.1436,-50.4456"/>
</g>
<!-- Node25&#45;&gt;Node24 -->
<g id="edge7" class="edge">
<title>Node25&#45;&gt;Node24</title>
<path fill="none" stroke="#191970" d="M280.1584,-104.2112C273.0604,-94.7472 264.6097,-83.4797 258.732,-75.6427"/>
<polygon fill="#191970" stroke="#191970" points="277.3841,-106.3455 286.1842,-112.2455 282.9841,-102.1455 277.3841,-106.3455"/>
</g>
</g>
</svg>
