<?xml version="1.0" encoding="UTF-8" standalone="no"?>
<!DOCTYPE svg PUBLIC "-//W3C//DTD SVG 1.1//EN"
 "http://www.w3.org/Graphics/SVG/1.1/DTD/svg11.dtd">
<!-- Generated by graphviz version 2.40.1 (20161225.0304)
 -->
<!-- Title: jaegertracingc/log_record.h Pages: 1 -->
<svg width="1029pt" height="386pt"
 viewBox="0.00 0.00 1028.59 386.00" xmlns="http://www.w3.org/2000/svg" xmlns:xlink="http://www.w3.org/1999/xlink">
<g id="graph0" class="graph" transform="scale(1 1) rotate(0) translate(4 382)">
<title>jaegertracingc/log_record.h</title>
<polygon fill="#ffffff" stroke="transparent" points="-4,4 -4,-382 1024.5924,-382 1024.5924,4 -4,4"/>
<!-- Node0 -->
<g id="node1" class="node">
<title>Node0</title>
<polygon fill="#bfbfbf" stroke="#000000" points="564.4738,-347.5 564.4738,-377.5 657.4738,-377.5 657.4738,-347.5 564.4738,-347.5"/>
<text text-anchor="start" x="572.4738" y="-365.5" font-family="Helvetica,sans-Serif" font-size="10.00" fill="#000000">jaegertracingc/log</text>
<text text-anchor="middle" x="610.9738" y="-354.5" font-family="Helvetica,sans-Serif" font-size="10.00" fill="#000000">_record.h</text>
</g>
<!-- Node1 -->
<g id="node2" class="node">
<title>Node1</title>
<g id="a_node2"><a xlink:href="clock_8h.html" target="_top" xlink:title="Timestamp and duration representations. ">
<polygon fill="#ffffff" stroke="#000000" points="427.9738,-291.5 427.9738,-310.5 539.9738,-310.5 539.9738,-291.5 427.9738,-291.5"/>
<text text-anchor="middle" x="483.9738" y="-298.5" font-family="Helvetica,sans-Serif" font-size="10.00" fill="#000000">jaegertracingc/clock.h</text>
</a>
</g>
</g>
<!-- Node0&#45;&gt;Node1 -->
<g id="edge1" class="edge">
<title>Node0&#45;&gt;Node1</title>
<path fill="none" stroke="#191970" d="M579.9061,-347.4554C559.4593,-337.554 532.88,-324.683 512.8852,-315.0004"/>
<polygon fill="#191970" stroke="#191970" points="514.18,-311.7387 503.6543,-310.5303 511.1291,-318.0388 514.18,-311.7387"/>
</g>
<!-- Node2 -->
<g id="node3" class="node">
<title>Node2</title>
<g id="a_node3"><a xlink:href="common_8h.html" target="_top" xlink:title="Common headers, struct definitions, and macros. ">
<polygon fill="#ffffff" stroke="#000000" points="504.9738,-168.5 504.9738,-187.5 630.9738,-187.5 630.9738,-168.5 504.9738,-168.5"/>
<text text-anchor="middle" x="567.9738" y="-175.5" font-family="Helvetica,sans-Serif" font-size="10.00" fill="#000000">jaegertracingc/common.h</text>
</a>
</g>
</g>
<!-- Node0&#45;&gt;Node2 -->
<g id="edge26" class="edge">
<title>Node0&#45;&gt;Node2</title>
<path fill="none" stroke="#191970" d="M607.4549,-347.4016C599.7113,-314.1761 581.1981,-234.7418 572.5592,-197.6748"/>
<polygon fill="#191970" stroke="#191970" points="575.8966,-196.5741 570.218,-187.6295 569.0793,-198.163 575.8966,-196.5741"/>
</g>
<!-- Node20 -->
<g id="node21" class="node">
<title>Node20</title>
<g id="a_node21"><a xlink:href="tag_8h.html" target="_top" xlink:title="Tag representation and functions. ">
<polygon fill="#ffffff" stroke="#000000" points="688.9738,-291.5 688.9738,-310.5 790.9738,-310.5 790.9738,-291.5 688.9738,-291.5"/>
<text text-anchor="middle" x="739.9738" y="-298.5" font-family="Helvetica,sans-Serif" font-size="10.00" fill="#000000">jaegertracingc/tag.h</text>
</a>
</g>
</g>
<!-- Node0&#45;&gt;Node20 -->
<g id="edge27" class="edge">
<title>Node0&#45;&gt;Node20</title>
<path fill="none" stroke="#191970" d="M642.5307,-347.4554C663.3939,-337.509 690.5429,-324.5659 710.8835,-314.8686"/>
<polygon fill="#191970" stroke="#191970" points="712.4629,-317.9931 719.9833,-310.5303 709.4505,-311.6744 712.4629,-317.9931"/>
</g>
<!-- Node23 -->
<g id="node24" class="node">
<title>Node23</title>
<g id="a_node24"><a xlink:href="vector_8h.html" target="_top" xlink:title="C generic vector implementation. ">
<polygon fill="#ffffff" stroke="#000000" points="595.9738,-230 595.9738,-249 711.9738,-249 711.9738,-230 595.9738,-230"/>
<text text-anchor="middle" x="653.9738" y="-237" font-family="Helvetica,sans-Serif" font-size="10.00" fill="#000000">jaegertracingc/vector.h</text>
</a>
</g>
</g>
<!-- Node0&#45;&gt;Node23 -->
<g id="edge34" class="edge">
<title>Node0&#45;&gt;Node23</title>
<path fill="none" stroke="#191970" d="M616.2464,-347.4178C624.0606,-325.0657 638.7119,-283.1559 647.2755,-258.6602"/>
<polygon fill="#191970" stroke="#191970" points="650.6392,-259.6441 650.6354,-249.0493 644.0313,-257.334 650.6392,-259.6441"/>
</g>
<!-- Node1&#45;&gt;Node2 -->
<g id="edge2" class="edge">
<title>Node1&#45;&gt;Node2</title>
<path fill="none" stroke="#191970" d="M490.5651,-291.3484C504.6115,-270.7804 537.6794,-222.3596 555.716,-195.9489"/>
<polygon fill="#191970" stroke="#191970" points="558.6637,-197.8387 561.413,-187.6068 552.8831,-193.8909 558.6637,-197.8387"/>
</g>
<!-- Node3 -->
<g id="node4" class="node">
<title>Node3</title>
<g id="a_node4"><a xlink:href="config_8h_source.html" target="_top" xlink:title="jaegertracingc/config.h">
<polygon fill="#ffffff" stroke="#000000" points="228.4738,-112.5 228.4738,-131.5 343.4738,-131.5 343.4738,-112.5 228.4738,-112.5"/>
<text text-anchor="middle" x="285.9738" y="-119.5" font-family="Helvetica,sans-Serif" font-size="10.00" fill="#000000">jaegertracingc/config.h</text>
</a>
</g>
</g>
<!-- Node2&#45;&gt;Node3 -->
<g id="edge3" class="edge">
<title>Node2&#45;&gt;Node3</title>
<path fill="none" stroke="#191970" d="M519.8167,-168.4369C471.149,-158.7724 395.9163,-143.8326 343.9916,-133.5213"/>
<polygon fill="#191970" stroke="#191970" points="344.4225,-130.0386 333.9323,-131.5237 343.059,-136.9045 344.4225,-130.0386"/>
</g>
<!-- Node5 -->
<g id="node6" class="node">
<title>Node5</title>
<polygon fill="#ffffff" stroke="#bfbfbf" points="521.9738,-56.5 521.9738,-75.5 573.9738,-75.5 573.9738,-56.5 521.9738,-56.5"/>
<text text-anchor="middle" x="547.9738" y="-63.5" font-family="Helvetica,sans-Serif" font-size="10.00" fill="#000000">assert.h</text>
</g>
<!-- Node2&#45;&gt;Node5 -->
<g id="edge5" class="edge">
<title>Node2&#45;&gt;Node5</title>
<path fill="none" stroke="#191970" d="M558.3246,-168.4346C550.3238,-159.7723 539.5476,-146.2221 534.9738,-132 530.0084,-116.5603 534.256,-98.4492 539.182,-85.1088"/>
<polygon fill="#191970" stroke="#191970" points="542.5369,-86.1541 543.115,-75.575 536.0659,-83.4845 542.5369,-86.1541"/>
</g>
<!-- Node6 -->
<g id="node7" class="node">
<title>Node6</title>
<polygon fill="#ffffff" stroke="#bfbfbf" points="17.4738,-112.5 17.4738,-131.5 66.4738,-131.5 66.4738,-112.5 17.4738,-112.5"/>
<text text-anchor="middle" x="41.9738" y="-119.5" font-family="Helvetica,sans-Serif" font-size="10.00" fill="#000000">ctype.h</text>
</g>
<!-- Node2&#45;&gt;Node6 -->
<g id="edge6" class="edge">
<title>Node2&#45;&gt;Node6</title>
<path fill="none" stroke="#191970" d="M504.7476,-176.163C412.3133,-172.5837 234.9122,-162.331 76.6214,-132.0088"/>
<polygon fill="#191970" stroke="#191970" points="77.1896,-128.5538 66.705,-130.0777 75.8515,-135.4247 77.1896,-128.5538"/>
</g>
<!-- Node7 -->
<g id="node8" class="node">
<title>Node7</title>
<polygon fill="#ffffff" stroke="#bfbfbf" points="84.4738,-112.5 84.4738,-131.5 143.4738,-131.5 143.4738,-112.5 84.4738,-112.5"/>
<text text-anchor="middle" x="113.9738" y="-119.5" font-family="Helvetica,sans-Serif" font-size="10.00" fill="#000000">inttypes.h</text>
</g>
<!-- Node2&#45;&gt;Node7 -->
<g id="edge7" class="edge">
<title>Node2&#45;&gt;Node7</title>
<path fill="none" stroke="#191970" d="M504.6475,-173.763C424.9887,-167.8144 283.9102,-155.2305 153.8318,-131.9218"/>
<polygon fill="#191970" stroke="#191970" points="154.1537,-128.423 143.689,-130.0782 152.9018,-135.3102 154.1537,-128.423"/>
</g>
<!-- Node8 -->
<g id="node9" class="node">
<title>Node8</title>
<polygon fill="#ffffff" stroke="#bfbfbf" points="161.9738,-112.5 161.9738,-131.5 209.9738,-131.5 209.9738,-112.5 161.9738,-112.5"/>
<text text-anchor="middle" x="185.9738" y="-119.5" font-family="Helvetica,sans-Serif" font-size="10.00" fill="#000000">limits.h</text>
</g>
<!-- Node2&#45;&gt;Node8 -->
<g id="edge8" class="edge">
<title>Node2&#45;&gt;Node8</title>
<path fill="none" stroke="#191970" d="M504.7124,-172.7917C436.5129,-166.4755 324.7134,-154.0926 219.8086,-131.8861"/>
<polygon fill="#191970" stroke="#191970" points="220.5178,-128.4587 210.0054,-129.7775 219.0458,-135.3021 220.5178,-128.4587"/>
</g>
<!-- Node9 -->
<g id="node10" class="node">
<title>Node9</title>
<polygon fill="#ffffff" stroke="#bfbfbf" points="509.9738,-.5 509.9738,-19.5 561.9738,-19.5 561.9738,-.5 509.9738,-.5"/>
<text text-anchor="middle" x="535.9738" y="-7.5" font-family="Helvetica,sans-Serif" font-size="10.00" fill="#000000">stdarg.h</text>
</g>
<!-- Node2&#45;&gt;Node9 -->
<g id="edge9" class="edge">
<title>Node2&#45;&gt;Node9</title>
<path fill="none" stroke="#191970" d="M504.8354,-177.519C365.4418,-175.8001 41.0828,-167.9403 7.9738,-132 -61.468,-56.6202 369.7352,-21.1801 499.71,-12.296"/>
<polygon fill="#191970" stroke="#191970" points="500.1965,-15.7713 509.9397,-11.6094 499.7277,-8.787 500.1965,-15.7713"/>
</g>
<!-- Node10 -->
<g id="node11" class="node">
<title>Node10</title>
<polygon fill="#ffffff" stroke="#bfbfbf" points="361.9738,-112.5 361.9738,-131.5 417.9738,-131.5 417.9738,-112.5 361.9738,-112.5"/>
<text text-anchor="middle" x="389.9738" y="-119.5" font-family="Helvetica,sans-Serif" font-size="10.00" fill="#000000">stdbool.h</text>
</g>
<!-- Node2&#45;&gt;Node10 -->
<g id="edge10" class="edge">
<title>Node2&#45;&gt;Node10</title>
<path fill="none" stroke="#191970" d="M537.3745,-168.3733C507.0171,-158.8226 460.4295,-144.1658 427.7756,-133.8927"/>
<polygon fill="#191970" stroke="#191970" points="428.7118,-130.5182 418.1224,-130.8557 426.611,-137.1955 428.7118,-130.5182"/>
</g>
<!-- Node11 -->
<g id="node12" class="node">
<title>Node11</title>
<polygon fill="#ffffff" stroke="#bfbfbf" points="435.9738,-112.5 435.9738,-131.5 487.9738,-131.5 487.9738,-112.5 435.9738,-112.5"/>
<text text-anchor="middle" x="461.9738" y="-119.5" font-family="Helvetica,sans-Serif" font-size="10.00" fill="#000000">stddef.h</text>
</g>
<!-- Node2&#45;&gt;Node11 -->
<g id="edge11" class="edge">
<title>Node2&#45;&gt;Node11</title>
<path fill="none" stroke="#191970" d="M549.51,-168.2455C532.8663,-159.4527 508.1745,-146.4079 489.2546,-136.4125"/>
<polygon fill="#191970" stroke="#191970" points="490.7029,-133.2193 480.226,-131.6427 487.433,-139.4086 490.7029,-133.2193"/>
</g>
<!-- Node12 -->
<g id="node13" class="node">
<title>Node12</title>
<polygon fill="#ffffff" stroke="#bfbfbf" points="850.4738,-56.5 850.4738,-75.5 899.4738,-75.5 899.4738,-56.5 850.4738,-56.5"/>
<text text-anchor="middle" x="874.9738" y="-63.5" font-family="Helvetica,sans-Serif" font-size="10.00" fill="#000000">stdint.h</text>
</g>
<!-- Node2&#45;&gt;Node12 -->
<g id="edge12" class="edge">
<title>Node2&#45;&gt;Node12</title>
<path fill="none" stroke="#191970" d="M630.9905,-172.7049C698.0366,-166.081 798.7985,-152.9871 830.9738,-132 848.0302,-120.8745 860.063,-100.5802 867.1847,-85.4217"/>
<polygon fill="#191970" stroke="#191970" points="870.5379,-86.4887 871.3319,-75.9237 864.1228,-83.6876 870.5379,-86.4887"/>
</g>
<!-- Node13 -->
<g id="node14" class="node">
<title>Node13</title>
<polygon fill="#ffffff" stroke="#bfbfbf" points="861.9738,-.5 861.9738,-19.5 907.9738,-19.5 907.9738,-.5 861.9738,-.5"/>
<text text-anchor="middle" x="884.9738" y="-7.5" font-family="Helvetica,sans-Serif" font-size="10.00" fill="#000000">stdio.h</text>
</g>
<!-- Node2&#45;&gt;Node13 -->
<g id="edge13" class="edge">
<title>Node2&#45;&gt;Node13</title>
<path fill="none" stroke="#191970" d="M630.9994,-176.0695C747.6933,-171.8418 987.8742,-159.8279 1012.9738,-132 1026.2377,-117.2943 1021.0935,-79.7815 1000.9738,-56 980.2207,-31.4699 944.5797,-19.9231 918.2668,-14.5493"/>
<polygon fill="#191970" stroke="#191970" points="918.8067,-11.0899 908.3379,-12.7197 917.538,-17.974 918.8067,-11.0899"/>
</g>
<!-- Node14 -->
<g id="node15" class="node">
<title>Node14</title>
<polygon fill="#ffffff" stroke="#bfbfbf" points="543.9738,-112.5 543.9738,-131.5 591.9738,-131.5 591.9738,-112.5 543.9738,-112.5"/>
<text text-anchor="middle" x="567.9738" y="-119.5" font-family="Helvetica,sans-Serif" font-size="10.00" fill="#000000">stdlib.h</text>
</g>
<!-- Node2&#45;&gt;Node14 -->
<g id="edge14" class="edge">
<title>Node2&#45;&gt;Node14</title>
<path fill="none" stroke="#191970" d="M567.9738,-168.2455C567.9738,-160.9382 567.9738,-150.6944 567.9738,-141.7046"/>
<polygon fill="#191970" stroke="#191970" points="571.4739,-141.6426 567.9738,-131.6427 564.4739,-141.6427 571.4739,-141.6426"/>
</g>
<!-- Node15 -->
<g id="node16" class="node">
<title>Node15</title>
<polygon fill="#ffffff" stroke="#bfbfbf" points="942.4738,-56.5 942.4738,-75.5 991.4738,-75.5 991.4738,-56.5 942.4738,-56.5"/>
<text text-anchor="middle" x="966.9738" y="-63.5" font-family="Helvetica,sans-Serif" font-size="10.00" fill="#000000">string.h</text>
</g>
<!-- Node2&#45;&gt;Node15 -->
<g id="edge15" class="edge">
<title>Node2&#45;&gt;Node15</title>
<path fill="none" stroke="#191970" d="M631.3856,-175.7912C744.8389,-171.1823 973.0058,-158.6753 996.9738,-132 1009.6315,-117.9125 997.0454,-97.5842 984.5177,-83.2183"/>
<polygon fill="#191970" stroke="#191970" points="986.7259,-80.4552 977.3396,-75.5411 981.6127,-85.236 986.7259,-80.4552"/>
</g>
<!-- Node16 -->
<g id="node17" class="node">
<title>Node16</title>
<polygon fill="#ffffff" stroke="#bfbfbf" points="647.9738,-112.5 647.9738,-131.5 691.9738,-131.5 691.9738,-112.5 647.9738,-112.5"/>
<text text-anchor="middle" x="669.9738" y="-119.5" font-family="Helvetica,sans-Serif" font-size="10.00" fill="#000000">time.h</text>
</g>
<!-- Node2&#45;&gt;Node16 -->
<g id="edge16" class="edge">
<title>Node2&#45;&gt;Node16</title>
<path fill="none" stroke="#191970" d="M585.7408,-168.2455C601.6833,-159.4928 625.2997,-146.527 643.4727,-136.5496"/>
<polygon fill="#191970" stroke="#191970" points="645.329,-139.5233 652.4103,-131.6427 641.9601,-133.3873 645.329,-139.5233"/>
</g>
<!-- Node17 -->
<g id="node18" class="node">
<title>Node17</title>
<polygon fill="#ffffff" stroke="#bfbfbf" points="710.4738,-112.5 710.4738,-131.5 821.4738,-131.5 821.4738,-112.5 710.4738,-112.5"/>
<text text-anchor="middle" x="765.9738" y="-119.5" font-family="Helvetica,sans-Serif" font-size="10.00" fill="#000000">opentracing&#45;c/tracer.h</text>
</g>
<!-- Node2&#45;&gt;Node17 -->
<g id="edge17" class="edge">
<title>Node2&#45;&gt;Node17</title>
<path fill="none" stroke="#191970" d="M602.0112,-168.3733C635.3632,-158.9404 686.3265,-144.5265 722.574,-134.2747"/>
<polygon fill="#191970" stroke="#191970" points="723.7105,-137.5906 732.3805,-131.5011 721.8054,-130.8548 723.7105,-137.5906"/>
</g>
<!-- Node18 -->
<g id="node19" class="node">
<title>Node18</title>
<g id="a_node19"><a xlink:href="alloc_8h.html" target="_top" xlink:title="Allocator struct and functions. ">
<polygon fill="#ffffff" stroke="#000000" points="878.4738,-112.5 878.4738,-131.5 987.4738,-131.5 987.4738,-112.5 878.4738,-112.5"/>
<text text-anchor="middle" x="932.9738" y="-119.5" font-family="Helvetica,sans-Serif" font-size="10.00" fill="#000000">jaegertracingc/alloc.h</text>
</a>
</g>
</g>
<!-- Node2&#45;&gt;Node18 -->
<g id="edge18" class="edge">
<title>Node2&#45;&gt;Node18</title>
<path fill="none" stroke="#191970" d="M630.3048,-168.4369C696.6361,-158.26 801.0936,-142.2337 868.3046,-131.9218"/>
<polygon fill="#191970" stroke="#191970" points="868.9972,-135.3566 878.3508,-130.3805 867.9356,-128.4376 868.9972,-135.3566"/>
</g>
<!-- Node19 -->
<g id="node20" class="node">
<title>Node19</title>
<g id="a_node20"><a xlink:href="logging_8h.html" target="_top" xlink:title="Logging interface and initialization functions. ">
<polygon fill="#ffffff" stroke="#000000" points="656.4738,-56.5 656.4738,-75.5 775.4738,-75.5 775.4738,-56.5 656.4738,-56.5"/>
<text text-anchor="middle" x="715.9738" y="-63.5" font-family="Helvetica,sans-Serif" font-size="10.00" fill="#000000">jaegertracingc/logging.h</text>
</a>
</g>
</g>
<!-- Node2&#45;&gt;Node19 -->
<g id="edge25" class="edge">
<title>Node2&#45;&gt;Node19</title>
<path fill="none" stroke="#191970" d="M577.0576,-168.3597C590.0466,-154.8643 615.0123,-129.979 638.9738,-112 654.6521,-100.236 673.5286,-88.9194 688.6676,-80.4543"/>
<polygon fill="#191970" stroke="#191970" points="690.4706,-83.4572 697.5487,-75.5736 687.0992,-77.3226 690.4706,-83.4572"/>
</g>
<!-- Node4 -->
<g id="node5" class="node">
<title>Node4</title>
<g id="a_node5"><a xlink:href="visibility_8h_source.html" target="_top" xlink:title="jaegertracingc/visibility.h">
<polygon fill="#ffffff" stroke="#000000" points="223.9738,-56.5 223.9738,-75.5 347.9738,-75.5 347.9738,-56.5 223.9738,-56.5"/>
<text text-anchor="middle" x="285.9738" y="-63.5" font-family="Helvetica,sans-Serif" font-size="10.00" fill="#000000">jaegertracingc/visibility.h</text>
</a>
</g>
</g>
<!-- Node3&#45;&gt;Node4 -->
<g id="edge4" class="edge">
<title>Node3&#45;&gt;Node4</title>
<path fill="none" stroke="#191970" d="M285.9738,-112.2455C285.9738,-104.9382 285.9738,-94.6944 285.9738,-85.7046"/>
<polygon fill="#191970" stroke="#191970" points="289.4739,-85.6426 285.9738,-75.6427 282.4739,-85.6427 289.4739,-85.6426"/>
</g>
<!-- Node18&#45;&gt;Node5 -->
<g id="edge19" class="edge">
<title>Node18&#45;&gt;Node5</title>
<path fill="none" stroke="#191970" d="M878.2215,-114.036C798.4128,-102.4275 652.2682,-81.1701 584.3978,-71.298"/>
<polygon fill="#191970" stroke="#191970" points="584.5989,-67.7905 574.1992,-69.8146 583.5912,-74.7176 584.5989,-67.7905"/>
</g>
<!-- Node18&#45;&gt;Node12 -->
<g id="edge20" class="edge">
<title>Node18&#45;&gt;Node12</title>
<path fill="none" stroke="#191970" d="M922.8709,-112.2455C914.471,-104.1352 902.3244,-92.4075 892.3654,-82.7919"/>
<polygon fill="#191970" stroke="#191970" points="894.586,-80.0707 884.9608,-75.6427 889.7238,-85.1066 894.586,-80.0707"/>
</g>
<!-- Node18&#45;&gt;Node15 -->
<g id="edge21" class="edge">
<title>Node18&#45;&gt;Node15</title>
<path fill="none" stroke="#191970" d="M938.8961,-112.2455C943.5765,-104.5367 950.241,-93.5598 955.9026,-84.2348"/>
<polygon fill="#191970" stroke="#191970" points="958.9212,-86.007 961.1193,-75.6427 952.9377,-82.3741 958.9212,-86.007"/>
</g>
<!-- Node18&#45;&gt;Node19 -->
<g id="edge22" class="edge">
<title>Node18&#45;&gt;Node19</title>
<path fill="none" stroke="#191970" d="M895.6701,-112.3733C858.8053,-102.8598 802.3078,-88.2797 762.5231,-78.0127"/>
<polygon fill="#191970" stroke="#191970" points="763.348,-74.611 752.7906,-75.5011 761.5988,-81.3889 763.348,-74.611"/>
</g>
<!-- Node19&#45;&gt;Node9 -->
<g id="edge23" class="edge">
<title>Node19&#45;&gt;Node9</title>
<path fill="none" stroke="#191970" d="M685.0307,-56.3733C653.6034,-46.5959 604.9751,-31.4671 571.8729,-21.1686"/>
<polygon fill="#191970" stroke="#191970" points="572.7229,-17.7676 562.1345,-18.1389 570.6433,-24.4516 572.7229,-17.7676"/>
</g>
<!-- Node19&#45;&gt;Node13 -->
<g id="edge24" class="edge">
<title>Node19&#45;&gt;Node13</title>
<path fill="none" stroke="#191970" d="M745.0259,-56.3733C774.8312,-46.4969 821.1149,-31.1603 852.2075,-20.8575"/>
<polygon fill="#191970" stroke="#191970" points="853.337,-24.1704 861.7286,-17.7026 851.1352,-17.5257 853.337,-24.1704"/>
</g>
<!-- Node20&#45;&gt;Node2 -->
<g id="edge29" class="edge">
<title>Node20&#45;&gt;Node2</title>
<path fill="none" stroke="#191970" d="M740.4442,-291.3001C740.6773,-275.1434 738.7183,-242.6573 720.9738,-224 707.9567,-210.3134 665.4854,-198.1699 628.5842,-189.8015"/>
<polygon fill="#191970" stroke="#191970" points="628.8723,-186.281 618.3529,-187.5432 627.3635,-193.1164 628.8723,-186.281"/>
</g>
<!-- Node20&#45;&gt;Node18 -->
<g id="edge28" class="edge">
<title>Node20&#45;&gt;Node18</title>
<path fill="none" stroke="#191970" d="M741.4384,-291.4315C745.6424,-267.2205 759.9782,-202.9721 797.9738,-168 817.3485,-150.167 843.9235,-139.2119 868.3728,-132.4979"/>
<polygon fill="#191970" stroke="#191970" points="869.5084,-135.8204 878.3331,-129.9574 867.7782,-129.0376 869.5084,-135.8204"/>
</g>
<!-- Node21 -->
<g id="node22" class="node">
<title>Node21</title>
<g id="a_node22"><a xlink:href="jaeger_8pb-c_8h_source.html" target="_top" xlink:title="jaegertracingc/protoc\l&#45;gen/jaeger.pb&#45;c.h">
<polygon fill="#ffffff" stroke="#000000" points="808.4738,-224.5 808.4738,-254.5 915.4738,-254.5 915.4738,-224.5 808.4738,-224.5"/>
<text text-anchor="start" x="816.4738" y="-242.5" font-family="Helvetica,sans-Serif" font-size="10.00" fill="#000000">jaegertracingc/protoc</text>
<text text-anchor="middle" x="861.9738" y="-231.5" font-family="Helvetica,sans-Serif" font-size="10.00" fill="#000000">&#45;gen/jaeger.pb&#45;c.h</text>
</a>
</g>
</g>
<!-- Node20&#45;&gt;Node21 -->
<g id="edge30" class="edge">
<title>Node20&#45;&gt;Node21</title>
<path fill="none" stroke="#191970" d="M759.0363,-291.3906C776.0826,-282.7976 801.5974,-269.9356 822.9594,-259.1671"/>
<polygon fill="#191970" stroke="#191970" points="824.7751,-262.1714 832.1292,-254.5446 821.6241,-255.9207 824.7751,-262.1714"/>
</g>
<!-- Node20&#45;&gt;Node23 -->
<g id="edge32" class="edge">
<title>Node20&#45;&gt;Node23</title>
<path fill="none" stroke="#191970" d="M726.5363,-291.3906C712.9042,-281.6421 691.5892,-266.3994 675.5815,-254.9521"/>
<polygon fill="#191970" stroke="#191970" points="677.487,-252.0118 667.3169,-249.0419 673.4152,-257.7057 677.487,-252.0118"/>
</g>
<!-- Node22 -->
<g id="node23" class="node">
<title>Node22</title>
<polygon fill="#ffffff" stroke="#bfbfbf" points="806.4738,-168.5 806.4738,-187.5 921.4738,-187.5 921.4738,-168.5 806.4738,-168.5"/>
<text text-anchor="middle" x="863.9738" y="-175.5" font-family="Helvetica,sans-Serif" font-size="10.00" fill="#000000">protobuf&#45;c/protobuf&#45;c.h</text>
</g>
<!-- Node21&#45;&gt;Node22 -->
<g id="edge31" class="edge">
<title>Node21&#45;&gt;Node22</title>
<path fill="none" stroke="#191970" d="M862.4681,-224.2977C862.7255,-216.3834 863.0435,-206.6043 863.3209,-198.0759"/>
<polygon fill="#191970" stroke="#191970" points="866.8266,-197.9554 863.6535,-187.8469 859.8303,-197.7279 866.8266,-197.9554"/>
</g>
<!-- Node23&#45;&gt;Node2 -->
<g id="edge33" class="edge">
<title>Node23&#45;&gt;Node2</title>
<path fill="none" stroke="#191970" d="M640.5363,-229.8906C626.9042,-220.1421 605.5892,-204.8994 589.5815,-193.4521"/>
<polygon fill="#191970" stroke="#191970" points="591.487,-190.5118 581.3169,-187.5419 587.4152,-196.2057 591.487,-190.5118"/>
</g>
</g>
</svg>
