<?xml version="1.0" encoding="UTF-8" standalone="no"?>
<!DOCTYPE svg PUBLIC "-//W3C//DTD SVG 1.1//EN"
 "http://www.w3.org/Graphics/SVG/1.1/DTD/svg11.dtd">
<!-- Generated by graphviz version 2.40.1 (20161225.0304)
 -->
<!-- Title: jaegertracingc/log_record.h Pages: 1 -->
<svg width="224pt" height="263pt"
 viewBox="0.00 0.00 223.50 263.00" xmlns="http://www.w3.org/2000/svg" xmlns:xlink="http://www.w3.org/1999/xlink">
<g id="graph0" class="graph" transform="scale(1 1) rotate(0) translate(4 259)">
<title>jaegertracingc/log_record.h</title>
<polygon fill="#ffffff" stroke="transparent" points="-4,4 -4,-259 219.5,-259 219.5,4 -4,4"/>
<!-- Node24 -->
<g id="node1" class="node">
<title>Node24</title>
<polygon fill="#bfbfbf" stroke="#000000" points="19,-224.5 19,-254.5 112,-254.5 112,-224.5 19,-224.5"/>
<text text-anchor="start" x="27" y="-242.5" font-family="Helvetica,sans-Serif" font-size="10.00" fill="#000000">jaegertracingc/log</text>
<text text-anchor="middle" x="65.5" y="-231.5" font-family="Helvetica,sans-Serif" font-size="10.00" fill="#000000">_record.h</text>
</g>
<!-- Node25 -->
<g id="node2" class="node">
<title>Node25</title>
<g id="a_node2"><a xlink:href="span_8h.html" target="_top" xlink:title="Span, span context, and span ref representations and functions. ">
<polygon fill="#ffffff" stroke="#000000" points="10.5,-168.5 10.5,-187.5 120.5,-187.5 120.5,-168.5 10.5,-168.5"/>
<text text-anchor="middle" x="65.5" y="-175.5" font-family="Helvetica,sans-Serif" font-size="10.00" fill="#000000">jaegertracingc/span.h</text>
</a>
</g>
</g>
<!-- Node24&#45;&gt;Node25 -->
<g id="edge1" class="edge">
<title>Node24&#45;&gt;Node25</title>
<path fill="none" stroke="#191970" d="M65.5,-214.2849C65.5,-204.9858 65.5,-194.9883 65.5,-187.8469"/>
<polygon fill="#191970" stroke="#191970" points="62.0001,-214.2977 65.5,-224.2977 69.0001,-214.2978 62.0001,-214.2977"/>
</g>
<!-- Node26 -->
<g id="node3" class="node">
<title>Node26</title>
<g id="a_node3"><a xlink:href="propagation_8c.html" target="_top" xlink:title="Trace ID representation. ">
<polygon fill="#ffffff" stroke="#000000" points="0,-.5 0,-19.5 139,-19.5 139,-.5 0,-.5"/>
<text text-anchor="middle" x="69.5" y="-7.5" font-family="Helvetica,sans-Serif" font-size="10.00" fill="#000000">jaegertracingc/propagation.c</text>
</a>
</g>
</g>
<!-- Node25&#45;&gt;Node26 -->
<g id="edge2" class="edge">
<title>Node25&#45;&gt;Node26</title>
<path fill="none" stroke="#191970" d="M58.0396,-159.0051C49.5817,-134.8581 38.0056,-91.9828 46.5,-56 49.6592,-42.6176 57.3406,-28.6895 62.9603,-19.7151"/>
<polygon fill="#191970" stroke="#191970" points="54.766,-160.2441 61.5144,-168.4117 61.3323,-157.8184 54.766,-160.2441"/>
</g>
<!-- Node27 -->
<g id="node4" class="node">
<title>Node27</title>
<g id="a_node4"><a xlink:href="tracer_8h.html" target="_top" xlink:title="Tracer implementation. ">
<polygon fill="#ffffff" stroke="#000000" points="56,-56.5 56,-75.5 169,-75.5 169,-56.5 56,-56.5"/>
<text text-anchor="middle" x="112.5" y="-63.5" font-family="Helvetica,sans-Serif" font-size="10.00" fill="#000000">jaegertracingc/tracer.h</text>
</a>
</g>
</g>
<!-- Node25&#45;&gt;Node27 -->
<g id="edge3" class="edge">
<title>Node25&#45;&gt;Node27</title>
<path fill="none" stroke="#191970" d="M69.7092,-158.3175C72.9193,-144.9389 77.9115,-127.013 84.5,-112 90.2859,-98.8159 99.2432,-84.8475 105.4625,-75.8095"/>
<polygon fill="#191970" stroke="#191970" points="66.2387,-157.7953 67.4361,-168.3223 73.0648,-159.3463 66.2387,-157.7953"/>
</g>
<!-- Node28 -->
<g id="node5" class="node">
<title>Node28</title>
<g id="a_node5"><a xlink:href="reporter_8h.html" target="_top" xlink:title="Span reporter interface. ">
<polygon fill="#ffffff" stroke="#000000" points="93.5,-112.5 93.5,-131.5 215.5,-131.5 215.5,-112.5 93.5,-112.5"/>
<text text-anchor="middle" x="154.5" y="-119.5" font-family="Helvetica,sans-Serif" font-size="10.00" fill="#000000">jaegertracingc/reporter.h</text>
</a>
</g>
</g>
<!-- Node25&#45;&gt;Node28 -->
<g id="edge5" class="edge">
<title>Node25&#45;&gt;Node28</title>
<path fill="none" stroke="#191970" d="M89.7064,-162.769C105.4775,-152.8456 125.576,-140.1994 139.175,-131.6427"/>
<polygon fill="#191970" stroke="#191970" points="87.6026,-159.9575 81.0026,-168.2455 91.3305,-165.8823 87.6026,-159.9575"/>
</g>
<!-- Node27&#45;&gt;Node26 -->
<g id="edge4" class="edge">
<title>Node27&#45;&gt;Node26</title>
<path fill="none" stroke="#191970" d="M98.8408,-48.2112C91.5737,-38.7472 82.9219,-27.4797 76.9042,-19.6427"/>
<polygon fill="#191970" stroke="#191970" points="96.1436,-50.4456 105.01,-56.2455 101.6957,-46.1824 96.1436,-50.4456"/>
</g>
<!-- Node28&#45;&gt;Node27 -->
<g id="edge6" class="edge">
<title>Node28&#45;&gt;Node27</title>
<path fill="none" stroke="#191970" d="M141.1584,-104.2112C134.0604,-94.7472 125.6097,-83.4797 119.732,-75.6427"/>
<polygon fill="#191970" stroke="#191970" points="138.3841,-106.3455 147.1842,-112.2455 143.9841,-102.1455 138.3841,-106.3455"/>
</g>
</g>
</svg>
