<?xml version="1.0" encoding="UTF-8" standalone="no"?>
<!DOCTYPE svg PUBLIC "-//W3C//DTD SVG 1.1//EN"
 "http://www.w3.org/Graphics/SVG/1.1/DTD/svg11.dtd">
<!-- Generated by graphviz version 2.40.1 (20161225.0304)
 -->
<!-- Title: jaegertracingc/logging.h Pages: 1 -->
<svg width="2076pt" height="587pt"
 viewBox="0.00 0.00 2076.00 587.00" xmlns="http://www.w3.org/2000/svg" xmlns:xlink="http://www.w3.org/1999/xlink">
<g id="graph0" class="graph" transform="scale(1 1) rotate(0) translate(4 583)">
<title>jaegertracingc/logging.h</title>
<polygon fill="#ffffff" stroke="transparent" points="-4,4 -4,-583 2072,-583 2072,4 -4,4"/>
<!-- Node3 -->
<g id="node1" class="node">
<title>Node3</title>
<polygon fill="#bfbfbf" stroke="#000000" points="19.5,-559.5 19.5,-578.5 138.5,-578.5 138.5,-559.5 19.5,-559.5"/>
<text text-anchor="middle" x="79" y="-566.5" font-family="Helvetica,sans-Serif" font-size="10.00" fill="#000000">jaegertracingc/logging.h</text>
</g>
<!-- Node4 -->
<g id="node2" class="node">
<title>Node4</title>
<g id="a_node2"><a xlink:href="alloc_8h.html" target="_top" xlink:title="Allocator struct and functions. ">
<polygon fill="#ffffff" stroke="#000000" points="81.5,-503.5 81.5,-522.5 190.5,-522.5 190.5,-503.5 81.5,-503.5"/>
<text text-anchor="middle" x="136" y="-510.5" font-family="Helvetica,sans-Serif" font-size="10.00" fill="#000000">jaegertracingc/alloc.h</text>
</a>
</g>
</g>
<!-- Node3&#45;&gt;Node4 -->
<g id="edge1" class="edge">
<title>Node3&#45;&gt;Node4</title>
<path fill="none" stroke="#191970" d="M96.2271,-552.0751C106.0341,-542.4402 117.964,-530.7196 126.1851,-522.6427"/>
<polygon fill="#191970" stroke="#191970" points="93.6091,-549.7406 88.9286,-559.2455 98.5149,-554.734 93.6091,-549.7406"/>
</g>
<!-- Node5 -->
<g id="node3" class="node">
<title>Node5</title>
<g id="a_node3"><a xlink:href="common_8h.html" target="_top" xlink:title="Common headers, struct definitions, and macros. ">
<polygon fill="#ffffff" stroke="#000000" points="891,-447.5 891,-466.5 1017,-466.5 1017,-447.5 891,-447.5"/>
<text text-anchor="middle" x="954" y="-454.5" font-family="Helvetica,sans-Serif" font-size="10.00" fill="#000000">jaegertracingc/common.h</text>
</a>
</g>
</g>
<!-- Node3&#45;&gt;Node5 -->
<g id="edge78" class="edge">
<title>Node3&#45;&gt;Node5</title>
<path fill="none" stroke="#191970" d="M148.899,-560.0529C315.0295,-538.7882 731.492,-485.481 890.7296,-465.0986"/>
<polygon fill="#191970" stroke="#191970" points="148.2726,-556.6045 138.7979,-561.3459 149.1614,-563.5478 148.2726,-556.6045"/>
</g>
<!-- Node12 -->
<g id="node10" class="node">
<title>Node12</title>
<g id="a_node10"><a xlink:href="reporter_8h.html" target="_top" xlink:title="Span reporter interface. ">
<polygon fill="#ffffff" stroke="#000000" points="670,-123.5 670,-142.5 792,-142.5 792,-123.5 670,-123.5"/>
<text text-anchor="middle" x="731" y="-130.5" font-family="Helvetica,sans-Serif" font-size="10.00" fill="#000000">jaegertracingc/reporter.h</text>
</a>
</g>
</g>
<!-- Node3&#45;&gt;Node12 -->
<g id="edge80" class="edge">
<title>Node3&#45;&gt;Node12</title>
<path fill="none" stroke="#191970" d="M57.5498,-552.6826C34.1555,-532.857 0,-497.0534 0,-457 0,-457 0,-457 0,-261.5 0,-193.6897 494.2443,-150.5141 669.9327,-137.3085"/>
<polygon fill="#191970" stroke="#191970" points="55.6358,-555.6378 65.5987,-559.2421 60.058,-550.2115 55.6358,-555.6378"/>
</g>
<!-- Node23 -->
<g id="node21" class="node">
<title>Node23</title>
<g id="a_node21"><a xlink:href="key__value_8h.html" target="_top" xlink:title="Key value pair representation. ">
<polygon fill="#ffffff" stroke="#000000" points="180,-313.5 180,-343.5 276,-343.5 276,-313.5 180,-313.5"/>
<text text-anchor="start" x="188" y="-331.5" font-family="Helvetica,sans-Serif" font-size="10.00" fill="#000000">jaegertracingc/key</text>
<text text-anchor="middle" x="228" y="-320.5" font-family="Helvetica,sans-Serif" font-size="10.00" fill="#000000">_value.h</text>
</a>
</g>
</g>
<!-- Node3&#45;&gt;Node23 -->
<g id="edge79" class="edge">
<title>Node3&#45;&gt;Node23</title>
<path fill="none" stroke="#191970" d="M73.8069,-549.2025C71.1049,-536.0192 68.9414,-518.362 72,-503 83.5558,-444.9596 82.4912,-423.1423 123,-380 138.4269,-363.5702 160.2161,-351.706 179.9501,-343.5369"/>
<polygon fill="#191970" stroke="#191970" points="70.4284,-550.127 76.1005,-559.0756 77.2468,-548.543 70.4284,-550.127"/>
</g>
<!-- Node4&#45;&gt;Node5 -->
<g id="edge2" class="edge">
<title>Node4&#45;&gt;Node5</title>
<path fill="none" stroke="#191970" d="M200.841,-508.561C354.4691,-498.0437 739.0991,-471.712 890.9323,-461.3176"/>
<polygon fill="#191970" stroke="#191970" points="200.3603,-505.0856 190.6227,-509.2605 200.8384,-512.0693 200.3603,-505.0856"/>
</g>
<!-- Node4&#45;&gt;Node23 -->
<g id="edge76" class="edge">
<title>Node4&#45;&gt;Node23</title>
<path fill="none" stroke="#191970" d="M130.671,-493.5358C124.3384,-466.1107 117.063,-415.4857 138,-380 147.7883,-363.41 165.1171,-351.6912 181.9729,-343.6699"/>
<polygon fill="#191970" stroke="#191970" points="127.3301,-494.6026 133.1585,-503.4501 134.1196,-492.899 127.3301,-494.6026"/>
</g>
<!-- Node28 -->
<g id="node26" class="node">
<title>Node28</title>
<g id="a_node26"><a xlink:href="tag_8h.html" target="_top" xlink:title="Tag representation and functions. ">
<polygon fill="#ffffff" stroke="#000000" points="370,-319 370,-338 472,-338 472,-319 370,-319"/>
<text text-anchor="middle" x="421" y="-326" font-family="Helvetica,sans-Serif" font-size="10.00" fill="#000000">jaegertracingc/tag.h</text>
</a>
</g>
</g>
<!-- Node4&#45;&gt;Node28 -->
<g id="edge77" class="edge">
<title>Node4&#45;&gt;Node28</title>
<path fill="none" stroke="#191970" d="M138.659,-493.0216C143.4858,-459.8256 154.7187,-395.4224 171,-380 185.3366,-366.4197 300.913,-346.7829 369.7942,-336.1077"/>
<polygon fill="#191970" stroke="#191970" points="135.1362,-492.9428 137.2211,-503.3305 142.0691,-493.9099 135.1362,-492.9428"/>
</g>
<!-- Node6 -->
<g id="node4" class="node">
<title>Node6</title>
<g id="a_node4"><a xlink:href="baggage_8h.html" target="_top" xlink:title="Baggage restriction utilities. ">
<polygon fill="#ffffff" stroke="#000000" points="1930.5,-123.5 1930.5,-142.5 2055.5,-142.5 2055.5,-123.5 1930.5,-123.5"/>
<text text-anchor="middle" x="1993" y="-130.5" font-family="Helvetica,sans-Serif" font-size="10.00" fill="#000000">jaegertracingc/baggage.h</text>
</a>
</g>
</g>
<!-- Node5&#45;&gt;Node6 -->
<g id="edge3" class="edge">
<title>Node5&#45;&gt;Node6</title>
<path fill="none" stroke="#191970" d="M1027.3788,-456.066C1243.5642,-452.9743 1868.3642,-441.4786 1955,-411 2013.6589,-390.3637 2068,-390.6829 2068,-328.5 2068,-328.5 2068,-328.5 2068,-261.5 2068,-210.8715 2024.0364,-162.4435 2003.4284,-142.524"/>
<polygon fill="#191970" stroke="#191970" points="1027.0398,-452.5704 1017.0902,-456.2112 1027.1386,-459.5697 1027.0398,-452.5704"/>
</g>
<!-- Node7 -->
<g id="node5" class="node">
<title>Node7</title>
<g id="a_node5"><a xlink:href="tracer_8h.html" target="_top" xlink:title="Tracer implementation. ">
<polygon fill="#ffffff" stroke="#000000" points="1174.5,-62 1174.5,-81 1287.5,-81 1287.5,-62 1174.5,-62"/>
<text text-anchor="middle" x="1231" y="-69" font-family="Helvetica,sans-Serif" font-size="10.00" fill="#000000">jaegertracingc/tracer.h</text>
</a>
</g>
</g>
<!-- Node5&#45;&gt;Node7 -->
<g id="edge4" class="edge">
<title>Node5&#45;&gt;Node7</title>
<path fill="none" stroke="#191970" d="M1027.4049,-455.1977C1208.9729,-450.3815 1669.1568,-435.8596 1734,-411 1778.5899,-393.9051 1797.282,-387.0263 1818,-344 1870.827,-234.291 1413.3983,-115.0127 1271.8902,-81.016"/>
<polygon fill="#191970" stroke="#191970" points="1027.0553,-451.7056 1017.1507,-455.4673 1027.2392,-458.7032 1027.0553,-451.7056"/>
</g>
<!-- Node9 -->
<g id="node7" class="node">
<title>Node9</title>
<g id="a_node7"><a xlink:href="clock_8h.html" target="_top" xlink:title="Timestamp and duration representations. ">
<polygon fill="#ffffff" stroke="#000000" points="898,-386 898,-405 1010,-405 1010,-386 898,-386"/>
<text text-anchor="middle" x="954" y="-393" font-family="Helvetica,sans-Serif" font-size="10.00" fill="#000000">jaegertracingc/clock.h</text>
</a>
</g>
</g>
<!-- Node5&#45;&gt;Node9 -->
<g id="edge6" class="edge">
<title>Node5&#45;&gt;Node9</title>
<path fill="none" stroke="#191970" d="M954,-437.2462C954,-426.5519 954,-413.814 954,-405.2449"/>
<polygon fill="#191970" stroke="#191970" points="950.5001,-437.3906 954,-447.3906 957.5001,-437.3907 950.5001,-437.3906"/>
</g>
<!-- Node10 -->
<g id="node8" class="node">
<title>Node10</title>
<g id="a_node8"><a xlink:href="log__record_8h.html" target="_top" xlink:title="Log record representation for use in span. ">
<polygon fill="#ffffff" stroke="#000000" points="454.5,-246.5 454.5,-276.5 547.5,-276.5 547.5,-246.5 454.5,-246.5"/>
<text text-anchor="start" x="462.5" y="-264.5" font-family="Helvetica,sans-Serif" font-size="10.00" fill="#000000">jaegertracingc/log</text>
<text text-anchor="middle" x="501" y="-253.5" font-family="Helvetica,sans-Serif" font-size="10.00" fill="#000000">_record.h</text>
</a>
</g>
</g>
<!-- Node5&#45;&gt;Node10 -->
<g id="edge36" class="edge">
<title>Node5&#45;&gt;Node10</title>
<path fill="none" stroke="#191970" d="M880.639,-453.0347C770.3824,-446.4338 572.1117,-431.828 547,-411 506.0324,-377.0209 500.8321,-307.4381 500.6449,-276.6878"/>
<polygon fill="#191970" stroke="#191970" points="880.5107,-456.5331 890.6999,-453.6294 880.9239,-449.5453 880.5107,-456.5331"/>
</g>
<!-- Node11 -->
<g id="node9" class="node">
<title>Node11</title>
<g id="a_node9"><a xlink:href="span_8h.html" target="_top" xlink:title="Span, span context, and span ref representations and functions. ">
<polygon fill="#ffffff" stroke="#000000" points="480,-185 480,-204 590,-204 590,-185 480,-185"/>
<text text-anchor="middle" x="535" y="-192" font-family="Helvetica,sans-Serif" font-size="10.00" fill="#000000">jaegertracingc/span.h</text>
</a>
</g>
</g>
<!-- Node5&#45;&gt;Node11 -->
<g id="edge53" class="edge">
<title>Node5&#45;&gt;Node11</title>
<path fill="none" stroke="#191970" d="M880.5302,-455.2794C759.9383,-451.6288 525.7402,-440.8341 449,-411 403.1837,-393.1881 382.8245,-388.0464 361,-344 326.5196,-274.4111 445.5254,-224.0943 504.1969,-204.0664"/>
<polygon fill="#191970" stroke="#191970" points="880.6796,-458.7852 890.7782,-455.5806 880.8854,-451.7882 880.6796,-458.7852"/>
</g>
<!-- Node5&#45;&gt;Node12 -->
<g id="edge54" class="edge">
<title>Node5&#45;&gt;Node12</title>
<path fill="none" stroke="#191970" d="M880.7785,-455.144C735.89,-450.8904 423.1022,-438.6007 383,-411 355.8164,-392.2906 358.2913,-376.1842 351,-344 330.965,-255.5646 386.8834,-212.8617 471,-179 535.9549,-152.8519 615.9622,-141.5307 669.9333,-136.6519"/>
<polygon fill="#191970" stroke="#191970" points="880.8175,-458.6465 890.9143,-455.4365 881.0194,-451.6494 880.8175,-458.6465"/>
</g>
<!-- Node13 -->
<g id="node11" class="node">
<title>Node13</title>
<g id="a_node11"><a xlink:href="sampler_8h.html" target="_top" xlink:title="Span sampler interface. ">
<polygon fill="#ffffff" stroke="#000000" points="1098.5,-252 1098.5,-271 1221.5,-271 1221.5,-252 1098.5,-252"/>
<text text-anchor="middle" x="1160" y="-259" font-family="Helvetica,sans-Serif" font-size="10.00" fill="#000000">jaegertracingc/sampler.h</text>
</a>
</g>
</g>
<!-- Node5&#45;&gt;Node13 -->
<g id="edge55" class="edge">
<title>Node5&#45;&gt;Node13</title>
<path fill="none" stroke="#191970" d="M1027.4491,-454.1177C1151.6506,-448.6125 1392.6841,-434.9658 1423,-411 1458.0968,-383.2548 1474.6955,-347.3242 1446,-313 1438.8102,-304.3998 1303.7234,-282.9142 1221.8128,-270.583"/>
<polygon fill="#191970" stroke="#191970" points="1027.0963,-450.6297 1017.2586,-454.5627 1027.4018,-457.623 1027.0963,-450.6297"/>
</g>
<!-- Node14 -->
<g id="node12" class="node">
<title>Node14</title>
<g id="a_node12"><a xlink:href="mock__agent_8h.html" target="_top" xlink:title="Key value pair representation. ">
<polygon fill="#ffffff" stroke="#000000" points="895,-179.5 895,-209.5 999,-209.5 999,-179.5 895,-179.5"/>
<text text-anchor="start" x="903" y="-197.5" font-family="Helvetica,sans-Serif" font-size="10.00" fill="#000000">jaegertracingc/mock</text>
<text text-anchor="middle" x="947" y="-186.5" font-family="Helvetica,sans-Serif" font-size="10.00" fill="#000000">_agent.h</text>
</a>
</g>
</g>
<!-- Node5&#45;&gt;Node14 -->
<g id="edge48" class="edge">
<title>Node5&#45;&gt;Node14</title>
<path fill="none" stroke="#191970" d="M921.8663,-442.5718C909.2195,-435.0964 896.0546,-424.635 889,-411 852.7905,-341.0151 910.1565,-246.2832 935.7151,-209.7448"/>
<polygon fill="#191970" stroke="#191970" points="920.4334,-445.7769 930.8888,-447.4901 923.7837,-439.6308 920.4334,-445.7769"/>
</g>
<!-- Node15 -->
<g id="node13" class="node">
<title>Node15</title>
<g id="a_node13"><a xlink:href="token__bucket_8h.html" target="_top" xlink:title="Token bucket implementation. ">
<polygon fill="#ffffff" stroke="#000000" points="1316,-313.5 1316,-343.5 1420,-343.5 1420,-313.5 1316,-313.5"/>
<text text-anchor="start" x="1324" y="-331.5" font-family="Helvetica,sans-Serif" font-size="10.00" fill="#000000">jaegertracingc/token</text>
<text text-anchor="middle" x="1368" y="-320.5" font-family="Helvetica,sans-Serif" font-size="10.00" fill="#000000">_bucket.h</text>
</a>
</g>
</g>
<!-- Node5&#45;&gt;Node15 -->
<g id="edge75" class="edge">
<title>Node5&#45;&gt;Node15</title>
<path fill="none" stroke="#191970" d="M994.5538,-444.4127C1071.2481,-420.6078 1237.2196,-369.0925 1319.5978,-343.5234"/>
<polygon fill="#191970" stroke="#191970" points="993.292,-441.1395 984.7791,-447.4466 995.3671,-447.8249 993.292,-441.1395"/>
</g>
<!-- Node16 -->
<g id="node14" class="node">
<title>Node16</title>
<g id="a_node14"><a xlink:href="constants_8h_source.html" target="_top" xlink:title="jaegertracingc/constants.h">
<polygon fill="#ffffff" stroke="#000000" points="1654.5,-319 1654.5,-338 1785.5,-338 1785.5,-319 1654.5,-319"/>
<text text-anchor="middle" x="1720" y="-326" font-family="Helvetica,sans-Serif" font-size="10.00" fill="#000000">jaegertracingc/constants.h</text>
</a>
</g>
</g>
<!-- Node5&#45;&gt;Node16 -->
<g id="edge19" class="edge">
<title>Node5&#45;&gt;Node16</title>
<path fill="none" stroke="#191970" d="M1027.4306,-455.2069C1194.0352,-450.6972 1590.481,-437.3173 1645,-411 1678.644,-394.7594 1704.1873,-356.1157 1714.7218,-338.0793"/>
<polygon fill="#191970" stroke="#191970" points="1027.1763,-451.7124 1017.2734,-455.4786 1027.3635,-458.7099 1027.1763,-451.7124"/>
</g>
<!-- Node17 -->
<g id="node15" class="node">
<title>Node17</title>
<g id="a_node15"><a xlink:href="options_8h.html" target="_top" xlink:title="Configuration options. ">
<polygon fill="#ffffff" stroke="#000000" points="1754,-185 1754,-204 1874,-204 1874,-185 1754,-185"/>
<text text-anchor="middle" x="1814" y="-192" font-family="Helvetica,sans-Serif" font-size="10.00" fill="#000000">jaegertracingc/options.h</text>
</a>
</g>
</g>
<!-- Node5&#45;&gt;Node17 -->
<g id="edge52" class="edge">
<title>Node5&#45;&gt;Node17</title>
<path fill="none" stroke="#191970" d="M1027.4353,-455.4786C1235.0464,-450.8894 1816.5762,-435.9443 1899,-411 1962.3075,-391.8409 2043.5564,-370.576 2011,-313 1976.4244,-251.8531 1896.277,-218.7734 1849.5613,-204.07"/>
<polygon fill="#191970" stroke="#191970" points="1027.1654,-451.9836 1017.2446,-455.7022 1027.319,-458.9819 1027.1654,-451.9836"/>
</g>
<!-- Node18 -->
<g id="node16" class="node">
<title>Node18</title>
<g id="a_node16"><a xlink:href="hashtable_8h.html" target="_top" xlink:title="Hashtable data structure. ">
<polygon fill="#ffffff" stroke="#000000" points="86.5,-252 86.5,-271 217.5,-271 217.5,-252 86.5,-252"/>
<text text-anchor="middle" x="152" y="-259" font-family="Helvetica,sans-Serif" font-size="10.00" fill="#000000">jaegertracingc/hashtable.h</text>
</a>
</g>
</g>
<!-- Node5&#45;&gt;Node18 -->
<g id="edge24" class="edge">
<title>Node5&#45;&gt;Node18</title>
<path fill="none" stroke="#191970" d="M880.7232,-455.0437C691.2466,-449.6735 197.9492,-433.5855 171,-411 129.0901,-375.8763 142.9473,-298.4584 149.4482,-271.2154"/>
<polygon fill="#191970" stroke="#191970" points="880.7737,-458.5464 890.8682,-455.3292 880.9707,-451.5492 880.7737,-458.5464"/>
</g>
<!-- Node20 -->
<g id="node18" class="node">
<title>Node20</title>
<g id="a_node18"><a xlink:href="internal_2random_8h_source.html" target="_top" xlink:title="jaegertracingc/internal\l/random.h">
<polygon fill="#ffffff" stroke="#000000" points="1278,-246.5 1278,-276.5 1390,-276.5 1390,-246.5 1278,-246.5"/>
<text text-anchor="start" x="1286" y="-264.5" font-family="Helvetica,sans-Serif" font-size="10.00" fill="#000000">jaegertracingc/internal</text>
<text text-anchor="middle" x="1334" y="-253.5" font-family="Helvetica,sans-Serif" font-size="10.00" fill="#000000">/random.h</text>
</a>
</g>
</g>
<!-- Node5&#45;&gt;Node20 -->
<g id="edge28" class="edge">
<title>Node5&#45;&gt;Node20</title>
<path fill="none" stroke="#191970" d="M1027.2556,-454.2092C1198.6554,-447.4118 1615.9514,-429.2158 1677,-411 1734.7909,-393.7563 1764.658,-396.12 1795,-344 1853.3157,-243.8281 1875.1153,-350.547 1404,-277 1399.4497,-276.2896 1394.7524,-275.4608 1390.0458,-274.5627"/>
<polygon fill="#191970" stroke="#191970" points="1026.9185,-450.7197 1017.0643,-454.6114 1027.1946,-457.7142 1026.9185,-450.7197"/>
</g>
<!-- Node21 -->
<g id="node19" class="node">
<title>Node21</title>
<g id="a_node19"><a xlink:href="siphash_8h.html" target="_top" xlink:title="Siphash implementation. ">
<polygon fill="#ffffff" stroke="#000000" points="1514,-386 1514,-405 1636,-405 1636,-386 1514,-386"/>
<text text-anchor="middle" x="1575" y="-393" font-family="Helvetica,sans-Serif" font-size="10.00" fill="#000000">jaegertracingc/siphash.h</text>
</a>
</g>
</g>
<!-- Node5&#45;&gt;Node21 -->
<g id="edge29" class="edge">
<title>Node5&#45;&gt;Node21</title>
<path fill="none" stroke="#191970" d="M1027.5227,-453.6062C1132.678,-448.1178 1331.902,-435.3618 1500,-411 1510.9216,-409.4172 1522.645,-407.2314 1533.5023,-405"/>
<polygon fill="#191970" stroke="#191970" points="1027.1422,-450.1211 1017.3353,-454.1305 1027.502,-457.1118 1027.1422,-450.1211"/>
</g>
<!-- Node5&#45;&gt;Node23 -->
<g id="edge31" class="edge">
<title>Node5&#45;&gt;Node23</title>
<path fill="none" stroke="#191970" d="M880.5111,-453.939C727.3107,-447.212 383.844,-430.2017 334,-411 324.0444,-407.1648 274.156,-366.6551 246.5136,-343.8638"/>
<polygon fill="#191970" stroke="#191970" points="880.621,-457.447 890.7641,-454.3863 880.9262,-450.4537 880.621,-457.447"/>
</g>
<!-- Node24 -->
<g id="node22" class="node">
<title>Node24</title>
<g id="a_node22"><a xlink:href="list_8h_source.html" target="_top" xlink:title="jaegertracingc/list.h">
<polygon fill="#ffffff" stroke="#000000" points="180.5,-386 180.5,-405 281.5,-405 281.5,-386 180.5,-386"/>
<text text-anchor="middle" x="231" y="-393" font-family="Helvetica,sans-Serif" font-size="10.00" fill="#000000">jaegertracingc/list.h</text>
</a>
</g>
</g>
<!-- Node5&#45;&gt;Node24 -->
<g id="edge34" class="edge">
<title>Node5&#45;&gt;Node24</title>
<path fill="none" stroke="#191970" d="M880.2109,-455.7865C758.0444,-452.8965 506.3556,-443.2102 296,-411 286.2526,-409.5075 275.8122,-407.2973 266.2136,-405.0105"/>
<polygon fill="#191970" stroke="#191970" points="880.4814,-459.2935 890.5585,-456.0223 880.6409,-452.2953 880.4814,-459.2935"/>
</g>
<!-- Node25 -->
<g id="node23" class="node">
<title>Node25</title>
<g id="a_node23"><a xlink:href="threading_8h.html" target="_top" xlink:title="Threading utilities. ">
<polygon fill="#ffffff" stroke="#000000" points="1056,-319 1056,-338 1184,-338 1184,-319 1056,-319"/>
<text text-anchor="middle" x="1120" y="-326" font-family="Helvetica,sans-Serif" font-size="10.00" fill="#000000">jaegertracingc/threading.h</text>
</a>
</g>
</g>
<!-- Node5&#45;&gt;Node25 -->
<g id="edge37" class="edge">
<title>Node5&#45;&gt;Node25</title>
<path fill="none" stroke="#191970" d="M983.5181,-442.5627C999.3828,-434.2394 1018.9289,-423.0528 1035,-411 1065.7655,-387.9269 1096.9392,-354.5414 1111.5088,-338.2208"/>
<polygon fill="#191970" stroke="#191970" points="981.4771,-439.6762 974.1797,-447.3572 984.6743,-445.9034 981.4771,-439.6762"/>
</g>
<!-- Node26 -->
<g id="node24" class="node">
<title>Node26</title>
<g id="a_node24"><a xlink:href="metrics_8h.html" target="_top" xlink:title="Metrics interfaces to track various numbers while tracing. ">
<polygon fill="#ffffff" stroke="#000000" points="1880.5,-319 1880.5,-338 2001.5,-338 2001.5,-319 1880.5,-319"/>
<text text-anchor="middle" x="1941" y="-326" font-family="Helvetica,sans-Serif" font-size="10.00" fill="#000000">jaegertracingc/metrics.h</text>
</a>
</g>
</g>
<!-- Node5&#45;&gt;Node26 -->
<g id="edge43" class="edge">
<title>Node5&#45;&gt;Node26</title>
<path fill="none" stroke="#191970" d="M1027.387,-456.4981C1230.6846,-454.6609 1791.1183,-446.4074 1866,-411 1899.7735,-395.0304 1925.251,-356.249 1935.7453,-338.1285"/>
<polygon fill="#191970" stroke="#191970" points="1027.0801,-453.0006 1017.1112,-456.5882 1027.1415,-460.0003 1027.0801,-453.0006"/>
</g>
<!-- Node27 -->
<g id="node25" class="node">
<title>Node27</title>
<g id="a_node25"><a xlink:href="net_8h.html" target="_top" xlink:title="Network utilities. ">
<polygon fill="#ffffff" stroke="#000000" points="936,-319 936,-338 1038,-338 1038,-319 936,-319"/>
<text text-anchor="middle" x="987" y="-326" font-family="Helvetica,sans-Serif" font-size="10.00" fill="#000000">jaegertracingc/net.h</text>
</a>
</g>
</g>
<!-- Node5&#45;&gt;Node27 -->
<g id="edge49" class="edge">
<title>Node5&#45;&gt;Node27</title>
<path fill="none" stroke="#191970" d="M986.1337,-442.5718C998.7805,-435.0964 1011.9454,-424.635 1019,-411 1031.9896,-385.8941 1009.7754,-354.2583 996.2524,-338.4491"/>
<polygon fill="#191970" stroke="#191970" points="984.2163,-439.6308 977.1112,-447.4901 987.5666,-445.7769 984.2163,-439.6308"/>
</g>
<!-- Node5&#45;&gt;Node28 -->
<g id="edge56" class="edge">
<title>Node5&#45;&gt;Node28</title>
<path fill="none" stroke="#191970" d="M880.4934,-452.939C757.4171,-445.672 519.7416,-429.4653 486,-411 455.2882,-394.1928 434.0816,-356.1902 425.3978,-338.2393"/>
<polygon fill="#191970" stroke="#191970" points="880.407,-456.4399 890.5946,-453.5306 880.8163,-449.4519 880.407,-456.4399"/>
</g>
<!-- Node29 -->
<g id="node27" class="node">
<title>Node29</title>
<g id="a_node27"><a xlink:href="vector_8h.html" target="_top" xlink:title="C generic vector implementation. ">
<polygon fill="#ffffff" stroke="#000000" points="556,-386 556,-405 672,-405 672,-386 556,-386"/>
<text text-anchor="middle" x="614" y="-393" font-family="Helvetica,sans-Serif" font-size="10.00" fill="#000000">jaegertracingc/vector.h</text>
</a>
</g>
</g>
<!-- Node5&#45;&gt;Node29 -->
<g id="edge61" class="edge">
<title>Node5&#45;&gt;Node29</title>
<path fill="none" stroke="#191970" d="M891.1938,-445.6395C826.6127,-433.9579 727.1693,-415.9703 666.596,-405.0137"/>
<polygon fill="#191970" stroke="#191970" points="890.7847,-449.1222 901.248,-447.4581 892.0307,-442.234 890.7847,-449.1222"/>
</g>
<!-- Node30 -->
<g id="node28" class="node">
<title>Node30</title>
<g id="a_node28"><a xlink:href="trace__id_8h.html" target="_top" xlink:title="Trace ID representation. ">
<polygon fill="#ffffff" stroke="#000000" points="718.5,-319 718.5,-338 841.5,-338 841.5,-319 718.5,-319"/>
<text text-anchor="middle" x="780" y="-326" font-family="Helvetica,sans-Serif" font-size="10.00" fill="#000000">jaegertracingc/trace_id.h</text>
</a>
</g>
</g>
<!-- Node5&#45;&gt;Node30 -->
<g id="edge70" class="edge">
<title>Node5&#45;&gt;Node30</title>
<path fill="none" stroke="#191970" d="M917.3151,-443.7572C898.0668,-435.8557 874.6725,-424.6895 856,-411 826.3167,-389.238 799.0382,-354.6416 786.7927,-338.0231"/>
<polygon fill="#191970" stroke="#191970" points="916.0877,-447.0356 926.6732,-447.4789 918.6745,-440.5311 916.0877,-447.0356"/>
</g>
<!-- Node31 -->
<g id="node29" class="node">
<title>Node31</title>
<g id="a_node29"><a xlink:href="sampling__strategy_8h.html" target="_top" xlink:title="Sampling strategy type definitions. ">
<polygon fill="#ffffff" stroke="#000000" points="1295.5,-380.5 1295.5,-410.5 1414.5,-410.5 1414.5,-380.5 1295.5,-380.5"/>
<text text-anchor="start" x="1303.5" y="-398.5" font-family="Helvetica,sans-Serif" font-size="10.00" fill="#000000">jaegertracingc/sampling</text>
<text text-anchor="middle" x="1355" y="-387.5" font-family="Helvetica,sans-Serif" font-size="10.00" fill="#000000">_strategy.h</text>
</a>
</g>
</g>
<!-- Node5&#45;&gt;Node31 -->
<g id="edge73" class="edge">
<title>Node5&#45;&gt;Node31</title>
<path fill="none" stroke="#191970" d="M1026.3069,-445.9105C1103.2303,-434.1131 1223.5097,-415.6662 1295.259,-404.6623"/>
<polygon fill="#191970" stroke="#191970" points="1025.5701,-442.4825 1016.2163,-447.4581 1026.6313,-449.4016 1025.5701,-442.4825"/>
</g>
<!-- Node8 -->
<g id="node6" class="node">
<title>Node8</title>
<g id="a_node6"><a xlink:href="propagation_8c.html" target="_top" xlink:title="Trace ID representation. ">
<polygon fill="#ffffff" stroke="#000000" points="1161.5,-.5 1161.5,-19.5 1300.5,-19.5 1300.5,-.5 1161.5,-.5"/>
<text text-anchor="middle" x="1231" y="-7.5" font-family="Helvetica,sans-Serif" font-size="10.00" fill="#000000">jaegertracingc/propagation.c</text>
</a>
</g>
</g>
<!-- Node7&#45;&gt;Node8 -->
<g id="edge5" class="edge">
<title>Node7&#45;&gt;Node8</title>
<path fill="none" stroke="#191970" d="M1231,-51.7462C1231,-41.0519 1231,-28.314 1231,-19.7449"/>
<polygon fill="#191970" stroke="#191970" points="1227.5001,-51.8906 1231,-61.8906 1234.5001,-51.8907 1227.5001,-51.8906"/>
</g>
<!-- Node9&#45;&gt;Node10 -->
<g id="edge7" class="edge">
<title>Node9&#45;&gt;Node10</title>
<path fill="none" stroke="#191970" d="M887.8674,-384.7534C838.1227,-375.9126 768.5736,-361.933 709,-344 645.5756,-324.9078 574.3705,-294.6519 533.8825,-276.5716"/>
<polygon fill="#191970" stroke="#191970" points="887.4023,-388.2252 897.8569,-386.507 888.6127,-381.3306 887.4023,-388.2252"/>
</g>
<!-- Node9&#45;&gt;Node11 -->
<g id="edge13" class="edge">
<title>Node9&#45;&gt;Node11</title>
<path fill="none" stroke="#191970" d="M936.5963,-378.865C916.8807,-360.7263 883.164,-331.7826 850,-313 755.1806,-259.2987 631.3345,-220.9498 571.0785,-204.0855"/>
<polygon fill="#191970" stroke="#191970" points="934.4489,-381.6484 944.1462,-385.916 939.2267,-376.5325 934.4489,-381.6484"/>
</g>
<!-- Node9&#45;&gt;Node13 -->
<g id="edge14" class="edge">
<title>Node9&#45;&gt;Node13</title>
<path fill="none" stroke="#191970" d="M1020.4387,-392.3631C1092.4031,-387.4091 1200.3929,-374.9105 1226,-344 1247.5308,-318.0101 1204.0154,-286.7611 1177.8348,-271.2393"/>
<polygon fill="#191970" stroke="#191970" points="1019.8463,-388.8943 1010.0965,-393.0406 1020.3039,-395.8794 1019.8463,-388.8943"/>
</g>
<!-- Node9&#45;&gt;Node15 -->
<g id="edge17" class="edge">
<title>Node9&#45;&gt;Node15</title>
<path fill="none" stroke="#191970" d="M1020.3342,-387.3638C1090.5622,-378.3581 1204.5125,-362.627 1302,-344 1306.5088,-343.1385 1311.1755,-342.1798 1315.8475,-341.1734"/>
<polygon fill="#191970" stroke="#191970" points="1019.7743,-383.9068 1010.2971,-388.6433 1020.6595,-390.8506 1019.7743,-383.9068"/>
</g>
<!-- Node10&#45;&gt;Node11 -->
<g id="edge8" class="edge">
<title>Node10&#45;&gt;Node11</title>
<path fill="none" stroke="#191970" d="M513.3535,-237.1564C519.175,-225.6846 525.7838,-212.6613 530.1512,-204.055"/>
<polygon fill="#191970" stroke="#191970" points="510.1193,-235.7953 508.7151,-246.2967 516.3616,-238.963 510.1193,-235.7953"/>
</g>
<!-- Node11&#45;&gt;Node6 -->
<g id="edge9" class="edge">
<title>Node11&#45;&gt;Node6</title>
<path fill="none" stroke="#191970" d="M600.078,-191.5755C670.5405,-188.4209 786.2401,-183.2754 886,-179 1283.5661,-161.9617 1761.4906,-142.4213 1930.2731,-135.5493"/>
<polygon fill="#191970" stroke="#191970" points="599.8507,-188.0821 590.0174,-192.0261 600.164,-195.0751 599.8507,-188.0821"/>
</g>
<!-- Node11&#45;&gt;Node8 -->
<g id="edge10" class="edge">
<title>Node11&#45;&gt;Node8</title>
<path fill="none" stroke="#191970" d="M557.1234,-179.0162C581.4789,-162.6879 622.3266,-137.3773 661,-123 834.5196,-58.492 1052.1473,-28.4031 1161.496,-16.5344"/>
<polygon fill="#191970" stroke="#191970" points="554.9332,-176.2731 548.6353,-184.7929 558.8716,-182.0601 554.9332,-176.2731"/>
</g>
<!-- Node11&#45;&gt;Node12 -->
<g id="edge11" class="edge">
<title>Node11&#45;&gt;Node12</title>
<path fill="none" stroke="#191970" d="M575.6318,-181.7507C612.8206,-170.0818 667.0205,-153.0752 700.5901,-142.5419"/>
<polygon fill="#191970" stroke="#191970" points="574.1185,-178.5573 565.625,-184.8906 576.2142,-185.2362 574.1185,-178.5573"/>
</g>
<!-- Node12&#45;&gt;Node7 -->
<g id="edge12" class="edge">
<title>Node12&#45;&gt;Node7</title>
<path fill="none" stroke="#191970" d="M802.3344,-124.2259C902.4478,-111.9119 1082.6133,-89.7516 1174.2064,-78.4856"/>
<polygon fill="#191970" stroke="#191970" points="801.8077,-120.7642 792.3098,-125.4589 802.6623,-127.7118 801.8077,-120.7642"/>
</g>
<!-- Node13&#45;&gt;Node7 -->
<g id="edge15" class="edge">
<title>Node13&#45;&gt;Node7</title>
<path fill="none" stroke="#191970" d="M1167.1264,-242.4294C1182.0304,-202.5455 1216.0436,-111.5242 1227.3036,-81.3917"/>
<polygon fill="#191970" stroke="#191970" points="1163.8404,-241.2241 1163.6185,-251.8167 1170.3976,-243.6745 1163.8404,-241.2241"/>
</g>
<!-- Node13&#45;&gt;Node14 -->
<g id="edge16" class="edge">
<title>Node13&#45;&gt;Node14</title>
<path fill="none" stroke="#191970" d="M1119.9209,-248.893C1084.3873,-237.7157 1032.4337,-221.3735 994.7558,-209.5218"/>
<polygon fill="#191970" stroke="#191970" points="1118.8929,-252.2386 1129.4823,-251.9005 1120.9933,-245.5611 1118.8929,-252.2386"/>
</g>
<!-- Node15&#45;&gt;Node13 -->
<g id="edge18" class="edge">
<title>Node15&#45;&gt;Node13</title>
<path fill="none" stroke="#191970" d="M1311.5724,-310.3238C1272.1707,-297.6319 1221.1566,-281.1995 1189.5089,-271.0053"/>
<polygon fill="#191970" stroke="#191970" points="1310.7292,-313.7292 1321.3207,-313.4639 1312.8755,-307.0664 1310.7292,-313.7292"/>
</g>
<!-- Node16&#45;&gt;Node13 -->
<g id="edge23" class="edge">
<title>Node16&#45;&gt;Node13</title>
<path fill="none" stroke="#191970" d="M1667.8079,-316.9579C1660.1813,-315.4916 1652.4047,-314.1163 1645,-313 1479.0004,-287.9752 1435.7009,-296.8224 1269,-277 1253.626,-275.1719 1237.0685,-272.9489 1221.6157,-270.7639"/>
<polygon fill="#191970" stroke="#191970" points="1667.213,-320.4081 1677.7034,-318.9239 1668.5771,-313.5423 1667.213,-320.4081"/>
</g>
<!-- Node16&#45;&gt;Node17 -->
<g id="edge20" class="edge">
<title>Node16&#45;&gt;Node17</title>
<path fill="none" stroke="#191970" d="M1732.6057,-310.5301C1752.7997,-281.743 1791.7119,-226.2724 1807.301,-204.0496"/>
<polygon fill="#191970" stroke="#191970" points="1729.6378,-308.6665 1726.7602,-318.8631 1735.3684,-312.6865 1729.6378,-308.6665"/>
</g>
<!-- Node17&#45;&gt;Node7 -->
<g id="edge21" class="edge">
<title>Node17&#45;&gt;Node7</title>
<path fill="none" stroke="#191970" d="M1801.336,-176.7113C1788.1389,-159.7186 1765.8041,-134.976 1740,-123 1660.8447,-86.2631 1403.3145,-75.5805 1287.8791,-72.5993"/>
<polygon fill="#191970" stroke="#191970" points="1798.5813,-178.8718 1807.3743,-184.7823 1804.1863,-174.6784 1798.5813,-178.8718"/>
</g>
<!-- Node17&#45;&gt;Node8 -->
<g id="edge22" class="edge">
<title>Node17&#45;&gt;Node8</title>
<path fill="none" stroke="#191970" d="M1806.5674,-175.6414C1799.0744,-159.1548 1785.9037,-135.8919 1767,-123 1691.5735,-71.5609 1427.7868,-33.7179 1300.6075,-18.0114"/>
<polygon fill="#191970" stroke="#191970" points="1803.3621,-177.0478 1810.4997,-184.8777 1809.8027,-174.3058 1803.3621,-177.0478"/>
</g>
<!-- Node18&#45;&gt;Node11 -->
<g id="edge27" class="edge">
<title>Node18&#45;&gt;Node11</title>
<path fill="none" stroke="#191970" d="M216.6045,-250.1984C290.6805,-237.24 410.8224,-216.223 480.4104,-204.0496"/>
<polygon fill="#191970" stroke="#191970" points="215.7151,-246.8008 206.4678,-251.9717 216.9214,-253.6961 215.7151,-246.8008"/>
</g>
<!-- Node19 -->
<g id="node17" class="node">
<title>Node19</title>
<g id="a_node17"><a xlink:href="strings_8h.html" target="_top" xlink:title="jaegertracingc/internal\l/strings.h">
<polygon fill="#ffffff" stroke="#000000" points="58,-56.5 58,-86.5 170,-86.5 170,-56.5 58,-56.5"/>
<text text-anchor="start" x="66" y="-74.5" font-family="Helvetica,sans-Serif" font-size="10.00" fill="#000000">jaegertracingc/internal</text>
<text text-anchor="middle" x="114" y="-63.5" font-family="Helvetica,sans-Serif" font-size="10.00" fill="#000000">/strings.h</text>
</a>
</g>
</g>
<!-- Node18&#45;&gt;Node19 -->
<g id="edge25" class="edge">
<title>Node18&#45;&gt;Node19</title>
<path fill="none" stroke="#191970" d="M148.0962,-241.9809C140.5018,-204.0092 123.8858,-120.9289 117.0402,-86.7011"/>
<polygon fill="#191970" stroke="#191970" points="144.6701,-242.6973 150.0633,-251.8167 151.5341,-241.3244 144.6701,-242.6973"/>
</g>
<!-- Node19&#45;&gt;Node8 -->
<g id="edge26" class="edge">
<title>Node19&#45;&gt;Node8</title>
<path fill="none" stroke="#191970" d="M180.1193,-66.5647C224.2515,-63.349 283.5855,-59.1765 336,-56 643.4982,-37.3647 1010.7291,-20.0384 1161.3465,-13.144"/>
<polygon fill="#191970" stroke="#191970" points="179.8115,-63.0777 170.0934,-67.2978 180.3221,-70.0591 179.8115,-63.0777"/>
</g>
<!-- Node22 -->
<g id="node20" class="node">
<title>Node22</title>
<g id="a_node20"><a xlink:href="siphash_8c.html" target="_top" xlink:title="Siphash implementation. ">
<polygon fill="#ffffff" stroke="#000000" points="1514,-319 1514,-338 1636,-338 1636,-319 1514,-319"/>
<text text-anchor="middle" x="1575" y="-326" font-family="Helvetica,sans-Serif" font-size="10.00" fill="#000000">jaegertracingc/siphash.c</text>
</a>
</g>
</g>
<!-- Node21&#45;&gt;Node22 -->
<g id="edge30" class="edge">
<title>Node21&#45;&gt;Node22</title>
<path fill="none" stroke="#191970" d="M1575,-375.6079C1575,-363.214 1575,-347.8263 1575,-338.0817"/>
<polygon fill="#191970" stroke="#191970" points="1571.5001,-375.9005 1575,-385.9005 1578.5001,-375.9006 1571.5001,-375.9005"/>
</g>
<!-- Node23&#45;&gt;Node11 -->
<g id="edge33" class="edge">
<title>Node23&#45;&gt;Node11</title>
<path fill="none" stroke="#191970" d="M249.2872,-306.0316C268.2461,-287.3088 297.6165,-261.3124 328,-246 376.2831,-221.6666 436.8214,-208.3378 479.9318,-201.3761"/>
<polygon fill="#191970" stroke="#191970" points="246.6258,-303.7446 242.0683,-313.3091 251.5956,-308.6743 246.6258,-303.7446"/>
</g>
<!-- Node23&#45;&gt;Node18 -->
<g id="edge32" class="edge">
<title>Node23&#45;&gt;Node18</title>
<path fill="none" stroke="#191970" d="M203.0908,-306.5406C189.4664,-294.5296 173.2842,-280.2637 162.8385,-271.055"/>
<polygon fill="#191970" stroke="#191970" points="200.9386,-309.3091 210.7544,-313.2967 205.5677,-304.0582 200.9386,-309.3091"/>
</g>
<!-- Node24&#45;&gt;Node18 -->
<g id="edge35" class="edge">
<title>Node24&#45;&gt;Node18</title>
<path fill="none" stroke="#191970" d="M206.7144,-380.2295C194.2337,-371.167 179.8311,-358.6024 171,-344 156.7767,-320.4815 153.1946,-287.3013 152.297,-271.1237"/>
<polygon fill="#191970" stroke="#191970" points="204.7395,-383.1191 214.9558,-385.9261 208.7198,-377.3608 204.7395,-383.1191"/>
</g>
<!-- Node25&#45;&gt;Node11 -->
<g id="edge40" class="edge">
<title>Node25&#45;&gt;Node11</title>
<path fill="none" stroke="#191970" d="M1073.038,-316.3321C1008.3607,-299.7121 888.1492,-269.3166 785,-246 715.41,-230.2694 634.4704,-213.9555 583.9813,-204.0138"/>
<polygon fill="#191970" stroke="#191970" points="1072.3736,-319.7751 1082.9304,-318.878 1074.1184,-312.996 1072.3736,-319.7751"/>
</g>
<!-- Node25&#45;&gt;Node12 -->
<g id="edge41" class="edge">
<title>Node25&#45;&gt;Node12</title>
<path fill="none" stroke="#191970" d="M1108.7389,-310.1716C1086.1357,-273.9927 1035.0924,-195.469 1008,-179 972.6443,-157.5078 862.3841,-144.2925 792.101,-137.8273"/>
<polygon fill="#191970" stroke="#191970" points="1105.8343,-312.1288 1114.0798,-318.7817 1111.7828,-308.4389 1105.8343,-312.1288"/>
</g>
<!-- Node25&#45;&gt;Node13 -->
<g id="edge42" class="edge">
<title>Node25&#45;&gt;Node13</title>
<path fill="none" stroke="#191970" d="M1130.9792,-310.1099C1138.5197,-297.4795 1148.2244,-281.2241 1154.2796,-271.0817"/>
<polygon fill="#191970" stroke="#191970" points="1127.852,-308.5202 1125.731,-318.9005 1133.8624,-312.1085 1127.852,-308.5202"/>
</g>
<!-- Node25&#45;&gt;Node14 -->
<g id="edge39" class="edge">
<title>Node25&#45;&gt;Node14</title>
<path fill="none" stroke="#191970" d="M1095.4526,-313.4618C1079.8016,-303.5913 1059.2869,-290.1231 1042,-277 1013.1181,-255.0747 981.7476,-226.8949 963.26,-209.7909"/>
<polygon fill="#191970" stroke="#191970" points="1093.7088,-316.4992 1104.0445,-318.8279 1097.4169,-310.562 1093.7088,-316.4992"/>
</g>
<!-- Node25&#45;&gt;Node20 -->
<g id="edge38" class="edge">
<title>Node25&#45;&gt;Node20</title>
<path fill="none" stroke="#191970" d="M1160.2673,-315.893C1195.9677,-304.7157 1248.1652,-288.3735 1286.02,-276.5218"/>
<polygon fill="#191970" stroke="#191970" points="1159.1584,-312.5725 1150.661,-318.9005 1161.25,-319.2528 1159.1584,-312.5725"/>
</g>
<!-- Node26&#45;&gt;Node6 -->
<g id="edge44" class="edge">
<title>Node26&#45;&gt;Node6</title>
<path fill="none" stroke="#191970" d="M1946.2136,-308.8987C1957.1766,-267.6824 1982.2745,-173.3237 1990.4057,-142.7534"/>
<polygon fill="#191970" stroke="#191970" points="1942.7668,-308.2414 1943.5787,-318.8051 1949.5316,-310.0408 1942.7668,-308.2414"/>
</g>
<!-- Node26&#45;&gt;Node8 -->
<g id="edge45" class="edge">
<title>Node26&#45;&gt;Node8</title>
<path fill="none" stroke="#191970" d="M1931.7382,-309.4358C1920.2044,-283.8977 1902,-236.8774 1902,-194.5 1902,-194.5 1902,-194.5 1902,-133 1902,-72.3395 1472.2454,-29.9937 1300.5954,-15.4995"/>
<polygon fill="#191970" stroke="#191970" points="1928.6606,-311.1176 1936.0606,-318.6999 1935.0041,-308.1578 1928.6606,-311.1176"/>
</g>
<!-- Node26&#45;&gt;Node12 -->
<g id="edge46" class="edge">
<title>Node26&#45;&gt;Node12</title>
<path fill="none" stroke="#191970" d="M1875.3302,-317.3002C1726.3557,-291.9676 1351.307,-228.6111 1037,-179 952.0961,-165.5985 853.7908,-150.9802 792.0015,-141.9009"/>
<polygon fill="#191970" stroke="#191970" points="1874.7923,-320.7589 1885.2377,-318.9856 1875.9663,-313.8581 1874.7923,-320.7589"/>
</g>
<!-- Node26&#45;&gt;Node13 -->
<g id="edge47" class="edge">
<title>Node26&#45;&gt;Node13</title>
<path fill="none" stroke="#191970" d="M1870.2726,-320.4524C1846.3845,-317.8779 1819.552,-315.1427 1795,-313 1561.5626,-292.6275 1502.0392,-301.5111 1269,-277 1253.5076,-275.3705 1236.832,-273.2076 1221.2968,-271.016"/>
<polygon fill="#191970" stroke="#191970" points="1869.9953,-323.9427 1880.3149,-321.5437 1870.7516,-316.9837 1869.9953,-323.9427"/>
</g>
<!-- Node27&#45;&gt;Node12 -->
<g id="edge50" class="edge">
<title>Node27&#45;&gt;Node12</title>
<path fill="none" stroke="#191970" d="M966.2723,-312.6708C915.1909,-273.6614 784.4388,-173.8097 743.4698,-142.5229"/>
<polygon fill="#191970" stroke="#191970" points="964.2331,-315.5174 974.3049,-318.8051 968.4816,-309.9541 964.2331,-315.5174"/>
</g>
<!-- Node27&#45;&gt;Node13 -->
<g id="edge51" class="edge">
<title>Node27&#45;&gt;Node13</title>
<path fill="none" stroke="#191970" d="M1021.2162,-315.2487C1054.8451,-302.2247 1105.3478,-282.6659 1135.2593,-271.0817"/>
<polygon fill="#191970" stroke="#191970" points="1019.8478,-312.0252 1011.7867,-318.9005 1022.3758,-318.5528 1019.8478,-312.0252"/>
</g>
<!-- Node28&#45;&gt;Node7 -->
<g id="edge57" class="edge">
<title>Node28&#45;&gt;Node7</title>
<path fill="none" stroke="#191970" d="M419.6725,-308.1022C419.2188,-291.0531 420.1072,-266.3328 427,-246 438.4375,-212.261 442.3865,-200.2227 471,-179 582.7138,-96.1419 1017.5815,-76.9342 1174.3032,-72.6665"/>
<polygon fill="#191970" stroke="#191970" points="416.1958,-308.6999 420.1437,-318.5317 423.1887,-308.3839 416.1958,-308.6999"/>
</g>
<!-- Node28&#45;&gt;Node10 -->
<g id="edge58" class="edge">
<title>Node28&#45;&gt;Node10</title>
<path fill="none" stroke="#191970" d="M440.3418,-312.3012C453.3454,-301.4107 470.3636,-287.1579 483.0636,-276.5218"/>
<polygon fill="#191970" stroke="#191970" points="437.8813,-309.7965 432.462,-318.9005 442.3758,-315.1631 437.8813,-309.7965"/>
</g>
<!-- Node28&#45;&gt;Node11 -->
<g id="edge59" class="edge">
<title>Node28&#45;&gt;Node11</title>
<path fill="none" stroke="#191970" d="M422.5488,-308.8296C424.8634,-290.8113 430.6319,-264.2451 445,-246 460.8157,-225.9166 486.7769,-212.2678 506.7623,-204.0944"/>
<polygon fill="#191970" stroke="#191970" points="419.066,-308.4835 421.508,-318.7931 426.0281,-309.2109 419.066,-308.4835"/>
</g>
<!-- Node28&#45;&gt;Node13 -->
<g id="edge60" class="edge">
<title>Node28&#45;&gt;Node13</title>
<path fill="none" stroke="#191970" d="M482.134,-322.9574C621.041,-310.3637 959.1291,-279.7116 1098.4411,-267.0811"/>
<polygon fill="#191970" stroke="#191970" points="481.7291,-319.4797 472.086,-323.8684 482.3612,-326.4511 481.7291,-319.4797"/>
</g>
<!-- Node29&#45;&gt;Node7 -->
<g id="edge62" class="edge">
<title>Node29&#45;&gt;Node7</title>
<path fill="none" stroke="#191970" d="M682.3968,-391.4234C834.5883,-382.1053 1189.5662,-358.9049 1211,-344 1244.2977,-320.845 1250,-302.0572 1250,-261.5 1250,-261.5 1250,-261.5 1250,-194.5 1250,-151.9334 1238.7486,-102.0415 1233.5624,-81.3054"/>
<polygon fill="#191970" stroke="#191970" points="682.002,-387.9408 672.2338,-392.0434 682.4284,-394.9278 682.002,-387.9408"/>
</g>
<!-- Node29&#45;&gt;Node10 -->
<g id="edge64" class="edge">
<title>Node29&#45;&gt;Node10</title>
<path fill="none" stroke="#191970" d="M595.5573,-378.5691C585.2887,-368.8201 572.4982,-356.1289 562,-344 542.6483,-321.6424 522.7446,-293.5909 511.1416,-276.6306"/>
<polygon fill="#191970" stroke="#191970" points="593.4686,-381.4083 603.1598,-385.6898 598.2538,-376.2993 593.4686,-381.4083"/>
</g>
<!-- Node29&#45;&gt;Node11 -->
<g id="edge66" class="edge">
<title>Node29&#45;&gt;Node11</title>
<path fill="none" stroke="#191970" d="M606.5982,-376.108C595.6737,-347.5591 574.5242,-292.5631 556,-246 550.2178,-231.4657 543.3442,-214.7031 539.076,-204.3527"/>
<polygon fill="#191970" stroke="#191970" points="603.4179,-377.5907 610.2576,-385.6819 609.9565,-375.0914 603.4179,-377.5907"/>
</g>
<!-- Node29&#45;&gt;Node12 -->
<g id="edge67" class="edge">
<title>Node29&#45;&gt;Node12</title>
<path fill="none" stroke="#191970" d="M622.4853,-376.4625C645.6562,-324.4765 709.4237,-181.4083 726.658,-142.7416"/>
<polygon fill="#191970" stroke="#191970" points="619.1771,-375.2875 618.3029,-385.8462 625.5708,-378.1372 619.1771,-375.2875"/>
</g>
<!-- Node29&#45;&gt;Node13 -->
<g id="edge68" class="edge">
<title>Node29&#45;&gt;Node13</title>
<path fill="none" stroke="#191970" d="M682.6615,-391.8511C832.3231,-383.5662 1175.9729,-362.6089 1193,-344 1212.6817,-322.49 1185.3152,-287.7735 1169.6424,-271.0749"/>
<polygon fill="#191970" stroke="#191970" points="682.0207,-388.3809 672.2282,-392.4255 682.4055,-395.3704 682.0207,-388.3809"/>
</g>
<!-- Node29&#45;&gt;Node14 -->
<g id="edge65" class="edge">
<title>Node29&#45;&gt;Node14</title>
<path fill="none" stroke="#191970" d="M630.7673,-378.5833C648.9568,-360.8185 679.3788,-332.77 709,-313 775.6103,-268.5425 861.2515,-229.9159 909.5321,-209.6369"/>
<polygon fill="#191970" stroke="#191970" points="627.9638,-376.4335 623.3176,-385.9552 632.8875,-381.4092 627.9638,-376.4335"/>
</g>
<!-- Node29&#45;&gt;Node23 -->
<g id="edge63" class="edge">
<title>Node29&#45;&gt;Node23</title>
<path fill="none" stroke="#191970" d="M549.0187,-384.2209C471.8247,-370.8219 344.8625,-348.7844 276.0125,-336.8338"/>
<polygon fill="#191970" stroke="#191970" points="548.6543,-387.7099 559.1055,-385.9717 549.8515,-380.813 548.6543,-387.7099"/>
</g>
<!-- Node29&#45;&gt;Node28 -->
<g id="edge69" class="edge">
<title>Node29&#45;&gt;Node28</title>
<path fill="none" stroke="#191970" d="M576.7901,-382.5826C539.2805,-369.5611 482.2568,-349.7653 448.6009,-338.0817"/>
<polygon fill="#191970" stroke="#191970" points="575.753,-385.9274 586.3478,-385.9005 578.0487,-379.3145 575.753,-385.9274"/>
</g>
<!-- Node30&#45;&gt;Node11 -->
<g id="edge71" class="edge">
<title>Node30&#45;&gt;Node11</title>
<path fill="none" stroke="#191970" d="M753.3832,-313.9422C702.9562,-286.3617 594.7622,-227.1863 552.4601,-204.0496"/>
<polygon fill="#191970" stroke="#191970" points="751.9272,-317.1352 762.3802,-318.8631 755.2862,-310.9937 751.9272,-317.1352"/>
</g>
<!-- Node30&#45;&gt;Node13 -->
<g id="edge72" class="edge">
<title>Node30&#45;&gt;Node13</title>
<path fill="none" stroke="#191970" d="M844.0984,-317.1984C917.5942,-304.24 1036.7951,-283.223 1105.838,-271.0496"/>
<polygon fill="#191970" stroke="#191970" points="843.2815,-313.7884 834.0412,-318.9717 844.497,-320.6821 843.2815,-313.7884"/>
</g>
<!-- Node31&#45;&gt;Node13 -->
<g id="edge74" class="edge">
<title>Node31&#45;&gt;Node13</title>
<path fill="none" stroke="#191970" d="M1393.6801,-375.1874C1419.9853,-358.7312 1447.0084,-334.7832 1429,-313 1422.3252,-304.9261 1297.3353,-283.5586 1220.1085,-271.0292"/>
<polygon fill="#191970" stroke="#191970" points="1391.6384,-372.3303 1384.8529,-380.467 1395.2315,-378.3377 1391.6384,-372.3303"/>
</g>
</g>
</svg>
