<?xml version="1.0" encoding="UTF-8" standalone="no"?>
<!DOCTYPE svg PUBLIC "-//W3C//DTD SVG 1.1//EN"
 "http://www.w3.org/Graphics/SVG/1.1/DTD/svg11.dtd">
<!-- Generated by graphviz version 2.40.1 (20161225.0304)
 -->
<!-- Title: jaegertracingc/logging.h Pages: 1 -->
<svg width="2001pt" height="576pt"
 viewBox="0.00 0.00 2000.69 576.00" xmlns="http://www.w3.org/2000/svg" xmlns:xlink="http://www.w3.org/1999/xlink">
<g id="graph0" class="graph" transform="scale(1 1) rotate(0) translate(4 572)">
<title>jaegertracingc/logging.h</title>
<polygon fill="#ffffff" stroke="transparent" points="-4,4 -4,-572 1996.6917,-572 1996.6917,4 -4,4"/>
<!-- Node3 -->
<g id="node1" class="node">
<title>Node3</title>
<polygon fill="#bfbfbf" stroke="#000000" points="1409.1917,-548.5 1409.1917,-567.5 1528.1917,-567.5 1528.1917,-548.5 1409.1917,-548.5"/>
<text text-anchor="middle" x="1468.6917" y="-555.5" font-family="Helvetica,sans-Serif" font-size="10.00" fill="#000000">jaegertracingc/logging.h</text>
</g>
<!-- Node4 -->
<g id="node2" class="node">
<title>Node4</title>
<g id="a_node2"><a xlink:href="alloc_8h.html" target="_top" xlink:title="Allocator struct and functions. ">
<polygon fill="#ffffff" stroke="#000000" points="1498.1917,-492.5 1498.1917,-511.5 1607.1917,-511.5 1607.1917,-492.5 1498.1917,-492.5"/>
<text text-anchor="middle" x="1552.6917" y="-499.5" font-family="Helvetica,sans-Serif" font-size="10.00" fill="#000000">jaegertracingc/alloc.h</text>
</a>
</g>
</g>
<!-- Node3&#45;&gt;Node4 -->
<g id="edge1" class="edge">
<title>Node3&#45;&gt;Node4</title>
<path fill="none" stroke="#191970" d="M1491.9566,-542.49C1506.7772,-532.6096 1525.5125,-520.1194 1538.2276,-511.6427"/>
<polygon fill="#191970" stroke="#191970" points="1489.7024,-539.7863 1483.3233,-548.2455 1493.5853,-545.6107 1489.7024,-539.7863"/>
</g>
<!-- Node5 -->
<g id="node3" class="node">
<title>Node5</title>
<g id="a_node3"><a xlink:href="common_8h.html" target="_top" xlink:title="Common headers, struct definitions, and macros. ">
<polygon fill="#ffffff" stroke="#000000" points="985.6917,-436.5 985.6917,-455.5 1111.6917,-455.5 1111.6917,-436.5 985.6917,-436.5"/>
<text text-anchor="middle" x="1048.6917" y="-443.5" font-family="Helvetica,sans-Serif" font-size="10.00" fill="#000000">jaegertracingc/common.h</text>
</a>
</g>
</g>
<!-- Node3&#45;&gt;Node5 -->
<g id="edge75" class="edge">
<title>Node3&#45;&gt;Node5</title>
<path fill="none" stroke="#191970" d="M1423.0912,-545.8399C1338.869,-523.3806 1160.5792,-475.8367 1084.41,-455.5249"/>
<polygon fill="#191970" stroke="#191970" points="1422.3185,-549.2561 1432.8827,-548.4509 1424.1222,-542.4924 1422.3185,-549.2561"/>
</g>
<!-- Node11 -->
<g id="node9" class="node">
<title>Node11</title>
<g id="a_node9"><a xlink:href="reporter_8h.html" target="_top" xlink:title="Span reporter interface. ">
<polygon fill="#ffffff" stroke="#000000" points="950.6917,-112.5 950.6917,-131.5 1072.6917,-131.5 1072.6917,-112.5 950.6917,-112.5"/>
<text text-anchor="middle" x="1011.6917" y="-119.5" font-family="Helvetica,sans-Serif" font-size="10.00" fill="#000000">jaegertracingc/reporter.h</text>
</a>
</g>
</g>
<!-- Node3&#45;&gt;Node11 -->
<g id="edge77" class="edge">
<title>Node3&#45;&gt;Node11</title>
<path fill="none" stroke="#191970" d="M1398.8342,-556.3749C1107.0341,-549.1356 .6917,-517.0061 .6917,-446 .6917,-446 .6917,-446 .6917,-384.5 .6917,-315.6022 -8.3273,-282.3816 41.6917,-235 143.7108,-138.3602 211.5716,-187.8181 350.6917,-168 569.9198,-136.7702 833.2009,-126.4972 950.3245,-123.3222"/>
<polygon fill="#191970" stroke="#191970" points="1398.7845,-559.8747 1408.8676,-556.622 1398.9568,-552.8768 1398.7845,-559.8747"/>
</g>
<!-- Node21 -->
<g id="node19" class="node">
<title>Node21</title>
<g id="a_node19"><a xlink:href="key__value_8h.html" target="_top" xlink:title="Key value pair representation. ">
<polygon fill="#ffffff" stroke="#000000" points="1868.6917,-302.5 1868.6917,-332.5 1964.6917,-332.5 1964.6917,-302.5 1868.6917,-302.5"/>
<text text-anchor="start" x="1876.6917" y="-320.5" font-family="Helvetica,sans-Serif" font-size="10.00" fill="#000000">jaegertracingc/key</text>
<text text-anchor="middle" x="1916.6917" y="-309.5" font-family="Helvetica,sans-Serif" font-size="10.00" fill="#000000">_value.h</text>
</a>
</g>
</g>
<!-- Node3&#45;&gt;Node21 -->
<g id="edge76" class="edge">
<title>Node3&#45;&gt;Node21</title>
<path fill="none" stroke="#191970" d="M1538.2086,-548.0768C1622.3285,-534.4583 1767.0587,-505.8104 1882.6917,-456 1924.9244,-437.8077 1947.6682,-440.3675 1969.6917,-400 1976.2903,-387.9052 1975.0554,-381.6908 1969.6917,-369 1963.4482,-354.2278 1950.6657,-341.603 1939.2185,-332.5505"/>
<polygon fill="#191970" stroke="#191970" points="1537.5807,-544.6326 1528.2566,-549.6634 1538.6829,-551.5453 1537.5807,-544.6326"/>
</g>
<!-- Node4&#45;&gt;Node5 -->
<g id="edge2" class="edge">
<title>Node4&#45;&gt;Node5</title>
<path fill="none" stroke="#191970" d="M1487.7937,-494.7891C1390.5011,-483.9788 1208.0126,-463.7023 1111.7855,-453.0104"/>
<polygon fill="#191970" stroke="#191970" points="1487.47,-498.2746 1497.7954,-495.9004 1488.2431,-491.3174 1487.47,-498.2746"/>
</g>
<!-- Node4&#45;&gt;Node21 -->
<g id="edge73" class="edge">
<title>Node4&#45;&gt;Node21</title>
<path fill="none" stroke="#191970" d="M1617.3539,-495.0841C1719.9709,-482.6277 1912.7276,-452.6883 1953.6917,-400 1969.8784,-379.1805 1948.8855,-350.1568 1932.5401,-332.6631"/>
<polygon fill="#191970" stroke="#191970" points="1616.9262,-491.6102 1607.4114,-496.2705 1617.7557,-498.5609 1616.9262,-491.6102"/>
</g>
<!-- Node28 -->
<g id="node26" class="node">
<title>Node28</title>
<g id="a_node26"><a xlink:href="tag_8h.html" target="_top" xlink:title="Tag representation and functions. ">
<polygon fill="#ffffff" stroke="#000000" points="1446.6917,-308 1446.6917,-327 1548.6917,-327 1548.6917,-308 1446.6917,-308"/>
<text text-anchor="middle" x="1497.6917" y="-315" font-family="Helvetica,sans-Serif" font-size="10.00" fill="#000000">jaegertracingc/tag.h</text>
</a>
</g>
</g>
<!-- Node4&#45;&gt;Node28 -->
<g id="edge74" class="edge">
<title>Node4&#45;&gt;Node28</title>
<path fill="none" stroke="#191970" d="M1546.9274,-482.6634C1535.2535,-443.5029 1509.1921,-356.0787 1500.5428,-327.0641"/>
<polygon fill="#191970" stroke="#191970" points="1543.6011,-483.7569 1549.8121,-492.3402 1550.3093,-481.7571 1543.6011,-483.7569"/>
</g>
<!-- Node6 -->
<g id="node4" class="node">
<title>Node6</title>
<g id="a_node4"><a xlink:href="clock_8h.html" target="_top" xlink:title="Timestamp and duration representations. ">
<polygon fill="#ffffff" stroke="#000000" points="908.6917,-375 908.6917,-394 1020.6917,-394 1020.6917,-375 908.6917,-375"/>
<text text-anchor="middle" x="964.6917" y="-382" font-family="Helvetica,sans-Serif" font-size="10.00" fill="#000000">jaegertracingc/clock.h</text>
</a>
</g>
</g>
<!-- Node5&#45;&gt;Node6 -->
<g id="edge3" class="edge">
<title>Node5&#45;&gt;Node6</title>
<path fill="none" stroke="#191970" d="M1027.478,-430.4685C1011.8187,-419.0037 991.0048,-403.765 977.7245,-394.0419"/>
<polygon fill="#191970" stroke="#191970" points="1025.4304,-433.3072 1035.5667,-436.3906 1029.5656,-427.6592 1025.4304,-433.3072"/>
</g>
<!-- Node7 -->
<g id="node5" class="node">
<title>Node7</title>
<g id="a_node5"><a xlink:href="log__record_8h.html" target="_top" xlink:title="Log record representation for use in span. ">
<polygon fill="#ffffff" stroke="#000000" points="1376.1917,-235.5 1376.1917,-265.5 1469.1917,-265.5 1469.1917,-235.5 1376.1917,-235.5"/>
<text text-anchor="start" x="1384.1917" y="-253.5" font-family="Helvetica,sans-Serif" font-size="10.00" fill="#000000">jaegertracingc/log</text>
<text text-anchor="middle" x="1422.6917" y="-242.5" font-family="Helvetica,sans-Serif" font-size="10.00" fill="#000000">_record.h</text>
</a>
</g>
</g>
<!-- Node5&#45;&gt;Node7 -->
<g id="edge31" class="edge">
<title>Node5&#45;&gt;Node7</title>
<path fill="none" stroke="#191970" d="M1121.9308,-441.8906C1207.0828,-436.2339 1351.5629,-423.911 1473.6917,-400 1579.8552,-379.2147 1642.5711,-419.383 1707.6917,-333 1715.9855,-321.9982 1716.5254,-312.5731 1707.6917,-302 1703.8684,-297.424 1549.1357,-271.3378 1469.3054,-258.1426"/>
<polygon fill="#191970" stroke="#191970" points="1121.5972,-438.4048 1111.846,-442.5477 1122.0524,-445.39 1121.5972,-438.4048"/>
</g>
<!-- Node8 -->
<g id="node6" class="node">
<title>Node8</title>
<g id="a_node6"><a xlink:href="span_8h.html" target="_top" xlink:title="Span, span context, and span ref representations and functions. ">
<polygon fill="#ffffff" stroke="#000000" points="1299.6917,-174 1299.6917,-193 1409.6917,-193 1409.6917,-174 1299.6917,-174"/>
<text text-anchor="middle" x="1354.6917" y="-181" font-family="Helvetica,sans-Serif" font-size="10.00" fill="#000000">jaegertracingc/span.h</text>
</a>
</g>
</g>
<!-- Node5&#45;&gt;Node8 -->
<g id="edge48" class="edge">
<title>Node5&#45;&gt;Node8</title>
<path fill="none" stroke="#191970" d="M1122.3846,-442.9905C1248.5181,-437.2889 1500.4355,-423.3481 1585.6917,-400 1651.8361,-381.8858 1688.2153,-391.0748 1724.6917,-333 1732.0198,-321.3327 1732.8135,-313.1294 1724.6917,-302 1687.1175,-250.5119 1503.352,-210.4597 1409.736,-193.0216"/>
<polygon fill="#191970" stroke="#191970" points="1121.8854,-439.5092 1112.0515,-443.4519 1122.1977,-446.5023 1121.8854,-439.5092"/>
</g>
<!-- Node10 -->
<g id="node8" class="node">
<title>Node10</title>
<g id="a_node8"><a xlink:href="tracer_8h.html" target="_top" xlink:title="Tracer implementation. ">
<polygon fill="#ffffff" stroke="#000000" points="1245.1917,-56.5 1245.1917,-75.5 1358.1917,-75.5 1358.1917,-56.5 1245.1917,-56.5"/>
<text text-anchor="middle" x="1301.6917" y="-63.5" font-family="Helvetica,sans-Serif" font-size="10.00" fill="#000000">jaegertracingc/tracer.h</text>
</a>
</g>
</g>
<!-- Node5&#45;&gt;Node10 -->
<g id="edge49" class="edge">
<title>Node5&#45;&gt;Node10</title>
<path fill="none" stroke="#191970" d="M975.1077,-443.1283C854.514,-437.7448 625.3589,-424.4153 597.6917,-400 569.4794,-375.1037 578.6917,-355.1265 578.6917,-317.5 578.6917,-317.5 578.6917,-317.5 578.6917,-183.5 578.6917,-116.1011 1074.5186,-79.7512 1244.9591,-69.2469"/>
<polygon fill="#191970" stroke="#191970" points="975.2238,-446.6366 985.3677,-443.5788 975.5309,-439.6434 975.2238,-446.6366"/>
</g>
<!-- Node5&#45;&gt;Node11 -->
<g id="edge50" class="edge">
<title>Node5&#45;&gt;Node11</title>
<path fill="none" stroke="#191970" d="M1048.6917,-426.2188C1048.6917,-400.9855 1048.6917,-355.9988 1048.6917,-317.5 1048.6917,-317.5 1048.6917,-317.5 1048.6917,-250.5 1048.6917,-204.5335 1026.5581,-152.802 1016.5288,-131.7207"/>
<polygon fill="#191970" stroke="#191970" points="1045.1918,-426.3281 1048.6917,-436.3281 1052.1918,-426.3282 1045.1918,-426.3281"/>
</g>
<!-- Node12 -->
<g id="node10" class="node">
<title>Node12</title>
<g id="a_node10"><a xlink:href="sampler_8h.html" target="_top" xlink:title="Span sampler interface. ">
<polygon fill="#ffffff" stroke="#000000" points="753.1917,-241 753.1917,-260 876.1917,-260 876.1917,-241 753.1917,-241"/>
<text text-anchor="middle" x="814.6917" y="-248" font-family="Helvetica,sans-Serif" font-size="10.00" fill="#000000">jaegertracingc/sampler.h</text>
</a>
</g>
</g>
<!-- Node5&#45;&gt;Node12 -->
<g id="edge51" class="edge">
<title>Node5&#45;&gt;Node12</title>
<path fill="none" stroke="#191970" d="M975.5049,-436.0126C929.496,-428.6157 869.2905,-416.8719 817.6917,-400 800.9185,-394.5155 683.1797,-347.8794 673.6917,-333 648.9887,-294.2603 712.0141,-271.5133 761.629,-260.0316"/>
<polygon fill="#191970" stroke="#191970" points="974.9713,-439.4716 985.3943,-437.571 976.061,-432.557 974.9713,-439.4716"/>
</g>
<!-- Node13 -->
<g id="node11" class="node">
<title>Node13</title>
<g id="a_node11"><a xlink:href="mock__agent_8h.html" target="_top" xlink:title="Key value pair representation. ">
<polygon fill="#ffffff" stroke="#000000" points="703.6917,-168.5 703.6917,-198.5 807.6917,-198.5 807.6917,-168.5 703.6917,-168.5"/>
<text text-anchor="start" x="711.6917" y="-186.5" font-family="Helvetica,sans-Serif" font-size="10.00" fill="#000000">jaegertracingc/mock</text>
<text text-anchor="middle" x="755.6917" y="-175.5" font-family="Helvetica,sans-Serif" font-size="10.00" fill="#000000">_agent.h</text>
</a>
</g>
</g>
<!-- Node5&#45;&gt;Node13 -->
<g id="edge43" class="edge">
<title>Node5&#45;&gt;Node13</title>
<path fill="none" stroke="#191970" d="M975.4603,-443.6675C829.8945,-438.5593 508.9676,-424.8124 401.6917,-400 324.1775,-382.0714 280.193,-398.9508 235.6917,-333 196.8998,-275.5107 303.7676,-240.5242 316.6917,-235 385.2253,-205.7063 602.5128,-191.2164 703.3496,-185.9305"/>
<polygon fill="#191970" stroke="#191970" points="975.5173,-447.1715 985.6327,-444.0204 975.7601,-440.1757 975.5173,-447.1715"/>
</g>
<!-- Node14 -->
<g id="node12" class="node">
<title>Node14</title>
<g id="a_node12"><a xlink:href="token__bucket_8h.html" target="_top" xlink:title="Token bucket implementation. ">
<polygon fill="#ffffff" stroke="#000000" points="682.6917,-302.5 682.6917,-332.5 786.6917,-332.5 786.6917,-302.5 682.6917,-302.5"/>
<text text-anchor="start" x="690.6917" y="-320.5" font-family="Helvetica,sans-Serif" font-size="10.00" fill="#000000">jaegertracingc/token</text>
<text text-anchor="middle" x="734.6917" y="-309.5" font-family="Helvetica,sans-Serif" font-size="10.00" fill="#000000">_bucket.h</text>
</a>
</g>
</g>
<!-- Node5&#45;&gt;Node14 -->
<g id="edge71" class="edge">
<title>Node5&#45;&gt;Node14</title>
<path fill="none" stroke="#191970" d="M994.508,-434.1215C962.0396,-426.1928 920.2871,-414.5548 884.6917,-400 837.7876,-380.8211 786.8247,-350.594 758.015,-332.5426"/>
<polygon fill="#191970" stroke="#191970" points="993.7287,-437.5337 1004.2692,-436.4621 995.361,-430.7267 993.7287,-437.5337"/>
</g>
<!-- Node15 -->
<g id="node13" class="node">
<title>Node15</title>
<g id="a_node13"><a xlink:href="constants_8h_source.html" target="_top" xlink:title="jaegertracingc/constants.h">
<polygon fill="#ffffff" stroke="#000000" points="1567.1917,-308 1567.1917,-327 1698.1917,-327 1698.1917,-308 1567.1917,-308"/>
<text text-anchor="middle" x="1632.6917" y="-315" font-family="Helvetica,sans-Serif" font-size="10.00" fill="#000000">jaegertracingc/constants.h</text>
</a>
</g>
</g>
<!-- Node5&#45;&gt;Node15 -->
<g id="edge17" class="edge">
<title>Node5&#45;&gt;Node15</title>
<path fill="none" stroke="#191970" d="M1122.243,-441.8852C1196.8219,-436.5218 1315.1124,-424.7284 1414.6917,-400 1489.9012,-381.3233 1574.5774,-344.4238 1612.4719,-327.0156"/>
<polygon fill="#191970" stroke="#191970" points="1121.7477,-438.4112 1112.0162,-442.6 1122.2359,-445.3942 1121.7477,-438.4112"/>
</g>
<!-- Node16 -->
<g id="node14" class="node">
<title>Node16</title>
<g id="a_node14"><a xlink:href="options_8h.html" target="_top" xlink:title="Configuration options. ">
<polygon fill="#ffffff" stroke="#000000" points="1572.6917,-112.5 1572.6917,-131.5 1692.6917,-131.5 1692.6917,-112.5 1572.6917,-112.5"/>
<text text-anchor="middle" x="1632.6917" y="-119.5" font-family="Helvetica,sans-Serif" font-size="10.00" fill="#000000">jaegertracingc/options.h</text>
</a>
</g>
</g>
<!-- Node5&#45;&gt;Node16 -->
<g id="edge47" class="edge">
<title>Node5&#45;&gt;Node16</title>
<path fill="none" stroke="#191970" d="M1122.2924,-444.3093C1331.9348,-439.223 1919.3636,-422.9843 1953.6917,-400 1987.3924,-377.4357 1992.6917,-358.0572 1992.6917,-317.5 1992.6917,-317.5 1992.6917,-317.5 1992.6917,-250.5 1992.6917,-187.6218 1795.4308,-147.4216 1692.9476,-130.7793"/>
<polygon fill="#191970" stroke="#191970" points="1121.9152,-440.8172 1112.0025,-444.5573 1122.0839,-447.8152 1121.9152,-440.8172"/>
</g>
<!-- Node17 -->
<g id="node15" class="node">
<title>Node17</title>
<g id="a_node15"><a xlink:href="hashtable_8h.html" target="_top" xlink:title="Hashtable data structure. ">
<polygon fill="#ffffff" stroke="#000000" points="1757.1917,-241 1757.1917,-260 1888.1917,-260 1888.1917,-241 1757.1917,-241"/>
<text text-anchor="middle" x="1822.6917" y="-248" font-family="Helvetica,sans-Serif" font-size="10.00" fill="#000000">jaegertracingc/hashtable.h</text>
</a>
</g>
</g>
<!-- Node5&#45;&gt;Node17 -->
<g id="edge22" class="edge">
<title>Node5&#45;&gt;Node17</title>
<path fill="none" stroke="#191970" d="M1121.95,-443.539C1300.8278,-437.2363 1747.1854,-419.6223 1772.6917,-400 1818.0273,-365.1228 1822.6643,-287.5489 1822.8388,-260.2403"/>
<polygon fill="#191970" stroke="#191970" points="1121.7113,-440.0451 1111.84,-443.8932 1121.9564,-447.0408 1121.7113,-440.0451"/>
</g>
<!-- Node18 -->
<g id="node16" class="node">
<title>Node18</title>
<g id="a_node16"><a xlink:href="internal_2random_8h_source.html" target="_top" xlink:title="jaegertracingc/internal\l/random.h">
<polygon fill="#ffffff" stroke="#000000" points="50.6917,-235.5 50.6917,-265.5 162.6917,-265.5 162.6917,-235.5 50.6917,-235.5"/>
<text text-anchor="start" x="58.6917" y="-253.5" font-family="Helvetica,sans-Serif" font-size="10.00" fill="#000000">jaegertracingc/internal</text>
<text text-anchor="middle" x="106.6917" y="-242.5" font-family="Helvetica,sans-Serif" font-size="10.00" fill="#000000">/random.h</text>
</a>
</g>
</g>
<!-- Node5&#45;&gt;Node18 -->
<g id="edge23" class="edge">
<title>Node5&#45;&gt;Node18</title>
<path fill="none" stroke="#191970" d="M975.6507,-445.3368C751.9251,-442.9512 89.2986,-433.1081 57.6917,-400 27.6157,-368.4956 41.5253,-342.4442 57.6917,-302 63.4633,-287.5607 75.4237,-274.8593 86.0826,-265.6829"/>
<polygon fill="#191970" stroke="#191970" points="975.6152,-448.8366 985.6514,-445.4416 975.6886,-441.8369 975.6152,-448.8366"/>
</g>
<!-- Node19 -->
<g id="node17" class="node">
<title>Node19</title>
<g id="a_node17"><a xlink:href="siphash_8h.html" target="_top" xlink:title="Siphash implementation. ">
<polygon fill="#ffffff" stroke="#000000" points="66.6917,-375 66.6917,-394 188.6917,-394 188.6917,-375 66.6917,-375"/>
<text text-anchor="middle" x="127.6917" y="-382" font-family="Helvetica,sans-Serif" font-size="10.00" fill="#000000">jaegertracingc/siphash.h</text>
</a>
</g>
</g>
<!-- Node5&#45;&gt;Node19 -->
<g id="edge24" class="edge">
<title>Node5&#45;&gt;Node19</title>
<path fill="none" stroke="#191970" d="M975.3977,-443.4246C798.3691,-436.9764 351.1485,-419.2667 202.6917,-400 191.4841,-398.5455 179.4506,-396.3481 168.3754,-394.0614"/>
<polygon fill="#191970" stroke="#191970" points="975.2775,-446.9224 985.3978,-443.7873 975.5313,-439.927 975.2775,-446.9224"/>
</g>
<!-- Node5&#45;&gt;Node21 -->
<g id="edge26" class="edge">
<title>Node5&#45;&gt;Node21</title>
<path fill="none" stroke="#191970" d="M1122.1132,-444.9132C1329.7246,-441.4836 1907.843,-429.3303 1935.6917,-400 1952.9973,-381.7737 1938.7062,-351.0865 1927.3082,-332.7177"/>
<polygon fill="#191970" stroke="#191970" points="1121.8614,-441.4167 1111.9198,-445.0794 1121.9756,-448.4158 1121.8614,-441.4167"/>
</g>
<!-- Node22 -->
<g id="node20" class="node">
<title>Node22</title>
<g id="a_node20"><a xlink:href="list_8h_source.html" target="_top" xlink:title="jaegertracingc/list.h">
<polygon fill="#ffffff" stroke="#000000" points="1825.1917,-375 1825.1917,-394 1926.1917,-394 1926.1917,-375 1825.1917,-375"/>
<text text-anchor="middle" x="1875.6917" y="-382" font-family="Helvetica,sans-Serif" font-size="10.00" fill="#000000">jaegertracingc/list.h</text>
</a>
</g>
</g>
<!-- Node5&#45;&gt;Node22 -->
<g id="edge29" class="edge">
<title>Node5&#45;&gt;Node22</title>
<path fill="none" stroke="#191970" d="M1121.9498,-443.2039C1286.0894,-436.6745 1679.2311,-419.4909 1810.6917,-400 1820.446,-398.5538 1830.8887,-396.3591 1840.4874,-394.0725"/>
<polygon fill="#191970" stroke="#191970" points="1121.7992,-439.707 1111.9456,-443.5999 1122.0762,-446.7015 1121.7992,-439.707"/>
</g>
<!-- Node23 -->
<g id="node21" class="node">
<title>Node23</title>
<g id="a_node21"><a xlink:href="threading_8h.html" target="_top" xlink:title="Threading utilities. ">
<polygon fill="#ffffff" stroke="#000000" points="244.6917,-308 244.6917,-327 372.6917,-327 372.6917,-308 244.6917,-308"/>
<text text-anchor="middle" x="308.6917" y="-315" font-family="Helvetica,sans-Serif" font-size="10.00" fill="#000000">jaegertracingc/threading.h</text>
</a>
</g>
</g>
<!-- Node5&#45;&gt;Node23 -->
<g id="edge32" class="edge">
<title>Node5&#45;&gt;Node23</title>
<path fill="none" stroke="#191970" d="M974.8997,-443.2102C843.9069,-437.7201 576.0323,-423.9207 485.6917,-400 422.766,-383.3383 354.6663,-345.2629 324.5493,-327.2666"/>
<polygon fill="#191970" stroke="#191970" points="975.0984,-446.7214 985.2347,-443.638 975.388,-439.7274 975.0984,-446.7214"/>
</g>
<!-- Node24 -->
<g id="node22" class="node">
<title>Node24</title>
<g id="a_node22"><a xlink:href="metrics_8h.html" target="_top" xlink:title="Metrics interfaces to track various numbers while tracing. ">
<polygon fill="#ffffff" stroke="#000000" points="391.1917,-308 391.1917,-327 512.1917,-327 512.1917,-308 391.1917,-308"/>
<text text-anchor="middle" x="451.6917" y="-315" font-family="Helvetica,sans-Serif" font-size="10.00" fill="#000000">jaegertracingc/metrics.h</text>
</a>
</g>
</g>
<!-- Node5&#45;&gt;Node24 -->
<g id="edge38" class="edge">
<title>Node5&#45;&gt;Node24</title>
<path fill="none" stroke="#191970" d="M975.4823,-442.5027C841.2642,-435.6586 565.9114,-419.4528 526.6917,-400 493.2235,-383.4 467.591,-344.9388 457.0018,-327.014"/>
<polygon fill="#191970" stroke="#191970" points="975.5142,-446.0086 985.6782,-443.0184 975.8679,-439.0176 975.5142,-446.0086"/>
</g>
<!-- Node25 -->
<g id="node23" class="node">
<title>Node25</title>
<g id="a_node23"><a xlink:href="baggage_8h.html" target="_top" xlink:title="Trace ID representation. ">
<polygon fill="#ffffff" stroke="#000000" points="425.1917,-241 425.1917,-260 550.1917,-260 550.1917,-241 425.1917,-241"/>
<text text-anchor="middle" x="487.6917" y="-248" font-family="Helvetica,sans-Serif" font-size="10.00" fill="#000000">jaegertracingc/baggage.h</text>
</a>
</g>
</g>
<!-- Node5&#45;&gt;Node25 -->
<g id="edge72" class="edge">
<title>Node5&#45;&gt;Node25</title>
<path fill="none" stroke="#191970" d="M975.4716,-443.0699C848.3721,-437.3953 597.2986,-423.3658 564.6917,-400 525.883,-372.1901 543.4109,-343.9922 520.6917,-302 512.5056,-286.8697 501.4651,-270.2654 494.461,-260.1116"/>
<polygon fill="#191970" stroke="#191970" points="975.3737,-446.5688 985.5181,-443.5125 975.6819,-439.5756 975.3737,-446.5688"/>
</g>
<!-- Node26 -->
<g id="node24" class="node">
<title>Node26</title>
<g id="a_node24"><a xlink:href="net_8h.html" target="_top" xlink:title="Network utilities. ">
<polygon fill="#ffffff" stroke="#000000" points="842.6917,-308 842.6917,-327 944.6917,-327 944.6917,-308 842.6917,-308"/>
<text text-anchor="middle" x="893.6917" y="-315" font-family="Helvetica,sans-Serif" font-size="10.00" fill="#000000">jaegertracingc/net.h</text>
</a>
</g>
</g>
<!-- Node5&#45;&gt;Node26 -->
<g id="edge44" class="edge">
<title>Node5&#45;&gt;Node26</title>
<path fill="none" stroke="#191970" d="M987.0476,-434.2713C951.2244,-426.1172 910.9761,-414.1857 899.6917,-400 882.7949,-378.759 887.5769,-343.9143 891.2374,-327.1302"/>
<polygon fill="#191970" stroke="#191970" points="986.4872,-437.7318 997.0066,-436.4698 987.9961,-430.8964 986.4872,-437.7318"/>
</g>
<!-- Node27 -->
<g id="node25" class="node">
<title>Node27</title>
<g id="a_node25"><a xlink:href="vector_8h.html" target="_top" xlink:title="C generic vector implementation. ">
<polygon fill="#ffffff" stroke="#000000" points="1246.6917,-375 1246.6917,-394 1362.6917,-394 1362.6917,-375 1246.6917,-375"/>
<text text-anchor="middle" x="1304.6917" y="-382" font-family="Helvetica,sans-Serif" font-size="10.00" fill="#000000">jaegertracingc/vector.h</text>
</a>
</g>
</g>
<!-- Node5&#45;&gt;Node27 -->
<g id="edge52" class="edge">
<title>Node5&#45;&gt;Node27</title>
<path fill="none" stroke="#191970" d="M1098.3882,-434.0612C1146.9726,-422.3895 1219.9992,-404.846 1264.8794,-394.0643"/>
<polygon fill="#191970" stroke="#191970" points="1097.3165,-430.719 1088.4108,-436.4581 1098.9517,-437.5253 1097.3165,-430.719"/>
</g>
<!-- Node5&#45;&gt;Node28 -->
<g id="edge65" class="edge">
<title>Node5&#45;&gt;Node28</title>
<path fill="none" stroke="#191970" d="M1122.1214,-439.2867C1202.9582,-431.2378 1327.3463,-416.7216 1371.6917,-400 1418.6652,-382.2874 1466.0534,-344.7375 1486.8117,-327.0695"/>
<polygon fill="#191970" stroke="#191970" points="1121.6068,-435.8204 1111.9979,-440.2836 1122.2928,-442.7867 1121.6068,-435.8204"/>
</g>
<!-- Node29 -->
<g id="node27" class="node">
<title>Node29</title>
<g id="a_node27"><a xlink:href="trace__id_8h.html" target="_top" xlink:title="Trace ID representation. ">
<polygon fill="#ffffff" stroke="#000000" points="1077.1917,-308 1077.1917,-327 1200.1917,-327 1200.1917,-308 1077.1917,-308"/>
<text text-anchor="middle" x="1138.6917" y="-315" font-family="Helvetica,sans-Serif" font-size="10.00" fill="#000000">jaegertracingc/trace_id.h</text>
</a>
</g>
</g>
<!-- Node5&#45;&gt;Node29 -->
<g id="edge66" class="edge">
<title>Node5&#45;&gt;Node29</title>
<path fill="none" stroke="#191970" d="M1061.2962,-428.0035C1080.5898,-400.4566 1116.7897,-348.7711 1131.8485,-327.2705"/>
<polygon fill="#191970" stroke="#191970" points="1058.3263,-426.1429 1055.4563,-436.3416 1064.0599,-430.1587 1058.3263,-426.1429"/>
</g>
<!-- Node30 -->
<g id="node28" class="node">
<title>Node30</title>
<g id="a_node28"><a xlink:href="sampling__strategy_8h.html" target="_top" xlink:title="Sampling strategy type definitions. ">
<polygon fill="#ffffff" stroke="#000000" points="607.1917,-369.5 607.1917,-399.5 726.1917,-399.5 726.1917,-369.5 607.1917,-369.5"/>
<text text-anchor="start" x="615.1917" y="-387.5" font-family="Helvetica,sans-Serif" font-size="10.00" fill="#000000">jaegertracingc/sampling</text>
<text text-anchor="middle" x="666.6917" y="-376.5" font-family="Helvetica,sans-Serif" font-size="10.00" fill="#000000">_strategy.h</text>
</a>
</g>
</g>
<!-- Node5&#45;&gt;Node30 -->
<g id="edge69" class="edge">
<title>Node5&#45;&gt;Node30</title>
<path fill="none" stroke="#191970" d="M975.2386,-436.2551C912.7145,-427.6673 820.5927,-414.3221 740.6917,-400 736.0404,-399.1663 731.234,-398.2605 726.4079,-397.3195"/>
<polygon fill="#191970" stroke="#191970" points="975.0164,-439.7572 985.3984,-437.6445 975.9649,-432.8218 975.0164,-439.7572"/>
</g>
<!-- Node6&#45;&gt;Node7 -->
<g id="edge4" class="edge">
<title>Node6&#45;&gt;Node7</title>
<path fill="none" stroke="#191970" d="M1030.7824,-373.6131C1080.5056,-364.7005 1150.0462,-350.6925 1209.6917,-333 1274.5136,-313.7721 1347.4726,-283.5612 1388.9763,-265.5262"/>
<polygon fill="#191970" stroke="#191970" points="1030.0335,-370.1912 1020.7974,-375.3822 1031.2547,-377.0839 1030.0335,-370.1912"/>
</g>
<!-- Node6&#45;&gt;Node8 -->
<g id="edge11" class="edge">
<title>Node6&#45;&gt;Node8</title>
<path fill="none" stroke="#191970" d="M982.3839,-367.8627C1002.0776,-349.9548 1035.3983,-321.4309 1067.6917,-302 1154.5285,-249.7504 1268.6047,-210.3346 1323.0808,-193.0815"/>
<polygon fill="#191970" stroke="#191970" points="979.8042,-365.4804 974.8209,-374.8301 984.5471,-370.6288 979.8042,-365.4804"/>
</g>
<!-- Node6&#45;&gt;Node12 -->
<g id="edge12" class="edge">
<title>Node6&#45;&gt;Node12</title>
<path fill="none" stroke="#191970" d="M898.9328,-372.083C875.2946,-364.4987 850.3769,-352.3615 833.6917,-333 815.5572,-311.9569 813.8433,-277.0179 814.1883,-260.1709"/>
<polygon fill="#191970" stroke="#191970" points="898.0224,-375.4637 908.6056,-374.9655 900.0217,-368.7553 898.0224,-375.4637"/>
</g>
<!-- Node6&#45;&gt;Node14 -->
<g id="edge15" class="edge">
<title>Node6&#45;&gt;Node14</title>
<path fill="none" stroke="#191970" d="M921.9047,-372.036C883.5239,-360.8555 827.1179,-344.4242 786.2589,-332.5218"/>
<polygon fill="#191970" stroke="#191970" points="921.1584,-375.464 931.7383,-374.9005 923.1162,-368.7433 921.1584,-375.464"/>
</g>
<!-- Node7&#45;&gt;Node8 -->
<g id="edge5" class="edge">
<title>Node7&#45;&gt;Node8</title>
<path fill="none" stroke="#191970" d="M1400.0621,-228.2032C1387.944,-216.2634 1373.6481,-202.1776 1364.3892,-193.055"/>
<polygon fill="#191970" stroke="#191970" points="1397.6816,-230.7713 1407.2614,-235.2967 1402.5946,-225.785 1397.6816,-230.7713"/>
</g>
<!-- Node9 -->
<g id="node7" class="node">
<title>Node9</title>
<g id="a_node7"><a xlink:href="propagation_8c.html" target="_top" xlink:title="Trace ID representation. ">
<polygon fill="#ffffff" stroke="#000000" points="1368.1917,-.5 1368.1917,-19.5 1507.1917,-19.5 1507.1917,-.5 1368.1917,-.5"/>
<text text-anchor="middle" x="1437.6917" y="-7.5" font-family="Helvetica,sans-Serif" font-size="10.00" fill="#000000">jaegertracingc/propagation.c</text>
</a>
</g>
</g>
<!-- Node8&#45;&gt;Node9 -->
<g id="edge6" class="edge">
<title>Node8&#45;&gt;Node9</title>
<path fill="none" stroke="#191970" d="M1363.6355,-164.804C1381.2059,-128.0756 1419.6783,-47.6545 1433.0228,-19.7595"/>
<polygon fill="#191970" stroke="#191970" points="1360.4305,-163.3934 1359.2723,-173.9248 1366.7452,-166.4143 1360.4305,-163.3934"/>
</g>
<!-- Node8&#45;&gt;Node10 -->
<g id="edge7" class="edge">
<title>Node8&#45;&gt;Node10</title>
<path fill="none" stroke="#191970" d="M1346.1618,-164.5896C1334.7335,-139.2531 1314.8744,-95.2259 1306.0888,-75.7484"/>
<polygon fill="#191970" stroke="#191970" points="1343.0522,-166.208 1350.3544,-173.8845 1349.4331,-163.3298 1343.0522,-166.208"/>
</g>
<!-- Node8&#45;&gt;Node11 -->
<g id="edge9" class="edge">
<title>Node8&#45;&gt;Node11</title>
<path fill="none" stroke="#191970" d="M1291.3313,-172.1395C1226.1804,-160.4579 1125.8595,-142.4703 1064.7517,-131.5137"/>
<polygon fill="#191970" stroke="#191970" points="1291.0135,-175.6382 1301.4742,-173.9581 1292.2489,-168.7481 1291.0135,-175.6382"/>
</g>
<!-- Node10&#45;&gt;Node9 -->
<g id="edge8" class="edge">
<title>Node10&#45;&gt;Node9</title>
<path fill="none" stroke="#191970" d="M1334.4315,-52.5189C1359.1999,-42.3201 1392.5967,-28.5685 1414.6175,-19.5011"/>
<polygon fill="#191970" stroke="#191970" points="1332.985,-49.3293 1325.0709,-56.3733 1335.6503,-55.8021 1332.985,-49.3293"/>
</g>
<!-- Node11&#45;&gt;Node10 -->
<g id="edge10" class="edge">
<title>Node11&#45;&gt;Node10</title>
<path fill="none" stroke="#191970" d="M1071.2398,-110.501C1124.714,-100.175 1202.2947,-85.1939 1252.3726,-75.5237"/>
<polygon fill="#191970" stroke="#191970" points="1070.3699,-107.1043 1061.2149,-112.4369 1071.6972,-113.9773 1070.3699,-107.1043"/>
</g>
<!-- Node12&#45;&gt;Node10 -->
<g id="edge14" class="edge">
<title>Node12&#45;&gt;Node10</title>
<path fill="none" stroke="#191970" d="M825.6565,-231.7474C844.8228,-200.886 887.5821,-140.0249 941.6917,-112 993.2349,-85.3043 1157.0663,-73.2075 1244.8527,-68.5237"/>
<polygon fill="#191970" stroke="#191970" points="822.4619,-230.2662 820.2782,-240.6336 828.4504,-233.8908 822.4619,-230.2662"/>
</g>
<!-- Node12&#45;&gt;Node13 -->
<g id="edge13" class="edge">
<title>Node12&#45;&gt;Node13</title>
<path fill="none" stroke="#191970" d="M799.5979,-233.3597C790.1223,-222.5992 778.0184,-208.8541 768.9198,-198.5218"/>
<polygon fill="#191970" stroke="#191970" points="797.0028,-235.7087 806.2384,-240.9005 802.2563,-231.0825 797.0028,-235.7087"/>
</g>
<!-- Node14&#45;&gt;Node12 -->
<g id="edge16" class="edge">
<title>Node14&#45;&gt;Node12</title>
<path fill="none" stroke="#191970" d="M760.9119,-295.5406C775.2534,-283.5296 792.2872,-269.2637 803.2827,-260.055"/>
<polygon fill="#191970" stroke="#191970" points="758.2641,-293.1927 752.8449,-302.2967 762.7586,-298.5592 758.2641,-293.1927"/>
</g>
<!-- Node15&#45;&gt;Node12 -->
<g id="edge21" class="edge">
<title>Node15&#45;&gt;Node12</title>
<path fill="none" stroke="#191970" d="M1581.6385,-305.9916C1573.6537,-304.4692 1565.4716,-303.0686 1557.6917,-302 1306.616,-267.5137 1004.467,-255.6462 876.6266,-251.9777"/>
<polygon fill="#191970" stroke="#191970" points="1581.1116,-309.4553 1591.6017,-307.9695 1582.4747,-302.5892 1581.1116,-309.4553"/>
</g>
<!-- Node15&#45;&gt;Node16 -->
<g id="edge18" class="edge">
<title>Node15&#45;&gt;Node16</title>
<path fill="none" stroke="#191970" d="M1632.6917,-297.6343C1632.6917,-256.2803 1632.6917,-162.2585 1632.6917,-131.7534"/>
<polygon fill="#191970" stroke="#191970" points="1629.1918,-297.8051 1632.6917,-307.8051 1636.1918,-297.8052 1629.1918,-297.8051"/>
</g>
<!-- Node16&#45;&gt;Node9 -->
<g id="edge19" class="edge">
<title>Node16&#45;&gt;Node9</title>
<path fill="none" stroke="#191970" d="M1617.0143,-104.8617C1602.9148,-90.2697 1581.0378,-69.5719 1558.6917,-56 1531.6076,-39.5506 1497.6518,-27.2667 1472.6101,-19.5498"/>
<polygon fill="#191970" stroke="#191970" points="1614.5889,-107.3911 1624.0007,-112.2561 1619.677,-102.5836 1614.5889,-107.3911"/>
</g>
<!-- Node16&#45;&gt;Node10 -->
<g id="edge20" class="edge">
<title>Node16&#45;&gt;Node10</title>
<path fill="none" stroke="#191970" d="M1566.2416,-110.7577C1505.1652,-100.4245 1415.6166,-85.2743 1357.9834,-75.5237"/>
<polygon fill="#191970" stroke="#191970" points="1565.7231,-114.2196 1576.1668,-112.4369 1566.8908,-107.3177 1565.7231,-114.2196"/>
</g>
<!-- Node20 -->
<g id="node18" class="node">
<title>Node20</title>
<g id="a_node18"><a xlink:href="siphash_8c.html" target="_top" xlink:title="Siphash implementation. ">
<polygon fill="#ffffff" stroke="#000000" points="66.6917,-308 66.6917,-327 188.6917,-327 188.6917,-308 66.6917,-308"/>
<text text-anchor="middle" x="127.6917" y="-315" font-family="Helvetica,sans-Serif" font-size="10.00" fill="#000000">jaegertracingc/siphash.c</text>
</a>
</g>
</g>
<!-- Node19&#45;&gt;Node20 -->
<g id="edge25" class="edge">
<title>Node19&#45;&gt;Node20</title>
<path fill="none" stroke="#191970" d="M127.6917,-364.6079C127.6917,-352.214 127.6917,-336.8263 127.6917,-327.0817"/>
<polygon fill="#191970" stroke="#191970" points="124.1918,-364.9005 127.6917,-374.9005 131.1918,-364.9006 124.1918,-364.9005"/>
</g>
<!-- Node21&#45;&gt;Node8 -->
<g id="edge28" class="edge">
<title>Node21&#45;&gt;Node8</title>
<path fill="none" stroke="#191970" d="M1918.1104,-292.1926C1917.6666,-273.5169 1913.6788,-249.0076 1897.6917,-235 1861.5017,-203.2909 1540.4978,-189.4694 1409.7457,-185.1198"/>
<polygon fill="#191970" stroke="#191970" points="1914.609,-292.3624 1918.0261,-302.3911 1921.6088,-292.4204 1914.609,-292.3624"/>
</g>
<!-- Node21&#45;&gt;Node17 -->
<g id="edge27" class="edge">
<title>Node21&#45;&gt;Node17</title>
<path fill="none" stroke="#191970" d="M1886.8245,-296.2117C1869.7823,-284.0646 1849.2583,-269.4358 1836.0971,-260.055"/>
<polygon fill="#191970" stroke="#191970" points="1885.1869,-299.3426 1895.3616,-302.2967 1889.2499,-293.6423 1885.1869,-299.3426"/>
</g>
<!-- Node22&#45;&gt;Node17 -->
<g id="edge30" class="edge">
<title>Node22&#45;&gt;Node17</title>
<path fill="none" stroke="#191970" d="M1868.1353,-365.3952C1856.6306,-336.3078 1835.1442,-281.9838 1826.4687,-260.0496"/>
<polygon fill="#191970" stroke="#191970" points="1864.9473,-366.8513 1871.88,-374.8631 1871.4567,-364.2767 1864.9473,-366.8513"/>
</g>
<!-- Node23&#45;&gt;Node8 -->
<g id="edge35" class="edge">
<title>Node23&#45;&gt;Node8</title>
<path fill="none" stroke="#191970" d="M324.2757,-300.3971C343.5453,-280.5749 378.3941,-248.8606 415.6917,-235 498.381,-204.2707 1110.7126,-188.7211 1299.462,-184.6226"/>
<polygon fill="#191970" stroke="#191970" points="321.5668,-298.1675 317.2326,-307.8353 326.6497,-302.9805 321.5668,-298.1675"/>
</g>
<!-- Node23&#45;&gt;Node11 -->
<g id="edge36" class="edge">
<title>Node23&#45;&gt;Node11</title>
<path fill="none" stroke="#191970" d="M305.4187,-297.8249C303.5327,-279.8034 303.6761,-253.235 316.6917,-235 358.4042,-176.5601 394.2266,-186.1596 463.6917,-168 554.2136,-144.3357 827.3514,-129.943 950.4122,-124.4963"/>
<polygon fill="#191970" stroke="#191970" points="301.9572,-298.346 306.7584,-307.7905 308.8948,-297.4133 301.9572,-298.346"/>
</g>
<!-- Node23&#45;&gt;Node12 -->
<g id="edge37" class="edge">
<title>Node23&#45;&gt;Node12</title>
<path fill="none" stroke="#191970" d="M360.5234,-305.8894C367.6173,-304.4776 374.8209,-303.1356 381.6917,-302 513.333,-280.242 668.9524,-264.0327 753.1352,-256.0452"/>
<polygon fill="#191970" stroke="#191970" points="359.3543,-302.5561 350.2601,-307.9916 360.7591,-309.4137 359.3543,-302.5561"/>
</g>
<!-- Node23&#45;&gt;Node13 -->
<g id="edge34" class="edge">
<title>Node23&#45;&gt;Node13</title>
<path fill="none" stroke="#191970" d="M311.1048,-297.9213C314.5814,-278.6841 322.9275,-250.0863 342.6917,-235 370.8712,-213.49 598.5568,-194.6938 703.3046,-187.0915"/>
<polygon fill="#191970" stroke="#191970" points="307.6165,-297.5803 309.5711,-307.9932 314.5367,-298.6341 307.6165,-297.5803"/>
</g>
<!-- Node23&#45;&gt;Node18 -->
<g id="edge33" class="edge">
<title>Node23&#45;&gt;Node18</title>
<path fill="none" stroke="#191970" d="M270.2495,-304.7494C236.5629,-293.5761 187.5606,-277.3229 151.9812,-265.5218"/>
<polygon fill="#191970" stroke="#191970" points="269.1566,-308.0743 279.75,-307.9005 271.3603,-301.4303 269.1566,-308.0743"/>
</g>
<!-- Node24&#45;&gt;Node9 -->
<g id="edge39" class="edge">
<title>Node24&#45;&gt;Node9</title>
<path fill="none" stroke="#191970" d="M431.3978,-300.7046C421.9523,-291.5522 411.7115,-279.3741 406.6917,-266 401.8501,-253.1009 400.6411,-247.3781 406.6917,-235 445.773,-155.0484 482.3447,-145.7429 564.6917,-112 710.3032,-52.3335 1187.9463,-22.6016 1368.0936,-13.2991"/>
<polygon fill="#191970" stroke="#191970" points="429.2631,-303.4945 439.013,-307.6407 433.9768,-298.3194 429.2631,-303.4945"/>
</g>
<!-- Node24&#45;&gt;Node11 -->
<g id="edge40" class="edge">
<title>Node24&#45;&gt;Node11</title>
<path fill="none" stroke="#191970" d="M434.4036,-300.3945C418.6362,-282.694 400.0034,-254.9017 415.6917,-235 481.2968,-151.775 812.0841,-129.5673 950.5725,-123.8749"/>
<polygon fill="#191970" stroke="#191970" points="431.916,-302.8584 441.3128,-307.7523 437.0189,-298.0666 431.916,-302.8584"/>
</g>
<!-- Node24&#45;&gt;Node12 -->
<g id="edge41" class="edge">
<title>Node24&#45;&gt;Node12</title>
<path fill="none" stroke="#191970" d="M513.3538,-306.1188C583.5959,-293.154 697.1334,-272.1981 762.9527,-260.0496"/>
<polygon fill="#191970" stroke="#191970" points="512.5138,-302.7147 503.3152,-307.9717 513.7844,-309.5984 512.5138,-302.7147"/>
</g>
<!-- Node24&#45;&gt;Node25 -->
<g id="edge42" class="edge">
<title>Node24&#45;&gt;Node25</title>
<path fill="none" stroke="#191970" d="M461.7731,-298.7374C468.5303,-286.1614 477.1471,-270.1246 482.5433,-260.0817"/>
<polygon fill="#191970" stroke="#191970" points="458.4997,-297.435 456.8496,-307.9005 464.6659,-300.7482 458.4997,-297.435"/>
</g>
<!-- Node26&#45;&gt;Node11 -->
<g id="edge45" class="edge">
<title>Node26&#45;&gt;Node11</title>
<path fill="none" stroke="#191970" d="M904.738,-299.1987C929.1813,-258.7015 987.1563,-162.6496 1005.8047,-131.7534"/>
<polygon fill="#191970" stroke="#191970" points="901.7143,-297.4351 899.5433,-307.8051 907.7073,-301.0524 901.7143,-297.4351"/>
</g>
<!-- Node26&#45;&gt;Node12 -->
<g id="edge46" class="edge">
<title>Node26&#45;&gt;Node12</title>
<path fill="none" stroke="#191970" d="M874.5892,-301.2992C859.3952,-288.4131 838.6519,-270.8207 825.9894,-260.0817"/>
<polygon fill="#191970" stroke="#191970" points="872.4825,-304.1017 882.3729,-307.9005 877.0102,-298.7631 872.4825,-304.1017"/>
</g>
<!-- Node27&#45;&gt;Node7 -->
<g id="edge54" class="edge">
<title>Node27&#45;&gt;Node7</title>
<path fill="none" stroke="#191970" d="M1341.4762,-370.8268C1359.71,-362.3954 1380.7523,-349.9195 1394.6917,-333 1410.9454,-313.2713 1417.9417,-283.6366 1420.8198,-265.7729"/>
<polygon fill="#191970" stroke="#191970" points="1340.0045,-367.6503 1332.2497,-374.8693 1342.8137,-374.0619 1340.0045,-367.6503"/>
</g>
<!-- Node27&#45;&gt;Node8 -->
<g id="edge56" class="edge">
<title>Node27&#45;&gt;Node8</title>
<path fill="none" stroke="#191970" d="M1310.1642,-364.8988C1312.8071,-355.3011 1315.9844,-343.5643 1318.6917,-333 1332.1451,-280.502 1346.899,-217.257 1352.4314,-193.3198"/>
<polygon fill="#191970" stroke="#191970" points="1306.7598,-364.0781 1307.461,-374.6497 1313.5054,-365.9482 1306.7598,-364.0781"/>
</g>
<!-- Node27&#45;&gt;Node10 -->
<g id="edge57" class="edge">
<title>Node27&#45;&gt;Node10</title>
<path fill="none" stroke="#191970" d="M1301.7862,-364.2866C1296.6382,-325.9994 1286.8065,-240.2601 1290.6917,-168 1292.5276,-133.8522 1297.7971,-93.5511 1300.3172,-75.5348"/>
<polygon fill="#191970" stroke="#191970" points="1298.3728,-365.1535 1303.2132,-374.578 1305.3065,-364.192 1298.3728,-365.1535"/>
</g>
<!-- Node27&#45;&gt;Node11 -->
<g id="edge58" class="edge">
<title>Node27&#45;&gt;Node11</title>
<path fill="none" stroke="#191970" d="M1293.0653,-366.2905C1281.4473,-348.8109 1262.5056,-322.1632 1242.6917,-302 1169.4612,-227.4787 1064.9476,-156.6102 1026.5634,-131.5502"/>
<polygon fill="#191970" stroke="#191970" points="1290.3274,-368.4992 1298.7253,-374.9588 1296.1885,-364.6721 1290.3274,-368.4992"/>
</g>
<!-- Node27&#45;&gt;Node12 -->
<g id="edge59" class="edge">
<title>Node27&#45;&gt;Node12</title>
<path fill="none" stroke="#191970" d="M1243.5328,-372.9805C1195.4305,-363.4953 1126.8811,-349.0372 1067.6917,-333 983.8586,-310.2857 886.7107,-276.4402 841.0159,-260.0625"/>
<polygon fill="#191970" stroke="#191970" points="1242.99,-376.4406 1253.4763,-374.9279 1244.3354,-369.5711 1242.99,-376.4406"/>
</g>
<!-- Node27&#45;&gt;Node13 -->
<g id="edge55" class="edge">
<title>Node27&#45;&gt;Node13</title>
<path fill="none" stroke="#191970" d="M1287.4302,-367.7922C1264.9824,-346.3763 1226.643,-310.9375 1209.6917,-302 1075.1234,-231.0497 895.288,-200.554 807.8412,-189.247"/>
<polygon fill="#191970" stroke="#191970" points="1285.2739,-370.5738 1294.9124,-374.9727 1290.1208,-365.5233 1285.2739,-370.5738"/>
</g>
<!-- Node27&#45;&gt;Node21 -->
<g id="edge53" class="edge">
<title>Node27&#45;&gt;Node21</title>
<path fill="none" stroke="#191970" d="M1373.0212,-377.0195C1497.9302,-363.3448 1760.2053,-334.6317 1868.4205,-322.7846"/>
<polygon fill="#191970" stroke="#191970" points="1372.3786,-373.5688 1362.8189,-378.1364 1373.1404,-380.5273 1372.3786,-373.5688"/>
</g>
<!-- Node27&#45;&gt;Node28 -->
<g id="edge60" class="edge">
<title>Node27&#45;&gt;Node28</title>
<path fill="none" stroke="#191970" d="M1341.9015,-371.5826C1379.4112,-358.5611 1436.4349,-338.7653 1470.0908,-327.0817"/>
<polygon fill="#191970" stroke="#191970" points="1340.643,-368.3145 1332.3439,-374.9005 1342.9387,-374.9274 1340.643,-368.3145"/>
</g>
<!-- Node28&#45;&gt;Node7 -->
<g id="edge61" class="edge">
<title>Node28&#45;&gt;Node7</title>
<path fill="none" stroke="#191970" d="M1479.2094,-300.9892C1467.0643,-290.1395 1451.2998,-276.0566 1439.5071,-265.5218"/>
<polygon fill="#191970" stroke="#191970" points="1477.1566,-303.8485 1486.946,-307.9005 1481.8201,-298.6282 1477.1566,-303.8485"/>
</g>
<!-- Node28&#45;&gt;Node8 -->
<g id="edge62" class="edge">
<title>Node28&#45;&gt;Node8</title>
<path fill="none" stroke="#191970" d="M1498.0419,-297.766C1497.3361,-279.493 1493.5423,-252.5687 1478.6917,-235 1460.1822,-213.1028 1430.8337,-200.3587 1405.3348,-193.027"/>
<polygon fill="#191970" stroke="#191970" points="1494.5431,-297.9038 1498.1536,-307.8645 1501.5427,-297.8264 1494.5431,-297.9038"/>
</g>
<!-- Node28&#45;&gt;Node10 -->
<g id="edge63" class="edge">
<title>Node28&#45;&gt;Node10</title>
<path fill="none" stroke="#191970" d="M1502.8897,-297.7044C1506.3783,-280.3451 1508.8467,-254.8506 1499.6917,-235 1462.2155,-153.7416 1364.2656,-97.0831 1321.8057,-75.5807"/>
<polygon fill="#191970" stroke="#191970" points="1499.3992,-297.2653 1500.5618,-307.7961 1506.2201,-298.8388 1499.3992,-297.2653"/>
</g>
<!-- Node28&#45;&gt;Node12 -->
<g id="edge64" class="edge">
<title>Node28&#45;&gt;Node12</title>
<path fill="none" stroke="#191970" d="M1436.4951,-311.4968C1306.9699,-298.7908 1006.3665,-269.3027 876.3958,-256.553"/>
<polygon fill="#191970" stroke="#191970" points="1436.341,-314.9984 1446.635,-312.4915 1437.0245,-308.0319 1436.341,-314.9984"/>
</g>
<!-- Node29&#45;&gt;Node8 -->
<g id="edge67" class="edge">
<title>Node29&#45;&gt;Node8</title>
<path fill="none" stroke="#191970" d="M1162.9957,-302.4225C1207.8036,-274.625 1302.2359,-216.042 1339.2982,-193.0496"/>
<polygon fill="#191970" stroke="#191970" points="1160.8784,-299.6172 1154.2258,-307.8631 1164.5686,-305.5655 1160.8784,-299.6172"/>
</g>
<!-- Node29&#45;&gt;Node12 -->
<g id="edge68" class="edge">
<title>Node29&#45;&gt;Node12</title>
<path fill="none" stroke="#191970" d="M1082.4937,-305.8788C1019.7146,-292.8967 919.2585,-272.1234 860.8719,-260.0496"/>
<polygon fill="#191970" stroke="#191970" points="1082.1128,-309.374 1092.6144,-307.9717 1083.5304,-302.5191 1082.1128,-309.374"/>
</g>
<!-- Node30&#45;&gt;Node12 -->
<g id="edge70" class="edge">
<title>Node30&#45;&gt;Node12</title>
<path fill="none" stroke="#191970" d="M648.6658,-360.8613C637.5834,-343.2349 627.7587,-319.3154 640.6917,-302 654.7837,-283.1328 711.7572,-268.7384 756.7221,-260.0272"/>
<polygon fill="#191970" stroke="#191970" points="645.9624,-363.1117 654.462,-369.4367 651.7619,-359.1917 645.9624,-363.1117"/>
</g>
</g>
</svg>
