<?xml version="1.0" encoding="UTF-8" standalone="no"?>
<!DOCTYPE svg PUBLIC "-//W3C//DTD SVG 1.1//EN"
 "http://www.w3.org/Graphics/SVG/1.1/DTD/svg11.dtd">
<!-- Generated by graphviz version 2.40.1 (20161225.0304)
 -->
<!-- Title: jaegertracingc/net.h Pages: 1 -->
<svg width="273pt" height="207pt"
 viewBox="0.00 0.00 273.00 207.00" xmlns="http://www.w3.org/2000/svg" xmlns:xlink="http://www.w3.org/1999/xlink">
<g id="graph0" class="graph" transform="scale(1 1) rotate(0) translate(4 203)">
<title>jaegertracingc/net.h</title>
<polygon fill="#ffffff" stroke="transparent" points="-4,4 -4,-203 269,-203 269,4 -4,4"/>
<!-- Node25 -->
<g id="node1" class="node">
<title>Node25</title>
<polygon fill="#bfbfbf" stroke="#000000" points="81.5,-179.5 81.5,-198.5 183.5,-198.5 183.5,-179.5 81.5,-179.5"/>
<text text-anchor="middle" x="132.5" y="-186.5" font-family="Helvetica,sans-Serif" font-size="10.00" fill="#000000">jaegertracingc/net.h</text>
</g>
<!-- Node26 -->
<g id="node2" class="node">
<title>Node26</title>
<g id="a_node2"><a xlink:href="reporter_8h.html" target="_top" xlink:title="Span reporter interface. ">
<polygon fill="#ffffff" stroke="#000000" points="1.5,-123.5 1.5,-142.5 123.5,-142.5 123.5,-123.5 1.5,-123.5"/>
<text text-anchor="middle" x="62.5" y="-130.5" font-family="Helvetica,sans-Serif" font-size="10.00" fill="#000000">jaegertracingc/reporter.h</text>
</a>
</g>
</g>
<!-- Node25&#45;&gt;Node26 -->
<g id="edge1" class="edge">
<title>Node25&#45;&gt;Node26</title>
<path fill="none" stroke="#191970" d="M112.41,-172.928C100.1747,-163.1397 84.9493,-150.9595 74.5533,-142.6427"/>
<polygon fill="#191970" stroke="#191970" points="110.3118,-175.7316 120.3069,-179.2455 114.6847,-170.2655 110.3118,-175.7316"/>
</g>
<!-- Node29 -->
<g id="node5" class="node">
<title>Node29</title>
<g id="a_node5"><a xlink:href="sampler_8h.html" target="_top" xlink:title="Span sampler interface. ">
<polygon fill="#ffffff" stroke="#000000" points="142,-123.5 142,-142.5 265,-142.5 265,-123.5 142,-123.5"/>
<text text-anchor="middle" x="203.5" y="-130.5" font-family="Helvetica,sans-Serif" font-size="10.00" fill="#000000">jaegertracingc/sampler.h</text>
</a>
</g>
</g>
<!-- Node25&#45;&gt;Node29 -->
<g id="edge4" class="edge">
<title>Node25&#45;&gt;Node29</title>
<path fill="none" stroke="#191970" d="M152.877,-172.928C165.2871,-163.1397 180.73,-150.9595 191.2745,-142.6427"/>
<polygon fill="#191970" stroke="#191970" points="150.5514,-170.3046 144.8673,-179.2455 154.8864,-175.8007 150.5514,-170.3046"/>
</g>
<!-- Node27 -->
<g id="node3" class="node">
<title>Node27</title>
<g id="a_node3"><a xlink:href="tracer_8h.html" target="_top" xlink:title="Tracer implementation. ">
<polygon fill="#ffffff" stroke="#000000" points="13,-62 13,-81 126,-81 126,-62 13,-62"/>
<text text-anchor="middle" x="69.5" y="-69" font-family="Helvetica,sans-Serif" font-size="10.00" fill="#000000">jaegertracingc/tracer.h</text>
</a>
</g>
</g>
<!-- Node26&#45;&gt;Node27 -->
<g id="edge2" class="edge">
<title>Node26&#45;&gt;Node27</title>
<path fill="none" stroke="#191970" d="M64.7484,-113.2462C65.9656,-102.5519 67.4155,-89.814 68.3908,-81.2449"/>
<polygon fill="#191970" stroke="#191970" points="61.2472,-113.0589 63.5938,-123.3906 68.2023,-113.8506 61.2472,-113.0589"/>
</g>
<!-- Node28 -->
<g id="node4" class="node">
<title>Node28</title>
<g id="a_node4"><a xlink:href="propagation_8c.html" target="_top" xlink:title="Trace ID representation. ">
<polygon fill="#ffffff" stroke="#000000" points="0,-.5 0,-19.5 139,-19.5 139,-.5 0,-.5"/>
<text text-anchor="middle" x="69.5" y="-7.5" font-family="Helvetica,sans-Serif" font-size="10.00" fill="#000000">jaegertracingc/propagation.c</text>
</a>
</g>
</g>
<!-- Node27&#45;&gt;Node28 -->
<g id="edge3" class="edge">
<title>Node27&#45;&gt;Node28</title>
<path fill="none" stroke="#191970" d="M69.5,-51.7462C69.5,-41.0519 69.5,-28.314 69.5,-19.7449"/>
<polygon fill="#191970" stroke="#191970" points="66.0001,-51.8906 69.5,-61.8906 73.0001,-51.8907 66.0001,-51.8906"/>
</g>
<!-- Node29&#45;&gt;Node27 -->
<g id="edge5" class="edge">
<title>Node29&#45;&gt;Node27</title>
<path fill="none" stroke="#191970" d="M173.4089,-119.1895C148.0918,-107.5701 112.5546,-91.2601 90.2905,-81.0419"/>
<polygon fill="#191970" stroke="#191970" points="172.014,-122.4003 182.5625,-123.3906 174.9339,-116.0384 172.014,-122.4003"/>
</g>
<!-- Node30 -->
<g id="node6" class="node">
<title>Node30</title>
<g id="a_node6"><a xlink:href="mock__agent_8h.html" target="_top" xlink:title="Key value pair representation. ">
<polygon fill="#ffffff" stroke="#000000" points="151.5,-56.5 151.5,-86.5 255.5,-86.5 255.5,-56.5 151.5,-56.5"/>
<text text-anchor="start" x="159.5" y="-74.5" font-family="Helvetica,sans-Serif" font-size="10.00" fill="#000000">jaegertracingc/mock</text>
<text text-anchor="middle" x="203.5" y="-63.5" font-family="Helvetica,sans-Serif" font-size="10.00" fill="#000000">_agent.h</text>
</a>
</g>
</g>
<!-- Node29&#45;&gt;Node30 -->
<g id="edge6" class="edge">
<title>Node29&#45;&gt;Node30</title>
<path fill="none" stroke="#191970" d="M203.5,-113.3693C203.5,-104.681 203.5,-94.6241 203.5,-86.5446"/>
<polygon fill="#191970" stroke="#191970" points="200.0001,-113.3906 203.5,-123.3906 207.0001,-113.3907 200.0001,-113.3906"/>
</g>
</g>
</svg>
