<?xml version="1.0" encoding="UTF-8" standalone="no"?>
<!DOCTYPE svg PUBLIC "-//W3C//DTD SVG 1.1//EN"
 "http://www.w3.org/Graphics/SVG/1.1/DTD/svg11.dtd">
<!-- Generated by graphviz version 2.40.1 (20161225.0304)
 -->
<!-- Title: jaegertracingc/net.h Pages: 1 -->
<svg width="1284pt" height="252pt"
 viewBox="0.00 0.00 1283.50 252.00" xmlns="http://www.w3.org/2000/svg" xmlns:xlink="http://www.w3.org/1999/xlink">
<g id="graph0" class="graph" transform="scale(1 1) rotate(0) translate(4 248)">
<title>jaegertracingc/net.h</title>
<polygon fill="#ffffff" stroke="transparent" points="-4,4 -4,-248 1279.5,-248 1279.5,4 -4,4"/>
<!-- Node0 -->
<g id="node1" class="node">
<title>Node0</title>
<polygon fill="#bfbfbf" stroke="#000000" points="234,-224.5 234,-243.5 336,-243.5 336,-224.5 234,-224.5"/>
<text text-anchor="middle" x="285" y="-231.5" font-family="Helvetica,sans-Serif" font-size="10.00" fill="#000000">jaegertracingc/net.h</text>
</g>
<!-- Node1 -->
<g id="node2" class="node">
<title>Node1</title>
<polygon fill="#ffffff" stroke="#bfbfbf" points="0,-168.5 0,-187.5 74,-187.5 74,-168.5 0,-168.5"/>
<text text-anchor="middle" x="37" y="-175.5" font-family="Helvetica,sans-Serif" font-size="10.00" fill="#000000">http_parser.h</text>
</g>
<!-- Node0&#45;&gt;Node1 -->
<g id="edge1" class="edge">
<title>Node0&#45;&gt;Node1</title>
<path fill="none" stroke="#191970" d="M242.6491,-224.4369C198.6624,-214.5044 130.0001,-199 84.2726,-188.6745"/>
<polygon fill="#191970" stroke="#191970" points="84.8369,-185.2138 74.3116,-186.4252 83.2951,-192.0419 84.8369,-185.2138"/>
</g>
<!-- Node2 -->
<g id="node3" class="node">
<title>Node2</title>
<polygon fill="#ffffff" stroke="#bfbfbf" points="92.5,-168.5 92.5,-187.5 141.5,-187.5 141.5,-168.5 92.5,-168.5"/>
<text text-anchor="middle" x="117" y="-175.5" font-family="Helvetica,sans-Serif" font-size="10.00" fill="#000000">netdb.h</text>
</g>
<!-- Node0&#45;&gt;Node2 -->
<g id="edge2" class="edge">
<title>Node0&#45;&gt;Node2</title>
<path fill="none" stroke="#191970" d="M256.1198,-224.3733C226.9988,-214.6663 182.0537,-199.6846 151.1751,-189.3917"/>
<polygon fill="#191970" stroke="#191970" points="152.2755,-186.0692 141.6818,-186.2273 150.0618,-192.71 152.2755,-186.0692"/>
</g>
<!-- Node3 -->
<g id="node4" class="node">
<title>Node3</title>
<polygon fill="#ffffff" stroke="#bfbfbf" points="159.5,-168.5 159.5,-187.5 224.5,-187.5 224.5,-168.5 159.5,-168.5"/>
<text text-anchor="middle" x="192" y="-175.5" font-family="Helvetica,sans-Serif" font-size="10.00" fill="#000000">netinet/in.h</text>
</g>
<!-- Node0&#45;&gt;Node3 -->
<g id="edge3" class="edge">
<title>Node0&#45;&gt;Node3</title>
<path fill="none" stroke="#191970" d="M268.8006,-224.2455C254.3982,-215.5731 233.1268,-202.7645 216.6201,-192.825"/>
<polygon fill="#191970" stroke="#191970" points="218.386,-189.8028 208.0137,-187.6427 214.775,-195.7996 218.386,-189.8028"/>
</g>
<!-- Node4 -->
<g id="node5" class="node">
<title>Node4</title>
<polygon fill="#ffffff" stroke="#bfbfbf" points="190,-112.5 190,-131.5 238,-131.5 238,-112.5 190,-112.5"/>
<text text-anchor="middle" x="214" y="-119.5" font-family="Helvetica,sans-Serif" font-size="10.00" fill="#000000">stdlib.h</text>
</g>
<!-- Node0&#45;&gt;Node4 -->
<g id="edge4" class="edge">
<title>Node0&#45;&gt;Node4</title>
<path fill="none" stroke="#191970" d="M278.9466,-224.4509C267.1046,-205.7707 240.7035,-164.1238 225.459,-140.0761"/>
<polygon fill="#191970" stroke="#191970" points="228.3483,-138.0969 220.0381,-131.5249 222.4362,-141.8448 228.3483,-138.0969"/>
</g>
<!-- Node5 -->
<g id="node6" class="node">
<title>Node5</title>
<polygon fill="#ffffff" stroke="#bfbfbf" points="281.5,-168.5 281.5,-187.5 354.5,-187.5 354.5,-168.5 281.5,-168.5"/>
<text text-anchor="middle" x="318" y="-175.5" font-family="Helvetica,sans-Serif" font-size="10.00" fill="#000000">sys/socket.h</text>
</g>
<!-- Node0&#45;&gt;Node5 -->
<g id="edge5" class="edge">
<title>Node0&#45;&gt;Node5</title>
<path fill="none" stroke="#191970" d="M290.7482,-224.2455C295.2435,-216.617 301.6248,-205.7881 307.0825,-196.5267"/>
<polygon fill="#191970" stroke="#191970" points="310.2561,-198.035 312.3177,-187.6427 304.2253,-194.4811 310.2561,-198.035"/>
</g>
<!-- Node6 -->
<g id="node7" class="node">
<title>Node6</title>
<polygon fill="#ffffff" stroke="#bfbfbf" points="373,-168.5 373,-187.5 441,-187.5 441,-168.5 373,-168.5"/>
<text text-anchor="middle" x="407" y="-175.5" font-family="Helvetica,sans-Serif" font-size="10.00" fill="#000000">sys/types.h</text>
</g>
<!-- Node0&#45;&gt;Node6 -->
<g id="edge6" class="edge">
<title>Node0&#45;&gt;Node6</title>
<path fill="none" stroke="#191970" d="M305.9725,-224.3733C325.5567,-215.3838 354.9961,-201.8706 377.051,-191.7471"/>
<polygon fill="#191970" stroke="#191970" points="378.6729,-194.8538 386.3011,-187.5011 375.7527,-188.4919 378.6729,-194.8538"/>
</g>
<!-- Node7 -->
<g id="node8" class="node">
<title>Node7</title>
<polygon fill="#ffffff" stroke="#bfbfbf" points="459.5,-168.5 459.5,-187.5 510.5,-187.5 510.5,-168.5 459.5,-168.5"/>
<text text-anchor="middle" x="485" y="-175.5" font-family="Helvetica,sans-Serif" font-size="10.00" fill="#000000">unistd.h</text>
</g>
<!-- Node0&#45;&gt;Node7 -->
<g id="edge7" class="edge">
<title>Node0&#45;&gt;Node7</title>
<path fill="none" stroke="#191970" d="M319.4644,-224.461C350.8356,-215.7628 398.687,-202.457 449.5276,-188.121"/>
<polygon fill="#191970" stroke="#191970" points="450.7178,-191.4219 459.3912,-185.3373 448.8164,-184.6851 450.7178,-191.4219"/>
</g>
<!-- Node8 -->
<g id="node9" class="node">
<title>Node8</title>
<g id="a_node9"><a xlink:href="common_8h.html" target="_top" xlink:title="Common headers, struct definitions, and macros. ">
<polygon fill="#ffffff" stroke="#000000" points="567,-168.5 567,-187.5 693,-187.5 693,-168.5 567,-168.5"/>
<text text-anchor="middle" x="630" y="-175.5" font-family="Helvetica,sans-Serif" font-size="10.00" fill="#000000">jaegertracingc/common.h</text>
</a>
</g>
</g>
<!-- Node0&#45;&gt;Node8 -->
<g id="edge8" class="edge">
<title>Node0&#45;&gt;Node8</title>
<path fill="none" stroke="#191970" d="M336.2775,-225.6767C395.9998,-215.9826 494.9216,-199.9258 561.2616,-189.1575"/>
<polygon fill="#191970" stroke="#191970" points="561.9009,-192.5997 571.2109,-187.5426 560.7793,-185.6901 561.9009,-192.5997"/>
</g>
<!-- Node8&#45;&gt;Node4 -->
<g id="edge20" class="edge">
<title>Node8&#45;&gt;Node4</title>
<path fill="none" stroke="#191970" d="M566.6822,-171.752C478.2949,-162.809 321.3915,-146.0754 247.8349,-131.8063"/>
<polygon fill="#191970" stroke="#191970" points="248.5217,-128.3744 238.0247,-129.8102 247.126,-135.2338 248.5217,-128.3744"/>
</g>
<!-- Node9 -->
<g id="node10" class="node">
<title>Node9</title>
<g id="a_node10"><a xlink:href="config_8h_source.html" target="_top" xlink:title="jaegertracingc/config.h">
<polygon fill="#ffffff" stroke="#000000" points="1054.5,-112.5 1054.5,-131.5 1169.5,-131.5 1169.5,-112.5 1054.5,-112.5"/>
<text text-anchor="middle" x="1112" y="-119.5" font-family="Helvetica,sans-Serif" font-size="10.00" fill="#000000">jaegertracingc/config.h</text>
</a>
</g>
</g>
<!-- Node8&#45;&gt;Node9 -->
<g id="edge9" class="edge">
<title>Node8&#45;&gt;Node9</title>
<path fill="none" stroke="#191970" d="M693.2748,-171.4223C773.8678,-162.9244 917.4051,-147.3881 1040,-132 1041.303,-131.8364 1042.6191,-131.6697 1043.945,-131.5002"/>
<polygon fill="#191970" stroke="#191970" points="1044.7854,-134.9203 1054.2491,-130.1569 1043.8805,-127.9791 1044.7854,-134.9203"/>
</g>
<!-- Node11 -->
<g id="node12" class="node">
<title>Node11</title>
<polygon fill="#ffffff" stroke="#bfbfbf" points="579,-56.5 579,-75.5 631,-75.5 631,-56.5 579,-56.5"/>
<text text-anchor="middle" x="605" y="-63.5" font-family="Helvetica,sans-Serif" font-size="10.00" fill="#000000">assert.h</text>
</g>
<!-- Node8&#45;&gt;Node11 -->
<g id="edge11" class="edge">
<title>Node8&#45;&gt;Node11</title>
<path fill="none" stroke="#191970" d="M626.621,-168.2304C623.5211,-158.9868 618.9726,-144.6787 616,-132 612.4315,-116.7796 609.575,-99.3223 607.668,-86.1862"/>
<polygon fill="#191970" stroke="#191970" points="611.0847,-85.3432 606.2427,-75.9196 604.1512,-86.3059 611.0847,-85.3432"/>
</g>
<!-- Node12 -->
<g id="node13" class="node">
<title>Node12</title>
<polygon fill="#ffffff" stroke="#bfbfbf" points="1226.5,-112.5 1226.5,-131.5 1275.5,-131.5 1275.5,-112.5 1226.5,-112.5"/>
<text text-anchor="middle" x="1251" y="-119.5" font-family="Helvetica,sans-Serif" font-size="10.00" fill="#000000">ctype.h</text>
</g>
<!-- Node8&#45;&gt;Node12 -->
<g id="edge12" class="edge">
<title>Node8&#45;&gt;Node12</title>
<path fill="none" stroke="#191970" d="M693.3026,-176.5585C800.668,-173.3207 1025.0351,-163.1204 1212,-132 1213.4652,-131.7561 1214.9559,-131.4838 1216.4577,-131.1895"/>
<polygon fill="#191970" stroke="#191970" points="1217.3707,-134.5722 1226.3791,-128.9955 1215.8592,-127.7374 1217.3707,-134.5722"/>
</g>
<!-- Node13 -->
<g id="node14" class="node">
<title>Node13</title>
<polygon fill="#ffffff" stroke="#bfbfbf" points="256.5,-112.5 256.5,-131.5 315.5,-131.5 315.5,-112.5 256.5,-112.5"/>
<text text-anchor="middle" x="286" y="-119.5" font-family="Helvetica,sans-Serif" font-size="10.00" fill="#000000">inttypes.h</text>
</g>
<!-- Node8&#45;&gt;Node13 -->
<g id="edge13" class="edge">
<title>Node8&#45;&gt;Node13</title>
<path fill="none" stroke="#191970" d="M566.8786,-170.3781C507.2072,-162.7432 415.0066,-149.8396 325.7612,-131.9849"/>
<polygon fill="#191970" stroke="#191970" points="326.2344,-128.5098 315.7388,-129.9561 324.8455,-135.3706 326.2344,-128.5098"/>
</g>
<!-- Node14 -->
<g id="node15" class="node">
<title>Node14</title>
<polygon fill="#ffffff" stroke="#bfbfbf" points="334,-112.5 334,-131.5 382,-131.5 382,-112.5 334,-112.5"/>
<text text-anchor="middle" x="358" y="-119.5" font-family="Helvetica,sans-Serif" font-size="10.00" fill="#000000">limits.h</text>
</g>
<!-- Node8&#45;&gt;Node14 -->
<g id="edge14" class="edge">
<title>Node8&#45;&gt;Node14</title>
<path fill="none" stroke="#191970" d="M576.3575,-168.4521C528.7964,-159.7496 457.5373,-146.1307 396,-132 394.7284,-131.708 393.4347,-131.4038 392.1294,-131.0909"/>
<polygon fill="#191970" stroke="#191970" points="392.616,-127.6051 382.066,-128.5784 390.9203,-134.3966 392.616,-127.6051"/>
</g>
<!-- Node15 -->
<g id="node16" class="node">
<title>Node15</title>
<polygon fill="#ffffff" stroke="#bfbfbf" points="1048,-.5 1048,-19.5 1100,-19.5 1100,-.5 1048,-.5"/>
<text text-anchor="middle" x="1074" y="-7.5" font-family="Helvetica,sans-Serif" font-size="10.00" fill="#000000">stdarg.h</text>
</g>
<!-- Node8&#45;&gt;Node15 -->
<g id="edge15" class="edge">
<title>Node8&#45;&gt;Node15</title>
<path fill="none" stroke="#191970" d="M693.1857,-177.4053C830.5453,-175.4553 1146.6669,-167.1556 1179,-132 1201.8656,-107.1384 1197.4812,-84.2734 1179,-56 1163.8506,-32.8237 1134.156,-21.2522 1110.1999,-15.517"/>
<polygon fill="#191970" stroke="#191970" points="1110.8556,-12.0781 1100.3435,-13.3996 1109.3853,-18.9219 1110.8556,-12.0781"/>
</g>
<!-- Node16 -->
<g id="node17" class="node">
<title>Node16</title>
<polygon fill="#ffffff" stroke="#bfbfbf" points="438,-112.5 438,-131.5 494,-131.5 494,-112.5 438,-112.5"/>
<text text-anchor="middle" x="466" y="-119.5" font-family="Helvetica,sans-Serif" font-size="10.00" fill="#000000">stdbool.h</text>
</g>
<!-- Node8&#45;&gt;Node16 -->
<g id="edge16" class="edge">
<title>Node8&#45;&gt;Node16</title>
<path fill="none" stroke="#191970" d="M601.8074,-168.3733C574.6547,-159.1016 533.4093,-145.0178 503.4975,-134.804"/>
<polygon fill="#191970" stroke="#191970" points="504.4192,-131.4204 493.8247,-131.5011 502.1572,-138.0449 504.4192,-131.4204"/>
</g>
<!-- Node17 -->
<g id="node18" class="node">
<title>Node17</title>
<polygon fill="#ffffff" stroke="#bfbfbf" points="512,-112.5 512,-131.5 564,-131.5 564,-112.5 512,-112.5"/>
<text text-anchor="middle" x="538" y="-119.5" font-family="Helvetica,sans-Serif" font-size="10.00" fill="#000000">stddef.h</text>
</g>
<!-- Node8&#45;&gt;Node17 -->
<g id="edge17" class="edge">
<title>Node8&#45;&gt;Node17</title>
<path fill="none" stroke="#191970" d="M613.9748,-168.2455C599.8592,-159.6534 579.0737,-147.0014 562.8101,-137.1018"/>
<polygon fill="#191970" stroke="#191970" points="564.2034,-133.8525 553.8415,-131.6427 560.5637,-139.8319 564.2034,-133.8525"/>
</g>
<!-- Node18 -->
<g id="node19" class="node">
<title>Node18</title>
<polygon fill="#ffffff" stroke="#bfbfbf" points="675.5,-56.5 675.5,-75.5 724.5,-75.5 724.5,-56.5 675.5,-56.5"/>
<text text-anchor="middle" x="700" y="-63.5" font-family="Helvetica,sans-Serif" font-size="10.00" fill="#000000">stdint.h</text>
</g>
<!-- Node8&#45;&gt;Node18 -->
<g id="edge18" class="edge">
<title>Node8&#45;&gt;Node18</title>
<path fill="none" stroke="#191970" d="M631.0839,-168.365C632.9595,-154.8759 637.7512,-129.998 649,-112 656.307,-100.3089 667.4172,-89.7947 677.4046,-81.7793"/>
<polygon fill="#191970" stroke="#191970" points="679.5941,-84.5112 685.4218,-75.6631 675.3483,-78.9458 679.5941,-84.5112"/>
</g>
<!-- Node19 -->
<g id="node20" class="node">
<title>Node19</title>
<polygon fill="#ffffff" stroke="#bfbfbf" points="808,-.5 808,-19.5 854,-19.5 854,-.5 808,-.5"/>
<text text-anchor="middle" x="831" y="-7.5" font-family="Helvetica,sans-Serif" font-size="10.00" fill="#000000">stdio.h</text>
</g>
<!-- Node8&#45;&gt;Node19 -->
<g id="edge19" class="edge">
<title>Node8&#45;&gt;Node19</title>
<path fill="none" stroke="#191970" d="M566.8581,-172.053C514.5305,-165.6639 446.0683,-153.4158 429,-132 423.4599,-125.0488 424.0076,-119.3545 429,-112 470.9692,-50.1733 709.1495,-21.5507 797.7787,-12.9328"/>
<polygon fill="#191970" stroke="#191970" points="798.1977,-16.4088 807.8225,-11.9801 797.5367,-9.4401 798.1977,-16.4088"/>
</g>
<!-- Node20 -->
<g id="node21" class="node">
<title>Node20</title>
<polygon fill="#ffffff" stroke="#bfbfbf" points="798.5,-56.5 798.5,-75.5 847.5,-75.5 847.5,-56.5 798.5,-56.5"/>
<text text-anchor="middle" x="823" y="-63.5" font-family="Helvetica,sans-Serif" font-size="10.00" fill="#000000">string.h</text>
</g>
<!-- Node8&#45;&gt;Node20 -->
<g id="edge21" class="edge">
<title>Node8&#45;&gt;Node20</title>
<path fill="none" stroke="#191970" d="M693.3785,-173.8488C786.4794,-167.097 951.1733,-152.409 969,-132 974.8476,-125.3054 974.2568,-119.1678 969,-112 955.7268,-93.9016 896.4115,-79.6607 857.5885,-72.0656"/>
<polygon fill="#191970" stroke="#191970" points="858.1966,-68.6186 847.719,-70.1906 856.8901,-75.4956 858.1966,-68.6186"/>
</g>
<!-- Node21 -->
<g id="node22" class="node">
<title>Node21</title>
<polygon fill="#ffffff" stroke="#bfbfbf" points="786,-112.5 786,-131.5 830,-131.5 830,-112.5 786,-112.5"/>
<text text-anchor="middle" x="808" y="-119.5" font-family="Helvetica,sans-Serif" font-size="10.00" fill="#000000">time.h</text>
</g>
<!-- Node8&#45;&gt;Node21 -->
<g id="edge22" class="edge">
<title>Node8&#45;&gt;Node21</title>
<path fill="none" stroke="#191970" d="M660.7133,-168.475C688.4937,-159.8406 730.7723,-146.6533 776.2445,-132.2226"/>
<polygon fill="#191970" stroke="#191970" points="777.5215,-135.4894 785.9922,-129.1256 775.4018,-128.818 777.5215,-135.4894"/>
</g>
<!-- Node22 -->
<g id="node23" class="node">
<title>Node22</title>
<polygon fill="#ffffff" stroke="#bfbfbf" points="848.5,-112.5 848.5,-131.5 959.5,-131.5 959.5,-112.5 848.5,-112.5"/>
<text text-anchor="middle" x="904" y="-119.5" font-family="Helvetica,sans-Serif" font-size="10.00" fill="#000000">opentracing&#45;c/tracer.h</text>
</g>
<!-- Node8&#45;&gt;Node22 -->
<g id="edge23" class="edge">
<title>Node8&#45;&gt;Node22</title>
<path fill="none" stroke="#191970" d="M676.791,-168.4369C723.9795,-158.7925 796.872,-143.8948 847.3124,-133.5858"/>
<polygon fill="#191970" stroke="#191970" points="848.3054,-136.9553 857.402,-131.5237 846.9037,-130.097 848.3054,-136.9553"/>
</g>
<!-- Node23 -->
<g id="node24" class="node">
<title>Node23</title>
<g id="a_node24"><a xlink:href="alloc_8h.html" target="_top" xlink:title="Allocator struct and functions. ">
<polygon fill="#ffffff" stroke="#000000" points="658.5,-112.5 658.5,-131.5 767.5,-131.5 767.5,-112.5 658.5,-112.5"/>
<text text-anchor="middle" x="713" y="-119.5" font-family="Helvetica,sans-Serif" font-size="10.00" fill="#000000">jaegertracingc/alloc.h</text>
</a>
</g>
</g>
<!-- Node8&#45;&gt;Node23 -->
<g id="edge24" class="edge">
<title>Node8&#45;&gt;Node23</title>
<path fill="none" stroke="#191970" d="M644.4575,-168.2455C657.0732,-159.7337 675.5944,-147.2375 690.2045,-137.3801"/>
<polygon fill="#191970" stroke="#191970" points="692.3761,-140.1371 698.7082,-131.6427 688.4609,-134.3343 692.3761,-140.1371"/>
</g>
<!-- Node24 -->
<g id="node25" class="node">
<title>Node24</title>
<g id="a_node25"><a xlink:href="logging_8h.html" target="_top" xlink:title="Logging interface and initialization functions. ">
<polygon fill="#ffffff" stroke="#000000" points="893.5,-56.5 893.5,-75.5 1012.5,-75.5 1012.5,-56.5 893.5,-56.5"/>
<text text-anchor="middle" x="953" y="-63.5" font-family="Helvetica,sans-Serif" font-size="10.00" fill="#000000">jaegertracingc/logging.h</text>
</a>
</g>
</g>
<!-- Node8&#45;&gt;Node24 -->
<g id="edge31" class="edge">
<title>Node8&#45;&gt;Node24</title>
<path fill="none" stroke="#191970" d="M693.1802,-174.2785C790.0385,-167.9209 966.0776,-153.5325 985,-132 997.6247,-117.6339 984.4225,-97.4081 971.352,-83.1426"/>
<polygon fill="#191970" stroke="#191970" points="973.765,-80.6042 964.269,-75.9056 968.7623,-85.5005 973.765,-80.6042"/>
</g>
<!-- Node10 -->
<g id="node11" class="node">
<title>Node10</title>
<g id="a_node11"><a xlink:href="visibility_8h_source.html" target="_top" xlink:title="jaegertracingc/visibility.h">
<polygon fill="#ffffff" stroke="#000000" points="1046,-56.5 1046,-75.5 1170,-75.5 1170,-56.5 1046,-56.5"/>
<text text-anchor="middle" x="1108" y="-63.5" font-family="Helvetica,sans-Serif" font-size="10.00" fill="#000000">jaegertracingc/visibility.h</text>
</a>
</g>
</g>
<!-- Node9&#45;&gt;Node10 -->
<g id="edge10" class="edge">
<title>Node9&#45;&gt;Node10</title>
<path fill="none" stroke="#191970" d="M1111.3033,-112.2455C1110.7813,-104.9382 1110.0496,-94.6944 1109.4075,-85.7046"/>
<polygon fill="#191970" stroke="#191970" points="1112.8924,-85.3679 1108.6888,-75.6427 1105.9102,-85.8667 1112.8924,-85.3679"/>
</g>
<!-- Node23&#45;&gt;Node11 -->
<g id="edge25" class="edge">
<title>Node23&#45;&gt;Node11</title>
<path fill="none" stroke="#191970" d="M694.1878,-112.2455C677.1527,-103.4125 651.8425,-90.2887 632.5319,-80.2758"/>
<polygon fill="#191970" stroke="#191970" points="634.0853,-77.1388 623.5966,-75.6427 630.863,-83.353 634.0853,-77.1388"/>
</g>
<!-- Node23&#45;&gt;Node18 -->
<g id="edge26" class="edge">
<title>Node23&#45;&gt;Node18</title>
<path fill="none" stroke="#191970" d="M710.7356,-112.2455C709.0206,-104.8579 706.6088,-94.4689 704.5056,-85.4087"/>
<polygon fill="#191970" stroke="#191970" points="707.9092,-84.5922 702.2385,-75.6427 701.0905,-86.1751 707.9092,-84.5922"/>
</g>
<!-- Node23&#45;&gt;Node20 -->
<g id="edge27" class="edge">
<title>Node23&#45;&gt;Node20</title>
<path fill="none" stroke="#191970" d="M732.1605,-112.2455C749.5111,-103.4125 775.2901,-90.2887 794.9583,-80.2758"/>
<polygon fill="#191970" stroke="#191970" points="796.7353,-83.2986 804.059,-75.6427 793.5595,-77.0605 796.7353,-83.2986"/>
</g>
<!-- Node23&#45;&gt;Node24 -->
<g id="edge28" class="edge">
<title>Node23&#45;&gt;Node24</title>
<path fill="none" stroke="#191970" d="M753.9848,-112.4369C794.9726,-102.8731 858.1004,-88.1432 902.2357,-77.845"/>
<polygon fill="#191970" stroke="#191970" points="903.2412,-81.2045 912.1843,-75.5237 901.6505,-74.3876 903.2412,-81.2045"/>
</g>
<!-- Node24&#45;&gt;Node15 -->
<g id="edge29" class="edge">
<title>Node24&#45;&gt;Node15</title>
<path fill="none" stroke="#191970" d="M973.8006,-56.3733C993.2243,-47.3838 1022.4224,-33.8706 1044.2964,-23.7471"/>
<polygon fill="#191970" stroke="#191970" points="1045.8656,-26.8776 1053.4708,-19.5011 1042.9255,-20.5249 1045.8656,-26.8776"/>
</g>
<!-- Node24&#45;&gt;Node19 -->
<g id="edge30" class="edge">
<title>Node24&#45;&gt;Node19</title>
<path fill="none" stroke="#191970" d="M932.0275,-56.3733C912.4433,-47.3838 883.0039,-33.8706 860.949,-23.7471"/>
<polygon fill="#191970" stroke="#191970" points="862.2473,-20.4919 851.6989,-19.5011 859.3271,-26.8538 862.2473,-20.4919"/>
</g>
</g>
</svg>
