<?xml version="1.0" encoding="UTF-8" standalone="no"?>
<!DOCTYPE svg PUBLIC "-//W3C//DTD SVG 1.1//EN"
 "http://www.w3.org/Graphics/SVG/1.1/DTD/svg11.dtd">
<!-- Generated by graphviz version 2.40.1 (20161225.0304)
 -->
<!-- Title: jaegertracingc/net.h Pages: 1 -->
<svg width="1230pt" height="252pt"
 viewBox="0.00 0.00 1230.00 252.00" xmlns="http://www.w3.org/2000/svg" xmlns:xlink="http://www.w3.org/1999/xlink">
<g id="graph0" class="graph" transform="scale(1 1) rotate(0) translate(4 248)">
<title>jaegertracingc/net.h</title>
<polygon fill="#ffffff" stroke="transparent" points="-4,4 -4,-248 1226,-248 1226,4 -4,4"/>
<!-- Node0 -->
<g id="node1" class="node">
<title>Node0</title>
<polygon fill="#bfbfbf" stroke="#000000" points="218.5,-224.5 218.5,-243.5 320.5,-243.5 320.5,-224.5 218.5,-224.5"/>
<text text-anchor="middle" x="269.5" y="-231.5" font-family="Helvetica,sans-Serif" font-size="10.00" fill="#000000">jaegertracingc/net.h</text>
</g>
<!-- Node1 -->
<g id="node2" class="node">
<title>Node1</title>
<polygon fill="#ffffff" stroke="#bfbfbf" points="0,-168.5 0,-187.5 49,-187.5 49,-168.5 0,-168.5"/>
<text text-anchor="middle" x="24.5" y="-175.5" font-family="Helvetica,sans-Serif" font-size="10.00" fill="#000000">netdb.h</text>
</g>
<!-- Node0&#45;&gt;Node1 -->
<g id="edge1" class="edge">
<title>Node0&#45;&gt;Node1</title>
<path fill="none" stroke="#191970" d="M219.9713,-224.4286C179.1105,-216.2676 119.431,-203.7428 59.3418,-188.3482"/>
<polygon fill="#191970" stroke="#191970" points="59.8636,-184.868 49.3056,-185.7508 58.1097,-191.6448 59.8636,-184.868"/>
</g>
<!-- Node2 -->
<g id="node3" class="node">
<title>Node2</title>
<polygon fill="#ffffff" stroke="#bfbfbf" points="67,-168.5 67,-187.5 132,-187.5 132,-168.5 67,-168.5"/>
<text text-anchor="middle" x="99.5" y="-175.5" font-family="Helvetica,sans-Serif" font-size="10.00" fill="#000000">netinet/in.h</text>
</g>
<!-- Node0&#45;&gt;Node2 -->
<g id="edge2" class="edge">
<title>Node0&#45;&gt;Node2</title>
<path fill="none" stroke="#191970" d="M240.276,-224.3733C212.0075,-215.0613 169.0035,-200.8953 137.9656,-190.671"/>
<polygon fill="#191970" stroke="#191970" points="138.9357,-187.3056 128.3427,-187.5011 136.7456,-193.9542 138.9357,-187.3056"/>
</g>
<!-- Node3 -->
<g id="node4" class="node">
<title>Node3</title>
<polygon fill="#ffffff" stroke="#bfbfbf" points="136.5,-112.5 136.5,-131.5 184.5,-131.5 184.5,-112.5 136.5,-112.5"/>
<text text-anchor="middle" x="160.5" y="-119.5" font-family="Helvetica,sans-Serif" font-size="10.00" fill="#000000">stdlib.h</text>
</g>
<!-- Node0&#45;&gt;Node3 -->
<g id="edge3" class="edge">
<title>Node0&#45;&gt;Node3</title>
<path fill="none" stroke="#191970" d="M236.5387,-224.4965C217.3443,-217.3688 194.1199,-205.7392 179.5,-188 168.7292,-174.9311 164.0614,-156.048 162.04,-141.825"/>
<polygon fill="#191970" stroke="#191970" points="165.4899,-141.1764 160.9202,-131.6177 158.5317,-141.9398 165.4899,-141.1764"/>
</g>
<!-- Node4 -->
<g id="node5" class="node">
<title>Node4</title>
<polygon fill="#ffffff" stroke="#bfbfbf" points="189,-168.5 189,-187.5 262,-187.5 262,-168.5 189,-168.5"/>
<text text-anchor="middle" x="225.5" y="-175.5" font-family="Helvetica,sans-Serif" font-size="10.00" fill="#000000">sys/socket.h</text>
</g>
<!-- Node0&#45;&gt;Node4 -->
<g id="edge4" class="edge">
<title>Node0&#45;&gt;Node4</title>
<path fill="none" stroke="#191970" d="M261.8358,-224.2455C255.6527,-216.3761 246.7937,-205.101 239.3711,-195.6542"/>
<polygon fill="#191970" stroke="#191970" points="242.0068,-193.3435 233.0764,-187.6427 236.5025,-197.6683 242.0068,-193.3435"/>
</g>
<!-- Node5 -->
<g id="node6" class="node">
<title>Node5</title>
<polygon fill="#ffffff" stroke="#bfbfbf" points="280.5,-168.5 280.5,-187.5 348.5,-187.5 348.5,-168.5 280.5,-168.5"/>
<text text-anchor="middle" x="314.5" y="-175.5" font-family="Helvetica,sans-Serif" font-size="10.00" fill="#000000">sys/types.h</text>
</g>
<!-- Node0&#45;&gt;Node5 -->
<g id="edge5" class="edge">
<title>Node0&#45;&gt;Node5</title>
<path fill="none" stroke="#191970" d="M277.3384,-224.2455C283.662,-216.3761 292.7224,-205.101 300.3136,-195.6542"/>
<polygon fill="#191970" stroke="#191970" points="303.2158,-197.6302 306.7514,-187.6427 297.7592,-193.2454 303.2158,-197.6302"/>
</g>
<!-- Node6 -->
<g id="node7" class="node">
<title>Node6</title>
<polygon fill="#ffffff" stroke="#bfbfbf" points="367,-168.5 367,-187.5 418,-187.5 418,-168.5 367,-168.5"/>
<text text-anchor="middle" x="392.5" y="-175.5" font-family="Helvetica,sans-Serif" font-size="10.00" fill="#000000">unistd.h</text>
</g>
<!-- Node0&#45;&gt;Node6 -->
<g id="edge6" class="edge">
<title>Node0&#45;&gt;Node6</title>
<path fill="none" stroke="#191970" d="M290.6445,-224.3733C310.3892,-215.3838 340.0698,-201.8706 362.3055,-191.7471"/>
<polygon fill="#191970" stroke="#191970" points="363.9806,-194.8302 371.6315,-187.5011 361.08,-188.4594 363.9806,-194.8302"/>
</g>
<!-- Node7 -->
<g id="node8" class="node">
<title>Node7</title>
<polygon fill="#ffffff" stroke="#bfbfbf" points="436.5,-168.5 436.5,-187.5 510.5,-187.5 510.5,-168.5 436.5,-168.5"/>
<text text-anchor="middle" x="473.5" y="-175.5" font-family="Helvetica,sans-Serif" font-size="10.00" fill="#000000">http_parser.h</text>
</g>
<!-- Node0&#45;&gt;Node7 -->
<g id="edge7" class="edge">
<title>Node0&#45;&gt;Node7</title>
<path fill="none" stroke="#191970" d="M304.5689,-224.3733C338.9315,-214.9404 391.4392,-200.5265 428.7851,-190.2747"/>
<polygon fill="#191970" stroke="#191970" points="430.172,-193.5235 438.8888,-187.5011 428.319,-186.7732 430.172,-193.5235"/>
</g>
<!-- Node8 -->
<g id="node9" class="node">
<title>Node8</title>
<g id="a_node9"><a xlink:href="common_8h.html" target="_top" xlink:title="Common headers, struct definitions, and macros. ">
<polygon fill="#ffffff" stroke="#000000" points="528.5,-168.5 528.5,-187.5 654.5,-187.5 654.5,-168.5 528.5,-168.5"/>
<text text-anchor="middle" x="591.5" y="-175.5" font-family="Helvetica,sans-Serif" font-size="10.00" fill="#000000">jaegertracingc/common.h</text>
</a>
</g>
</g>
<!-- Node0&#45;&gt;Node8 -->
<g id="edge8" class="edge">
<title>Node0&#45;&gt;Node8</title>
<path fill="none" stroke="#191970" d="M320.5219,-225.1266C376.3762,-215.4128 466.0575,-199.8161 526.8103,-189.2504"/>
<polygon fill="#191970" stroke="#191970" points="527.4245,-192.6962 536.6769,-187.5345 526.225,-185.7997 527.4245,-192.6962"/>
</g>
<!-- Node8&#45;&gt;Node3 -->
<g id="edge20" class="edge">
<title>Node8&#45;&gt;Node3</title>
<path fill="none" stroke="#191970" d="M528.2971,-169.1198C525.3242,-168.7342 522.3803,-168.359 519.5,-168 378.0985,-150.3765 338.0877,-160.7689 194.5777,-131.891"/>
<polygon fill="#191970" stroke="#191970" points="195.0171,-128.4086 184.519,-129.8374 193.6168,-135.2671 195.0171,-128.4086"/>
</g>
<!-- Node9 -->
<g id="node10" class="node">
<title>Node9</title>
<g id="a_node10"><a xlink:href="config_8h_source.html" target="_top" xlink:title="jaegertracingc/config.h">
<polygon fill="#ffffff" stroke="#000000" points="1001,-112.5 1001,-131.5 1116,-131.5 1116,-112.5 1001,-112.5"/>
<text text-anchor="middle" x="1058.5" y="-119.5" font-family="Helvetica,sans-Serif" font-size="10.00" fill="#000000">jaegertracingc/config.h</text>
</a>
</g>
</g>
<!-- Node8&#45;&gt;Node9 -->
<g id="edge9" class="edge">
<title>Node8&#45;&gt;Node9</title>
<path fill="none" stroke="#191970" d="M654.8332,-171.0602C732.8914,-162.4065 869.5634,-146.9277 986.5,-132 987.8027,-131.8337 989.1185,-131.6644 990.4441,-131.4926"/>
<polygon fill="#191970" stroke="#191970" points="991.2891,-134.9116 1000.7464,-130.1356 990.3749,-127.9716 991.2891,-134.9116"/>
</g>
<!-- Node11 -->
<g id="node12" class="node">
<title>Node11</title>
<polygon fill="#ffffff" stroke="#bfbfbf" points="525.5,-56.5 525.5,-75.5 577.5,-75.5 577.5,-56.5 525.5,-56.5"/>
<text text-anchor="middle" x="551.5" y="-63.5" font-family="Helvetica,sans-Serif" font-size="10.00" fill="#000000">assert.h</text>
</g>
<!-- Node8&#45;&gt;Node11 -->
<g id="edge11" class="edge">
<title>Node8&#45;&gt;Node11</title>
<path fill="none" stroke="#191970" d="M583.8212,-168.3823C577.1171,-159.4735 567.6736,-145.587 562.5,-132 556.8162,-117.073 554.0647,-99.1407 552.7352,-85.7378"/>
<polygon fill="#191970" stroke="#191970" points="556.2189,-85.3934 551.9198,-75.71 549.2419,-85.9608 556.2189,-85.3934"/>
</g>
<!-- Node12 -->
<g id="node13" class="node">
<title>Node12</title>
<polygon fill="#ffffff" stroke="#bfbfbf" points="1173,-112.5 1173,-131.5 1222,-131.5 1222,-112.5 1173,-112.5"/>
<text text-anchor="middle" x="1197.5" y="-119.5" font-family="Helvetica,sans-Serif" font-size="10.00" fill="#000000">ctype.h</text>
</g>
<!-- Node8&#45;&gt;Node12 -->
<g id="edge12" class="edge">
<title>Node8&#45;&gt;Node12</title>
<path fill="none" stroke="#191970" d="M654.8592,-176.3704C760.1068,-172.8804 977.3291,-162.3494 1158.5,-132 1159.9649,-131.7546 1161.4554,-131.481 1162.957,-131.1857"/>
<polygon fill="#191970" stroke="#191970" points="1163.8717,-134.568 1172.8778,-128.9876 1162.3574,-127.7337 1163.8717,-134.568"/>
</g>
<!-- Node13 -->
<g id="node14" class="node">
<title>Node13</title>
<polygon fill="#ffffff" stroke="#bfbfbf" points="203,-112.5 203,-131.5 262,-131.5 262,-112.5 203,-112.5"/>
<text text-anchor="middle" x="232.5" y="-119.5" font-family="Helvetica,sans-Serif" font-size="10.00" fill="#000000">inttypes.h</text>
</g>
<!-- Node8&#45;&gt;Node13 -->
<g id="edge13" class="edge">
<title>Node8&#45;&gt;Node13</title>
<path fill="none" stroke="#191970" d="M528.4024,-169.1084C447.5166,-157.6867 313.568,-138.6856 272.2205,-131.7724"/>
<polygon fill="#191970" stroke="#191970" points="272.6959,-128.3019 262.2344,-129.9775 271.4575,-135.1915 272.6959,-128.3019"/>
</g>
<!-- Node14 -->
<g id="node15" class="node">
<title>Node14</title>
<polygon fill="#ffffff" stroke="#bfbfbf" points="280.5,-112.5 280.5,-131.5 328.5,-131.5 328.5,-112.5 280.5,-112.5"/>
<text text-anchor="middle" x="304.5" y="-119.5" font-family="Helvetica,sans-Serif" font-size="10.00" fill="#000000">limits.h</text>
</g>
<!-- Node8&#45;&gt;Node14 -->
<g id="edge14" class="edge">
<title>Node8&#45;&gt;Node14</title>
<path fill="none" stroke="#191970" d="M533.1405,-168.486C482.5197,-159.9318 407.3879,-146.5103 342.5,-132 341.2268,-131.7153 339.9317,-131.4173 338.6251,-131.1096"/>
<polygon fill="#191970" stroke="#191970" points="339.1043,-127.6227 328.5565,-128.6202 337.4242,-134.4181 339.1043,-127.6227"/>
</g>
<!-- Node15 -->
<g id="node16" class="node">
<title>Node15</title>
<polygon fill="#ffffff" stroke="#bfbfbf" points="994.5,-.5 994.5,-19.5 1046.5,-19.5 1046.5,-.5 994.5,-.5"/>
<text text-anchor="middle" x="1020.5" y="-7.5" font-family="Helvetica,sans-Serif" font-size="10.00" fill="#000000">stdarg.h</text>
</g>
<!-- Node8&#45;&gt;Node15 -->
<g id="edge15" class="edge">
<title>Node8&#45;&gt;Node15</title>
<path fill="none" stroke="#191970" d="M654.7301,-177.2429C789.2694,-174.9746 1094.2216,-166.0886 1125.5,-132 1148.3366,-107.1117 1143.9812,-84.2734 1125.5,-56 1110.3506,-32.8237 1080.656,-21.2522 1056.6999,-15.517"/>
<polygon fill="#191970" stroke="#191970" points="1057.3556,-12.0781 1046.8435,-13.3996 1055.8853,-18.9219 1057.3556,-12.0781"/>
</g>
<!-- Node16 -->
<g id="node17" class="node">
<title>Node16</title>
<polygon fill="#ffffff" stroke="#bfbfbf" points="384.5,-112.5 384.5,-131.5 440.5,-131.5 440.5,-112.5 384.5,-112.5"/>
<text text-anchor="middle" x="412.5" y="-119.5" font-family="Helvetica,sans-Serif" font-size="10.00" fill="#000000">stdbool.h</text>
</g>
<!-- Node8&#45;&gt;Node16 -->
<g id="edge16" class="edge">
<title>Node8&#45;&gt;Node16</title>
<path fill="none" stroke="#191970" d="M560.7288,-168.3733C530.1103,-158.7943 483.0733,-144.0788 450.2222,-133.8014"/>
<polygon fill="#191970" stroke="#191970" points="451.1053,-130.4104 440.5164,-130.7649 449.0152,-137.0911 451.1053,-130.4104"/>
</g>
<!-- Node17 -->
<g id="node18" class="node">
<title>Node17</title>
<polygon fill="#ffffff" stroke="#bfbfbf" points="458.5,-112.5 458.5,-131.5 510.5,-131.5 510.5,-112.5 458.5,-112.5"/>
<text text-anchor="middle" x="484.5" y="-119.5" font-family="Helvetica,sans-Serif" font-size="10.00" fill="#000000">stddef.h</text>
</g>
<!-- Node8&#45;&gt;Node17 -->
<g id="edge17" class="edge">
<title>Node8&#45;&gt;Node17</title>
<path fill="none" stroke="#191970" d="M572.862,-168.2455C556.0614,-159.4527 531.1366,-146.4079 512.0382,-136.4125"/>
<polygon fill="#191970" stroke="#191970" points="513.4073,-133.1787 502.9244,-131.6427 510.1614,-139.3807 513.4073,-133.1787"/>
</g>
<!-- Node18 -->
<g id="node19" class="node">
<title>Node18</title>
<polygon fill="#ffffff" stroke="#bfbfbf" points="622,-56.5 622,-75.5 671,-75.5 671,-56.5 622,-56.5"/>
<text text-anchor="middle" x="646.5" y="-63.5" font-family="Helvetica,sans-Serif" font-size="10.00" fill="#000000">stdint.h</text>
</g>
<!-- Node8&#45;&gt;Node18 -->
<g id="edge18" class="edge">
<title>Node8&#45;&gt;Node18</title>
<path fill="none" stroke="#191970" d="M589.919,-168.4798C588.1646,-155.1272 586.6359,-130.4105 595.5,-112 601.3192,-99.9138 611.8729,-89.5667 621.8762,-81.7644"/>
<polygon fill="#191970" stroke="#191970" points="624.0083,-84.5415 630.0334,-75.8266 619.8887,-78.882 624.0083,-84.5415"/>
</g>
<!-- Node19 -->
<g id="node20" class="node">
<title>Node19</title>
<polygon fill="#ffffff" stroke="#bfbfbf" points="754.5,-.5 754.5,-19.5 800.5,-19.5 800.5,-.5 754.5,-.5"/>
<text text-anchor="middle" x="777.5" y="-7.5" font-family="Helvetica,sans-Serif" font-size="10.00" fill="#000000">stdio.h</text>
</g>
<!-- Node8&#45;&gt;Node19 -->
<g id="edge19" class="edge">
<title>Node8&#45;&gt;Node19</title>
<path fill="none" stroke="#191970" d="M528.3516,-168.653C468.1392,-159.0966 385.2095,-143.995 375.5,-132 369.9074,-125.0909 370.5076,-119.3545 375.5,-112 417.4692,-50.1733 655.6495,-21.5507 744.2787,-12.9328"/>
<polygon fill="#191970" stroke="#191970" points="744.6977,-16.4088 754.3225,-11.9801 744.0367,-9.4401 744.6977,-16.4088"/>
</g>
<!-- Node20 -->
<g id="node21" class="node">
<title>Node20</title>
<polygon fill="#ffffff" stroke="#bfbfbf" points="745,-56.5 745,-75.5 794,-75.5 794,-56.5 745,-56.5"/>
<text text-anchor="middle" x="769.5" y="-63.5" font-family="Helvetica,sans-Serif" font-size="10.00" fill="#000000">string.h</text>
</g>
<!-- Node8&#45;&gt;Node20 -->
<g id="edge21" class="edge">
<title>Node8&#45;&gt;Node20</title>
<path fill="none" stroke="#191970" d="M654.6643,-173.4383C744.0879,-166.3293 898.6707,-151.3874 915.5,-132 921.3269,-125.2874 920.7568,-119.1678 915.5,-112 902.2268,-93.9016 842.9115,-79.6607 804.0885,-72.0656"/>
<polygon fill="#191970" stroke="#191970" points="804.6966,-68.6186 794.219,-70.1906 803.3901,-75.4956 804.6966,-68.6186"/>
</g>
<!-- Node21 -->
<g id="node22" class="node">
<title>Node21</title>
<polygon fill="#ffffff" stroke="#bfbfbf" points="732.5,-112.5 732.5,-131.5 776.5,-131.5 776.5,-112.5 732.5,-112.5"/>
<text text-anchor="middle" x="754.5" y="-119.5" font-family="Helvetica,sans-Serif" font-size="10.00" fill="#000000">time.h</text>
</g>
<!-- Node8&#45;&gt;Node21 -->
<g id="edge22" class="edge">
<title>Node8&#45;&gt;Node21</title>
<path fill="none" stroke="#191970" d="M619.5207,-168.3733C648.2251,-158.5116 692.7758,-143.2059 722.7634,-132.9034"/>
<polygon fill="#191970" stroke="#191970" points="724.0107,-136.1757 732.3309,-129.6164 721.7362,-129.5555 724.0107,-136.1757"/>
</g>
<!-- Node22 -->
<g id="node23" class="node">
<title>Node22</title>
<polygon fill="#ffffff" stroke="#bfbfbf" points="795,-112.5 795,-131.5 906,-131.5 906,-112.5 795,-112.5"/>
<text text-anchor="middle" x="850.5" y="-119.5" font-family="Helvetica,sans-Serif" font-size="10.00" fill="#000000">opentracing&#45;c/tracer.h</text>
</g>
<!-- Node8&#45;&gt;Node22 -->
<g id="edge23" class="edge">
<title>Node8&#45;&gt;Node22</title>
<path fill="none" stroke="#191970" d="M635.7294,-168.4369C680.2415,-158.8127 748.949,-143.957 796.6169,-133.6504"/>
<polygon fill="#191970" stroke="#191970" points="797.4186,-137.058 806.453,-131.5237 795.9392,-130.2161 797.4186,-137.058"/>
</g>
<!-- Node23 -->
<g id="node24" class="node">
<title>Node23</title>
<g id="a_node24"><a xlink:href="alloc_8h.html" target="_top" xlink:title="Allocator struct and functions. ">
<polygon fill="#ffffff" stroke="#000000" points="605,-112.5 605,-131.5 714,-131.5 714,-112.5 605,-112.5"/>
<text text-anchor="middle" x="659.5" y="-119.5" font-family="Helvetica,sans-Serif" font-size="10.00" fill="#000000">jaegertracingc/alloc.h</text>
</a>
</g>
</g>
<!-- Node8&#45;&gt;Node23 -->
<g id="edge24" class="edge">
<title>Node8&#45;&gt;Node23</title>
<path fill="none" stroke="#191970" d="M603.3447,-168.2455C613.388,-159.9746 627.9995,-147.9416 639.8004,-138.2232"/>
<polygon fill="#191970" stroke="#191970" points="642.2967,-140.7015 647.791,-131.6427 637.8467,-135.298 642.2967,-140.7015"/>
</g>
<!-- Node24 -->
<g id="node25" class="node">
<title>Node24</title>
<g id="a_node25"><a xlink:href="logging_8h.html" target="_top" xlink:title="Logging interface and initialization functions. ">
<polygon fill="#ffffff" stroke="#000000" points="840,-56.5 840,-75.5 959,-75.5 959,-56.5 840,-56.5"/>
<text text-anchor="middle" x="899.5" y="-63.5" font-family="Helvetica,sans-Serif" font-size="10.00" fill="#000000">jaegertracingc/logging.h</text>
</a>
</g>
</g>
<!-- Node8&#45;&gt;Node24 -->
<g id="edge31" class="edge">
<title>Node8&#45;&gt;Node24</title>
<path fill="none" stroke="#191970" d="M654.6814,-173.8902C747.9864,-167.1691 913.5932,-152.4926 931.5,-132 944.0843,-117.5985 930.8891,-97.3789 917.8313,-83.1245"/>
<polygon fill="#191970" stroke="#191970" points="920.2513,-80.5932 910.7556,-75.8939 915.2482,-85.4891 920.2513,-80.5932"/>
</g>
<!-- Node10 -->
<g id="node11" class="node">
<title>Node10</title>
<g id="a_node11"><a xlink:href="visibility_8h_source.html" target="_top" xlink:title="jaegertracingc/visibility.h">
<polygon fill="#ffffff" stroke="#000000" points="992.5,-56.5 992.5,-75.5 1116.5,-75.5 1116.5,-56.5 992.5,-56.5"/>
<text text-anchor="middle" x="1054.5" y="-63.5" font-family="Helvetica,sans-Serif" font-size="10.00" fill="#000000">jaegertracingc/visibility.h</text>
</a>
</g>
</g>
<!-- Node9&#45;&gt;Node10 -->
<g id="edge10" class="edge">
<title>Node9&#45;&gt;Node10</title>
<path fill="none" stroke="#191970" d="M1057.8033,-112.2455C1057.2813,-104.9382 1056.5496,-94.6944 1055.9075,-85.7046"/>
<polygon fill="#191970" stroke="#191970" points="1059.3924,-85.3679 1055.1888,-75.6427 1052.4102,-85.8667 1059.3924,-85.3679"/>
</g>
<!-- Node23&#45;&gt;Node11 -->
<g id="edge25" class="edge">
<title>Node23&#45;&gt;Node11</title>
<path fill="none" stroke="#191970" d="M640.6878,-112.2455C623.6527,-103.4125 598.3425,-90.2887 579.0319,-80.2758"/>
<polygon fill="#191970" stroke="#191970" points="580.5853,-77.1388 570.0966,-75.6427 577.363,-83.353 580.5853,-77.1388"/>
</g>
<!-- Node23&#45;&gt;Node18 -->
<g id="edge26" class="edge">
<title>Node23&#45;&gt;Node18</title>
<path fill="none" stroke="#191970" d="M657.2356,-112.2455C655.5206,-104.8579 653.1088,-94.4689 651.0056,-85.4087"/>
<polygon fill="#191970" stroke="#191970" points="654.4092,-84.5922 648.7385,-75.6427 647.5905,-86.1751 654.4092,-84.5922"/>
</g>
<!-- Node23&#45;&gt;Node20 -->
<g id="edge27" class="edge">
<title>Node23&#45;&gt;Node20</title>
<path fill="none" stroke="#191970" d="M678.6605,-112.2455C696.0111,-103.4125 721.7901,-90.2887 741.4583,-80.2758"/>
<polygon fill="#191970" stroke="#191970" points="743.2353,-83.2986 750.559,-75.6427 740.0595,-77.0605 743.2353,-83.2986"/>
</g>
<!-- Node23&#45;&gt;Node24 -->
<g id="edge28" class="edge">
<title>Node23&#45;&gt;Node24</title>
<path fill="none" stroke="#191970" d="M700.4848,-112.4369C741.4726,-102.8731 804.6004,-88.1432 848.7357,-77.845"/>
<polygon fill="#191970" stroke="#191970" points="849.7412,-81.2045 858.6843,-75.5237 848.1505,-74.3876 849.7412,-81.2045"/>
</g>
<!-- Node24&#45;&gt;Node15 -->
<g id="edge29" class="edge">
<title>Node24&#45;&gt;Node15</title>
<path fill="none" stroke="#191970" d="M920.3006,-56.3733C939.7243,-47.3838 968.9224,-33.8706 990.7964,-23.7471"/>
<polygon fill="#191970" stroke="#191970" points="992.3656,-26.8776 999.9708,-19.5011 989.4255,-20.5249 992.3656,-26.8776"/>
</g>
<!-- Node24&#45;&gt;Node19 -->
<g id="edge30" class="edge">
<title>Node24&#45;&gt;Node19</title>
<path fill="none" stroke="#191970" d="M878.5275,-56.3733C858.9433,-47.3838 829.5039,-33.8706 807.449,-23.7471"/>
<polygon fill="#191970" stroke="#191970" points="808.7473,-20.4919 798.1989,-19.5011 805.8271,-26.8538 808.7473,-20.4919"/>
</g>
</g>
</svg>
