<?xml version="1.0" encoding="UTF-8" standalone="no"?>
<!DOCTYPE svg PUBLIC "-//W3C//DTD SVG 1.1//EN"
 "http://www.w3.org/Graphics/SVG/1.1/DTD/svg11.dtd">
<!-- Generated by graphviz version 2.40.1 (20161225.0304)
 -->
<!-- Title: jaegertracingc/options.h Pages: 1 -->
<svg width="176pt" height="140pt"
 viewBox="0.00 0.00 176.00 140.00" xmlns="http://www.w3.org/2000/svg" xmlns:xlink="http://www.w3.org/1999/xlink">
<g id="graph0" class="graph" transform="scale(1 1) rotate(0) translate(4 136)">
<title>jaegertracingc/options.h</title>
<polygon fill="#ffffff" stroke="transparent" points="-4,4 -4,-136 172,-136 172,4 -4,4"/>
<!-- Node20 -->
<g id="node1" class="node">
<title>Node20</title>
<polygon fill="#bfbfbf" stroke="#000000" points="38.5,-112.5 38.5,-131.5 158.5,-131.5 158.5,-112.5 38.5,-112.5"/>
<text text-anchor="middle" x="98.5" y="-119.5" font-family="Helvetica,sans-Serif" font-size="10.00" fill="#000000">jaegertracingc/options.h</text>
</g>
<!-- Node21 -->
<g id="node2" class="node">
<title>Node21</title>
<g id="a_node2"><a xlink:href="tracer_8h.html" target="_top" xlink:title="Tracer implementation. ">
<polygon fill="#ffffff" stroke="#000000" points="0,-56.5 0,-75.5 113,-75.5 113,-56.5 0,-56.5"/>
<text text-anchor="middle" x="56.5" y="-63.5" font-family="Helvetica,sans-Serif" font-size="10.00" fill="#000000">jaegertracingc/tracer.h</text>
</a>
</g>
</g>
<!-- Node20&#45;&gt;Node21 -->
<g id="edge1" class="edge">
<title>Node20&#45;&gt;Node21</title>
<path fill="none" stroke="#191970" d="M85.1584,-104.2112C78.0604,-94.7472 69.6097,-83.4797 63.732,-75.6427"/>
<polygon fill="#191970" stroke="#191970" points="82.3841,-106.3455 91.1842,-112.2455 87.9841,-102.1455 82.3841,-106.3455"/>
</g>
<!-- Node22 -->
<g id="node3" class="node">
<title>Node22</title>
<g id="a_node3"><a xlink:href="propagation_8c.html" target="_top" xlink:title="Trace ID representation. ">
<polygon fill="#ffffff" stroke="#000000" points="29,-.5 29,-19.5 168,-19.5 168,-.5 29,-.5"/>
<text text-anchor="middle" x="98.5" y="-7.5" font-family="Helvetica,sans-Serif" font-size="10.00" fill="#000000">jaegertracingc/propagation.c</text>
</a>
</g>
</g>
<!-- Node20&#45;&gt;Node22 -->
<g id="edge3" class="edge">
<title>Node20&#45;&gt;Node22</title>
<path fill="none" stroke="#191970" d="M110.6247,-103.7224C115.3179,-95.5929 120.1257,-85.6836 122.5,-76 127.5519,-55.3955 114.649,-32.3099 105.8647,-19.6347"/>
<polygon fill="#191970" stroke="#191970" points="107.5881,-101.9786 105.3208,-112.328 113.5472,-105.6514 107.5881,-101.9786"/>
</g>
<!-- Node21&#45;&gt;Node22 -->
<g id="edge2" class="edge">
<title>Node21&#45;&gt;Node22</title>
<path fill="none" stroke="#191970" d="M69.8416,-48.2112C76.9396,-38.7472 85.3903,-27.4797 91.268,-19.6427"/>
<polygon fill="#191970" stroke="#191970" points="67.0159,-46.1455 63.8158,-56.2455 72.6159,-50.3455 67.0159,-46.1455"/>
</g>
</g>
</svg>
