<?xml version="1.0" encoding="UTF-8" standalone="no"?>
<!DOCTYPE svg PUBLIC "-//W3C//DTD SVG 1.1//EN"
 "http://www.w3.org/Graphics/SVG/1.1/DTD/svg11.dtd">
<!-- Generated by graphviz version 2.40.1 (20161225.0304)
 -->
<!-- Title: jaegertracingc/reporter.h Pages: 1 -->
<svg width="1432pt" height="509pt"
 viewBox="0.00 0.00 1431.50 509.00" xmlns="http://www.w3.org/2000/svg" xmlns:xlink="http://www.w3.org/1999/xlink">
<g id="graph0" class="graph" transform="scale(1 1) rotate(0) translate(4 505)">
<title>jaegertracingc/reporter.h</title>
<polygon fill="#ffffff" stroke="transparent" points="-4,4 -4,-505 1427.5,-505 1427.5,4 -4,4"/>
<!-- Node0 -->
<g id="node1" class="node">
<title>Node0</title>
<polygon fill="#bfbfbf" stroke="#000000" points="469.5,-481.5 469.5,-500.5 591.5,-500.5 591.5,-481.5 469.5,-481.5"/>
<text text-anchor="middle" x="530.5" y="-488.5" font-family="Helvetica,sans-Serif" font-size="10.00" fill="#000000">jaegertracingc/reporter.h</text>
</g>
<!-- Node1 -->
<g id="node2" class="node">
<title>Node1</title>
<g id="a_node2"><a xlink:href="common_8h.html" target="_top" xlink:title="Common headers, struct definitions, and macros. ">
<polygon fill="#ffffff" stroke="#000000" points="538.5,-168.5 538.5,-187.5 664.5,-187.5 664.5,-168.5 538.5,-168.5"/>
<text text-anchor="middle" x="601.5" y="-175.5" font-family="Helvetica,sans-Serif" font-size="10.00" fill="#000000">jaegertracingc/common.h</text>
</a>
</g>
</g>
<!-- Node0&#45;&gt;Node1 -->
<g id="edge1" class="edge">
<title>Node0&#45;&gt;Node1</title>
<path fill="none" stroke="#191970" d="M477.4213,-481.4626C437.1898,-473.1996 386.371,-460.2001 371.5,-445 348.5057,-421.4968 352.5,-406.3806 352.5,-373.5 352.5,-373.5 352.5,-373.5 352.5,-306.5 352.5,-260.6198 487.6859,-212.5866 558.8402,-190.4823"/>
<polygon fill="#191970" stroke="#191970" points="559.9014,-193.8178 568.4347,-187.5382 557.8479,-187.1257 559.9014,-193.8178"/>
</g>
<!-- Node18 -->
<g id="node19" class="node">
<title>Node18</title>
<g id="a_node19"><a xlink:href="logging_8h.html" target="_top" xlink:title="Logging interface and initialization functions. ">
<polygon fill="#ffffff" stroke="#000000" points="1129,-56.5 1129,-75.5 1248,-75.5 1248,-56.5 1129,-56.5"/>
<text text-anchor="middle" x="1188.5" y="-63.5" font-family="Helvetica,sans-Serif" font-size="10.00" fill="#000000">jaegertracingc/logging.h</text>
</a>
</g>
</g>
<!-- Node0&#45;&gt;Node18 -->
<g id="edge25" class="edge">
<title>Node0&#45;&gt;Node18</title>
<path fill="none" stroke="#191970" d="M591.528,-489.402C792.901,-483.3292 1423.5,-457.5983 1423.5,-373.5 1423.5,-373.5 1423.5,-373.5 1423.5,-178 1423.5,-136.754 1304.0393,-97.3889 1235.4645,-78.1897"/>
<polygon fill="#191970" stroke="#191970" points="1236.3072,-74.7914 1225.7364,-75.5055 1234.4453,-81.5393 1236.3072,-74.7914"/>
</g>
<!-- Node19 -->
<g id="node20" class="node">
<title>Node19</title>
<g id="a_node20"><a xlink:href="metrics_8h.html" target="_top" xlink:title="Metrics interfaces to track various numbers while tracing. ">
<polygon fill="#ffffff" stroke="#000000" points="381,-425.5 381,-444.5 502,-444.5 502,-425.5 381,-425.5"/>
<text text-anchor="middle" x="441.5" y="-432.5" font-family="Helvetica,sans-Serif" font-size="10.00" fill="#000000">jaegertracingc/metrics.h</text>
</a>
</g>
</g>
<!-- Node0&#45;&gt;Node19 -->
<g id="edge26" class="edge">
<title>Node0&#45;&gt;Node19</title>
<path fill="none" stroke="#191970" d="M514.9974,-481.2455C501.342,-472.6534 481.2343,-460.0014 465.5011,-450.1018"/>
<polygon fill="#191970" stroke="#191970" points="467.1529,-447.006 456.825,-444.6427 463.4249,-452.9307 467.1529,-447.006"/>
</g>
<!-- Node20 -->
<g id="node21" class="node">
<title>Node20</title>
<g id="a_node21"><a xlink:href="net_8h.html" target="_top" xlink:title="Network utilities. ">
<polygon fill="#ffffff" stroke="#000000" points="222.5,-230 222.5,-249 324.5,-249 324.5,-230 222.5,-230"/>
<text text-anchor="middle" x="273.5" y="-237" font-family="Helvetica,sans-Serif" font-size="10.00" fill="#000000">jaegertracingc/net.h</text>
</a>
</g>
</g>
<!-- Node0&#45;&gt;Node20 -->
<g id="edge28" class="edge">
<title>Node0&#45;&gt;Node20</title>
<path fill="none" stroke="#191970" d="M469.1692,-482.958C420.4162,-475.3863 357.3761,-462.5779 338.5,-445 284.6834,-394.8846 275.188,-300.6088 273.6807,-259.5076"/>
<polygon fill="#191970" stroke="#191970" points="277.1772,-259.3186 273.4372,-249.4059 270.1793,-259.4874 277.1772,-259.3186"/>
</g>
<!-- Node27 -->
<g id="node28" class="node">
<title>Node27</title>
<g id="a_node28"><a xlink:href="span_8h.html" target="_top" xlink:title="Span, span context, and span ref representations and functions. ">
<polygon fill="#ffffff" stroke="#000000" points="706.5,-425.5 706.5,-444.5 816.5,-444.5 816.5,-425.5 706.5,-425.5"/>
<text text-anchor="middle" x="761.5" y="-432.5" font-family="Helvetica,sans-Serif" font-size="10.00" fill="#000000">jaegertracingc/span.h</text>
</a>
</g>
</g>
<!-- Node0&#45;&gt;Node27 -->
<g id="edge37" class="edge">
<title>Node0&#45;&gt;Node27</title>
<path fill="none" stroke="#191970" d="M569.9478,-481.4369C609.3156,-471.8932 669.9034,-457.2052 712.3708,-446.9101"/>
<polygon fill="#191970" stroke="#191970" points="713.321,-450.2812 722.2149,-444.5237 711.6717,-443.4783 713.321,-450.2812"/>
</g>
<!-- Node30 -->
<g id="node31" class="node">
<title>Node30</title>
<g id="a_node31"><a xlink:href="vector_8h.html" target="_top" xlink:title="C generic vector implementation. ">
<polygon fill="#ffffff" stroke="#000000" points="677.5,-230 677.5,-249 793.5,-249 793.5,-230 677.5,-230"/>
<text text-anchor="middle" x="735.5" y="-237" font-family="Helvetica,sans-Serif" font-size="10.00" fill="#000000">jaegertracingc/vector.h</text>
</a>
</g>
</g>
<!-- Node0&#45;&gt;Node30 -->
<g id="edge68" class="edge">
<title>Node0&#45;&gt;Node30</title>
<path fill="none" stroke="#191970" d="M527.1861,-481.3075C517.0878,-449.8203 490.1169,-349.0938 536.5,-291 552.8867,-270.476 616.2135,-256.5283 667.0869,-248.3794"/>
<polygon fill="#191970" stroke="#191970" points="667.7341,-251.8209 677.078,-246.8267 666.6591,-244.9039 667.7341,-251.8209"/>
</g>
<!-- Node35 -->
<g id="node36" class="node">
<title>Node35</title>
<g id="a_node36"><a xlink:href="threading_8h.html" target="_top" xlink:title="Threading utilities. ">
<polygon fill="#ffffff" stroke="#000000" points="1137.5,-364 1137.5,-383 1265.5,-383 1265.5,-364 1137.5,-364"/>
<text text-anchor="middle" x="1201.5" y="-371" font-family="Helvetica,sans-Serif" font-size="10.00" fill="#000000">jaegertracingc/threading.h</text>
</a>
</g>
</g>
<!-- Node0&#45;&gt;Node35 -->
<g id="edge67" class="edge">
<title>Node0&#45;&gt;Node35</title>
<path fill="none" stroke="#191970" d="M591.6157,-482.0755C651.3431,-473.211 744.8007,-458.9607 825.5,-445 938.6861,-425.4192 1070.4619,-399.6798 1144.1096,-385.0279"/>
<polygon fill="#191970" stroke="#191970" points="1144.9846,-388.4224 1154.1079,-383.0358 1143.6167,-381.5574 1144.9846,-388.4224"/>
</g>
<!-- Node2 -->
<g id="node3" class="node">
<title>Node2</title>
<g id="a_node3"><a xlink:href="config_8h_source.html" target="_top" xlink:title="jaegertracingc/config.h">
<polygon fill="#ffffff" stroke="#000000" points="816,-112.5 816,-131.5 931,-131.5 931,-112.5 816,-112.5"/>
<text text-anchor="middle" x="873.5" y="-119.5" font-family="Helvetica,sans-Serif" font-size="10.00" fill="#000000">jaegertracingc/config.h</text>
</a>
</g>
</g>
<!-- Node1&#45;&gt;Node2 -->
<g id="edge2" class="edge">
<title>Node1&#45;&gt;Node2</title>
<path fill="none" stroke="#191970" d="M647.9494,-168.4369C694.7935,-158.7925 767.1539,-143.8948 817.2262,-133.5858"/>
<polygon fill="#191970" stroke="#191970" points="818.1534,-136.9684 827.2422,-131.5237 816.7418,-130.1122 818.1534,-136.9684"/>
</g>
<!-- Node4 -->
<g id="node5" class="node">
<title>Node4</title>
<polygon fill="#ffffff" stroke="#bfbfbf" points="991.5,-56.5 991.5,-75.5 1043.5,-75.5 1043.5,-56.5 991.5,-56.5"/>
<text text-anchor="middle" x="1017.5" y="-63.5" font-family="Helvetica,sans-Serif" font-size="10.00" fill="#000000">assert.h</text>
</g>
<!-- Node1&#45;&gt;Node4 -->
<g id="edge4" class="edge">
<title>Node1&#45;&gt;Node4</title>
<path fill="none" stroke="#191970" d="M538.357,-170.3894C430.3541,-157.3675 221.6633,-132.1843 221.5,-132 215.6044,-125.3476 215.3649,-118.4322 221.5,-112 278.0996,-52.6596 860.8262,-87.381 981.1113,-75.4966"/>
<polygon fill="#191970" stroke="#191970" points="981.8,-78.9371 991.2749,-74.1963 980.9116,-71.9937 981.8,-78.9371"/>
</g>
<!-- Node5 -->
<g id="node6" class="node">
<title>Node5</title>
<polygon fill="#ffffff" stroke="#bfbfbf" points="231,-112.5 231,-131.5 280,-131.5 280,-112.5 231,-112.5"/>
<text text-anchor="middle" x="255.5" y="-119.5" font-family="Helvetica,sans-Serif" font-size="10.00" fill="#000000">ctype.h</text>
</g>
<!-- Node1&#45;&gt;Node5 -->
<g id="edge5" class="edge">
<title>Node1&#45;&gt;Node5</title>
<path fill="none" stroke="#191970" d="M538.4148,-169.8558C465.5158,-160.2586 348.9512,-144.2963 290.1972,-132.0897"/>
<polygon fill="#191970" stroke="#191970" points="290.7762,-128.634 280.2614,-129.9338 289.2918,-135.4748 290.7762,-128.634"/>
</g>
<!-- Node6 -->
<g id="node7" class="node">
<title>Node6</title>
<polygon fill="#ffffff" stroke="#bfbfbf" points="298,-112.5 298,-131.5 357,-131.5 357,-112.5 298,-112.5"/>
<text text-anchor="middle" x="327.5" y="-119.5" font-family="Helvetica,sans-Serif" font-size="10.00" fill="#000000">inttypes.h</text>
</g>
<!-- Node1&#45;&gt;Node6 -->
<g id="edge6" class="edge">
<title>Node1&#45;&gt;Node6</title>
<path fill="none" stroke="#191970" d="M548.117,-168.4586C502.6043,-160.1182 435.2239,-147.2873 367.2919,-132.0816"/>
<polygon fill="#191970" stroke="#191970" points="367.7927,-128.6067 357.2677,-129.8212 366.2528,-135.4353 367.7927,-128.6067"/>
</g>
<!-- Node7 -->
<g id="node8" class="node">
<title>Node7</title>
<polygon fill="#ffffff" stroke="#bfbfbf" points="375.5,-112.5 375.5,-131.5 423.5,-131.5 423.5,-112.5 375.5,-112.5"/>
<text text-anchor="middle" x="399.5" y="-119.5" font-family="Helvetica,sans-Serif" font-size="10.00" fill="#000000">limits.h</text>
</g>
<!-- Node1&#45;&gt;Node7 -->
<g id="edge7" class="edge">
<title>Node1&#45;&gt;Node7</title>
<path fill="none" stroke="#191970" d="M565.1532,-168.4273C532.9479,-159.8741 484.4127,-146.8114 433.4974,-132.2343"/>
<polygon fill="#191970" stroke="#191970" points="434.2048,-128.796 423.6271,-129.3978 432.2714,-135.5237 434.2048,-128.796"/>
</g>
<!-- Node8 -->
<g id="node9" class="node">
<title>Node8</title>
<polygon fill="#ffffff" stroke="#bfbfbf" points="944.5,-.5 944.5,-19.5 996.5,-19.5 996.5,-.5 944.5,-.5"/>
<text text-anchor="middle" x="970.5" y="-7.5" font-family="Helvetica,sans-Serif" font-size="10.00" fill="#000000">stdarg.h</text>
</g>
<!-- Node1&#45;&gt;Node8 -->
<g id="edge8" class="edge">
<title>Node1&#45;&gt;Node8</title>
<path fill="none" stroke="#191970" d="M664.2794,-168.4939C705.9016,-160.7981 755.2133,-148.5216 768.5,-132 789.6975,-105.6416 750.773,-81.9237 772.5,-56 792.9653,-31.5817 883.0605,-18.725 934.3827,-13.2681"/>
<polygon fill="#191970" stroke="#191970" points="934.8101,-16.7428 944.4025,-12.2443 934.0985,-9.779 934.8101,-16.7428"/>
</g>
<!-- Node9 -->
<g id="node10" class="node">
<title>Node9</title>
<polygon fill="#ffffff" stroke="#bfbfbf" points="441.5,-112.5 441.5,-131.5 497.5,-131.5 497.5,-112.5 441.5,-112.5"/>
<text text-anchor="middle" x="469.5" y="-119.5" font-family="Helvetica,sans-Serif" font-size="10.00" fill="#000000">stdbool.h</text>
</g>
<!-- Node1&#45;&gt;Node9 -->
<g id="edge9" class="edge">
<title>Node1&#45;&gt;Node9</title>
<path fill="none" stroke="#191970" d="M578.8084,-168.3733C557.4289,-159.3032 525.1943,-145.6279 501.2638,-135.4755"/>
<polygon fill="#191970" stroke="#191970" points="502.4683,-132.1846 491.8955,-131.5011 499.7344,-138.6287 502.4683,-132.1846"/>
</g>
<!-- Node10 -->
<g id="node11" class="node">
<title>Node10</title>
<polygon fill="#ffffff" stroke="#bfbfbf" points="515.5,-112.5 515.5,-131.5 567.5,-131.5 567.5,-112.5 515.5,-112.5"/>
<text text-anchor="middle" x="541.5" y="-119.5" font-family="Helvetica,sans-Serif" font-size="10.00" fill="#000000">stddef.h</text>
</g>
<!-- Node1&#45;&gt;Node10 -->
<g id="edge10" class="edge">
<title>Node1&#45;&gt;Node10</title>
<path fill="none" stroke="#191970" d="M591.0488,-168.2455C582.2731,-160.0549 569.5446,-148.1749 559.186,-138.5069"/>
<polygon fill="#191970" stroke="#191970" points="561.5301,-135.9072 551.8314,-131.6427 556.7539,-141.0246 561.5301,-135.9072"/>
</g>
<!-- Node11 -->
<g id="node12" class="node">
<title>Node11</title>
<polygon fill="#ffffff" stroke="#bfbfbf" points="1062,-56.5 1062,-75.5 1111,-75.5 1111,-56.5 1062,-56.5"/>
<text text-anchor="middle" x="1086.5" y="-63.5" font-family="Helvetica,sans-Serif" font-size="10.00" fill="#000000">stdint.h</text>
</g>
<!-- Node1&#45;&gt;Node11 -->
<g id="edge11" class="edge">
<title>Node1&#45;&gt;Node11</title>
<path fill="none" stroke="#191970" d="M664.7406,-175.7927C733.8927,-171.9241 847.2882,-161.2797 940.5,-132 959.0843,-126.1623 961.8752,-120.296 979.5,-112 1004.0909,-100.425 1032.3567,-88.3236 1053.6591,-79.4397"/>
<polygon fill="#191970" stroke="#191970" points="1055.0234,-82.663 1062.9184,-75.5977 1052.3406,-76.1975 1055.0234,-82.663"/>
</g>
<!-- Node12 -->
<g id="node13" class="node">
<title>Node12</title>
<polygon fill="#ffffff" stroke="#bfbfbf" points="613.5,-.5 613.5,-19.5 659.5,-19.5 659.5,-.5 613.5,-.5"/>
<text text-anchor="middle" x="636.5" y="-7.5" font-family="Helvetica,sans-Serif" font-size="10.00" fill="#000000">stdio.h</text>
</g>
<!-- Node1&#45;&gt;Node12 -->
<g id="edge12" class="edge">
<title>Node1&#45;&gt;Node12</title>
<path fill="none" stroke="#191970" d="M538.0679,-170.2642C531.4617,-169.4865 524.8455,-168.7192 518.5,-168 442.6314,-159.4016 131.7506,-171.5817 179.5,-112 232.9719,-45.2777 507.1525,-19.3362 603.2072,-12.2076"/>
<polygon fill="#191970" stroke="#191970" points="603.5154,-15.6945 613.2377,-11.484 603.0117,-8.7127 603.5154,-15.6945"/>
</g>
<!-- Node13 -->
<g id="node14" class="node">
<title>Node13</title>
<polygon fill="#ffffff" stroke="#bfbfbf" points="50.5,-112.5 50.5,-131.5 98.5,-131.5 98.5,-112.5 50.5,-112.5"/>
<text text-anchor="middle" x="74.5" y="-119.5" font-family="Helvetica,sans-Serif" font-size="10.00" fill="#000000">stdlib.h</text>
</g>
<!-- Node1&#45;&gt;Node13 -->
<g id="edge13" class="edge">
<title>Node1&#45;&gt;Node13</title>
<path fill="none" stroke="#191970" d="M538.0803,-170.1509C531.4716,-169.3952 524.8515,-168.664 518.5,-168 338.3296,-149.1632 290.952,-163.1621 112.5,-132 111.2526,-131.7822 109.9863,-131.5434 108.7103,-131.2877"/>
<polygon fill="#191970" stroke="#191970" points="109.4213,-127.8602 98.8956,-129.0688 107.8776,-134.6879 109.4213,-127.8602"/>
</g>
<!-- Node14 -->
<g id="node15" class="node">
<title>Node14</title>
<polygon fill="#ffffff" stroke="#bfbfbf" points="924,-56.5 924,-75.5 973,-75.5 973,-56.5 924,-56.5"/>
<text text-anchor="middle" x="948.5" y="-63.5" font-family="Helvetica,sans-Serif" font-size="10.00" fill="#000000">string.h</text>
</g>
<!-- Node1&#45;&gt;Node14 -->
<g id="edge14" class="edge">
<title>Node1&#45;&gt;Node14</title>
<path fill="none" stroke="#191970" d="M538.0658,-170.2829C531.4599,-169.5016 524.8445,-168.7282 518.5,-168 444.6035,-159.518 137.2231,-165.8825 188.5,-112 242.3836,-55.3783 797.3524,-87.267 913.6522,-75.3478"/>
<polygon fill="#191970" stroke="#191970" points="914.3229,-78.7897 923.7765,-74.0065 913.4034,-71.8503 914.3229,-78.7897"/>
</g>
<!-- Node15 -->
<g id="node16" class="node">
<title>Node15</title>
<polygon fill="#ffffff" stroke="#bfbfbf" points="585.5,-112.5 585.5,-131.5 629.5,-131.5 629.5,-112.5 585.5,-112.5"/>
<text text-anchor="middle" x="607.5" y="-119.5" font-family="Helvetica,sans-Serif" font-size="10.00" fill="#000000">time.h</text>
</g>
<!-- Node1&#45;&gt;Node15 -->
<g id="edge15" class="edge">
<title>Node1&#45;&gt;Node15</title>
<path fill="none" stroke="#191970" d="M602.5451,-168.2455C603.328,-160.9382 604.4256,-150.6944 605.3888,-141.7046"/>
<polygon fill="#191970" stroke="#191970" points="608.8815,-141.9587 606.4669,-131.6427 601.9214,-141.2129 608.8815,-141.9587"/>
</g>
<!-- Node16 -->
<g id="node17" class="node">
<title>Node16</title>
<polygon fill="#ffffff" stroke="#bfbfbf" points="648,-112.5 648,-131.5 759,-131.5 759,-112.5 648,-112.5"/>
<text text-anchor="middle" x="703.5" y="-119.5" font-family="Helvetica,sans-Serif" font-size="10.00" fill="#000000">opentracing&#45;c/tracer.h</text>
</g>
<!-- Node1&#45;&gt;Node16 -->
<g id="edge16" class="edge">
<title>Node1&#45;&gt;Node16</title>
<path fill="none" stroke="#191970" d="M619.267,-168.2455C635.2095,-159.4928 658.8259,-146.527 676.9989,-136.5496"/>
<polygon fill="#191970" stroke="#191970" points="678.8552,-139.5233 685.9366,-131.6427 675.4863,-133.3873 678.8552,-139.5233"/>
</g>
<!-- Node17 -->
<g id="node18" class="node">
<title>Node17</title>
<g id="a_node18"><a xlink:href="alloc_8h.html" target="_top" xlink:title="Allocator struct and functions. ">
<polygon fill="#ffffff" stroke="#000000" points="988,-112.5 988,-131.5 1097,-131.5 1097,-112.5 988,-112.5"/>
<text text-anchor="middle" x="1042.5" y="-119.5" font-family="Helvetica,sans-Serif" font-size="10.00" fill="#000000">jaegertracingc/alloc.h</text>
</a>
</g>
</g>
<!-- Node1&#45;&gt;Node17 -->
<g id="edge17" class="edge">
<title>Node1&#45;&gt;Node17</title>
<path fill="none" stroke="#191970" d="M664.74,-170.588C738.7997,-161.8133 865.1461,-146.5494 973.5,-132 974.9621,-131.8037 976.4414,-131.6034 977.9328,-131.3999"/>
<polygon fill="#191970" stroke="#191970" points="978.4758,-134.8582 987.9015,-130.0202 977.516,-127.9243 978.4758,-134.8582"/>
</g>
<!-- Node1&#45;&gt;Node18 -->
<g id="edge24" class="edge">
<title>Node1&#45;&gt;Node18</title>
<path fill="none" stroke="#191970" d="M664.7996,-176.7767C781.9852,-173.7689 1027.9444,-163.766 1106.5,-132 1133.0457,-121.2655 1157.815,-98.9466 1173.0378,-83.2452"/>
<polygon fill="#191970" stroke="#191970" points="1175.7958,-85.421 1180.0871,-75.7341 1170.6916,-80.6307 1175.7958,-85.421"/>
</g>
<!-- Node3 -->
<g id="node4" class="node">
<title>Node3</title>
<g id="a_node4"><a xlink:href="visibility_8h_source.html" target="_top" xlink:title="jaegertracingc/visibility.h">
<polygon fill="#ffffff" stroke="#000000" points="781.5,-56.5 781.5,-75.5 905.5,-75.5 905.5,-56.5 781.5,-56.5"/>
<text text-anchor="middle" x="843.5" y="-63.5" font-family="Helvetica,sans-Serif" font-size="10.00" fill="#000000">jaegertracingc/visibility.h</text>
</a>
</g>
</g>
<!-- Node2&#45;&gt;Node3 -->
<g id="edge3" class="edge">
<title>Node2&#45;&gt;Node3</title>
<path fill="none" stroke="#191970" d="M868.2744,-112.2455C864.1877,-104.617 858.3865,-93.7881 853.425,-84.5267"/>
<polygon fill="#191970" stroke="#191970" points="856.4732,-82.8047 848.6657,-75.6427 850.3028,-86.1103 856.4732,-82.8047"/>
</g>
<!-- Node17&#45;&gt;Node4 -->
<g id="edge18" class="edge">
<title>Node17&#45;&gt;Node4</title>
<path fill="none" stroke="#191970" d="M1038.1453,-112.2455C1034.7756,-104.6973 1030.007,-94.0158 1025.9017,-84.8197"/>
<polygon fill="#191970" stroke="#191970" points="1029.0773,-83.3473 1021.8048,-75.6427 1022.6853,-86.2009 1029.0773,-83.3473"/>
</g>
<!-- Node17&#45;&gt;Node11 -->
<g id="edge19" class="edge">
<title>Node17&#45;&gt;Node11</title>
<path fill="none" stroke="#191970" d="M1050.1642,-112.2455C1056.3473,-104.3761 1065.2063,-93.101 1072.6289,-83.6542"/>
<polygon fill="#191970" stroke="#191970" points="1075.4975,-85.6683 1078.9236,-75.6427 1069.9932,-81.3435 1075.4975,-85.6683"/>
</g>
<!-- Node17&#45;&gt;Node14 -->
<g id="edge20" class="edge">
<title>Node17&#45;&gt;Node14</title>
<path fill="none" stroke="#191970" d="M1026.1264,-112.2455C1011.5692,-103.5731 990.069,-90.7645 973.3848,-80.825"/>
<polygon fill="#191970" stroke="#191970" points="975.0683,-77.7539 964.6859,-75.6427 971.4856,-83.7676 975.0683,-77.7539"/>
</g>
<!-- Node17&#45;&gt;Node18 -->
<g id="edge21" class="edge">
<title>Node17&#45;&gt;Node18</title>
<path fill="none" stroke="#191970" d="M1067.5983,-112.3733C1091.4555,-103.2226 1127.5335,-89.3844 1154.071,-79.2057"/>
<polygon fill="#191970" stroke="#191970" points="1155.6459,-82.3503 1163.7292,-75.5011 1153.139,-75.8145 1155.6459,-82.3503"/>
</g>
<!-- Node18&#45;&gt;Node8 -->
<g id="edge22" class="edge">
<title>Node18&#45;&gt;Node8</title>
<path fill="none" stroke="#191970" d="M1151.0245,-56.3733C1110.4846,-45.9593 1046.3114,-29.4745 1006.3977,-19.2214"/>
<polygon fill="#191970" stroke="#191970" points="1007.1138,-15.7918 996.5574,-16.6936 1005.3721,-22.5717 1007.1138,-15.7918"/>
</g>
<!-- Node18&#45;&gt;Node12 -->
<g id="edge23" class="edge">
<title>Node18&#45;&gt;Node12</title>
<path fill="none" stroke="#191970" d="M1128.8191,-57.0467C1126.0085,-56.6807 1123.2246,-56.3296 1120.5,-56 951.634,-35.5724 748.7065,-18.8008 669.9852,-12.5876"/>
<polygon fill="#191970" stroke="#191970" points="669.9614,-9.0751 659.7181,-11.7817 669.4135,-16.0536 669.9614,-9.0751"/>
</g>
<!-- Node19&#45;&gt;Node1 -->
<g id="edge27" class="edge">
<title>Node19&#45;&gt;Node1</title>
<path fill="none" stroke="#191970" d="M441.1355,-425.2591C440.4493,-391.7218 442.9816,-280.0254 503.5,-224 519.3556,-209.3216 540.7335,-198.5499 559.4765,-191.1363"/>
<polygon fill="#191970" stroke="#191970" points="560.8629,-194.3544 568.9945,-187.5627 558.4023,-187.8011 560.8629,-194.3544"/>
</g>
<!-- Node20&#45;&gt;Node1 -->
<g id="edge36" class="edge">
<title>Node20&#45;&gt;Node1</title>
<path fill="none" stroke="#191970" d="M311.9086,-229.9315C320.6287,-227.8733 329.8653,-225.7829 338.5,-224 403.4296,-210.5931 477.9041,-197.808 530.9889,-189.1349"/>
<polygon fill="#191970" stroke="#191970" points="531.6695,-192.5703 540.9779,-187.5102 530.5457,-185.6611 531.6695,-192.5703"/>
</g>
<!-- Node20&#45;&gt;Node13 -->
<g id="edge32" class="edge">
<title>Node20&#45;&gt;Node13</title>
<path fill="none" stroke="#191970" d="M223.3575,-229.9878C178.3352,-220.5346 116.6207,-205.021 98.5,-188 85.6114,-175.8936 79.6234,-156.3214 76.8539,-141.6283"/>
<polygon fill="#191970" stroke="#191970" points="80.283,-140.899 75.3024,-131.5478 73.3644,-141.9639 80.283,-140.899"/>
</g>
<!-- Node21 -->
<g id="node22" class="node">
<title>Node21</title>
<polygon fill="#ffffff" stroke="#bfbfbf" points="107.5,-168.5 107.5,-187.5 181.5,-187.5 181.5,-168.5 107.5,-168.5"/>
<text text-anchor="middle" x="144.5" y="-175.5" font-family="Helvetica,sans-Serif" font-size="10.00" fill="#000000">http_parser.h</text>
</g>
<!-- Node20&#45;&gt;Node21 -->
<g id="edge29" class="edge">
<title>Node20&#45;&gt;Node21</title>
<path fill="none" stroke="#191970" d="M253.3438,-229.8906C231.949,-219.6908 197.938,-203.4763 173.6298,-191.8875"/>
<polygon fill="#191970" stroke="#191970" points="175.0476,-188.686 164.5147,-187.5419 172.0352,-195.0047 175.0476,-188.686"/>
</g>
<!-- Node22 -->
<g id="node23" class="node">
<title>Node22</title>
<polygon fill="#ffffff" stroke="#bfbfbf" points="200,-168.5 200,-187.5 249,-187.5 249,-168.5 200,-168.5"/>
<text text-anchor="middle" x="224.5" y="-175.5" font-family="Helvetica,sans-Serif" font-size="10.00" fill="#000000">netdb.h</text>
</g>
<!-- Node20&#45;&gt;Node22 -->
<g id="edge30" class="edge">
<title>Node20&#45;&gt;Node22</title>
<path fill="none" stroke="#191970" d="M265.8438,-229.8906C258.5511,-220.7376 247.3993,-206.7409 238.5148,-195.59"/>
<polygon fill="#191970" stroke="#191970" points="241.233,-193.3849 232.2642,-187.7449 235.7583,-197.747 241.233,-193.3849"/>
</g>
<!-- Node23 -->
<g id="node24" class="node">
<title>Node23</title>
<polygon fill="#ffffff" stroke="#bfbfbf" points="267,-168.5 267,-187.5 332,-187.5 332,-168.5 267,-168.5"/>
<text text-anchor="middle" x="299.5" y="-175.5" font-family="Helvetica,sans-Serif" font-size="10.00" fill="#000000">netinet/in.h</text>
</g>
<!-- Node20&#45;&gt;Node23 -->
<g id="edge31" class="edge">
<title>Node20&#45;&gt;Node23</title>
<path fill="none" stroke="#191970" d="M277.5625,-229.8906C281.2424,-221.1862 286.7742,-208.1015 291.362,-197.2494"/>
<polygon fill="#191970" stroke="#191970" points="294.71,-198.3185 295.3802,-187.7449 288.2625,-195.5927 294.71,-198.3185"/>
</g>
<!-- Node24 -->
<g id="node25" class="node">
<title>Node24</title>
<polygon fill="#ffffff" stroke="#bfbfbf" points="350,-168.5 350,-187.5 423,-187.5 423,-168.5 350,-168.5"/>
<text text-anchor="middle" x="386.5" y="-175.5" font-family="Helvetica,sans-Serif" font-size="10.00" fill="#000000">sys/socket.h</text>
</g>
<!-- Node20&#45;&gt;Node24 -->
<g id="edge33" class="edge">
<title>Node20&#45;&gt;Node24</title>
<path fill="none" stroke="#191970" d="M291.1563,-229.8906C309.6486,-219.8262 338.901,-203.9057 360.1308,-192.3514"/>
<polygon fill="#191970" stroke="#191970" points="361.8575,-195.3965 368.9677,-187.5419 358.5112,-189.2481 361.8575,-195.3965"/>
</g>
<!-- Node25 -->
<g id="node26" class="node">
<title>Node25</title>
<polygon fill="#ffffff" stroke="#bfbfbf" points="441.5,-168.5 441.5,-187.5 509.5,-187.5 509.5,-168.5 441.5,-168.5"/>
<text text-anchor="middle" x="475.5" y="-175.5" font-family="Helvetica,sans-Serif" font-size="10.00" fill="#000000">sys/types.h</text>
</g>
<!-- Node20&#45;&gt;Node25 -->
<g id="edge34" class="edge">
<title>Node20&#45;&gt;Node25</title>
<path fill="none" stroke="#191970" d="M305.0625,-229.8906C339.8985,-219.2846 396.095,-202.1753 434.3588,-190.5257"/>
<polygon fill="#191970" stroke="#191970" points="435.6121,-193.8028 444.1591,-187.5419 433.5733,-187.1063 435.6121,-193.8028"/>
</g>
<!-- Node26 -->
<g id="node27" class="node">
<title>Node26</title>
<polygon fill="#ffffff" stroke="#bfbfbf" points="0,-168.5 0,-187.5 51,-187.5 51,-168.5 0,-168.5"/>
<text text-anchor="middle" x="25.5" y="-175.5" font-family="Helvetica,sans-Serif" font-size="10.00" fill="#000000">unistd.h</text>
</g>
<!-- Node20&#45;&gt;Node26 -->
<g id="edge35" class="edge">
<title>Node20&#45;&gt;Node26</title>
<path fill="none" stroke="#191970" d="M234.7749,-229.9396C192.9984,-219.6194 124.5251,-202.6853 65.5,-188 64.0673,-187.6435 62.6058,-187.2796 61.1295,-186.9117"/>
<polygon fill="#191970" stroke="#191970" points="61.8685,-183.4889 51.3186,-184.4638 60.1738,-190.2807 61.8685,-183.4889"/>
</g>
<!-- Node27&#45;&gt;Node1 -->
<g id="edge40" class="edge">
<title>Node27&#45;&gt;Node1</title>
<path fill="none" stroke="#191970" d="M706.2984,-427.1735C649.4107,-415.6166 565.1199,-387.727 536.5,-322 516.4538,-275.963 558.315,-222.1325 583.7958,-195.1956"/>
<polygon fill="#191970" stroke="#191970" points="586.6003,-197.3338 591.091,-187.7377 581.5963,-192.4389 586.6003,-197.3338"/>
</g>
<!-- Node28 -->
<g id="node29" class="node">
<title>Node28</title>
<g id="a_node29"><a xlink:href="clock_8h.html" target="_top" xlink:title="Timestamp and duration representations. ">
<polygon fill="#ffffff" stroke="#000000" points="545.5,-297 545.5,-316 657.5,-316 657.5,-297 545.5,-297"/>
<text text-anchor="middle" x="601.5" y="-304" font-family="Helvetica,sans-Serif" font-size="10.00" fill="#000000">jaegertracingc/clock.h</text>
</a>
</g>
</g>
<!-- Node27&#45;&gt;Node28 -->
<g id="edge38" class="edge">
<title>Node27&#45;&gt;Node28</title>
<path fill="none" stroke="#191970" d="M706.3879,-426.6487C680.7498,-420.2161 651.5622,-408.889 631.5,-389 614.3899,-372.0377 606.9715,-344.5645 603.7998,-326.0301"/>
<polygon fill="#191970" stroke="#191970" points="607.2527,-325.452 602.3533,-316.0581 600.3252,-326.4569 607.2527,-325.452"/>
</g>
<!-- Node29 -->
<g id="node30" class="node">
<title>Node29</title>
<g id="a_node30"><a xlink:href="key__value_8h.html" target="_top" xlink:title="Key value pair representation. ">
<polygon fill="#ffffff" stroke="#000000" points="1051.5,-291.5 1051.5,-321.5 1147.5,-321.5 1147.5,-291.5 1051.5,-291.5"/>
<text text-anchor="start" x="1059.5" y="-309.5" font-family="Helvetica,sans-Serif" font-size="10.00" fill="#000000">jaegertracingc/key</text>
<text text-anchor="middle" x="1099.5" y="-298.5" font-family="Helvetica,sans-Serif" font-size="10.00" fill="#000000">_value.h</text>
</a>
</g>
</g>
<!-- Node27&#45;&gt;Node29 -->
<g id="edge41" class="edge">
<title>Node27&#45;&gt;Node29</title>
<path fill="none" stroke="#191970" d="M786.6288,-425.4466C842.4144,-404.2382 977.4249,-352.9102 1050.5244,-325.1194"/>
<polygon fill="#191970" stroke="#191970" points="1051.8798,-328.3486 1059.9832,-321.5234 1049.3922,-321.8055 1051.8798,-328.3486"/>
</g>
<!-- Node27&#45;&gt;Node30 -->
<g id="edge66" class="edge">
<title>Node27&#45;&gt;Node30</title>
<path fill="none" stroke="#191970" d="M760.2107,-425.3051C756.1559,-394.8163 743.6078,-300.4646 738.1173,-259.1804"/>
<polygon fill="#191970" stroke="#191970" points="741.585,-258.7047 736.7971,-249.2534 734.6461,-259.6276 741.585,-258.7047"/>
</g>
<!-- Node31 -->
<g id="node32" class="node">
<title>Node31</title>
<g id="a_node32"><a xlink:href="log__record_8h.html" target="_top" xlink:title="Log record representation for use in span. ">
<polygon fill="#ffffff" stroke="#000000" points="640,-358.5 640,-388.5 733,-388.5 733,-358.5 640,-358.5"/>
<text text-anchor="start" x="648" y="-376.5" font-family="Helvetica,sans-Serif" font-size="10.00" fill="#000000">jaegertracingc/log</text>
<text text-anchor="middle" x="686.5" y="-365.5" font-family="Helvetica,sans-Serif" font-size="10.00" fill="#000000">_record.h</text>
</a>
</g>
</g>
<!-- Node27&#45;&gt;Node31 -->
<g id="edge47" class="edge">
<title>Node27&#45;&gt;Node31</title>
<path fill="none" stroke="#191970" d="M749.7813,-425.3906C739.9129,-417.2986 725.4277,-405.4207 712.8054,-395.0705"/>
<polygon fill="#191970" stroke="#191970" points="714.7991,-392.179 704.8471,-388.5446 710.3605,-397.5919 714.7991,-392.179"/>
</g>
<!-- Node32 -->
<g id="node33" class="node">
<title>Node32</title>
<g id="a_node33"><a xlink:href="tag_8h.html" target="_top" xlink:title="Tag representation and functions. ">
<polygon fill="#ffffff" stroke="#000000" points="789.5,-297 789.5,-316 891.5,-316 891.5,-297 789.5,-297"/>
<text text-anchor="middle" x="840.5" y="-304" font-family="Helvetica,sans-Serif" font-size="10.00" fill="#000000">jaegertracingc/tag.h</text>
</a>
</g>
</g>
<!-- Node27&#45;&gt;Node32 -->
<g id="edge57" class="edge">
<title>Node27&#45;&gt;Node32</title>
<path fill="none" stroke="#191970" d="M767.4378,-425.3416C780.5342,-404.0393 812.0844,-352.7203 829.125,-325.0025"/>
<polygon fill="#191970" stroke="#191970" points="832.2375,-326.6224 834.4933,-316.2705 826.2743,-322.9563 832.2375,-326.6224"/>
</g>
<!-- Node27&#45;&gt;Node35 -->
<g id="edge58" class="edge">
<title>Node27&#45;&gt;Node35</title>
<path fill="none" stroke="#191970" d="M816.7808,-427.2733C895.2648,-416.3033 1039.1906,-396.1864 1127.0168,-383.9107"/>
<polygon fill="#191970" stroke="#191970" points="1127.7583,-387.3412 1137.1775,-382.4905 1126.7893,-380.4086 1127.7583,-387.3412"/>
</g>
<!-- Node39 -->
<g id="node40" class="node">
<title>Node39</title>
<g id="a_node40"><a xlink:href="trace__id_8h.html" target="_top" xlink:title="Trace ID representation. ">
<polygon fill="#ffffff" stroke="#000000" points="910,-297 910,-316 1033,-316 1033,-297 910,-297"/>
<text text-anchor="middle" x="971.5" y="-304" font-family="Helvetica,sans-Serif" font-size="10.00" fill="#000000">jaegertracingc/trace_id.h</text>
</a>
</g>
</g>
<!-- Node27&#45;&gt;Node39 -->
<g id="edge63" class="edge">
<title>Node27&#45;&gt;Node39</title>
<path fill="none" stroke="#191970" d="M777.2841,-425.3416C813.7065,-403.0546 903.8234,-347.9116 947.2884,-321.3152"/>
<polygon fill="#191970" stroke="#191970" points="949.1162,-324.3001 955.8192,-316.0952 945.4625,-318.3292 949.1162,-324.3001"/>
</g>
<!-- Node28&#45;&gt;Node1 -->
<g id="edge39" class="edge">
<title>Node28&#45;&gt;Node1</title>
<path fill="none" stroke="#191970" d="M601.5,-296.8416C601.5,-275.9114 601.5,-226.004 601.5,-197.9762"/>
<polygon fill="#191970" stroke="#191970" points="605.0001,-197.7704 601.5,-187.7705 598.0001,-197.7705 605.0001,-197.7704"/>
</g>
<!-- Node29&#45;&gt;Node1 -->
<g id="edge43" class="edge">
<title>Node29&#45;&gt;Node1</title>
<path fill="none" stroke="#191970" d="M1090.0718,-291.2276C1077.2095,-271.892 1052.2128,-239.2648 1021.5,-224 962.3799,-194.6163 778.745,-183.8116 674.93,-179.9861"/>
<polygon fill="#191970" stroke="#191970" points="674.9502,-176.4847 664.832,-179.6267 674.7012,-183.4803 674.9502,-176.4847"/>
</g>
<!-- Node29&#45;&gt;Node17 -->
<g id="edge42" class="edge">
<title>Node29&#45;&gt;Node17</title>
<path fill="none" stroke="#191970" d="M1094.8355,-291.4016C1084.5264,-258.0329 1059.8182,-178.0561 1048.431,-141.1979"/>
<polygon fill="#191970" stroke="#191970" points="1051.7709,-140.1508 1045.475,-131.6295 1045.0828,-142.2171 1051.7709,-140.1508"/>
</g>
<!-- Node29&#45;&gt;Node18 -->
<g id="edge44" class="edge">
<title>Node29&#45;&gt;Node18</title>
<path fill="none" stroke="#191970" d="M1105.0673,-291.4556C1120.5663,-249.5736 1164.2002,-131.6641 1181.4015,-85.1818"/>
<polygon fill="#191970" stroke="#191970" points="1184.7261,-86.2826 1184.9143,-75.6895 1178.1612,-83.8532 1184.7261,-86.2826"/>
</g>
<!-- Node29&#45;&gt;Node30 -->
<g id="edge45" class="edge">
<title>Node29&#45;&gt;Node30</title>
<path fill="none" stroke="#191970" d="M1051.381,-293.0542C1048.3833,-292.3286 1045.405,-291.637 1042.5,-291 960.9913,-273.1273 866.1247,-258.0795 803.6649,-248.9506"/>
<polygon fill="#191970" stroke="#191970" points="803.9417,-245.4542 793.5427,-247.4816 802.9363,-252.3817 803.9417,-245.4542"/>
</g>
<!-- Node30&#45;&gt;Node1 -->
<g id="edge46" class="edge">
<title>Node30&#45;&gt;Node1</title>
<path fill="none" stroke="#191970" d="M714.5625,-229.8906C692.2402,-219.6457 656.6963,-203.3326 631.4243,-191.7339"/>
<polygon fill="#191970" stroke="#191970" points="632.8389,-188.5322 622.2905,-187.5419 629.919,-194.8942 632.8389,-188.5322"/>
</g>
<!-- Node31&#45;&gt;Node1 -->
<g id="edge49" class="edge">
<title>Node31&#45;&gt;Node1</title>
<path fill="none" stroke="#191970" d="M684.1336,-358.1984C681.2196,-341.3276 675.518,-313.5834 666.5,-291 652.3896,-255.6637 628.7789,-218.0045 614.2317,-196.3134"/>
<polygon fill="#191970" stroke="#191970" points="616.9505,-194.0877 608.4291,-187.7921 611.1646,-198.0277 616.9505,-194.0877"/>
</g>
<!-- Node31&#45;&gt;Node28 -->
<g id="edge48" class="edge">
<title>Node31&#45;&gt;Node28</title>
<path fill="none" stroke="#191970" d="M667.2122,-358.2967C653.5831,-347.5537 635.3598,-333.1895 621.5612,-322.3129"/>
<polygon fill="#191970" stroke="#191970" points="623.6422,-319.4967 613.622,-316.055 619.3089,-324.9942 623.6422,-319.4967"/>
</g>
<!-- Node31&#45;&gt;Node30 -->
<g id="edge56" class="edge">
<title>Node31&#45;&gt;Node30</title>
<path fill="none" stroke="#191970" d="M692.0257,-358.389C700.9965,-333.8564 718.7124,-285.4088 728.5333,-258.5517"/>
<polygon fill="#191970" stroke="#191970" points="731.8408,-259.698 731.988,-249.1042 725.2665,-257.2939 731.8408,-259.698"/>
</g>
<!-- Node31&#45;&gt;Node32 -->
<g id="edge50" class="edge">
<title>Node31&#45;&gt;Node32</title>
<path fill="none" stroke="#191970" d="M721.0606,-358.4639C747.4818,-346.969 783.5979,-331.2561 809.1791,-320.1266"/>
<polygon fill="#191970" stroke="#191970" points="810.6519,-323.3028 818.4253,-316.1039 807.8592,-316.884 810.6519,-323.3028"/>
</g>
<!-- Node32&#45;&gt;Node1 -->
<g id="edge52" class="edge">
<title>Node32&#45;&gt;Node1</title>
<path fill="none" stroke="#191970" d="M838.9166,-296.9172C835.5259,-279.5661 825.8807,-242.9872 802.5,-224 782.8716,-208.06 723.6992,-195.7047 674.6026,-187.8317"/>
<polygon fill="#191970" stroke="#191970" points="675.036,-184.357 664.615,-186.2686 673.9536,-191.2728 675.036,-184.357"/>
</g>
<!-- Node32&#45;&gt;Node17 -->
<g id="edge51" class="edge">
<title>Node32&#45;&gt;Node17</title>
<path fill="none" stroke="#191970" d="M840.2191,-296.8791C840.037,-271.8996 843.1232,-204.3977 879.5,-168 893.6319,-153.86 938.7383,-141.7632 977.9275,-133.5284"/>
<polygon fill="#191970" stroke="#191970" points="978.6462,-136.954 987.7409,-131.5191 977.242,-130.0962 978.6462,-136.954"/>
</g>
<!-- Node32&#45;&gt;Node30 -->
<g id="edge55" class="edge">
<title>Node32&#45;&gt;Node30</title>
<path fill="none" stroke="#191970" d="M825.4561,-296.9005C808.1466,-285.8554 779.5023,-267.5776 759.1911,-254.6172"/>
<polygon fill="#191970" stroke="#191970" points="760.8288,-251.5103 750.516,-249.0817 757.0633,-257.4113 760.8288,-251.5103"/>
</g>
<!-- Node33 -->
<g id="node34" class="node">
<title>Node33</title>
<g id="a_node34"><a xlink:href="jaeger_8pb-c_8h_source.html" target="_top" xlink:title="jaegertracingc/protoc\l&#45;gen/jaeger.pb&#45;c.h">
<polygon fill="#ffffff" stroke="#000000" points="888,-224.5 888,-254.5 995,-254.5 995,-224.5 888,-224.5"/>
<text text-anchor="start" x="896" y="-242.5" font-family="Helvetica,sans-Serif" font-size="10.00" fill="#000000">jaegertracingc/protoc</text>
<text text-anchor="middle" x="941.5" y="-231.5" font-family="Helvetica,sans-Serif" font-size="10.00" fill="#000000">&#45;gen/jaeger.pb&#45;c.h</text>
</a>
</g>
</g>
<!-- Node32&#45;&gt;Node33 -->
<g id="edge53" class="edge">
<title>Node32&#45;&gt;Node33</title>
<path fill="none" stroke="#191970" d="M854.9708,-296.9005C869.3799,-287.3421 891.9544,-272.3669 910.4328,-260.1089"/>
<polygon fill="#191970" stroke="#191970" points="912.4569,-262.9664 918.8553,-254.5218 908.5873,-257.1331 912.4569,-262.9664"/>
</g>
<!-- Node34 -->
<g id="node35" class="node">
<title>Node34</title>
<polygon fill="#ffffff" stroke="#bfbfbf" points="888,-168.5 888,-187.5 1003,-187.5 1003,-168.5 888,-168.5"/>
<text text-anchor="middle" x="945.5" y="-175.5" font-family="Helvetica,sans-Serif" font-size="10.00" fill="#000000">protobuf&#45;c/protobuf&#45;c.h</text>
</g>
<!-- Node33&#45;&gt;Node34 -->
<g id="edge54" class="edge">
<title>Node33&#45;&gt;Node34</title>
<path fill="none" stroke="#191970" d="M942.4888,-224.2977C943.0035,-216.3834 943.6396,-206.6043 944.1943,-198.0759"/>
<polygon fill="#191970" stroke="#191970" points="947.703,-198.053 944.8595,-187.8469 940.7178,-197.5986 947.703,-198.053"/>
</g>
<!-- Node35&#45;&gt;Node1 -->
<g id="edge59" class="edge">
<title>Node35&#45;&gt;Node1</title>
<path fill="none" stroke="#191970" d="M1198.0608,-363.9044C1191.8099,-347.4766 1177.2832,-313.5577 1156.5,-291 1119.7485,-251.1107 1105.6121,-242.1488 1054.5,-224 986.4153,-199.8246 784.5991,-186.7204 674.7428,-181.2027"/>
<polygon fill="#191970" stroke="#191970" points="674.8904,-177.7059 664.7298,-180.708 674.5449,-184.6973 674.8904,-177.7059"/>
</g>
<!-- Node36 -->
<g id="node37" class="node">
<title>Node36</title>
<polygon fill="#ffffff" stroke="#bfbfbf" points="1204,-297 1204,-316 1251,-316 1251,-297 1204,-297"/>
<text text-anchor="middle" x="1227.5" y="-304" font-family="Helvetica,sans-Serif" font-size="10.00" fill="#000000">errno.h</text>
</g>
<!-- Node35&#45;&gt;Node36 -->
<g id="edge60" class="edge">
<title>Node35&#45;&gt;Node36</title>
<path fill="none" stroke="#191970" d="M1205.2252,-363.9005C1209.0866,-353.95 1215.226,-338.1292 1220.0823,-325.6147"/>
<polygon fill="#191970" stroke="#191970" points="1223.4269,-326.6706 1223.7817,-316.0817 1216.901,-324.1381 1223.4269,-326.6706"/>
</g>
<!-- Node37 -->
<g id="node38" class="node">
<title>Node37</title>
<polygon fill="#ffffff" stroke="#bfbfbf" points="1269,-297 1269,-316 1326,-316 1326,-297 1269,-297"/>
<text text-anchor="middle" x="1297.5" y="-304" font-family="Helvetica,sans-Serif" font-size="10.00" fill="#000000">pthread.h</text>
</g>
<!-- Node35&#45;&gt;Node37 -->
<g id="edge61" class="edge">
<title>Node35&#45;&gt;Node37</title>
<path fill="none" stroke="#191970" d="M1215.2545,-363.9005C1230.9377,-352.9549 1256.7983,-334.9064 1275.3358,-321.9688"/>
<polygon fill="#191970" stroke="#191970" points="1277.5738,-324.675 1283.7711,-316.0817 1273.5676,-318.9347 1277.5738,-324.675"/>
</g>
<!-- Node38 -->
<g id="node39" class="node">
<title>Node38</title>
<polygon fill="#ffffff" stroke="#bfbfbf" points="1344,-297 1344,-316 1395,-316 1395,-297 1344,-297"/>
<text text-anchor="middle" x="1369.5" y="-304" font-family="Helvetica,sans-Serif" font-size="10.00" fill="#000000">sched.h</text>
</g>
<!-- Node35&#45;&gt;Node38 -->
<g id="edge62" class="edge">
<title>Node35&#45;&gt;Node38</title>
<path fill="none" stroke="#191970" d="M1227.6255,-363.9951C1254.769,-353.995 1298.3852,-337.5752 1335.5,-322 1336.8833,-321.4195 1338.2941,-320.8174 1339.7162,-320.2023"/>
<polygon fill="#191970" stroke="#191970" points="1341.3683,-323.2985 1349.0924,-316.0467 1338.5319,-316.8989 1341.3683,-323.2985"/>
</g>
<!-- Node39&#45;&gt;Node1 -->
<g id="edge64" class="edge">
<title>Node39&#45;&gt;Node1</title>
<path fill="none" stroke="#191970" d="M981.087,-296.9752C996.674,-280.3541 1023.912,-245.7538 1004.5,-224 982.9887,-199.8937 785.212,-186.7099 674.9465,-181.177"/>
<polygon fill="#191970" stroke="#191970" points="675.0435,-177.6776 664.8834,-180.6811 674.6989,-184.6691 675.0435,-177.6776"/>
</g>
<!-- Node39&#45;&gt;Node33 -->
<g id="edge65" class="edge">
<title>Node39&#45;&gt;Node33</title>
<path fill="none" stroke="#191970" d="M967.2017,-296.9005C963.3285,-288.2503 957.4689,-275.164 952.3223,-263.6699"/>
<polygon fill="#191970" stroke="#191970" points="955.5073,-262.2183 948.2262,-254.5218 949.1185,-265.079 955.5073,-262.2183"/>
</g>
</g>
</svg>
