<?xml version="1.0" encoding="UTF-8" standalone="no"?>
<!DOCTYPE svg PUBLIC "-//W3C//DTD SVG 1.1//EN"
 "http://www.w3.org/Graphics/SVG/1.1/DTD/svg11.dtd">
<!-- Generated by graphviz version 2.40.1 (20161225.0304)
 -->
<!-- Title: jaegertracingc/reporter.h Pages: 1 -->
<svg width="1640pt" height="509pt"
 viewBox="0.00 0.00 1640.00 509.00" xmlns="http://www.w3.org/2000/svg" xmlns:xlink="http://www.w3.org/1999/xlink">
<g id="graph0" class="graph" transform="scale(1 1) rotate(0) translate(4 505)">
<title>jaegertracingc/reporter.h</title>
<polygon fill="#ffffff" stroke="transparent" points="-4,4 -4,-505 1636,-505 1636,4 -4,4"/>
<!-- Node0 -->
<g id="node1" class="node">
<title>Node0</title>
<polygon fill="#bfbfbf" stroke="#000000" points="1247,-481.5 1247,-500.5 1369,-500.5 1369,-481.5 1247,-481.5"/>
<text text-anchor="middle" x="1308" y="-488.5" font-family="Helvetica,sans-Serif" font-size="10.00" fill="#000000">jaegertracingc/reporter.h</text>
</g>
<!-- Node1 -->
<g id="node2" class="node">
<title>Node1</title>
<g id="a_node2"><a xlink:href="common_8h.html" target="_top" xlink:title="Common headers, struct definitions, and macros. ">
<polygon fill="#ffffff" stroke="#000000" points="888,-168.5 888,-187.5 1014,-187.5 1014,-168.5 888,-168.5"/>
<text text-anchor="middle" x="951" y="-175.5" font-family="Helvetica,sans-Serif" font-size="10.00" fill="#000000">jaegertracingc/common.h</text>
</a>
</g>
</g>
<!-- Node0&#45;&gt;Node1 -->
<g id="edge1" class="edge">
<title>Node0&#45;&gt;Node1</title>
<path fill="none" stroke="#191970" d="M1308,-481.2511C1308,-461.1182 1308,-413.4826 1308,-373.5 1308,-373.5 1308,-373.5 1308,-306.5 1308,-258.1244 1279.2237,-247.6085 1237,-224 1201.4698,-204.134 1096.5081,-190.9984 1024.1353,-184.0252"/>
<polygon fill="#191970" stroke="#191970" points="1024.4349,-180.538 1014.15,-183.082 1023.7766,-187.507 1024.4349,-180.538"/>
</g>
<!-- Node18 -->
<g id="node19" class="node">
<title>Node18</title>
<g id="a_node19"><a xlink:href="logging_8h.html" target="_top" xlink:title="Logging interface and initialization functions. ">
<polygon fill="#ffffff" stroke="#000000" points="1309.5,-56.5 1309.5,-75.5 1428.5,-75.5 1428.5,-56.5 1309.5,-56.5"/>
<text text-anchor="middle" x="1369" y="-63.5" font-family="Helvetica,sans-Serif" font-size="10.00" fill="#000000">jaegertracingc/logging.h</text>
</a>
</g>
</g>
<!-- Node0&#45;&gt;Node18 -->
<g id="edge25" class="edge">
<title>Node0&#45;&gt;Node18</title>
<path fill="none" stroke="#191970" d="M1369.0203,-486.566C1439.5147,-480.4703 1550.2701,-467.6014 1585,-445 1616.8735,-424.2575 1632,-411.5286 1632,-373.5 1632,-373.5 1632,-373.5 1632,-178 1632,-133.2952 1501.7439,-96.0425 1424.5683,-77.894"/>
<polygon fill="#191970" stroke="#191970" points="1425.0426,-74.4113 1414.5109,-75.5661 1423.464,-81.231 1425.0426,-74.4113"/>
</g>
<!-- Node19 -->
<g id="node20" class="node">
<title>Node19</title>
<g id="a_node20"><a xlink:href="metrics_8h.html" target="_top" xlink:title="Metrics interfaces to track various numbers while tracing. ">
<polygon fill="#ffffff" stroke="#000000" points="1455.5,-425.5 1455.5,-444.5 1576.5,-444.5 1576.5,-425.5 1455.5,-425.5"/>
<text text-anchor="middle" x="1516" y="-432.5" font-family="Helvetica,sans-Serif" font-size="10.00" fill="#000000">jaegertracingc/metrics.h</text>
</a>
</g>
</g>
<!-- Node0&#45;&gt;Node19 -->
<g id="edge26" class="edge">
<title>Node0&#45;&gt;Node19</title>
<path fill="none" stroke="#191970" d="M1343.7565,-481.3733C1378.9426,-471.9001 1432.7881,-457.4032 1470.8956,-447.1435"/>
<polygon fill="#191970" stroke="#191970" points="1471.9639,-450.4806 1480.7101,-444.5011 1470.144,-443.7213 1471.9639,-450.4806"/>
</g>
<!-- Node20 -->
<g id="node21" class="node">
<title>Node20</title>
<g id="a_node21"><a xlink:href="net_8h.html" target="_top" xlink:title="Network utilities. ">
<polygon fill="#ffffff" stroke="#000000" points="266,-230 266,-249 368,-249 368,-230 266,-230"/>
<text text-anchor="middle" x="317" y="-237" font-family="Helvetica,sans-Serif" font-size="10.00" fill="#000000">jaegertracingc/net.h</text>
</a>
</g>
</g>
<!-- Node0&#45;&gt;Node20 -->
<g id="edge28" class="edge">
<title>Node0&#45;&gt;Node20</title>
<path fill="none" stroke="#191970" d="M1246.9942,-485.6338C1095.6205,-471.8043 706.2123,-432.9394 584,-389 486.483,-353.9394 382.5586,-285.5113 338.6078,-254.9206"/>
<polygon fill="#191970" stroke="#191970" points="340.5957,-252.0398 330.3997,-249.1602 336.5745,-257.7696 340.5957,-252.0398"/>
</g>
<!-- Node27 -->
<g id="node28" class="node">
<title>Node27</title>
<g id="a_node28"><a xlink:href="span_8h.html" target="_top" xlink:title="Span, span context, and span ref representations and functions. ">
<polygon fill="#ffffff" stroke="#000000" points="901,-425.5 901,-444.5 1011,-444.5 1011,-425.5 901,-425.5"/>
<text text-anchor="middle" x="956" y="-432.5" font-family="Helvetica,sans-Serif" font-size="10.00" fill="#000000">jaegertracingc/span.h</text>
</a>
</g>
</g>
<!-- Node0&#45;&gt;Node27 -->
<g id="edge37" class="edge">
<title>Node0&#45;&gt;Node27</title>
<path fill="none" stroke="#191970" d="M1247.889,-481.4369C1184.8902,-471.4144 1086.23,-455.7184 1021.3392,-445.3949"/>
<polygon fill="#191970" stroke="#191970" points="1021.651,-441.9005 1011.2253,-443.7858 1020.5511,-448.8136 1021.651,-441.9005"/>
</g>
<!-- Node31 -->
<g id="node32" class="node">
<title>Node31</title>
<g id="a_node32"><a xlink:href="vector_8h.html" target="_top" xlink:title="C generic vector implementation. ">
<polygon fill="#ffffff" stroke="#000000" points="892,-230 892,-249 1008,-249 1008,-230 892,-230"/>
<text text-anchor="middle" x="950" y="-237" font-family="Helvetica,sans-Serif" font-size="10.00" fill="#000000">jaegertracingc/vector.h</text>
</a>
</g>
</g>
<!-- Node0&#45;&gt;Node31 -->
<g id="edge73" class="edge">
<title>Node0&#45;&gt;Node31</title>
<path fill="none" stroke="#191970" d="M1290.2263,-481.3424C1258.8669,-464.0707 1192.0186,-426.2053 1139,-389 1082.3525,-349.2482 1072.4799,-333.6741 1018,-291 1002.4114,-278.7895 984.5561,-265.2848 971.0546,-255.1689"/>
<polygon fill="#191970" stroke="#191970" points="972.9839,-252.2413 962.8785,-249.0584 968.7934,-257.8484 972.9839,-252.2413"/>
</g>
<!-- Node37 -->
<g id="node38" class="node">
<title>Node37</title>
<g id="a_node38"><a xlink:href="threading_8h.html" target="_top" xlink:title="Threading utilities. ">
<polygon fill="#ffffff" stroke="#000000" points="1336,-364 1336,-383 1464,-383 1464,-364 1336,-364"/>
<text text-anchor="middle" x="1400" y="-371" font-family="Helvetica,sans-Serif" font-size="10.00" fill="#000000">jaegertracingc/threading.h</text>
</a>
</g>
</g>
<!-- Node0&#45;&gt;Node37 -->
<g id="edge72" class="edge">
<title>Node0&#45;&gt;Node37</title>
<path fill="none" stroke="#191970" d="M1315.5287,-481.3845C1330.9609,-461.6749 1366.3845,-416.4328 1386.1052,-391.2461"/>
<polygon fill="#191970" stroke="#191970" points="1388.9581,-393.2798 1392.3672,-383.2484 1383.4465,-388.9643 1388.9581,-393.2798"/>
</g>
<!-- Node2 -->
<g id="node3" class="node">
<title>Node2</title>
<g id="a_node3"><a xlink:href="config_8h_source.html" target="_top" xlink:title="jaegertracingc/config.h">
<polygon fill="#ffffff" stroke="#000000" points="1225.5,-112.5 1225.5,-131.5 1340.5,-131.5 1340.5,-112.5 1225.5,-112.5"/>
<text text-anchor="middle" x="1283" y="-119.5" font-family="Helvetica,sans-Serif" font-size="10.00" fill="#000000">jaegertracingc/config.h</text>
</a>
</g>
</g>
<!-- Node1&#45;&gt;Node2 -->
<g id="edge2" class="edge">
<title>Node1&#45;&gt;Node2</title>
<path fill="none" stroke="#191970" d="M1007.6956,-168.4369C1065.5891,-158.6717 1155.4128,-143.5207 1216.5966,-133.2006"/>
<polygon fill="#191970" stroke="#191970" points="1217.2597,-136.6383 1226.5382,-131.5237 1216.0954,-129.7358 1217.2597,-136.6383"/>
</g>
<!-- Node4 -->
<g id="node5" class="node">
<title>Node4</title>
<polygon fill="#ffffff" stroke="#bfbfbf" points="562,-56.5 562,-75.5 614,-75.5 614,-56.5 562,-56.5"/>
<text text-anchor="middle" x="588" y="-63.5" font-family="Helvetica,sans-Serif" font-size="10.00" fill="#000000">assert.h</text>
</g>
<!-- Node1&#45;&gt;Node4 -->
<g id="edge4" class="edge">
<title>Node1&#45;&gt;Node4</title>
<path fill="none" stroke="#191970" d="M887.9699,-169.6029C796.288,-157.2956 636.3891,-135.4395 631,-132 613.7659,-121.0005 601.9961,-100.3396 595.1859,-85.0527"/>
<polygon fill="#191970" stroke="#191970" points="598.3015,-83.4268 591.2573,-75.5129 591.8289,-86.0923 598.3015,-83.4268"/>
</g>
<!-- Node5 -->
<g id="node6" class="node">
<title>Node5</title>
<polygon fill="#ffffff" stroke="#bfbfbf" points="640.5,-112.5 640.5,-131.5 689.5,-131.5 689.5,-112.5 640.5,-112.5"/>
<text text-anchor="middle" x="665" y="-119.5" font-family="Helvetica,sans-Serif" font-size="10.00" fill="#000000">ctype.h</text>
</g>
<!-- Node1&#45;&gt;Node5 -->
<g id="edge5" class="edge">
<title>Node1&#45;&gt;Node5</title>
<path fill="none" stroke="#191970" d="M887.9383,-168.5898C838.8088,-160.7892 768.753,-148.642 699.541,-132.1917"/>
<polygon fill="#191970" stroke="#191970" points="700.3243,-128.7803 689.7828,-129.842 698.6855,-135.5858 700.3243,-128.7803"/>
</g>
<!-- Node6 -->
<g id="node7" class="node">
<title>Node6</title>
<polygon fill="#ffffff" stroke="#bfbfbf" points="707.5,-112.5 707.5,-131.5 766.5,-131.5 766.5,-112.5 707.5,-112.5"/>
<text text-anchor="middle" x="737" y="-119.5" font-family="Helvetica,sans-Serif" font-size="10.00" fill="#000000">inttypes.h</text>
</g>
<!-- Node1&#45;&gt;Node6 -->
<g id="edge6" class="edge">
<title>Node1&#45;&gt;Node6</title>
<path fill="none" stroke="#191970" d="M914.2121,-168.3733C875.8452,-158.3333 815.915,-142.6507 776.5502,-132.3496"/>
<polygon fill="#191970" stroke="#191970" points="777.3258,-128.9348 766.7655,-129.7891 775.5536,-135.7067 777.3258,-128.9348"/>
</g>
<!-- Node7 -->
<g id="node8" class="node">
<title>Node7</title>
<polygon fill="#ffffff" stroke="#bfbfbf" points="785,-112.5 785,-131.5 833,-131.5 833,-112.5 785,-112.5"/>
<text text-anchor="middle" x="809" y="-119.5" font-family="Helvetica,sans-Serif" font-size="10.00" fill="#000000">limits.h</text>
</g>
<!-- Node1&#45;&gt;Node7 -->
<g id="edge7" class="edge">
<title>Node1&#45;&gt;Node7</title>
<path fill="none" stroke="#191970" d="M926.5893,-168.3733C903.3858,-159.2226 868.2962,-145.3844 842.4858,-135.2057"/>
<polygon fill="#191970" stroke="#191970" points="843.6789,-131.9139 833.0921,-131.5011 841.1108,-138.4258 843.6789,-131.9139"/>
</g>
<!-- Node8 -->
<g id="node9" class="node">
<title>Node8</title>
<polygon fill="#ffffff" stroke="#bfbfbf" points="1387,-.5 1387,-19.5 1439,-19.5 1439,-.5 1387,-.5"/>
<text text-anchor="middle" x="1413" y="-7.5" font-family="Helvetica,sans-Serif" font-size="10.00" fill="#000000">stdarg.h</text>
</g>
<!-- Node1&#45;&gt;Node8 -->
<g id="edge8" class="edge">
<title>Node1&#45;&gt;Node8</title>
<path fill="none" stroke="#191970" d="M1014.2139,-175.5277C1115.0903,-170.8391 1307.4728,-158.6409 1370,-132 1405.7038,-116.7877 1420.5645,-111.1575 1437,-76 1444.3836,-60.2055 1436.0297,-41.4627 1427.2161,-27.9936"/>
<polygon fill="#191970" stroke="#191970" points="1429.8897,-25.7149 1421.2288,-19.6125 1424.1938,-29.784 1429.8897,-25.7149"/>
</g>
<!-- Node9 -->
<g id="node10" class="node">
<title>Node9</title>
<polygon fill="#ffffff" stroke="#bfbfbf" points="851,-112.5 851,-131.5 907,-131.5 907,-112.5 851,-112.5"/>
<text text-anchor="middle" x="879" y="-119.5" font-family="Helvetica,sans-Serif" font-size="10.00" fill="#000000">stdbool.h</text>
</g>
<!-- Node1&#45;&gt;Node9 -->
<g id="edge9" class="edge">
<title>Node1&#45;&gt;Node9</title>
<path fill="none" stroke="#191970" d="M938.4586,-168.2455C927.7213,-159.8943 912.0527,-147.7076 899.4953,-137.9408"/>
<polygon fill="#191970" stroke="#191970" points="901.4401,-135.0194 891.3977,-131.6427 897.1425,-140.5449 901.4401,-135.0194"/>
</g>
<!-- Node10 -->
<g id="node11" class="node">
<title>Node10</title>
<polygon fill="#ffffff" stroke="#bfbfbf" points="925,-112.5 925,-131.5 977,-131.5 977,-112.5 925,-112.5"/>
<text text-anchor="middle" x="951" y="-119.5" font-family="Helvetica,sans-Serif" font-size="10.00" fill="#000000">stddef.h</text>
</g>
<!-- Node1&#45;&gt;Node10 -->
<g id="edge10" class="edge">
<title>Node1&#45;&gt;Node10</title>
<path fill="none" stroke="#191970" d="M951,-168.2455C951,-160.9382 951,-150.6944 951,-141.7046"/>
<polygon fill="#191970" stroke="#191970" points="954.5001,-141.6426 951,-131.6427 947.5001,-141.6427 954.5001,-141.6426"/>
</g>
<!-- Node11 -->
<g id="node12" class="node">
<title>Node11</title>
<polygon fill="#ffffff" stroke="#bfbfbf" points="866.5,-56.5 866.5,-75.5 915.5,-75.5 915.5,-56.5 866.5,-56.5"/>
<text text-anchor="middle" x="891" y="-63.5" font-family="Helvetica,sans-Serif" font-size="10.00" fill="#000000">stdint.h</text>
</g>
<!-- Node1&#45;&gt;Node11 -->
<g id="edge11" class="edge">
<title>Node1&#45;&gt;Node11</title>
<path fill="none" stroke="#191970" d="M1014.2374,-173.8855C1073.7791,-168.5369 1156.7656,-156.7678 1177,-132 1182.6238,-125.1163 1182.7648,-118.7661 1177,-112 1160.8349,-93.0272 998.1877,-75.853 925.6284,-69.07"/>
<polygon fill="#191970" stroke="#191970" points="925.884,-65.5788 915.6048,-68.1457 925.2411,-72.5492 925.884,-65.5788"/>
</g>
<!-- Node12 -->
<g id="node13" class="node">
<title>Node12</title>
<polygon fill="#ffffff" stroke="#bfbfbf" points="876,-.5 876,-19.5 922,-19.5 922,-.5 876,-.5"/>
<text text-anchor="middle" x="899" y="-7.5" font-family="Helvetica,sans-Serif" font-size="10.00" fill="#000000">stdio.h</text>
</g>
<!-- Node1&#45;&gt;Node12 -->
<g id="edge12" class="edge">
<title>Node1&#45;&gt;Node12</title>
<path fill="none" stroke="#191970" d="M887.5163,-174.3586C757.1777,-166.576 470.3525,-147.7481 456,-132 444.3393,-119.2054 435.6773,-81.7205 461,-56 489.2756,-27.2801 768.0898,-14.6647 865.5662,-11.108"/>
<polygon fill="#191970" stroke="#191970" points="865.8722,-14.5994 875.7414,-10.7458 865.6232,-7.6038 865.8722,-14.5994"/>
</g>
<!-- Node13 -->
<g id="node14" class="node">
<title>Node13</title>
<polygon fill="#ffffff" stroke="#bfbfbf" points="205,-112.5 205,-131.5 253,-131.5 253,-112.5 205,-112.5"/>
<text text-anchor="middle" x="229" y="-119.5" font-family="Helvetica,sans-Serif" font-size="10.00" fill="#000000">stdlib.h</text>
</g>
<!-- Node1&#45;&gt;Node13 -->
<g id="edge13" class="edge">
<title>Node1&#45;&gt;Node13</title>
<path fill="none" stroke="#191970" d="M887.8755,-173.1039C740.2535,-161.654 376.43,-133.435 263.2018,-124.6528"/>
<polygon fill="#191970" stroke="#191970" points="263.2829,-121.1486 253.0422,-123.8648 262.7415,-128.1277 263.2829,-121.1486"/>
</g>
<!-- Node14 -->
<g id="node15" class="node">
<title>Node14</title>
<polygon fill="#ffffff" stroke="#bfbfbf" points="470.5,-56.5 470.5,-75.5 519.5,-75.5 519.5,-56.5 470.5,-56.5"/>
<text text-anchor="middle" x="495" y="-63.5" font-family="Helvetica,sans-Serif" font-size="10.00" fill="#000000">string.h</text>
</g>
<!-- Node1&#45;&gt;Node14 -->
<g id="edge14" class="edge">
<title>Node1&#45;&gt;Node14</title>
<path fill="none" stroke="#191970" d="M887.6939,-174.2561C759.2725,-166.3557 479.045,-147.4371 465,-132 452.2548,-117.9915 464.8562,-97.6494 477.4115,-83.2586"/>
<polygon fill="#191970" stroke="#191970" points="480.3317,-85.2602 484.6065,-75.5661 475.2194,-80.4785 480.3317,-85.2602"/>
</g>
<!-- Node15 -->
<g id="node16" class="node">
<title>Node15</title>
<polygon fill="#ffffff" stroke="#bfbfbf" points="995,-112.5 995,-131.5 1039,-131.5 1039,-112.5 995,-112.5"/>
<text text-anchor="middle" x="1017" y="-119.5" font-family="Helvetica,sans-Serif" font-size="10.00" fill="#000000">time.h</text>
</g>
<!-- Node1&#45;&gt;Node15 -->
<g id="edge15" class="edge">
<title>Node1&#45;&gt;Node15</title>
<path fill="none" stroke="#191970" d="M962.4963,-168.2455C972.2442,-159.9746 986.4259,-147.9416 997.8798,-138.2232"/>
<polygon fill="#191970" stroke="#191970" points="1000.2747,-140.7813 1005.6354,-131.6427 995.7459,-135.4437 1000.2747,-140.7813"/>
</g>
<!-- Node16 -->
<g id="node17" class="node">
<title>Node16</title>
<polygon fill="#ffffff" stroke="#bfbfbf" points="1057.5,-112.5 1057.5,-131.5 1168.5,-131.5 1168.5,-112.5 1057.5,-112.5"/>
<text text-anchor="middle" x="1113" y="-119.5" font-family="Helvetica,sans-Serif" font-size="10.00" fill="#000000">opentracing&#45;c/tracer.h</text>
</g>
<!-- Node1&#45;&gt;Node16 -->
<g id="edge16" class="edge">
<title>Node1&#45;&gt;Node16</title>
<path fill="none" stroke="#191970" d="M978.8488,-168.3733C1005.6703,-159.1016 1046.4127,-145.0178 1075.9598,-134.804"/>
<polygon fill="#191970" stroke="#191970" points="1077.2069,-138.0762 1085.5146,-131.5011 1074.9198,-131.4603 1077.2069,-138.0762"/>
</g>
<!-- Node17 -->
<g id="node18" class="node">
<title>Node17</title>
<g id="a_node18"><a xlink:href="alloc_8h.html" target="_top" xlink:title="Allocator struct and functions. ">
<polygon fill="#ffffff" stroke="#000000" points="474.5,-112.5 474.5,-131.5 583.5,-131.5 583.5,-112.5 474.5,-112.5"/>
<text text-anchor="middle" x="529" y="-119.5" font-family="Helvetica,sans-Serif" font-size="10.00" fill="#000000">jaegertracingc/alloc.h</text>
</a>
</g>
</g>
<!-- Node1&#45;&gt;Node17 -->
<g id="edge17" class="edge">
<title>Node1&#45;&gt;Node17</title>
<path fill="none" stroke="#191970" d="M887.8706,-169.7974C790.2014,-157.1034 612.1585,-133.9484 598,-132 596.5386,-131.7989 595.0599,-131.5943 593.5689,-131.3869"/>
<polygon fill="#191970" stroke="#191970" points="593.9926,-127.9121 583.603,-129.9872 593.019,-134.8441 593.9926,-127.9121"/>
</g>
<!-- Node1&#45;&gt;Node18 -->
<g id="edge24" class="edge">
<title>Node1&#45;&gt;Node18</title>
<path fill="none" stroke="#191970" d="M1014.1713,-174.4747C1119.9454,-168.0206 1323.8412,-153.0116 1349,-132 1362.3277,-120.8692 1366.9735,-101.1673 1368.4968,-86.1782"/>
<polygon fill="#191970" stroke="#191970" points="1372.0114,-86.0544 1369.1452,-75.8547 1365.0252,-85.6156 1372.0114,-86.0544"/>
</g>
<!-- Node3 -->
<g id="node4" class="node">
<title>Node3</title>
<g id="a_node4"><a xlink:href="visibility_8h_source.html" target="_top" xlink:title="jaegertracingc/visibility.h">
<polygon fill="#ffffff" stroke="#000000" points="1167,-56.5 1167,-75.5 1291,-75.5 1291,-56.5 1167,-56.5"/>
<text text-anchor="middle" x="1229" y="-63.5" font-family="Helvetica,sans-Serif" font-size="10.00" fill="#000000">jaegertracingc/visibility.h</text>
</a>
</g>
</g>
<!-- Node2&#45;&gt;Node3 -->
<g id="edge3" class="edge">
<title>Node2&#45;&gt;Node3</title>
<path fill="none" stroke="#191970" d="M1273.5939,-112.2455C1265.8507,-104.2155 1254.688,-92.6394 1245.4682,-83.0781"/>
<polygon fill="#191970" stroke="#191970" points="1247.7591,-80.4117 1238.2983,-75.6427 1242.7202,-85.2706 1247.7591,-80.4117"/>
</g>
<!-- Node17&#45;&gt;Node4 -->
<g id="edge18" class="edge">
<title>Node17&#45;&gt;Node4</title>
<path fill="none" stroke="#191970" d="M539.277,-112.2455C547.8218,-104.1352 560.1778,-92.4075 570.3085,-82.7919"/>
<polygon fill="#191970" stroke="#191970" points="572.9972,-85.0655 577.8408,-75.6427 568.1782,-79.9884 572.9972,-85.0655"/>
</g>
<!-- Node17&#45;&gt;Node11 -->
<g id="edge19" class="edge">
<title>Node17&#45;&gt;Node11</title>
<path fill="none" stroke="#191970" d="M583.587,-113.5556C659.0195,-101.8865 792.9594,-81.1665 856.1549,-71.3904"/>
<polygon fill="#191970" stroke="#191970" points="857.04,-74.7952 866.3873,-69.8075 855.9698,-67.8775 857.04,-74.7952"/>
</g>
<!-- Node17&#45;&gt;Node14 -->
<g id="edge20" class="edge">
<title>Node17&#45;&gt;Node14</title>
<path fill="none" stroke="#191970" d="M523.0777,-112.2455C518.3973,-104.5367 511.7327,-93.5598 506.0711,-84.2348"/>
<polygon fill="#191970" stroke="#191970" points="509.0361,-82.3741 500.8545,-75.6427 503.0525,-86.007 509.0361,-82.3741"/>
</g>
<!-- Node17&#45;&gt;Node18 -->
<g id="edge21" class="edge">
<title>Node17&#45;&gt;Node18</title>
<path fill="none" stroke="#191970" d="M583.7498,-116.1853C599.0318,-114.684 615.653,-113.1647 631,-112 924.5753,-89.721 1001.9599,-105.0312 1298.9944,-76.0093"/>
<polygon fill="#191970" stroke="#191970" points="1299.5929,-79.4673 1309.2012,-75.0031 1298.9061,-72.5011 1299.5929,-79.4673"/>
</g>
<!-- Node18&#45;&gt;Node8 -->
<g id="edge22" class="edge">
<title>Node18&#45;&gt;Node8</title>
<path fill="none" stroke="#191970" d="M1376.6642,-56.2455C1382.8473,-48.3761 1391.7063,-37.101 1399.1289,-27.6542"/>
<polygon fill="#191970" stroke="#191970" points="1401.9975,-29.6683 1405.4236,-19.6427 1396.4932,-25.3435 1401.9975,-29.6683"/>
</g>
<!-- Node18&#45;&gt;Node12 -->
<g id="edge23" class="edge">
<title>Node18&#45;&gt;Node12</title>
<path fill="none" stroke="#191970" d="M1309.1758,-57.2189C1306.0737,-56.7983 1303.0009,-56.3895 1300,-56 1163.7867,-38.3207 1001.0729,-20.7466 932.2972,-13.4813"/>
<polygon fill="#191970" stroke="#191970" points="932.3959,-9.9724 922.0842,-12.4054 931.6624,-16.9339 932.3959,-9.9724"/>
</g>
<!-- Node19&#45;&gt;Node1 -->
<g id="edge27" class="edge">
<title>Node19&#45;&gt;Node1</title>
<path fill="none" stroke="#191970" d="M1525.924,-425.4033C1549.977,-400.9804 1607.053,-335.2738 1574,-291 1509.154,-204.1402 1174.4748,-184.0466 1024.1988,-179.3986"/>
<polygon fill="#191970" stroke="#191970" points="1024.2365,-175.8983 1014.1377,-179.1021 1024.0302,-182.8953 1024.2365,-175.8983"/>
</g>
<!-- Node20&#45;&gt;Node1 -->
<g id="edge36" class="edge">
<title>Node20&#45;&gt;Node1</title>
<path fill="none" stroke="#191970" d="M368.0782,-234.5453C480.1218,-223.6767 747.8143,-197.7097 877.7518,-185.1053"/>
<polygon fill="#191970" stroke="#191970" points="878.3842,-188.5605 887.9995,-184.1112 877.7083,-181.5932 878.3842,-188.5605"/>
</g>
<!-- Node20&#45;&gt;Node13 -->
<g id="edge31" class="edge">
<title>Node20&#45;&gt;Node13</title>
<path fill="none" stroke="#191970" d="M265.6038,-233.1084C213.6418,-225.466 138.5645,-210.7758 121,-188 97.7922,-157.9064 155.2316,-138.3515 194.9447,-128.8305"/>
<polygon fill="#191970" stroke="#191970" points="195.8765,-132.208 204.8478,-126.5719 194.3199,-125.3832 195.8765,-132.208"/>
</g>
<!-- Node21 -->
<g id="node22" class="node">
<title>Node21</title>
<polygon fill="#ffffff" stroke="#bfbfbf" points="130.5,-168.5 130.5,-187.5 179.5,-187.5 179.5,-168.5 130.5,-168.5"/>
<text text-anchor="middle" x="155" y="-175.5" font-family="Helvetica,sans-Serif" font-size="10.00" fill="#000000">netdb.h</text>
</g>
<!-- Node20&#45;&gt;Node21 -->
<g id="edge29" class="edge">
<title>Node20&#45;&gt;Node21</title>
<path fill="none" stroke="#191970" d="M291.6875,-229.8906C264.0647,-219.4042 219.6952,-202.5602 189.0376,-190.9217"/>
<polygon fill="#191970" stroke="#191970" points="190.1955,-187.6176 179.6043,-187.3405 187.7111,-194.1619 190.1955,-187.6176"/>
</g>
<!-- Node22 -->
<g id="node23" class="node">
<title>Node22</title>
<polygon fill="#ffffff" stroke="#bfbfbf" points="197.5,-168.5 197.5,-187.5 262.5,-187.5 262.5,-168.5 197.5,-168.5"/>
<text text-anchor="middle" x="230" y="-175.5" font-family="Helvetica,sans-Serif" font-size="10.00" fill="#000000">netinet/in.h</text>
</g>
<!-- Node20&#45;&gt;Node22 -->
<g id="edge30" class="edge">
<title>Node20&#45;&gt;Node22</title>
<path fill="none" stroke="#191970" d="M303.4063,-229.8906C289.6157,-220.1421 268.0528,-204.8994 251.859,-193.4521"/>
<polygon fill="#191970" stroke="#191970" points="253.6844,-190.4563 243.4983,-187.5419 249.6437,-196.1723 253.6844,-190.4563"/>
</g>
<!-- Node23 -->
<g id="node24" class="node">
<title>Node23</title>
<polygon fill="#ffffff" stroke="#bfbfbf" points="280.5,-168.5 280.5,-187.5 353.5,-187.5 353.5,-168.5 280.5,-168.5"/>
<text text-anchor="middle" x="317" y="-175.5" font-family="Helvetica,sans-Serif" font-size="10.00" fill="#000000">sys/socket.h</text>
</g>
<!-- Node20&#45;&gt;Node23 -->
<g id="edge32" class="edge">
<title>Node20&#45;&gt;Node23</title>
<path fill="none" stroke="#191970" d="M317,-229.8906C317,-221.3657 317,-208.6392 317,-197.9235"/>
<polygon fill="#191970" stroke="#191970" points="320.5001,-197.7448 317,-187.7449 313.5001,-197.7449 320.5001,-197.7448"/>
</g>
<!-- Node24 -->
<g id="node25" class="node">
<title>Node24</title>
<polygon fill="#ffffff" stroke="#bfbfbf" points="372,-168.5 372,-187.5 440,-187.5 440,-168.5 372,-168.5"/>
<text text-anchor="middle" x="406" y="-175.5" font-family="Helvetica,sans-Serif" font-size="10.00" fill="#000000">sys/types.h</text>
</g>
<!-- Node20&#45;&gt;Node24 -->
<g id="edge33" class="edge">
<title>Node20&#45;&gt;Node24</title>
<path fill="none" stroke="#191970" d="M330.9063,-229.8906C345.0138,-220.1421 367.0724,-204.8994 383.6385,-193.4521"/>
<polygon fill="#191970" stroke="#191970" points="385.9542,-196.1063 392.1914,-187.5419 381.9747,-190.3474 385.9542,-196.1063"/>
</g>
<!-- Node25 -->
<g id="node26" class="node">
<title>Node25</title>
<polygon fill="#ffffff" stroke="#bfbfbf" points="458.5,-168.5 458.5,-187.5 509.5,-187.5 509.5,-168.5 458.5,-168.5"/>
<text text-anchor="middle" x="484" y="-175.5" font-family="Helvetica,sans-Serif" font-size="10.00" fill="#000000">unistd.h</text>
</g>
<!-- Node20&#45;&gt;Node25 -->
<g id="edge34" class="edge">
<title>Node20&#45;&gt;Node25</title>
<path fill="none" stroke="#191970" d="M343.0938,-229.8906C371.4864,-219.4347 417.0423,-202.6581 448.6358,-191.0233"/>
<polygon fill="#191970" stroke="#191970" points="450.189,-194.1812 458.3634,-187.441 447.77,-187.6125 450.189,-194.1812"/>
</g>
<!-- Node26 -->
<g id="node27" class="node">
<title>Node26</title>
<polygon fill="#ffffff" stroke="#bfbfbf" points="0,-168.5 0,-187.5 74,-187.5 74,-168.5 0,-168.5"/>
<text text-anchor="middle" x="37" y="-175.5" font-family="Helvetica,sans-Serif" font-size="10.00" fill="#000000">http_parser.h</text>
</g>
<!-- Node20&#45;&gt;Node26 -->
<g id="edge35" class="edge">
<title>Node20&#45;&gt;Node26</title>
<path fill="none" stroke="#191970" d="M273.5572,-229.9581C222.1841,-218.6744 136.9901,-199.9621 84.08,-188.3408"/>
<polygon fill="#191970" stroke="#191970" points="84.7881,-184.9129 74.27,-186.1861 83.2863,-191.75 84.7881,-184.9129"/>
</g>
<!-- Node27&#45;&gt;Node1 -->
<g id="edge40" class="edge">
<title>Node27&#45;&gt;Node1</title>
<path fill="none" stroke="#191970" d="M900.7699,-430.5386C845.3458,-424.9217 758.0875,-412.9497 686,-389 623.9401,-368.3818 589.1264,-377.7847 555,-322 530.0848,-281.2724 558.5442,-249.3542 599,-224 644.0675,-195.7556 788.3705,-184.6868 877.6116,-180.4724"/>
<polygon fill="#191970" stroke="#191970" points="877.8446,-183.9655 887.6754,-180.0151 877.5268,-176.9727 877.8446,-183.9655"/>
</g>
<!-- Node28 -->
<g id="node29" class="node">
<title>Node28</title>
<g id="a_node29"><a xlink:href="clock_8h.html" target="_top" xlink:title="Timestamp and duration representations. ">
<polygon fill="#ffffff" stroke="#000000" points="684,-297 684,-316 796,-316 796,-297 684,-297"/>
<text text-anchor="middle" x="740" y="-304" font-family="Helvetica,sans-Serif" font-size="10.00" fill="#000000">jaegertracingc/clock.h</text>
</a>
</g>
</g>
<!-- Node27&#45;&gt;Node28 -->
<g id="edge38" class="edge">
<title>Node27&#45;&gt;Node28</title>
<path fill="none" stroke="#191970" d="M900.7324,-427.4588C852.4878,-419.8305 787.2613,-406.6504 768,-389 750.3712,-372.8456 743.8374,-345.1825 741.4183,-326.3847"/>
<polygon fill="#191970" stroke="#191970" points="744.8823,-325.8511 740.3988,-316.2517 737.9175,-326.5519 744.8823,-325.8511"/>
</g>
<!-- Node29 -->
<g id="node30" class="node">
<title>Node29</title>
<g id="a_node30"><a xlink:href="hashtable_8h.html" target="_top" xlink:title="Hashtable data structure. ">
<polygon fill="#ffffff" stroke="#000000" points="1148.5,-364 1148.5,-383 1279.5,-383 1279.5,-364 1148.5,-364"/>
<text text-anchor="middle" x="1214" y="-371" font-family="Helvetica,sans-Serif" font-size="10.00" fill="#000000">jaegertracingc/hashtable.h</text>
</a>
</g>
</g>
<!-- Node27&#45;&gt;Node29 -->
<g id="edge41" class="edge">
<title>Node27&#45;&gt;Node29</title>
<path fill="none" stroke="#191970" d="M996.0294,-425.4581C1041.3155,-414.6632 1115.1234,-397.0694 1164.1206,-385.3899"/>
<polygon fill="#191970" stroke="#191970" points="1164.9608,-388.7877 1173.8767,-383.0643 1163.3376,-381.9785 1164.9608,-388.7877"/>
</g>
<!-- Node30 -->
<g id="node31" class="node">
<title>Node30</title>
<g id="a_node31"><a xlink:href="key__value_8h.html" target="_top" xlink:title="Key value pair representation. ">
<polygon fill="#ffffff" stroke="#000000" points="1108,-291.5 1108,-321.5 1204,-321.5 1204,-291.5 1108,-291.5"/>
<text text-anchor="start" x="1116" y="-309.5" font-family="Helvetica,sans-Serif" font-size="10.00" fill="#000000">jaegertracingc/key</text>
<text text-anchor="middle" x="1156" y="-298.5" font-family="Helvetica,sans-Serif" font-size="10.00" fill="#000000">_value.h</text>
</a>
</g>
</g>
<!-- Node27&#45;&gt;Node30 -->
<g id="edge51" class="edge">
<title>Node27&#45;&gt;Node30</title>
<path fill="none" stroke="#191970" d="M981.5859,-425.3742C1002.3647,-417.0599 1032.0445,-404.0346 1056,-389 1084.3158,-371.2289 1113.438,-346.3063 1132.8984,-328.5137"/>
<polygon fill="#191970" stroke="#191970" points="1135.4033,-330.9643 1140.3644,-321.6028 1130.6482,-325.8273 1135.4033,-330.9643"/>
</g>
<!-- Node27&#45;&gt;Node31 -->
<g id="edge71" class="edge">
<title>Node27&#45;&gt;Node31</title>
<path fill="none" stroke="#191970" d="M963.5887,-425.3622C981.0795,-401.9076 1021.2275,-340.1724 1001,-291 995.2017,-276.9046 983.4731,-264.6184 972.7241,-255.5849"/>
<polygon fill="#191970" stroke="#191970" points="974.8267,-252.7856 964.8096,-249.3349 970.4884,-258.2792 974.8267,-252.7856"/>
</g>
<!-- Node33 -->
<g id="node34" class="node">
<title>Node33</title>
<g id="a_node34"><a xlink:href="log__record_8h.html" target="_top" xlink:title="Log record representation for use in span. ">
<polygon fill="#ffffff" stroke="#000000" points="777.5,-358.5 777.5,-388.5 870.5,-388.5 870.5,-358.5 777.5,-358.5"/>
<text text-anchor="start" x="785.5" y="-376.5" font-family="Helvetica,sans-Serif" font-size="10.00" fill="#000000">jaegertracingc/log</text>
<text text-anchor="middle" x="824" y="-365.5" font-family="Helvetica,sans-Serif" font-size="10.00" fill="#000000">_record.h</text>
</a>
</g>
</g>
<!-- Node27&#45;&gt;Node33 -->
<g id="edge52" class="edge">
<title>Node27&#45;&gt;Node33</title>
<path fill="none" stroke="#191970" d="M935.375,-425.3906C916.766,-416.7205 888.8293,-403.7046 865.5915,-392.8779"/>
<polygon fill="#191970" stroke="#191970" points="866.8334,-389.5953 856.2908,-388.5446 863.8772,-395.9404 866.8334,-389.5953"/>
</g>
<!-- Node34 -->
<g id="node35" class="node">
<title>Node34</title>
<g id="a_node35"><a xlink:href="tag_8h.html" target="_top" xlink:title="Tag representation and functions. ">
<polygon fill="#ffffff" stroke="#000000" points="564,-297 564,-316 666,-316 666,-297 564,-297"/>
<text text-anchor="middle" x="615" y="-304" font-family="Helvetica,sans-Serif" font-size="10.00" fill="#000000">jaegertracingc/tag.h</text>
</a>
</g>
</g>
<!-- Node27&#45;&gt;Node34 -->
<g id="edge62" class="edge">
<title>Node27&#45;&gt;Node34</title>
<path fill="none" stroke="#191970" d="M900.9318,-428.262C857.6366,-421.7148 796.4236,-409.6581 746,-389 703.9136,-371.7576 660.2278,-341.2629 635.4461,-322.5695"/>
<polygon fill="#191970" stroke="#191970" points="637.2769,-319.5632 627.2093,-316.2628 633.0214,-325.1211 637.2769,-319.5632"/>
</g>
<!-- Node27&#45;&gt;Node37 -->
<g id="edge63" class="edge">
<title>Node27&#45;&gt;Node37</title>
<path fill="none" stroke="#191970" d="M1011.3352,-427.3353C1090.6858,-416.3442 1236.9835,-396.08 1325.6933,-383.7925"/>
<polygon fill="#191970" stroke="#191970" points="1326.2608,-387.2474 1335.686,-382.4084 1325.3004,-380.3136 1326.2608,-387.2474"/>
</g>
<!-- Node41 -->
<g id="node42" class="node">
<title>Node41</title>
<g id="a_node42"><a xlink:href="trace__id_8h.html" target="_top" xlink:title="Trace ID representation. ">
<polygon fill="#ffffff" stroke="#000000" points="852.5,-297 852.5,-316 975.5,-316 975.5,-297 852.5,-297"/>
<text text-anchor="middle" x="914" y="-304" font-family="Helvetica,sans-Serif" font-size="10.00" fill="#000000">jaegertracingc/trace_id.h</text>
</a>
</g>
</g>
<!-- Node27&#45;&gt;Node41 -->
<g id="edge68" class="edge">
<title>Node27&#45;&gt;Node41</title>
<path fill="none" stroke="#191970" d="M952.8432,-425.3416C945.9718,-404.3184 929.5448,-354.0598 920.4075,-326.1038"/>
<polygon fill="#191970" stroke="#191970" points="923.6271,-324.6882 917.1935,-316.2705 916.9735,-326.863 923.6271,-324.6882"/>
</g>
<!-- Node28&#45;&gt;Node1 -->
<g id="edge39" class="edge">
<title>Node28&#45;&gt;Node1</title>
<path fill="none" stroke="#191970" d="M745.6507,-296.8437C756.1628,-279.7022 780.3694,-243.8938 810,-224 833.8845,-207.9641 863.7778,-197.1636 889.8856,-190.0831"/>
<polygon fill="#191970" stroke="#191970" points="890.8809,-193.4409 899.6859,-187.5484 889.1281,-186.6639 890.8809,-193.4409"/>
</g>
<!-- Node29&#45;&gt;Node1 -->
<g id="edge42" class="edge">
<title>Node29&#45;&gt;Node1</title>
<path fill="none" stroke="#191970" d="M1218.2136,-363.8598C1222.4142,-353.6827 1228.5787,-337.0597 1231,-322 1238.0429,-278.196 1244.9285,-253.7339 1212,-224 1184.9998,-199.6192 1091.769,-187.807 1024.4317,-182.3387"/>
<polygon fill="#191970" stroke="#191970" points="1024.5208,-178.8351 1014.2787,-181.5458 1023.9758,-185.8138 1024.5208,-178.8351"/>
</g>
<!-- Node29&#45;&gt;Node30 -->
<g id="edge43" class="edge">
<title>Node29&#45;&gt;Node30</title>
<path fill="none" stroke="#191970" d="M1205.69,-363.9005C1197.9023,-354.9043 1185.9608,-341.1099 1175.7361,-329.2986"/>
<polygon fill="#191970" stroke="#191970" points="1178.1952,-326.7916 1169.0039,-321.5218 1172.9027,-331.3732 1178.1952,-326.7916"/>
</g>
<!-- Node32 -->
<g id="node33" class="node">
<title>Node32</title>
<g id="a_node33"><a xlink:href="list_8h_source.html" target="_top" xlink:title="jaegertracingc/list.h">
<polygon fill="#ffffff" stroke="#000000" points="1102.5,-230 1102.5,-249 1203.5,-249 1203.5,-230 1102.5,-230"/>
<text text-anchor="middle" x="1153" y="-237" font-family="Helvetica,sans-Serif" font-size="10.00" fill="#000000">jaegertracingc/list.h</text>
</a>
</g>
</g>
<!-- Node29&#45;&gt;Node32 -->
<g id="edge49" class="edge">
<title>Node29&#45;&gt;Node32</title>
<path fill="none" stroke="#191970" d="M1216.3447,-363.7832C1219.6917,-347.7533 1224.271,-315.1411 1213,-291 1205.9222,-275.8403 1191.9848,-263.4426 1179.3232,-254.6129"/>
<polygon fill="#191970" stroke="#191970" points="1181.1464,-251.6233 1170.8613,-249.08 1177.3155,-257.482 1181.1464,-251.6233"/>
</g>
<!-- Node30&#45;&gt;Node1 -->
<g id="edge45" class="edge">
<title>Node30&#45;&gt;Node1</title>
<path fill="none" stroke="#191970" d="M1137.4085,-291.2028C1112.0409,-270.4762 1067.7136,-234.8157 1050,-224 1029.2437,-211.3265 1004.4216,-199.8005 984.8248,-191.456"/>
<polygon fill="#191970" stroke="#191970" points="985.9606,-188.1373 975.3844,-187.5088 983.2603,-194.5956 985.9606,-188.1373"/>
</g>
<!-- Node30&#45;&gt;Node17 -->
<g id="edge44" class="edge">
<title>Node30&#45;&gt;Node17</title>
<path fill="none" stroke="#191970" d="M1118.1817,-291.4602C1097.2398,-282.3287 1071.2298,-269.6243 1050,-255 1033.4283,-243.5844 1034.8481,-233.2943 1017,-224 979.6189,-204.534 716.6293,-155.6438 592.973,-133.3718"/>
<polygon fill="#191970" stroke="#191970" points="593.3441,-129.8825 582.8826,-131.5578 592.1055,-136.7721 593.3441,-129.8825"/>
</g>
<!-- Node30&#45;&gt;Node18 -->
<g id="edge46" class="edge">
<title>Node30&#45;&gt;Node18</title>
<path fill="none" stroke="#191970" d="M1189.0991,-291.3558C1239.1829,-266.3647 1332.3666,-211.2459 1370,-132 1376.8362,-117.6047 1375.9503,-99.3735 1373.7146,-85.7217"/>
<polygon fill="#191970" stroke="#191970" points="1377.0646,-84.6279 1371.6589,-75.5158 1370.2024,-86.0101 1377.0646,-84.6279"/>
</g>
<!-- Node30&#45;&gt;Node31 -->
<g id="edge47" class="edge">
<title>Node30&#45;&gt;Node31</title>
<path fill="none" stroke="#191970" d="M1109.7696,-291.4639C1073.3848,-279.63 1023.2555,-263.3258 988.9073,-252.1543"/>
<polygon fill="#191970" stroke="#191970" points="989.8174,-248.7699 979.2252,-249.0053 987.6523,-255.4267 989.8174,-248.7699"/>
</g>
<!-- Node31&#45;&gt;Node1 -->
<g id="edge48" class="edge">
<title>Node31&#45;&gt;Node1</title>
<path fill="none" stroke="#191970" d="M950.1563,-229.8906C950.2949,-221.3657 950.5018,-208.6392 950.676,-197.9235"/>
<polygon fill="#191970" stroke="#191970" points="954.1784,-197.8005 950.8415,-187.7449 947.1793,-197.6866 954.1784,-197.8005"/>
</g>
<!-- Node32&#45;&gt;Node1 -->
<g id="edge50" class="edge">
<title>Node32&#45;&gt;Node1</title>
<path fill="none" stroke="#191970" d="M1121.4375,-229.8906C1086.6015,-219.2846 1030.405,-202.1753 992.1412,-190.5257"/>
<polygon fill="#191970" stroke="#191970" points="992.9267,-187.1063 982.3409,-187.5419 990.8879,-193.8028 992.9267,-187.1063"/>
</g>
<!-- Node33&#45;&gt;Node1 -->
<g id="edge54" class="edge">
<title>Node33&#45;&gt;Node1</title>
<path fill="none" stroke="#191970" d="M825.2402,-358.3789C828.411,-328.9534 839.2823,-263.4293 875,-224 887.0614,-210.6853 903.8816,-199.9635 918.6327,-192.2318"/>
<polygon fill="#191970" stroke="#191970" points="920.5674,-195.1782 927.9567,-187.5855 917.4453,-188.913 920.5674,-195.1782"/>
</g>
<!-- Node33&#45;&gt;Node28 -->
<g id="edge53" class="edge">
<title>Node33&#45;&gt;Node28</title>
<path fill="none" stroke="#191970" d="M804.9391,-358.2967C791.4703,-347.5537 773.4615,-333.1895 759.8252,-322.3129"/>
<polygon fill="#191970" stroke="#191970" points="761.9796,-319.5544 751.9794,-316.055 757.6147,-325.0268 761.9796,-319.5544"/>
</g>
<!-- Node33&#45;&gt;Node31 -->
<g id="edge61" class="edge">
<title>Node33&#45;&gt;Node31</title>
<path fill="none" stroke="#191970" d="M870.8229,-364.743C913.0238,-355.7858 970.4669,-340.5728 984,-322 998.6609,-301.8794 981.5169,-274.5096 966.7215,-256.9208"/>
<polygon fill="#191970" stroke="#191970" points="969.0616,-254.2858 959.7966,-249.1467 963.8345,-258.9419 969.0616,-254.2858"/>
</g>
<!-- Node33&#45;&gt;Node34 -->
<g id="edge55" class="edge">
<title>Node33&#45;&gt;Node34</title>
<path fill="none" stroke="#191970" d="M777.3565,-358.5473C740.4557,-346.7178 689.5002,-330.3828 654.5725,-319.1859"/>
<polygon fill="#191970" stroke="#191970" points="655.3177,-315.7494 644.7265,-316.0296 653.1807,-322.4153 655.3177,-315.7494"/>
</g>
<!-- Node34&#45;&gt;Node1 -->
<g id="edge57" class="edge">
<title>Node34&#45;&gt;Node1</title>
<path fill="none" stroke="#191970" d="M637.0781,-296.9557C659.3593,-287.1183 694.5832,-271.0015 724,-255 746.9686,-242.5061 749.9646,-234.2934 774,-224 810.2597,-208.4714 853.0119,-197.1811 887.4154,-189.6727"/>
<polygon fill="#191970" stroke="#191970" points="888.2929,-193.0644 897.3452,-187.5593 886.8356,-186.2178 888.2929,-193.0644"/>
</g>
<!-- Node34&#45;&gt;Node17 -->
<g id="edge56" class="edge">
<title>Node34&#45;&gt;Node17</title>
<path fill="none" stroke="#191970" d="M610.4974,-296.8402C596.8553,-267.5732 555.8088,-179.5142 537.7212,-140.7099"/>
<polygon fill="#191970" stroke="#191970" points="540.8553,-139.1491 533.4581,-131.5641 534.5107,-142.1066 540.8553,-139.1491"/>
</g>
<!-- Node34&#45;&gt;Node31 -->
<g id="edge60" class="edge">
<title>Node34&#45;&gt;Node31</title>
<path fill="none" stroke="#191970" d="M650.438,-296.9214C658.4882,-294.8638 667.0187,-292.7761 675,-291 745.5235,-275.306 826.9323,-260.4634 882.7691,-250.7809"/>
<polygon fill="#191970" stroke="#191970" points="883.6303,-254.1841 892.8891,-249.034 882.4395,-247.2861 883.6303,-254.1841"/>
</g>
<!-- Node35 -->
<g id="node36" class="node">
<title>Node35</title>
<g id="a_node36"><a xlink:href="jaeger_8pb-c_8h_source.html" target="_top" xlink:title="jaegertracingc/protoc\l&#45;gen/jaeger.pb&#45;c.h">
<polygon fill="#ffffff" stroke="#000000" points="608.5,-224.5 608.5,-254.5 715.5,-254.5 715.5,-224.5 608.5,-224.5"/>
<text text-anchor="start" x="616.5" y="-242.5" font-family="Helvetica,sans-Serif" font-size="10.00" fill="#000000">jaegertracingc/protoc</text>
<text text-anchor="middle" x="662" y="-231.5" font-family="Helvetica,sans-Serif" font-size="10.00" fill="#000000">&#45;gen/jaeger.pb&#45;c.h</text>
</a>
</g>
</g>
<!-- Node34&#45;&gt;Node35 -->
<g id="edge58" class="edge">
<title>Node34&#45;&gt;Node35</title>
<path fill="none" stroke="#191970" d="M621.734,-296.9005C627.9234,-288.0773 637.3504,-274.6387 645.5274,-262.9822"/>
<polygon fill="#191970" stroke="#191970" points="648.5848,-264.7184 651.4623,-254.5218 642.8542,-260.6984 648.5848,-264.7184"/>
</g>
<!-- Node36 -->
<g id="node37" class="node">
<title>Node36</title>
<polygon fill="#ffffff" stroke="#bfbfbf" points="604.5,-168.5 604.5,-187.5 719.5,-187.5 719.5,-168.5 604.5,-168.5"/>
<text text-anchor="middle" x="662" y="-175.5" font-family="Helvetica,sans-Serif" font-size="10.00" fill="#000000">protobuf&#45;c/protobuf&#45;c.h</text>
</g>
<!-- Node35&#45;&gt;Node36 -->
<g id="edge59" class="edge">
<title>Node35&#45;&gt;Node36</title>
<path fill="none" stroke="#191970" d="M662,-224.2977C662,-216.3834 662,-206.6043 662,-198.0759"/>
<polygon fill="#191970" stroke="#191970" points="665.5001,-197.8469 662,-187.8469 658.5001,-197.847 665.5001,-197.8469"/>
</g>
<!-- Node37&#45;&gt;Node1 -->
<g id="edge64" class="edge">
<title>Node37&#45;&gt;Node1</title>
<path fill="none" stroke="#191970" d="M1392.737,-363.9671C1385.2402,-353.8776 1373.4758,-337.3251 1365,-322 1341.9801,-280.3778 1360.1412,-252.4178 1322,-224 1298.6339,-206.5907 1125.4833,-190.9701 1024.1924,-183.1957"/>
<polygon fill="#191970" stroke="#191970" points="1024.2561,-179.6905 1014.0196,-182.4227 1023.7256,-186.6704 1024.2561,-179.6905"/>
</g>
<!-- Node38 -->
<g id="node39" class="node">
<title>Node38</title>
<polygon fill="#ffffff" stroke="#bfbfbf" points="1374.5,-297 1374.5,-316 1421.5,-316 1421.5,-297 1374.5,-297"/>
<text text-anchor="middle" x="1398" y="-304" font-family="Helvetica,sans-Serif" font-size="10.00" fill="#000000">errno.h</text>
</g>
<!-- Node37&#45;&gt;Node38 -->
<g id="edge65" class="edge">
<title>Node37&#45;&gt;Node38</title>
<path fill="none" stroke="#191970" d="M1399.7134,-363.9005C1399.4224,-354.149 1398.963,-338.7597 1398.5931,-326.3695"/>
<polygon fill="#191970" stroke="#191970" points="1402.0829,-325.9727 1398.286,-316.0817 1395.086,-326.1817 1402.0829,-325.9727"/>
</g>
<!-- Node39 -->
<g id="node40" class="node">
<title>Node39</title>
<polygon fill="#ffffff" stroke="#bfbfbf" points="1439.5,-297 1439.5,-316 1496.5,-316 1496.5,-297 1439.5,-297"/>
<text text-anchor="middle" x="1468" y="-304" font-family="Helvetica,sans-Serif" font-size="10.00" fill="#000000">pthread.h</text>
</g>
<!-- Node37&#45;&gt;Node39 -->
<g id="edge66" class="edge">
<title>Node37&#45;&gt;Node39</title>
<path fill="none" stroke="#191970" d="M1409.7427,-363.9005C1420.4477,-353.353 1437.847,-336.2096 1450.8479,-323.3998"/>
<polygon fill="#191970" stroke="#191970" points="1453.6085,-325.5933 1458.2753,-316.0817 1448.6956,-320.607 1453.6085,-325.5933"/>
</g>
<!-- Node40 -->
<g id="node41" class="node">
<title>Node40</title>
<polygon fill="#ffffff" stroke="#bfbfbf" points="1514.5,-297 1514.5,-316 1565.5,-316 1565.5,-297 1514.5,-297"/>
<text text-anchor="middle" x="1540" y="-304" font-family="Helvetica,sans-Serif" font-size="10.00" fill="#000000">sched.h</text>
</g>
<!-- Node37&#45;&gt;Node40 -->
<g id="edge67" class="edge">
<title>Node37&#45;&gt;Node40</title>
<path fill="none" stroke="#191970" d="M1420.0586,-363.9005C1443.8656,-352.5072 1483.7539,-333.4178 1510.9396,-320.4075"/>
<polygon fill="#191970" stroke="#191970" points="1512.4693,-323.5556 1519.9786,-316.0817 1509.4474,-317.2415 1512.4693,-323.5556"/>
</g>
<!-- Node41&#45;&gt;Node1 -->
<g id="edge69" class="edge">
<title>Node41&#45;&gt;Node1</title>
<path fill="none" stroke="#191970" d="M905.1065,-296.7518C891.8273,-280.9524 869.7278,-249.0019 883,-224 890.3846,-210.0889 904.0636,-199.6166 917.2272,-192.2062"/>
<polygon fill="#191970" stroke="#191970" points="918.9124,-195.275 926.1745,-187.5605 915.6866,-189.0625 918.9124,-195.275"/>
</g>
<!-- Node41&#45;&gt;Node35 -->
<g id="edge70" class="edge">
<title>Node41&#45;&gt;Node35</title>
<path fill="none" stroke="#191970" d="M878.1622,-296.9717C838.4988,-286.4263 773.8041,-269.2257 725.5098,-256.3855"/>
<polygon fill="#191970" stroke="#191970" points="726.339,-252.9845 715.7754,-253.7974 724.5403,-259.7494 726.339,-252.9845"/>
</g>
</g>
</svg>
