<?xml version="1.0" encoding="UTF-8" standalone="no"?>
<!DOCTYPE svg PUBLIC "-//W3C//DTD SVG 1.1//EN"
 "http://www.w3.org/Graphics/SVG/1.1/DTD/svg11.dtd">
<!-- Generated by graphviz version 2.40.1 (20161225.0304)
 -->
<!-- Title: jaegertracingc/sampling_strategy.h Pages: 1 -->
<svg width="257pt" height="218pt"
 viewBox="0.00 0.00 256.50 218.00" xmlns="http://www.w3.org/2000/svg" xmlns:xlink="http://www.w3.org/1999/xlink">
<g id="graph0" class="graph" transform="scale(1 1) rotate(0) translate(4 214)">
<title>jaegertracingc/sampling_strategy.h</title>
<polygon fill="#ffffff" stroke="transparent" points="-4,4 -4,-214 252.5,-214 252.5,4 -4,4"/>
<!-- Node21 -->
<g id="node1" class="node">
<title>Node21</title>
<polygon fill="#bfbfbf" stroke="#000000" points="73,-179.5 73,-209.5 192,-209.5 192,-179.5 73,-179.5"/>
<text text-anchor="start" x="81" y="-197.5" font-family="Helvetica,sans-Serif" font-size="10.00" fill="#000000">jaegertracingc/sampling</text>
<text text-anchor="middle" x="132.5" y="-186.5" font-family="Helvetica,sans-Serif" font-size="10.00" fill="#000000">_strategy.h</text>
</g>
<!-- Node22 -->
<g id="node2" class="node">
<title>Node22</title>
<g id="a_node2"><a xlink:href="sampler_8h.html" target="_top" xlink:title="Span sampler interface. ">
<polygon fill="#ffffff" stroke="#000000" points="71,-123.5 71,-142.5 194,-142.5 194,-123.5 71,-123.5"/>
<text text-anchor="middle" x="132.5" y="-130.5" font-family="Helvetica,sans-Serif" font-size="10.00" fill="#000000">jaegertracingc/sampler.h</text>
</a>
</g>
</g>
<!-- Node21&#45;&gt;Node22 -->
<g id="edge1" class="edge">
<title>Node21&#45;&gt;Node22</title>
<path fill="none" stroke="#191970" d="M132.5,-169.2849C132.5,-159.9858 132.5,-149.9883 132.5,-142.8469"/>
<polygon fill="#191970" stroke="#191970" points="129.0001,-169.2977 132.5,-179.2977 136.0001,-169.2978 129.0001,-169.2977"/>
</g>
<!-- Node23 -->
<g id="node3" class="node">
<title>Node23</title>
<g id="a_node3"><a xlink:href="tracer_8h.html" target="_top" xlink:title="Tracer implementation. ">
<polygon fill="#ffffff" stroke="#000000" points="13,-62 13,-81 126,-81 126,-62 13,-62"/>
<text text-anchor="middle" x="69.5" y="-69" font-family="Helvetica,sans-Serif" font-size="10.00" fill="#000000">jaegertracingc/tracer.h</text>
</a>
</g>
</g>
<!-- Node22&#45;&gt;Node23 -->
<g id="edge2" class="edge">
<title>Node22&#45;&gt;Node23</title>
<path fill="none" stroke="#191970" d="M115.3162,-116.2253C103.82,-105.0028 89.0923,-90.6258 79.4825,-81.2449"/>
<polygon fill="#191970" stroke="#191970" points="113.0556,-118.9097 122.6563,-123.3906 117.9454,-113.9007 113.0556,-118.9097"/>
</g>
<!-- Node25 -->
<g id="node5" class="node">
<title>Node25</title>
<g id="a_node5"><a xlink:href="mock__agent_8h.html" target="_top" xlink:title="Key value pair representation. ">
<polygon fill="#ffffff" stroke="#000000" points="144.5,-56.5 144.5,-86.5 248.5,-86.5 248.5,-56.5 144.5,-56.5"/>
<text text-anchor="start" x="152.5" y="-74.5" font-family="Helvetica,sans-Serif" font-size="10.00" fill="#000000">jaegertracingc/mock</text>
<text text-anchor="middle" x="196.5" y="-63.5" font-family="Helvetica,sans-Serif" font-size="10.00" fill="#000000">_agent.h</text>
</a>
</g>
</g>
<!-- Node22&#45;&gt;Node25 -->
<g id="edge4" class="edge">
<title>Node22&#45;&gt;Node25</title>
<path fill="none" stroke="#191970" d="M149.9724,-116.2101C159.6191,-106.9403 171.5017,-95.5218 180.8438,-86.5446"/>
<polygon fill="#191970" stroke="#191970" points="147.2854,-113.9381 142.5,-123.3906 152.1356,-118.9854 147.2854,-113.9381"/>
</g>
<!-- Node24 -->
<g id="node4" class="node">
<title>Node24</title>
<g id="a_node4"><a xlink:href="propagation_8c.html" target="_top" xlink:title="Trace ID representation. ">
<polygon fill="#ffffff" stroke="#000000" points="0,-.5 0,-19.5 139,-19.5 139,-.5 0,-.5"/>
<text text-anchor="middle" x="69.5" y="-7.5" font-family="Helvetica,sans-Serif" font-size="10.00" fill="#000000">jaegertracingc/propagation.c</text>
</a>
</g>
</g>
<!-- Node23&#45;&gt;Node24 -->
<g id="edge3" class="edge">
<title>Node23&#45;&gt;Node24</title>
<path fill="none" stroke="#191970" d="M69.5,-51.7462C69.5,-41.0519 69.5,-28.314 69.5,-19.7449"/>
<polygon fill="#191970" stroke="#191970" points="66.0001,-51.8906 69.5,-61.8906 73.0001,-51.8907 66.0001,-51.8906"/>
</g>
</g>
</svg>
