<?xml version="1.0" encoding="UTF-8" standalone="no"?>
<!DOCTYPE svg PUBLIC "-//W3C//DTD SVG 1.1//EN"
 "http://www.w3.org/Graphics/SVG/1.1/DTD/svg11.dtd">
<!-- Generated by graphviz version 2.40.1 (20161225.0304)
 -->
<!-- Title: jaegertracingc/sampling_strategy.h Pages: 1 -->
<svg width="257pt" height="218pt"
 viewBox="0.00 0.00 256.50 218.00" xmlns="http://www.w3.org/2000/svg" xmlns:xlink="http://www.w3.org/1999/xlink">
<g id="graph0" class="graph" transform="scale(1 1) rotate(0) translate(4 214)">
<title>jaegertracingc/sampling_strategy.h</title>
<polygon fill="#ffffff" stroke="transparent" points="-4,4 -4,-214 252.5,-214 252.5,4 -4,4"/>
<!-- Node21 -->
<g id="node1" class="node">
<title>Node21</title>
<polygon fill="#bfbfbf" stroke="#000000" points="55.5,-179.5 55.5,-209.5 174.5,-209.5 174.5,-179.5 55.5,-179.5"/>
<text text-anchor="start" x="63.5" y="-197.5" font-family="Helvetica,sans-Serif" font-size="10.00" fill="#000000">jaegertracingc/sampling</text>
<text text-anchor="middle" x="115" y="-186.5" font-family="Helvetica,sans-Serif" font-size="10.00" fill="#000000">_strategy.h</text>
</g>
<!-- Node22 -->
<g id="node2" class="node">
<title>Node22</title>
<g id="a_node2"><a xlink:href="sampler_8h.html" target="_top" xlink:title="Span sampler interface. ">
<polygon fill="#ffffff" stroke="#000000" points="53.5,-123.5 53.5,-142.5 176.5,-142.5 176.5,-123.5 53.5,-123.5"/>
<text text-anchor="middle" x="115" y="-130.5" font-family="Helvetica,sans-Serif" font-size="10.00" fill="#000000">jaegertracingc/sampler.h</text>
</a>
</g>
</g>
<!-- Node21&#45;&gt;Node22 -->
<g id="edge1" class="edge">
<title>Node21&#45;&gt;Node22</title>
<path fill="none" stroke="#191970" d="M115,-169.2849C115,-159.9858 115,-149.9883 115,-142.8469"/>
<polygon fill="#191970" stroke="#191970" points="111.5001,-169.2977 115,-179.2977 118.5001,-169.2978 111.5001,-169.2977"/>
</g>
<!-- Node23 -->
<g id="node3" class="node">
<title>Node23</title>
<g id="a_node3"><a xlink:href="mock__agent_8h.html" target="_top" xlink:title="Key value pair representation. ">
<polygon fill="#ffffff" stroke="#000000" points="0,-56.5 0,-86.5 104,-86.5 104,-56.5 0,-56.5"/>
<text text-anchor="start" x="8" y="-74.5" font-family="Helvetica,sans-Serif" font-size="10.00" fill="#000000">jaegertracingc/mock</text>
<text text-anchor="middle" x="52" y="-63.5" font-family="Helvetica,sans-Serif" font-size="10.00" fill="#000000">_agent.h</text>
</a>
</g>
</g>
<!-- Node22&#45;&gt;Node23 -->
<g id="edge2" class="edge">
<title>Node22&#45;&gt;Node23</title>
<path fill="none" stroke="#191970" d="M97.8006,-116.2101C88.3047,-106.9403 76.6077,-95.5218 67.4115,-86.5446"/>
<polygon fill="#191970" stroke="#191970" points="95.5556,-118.9097 105.1563,-123.3906 100.4454,-113.9007 95.5556,-118.9097"/>
</g>
<!-- Node24 -->
<g id="node4" class="node">
<title>Node24</title>
<g id="a_node4"><a xlink:href="tracer_8h.html" target="_top" xlink:title="Tracer implementation. ">
<polygon fill="#ffffff" stroke="#000000" points="122.5,-62 122.5,-81 235.5,-81 235.5,-62 122.5,-62"/>
<text text-anchor="middle" x="179" y="-69" font-family="Helvetica,sans-Serif" font-size="10.00" fill="#000000">jaegertracingc/tracer.h</text>
</a>
</g>
</g>
<!-- Node22&#45;&gt;Node24 -->
<g id="edge3" class="edge">
<title>Node22&#45;&gt;Node24</title>
<path fill="none" stroke="#191970" d="M132.4566,-116.2253C144.1353,-105.0028 159.0967,-90.6258 168.859,-81.2449"/>
<polygon fill="#191970" stroke="#191970" points="129.7854,-113.9381 125,-123.3906 134.6356,-118.9854 129.7854,-113.9381"/>
</g>
<!-- Node25 -->
<g id="node5" class="node">
<title>Node25</title>
<g id="a_node5"><a xlink:href="propagation_8c.html" target="_top" xlink:title="Trace ID representation. ">
<polygon fill="#ffffff" stroke="#000000" points="109.5,-.5 109.5,-19.5 248.5,-19.5 248.5,-.5 109.5,-.5"/>
<text text-anchor="middle" x="179" y="-7.5" font-family="Helvetica,sans-Serif" font-size="10.00" fill="#000000">jaegertracingc/propagation.c</text>
</a>
</g>
</g>
<!-- Node24&#45;&gt;Node25 -->
<g id="edge4" class="edge">
<title>Node24&#45;&gt;Node25</title>
<path fill="none" stroke="#191970" d="M179,-51.7462C179,-41.0519 179,-28.314 179,-19.7449"/>
<polygon fill="#191970" stroke="#191970" points="175.5001,-51.8906 179,-61.8906 182.5001,-51.8907 175.5001,-51.8906"/>
</g>
</g>
</svg>
