<?xml version="1.0" encoding="UTF-8" standalone="no"?>
<!DOCTYPE svg PUBLIC "-//W3C//DTD SVG 1.1//EN"
 "http://www.w3.org/Graphics/SVG/1.1/DTD/svg11.dtd">
<!-- Generated by graphviz version 2.40.1 (20161225.0304)
 -->
<!-- Title: jaegertracingc/sampler.h Pages: 1 -->
<svg width="1583pt" height="386pt"
 viewBox="0.00 0.00 1583.00 386.00" xmlns="http://www.w3.org/2000/svg" xmlns:xlink="http://www.w3.org/1999/xlink">
<g id="graph0" class="graph" transform="scale(1 1) rotate(0) translate(4 382)">
<title>jaegertracingc/sampler.h</title>
<polygon fill="#ffffff" stroke="transparent" points="-4,4 -4,-382 1579,-382 1579,4 -4,4"/>
<!-- Node0 -->
<g id="node1" class="node">
<title>Node0</title>
<polygon fill="#bfbfbf" stroke="#000000" points="752,-358.5 752,-377.5 875,-377.5 875,-358.5 752,-358.5"/>
<text text-anchor="middle" x="813.5" y="-365.5" font-family="Helvetica,sans-Serif" font-size="10.00" fill="#000000">jaegertracingc/sampler.h</text>
</g>
<!-- Node1 -->
<g id="node2" class="node">
<title>Node1</title>
<g id="a_node2"><a xlink:href="clock_8h.html" target="_top" xlink:title="Timestamp and duration representations. ">
<polygon fill="#ffffff" stroke="#000000" points="639.5,-230 639.5,-249 751.5,-249 751.5,-230 639.5,-230"/>
<text text-anchor="middle" x="695.5" y="-237" font-family="Helvetica,sans-Serif" font-size="10.00" fill="#000000">jaegertracingc/clock.h</text>
</a>
</g>
</g>
<!-- Node0&#45;&gt;Node1 -->
<g id="edge1" class="edge">
<title>Node0&#45;&gt;Node1</title>
<path fill="none" stroke="#191970" d="M807.4784,-358.4503C797.7236,-343.3335 777.4374,-313.3202 756.5,-291 744.4442,-278.148 729.3174,-265.359 717.1435,-255.7404"/>
<polygon fill="#191970" stroke="#191970" points="718.9352,-252.7009 708.8871,-249.3414 714.647,-258.2337 718.9352,-252.7009"/>
</g>
<!-- Node2 -->
<g id="node3" class="node">
<title>Node2</title>
<g id="a_node3"><a xlink:href="common_8h.html" target="_top" xlink:title="Common headers, struct definitions, and macros. ">
<polygon fill="#ffffff" stroke="#000000" points="737.5,-168.5 737.5,-187.5 863.5,-187.5 863.5,-168.5 737.5,-168.5"/>
<text text-anchor="middle" x="800.5" y="-175.5" font-family="Helvetica,sans-Serif" font-size="10.00" fill="#000000">jaegertracingc/common.h</text>
</a>
</g>
</g>
<!-- Node0&#45;&gt;Node2 -->
<g id="edge26" class="edge">
<title>Node0&#45;&gt;Node2</title>
<path fill="none" stroke="#191970" d="M812.8375,-358.3167C810.8081,-328.6573 804.6482,-238.6278 801.8768,-198.1229"/>
<polygon fill="#191970" stroke="#191970" points="805.3513,-197.6294 801.1768,-187.8917 798.3677,-198.1073 805.3513,-197.6294"/>
</g>
<!-- Node20 -->
<g id="node21" class="node">
<title>Node20</title>
<g id="a_node21"><a xlink:href="constants_8h_source.html" target="_top" xlink:title="jaegertracingc/constants.h">
<polygon fill="#ffffff" stroke="#000000" points="355,-297 355,-316 486,-316 486,-297 355,-297"/>
<text text-anchor="middle" x="420.5" y="-304" font-family="Helvetica,sans-Serif" font-size="10.00" fill="#000000">jaegertracingc/constants.h</text>
</a>
</g>
</g>
<!-- Node0&#45;&gt;Node20 -->
<g id="edge27" class="edge">
<title>Node0&#45;&gt;Node20</title>
<path fill="none" stroke="#191970" d="M751.8637,-360.288C687.4768,-351.9568 583.627,-337.7441 494.5,-322 487.8129,-320.8187 480.8064,-319.4819 473.8828,-318.1006"/>
<polygon fill="#191970" stroke="#191970" points="474.342,-314.6224 463.8449,-316.058 472.9461,-321.4818 474.342,-314.6224"/>
</g>
<!-- Node21 -->
<g id="node22" class="node">
<title>Node21</title>
<g id="a_node22"><a xlink:href="metrics_8h.html" target="_top" xlink:title="Metrics interfaces to track various numbers while tracing. ">
<polygon fill="#ffffff" stroke="#000000" points="504,-297 504,-316 625,-316 625,-297 504,-297"/>
<text text-anchor="middle" x="564.5" y="-304" font-family="Helvetica,sans-Serif" font-size="10.00" fill="#000000">jaegertracingc/metrics.h</text>
</a>
</g>
</g>
<!-- Node0&#45;&gt;Node21 -->
<g id="edge29" class="edge">
<title>Node0&#45;&gt;Node21</title>
<path fill="none" stroke="#191970" d="M774.867,-358.4581C731.2519,-347.6857 660.2247,-330.1428 612.9359,-318.4631"/>
<polygon fill="#191970" stroke="#191970" points="613.7712,-315.0643 603.2237,-316.0643 612.0927,-321.8601 613.7712,-315.0643"/>
</g>
<!-- Node22 -->
<g id="node23" class="node">
<title>Node22</title>
<g id="a_node23"><a xlink:href="net_8h.html" target="_top" xlink:title="Network utilities. ">
<polygon fill="#ffffff" stroke="#000000" points="275.5,-230 275.5,-249 377.5,-249 377.5,-230 275.5,-230"/>
<text text-anchor="middle" x="326.5" y="-237" font-family="Helvetica,sans-Serif" font-size="10.00" fill="#000000">jaegertracingc/net.h</text>
</a>
</g>
</g>
<!-- Node0&#45;&gt;Node22 -->
<g id="edge31" class="edge">
<title>Node0&#45;&gt;Node22</title>
<path fill="none" stroke="#191970" d="M751.5383,-365.8857C631.2854,-361.2139 375.3903,-348.2798 345.5,-322 327.8759,-306.5048 324.845,-278.2466 325.0595,-259.173"/>
<polygon fill="#191970" stroke="#191970" points="328.5569,-259.3067 325.4751,-249.17 321.5629,-259.0161 328.5569,-259.3067"/>
</g>
<!-- Node29 -->
<g id="node30" class="node">
<title>Node29</title>
<g id="a_node30"><a xlink:href="sampling__strategy_8h.html" target="_top" xlink:title="Sampling strategy type definitions. ">
<polygon fill="#ffffff" stroke="#000000" points="1399,-291.5 1399,-321.5 1518,-321.5 1518,-291.5 1399,-291.5"/>
<text text-anchor="start" x="1407" y="-309.5" font-family="Helvetica,sans-Serif" font-size="10.00" fill="#000000">jaegertracingc/sampling</text>
<text text-anchor="middle" x="1458.5" y="-298.5" font-family="Helvetica,sans-Serif" font-size="10.00" fill="#000000">_strategy.h</text>
</a>
</g>
</g>
<!-- Node0&#45;&gt;Node29 -->
<g id="edge40" class="edge">
<title>Node0&#45;&gt;Node29</title>
<path fill="none" stroke="#191970" d="M875.3216,-366.0034C979.4871,-361.9973 1196.6601,-350.8873 1388.886,-322.1171"/>
<polygon fill="#191970" stroke="#191970" points="1389.5271,-325.56 1398.8894,-320.6003 1388.4777,-318.6391 1389.5271,-325.56"/>
</g>
<!-- Node32 -->
<g id="node33" class="node">
<title>Node32</title>
<g id="a_node33"><a xlink:href="tag_8h.html" target="_top" xlink:title="Tag representation and functions. ">
<polygon fill="#ffffff" stroke="#000000" points="1137.5,-297 1137.5,-316 1239.5,-316 1239.5,-297 1137.5,-297"/>
<text text-anchor="middle" x="1188.5" y="-304" font-family="Helvetica,sans-Serif" font-size="10.00" fill="#000000">jaegertracingc/tag.h</text>
</a>
</g>
</g>
<!-- Node0&#45;&gt;Node32 -->
<g id="edge44" class="edge">
<title>Node0&#45;&gt;Node32</title>
<path fill="none" stroke="#191970" d="M871.6823,-358.4581C941.0948,-347.0745 1056.6086,-328.1302 1127.3182,-316.5338"/>
<polygon fill="#191970" stroke="#191970" points="1128.1132,-319.9503 1137.4149,-314.878 1126.9803,-313.0426 1128.1132,-319.9503"/>
</g>
<!-- Node34 -->
<g id="node35" class="node">
<title>Node34</title>
<g id="a_node35"><a xlink:href="vector_8h.html" target="_top" xlink:title="C generic vector implementation. ">
<polygon fill="#ffffff" stroke="#000000" points="1055.5,-230 1055.5,-249 1171.5,-249 1171.5,-230 1055.5,-230"/>
<text text-anchor="middle" x="1113.5" y="-237" font-family="Helvetica,sans-Serif" font-size="10.00" fill="#000000">jaegertracingc/vector.h</text>
</a>
</g>
</g>
<!-- Node0&#45;&gt;Node34 -->
<g id="edge62" class="edge">
<title>Node0&#45;&gt;Node34</title>
<path fill="none" stroke="#191970" d="M860.9152,-358.4523C894.553,-350.8045 940.3206,-338.6038 978.5,-322 1021.0855,-303.48 1066.3028,-273.4395 1092.1022,-255.1727"/>
<polygon fill="#191970" stroke="#191970" points="1094.2912,-257.9099 1100.3818,-249.2406 1090.2143,-252.2196 1094.2912,-257.9099"/>
</g>
<!-- Node35 -->
<g id="node36" class="node">
<title>Node35</title>
<g id="a_node36"><a xlink:href="threading_8h.html" target="_top" xlink:title="Threading utilities. ">
<polygon fill="#ffffff" stroke="#000000" points="841.5,-297 841.5,-316 969.5,-316 969.5,-297 841.5,-297"/>
<text text-anchor="middle" x="905.5" y="-304" font-family="Helvetica,sans-Serif" font-size="10.00" fill="#000000">jaegertracingc/threading.h</text>
</a>
</g>
</g>
<!-- Node0&#45;&gt;Node35 -->
<g id="edge51" class="edge">
<title>Node0&#45;&gt;Node35</title>
<path fill="none" stroke="#191970" d="M827.875,-358.3906C842.5931,-348.5519 865.6832,-333.1167 882.8589,-321.6351"/>
<polygon fill="#191970" stroke="#191970" points="884.8575,-324.5091 891.2259,-316.0419 880.9673,-318.6896 884.8575,-324.5091"/>
</g>
<!-- Node39 -->
<g id="node40" class="node">
<title>Node39</title>
<g id="a_node40"><a xlink:href="token__bucket_8h.html" target="_top" xlink:title="Token bucket implementation. ">
<polygon fill="#ffffff" stroke="#000000" points="643.5,-291.5 643.5,-321.5 747.5,-321.5 747.5,-291.5 643.5,-291.5"/>
<text text-anchor="start" x="651.5" y="-309.5" font-family="Helvetica,sans-Serif" font-size="10.00" fill="#000000">jaegertracingc/token</text>
<text text-anchor="middle" x="695.5" y="-298.5" font-family="Helvetica,sans-Serif" font-size="10.00" fill="#000000">_bucket.h</text>
</a>
</g>
</g>
<!-- Node0&#45;&gt;Node39 -->
<g id="edge56" class="edge">
<title>Node0&#45;&gt;Node39</title>
<path fill="none" stroke="#191970" d="M795.0625,-358.3906C778.5751,-349.7976 753.8968,-336.9356 733.2352,-326.1671"/>
<polygon fill="#191970" stroke="#191970" points="734.8516,-323.0627 724.366,-321.5446 731.6163,-329.2702 734.8516,-323.0627"/>
</g>
<!-- Node40 -->
<g id="node41" class="node">
<title>Node40</title>
<g id="a_node41"><a xlink:href="trace__id_8h.html" target="_top" xlink:title="Trace ID representation. ">
<polygon fill="#ffffff" stroke="#000000" points="1258,-297 1258,-316 1381,-316 1381,-297 1258,-297"/>
<text text-anchor="middle" x="1319.5" y="-304" font-family="Helvetica,sans-Serif" font-size="10.00" fill="#000000">jaegertracingc/trace_id.h</text>
</a>
</g>
</g>
<!-- Node0&#45;&gt;Node40 -->
<g id="edge59" class="edge">
<title>Node0&#45;&gt;Node40</title>
<path fill="none" stroke="#191970" d="M875.0145,-363.6306C959.5401,-357.1412 1116.1777,-343.374 1248.5,-322 1255.2784,-320.9051 1262.3835,-319.5752 1269.37,-318.1598"/>
<polygon fill="#191970" stroke="#191970" points="1270.4006,-321.5199 1279.4695,-316.0421 1268.964,-314.6689 1270.4006,-321.5199"/>
</g>
<!-- Node1&#45;&gt;Node2 -->
<g id="edge2" class="edge">
<title>Node1&#45;&gt;Node2</title>
<path fill="none" stroke="#191970" d="M711.9063,-229.8906C728.9353,-219.9165 755.7841,-204.1908 775.4651,-192.6633"/>
<polygon fill="#191970" stroke="#191970" points="777.349,-195.6161 784.209,-187.5419 773.8112,-189.5759 777.349,-195.6161"/>
</g>
<!-- Node3 -->
<g id="node4" class="node">
<title>Node3</title>
<g id="a_node4"><a xlink:href="config_8h_source.html" target="_top" xlink:title="jaegertracingc/config.h">
<polygon fill="#ffffff" stroke="#000000" points="743,-112.5 743,-131.5 858,-131.5 858,-112.5 743,-112.5"/>
<text text-anchor="middle" x="800.5" y="-119.5" font-family="Helvetica,sans-Serif" font-size="10.00" fill="#000000">jaegertracingc/config.h</text>
</a>
</g>
</g>
<!-- Node2&#45;&gt;Node3 -->
<g id="edge3" class="edge">
<title>Node2&#45;&gt;Node3</title>
<path fill="none" stroke="#191970" d="M800.5,-168.2455C800.5,-160.9382 800.5,-150.6944 800.5,-141.7046"/>
<polygon fill="#191970" stroke="#191970" points="804.0001,-141.6426 800.5,-131.6427 797.0001,-141.6427 804.0001,-141.6426"/>
</g>
<!-- Node5 -->
<g id="node6" class="node">
<title>Node5</title>
<polygon fill="#ffffff" stroke="#bfbfbf" points="1319.5,-56.5 1319.5,-75.5 1371.5,-75.5 1371.5,-56.5 1319.5,-56.5"/>
<text text-anchor="middle" x="1345.5" y="-63.5" font-family="Helvetica,sans-Serif" font-size="10.00" fill="#000000">assert.h</text>
</g>
<!-- Node2&#45;&gt;Node5 -->
<g id="edge5" class="edge">
<title>Node2&#45;&gt;Node5</title>
<path fill="none" stroke="#191970" d="M863.5181,-175.9932C993.3468,-171.3447 1281.5266,-158.1822 1317.5,-132 1332.4004,-121.1552 1339.4312,-100.7773 1342.7112,-85.5213"/>
<polygon fill="#191970" stroke="#191970" points="1346.1833,-85.9868 1344.4955,-75.5273 1339.2923,-84.7565 1346.1833,-85.9868"/>
</g>
<!-- Node6 -->
<g id="node7" class="node">
<title>Node6</title>
<polygon fill="#ffffff" stroke="#bfbfbf" points="350,-112.5 350,-131.5 399,-131.5 399,-112.5 350,-112.5"/>
<text text-anchor="middle" x="374.5" y="-119.5" font-family="Helvetica,sans-Serif" font-size="10.00" fill="#000000">ctype.h</text>
</g>
<!-- Node2&#45;&gt;Node6 -->
<g id="edge6" class="edge">
<title>Node2&#45;&gt;Node6</title>
<path fill="none" stroke="#191970" d="M737.3271,-174.0769C661.3524,-168.587 529.9326,-156.6332 409.3837,-132.1117"/>
<polygon fill="#191970" stroke="#191970" points="409.7459,-128.6126 399.2441,-130.0137 408.3275,-135.4674 409.7459,-128.6126"/>
</g>
<!-- Node7 -->
<g id="node8" class="node">
<title>Node7</title>
<polygon fill="#ffffff" stroke="#bfbfbf" points="417,-112.5 417,-131.5 476,-131.5 476,-112.5 417,-112.5"/>
<text text-anchor="middle" x="446.5" y="-119.5" font-family="Helvetica,sans-Serif" font-size="10.00" fill="#000000">inttypes.h</text>
</g>
<!-- Node2&#45;&gt;Node7 -->
<g id="edge7" class="edge">
<title>Node2&#45;&gt;Node7</title>
<path fill="none" stroke="#191970" d="M737.4087,-170.7838C675.754,-163.2805 579.0861,-150.3192 486.0932,-131.942"/>
<polygon fill="#191970" stroke="#191970" points="486.7281,-128.4998 476.2358,-129.9706 485.3552,-135.3638 486.7281,-128.4998"/>
</g>
<!-- Node8 -->
<g id="node9" class="node">
<title>Node8</title>
<polygon fill="#ffffff" stroke="#bfbfbf" points="494.5,-112.5 494.5,-131.5 542.5,-131.5 542.5,-112.5 494.5,-112.5"/>
<text text-anchor="middle" x="518.5" y="-119.5" font-family="Helvetica,sans-Serif" font-size="10.00" fill="#000000">limits.h</text>
</g>
<!-- Node2&#45;&gt;Node8 -->
<g id="edge8" class="edge">
<title>Node2&#45;&gt;Node8</title>
<path fill="none" stroke="#191970" d="M743.5668,-168.4456C693.9656,-159.841 620.2073,-146.3687 556.5,-132 555.2273,-131.713 553.9327,-131.413 552.6265,-131.1036"/>
<polygon fill="#191970" stroke="#191970" points="553.108,-127.6171 542.5595,-128.6069 551.4229,-134.4112 553.108,-127.6171"/>
</g>
<!-- Node9 -->
<g id="node10" class="node">
<title>Node9</title>
<polygon fill="#ffffff" stroke="#bfbfbf" points="806.5,-.5 806.5,-19.5 858.5,-19.5 858.5,-.5 806.5,-.5"/>
<text text-anchor="middle" x="832.5" y="-7.5" font-family="Helvetica,sans-Serif" font-size="10.00" fill="#000000">stdarg.h</text>
</g>
<!-- Node2&#45;&gt;Node9 -->
<g id="edge9" class="edge">
<title>Node2&#45;&gt;Node9</title>
<path fill="none" stroke="#191970" d="M737.4625,-172.852C682.184,-166.8743 607.8446,-154.7748 589.5,-132 583.9241,-125.0775 584.5791,-119.4025 589.5,-112 636.0207,-42.02 740.8652,-19.9515 796.4019,-13.0673"/>
<polygon fill="#191970" stroke="#191970" points="796.9572,-16.5268 806.4965,-11.9167 796.1644,-9.5718 796.9572,-16.5268"/>
</g>
<!-- Node10 -->
<g id="node11" class="node">
<title>Node10</title>
<polygon fill="#ffffff" stroke="#bfbfbf" points="598.5,-112.5 598.5,-131.5 654.5,-131.5 654.5,-112.5 598.5,-112.5"/>
<text text-anchor="middle" x="626.5" y="-119.5" font-family="Helvetica,sans-Serif" font-size="10.00" fill="#000000">stdbool.h</text>
</g>
<!-- Node2&#45;&gt;Node10 -->
<g id="edge10" class="edge">
<title>Node2&#45;&gt;Node10</title>
<path fill="none" stroke="#191970" d="M770.5883,-168.3733C741.2164,-158.9202 696.3016,-144.4649 664.4352,-134.209"/>
<polygon fill="#191970" stroke="#191970" points="665.1752,-130.7704 654.5837,-131.0384 663.0306,-137.4338 665.1752,-130.7704"/>
</g>
<!-- Node11 -->
<g id="node12" class="node">
<title>Node11</title>
<polygon fill="#ffffff" stroke="#bfbfbf" points="672.5,-112.5 672.5,-131.5 724.5,-131.5 724.5,-112.5 672.5,-112.5"/>
<text text-anchor="middle" x="698.5" y="-119.5" font-family="Helvetica,sans-Serif" font-size="10.00" fill="#000000">stddef.h</text>
</g>
<!-- Node2&#45;&gt;Node11 -->
<g id="edge11" class="edge">
<title>Node2&#45;&gt;Node11</title>
<path fill="none" stroke="#191970" d="M782.733,-168.2455C766.7905,-159.4928 743.1741,-146.527 725.0011,-136.5496"/>
<polygon fill="#191970" stroke="#191970" points="726.5137,-133.3873 716.0634,-131.6427 723.1448,-139.5233 726.5137,-133.3873"/>
</g>
<!-- Node12 -->
<g id="node13" class="node">
<title>Node12</title>
<polygon fill="#ffffff" stroke="#bfbfbf" points="1159,-56.5 1159,-75.5 1208,-75.5 1208,-56.5 1159,-56.5"/>
<text text-anchor="middle" x="1183.5" y="-63.5" font-family="Helvetica,sans-Serif" font-size="10.00" fill="#000000">stdint.h</text>
</g>
<!-- Node2&#45;&gt;Node12 -->
<g id="edge12" class="edge">
<title>Node2&#45;&gt;Node12</title>
<path fill="none" stroke="#191970" d="M863.7167,-174.7163C946.4601,-169.4847 1086.1697,-157.1678 1130.5,-132 1149.7892,-121.0489 1164.7569,-100.0679 1173.7935,-84.6911"/>
<polygon fill="#191970" stroke="#191970" points="1177.07,-85.9998 1178.8612,-75.5575 1170.949,-82.6036 1177.07,-85.9998"/>
</g>
<!-- Node13 -->
<g id="node14" class="node">
<title>Node13</title>
<polygon fill="#ffffff" stroke="#bfbfbf" points="1027.5,-.5 1027.5,-19.5 1073.5,-19.5 1073.5,-.5 1027.5,-.5"/>
<text text-anchor="middle" x="1050.5" y="-7.5" font-family="Helvetica,sans-Serif" font-size="10.00" fill="#000000">stdio.h</text>
</g>
<!-- Node2&#45;&gt;Node13 -->
<g id="edge13" class="edge">
<title>Node2&#45;&gt;Node13</title>
<path fill="none" stroke="#191970" d="M863.6015,-172.5703C946.2483,-164.8098 1082.4753,-149.5309 1097.5,-132 1124.2896,-100.7417 1089.528,-52.5379 1066.9839,-27.0897"/>
<polygon fill="#191970" stroke="#191970" points="1069.5252,-24.6824 1060.1872,-19.6772 1064.3658,-29.4132 1069.5252,-24.6824"/>
</g>
<!-- Node14 -->
<g id="node15" class="node">
<title>Node14</title>
<polygon fill="#ffffff" stroke="#bfbfbf" points="283.5,-112.5 283.5,-131.5 331.5,-131.5 331.5,-112.5 283.5,-112.5"/>
<text text-anchor="middle" x="307.5" y="-119.5" font-family="Helvetica,sans-Serif" font-size="10.00" fill="#000000">stdlib.h</text>
</g>
<!-- Node2&#45;&gt;Node14 -->
<g id="edge14" class="edge">
<title>Node2&#45;&gt;Node14</title>
<path fill="none" stroke="#191970" d="M737.4294,-175.5768C650.2675,-171.371 488.0921,-160.4602 341.586,-131.866"/>
<polygon fill="#191970" stroke="#191970" points="342.0031,-128.3806 331.5131,-129.8668 340.6404,-135.2467 342.0031,-128.3806"/>
</g>
<!-- Node15 -->
<g id="node16" class="node">
<title>Node15</title>
<polygon fill="#ffffff" stroke="#bfbfbf" points="1226,-56.5 1226,-75.5 1275,-75.5 1275,-56.5 1226,-56.5"/>
<text text-anchor="middle" x="1250.5" y="-63.5" font-family="Helvetica,sans-Serif" font-size="10.00" fill="#000000">string.h</text>
</g>
<!-- Node2&#45;&gt;Node15 -->
<g id="edge15" class="edge">
<title>Node2&#45;&gt;Node15</title>
<path fill="none" stroke="#191970" d="M863.935,-176.8486C992.1671,-173.8622 1272.5428,-163.7378 1301.5,-132 1316.5484,-115.5066 1294.9703,-94.9396 1275.4259,-81.1887"/>
<polygon fill="#191970" stroke="#191970" points="1277.268,-78.2102 1267.0081,-75.5671 1273.3804,-84.0314 1277.268,-78.2102"/>
</g>
<!-- Node16 -->
<g id="node17" class="node">
<title>Node16</title>
<polygon fill="#ffffff" stroke="#bfbfbf" points="914.5,-112.5 914.5,-131.5 958.5,-131.5 958.5,-112.5 914.5,-112.5"/>
<text text-anchor="middle" x="936.5" y="-119.5" font-family="Helvetica,sans-Serif" font-size="10.00" fill="#000000">time.h</text>
</g>
<!-- Node2&#45;&gt;Node16 -->
<g id="edge16" class="edge">
<title>Node2&#45;&gt;Node16</title>
<path fill="none" stroke="#191970" d="M823.8792,-168.3733C846.2727,-159.1524 880.225,-145.1721 904.9958,-134.9723"/>
<polygon fill="#191970" stroke="#191970" points="906.4123,-138.1742 914.3264,-131.1303 903.747,-131.7015 906.4123,-138.1742"/>
</g>
<!-- Node17 -->
<g id="node18" class="node">
<title>Node17</title>
<polygon fill="#ffffff" stroke="#bfbfbf" points="977,-112.5 977,-131.5 1088,-131.5 1088,-112.5 977,-112.5"/>
<text text-anchor="middle" x="1032.5" y="-119.5" font-family="Helvetica,sans-Serif" font-size="10.00" fill="#000000">opentracing&#45;c/tracer.h</text>
</g>
<!-- Node2&#45;&gt;Node17 -->
<g id="edge17" class="edge">
<title>Node2&#45;&gt;Node17</title>
<path fill="none" stroke="#191970" d="M840.1186,-168.4369C879.6568,-158.8932 940.5069,-144.2052 983.1582,-133.9101"/>
<polygon fill="#191970" stroke="#191970" points="984.1452,-137.2724 993.0448,-131.5237 982.5027,-130.4679 984.1452,-137.2724"/>
</g>
<!-- Node18 -->
<g id="node19" class="node">
<title>Node18</title>
<g id="a_node19"><a xlink:href="alloc_8h.html" target="_top" xlink:title="Allocator struct and functions. ">
<polygon fill="#ffffff" stroke="#000000" points="1183,-112.5 1183,-131.5 1292,-131.5 1292,-112.5 1183,-112.5"/>
<text text-anchor="middle" x="1237.5" y="-119.5" font-family="Helvetica,sans-Serif" font-size="10.00" fill="#000000">jaegertracingc/alloc.h</text>
</a>
</g>
</g>
<!-- Node2&#45;&gt;Node18 -->
<g id="edge18" class="edge">
<title>Node2&#45;&gt;Node18</title>
<path fill="none" stroke="#191970" d="M863.7126,-170.4797C937.0616,-161.6651 1061.6221,-146.4232 1168.5,-132 1169.962,-131.8027 1171.4411,-131.6015 1172.9325,-131.3973"/>
<polygon fill="#191970" stroke="#191970" points="1173.4768,-134.8554 1182.9006,-130.0136 1172.5143,-127.9219 1173.4768,-134.8554"/>
</g>
<!-- Node19 -->
<g id="node20" class="node">
<title>Node19</title>
<g id="a_node20"><a xlink:href="logging_8h.html" target="_top" xlink:title="Logging interface and initialization functions. ">
<polygon fill="#ffffff" stroke="#000000" points="925,-56.5 925,-75.5 1044,-75.5 1044,-56.5 925,-56.5"/>
<text text-anchor="middle" x="984.5" y="-63.5" font-family="Helvetica,sans-Serif" font-size="10.00" fill="#000000">jaegertracingc/logging.h</text>
</a>
</g>
</g>
<!-- Node2&#45;&gt;Node19 -->
<g id="edge25" class="edge">
<title>Node2&#45;&gt;Node19</title>
<path fill="none" stroke="#191970" d="M815.3549,-168.4405C835.6084,-155.458 873.0797,-131.6204 905.5,-112 923.1536,-101.3163 943.2525,-89.6195 958.7594,-80.6943"/>
<polygon fill="#191970" stroke="#191970" points="960.8277,-83.5428 967.7583,-75.5292 957.3431,-77.4717 960.8277,-83.5428"/>
</g>
<!-- Node4 -->
<g id="node5" class="node">
<title>Node4</title>
<g id="a_node5"><a xlink:href="visibility_8h_source.html" target="_top" xlink:title="jaegertracingc/visibility.h">
<polygon fill="#ffffff" stroke="#000000" points="738.5,-56.5 738.5,-75.5 862.5,-75.5 862.5,-56.5 738.5,-56.5"/>
<text text-anchor="middle" x="800.5" y="-63.5" font-family="Helvetica,sans-Serif" font-size="10.00" fill="#000000">jaegertracingc/visibility.h</text>
</a>
</g>
</g>
<!-- Node3&#45;&gt;Node4 -->
<g id="edge4" class="edge">
<title>Node3&#45;&gt;Node4</title>
<path fill="none" stroke="#191970" d="M800.5,-112.2455C800.5,-104.9382 800.5,-94.6944 800.5,-85.7046"/>
<polygon fill="#191970" stroke="#191970" points="804.0001,-85.6426 800.5,-75.6427 797.0001,-85.6427 804.0001,-85.6426"/>
</g>
<!-- Node18&#45;&gt;Node5 -->
<g id="edge19" class="edge">
<title>Node18&#45;&gt;Node5</title>
<path fill="none" stroke="#191970" d="M1256.3122,-112.2455C1273.3473,-103.4125 1298.6575,-90.2887 1317.9681,-80.2758"/>
<polygon fill="#191970" stroke="#191970" points="1319.637,-83.353 1326.9034,-75.6427 1316.4147,-77.1388 1319.637,-83.353"/>
</g>
<!-- Node18&#45;&gt;Node12 -->
<g id="edge20" class="edge">
<title>Node18&#45;&gt;Node12</title>
<path fill="none" stroke="#191970" d="M1228.0939,-112.2455C1220.3507,-104.2155 1209.188,-92.6394 1199.9682,-83.0781"/>
<polygon fill="#191970" stroke="#191970" points="1202.2591,-80.4117 1192.7983,-75.6427 1197.2202,-85.2706 1202.2591,-80.4117"/>
</g>
<!-- Node18&#45;&gt;Node15 -->
<g id="edge21" class="edge">
<title>Node18&#45;&gt;Node15</title>
<path fill="none" stroke="#191970" d="M1239.7644,-112.2455C1241.4794,-104.8579 1243.8912,-94.4689 1245.9944,-85.4087"/>
<polygon fill="#191970" stroke="#191970" points="1249.4095,-86.1751 1248.2615,-75.6427 1242.5908,-84.5922 1249.4095,-86.1751"/>
</g>
<!-- Node18&#45;&gt;Node19 -->
<g id="edge22" class="edge">
<title>Node18&#45;&gt;Node19</title>
<path fill="none" stroke="#191970" d="M1194.2952,-112.4369C1150.9053,-102.8328 1083.9791,-88.0191 1037.4274,-77.7152"/>
<polygon fill="#191970" stroke="#191970" points="1038.0467,-74.2676 1027.5266,-75.5237 1036.5338,-81.1022 1038.0467,-74.2676"/>
</g>
<!-- Node19&#45;&gt;Node9 -->
<g id="edge23" class="edge">
<title>Node19&#45;&gt;Node9</title>
<path fill="none" stroke="#191970" d="M958.3703,-56.3733C933.4232,-47.1822 895.6408,-33.2624 867.9794,-23.0713"/>
<polygon fill="#191970" stroke="#191970" points="868.8822,-19.674 858.2888,-19.5011 866.4622,-26.2424 868.8822,-19.674"/>
</g>
<!-- Node19&#45;&gt;Node13 -->
<g id="edge24" class="edge">
<title>Node19&#45;&gt;Node13</title>
<path fill="none" stroke="#191970" d="M995.9963,-56.2455C1005.7442,-47.9746 1019.9259,-35.9416 1031.3798,-26.2232"/>
<polygon fill="#191970" stroke="#191970" points="1033.7747,-28.7813 1039.1354,-19.6427 1029.2459,-23.4437 1033.7747,-28.7813"/>
</g>
<!-- Node20&#45;&gt;Node2 -->
<g id="edge28" class="edge">
<title>Node20&#45;&gt;Node2</title>
<path fill="none" stroke="#191970" d="M436.7223,-296.9365C466.193,-279.9423 530.9018,-244.3594 589.5,-224 634.4872,-208.3696 686.78,-196.925 728.0519,-189.3606"/>
<polygon fill="#191970" stroke="#191970" points="728.8025,-192.7819 738.0258,-187.5685 727.5644,-185.8922 728.8025,-192.7819"/>
</g>
<!-- Node21&#45;&gt;Node2 -->
<g id="edge30" class="edge">
<title>Node21&#45;&gt;Node2</title>
<path fill="none" stroke="#191970" d="M568.3828,-296.9231C575.9196,-279.5815 594.2242,-243.0177 621.5,-224 640.1798,-210.9757 693.1755,-198.2526 736.6902,-189.5007"/>
<polygon fill="#191970" stroke="#191970" points="737.5338,-192.9018 746.6656,-187.5296 736.1768,-186.0346 737.5338,-192.9018"/>
</g>
<!-- Node22&#45;&gt;Node2 -->
<g id="edge39" class="edge">
<title>Node22&#45;&gt;Node2</title>
<path fill="none" stroke="#191970" d="M377.6767,-232.86C461.9507,-221.9257 630.2315,-200.0918 727.1541,-187.5164"/>
<polygon fill="#191970" stroke="#191970" points="727.7027,-190.9747 737.1692,-186.217 726.8019,-184.0328 727.7027,-190.9747"/>
</g>
<!-- Node22&#45;&gt;Node14 -->
<g id="edge34" class="edge">
<title>Node22&#45;&gt;Node14</title>
<path fill="none" stroke="#191970" d="M356.0946,-229.9108C387.9047,-217.9363 431.6257,-195.6247 413.5,-168 409.1989,-161.4449 370.6232,-145.7421 341.2369,-134.5083"/>
<polygon fill="#191970" stroke="#191970" points="342.2775,-131.1598 331.6861,-130.8896 339.7973,-137.7057 342.2775,-131.1598"/>
</g>
<!-- Node23 -->
<g id="node24" class="node">
<title>Node23</title>
<polygon fill="#ffffff" stroke="#bfbfbf" points="461,-168.5 461,-187.5 510,-187.5 510,-168.5 461,-168.5"/>
<text text-anchor="middle" x="485.5" y="-175.5" font-family="Helvetica,sans-Serif" font-size="10.00" fill="#000000">netdb.h</text>
</g>
<!-- Node22&#45;&gt;Node23 -->
<g id="edge32" class="edge">
<title>Node22&#45;&gt;Node23</title>
<path fill="none" stroke="#191970" d="M351.3438,-229.8906C378.1807,-219.5103 421.1233,-202.9004 451.1753,-191.2766"/>
<polygon fill="#191970" stroke="#191970" points="452.7667,-194.4138 460.8307,-187.5419 450.2414,-187.8851 452.7667,-194.4138"/>
</g>
<!-- Node24 -->
<g id="node25" class="node">
<title>Node24</title>
<polygon fill="#ffffff" stroke="#bfbfbf" points="0,-168.5 0,-187.5 65,-187.5 65,-168.5 0,-168.5"/>
<text text-anchor="middle" x="32.5" y="-175.5" font-family="Helvetica,sans-Serif" font-size="10.00" fill="#000000">netinet/in.h</text>
</g>
<!-- Node22&#45;&gt;Node24 -->
<g id="edge33" class="edge">
<title>Node22&#45;&gt;Node24</title>
<path fill="none" stroke="#191970" d="M276.9319,-229.9945C228.0332,-220.4863 150.9097,-205.1404 75.3171,-188.3521"/>
<polygon fill="#191970" stroke="#191970" points="75.6695,-184.8447 65.1472,-186.0825 74.1448,-191.6766 75.6695,-184.8447"/>
</g>
<!-- Node25 -->
<g id="node26" class="node">
<title>Node25</title>
<polygon fill="#ffffff" stroke="#bfbfbf" points="83,-168.5 83,-187.5 156,-187.5 156,-168.5 83,-168.5"/>
<text text-anchor="middle" x="119.5" y="-175.5" font-family="Helvetica,sans-Serif" font-size="10.00" fill="#000000">sys/socket.h</text>
</g>
<!-- Node22&#45;&gt;Node25 -->
<g id="edge35" class="edge">
<title>Node22&#45;&gt;Node25</title>
<path fill="none" stroke="#191970" d="M294.1563,-229.8906C258.382,-219.2621 200.6253,-202.1025 161.4095,-190.4514"/>
<polygon fill="#191970" stroke="#191970" points="162.1993,-187.0349 151.6166,-187.5419 160.2057,-193.745 162.1993,-187.0349"/>
</g>
<!-- Node26 -->
<g id="node27" class="node">
<title>Node26</title>
<polygon fill="#ffffff" stroke="#bfbfbf" points="174.5,-168.5 174.5,-187.5 242.5,-187.5 242.5,-168.5 174.5,-168.5"/>
<text text-anchor="middle" x="208.5" y="-175.5" font-family="Helvetica,sans-Serif" font-size="10.00" fill="#000000">sys/types.h</text>
</g>
<!-- Node22&#45;&gt;Node26 -->
<g id="edge36" class="edge">
<title>Node22&#45;&gt;Node26</title>
<path fill="none" stroke="#191970" d="M308.0625,-229.8906C288.6653,-219.7811 257.931,-203.7628 235.7383,-192.1962"/>
<polygon fill="#191970" stroke="#191970" points="237.2936,-189.06 226.808,-187.5419 234.0582,-195.2675 237.2936,-189.06"/>
</g>
<!-- Node27 -->
<g id="node28" class="node">
<title>Node27</title>
<polygon fill="#ffffff" stroke="#bfbfbf" points="261,-168.5 261,-187.5 312,-187.5 312,-168.5 261,-168.5"/>
<text text-anchor="middle" x="286.5" y="-175.5" font-family="Helvetica,sans-Serif" font-size="10.00" fill="#000000">unistd.h</text>
</g>
<!-- Node22&#45;&gt;Node27 -->
<g id="edge37" class="edge">
<title>Node22&#45;&gt;Node27</title>
<path fill="none" stroke="#191970" d="M320.25,-229.8906C314.4135,-220.917 305.5491,-207.2879 298.3694,-196.2491"/>
<polygon fill="#191970" stroke="#191970" points="301.2245,-194.2194 292.8381,-187.7449 295.3564,-198.0361 301.2245,-194.2194"/>
</g>
<!-- Node28 -->
<g id="node29" class="node">
<title>Node28</title>
<polygon fill="#ffffff" stroke="#bfbfbf" points="330.5,-168.5 330.5,-187.5 404.5,-187.5 404.5,-168.5 330.5,-168.5"/>
<text text-anchor="middle" x="367.5" y="-175.5" font-family="Helvetica,sans-Serif" font-size="10.00" fill="#000000">http_parser.h</text>
</g>
<!-- Node22&#45;&gt;Node28 -->
<g id="edge38" class="edge">
<title>Node22&#45;&gt;Node28</title>
<path fill="none" stroke="#191970" d="M332.9063,-229.8906C338.8886,-220.917 347.9747,-207.2879 355.3339,-196.2491"/>
<polygon fill="#191970" stroke="#191970" points="358.3686,-198.0068 361.0034,-187.7449 352.5442,-194.1239 358.3686,-198.0068"/>
</g>
<!-- Node29&#45;&gt;Node2 -->
<g id="edge41" class="edge">
<title>Node29&#45;&gt;Node2</title>
<path fill="none" stroke="#191970" d="M1452.5801,-291.4934C1444.0579,-272.1281 1426.3439,-239.1322 1399.5,-224 1354.703,-198.7474 1023.4257,-185.1026 873.6549,-180.1679"/>
<polygon fill="#191970" stroke="#191970" points="873.7328,-176.6686 863.6242,-179.8415 873.5051,-183.6649 873.7328,-176.6686"/>
</g>
<!-- Node30 -->
<g id="node31" class="node">
<title>Node30</title>
<g id="a_node31"><a xlink:href="sampling_8pb-c_8h_source.html" target="_top" xlink:title="jaegertracingc/protoc\l&#45;gen/sampling.pb&#45;c.h">
<polygon fill="#ffffff" stroke="#000000" points="1468,-224.5 1468,-254.5 1575,-254.5 1575,-224.5 1468,-224.5"/>
<text text-anchor="start" x="1476" y="-242.5" font-family="Helvetica,sans-Serif" font-size="10.00" fill="#000000">jaegertracingc/protoc</text>
<text text-anchor="middle" x="1521.5" y="-231.5" font-family="Helvetica,sans-Serif" font-size="10.00" fill="#000000">&#45;gen/sampling.pb&#45;c.h</text>
</a>
</g>
</g>
<!-- Node29&#45;&gt;Node30 -->
<g id="edge42" class="edge">
<title>Node29&#45;&gt;Node30</title>
<path fill="none" stroke="#191970" d="M1472.7957,-291.2967C1480.9312,-282.6446 1491.2752,-271.6438 1500.3361,-262.0076"/>
<polygon fill="#191970" stroke="#191970" points="1502.9604,-264.326 1507.2609,-254.6432 1497.8608,-259.5308 1502.9604,-264.326"/>
</g>
<!-- Node31 -->
<g id="node32" class="node">
<title>Node31</title>
<polygon fill="#ffffff" stroke="#bfbfbf" points="1365,-168.5 1365,-187.5 1480,-187.5 1480,-168.5 1365,-168.5"/>
<text text-anchor="middle" x="1422.5" y="-175.5" font-family="Helvetica,sans-Serif" font-size="10.00" fill="#000000">protobuf&#45;c/protobuf&#45;c.h</text>
</g>
<!-- Node30&#45;&gt;Node31 -->
<g id="edge43" class="edge">
<title>Node30&#45;&gt;Node31</title>
<path fill="none" stroke="#191970" d="M1497.2819,-224.4554C1481.9227,-214.9141 1462.1243,-202.6151 1446.7575,-193.0691"/>
<polygon fill="#191970" stroke="#191970" points="1448.1828,-189.8341 1437.8415,-187.5303 1444.489,-195.7802 1448.1828,-189.8341"/>
</g>
<!-- Node32&#45;&gt;Node2 -->
<g id="edge46" class="edge">
<title>Node32&#45;&gt;Node2</title>
<path fill="none" stroke="#191970" d="M1190.9879,-296.7775C1194.7561,-279.5311 1199.6017,-243.5618 1180.5,-224 1159.4946,-202.4887 978.2838,-188.4029 873.8724,-181.9942"/>
<polygon fill="#191970" stroke="#191970" points="873.899,-178.4895 863.706,-181.3796 873.4765,-185.4768 873.899,-178.4895"/>
</g>
<!-- Node32&#45;&gt;Node18 -->
<g id="edge45" class="edge">
<title>Node32&#45;&gt;Node18</title>
<path fill="none" stroke="#191970" d="M1191.0655,-296.8402C1198.7887,-267.76 1221.9273,-180.636 1232.332,-141.459"/>
<polygon fill="#191970" stroke="#191970" points="1235.7758,-142.1275 1234.9599,-131.5641 1229.0103,-140.3307 1235.7758,-142.1275"/>
</g>
<!-- Node33 -->
<g id="node34" class="node">
<title>Node33</title>
<g id="a_node34"><a xlink:href="jaeger_8pb-c_8h_source.html" target="_top" xlink:title="jaegertracingc/protoc\l&#45;gen/jaeger.pb&#45;c.h">
<polygon fill="#ffffff" stroke="#000000" points="1266,-224.5 1266,-254.5 1373,-254.5 1373,-224.5 1266,-224.5"/>
<text text-anchor="start" x="1274" y="-242.5" font-family="Helvetica,sans-Serif" font-size="10.00" fill="#000000">jaegertracingc/protoc</text>
<text text-anchor="middle" x="1319.5" y="-231.5" font-family="Helvetica,sans-Serif" font-size="10.00" fill="#000000">&#45;gen/jaeger.pb&#45;c.h</text>
</a>
</g>
</g>
<!-- Node32&#45;&gt;Node33 -->
<g id="edge47" class="edge">
<title>Node32&#45;&gt;Node33</title>
<path fill="none" stroke="#191970" d="M1207.2691,-296.9005C1226.4654,-287.0826 1256.8355,-271.5498 1281.1449,-259.1167"/>
<polygon fill="#191970" stroke="#191970" points="1282.8197,-262.1914 1290.1291,-254.5218 1279.6322,-255.9592 1282.8197,-262.1914"/>
</g>
<!-- Node32&#45;&gt;Node34 -->
<g id="edge49" class="edge">
<title>Node32&#45;&gt;Node34</title>
<path fill="none" stroke="#191970" d="M1177.7543,-296.9005C1165.836,-286.2535 1146.3943,-268.8856 1132.0132,-256.0385"/>
<polygon fill="#191970" stroke="#191970" points="1134.0151,-253.1337 1124.2257,-249.0817 1129.3516,-258.354 1134.0151,-253.1337"/>
</g>
<!-- Node33&#45;&gt;Node31 -->
<g id="edge48" class="edge">
<title>Node33&#45;&gt;Node31</title>
<path fill="none" stroke="#191970" d="M1344.6966,-224.4554C1360.8272,-214.8241 1381.6638,-202.3828 1397.7136,-192.7996"/>
<polygon fill="#191970" stroke="#191970" points="1399.747,-195.662 1406.5387,-187.5303 1396.1584,-189.6518 1399.747,-195.662"/>
</g>
<!-- Node34&#45;&gt;Node2 -->
<g id="edge50" class="edge">
<title>Node34&#45;&gt;Node2</title>
<path fill="none" stroke="#191970" d="M1073.5269,-229.9597C1064.6447,-227.9216 1055.2649,-225.8325 1046.5,-224 985.2266,-211.1896 915.0051,-198.2287 865.3146,-189.3441"/>
<polygon fill="#191970" stroke="#191970" points="865.8056,-185.8765 855.3465,-187.5672 864.5771,-192.7679 865.8056,-185.8765"/>
</g>
<!-- Node35&#45;&gt;Node2 -->
<g id="edge52" class="edge">
<title>Node35&#45;&gt;Node2</title>
<path fill="none" stroke="#191970" d="M888.591,-296.8973C873.6095,-287.7076 851.9337,-272.6576 837.5,-255 823.3322,-237.6677 813.0089,-214.0063 806.9217,-197.5043"/>
<polygon fill="#191970" stroke="#191970" points="810.1433,-196.1141 803.5354,-187.8324 803.5366,-198.4272 810.1433,-196.1141"/>
</g>
<!-- Node36 -->
<g id="node37" class="node">
<title>Node36</title>
<polygon fill="#ffffff" stroke="#bfbfbf" points="846,-230 846,-249 893,-249 893,-230 846,-230"/>
<text text-anchor="middle" x="869.5" y="-237" font-family="Helvetica,sans-Serif" font-size="10.00" fill="#000000">errno.h</text>
</g>
<!-- Node35&#45;&gt;Node36 -->
<g id="edge53" class="edge">
<title>Node35&#45;&gt;Node36</title>
<path fill="none" stroke="#191970" d="M900.3421,-296.9005C894.9421,-286.8505 886.3245,-270.8122 879.5694,-258.2403"/>
<polygon fill="#191970" stroke="#191970" points="882.4647,-256.234 874.6484,-249.0817 876.2984,-259.5472 882.4647,-256.234"/>
</g>
<!-- Node37 -->
<g id="node38" class="node">
<title>Node37</title>
<polygon fill="#ffffff" stroke="#bfbfbf" points="911,-230 911,-249 968,-249 968,-230 911,-230"/>
<text text-anchor="middle" x="939.5" y="-237" font-family="Helvetica,sans-Serif" font-size="10.00" fill="#000000">pthread.h</text>
</g>
<!-- Node35&#45;&gt;Node37 -->
<g id="edge54" class="edge">
<title>Node35&#45;&gt;Node37</title>
<path fill="none" stroke="#191970" d="M910.3714,-296.9005C915.4714,-286.8505 923.6102,-270.8122 929.99,-258.2403"/>
<polygon fill="#191970" stroke="#191970" points="933.2334,-259.583 934.6377,-249.0817 926.9912,-256.4153 933.2334,-259.583"/>
</g>
<!-- Node38 -->
<g id="node39" class="node">
<title>Node38</title>
<polygon fill="#ffffff" stroke="#bfbfbf" points="986,-230 986,-249 1037,-249 1037,-230 986,-230"/>
<text text-anchor="middle" x="1011.5" y="-237" font-family="Helvetica,sans-Serif" font-size="10.00" fill="#000000">sched.h</text>
</g>
<!-- Node35&#45;&gt;Node38 -->
<g id="edge55" class="edge">
<title>Node35&#45;&gt;Node38</title>
<path fill="none" stroke="#191970" d="M920.6872,-296.9005C938.2403,-285.8057 967.3394,-267.4128 987.8598,-254.4424"/>
<polygon fill="#191970" stroke="#191970" points="989.758,-257.3832 996.341,-249.0817 986.0179,-251.4661 989.758,-257.3832"/>
</g>
<!-- Node39&#45;&gt;Node1 -->
<g id="edge57" class="edge">
<title>Node39&#45;&gt;Node1</title>
<path fill="none" stroke="#191970" d="M695.5,-291.2967C695.5,-281.7699 695.5,-269.3954 695.5,-259.1306"/>
<polygon fill="#191970" stroke="#191970" points="699.0001,-259.0549 695.5,-249.055 692.0001,-259.055 699.0001,-259.0549"/>
</g>
<!-- Node39&#45;&gt;Node2 -->
<g id="edge58" class="edge">
<title>Node39&#45;&gt;Node2</title>
<path fill="none" stroke="#191970" d="M669.3073,-291.3943C644.1125,-274.9262 612.3246,-247.7471 630.5,-224 642.689,-208.0744 687.0263,-196.3913 727.3632,-188.7847"/>
<polygon fill="#191970" stroke="#191970" points="728.0279,-192.2213 737.239,-186.9861 726.7737,-185.3345 728.0279,-192.2213"/>
</g>
<!-- Node40&#45;&gt;Node2 -->
<g id="edge60" class="edge">
<title>Node40&#45;&gt;Node2</title>
<path fill="none" stroke="#191970" d="M1336.1579,-296.8902C1361.6838,-281.0143 1405.2493,-248.6183 1382.5,-224 1365.4685,-205.5692 1026.377,-188.1212 873.7938,-181.1688"/>
<polygon fill="#191970" stroke="#191970" points="873.7258,-177.6622 863.5777,-180.7063 873.4091,-184.655 873.7258,-177.6622"/>
</g>
<!-- Node40&#45;&gt;Node33 -->
<g id="edge61" class="edge">
<title>Node40&#45;&gt;Node33</title>
<path fill="none" stroke="#191970" d="M1319.5,-296.9005C1319.5,-288.5099 1319.5,-275.9451 1319.5,-264.7085"/>
<polygon fill="#191970" stroke="#191970" points="1323.0001,-264.5217 1319.5,-254.5218 1316.0001,-264.5218 1323.0001,-264.5217"/>
</g>
</g>
</svg>
