<?xml version="1.0" encoding="UTF-8" standalone="no"?>
<!DOCTYPE svg PUBLIC "-//W3C//DTD SVG 1.1//EN"
 "http://www.w3.org/Graphics/SVG/1.1/DTD/svg11.dtd">
<!-- Generated by graphviz version 2.40.1 (20161225.0304)
 -->
<!-- Title: jaegertracingc/sampling_strategy.h Pages: 1 -->
<svg width="1226pt" height="274pt"
 viewBox="0.00 0.00 1226.00 274.00" xmlns="http://www.w3.org/2000/svg" xmlns:xlink="http://www.w3.org/1999/xlink">
<g id="graph0" class="graph" transform="scale(1 1) rotate(0) translate(4 270)">
<title>jaegertracingc/sampling_strategy.h</title>
<polygon fill="#ffffff" stroke="transparent" points="-4,4 -4,-270 1222,-270 1222,4 -4,4"/>
<!-- Node0 -->
<g id="node1" class="node">
<title>Node0</title>
<polygon fill="#bfbfbf" stroke="#000000" points="530,-235.5 530,-265.5 649,-265.5 649,-235.5 530,-235.5"/>
<text text-anchor="start" x="538" y="-253.5" font-family="Helvetica,sans-Serif" font-size="10.00" fill="#000000">jaegertracingc/sampling</text>
<text text-anchor="middle" x="589.5" y="-242.5" font-family="Helvetica,sans-Serif" font-size="10.00" fill="#000000">_strategy.h</text>
</g>
<!-- Node1 -->
<g id="node2" class="node">
<title>Node1</title>
<g id="a_node2"><a xlink:href="common_8h.html" target="_top" xlink:title="Common headers, struct definitions, and macros. ">
<polygon fill="#ffffff" stroke="#000000" points="459.5,-174 459.5,-193 585.5,-193 585.5,-174 459.5,-174"/>
<text text-anchor="middle" x="522.5" y="-181" font-family="Helvetica,sans-Serif" font-size="10.00" fill="#000000">jaegertracingc/common.h</text>
</a>
</g>
</g>
<!-- Node0&#45;&gt;Node1 -->
<g id="edge1" class="edge">
<title>Node0&#45;&gt;Node1</title>
<path fill="none" stroke="#191970" d="M574.2967,-235.2967C563.8578,-224.8578 549.9997,-210.9997 539.2446,-200.2446"/>
<polygon fill="#191970" stroke="#191970" points="541.601,-197.6512 532.055,-193.055 536.6512,-202.601 541.601,-197.6512"/>
</g>
<!-- Node19 -->
<g id="node20" class="node">
<title>Node19</title>
<g id="a_node20"><a xlink:href="sampling_8pb-c_8h_source.html" target="_top" xlink:title="jaegertracingc/protoc\l&#45;gen/sampling.pb&#45;c.h">
<polygon fill="#ffffff" stroke="#000000" points="855,-168.5 855,-198.5 962,-198.5 962,-168.5 855,-168.5"/>
<text text-anchor="start" x="863" y="-186.5" font-family="Helvetica,sans-Serif" font-size="10.00" fill="#000000">jaegertracingc/protoc</text>
<text text-anchor="middle" x="908.5" y="-175.5" font-family="Helvetica,sans-Serif" font-size="10.00" fill="#000000">&#45;gen/sampling.pb&#45;c.h</text>
</a>
</g>
</g>
<!-- Node0&#45;&gt;Node19 -->
<g id="edge25" class="edge">
<title>Node0&#45;&gt;Node19</title>
<path fill="none" stroke="#191970" d="M649.1272,-237.9764C704.926,-226.2569 788.0117,-208.8063 845.0241,-196.8319"/>
<polygon fill="#191970" stroke="#191970" points="845.9328,-200.2175 854.9998,-194.7367 844.4939,-193.367 845.9328,-200.2175"/>
</g>
<!-- Node2 -->
<g id="node3" class="node">
<title>Node2</title>
<g id="a_node3"><a xlink:href="config_8h_source.html" target="_top" xlink:title="jaegertracingc/config.h">
<polygon fill="#ffffff" stroke="#000000" points="864,-112.5 864,-131.5 979,-131.5 979,-112.5 864,-112.5"/>
<text text-anchor="middle" x="921.5" y="-119.5" font-family="Helvetica,sans-Serif" font-size="10.00" fill="#000000">jaegertracingc/config.h</text>
</a>
</g>
</g>
<!-- Node1&#45;&gt;Node2 -->
<g id="edge2" class="edge">
<title>Node1&#45;&gt;Node2</title>
<path fill="none" stroke="#191970" d="M584.406,-173.9581C657.3669,-162.7122 778.1993,-144.0877 853.6499,-132.4581"/>
<polygon fill="#191970" stroke="#191970" points="854.6353,-135.8476 863.9854,-130.865 853.5689,-128.9293 854.6353,-135.8476"/>
</g>
<!-- Node4 -->
<g id="node5" class="node">
<title>Node4</title>
<polygon fill="#ffffff" stroke="#bfbfbf" points="322.5,-56.5 322.5,-75.5 374.5,-75.5 374.5,-56.5 322.5,-56.5"/>
<text text-anchor="middle" x="348.5" y="-63.5" font-family="Helvetica,sans-Serif" font-size="10.00" fill="#000000">assert.h</text>
</g>
<!-- Node1&#45;&gt;Node4 -->
<g id="edge4" class="edge">
<title>Node1&#45;&gt;Node4</title>
<path fill="none" stroke="#191970" d="M473.8154,-173.9963C445.4941,-166.4687 410.557,-153.5245 385.5,-132 371.0672,-119.6019 361.1218,-100.1052 355.2062,-85.5115"/>
<polygon fill="#191970" stroke="#191970" points="358.3975,-84.0536 351.6044,-75.9231 351.8446,-86.5153 358.3975,-84.0536"/>
</g>
<!-- Node5 -->
<g id="node6" class="node">
<title>Node5</title>
<polygon fill="#ffffff" stroke="#bfbfbf" points="1036,-112.5 1036,-131.5 1085,-131.5 1085,-112.5 1036,-112.5"/>
<text text-anchor="middle" x="1060.5" y="-119.5" font-family="Helvetica,sans-Serif" font-size="10.00" fill="#000000">ctype.h</text>
</g>
<!-- Node1&#45;&gt;Node5 -->
<g id="edge5" class="edge">
<title>Node1&#45;&gt;Node5</title>
<path fill="none" stroke="#191970" d="M585.5426,-179.9978C680.6182,-174.0402 866.1097,-159.7825 1021.5,-132 1022.9622,-131.7386 1024.4503,-131.4517 1025.95,-131.1453"/>
<polygon fill="#191970" stroke="#191970" points="1026.8811,-134.5232 1035.8634,-128.9047 1025.3378,-127.6954 1026.8811,-134.5232"/>
</g>
<!-- Node6 -->
<g id="node7" class="node">
<title>Node6</title>
<polygon fill="#ffffff" stroke="#bfbfbf" points="0,-112.5 0,-131.5 59,-131.5 59,-112.5 0,-112.5"/>
<text text-anchor="middle" x="29.5" y="-119.5" font-family="Helvetica,sans-Serif" font-size="10.00" fill="#000000">inttypes.h</text>
</g>
<!-- Node1&#45;&gt;Node6 -->
<g id="edge6" class="edge">
<title>Node1&#45;&gt;Node6</title>
<path fill="none" stroke="#191970" d="M459.3036,-179.1018C373.199,-172.4957 214.1301,-158.1109 69.1845,-131.896"/>
<polygon fill="#191970" stroke="#191970" points="69.6837,-128.4293 59.2167,-130.0702 68.4224,-135.3147 69.6837,-128.4293"/>
</g>
<!-- Node7 -->
<g id="node8" class="node">
<title>Node7</title>
<polygon fill="#ffffff" stroke="#bfbfbf" points="77.5,-112.5 77.5,-131.5 125.5,-131.5 125.5,-112.5 77.5,-112.5"/>
<text text-anchor="middle" x="101.5" y="-119.5" font-family="Helvetica,sans-Serif" font-size="10.00" fill="#000000">limits.h</text>
</g>
<!-- Node1&#45;&gt;Node7 -->
<g id="edge7" class="edge">
<title>Node1&#45;&gt;Node7</title>
<path fill="none" stroke="#191970" d="M459.4141,-177.4352C383.1776,-169.5506 251.2185,-154.1228 139.5,-132 138.2202,-131.7466 136.9195,-131.4752 135.6082,-131.19"/>
<polygon fill="#191970" stroke="#191970" points="136.0561,-127.6993 125.5186,-128.8002 134.4427,-134.5108 136.0561,-127.6993"/>
</g>
<!-- Node8 -->
<g id="node9" class="node">
<title>Node8</title>
<polygon fill="#ffffff" stroke="#bfbfbf" points="846.5,-.5 846.5,-19.5 898.5,-19.5 898.5,-.5 846.5,-.5"/>
<text text-anchor="middle" x="872.5" y="-7.5" font-family="Helvetica,sans-Serif" font-size="10.00" fill="#000000">stdarg.h</text>
</g>
<!-- Node1&#45;&gt;Node8 -->
<g id="edge8" class="edge">
<title>Node1&#45;&gt;Node8</title>
<path fill="none" stroke="#191970" d="M585.5084,-181.0649C706.298,-175.7517 960.8934,-161.1875 987.5,-132 1010.2573,-107.0352 1007.48,-83.9445 988.5,-56 970.7446,-29.8586 935.5627,-18.573 908.5774,-13.701"/>
<polygon fill="#191970" stroke="#191970" points="909.1151,-10.2426 898.6897,-12.1301 908.0167,-17.1559 909.1151,-10.2426"/>
</g>
<!-- Node9 -->
<g id="node10" class="node">
<title>Node9</title>
<polygon fill="#ffffff" stroke="#bfbfbf" points="181.5,-112.5 181.5,-131.5 237.5,-131.5 237.5,-112.5 181.5,-112.5"/>
<text text-anchor="middle" x="209.5" y="-119.5" font-family="Helvetica,sans-Serif" font-size="10.00" fill="#000000">stdbool.h</text>
</g>
<!-- Node1&#45;&gt;Node9 -->
<g id="edge9" class="edge">
<title>Node1&#45;&gt;Node9</title>
<path fill="none" stroke="#191970" d="M464.071,-173.9853C410.2048,-164.8996 327.8542,-150.2183 247.51,-132.1022"/>
<polygon fill="#191970" stroke="#191970" points="248.2512,-128.6814 237.7239,-129.876 246.6984,-135.5071 248.2512,-128.6814"/>
</g>
<!-- Node10 -->
<g id="node11" class="node">
<title>Node10</title>
<polygon fill="#ffffff" stroke="#bfbfbf" points="255.5,-112.5 255.5,-131.5 307.5,-131.5 307.5,-112.5 255.5,-112.5"/>
<text text-anchor="middle" x="281.5" y="-119.5" font-family="Helvetica,sans-Serif" font-size="10.00" fill="#000000">stddef.h</text>
</g>
<!-- Node1&#45;&gt;Node10 -->
<g id="edge10" class="edge">
<title>Node1&#45;&gt;Node10</title>
<path fill="none" stroke="#191970" d="M485.1082,-173.9581C439.4796,-162.3143 362.8536,-142.7604 317.7497,-131.2504"/>
<polygon fill="#191970" stroke="#191970" points="318.3679,-127.7961 307.813,-128.7147 316.637,-134.5787 318.3679,-127.7961"/>
</g>
<!-- Node11 -->
<g id="node12" class="node">
<title>Node11</title>
<polygon fill="#ffffff" stroke="#bfbfbf" points="444,-56.5 444,-75.5 493,-75.5 493,-56.5 444,-56.5"/>
<text text-anchor="middle" x="468.5" y="-63.5" font-family="Helvetica,sans-Serif" font-size="10.00" fill="#000000">stdint.h</text>
</g>
<!-- Node1&#45;&gt;Node11 -->
<g id="edge11" class="edge">
<title>Node1&#45;&gt;Node11</title>
<path fill="none" stroke="#191970" d="M459.2021,-174.1015C434.0956,-166.9306 407.6439,-154.2882 392.5,-132 377.3892,-109.7605 407.8945,-90.4131 434.6423,-78.5148"/>
<polygon fill="#191970" stroke="#191970" points="436.0122,-81.7357 443.8658,-74.6243 433.2916,-75.286 436.0122,-81.7357"/>
</g>
<!-- Node12 -->
<g id="node13" class="node">
<title>Node12</title>
<polygon fill="#ffffff" stroke="#bfbfbf" points="580.5,-.5 580.5,-19.5 626.5,-19.5 626.5,-.5 580.5,-.5"/>
<text text-anchor="middle" x="603.5" y="-7.5" font-family="Helvetica,sans-Serif" font-size="10.00" fill="#000000">stdio.h</text>
</g>
<!-- Node1&#45;&gt;Node12 -->
<g id="edge12" class="edge">
<title>Node1&#45;&gt;Node12</title>
<path fill="none" stroke="#191970" d="M459.3986,-178.6444C363.6978,-170.6324 190.9662,-153.3822 172.5,-132 166.6901,-125.2726 167.5076,-119.3545 172.5,-112 217.7224,-45.3808 477.4031,-19.4972 570.3883,-12.2845"/>
<polygon fill="#191970" stroke="#191970" points="570.6656,-15.7737 580.3745,-11.5326 570.1399,-8.7934 570.6656,-15.7737"/>
</g>
<!-- Node13 -->
<g id="node14" class="node">
<title>Node13</title>
<polygon fill="#ffffff" stroke="#bfbfbf" points="401.5,-112.5 401.5,-131.5 449.5,-131.5 449.5,-112.5 401.5,-112.5"/>
<text text-anchor="middle" x="425.5" y="-119.5" font-family="Helvetica,sans-Serif" font-size="10.00" fill="#000000">stdlib.h</text>
</g>
<!-- Node1&#45;&gt;Node13 -->
<g id="edge13" class="edge">
<title>Node1&#45;&gt;Node13</title>
<path fill="none" stroke="#191970" d="M507.3438,-173.8906C491.8257,-164.0519 467.4807,-148.6167 449.3716,-137.1351"/>
<polygon fill="#191970" stroke="#191970" points="450.8696,-133.9407 440.5498,-131.5419 447.1213,-139.8526 450.8696,-133.9407"/>
</g>
<!-- Node14 -->
<g id="node15" class="node">
<title>Node14</title>
<polygon fill="#ffffff" stroke="#bfbfbf" points="536,-56.5 536,-75.5 585,-75.5 585,-56.5 536,-56.5"/>
<text text-anchor="middle" x="560.5" y="-63.5" font-family="Helvetica,sans-Serif" font-size="10.00" fill="#000000">string.h</text>
</g>
<!-- Node1&#45;&gt;Node14 -->
<g id="edge14" class="edge">
<title>Node1&#45;&gt;Node14</title>
<path fill="none" stroke="#191970" d="M585.7838,-179.6626C653.2866,-174.0929 753.7254,-161.0561 777.5,-132 783.129,-125.1205 783.0959,-118.9064 777.5,-112 754.9518,-84.171 650.6038,-72.4974 595.2333,-68.1945"/>
<polygon fill="#191970" stroke="#191970" points="595.4035,-64.6976 585.1729,-67.4521 594.8882,-71.6787 595.4035,-64.6976"/>
</g>
<!-- Node15 -->
<g id="node16" class="node">
<title>Node15</title>
<polygon fill="#ffffff" stroke="#bfbfbf" points="595.5,-112.5 595.5,-131.5 639.5,-131.5 639.5,-112.5 595.5,-112.5"/>
<text text-anchor="middle" x="617.5" y="-119.5" font-family="Helvetica,sans-Serif" font-size="10.00" fill="#000000">time.h</text>
</g>
<!-- Node1&#45;&gt;Node15 -->
<g id="edge15" class="edge">
<title>Node1&#45;&gt;Node15</title>
<path fill="none" stroke="#191970" d="M537.3438,-173.8906C552.5418,-164.0519 576.3848,-148.6167 594.1206,-137.1351"/>
<polygon fill="#191970" stroke="#191970" points="596.268,-139.9144 602.7605,-131.5419 592.4639,-134.0382 596.268,-139.9144"/>
</g>
<!-- Node16 -->
<g id="node17" class="node">
<title>Node16</title>
<polygon fill="#ffffff" stroke="#bfbfbf" points="658,-112.5 658,-131.5 769,-131.5 769,-112.5 658,-112.5"/>
<text text-anchor="middle" x="713.5" y="-119.5" font-family="Helvetica,sans-Serif" font-size="10.00" fill="#000000">opentracing&#45;c/tracer.h</text>
</g>
<!-- Node1&#45;&gt;Node16 -->
<g id="edge16" class="edge">
<title>Node1&#45;&gt;Node16</title>
<path fill="none" stroke="#191970" d="M552.3438,-173.8906C585.1425,-163.3298 637.9672,-146.3208 674.1364,-134.6747"/>
<polygon fill="#191970" stroke="#191970" points="675.4198,-137.9385 683.8658,-131.5419 673.2743,-131.2753 675.4198,-137.9385"/>
</g>
<!-- Node17 -->
<g id="node18" class="node">
<title>Node17</title>
<g id="a_node18"><a xlink:href="alloc_8h.html" target="_top" xlink:title="Allocator struct and functions. ">
<polygon fill="#ffffff" stroke="#000000" points="468,-112.5 468,-131.5 577,-131.5 577,-112.5 468,-112.5"/>
<text text-anchor="middle" x="522.5" y="-119.5" font-family="Helvetica,sans-Serif" font-size="10.00" fill="#000000">jaegertracingc/alloc.h</text>
</a>
</g>
</g>
<!-- Node1&#45;&gt;Node17 -->
<g id="edge17" class="edge">
<title>Node1&#45;&gt;Node17</title>
<path fill="none" stroke="#191970" d="M522.5,-173.8906C522.5,-165.3657 522.5,-152.6392 522.5,-141.9235"/>
<polygon fill="#191970" stroke="#191970" points="526.0001,-141.7448 522.5,-131.7449 519.0001,-141.7449 526.0001,-141.7448"/>
</g>
<!-- Node18 -->
<g id="node19" class="node">
<title>Node18</title>
<g id="a_node19"><a xlink:href="logging_8h.html" target="_top" xlink:title="Logging interface and initialization functions. ">
<polygon fill="#ffffff" stroke="#000000" points="679,-56.5 679,-75.5 798,-75.5 798,-56.5 679,-56.5"/>
<text text-anchor="middle" x="738.5" y="-63.5" font-family="Helvetica,sans-Serif" font-size="10.00" fill="#000000">jaegertracingc/logging.h</text>
</a>
</g>
</g>
<!-- Node1&#45;&gt;Node18 -->
<g id="edge24" class="edge">
<title>Node1&#45;&gt;Node18</title>
<path fill="none" stroke="#191970" d="M585.7768,-180.5775C657.6981,-175.774 768.515,-163.3666 794.5,-132 809.1795,-114.2803 786.2626,-94.1452 765.4734,-80.8239"/>
<polygon fill="#191970" stroke="#191970" points="767.1733,-77.7614 756.8099,-75.5589 763.5378,-83.7433 767.1733,-77.7614"/>
</g>
<!-- Node3 -->
<g id="node4" class="node">
<title>Node3</title>
<g id="a_node4"><a xlink:href="visibility_8h_source.html" target="_top" xlink:title="jaegertracingc/visibility.h">
<polygon fill="#ffffff" stroke="#000000" points="855.5,-56.5 855.5,-75.5 979.5,-75.5 979.5,-56.5 855.5,-56.5"/>
<text text-anchor="middle" x="917.5" y="-63.5" font-family="Helvetica,sans-Serif" font-size="10.00" fill="#000000">jaegertracingc/visibility.h</text>
</a>
</g>
</g>
<!-- Node2&#45;&gt;Node3 -->
<g id="edge3" class="edge">
<title>Node2&#45;&gt;Node3</title>
<path fill="none" stroke="#191970" d="M920.8033,-112.2455C920.2813,-104.9382 919.5496,-94.6944 918.9075,-85.7046"/>
<polygon fill="#191970" stroke="#191970" points="922.3924,-85.3679 918.1888,-75.6427 915.4102,-85.8667 922.3924,-85.3679"/>
</g>
<!-- Node17&#45;&gt;Node4 -->
<g id="edge18" class="edge">
<title>Node17&#45;&gt;Node4</title>
<path fill="none" stroke="#191970" d="M492.5883,-112.3733C462.6026,-102.7227 416.4178,-87.8586 384.455,-77.5717"/>
<polygon fill="#191970" stroke="#191970" points="385.2072,-74.1371 374.6157,-74.4051 383.0626,-80.8005 385.2072,-74.1371"/>
</g>
<!-- Node17&#45;&gt;Node11 -->
<g id="edge19" class="edge">
<title>Node17&#45;&gt;Node11</title>
<path fill="none" stroke="#191970" d="M513.0939,-112.2455C505.3507,-104.2155 494.188,-92.6394 484.9682,-83.0781"/>
<polygon fill="#191970" stroke="#191970" points="487.2591,-80.4117 477.7983,-75.6427 482.2202,-85.2706 487.2591,-80.4117"/>
</g>
<!-- Node17&#45;&gt;Node14 -->
<g id="edge20" class="edge">
<title>Node17&#45;&gt;Node14</title>
<path fill="none" stroke="#191970" d="M529.1191,-112.2455C534.4046,-104.4564 541.9541,-93.3308 548.3238,-83.9439"/>
<polygon fill="#191970" stroke="#191970" points="551.2379,-85.8827 553.9568,-75.6427 545.4455,-81.9522 551.2379,-85.8827"/>
</g>
<!-- Node17&#45;&gt;Node18 -->
<g id="edge21" class="edge">
<title>Node17&#45;&gt;Node18</title>
<path fill="none" stroke="#191970" d="M559.6317,-112.3733C596.3267,-102.8598 652.5639,-88.2797 692.1651,-78.0127"/>
<polygon fill="#191970" stroke="#191970" points="693.0512,-81.3988 701.8528,-75.5011 691.2944,-74.6228 693.0512,-81.3988"/>
</g>
<!-- Node18&#45;&gt;Node8 -->
<g id="edge22" class="edge">
<title>Node18&#45;&gt;Node8</title>
<path fill="none" stroke="#191970" d="M761.5354,-56.3733C783.2388,-47.3032 815.9618,-33.6279 840.255,-23.4755"/>
<polygon fill="#191970" stroke="#191970" points="841.8881,-26.5865 849.7652,-19.5011 839.1889,-20.1278 841.8881,-26.5865"/>
</g>
<!-- Node18&#45;&gt;Node12 -->
<g id="edge23" class="edge">
<title>Node18&#45;&gt;Node12</title>
<path fill="none" stroke="#191970" d="M715.2927,-56.3733C693.3301,-47.2629 660.1668,-33.5062 635.6599,-23.3404"/>
<polygon fill="#191970" stroke="#191970" points="636.9824,-20.0999 626.4045,-19.5011 634.3003,-26.5657 636.9824,-20.0999"/>
</g>
<!-- Node20 -->
<g id="node21" class="node">
<title>Node20</title>
<polygon fill="#ffffff" stroke="#bfbfbf" points="1103,-112.5 1103,-131.5 1218,-131.5 1218,-112.5 1103,-112.5"/>
<text text-anchor="middle" x="1160.5" y="-119.5" font-family="Helvetica,sans-Serif" font-size="10.00" fill="#000000">protobuf&#45;c/protobuf&#45;c.h</text>
</g>
<!-- Node19&#45;&gt;Node20 -->
<g id="edge26" class="edge">
<title>Node19&#45;&gt;Node20</title>
<path fill="none" stroke="#191970" d="M962.2512,-170.3821C1006.4124,-159.6047 1068.4575,-144.4627 1111.3207,-134.0021"/>
<polygon fill="#191970" stroke="#191970" points="1112.3556,-137.3523 1121.2407,-131.5811 1110.6959,-130.5519 1112.3556,-137.3523"/>
</g>
</g>
</svg>
