<?xml version="1.0" encoding="UTF-8" standalone="no"?>
<!DOCTYPE svg PUBLIC "-//W3C//DTD SVG 1.1//EN"
 "http://www.w3.org/Graphics/SVG/1.1/DTD/svg11.dtd">
<!-- Generated by graphviz version 2.40.1 (20161225.0304)
 -->
<!-- Title: jaegertracingc/sampler.h Pages: 1 -->
<svg width="1571pt" height="386pt"
 viewBox="0.00 0.00 1571.00 386.00" xmlns="http://www.w3.org/2000/svg" xmlns:xlink="http://www.w3.org/1999/xlink">
<g id="graph0" class="graph" transform="scale(1 1) rotate(0) translate(4 382)">
<title>jaegertracingc/sampler.h</title>
<polygon fill="#ffffff" stroke="transparent" points="-4,4 -4,-382 1567,-382 1567,4 -4,4"/>
<!-- Node0 -->
<g id="node1" class="node">
<title>Node0</title>
<polygon fill="#bfbfbf" stroke="#000000" points="740,-358.5 740,-377.5 863,-377.5 863,-358.5 740,-358.5"/>
<text text-anchor="middle" x="801.5" y="-365.5" font-family="Helvetica,sans-Serif" font-size="10.00" fill="#000000">jaegertracingc/sampler.h</text>
</g>
<!-- Node1 -->
<g id="node2" class="node">
<title>Node1</title>
<g id="a_node2"><a xlink:href="clock_8h.html" target="_top" xlink:title="Timestamp and duration representations. ">
<polygon fill="#ffffff" stroke="#000000" points="627.5,-230 627.5,-249 739.5,-249 739.5,-230 627.5,-230"/>
<text text-anchor="middle" x="683.5" y="-237" font-family="Helvetica,sans-Serif" font-size="10.00" fill="#000000">jaegertracingc/clock.h</text>
</a>
</g>
</g>
<!-- Node0&#45;&gt;Node1 -->
<g id="edge1" class="edge">
<title>Node0&#45;&gt;Node1</title>
<path fill="none" stroke="#191970" d="M795.4784,-358.4503C785.7236,-343.3335 765.4374,-313.3202 744.5,-291 732.4442,-278.148 717.3174,-265.359 705.1435,-255.7404"/>
<polygon fill="#191970" stroke="#191970" points="706.9352,-252.7009 696.8871,-249.3414 702.647,-258.2337 706.9352,-252.7009"/>
</g>
<!-- Node2 -->
<g id="node3" class="node">
<title>Node2</title>
<g id="a_node3"><a xlink:href="common_8h.html" target="_top" xlink:title="Common headers, struct definitions, and macros. ">
<polygon fill="#ffffff" stroke="#000000" points="725.5,-168.5 725.5,-187.5 851.5,-187.5 851.5,-168.5 725.5,-168.5"/>
<text text-anchor="middle" x="788.5" y="-175.5" font-family="Helvetica,sans-Serif" font-size="10.00" fill="#000000">jaegertracingc/common.h</text>
</a>
</g>
</g>
<!-- Node0&#45;&gt;Node2 -->
<g id="edge26" class="edge">
<title>Node0&#45;&gt;Node2</title>
<path fill="none" stroke="#191970" d="M800.8375,-358.3167C798.8081,-328.6573 792.6482,-238.6278 789.8768,-198.1229"/>
<polygon fill="#191970" stroke="#191970" points="793.3513,-197.6294 789.1768,-187.8917 786.3677,-198.1073 793.3513,-197.6294"/>
</g>
<!-- Node20 -->
<g id="node21" class="node">
<title>Node20</title>
<g id="a_node21"><a xlink:href="constants_8h_source.html" target="_top" xlink:title="jaegertracingc/constants.h">
<polygon fill="#ffffff" stroke="#000000" points="343,-297 343,-316 474,-316 474,-297 343,-297"/>
<text text-anchor="middle" x="408.5" y="-304" font-family="Helvetica,sans-Serif" font-size="10.00" fill="#000000">jaegertracingc/constants.h</text>
</a>
</g>
</g>
<!-- Node0&#45;&gt;Node20 -->
<g id="edge27" class="edge">
<title>Node0&#45;&gt;Node20</title>
<path fill="none" stroke="#191970" d="M739.8637,-360.288C675.4768,-351.9568 571.627,-337.7441 482.5,-322 475.8129,-320.8187 468.8064,-319.4819 461.8828,-318.1006"/>
<polygon fill="#191970" stroke="#191970" points="462.342,-314.6224 451.8449,-316.058 460.9461,-321.4818 462.342,-314.6224"/>
</g>
<!-- Node21 -->
<g id="node22" class="node">
<title>Node21</title>
<g id="a_node22"><a xlink:href="metrics_8h.html" target="_top" xlink:title="Metrics interfaces to track various numbers while tracing. ">
<polygon fill="#ffffff" stroke="#000000" points="492,-297 492,-316 613,-316 613,-297 492,-297"/>
<text text-anchor="middle" x="552.5" y="-304" font-family="Helvetica,sans-Serif" font-size="10.00" fill="#000000">jaegertracingc/metrics.h</text>
</a>
</g>
</g>
<!-- Node0&#45;&gt;Node21 -->
<g id="edge29" class="edge">
<title>Node0&#45;&gt;Node21</title>
<path fill="none" stroke="#191970" d="M762.867,-358.4581C719.2519,-347.6857 648.2247,-330.1428 600.9359,-318.4631"/>
<polygon fill="#191970" stroke="#191970" points="601.7712,-315.0643 591.2237,-316.0643 600.0927,-321.8601 601.7712,-315.0643"/>
</g>
<!-- Node22 -->
<g id="node23" class="node">
<title>Node22</title>
<g id="a_node23"><a xlink:href="net_8h.html" target="_top" xlink:title="Network utilities. ">
<polygon fill="#ffffff" stroke="#000000" points="263.5,-230 263.5,-249 365.5,-249 365.5,-230 263.5,-230"/>
<text text-anchor="middle" x="314.5" y="-237" font-family="Helvetica,sans-Serif" font-size="10.00" fill="#000000">jaegertracingc/net.h</text>
</a>
</g>
</g>
<!-- Node0&#45;&gt;Node22 -->
<g id="edge31" class="edge">
<title>Node0&#45;&gt;Node22</title>
<path fill="none" stroke="#191970" d="M739.5383,-365.8857C619.2854,-361.2139 363.3903,-348.2798 333.5,-322 315.8759,-306.5048 312.845,-278.2466 313.0595,-259.173"/>
<polygon fill="#191970" stroke="#191970" points="316.5569,-259.3067 313.4751,-249.17 309.5629,-259.0161 316.5569,-259.3067"/>
</g>
<!-- Node29 -->
<g id="node30" class="node">
<title>Node29</title>
<g id="a_node30"><a xlink:href="sampling__strategy_8h.html" target="_top" xlink:title="Sampling strategy type definitions. ">
<polygon fill="#ffffff" stroke="#000000" points="1387,-291.5 1387,-321.5 1506,-321.5 1506,-291.5 1387,-291.5"/>
<text text-anchor="start" x="1395" y="-309.5" font-family="Helvetica,sans-Serif" font-size="10.00" fill="#000000">jaegertracingc/sampling</text>
<text text-anchor="middle" x="1446.5" y="-298.5" font-family="Helvetica,sans-Serif" font-size="10.00" fill="#000000">_strategy.h</text>
</a>
</g>
</g>
<!-- Node0&#45;&gt;Node29 -->
<g id="edge40" class="edge">
<title>Node0&#45;&gt;Node29</title>
<path fill="none" stroke="#191970" d="M863.3216,-366.0034C967.4871,-361.9973 1184.6601,-350.8873 1376.886,-322.1171"/>
<polygon fill="#191970" stroke="#191970" points="1377.5271,-325.56 1386.8894,-320.6003 1376.4777,-318.6391 1377.5271,-325.56"/>
</g>
<!-- Node32 -->
<g id="node33" class="node">
<title>Node32</title>
<g id="a_node33"><a xlink:href="tag_8h.html" target="_top" xlink:title="Tag representation and functions. ">
<polygon fill="#ffffff" stroke="#000000" points="1125.5,-297 1125.5,-316 1227.5,-316 1227.5,-297 1125.5,-297"/>
<text text-anchor="middle" x="1176.5" y="-304" font-family="Helvetica,sans-Serif" font-size="10.00" fill="#000000">jaegertracingc/tag.h</text>
</a>
</g>
</g>
<!-- Node0&#45;&gt;Node32 -->
<g id="edge44" class="edge">
<title>Node0&#45;&gt;Node32</title>
<path fill="none" stroke="#191970" d="M859.6823,-358.4581C929.0948,-347.0745 1044.6086,-328.1302 1115.3182,-316.5338"/>
<polygon fill="#191970" stroke="#191970" points="1116.1132,-319.9503 1125.4149,-314.878 1114.9803,-313.0426 1116.1132,-319.9503"/>
</g>
<!-- Node34 -->
<g id="node35" class="node">
<title>Node34</title>
<g id="a_node35"><a xlink:href="vector_8h.html" target="_top" xlink:title="C generic vector implementation. ">
<polygon fill="#ffffff" stroke="#000000" points="1043.5,-230 1043.5,-249 1159.5,-249 1159.5,-230 1043.5,-230"/>
<text text-anchor="middle" x="1101.5" y="-237" font-family="Helvetica,sans-Serif" font-size="10.00" fill="#000000">jaegertracingc/vector.h</text>
</a>
</g>
</g>
<!-- Node0&#45;&gt;Node34 -->
<g id="edge62" class="edge">
<title>Node0&#45;&gt;Node34</title>
<path fill="none" stroke="#191970" d="M848.9152,-358.4523C882.553,-350.8045 928.3206,-338.6038 966.5,-322 1009.0855,-303.48 1054.3028,-273.4395 1080.1022,-255.1727"/>
<polygon fill="#191970" stroke="#191970" points="1082.2912,-257.9099 1088.3818,-249.2406 1078.2143,-252.2196 1082.2912,-257.9099"/>
</g>
<!-- Node35 -->
<g id="node36" class="node">
<title>Node35</title>
<g id="a_node36"><a xlink:href="threading_8h.html" target="_top" xlink:title="Threading utilities. ">
<polygon fill="#ffffff" stroke="#000000" points="829.5,-297 829.5,-316 957.5,-316 957.5,-297 829.5,-297"/>
<text text-anchor="middle" x="893.5" y="-304" font-family="Helvetica,sans-Serif" font-size="10.00" fill="#000000">jaegertracingc/threading.h</text>
</a>
</g>
</g>
<!-- Node0&#45;&gt;Node35 -->
<g id="edge51" class="edge">
<title>Node0&#45;&gt;Node35</title>
<path fill="none" stroke="#191970" d="M815.875,-358.3906C830.5931,-348.5519 853.6832,-333.1167 870.8589,-321.6351"/>
<polygon fill="#191970" stroke="#191970" points="872.8575,-324.5091 879.2259,-316.0419 868.9673,-318.6896 872.8575,-324.5091"/>
</g>
<!-- Node39 -->
<g id="node40" class="node">
<title>Node39</title>
<g id="a_node40"><a xlink:href="token__bucket_8h.html" target="_top" xlink:title="Token bucket implementation. ">
<polygon fill="#ffffff" stroke="#000000" points="631.5,-291.5 631.5,-321.5 735.5,-321.5 735.5,-291.5 631.5,-291.5"/>
<text text-anchor="start" x="639.5" y="-309.5" font-family="Helvetica,sans-Serif" font-size="10.00" fill="#000000">jaegertracingc/token</text>
<text text-anchor="middle" x="683.5" y="-298.5" font-family="Helvetica,sans-Serif" font-size="10.00" fill="#000000">_bucket.h</text>
</a>
</g>
</g>
<!-- Node0&#45;&gt;Node39 -->
<g id="edge56" class="edge">
<title>Node0&#45;&gt;Node39</title>
<path fill="none" stroke="#191970" d="M783.0625,-358.3906C766.5751,-349.7976 741.8968,-336.9356 721.2352,-326.1671"/>
<polygon fill="#191970" stroke="#191970" points="722.8516,-323.0627 712.366,-321.5446 719.6163,-329.2702 722.8516,-323.0627"/>
</g>
<!-- Node40 -->
<g id="node41" class="node">
<title>Node40</title>
<g id="a_node41"><a xlink:href="trace__id_8h.html" target="_top" xlink:title="Trace ID representation. ">
<polygon fill="#ffffff" stroke="#000000" points="1246,-297 1246,-316 1369,-316 1369,-297 1246,-297"/>
<text text-anchor="middle" x="1307.5" y="-304" font-family="Helvetica,sans-Serif" font-size="10.00" fill="#000000">jaegertracingc/trace_id.h</text>
</a>
</g>
</g>
<!-- Node0&#45;&gt;Node40 -->
<g id="edge59" class="edge">
<title>Node0&#45;&gt;Node40</title>
<path fill="none" stroke="#191970" d="M863.0145,-363.6306C947.5401,-357.1412 1104.1777,-343.374 1236.5,-322 1243.2784,-320.9051 1250.3835,-319.5752 1257.37,-318.1598"/>
<polygon fill="#191970" stroke="#191970" points="1258.4006,-321.5199 1267.4695,-316.0421 1256.964,-314.6689 1258.4006,-321.5199"/>
</g>
<!-- Node1&#45;&gt;Node2 -->
<g id="edge2" class="edge">
<title>Node1&#45;&gt;Node2</title>
<path fill="none" stroke="#191970" d="M699.9063,-229.8906C716.9353,-219.9165 743.7841,-204.1908 763.4651,-192.6633"/>
<polygon fill="#191970" stroke="#191970" points="765.349,-195.6161 772.209,-187.5419 761.8112,-189.5759 765.349,-195.6161"/>
</g>
<!-- Node3 -->
<g id="node4" class="node">
<title>Node3</title>
<g id="a_node4"><a xlink:href="config_8h_source.html" target="_top" xlink:title="jaegertracingc/config.h">
<polygon fill="#ffffff" stroke="#000000" points="731,-112.5 731,-131.5 846,-131.5 846,-112.5 731,-112.5"/>
<text text-anchor="middle" x="788.5" y="-119.5" font-family="Helvetica,sans-Serif" font-size="10.00" fill="#000000">jaegertracingc/config.h</text>
</a>
</g>
</g>
<!-- Node2&#45;&gt;Node3 -->
<g id="edge3" class="edge">
<title>Node2&#45;&gt;Node3</title>
<path fill="none" stroke="#191970" d="M788.5,-168.2455C788.5,-160.9382 788.5,-150.6944 788.5,-141.7046"/>
<polygon fill="#191970" stroke="#191970" points="792.0001,-141.6426 788.5,-131.6427 785.0001,-141.6427 792.0001,-141.6426"/>
</g>
<!-- Node5 -->
<g id="node6" class="node">
<title>Node5</title>
<polygon fill="#ffffff" stroke="#bfbfbf" points="1307.5,-56.5 1307.5,-75.5 1359.5,-75.5 1359.5,-56.5 1307.5,-56.5"/>
<text text-anchor="middle" x="1333.5" y="-63.5" font-family="Helvetica,sans-Serif" font-size="10.00" fill="#000000">assert.h</text>
</g>
<!-- Node2&#45;&gt;Node5 -->
<g id="edge5" class="edge">
<title>Node2&#45;&gt;Node5</title>
<path fill="none" stroke="#191970" d="M851.5181,-175.9932C981.3468,-171.3447 1269.5266,-158.1822 1305.5,-132 1320.4004,-121.1552 1327.4312,-100.7773 1330.7112,-85.5213"/>
<polygon fill="#191970" stroke="#191970" points="1334.1833,-85.9868 1332.4955,-75.5273 1327.2923,-84.7565 1334.1833,-85.9868"/>
</g>
<!-- Node6 -->
<g id="node7" class="node">
<title>Node6</title>
<polygon fill="#ffffff" stroke="#bfbfbf" points="338,-112.5 338,-131.5 387,-131.5 387,-112.5 338,-112.5"/>
<text text-anchor="middle" x="362.5" y="-119.5" font-family="Helvetica,sans-Serif" font-size="10.00" fill="#000000">ctype.h</text>
</g>
<!-- Node2&#45;&gt;Node6 -->
<g id="edge6" class="edge">
<title>Node2&#45;&gt;Node6</title>
<path fill="none" stroke="#191970" d="M725.3271,-174.0769C649.3524,-168.587 517.9326,-156.6332 397.3837,-132.1117"/>
<polygon fill="#191970" stroke="#191970" points="397.7459,-128.6126 387.2441,-130.0137 396.3275,-135.4674 397.7459,-128.6126"/>
</g>
<!-- Node7 -->
<g id="node8" class="node">
<title>Node7</title>
<polygon fill="#ffffff" stroke="#bfbfbf" points="405,-112.5 405,-131.5 464,-131.5 464,-112.5 405,-112.5"/>
<text text-anchor="middle" x="434.5" y="-119.5" font-family="Helvetica,sans-Serif" font-size="10.00" fill="#000000">inttypes.h</text>
</g>
<!-- Node2&#45;&gt;Node7 -->
<g id="edge7" class="edge">
<title>Node2&#45;&gt;Node7</title>
<path fill="none" stroke="#191970" d="M725.4087,-170.7838C663.754,-163.2805 567.0861,-150.3192 474.0932,-131.942"/>
<polygon fill="#191970" stroke="#191970" points="474.7281,-128.4998 464.2358,-129.9706 473.3552,-135.3638 474.7281,-128.4998"/>
</g>
<!-- Node8 -->
<g id="node9" class="node">
<title>Node8</title>
<polygon fill="#ffffff" stroke="#bfbfbf" points="482.5,-112.5 482.5,-131.5 530.5,-131.5 530.5,-112.5 482.5,-112.5"/>
<text text-anchor="middle" x="506.5" y="-119.5" font-family="Helvetica,sans-Serif" font-size="10.00" fill="#000000">limits.h</text>
</g>
<!-- Node2&#45;&gt;Node8 -->
<g id="edge8" class="edge">
<title>Node2&#45;&gt;Node8</title>
<path fill="none" stroke="#191970" d="M731.5668,-168.4456C681.9656,-159.841 608.2073,-146.3687 544.5,-132 543.2273,-131.713 541.9327,-131.413 540.6265,-131.1036"/>
<polygon fill="#191970" stroke="#191970" points="541.108,-127.6171 530.5595,-128.6069 539.4229,-134.4112 541.108,-127.6171"/>
</g>
<!-- Node9 -->
<g id="node10" class="node">
<title>Node9</title>
<polygon fill="#ffffff" stroke="#bfbfbf" points="794.5,-.5 794.5,-19.5 846.5,-19.5 846.5,-.5 794.5,-.5"/>
<text text-anchor="middle" x="820.5" y="-7.5" font-family="Helvetica,sans-Serif" font-size="10.00" fill="#000000">stdarg.h</text>
</g>
<!-- Node2&#45;&gt;Node9 -->
<g id="edge9" class="edge">
<title>Node2&#45;&gt;Node9</title>
<path fill="none" stroke="#191970" d="M725.4625,-172.852C670.184,-166.8743 595.8446,-154.7748 577.5,-132 571.9241,-125.0775 572.5791,-119.4025 577.5,-112 624.0207,-42.02 728.8652,-19.9515 784.4019,-13.0673"/>
<polygon fill="#191970" stroke="#191970" points="784.9572,-16.5268 794.4965,-11.9167 784.1644,-9.5718 784.9572,-16.5268"/>
</g>
<!-- Node10 -->
<g id="node11" class="node">
<title>Node10</title>
<polygon fill="#ffffff" stroke="#bfbfbf" points="586.5,-112.5 586.5,-131.5 642.5,-131.5 642.5,-112.5 586.5,-112.5"/>
<text text-anchor="middle" x="614.5" y="-119.5" font-family="Helvetica,sans-Serif" font-size="10.00" fill="#000000">stdbool.h</text>
</g>
<!-- Node2&#45;&gt;Node10 -->
<g id="edge10" class="edge">
<title>Node2&#45;&gt;Node10</title>
<path fill="none" stroke="#191970" d="M758.5883,-168.3733C729.2164,-158.9202 684.3016,-144.4649 652.4352,-134.209"/>
<polygon fill="#191970" stroke="#191970" points="653.1752,-130.7704 642.5837,-131.0384 651.0306,-137.4338 653.1752,-130.7704"/>
</g>
<!-- Node11 -->
<g id="node12" class="node">
<title>Node11</title>
<polygon fill="#ffffff" stroke="#bfbfbf" points="660.5,-112.5 660.5,-131.5 712.5,-131.5 712.5,-112.5 660.5,-112.5"/>
<text text-anchor="middle" x="686.5" y="-119.5" font-family="Helvetica,sans-Serif" font-size="10.00" fill="#000000">stddef.h</text>
</g>
<!-- Node2&#45;&gt;Node11 -->
<g id="edge11" class="edge">
<title>Node2&#45;&gt;Node11</title>
<path fill="none" stroke="#191970" d="M770.733,-168.2455C754.7905,-159.4928 731.1741,-146.527 713.0011,-136.5496"/>
<polygon fill="#191970" stroke="#191970" points="714.5137,-133.3873 704.0634,-131.6427 711.1448,-139.5233 714.5137,-133.3873"/>
</g>
<!-- Node12 -->
<g id="node13" class="node">
<title>Node12</title>
<polygon fill="#ffffff" stroke="#bfbfbf" points="1147,-56.5 1147,-75.5 1196,-75.5 1196,-56.5 1147,-56.5"/>
<text text-anchor="middle" x="1171.5" y="-63.5" font-family="Helvetica,sans-Serif" font-size="10.00" fill="#000000">stdint.h</text>
</g>
<!-- Node2&#45;&gt;Node12 -->
<g id="edge12" class="edge">
<title>Node2&#45;&gt;Node12</title>
<path fill="none" stroke="#191970" d="M851.7167,-174.7163C934.4601,-169.4847 1074.1697,-157.1678 1118.5,-132 1137.7892,-121.0489 1152.7569,-100.0679 1161.7935,-84.6911"/>
<polygon fill="#191970" stroke="#191970" points="1165.07,-85.9998 1166.8612,-75.5575 1158.949,-82.6036 1165.07,-85.9998"/>
</g>
<!-- Node13 -->
<g id="node14" class="node">
<title>Node13</title>
<polygon fill="#ffffff" stroke="#bfbfbf" points="1015.5,-.5 1015.5,-19.5 1061.5,-19.5 1061.5,-.5 1015.5,-.5"/>
<text text-anchor="middle" x="1038.5" y="-7.5" font-family="Helvetica,sans-Serif" font-size="10.00" fill="#000000">stdio.h</text>
</g>
<!-- Node2&#45;&gt;Node13 -->
<g id="edge13" class="edge">
<title>Node2&#45;&gt;Node13</title>
<path fill="none" stroke="#191970" d="M851.6015,-172.5703C934.2483,-164.8098 1070.4753,-149.5309 1085.5,-132 1112.2896,-100.7417 1077.528,-52.5379 1054.9839,-27.0897"/>
<polygon fill="#191970" stroke="#191970" points="1057.5252,-24.6824 1048.1872,-19.6772 1052.3658,-29.4132 1057.5252,-24.6824"/>
</g>
<!-- Node14 -->
<g id="node15" class="node">
<title>Node14</title>
<polygon fill="#ffffff" stroke="#bfbfbf" points="271.5,-112.5 271.5,-131.5 319.5,-131.5 319.5,-112.5 271.5,-112.5"/>
<text text-anchor="middle" x="295.5" y="-119.5" font-family="Helvetica,sans-Serif" font-size="10.00" fill="#000000">stdlib.h</text>
</g>
<!-- Node2&#45;&gt;Node14 -->
<g id="edge14" class="edge">
<title>Node2&#45;&gt;Node14</title>
<path fill="none" stroke="#191970" d="M725.4294,-175.5768C638.2675,-171.371 476.0921,-160.4602 329.586,-131.866"/>
<polygon fill="#191970" stroke="#191970" points="330.0031,-128.3806 319.5131,-129.8668 328.6404,-135.2467 330.0031,-128.3806"/>
</g>
<!-- Node15 -->
<g id="node16" class="node">
<title>Node15</title>
<polygon fill="#ffffff" stroke="#bfbfbf" points="1214,-56.5 1214,-75.5 1263,-75.5 1263,-56.5 1214,-56.5"/>
<text text-anchor="middle" x="1238.5" y="-63.5" font-family="Helvetica,sans-Serif" font-size="10.00" fill="#000000">string.h</text>
</g>
<!-- Node2&#45;&gt;Node15 -->
<g id="edge15" class="edge">
<title>Node2&#45;&gt;Node15</title>
<path fill="none" stroke="#191970" d="M851.935,-176.8486C980.1671,-173.8622 1260.5428,-163.7378 1289.5,-132 1304.5484,-115.5066 1282.9703,-94.9396 1263.4259,-81.1887"/>
<polygon fill="#191970" stroke="#191970" points="1265.268,-78.2102 1255.0081,-75.5671 1261.3804,-84.0314 1265.268,-78.2102"/>
</g>
<!-- Node16 -->
<g id="node17" class="node">
<title>Node16</title>
<polygon fill="#ffffff" stroke="#bfbfbf" points="902.5,-112.5 902.5,-131.5 946.5,-131.5 946.5,-112.5 902.5,-112.5"/>
<text text-anchor="middle" x="924.5" y="-119.5" font-family="Helvetica,sans-Serif" font-size="10.00" fill="#000000">time.h</text>
</g>
<!-- Node2&#45;&gt;Node16 -->
<g id="edge16" class="edge">
<title>Node2&#45;&gt;Node16</title>
<path fill="none" stroke="#191970" d="M811.8792,-168.3733C834.2727,-159.1524 868.225,-145.1721 892.9958,-134.9723"/>
<polygon fill="#191970" stroke="#191970" points="894.4123,-138.1742 902.3264,-131.1303 891.747,-131.7015 894.4123,-138.1742"/>
</g>
<!-- Node17 -->
<g id="node18" class="node">
<title>Node17</title>
<polygon fill="#ffffff" stroke="#bfbfbf" points="965,-112.5 965,-131.5 1076,-131.5 1076,-112.5 965,-112.5"/>
<text text-anchor="middle" x="1020.5" y="-119.5" font-family="Helvetica,sans-Serif" font-size="10.00" fill="#000000">opentracing&#45;c/tracer.h</text>
</g>
<!-- Node2&#45;&gt;Node17 -->
<g id="edge17" class="edge">
<title>Node2&#45;&gt;Node17</title>
<path fill="none" stroke="#191970" d="M828.1186,-168.4369C867.6568,-158.8932 928.5069,-144.2052 971.1582,-133.9101"/>
<polygon fill="#191970" stroke="#191970" points="972.1452,-137.2724 981.0448,-131.5237 970.5027,-130.4679 972.1452,-137.2724"/>
</g>
<!-- Node18 -->
<g id="node19" class="node">
<title>Node18</title>
<g id="a_node19"><a xlink:href="alloc_8h.html" target="_top" xlink:title="Allocator struct and functions. ">
<polygon fill="#ffffff" stroke="#000000" points="1171,-112.5 1171,-131.5 1280,-131.5 1280,-112.5 1171,-112.5"/>
<text text-anchor="middle" x="1225.5" y="-119.5" font-family="Helvetica,sans-Serif" font-size="10.00" fill="#000000">jaegertracingc/alloc.h</text>
</a>
</g>
</g>
<!-- Node2&#45;&gt;Node18 -->
<g id="edge18" class="edge">
<title>Node2&#45;&gt;Node18</title>
<path fill="none" stroke="#191970" d="M851.7126,-170.4797C925.0616,-161.6651 1049.6221,-146.4232 1156.5,-132 1157.962,-131.8027 1159.4411,-131.6015 1160.9325,-131.3973"/>
<polygon fill="#191970" stroke="#191970" points="1161.4768,-134.8554 1170.9006,-130.0136 1160.5143,-127.9219 1161.4768,-134.8554"/>
</g>
<!-- Node19 -->
<g id="node20" class="node">
<title>Node19</title>
<g id="a_node20"><a xlink:href="logging_8h.html" target="_top" xlink:title="Logging interface and initialization functions. ">
<polygon fill="#ffffff" stroke="#000000" points="913,-56.5 913,-75.5 1032,-75.5 1032,-56.5 913,-56.5"/>
<text text-anchor="middle" x="972.5" y="-63.5" font-family="Helvetica,sans-Serif" font-size="10.00" fill="#000000">jaegertracingc/logging.h</text>
</a>
</g>
</g>
<!-- Node2&#45;&gt;Node19 -->
<g id="edge25" class="edge">
<title>Node2&#45;&gt;Node19</title>
<path fill="none" stroke="#191970" d="M803.3549,-168.4405C823.6084,-155.458 861.0797,-131.6204 893.5,-112 911.1536,-101.3163 931.2525,-89.6195 946.7594,-80.6943"/>
<polygon fill="#191970" stroke="#191970" points="948.8277,-83.5428 955.7583,-75.5292 945.3431,-77.4717 948.8277,-83.5428"/>
</g>
<!-- Node4 -->
<g id="node5" class="node">
<title>Node4</title>
<g id="a_node5"><a xlink:href="visibility_8h_source.html" target="_top" xlink:title="jaegertracingc/visibility.h">
<polygon fill="#ffffff" stroke="#000000" points="726.5,-56.5 726.5,-75.5 850.5,-75.5 850.5,-56.5 726.5,-56.5"/>
<text text-anchor="middle" x="788.5" y="-63.5" font-family="Helvetica,sans-Serif" font-size="10.00" fill="#000000">jaegertracingc/visibility.h</text>
</a>
</g>
</g>
<!-- Node3&#45;&gt;Node4 -->
<g id="edge4" class="edge">
<title>Node3&#45;&gt;Node4</title>
<path fill="none" stroke="#191970" d="M788.5,-112.2455C788.5,-104.9382 788.5,-94.6944 788.5,-85.7046"/>
<polygon fill="#191970" stroke="#191970" points="792.0001,-85.6426 788.5,-75.6427 785.0001,-85.6427 792.0001,-85.6426"/>
</g>
<!-- Node18&#45;&gt;Node5 -->
<g id="edge19" class="edge">
<title>Node18&#45;&gt;Node5</title>
<path fill="none" stroke="#191970" d="M1244.3122,-112.2455C1261.3473,-103.4125 1286.6575,-90.2887 1305.9681,-80.2758"/>
<polygon fill="#191970" stroke="#191970" points="1307.637,-83.353 1314.9034,-75.6427 1304.4147,-77.1388 1307.637,-83.353"/>
</g>
<!-- Node18&#45;&gt;Node12 -->
<g id="edge20" class="edge">
<title>Node18&#45;&gt;Node12</title>
<path fill="none" stroke="#191970" d="M1216.0939,-112.2455C1208.3507,-104.2155 1197.188,-92.6394 1187.9682,-83.0781"/>
<polygon fill="#191970" stroke="#191970" points="1190.2591,-80.4117 1180.7983,-75.6427 1185.2202,-85.2706 1190.2591,-80.4117"/>
</g>
<!-- Node18&#45;&gt;Node15 -->
<g id="edge21" class="edge">
<title>Node18&#45;&gt;Node15</title>
<path fill="none" stroke="#191970" d="M1227.7644,-112.2455C1229.4794,-104.8579 1231.8912,-94.4689 1233.9944,-85.4087"/>
<polygon fill="#191970" stroke="#191970" points="1237.4095,-86.1751 1236.2615,-75.6427 1230.5908,-84.5922 1237.4095,-86.1751"/>
</g>
<!-- Node18&#45;&gt;Node19 -->
<g id="edge22" class="edge">
<title>Node18&#45;&gt;Node19</title>
<path fill="none" stroke="#191970" d="M1182.2952,-112.4369C1138.9053,-102.8328 1071.9791,-88.0191 1025.4274,-77.7152"/>
<polygon fill="#191970" stroke="#191970" points="1026.0467,-74.2676 1015.5266,-75.5237 1024.5338,-81.1022 1026.0467,-74.2676"/>
</g>
<!-- Node19&#45;&gt;Node9 -->
<g id="edge23" class="edge">
<title>Node19&#45;&gt;Node9</title>
<path fill="none" stroke="#191970" d="M946.3703,-56.3733C921.4232,-47.1822 883.6408,-33.2624 855.9794,-23.0713"/>
<polygon fill="#191970" stroke="#191970" points="856.8822,-19.674 846.2888,-19.5011 854.4622,-26.2424 856.8822,-19.674"/>
</g>
<!-- Node19&#45;&gt;Node13 -->
<g id="edge24" class="edge">
<title>Node19&#45;&gt;Node13</title>
<path fill="none" stroke="#191970" d="M983.9963,-56.2455C993.7442,-47.9746 1007.9259,-35.9416 1019.3798,-26.2232"/>
<polygon fill="#191970" stroke="#191970" points="1021.7747,-28.7813 1027.1354,-19.6427 1017.2459,-23.4437 1021.7747,-28.7813"/>
</g>
<!-- Node20&#45;&gt;Node2 -->
<g id="edge28" class="edge">
<title>Node20&#45;&gt;Node2</title>
<path fill="none" stroke="#191970" d="M424.7223,-296.9365C454.193,-279.9423 518.9018,-244.3594 577.5,-224 622.4872,-208.3696 674.78,-196.925 716.0519,-189.3606"/>
<polygon fill="#191970" stroke="#191970" points="716.8025,-192.7819 726.0258,-187.5685 715.5644,-185.8922 716.8025,-192.7819"/>
</g>
<!-- Node21&#45;&gt;Node2 -->
<g id="edge30" class="edge">
<title>Node21&#45;&gt;Node2</title>
<path fill="none" stroke="#191970" d="M556.3828,-296.9231C563.9196,-279.5815 582.2242,-243.0177 609.5,-224 628.1798,-210.9757 681.1755,-198.2526 724.6902,-189.5007"/>
<polygon fill="#191970" stroke="#191970" points="725.5338,-192.9018 734.6656,-187.5296 724.1768,-186.0346 725.5338,-192.9018"/>
</g>
<!-- Node22&#45;&gt;Node2 -->
<g id="edge39" class="edge">
<title>Node22&#45;&gt;Node2</title>
<path fill="none" stroke="#191970" d="M365.6767,-232.86C449.9507,-221.9257 618.2315,-200.0918 715.1541,-187.5164"/>
<polygon fill="#191970" stroke="#191970" points="715.7027,-190.9747 725.1692,-186.217 714.8019,-184.0328 715.7027,-190.9747"/>
</g>
<!-- Node22&#45;&gt;Node14 -->
<g id="edge35" class="edge">
<title>Node22&#45;&gt;Node14</title>
<path fill="none" stroke="#191970" d="M338.1024,-229.8412C365.0739,-217.3097 403.5415,-193.9557 387.5,-168 380.7339,-157.0522 352.4208,-143.8495 328.9698,-134.402"/>
<polygon fill="#191970" stroke="#191970" points="330.2099,-131.1288 319.6227,-130.7266 327.6483,-137.6433 330.2099,-131.1288"/>
</g>
<!-- Node23 -->
<g id="node24" class="node">
<title>Node23</title>
<polygon fill="#ffffff" stroke="#bfbfbf" points="435.5,-168.5 435.5,-187.5 509.5,-187.5 509.5,-168.5 435.5,-168.5"/>
<text text-anchor="middle" x="472.5" y="-175.5" font-family="Helvetica,sans-Serif" font-size="10.00" fill="#000000">http_parser.h</text>
</g>
<!-- Node22&#45;&gt;Node23 -->
<g id="edge32" class="edge">
<title>Node22&#45;&gt;Node23</title>
<path fill="none" stroke="#191970" d="M339.1875,-229.8906C365.8557,-219.5103 408.5282,-202.9004 438.3911,-191.2766"/>
<polygon fill="#191970" stroke="#191970" points="439.9365,-194.4309 447.9859,-187.5419 437.3973,-187.9076 439.9365,-194.4309"/>
</g>
<!-- Node24 -->
<g id="node25" class="node">
<title>Node24</title>
<polygon fill="#ffffff" stroke="#bfbfbf" points="0,-168.5 0,-187.5 49,-187.5 49,-168.5 0,-168.5"/>
<text text-anchor="middle" x="24.5" y="-175.5" font-family="Helvetica,sans-Serif" font-size="10.00" fill="#000000">netdb.h</text>
</g>
<!-- Node22&#45;&gt;Node24 -->
<g id="edge33" class="edge">
<title>Node22&#45;&gt;Node24</title>
<path fill="none" stroke="#191970" d="M263.4625,-230.772C213.5066,-221.8931 135.0961,-207.0655 59.0383,-188.232"/>
<polygon fill="#191970" stroke="#191970" points="59.8452,-184.826 49.2947,-185.7936 58.1458,-191.6166 59.8452,-184.826"/>
</g>
<!-- Node25 -->
<g id="node26" class="node">
<title>Node25</title>
<polygon fill="#ffffff" stroke="#bfbfbf" points="67,-168.5 67,-187.5 132,-187.5 132,-168.5 67,-168.5"/>
<text text-anchor="middle" x="99.5" y="-175.5" font-family="Helvetica,sans-Serif" font-size="10.00" fill="#000000">netinet/in.h</text>
</g>
<!-- Node22&#45;&gt;Node25 -->
<g id="edge34" class="edge">
<title>Node22&#45;&gt;Node25</title>
<path fill="none" stroke="#191970" d="M280.9063,-229.8906C243.3735,-219.1545 182.5442,-201.7545 141.7987,-190.0994"/>
<polygon fill="#191970" stroke="#191970" points="142.7309,-186.7257 132.1539,-187.3405 140.8057,-193.4558 142.7309,-186.7257"/>
</g>
<!-- Node26 -->
<g id="node27" class="node">
<title>Node26</title>
<polygon fill="#ffffff" stroke="#bfbfbf" points="150,-168.5 150,-187.5 223,-187.5 223,-168.5 150,-168.5"/>
<text text-anchor="middle" x="186.5" y="-175.5" font-family="Helvetica,sans-Serif" font-size="10.00" fill="#000000">sys/socket.h</text>
</g>
<!-- Node22&#45;&gt;Node26 -->
<g id="edge36" class="edge">
<title>Node22&#45;&gt;Node26</title>
<path fill="none" stroke="#191970" d="M294.5,-229.8906C273.2711,-219.6908 239.5238,-203.4763 215.404,-191.8875"/>
<polygon fill="#191970" stroke="#191970" points="216.8889,-188.7179 206.3596,-187.5419 213.8574,-195.0275 216.8889,-188.7179"/>
</g>
<!-- Node27 -->
<g id="node28" class="node">
<title>Node27</title>
<polygon fill="#ffffff" stroke="#bfbfbf" points="241.5,-168.5 241.5,-187.5 309.5,-187.5 309.5,-168.5 241.5,-168.5"/>
<text text-anchor="middle" x="275.5" y="-175.5" font-family="Helvetica,sans-Serif" font-size="10.00" fill="#000000">sys/types.h</text>
</g>
<!-- Node22&#45;&gt;Node27 -->
<g id="edge37" class="edge">
<title>Node22&#45;&gt;Node27</title>
<path fill="none" stroke="#191970" d="M308.4063,-229.8906C302.7157,-220.917 294.0728,-207.2879 287.0726,-196.2491"/>
<polygon fill="#191970" stroke="#191970" points="289.9909,-194.3155 281.6797,-187.7449 284.0793,-198.0644 289.9909,-194.3155"/>
</g>
<!-- Node28 -->
<g id="node29" class="node">
<title>Node28</title>
<polygon fill="#ffffff" stroke="#bfbfbf" points="328,-168.5 328,-187.5 379,-187.5 379,-168.5 328,-168.5"/>
<text text-anchor="middle" x="353.5" y="-175.5" font-family="Helvetica,sans-Serif" font-size="10.00" fill="#000000">unistd.h</text>
</g>
<!-- Node22&#45;&gt;Node28 -->
<g id="edge38" class="edge">
<title>Node22&#45;&gt;Node28</title>
<path fill="none" stroke="#191970" d="M320.5938,-229.8906C326.2843,-220.917 334.9272,-207.2879 341.9274,-196.2491"/>
<polygon fill="#191970" stroke="#191970" points="344.9207,-198.0644 347.3203,-187.7449 339.0091,-194.3155 344.9207,-198.0644"/>
</g>
<!-- Node29&#45;&gt;Node2 -->
<g id="edge41" class="edge">
<title>Node29&#45;&gt;Node2</title>
<path fill="none" stroke="#191970" d="M1440.5801,-291.4934C1432.0579,-272.1281 1414.3439,-239.1322 1387.5,-224 1342.703,-198.7474 1011.4257,-185.1026 861.6549,-180.1679"/>
<polygon fill="#191970" stroke="#191970" points="861.7328,-176.6686 851.6242,-179.8415 861.5051,-183.6649 861.7328,-176.6686"/>
</g>
<!-- Node30 -->
<g id="node31" class="node">
<title>Node30</title>
<g id="a_node31"><a xlink:href="sampling_8pb-c_8h_source.html" target="_top" xlink:title="jaegertracingc/protoc\l&#45;gen/sampling.pb&#45;c.h">
<polygon fill="#ffffff" stroke="#000000" points="1456,-224.5 1456,-254.5 1563,-254.5 1563,-224.5 1456,-224.5"/>
<text text-anchor="start" x="1464" y="-242.5" font-family="Helvetica,sans-Serif" font-size="10.00" fill="#000000">jaegertracingc/protoc</text>
<text text-anchor="middle" x="1509.5" y="-231.5" font-family="Helvetica,sans-Serif" font-size="10.00" fill="#000000">&#45;gen/sampling.pb&#45;c.h</text>
</a>
</g>
</g>
<!-- Node29&#45;&gt;Node30 -->
<g id="edge42" class="edge">
<title>Node29&#45;&gt;Node30</title>
<path fill="none" stroke="#191970" d="M1460.7957,-291.2967C1468.9312,-282.6446 1479.2752,-271.6438 1488.3361,-262.0076"/>
<polygon fill="#191970" stroke="#191970" points="1490.9604,-264.326 1495.2609,-254.6432 1485.8608,-259.5308 1490.9604,-264.326"/>
</g>
<!-- Node31 -->
<g id="node32" class="node">
<title>Node31</title>
<polygon fill="#ffffff" stroke="#bfbfbf" points="1353,-168.5 1353,-187.5 1468,-187.5 1468,-168.5 1353,-168.5"/>
<text text-anchor="middle" x="1410.5" y="-175.5" font-family="Helvetica,sans-Serif" font-size="10.00" fill="#000000">protobuf&#45;c/protobuf&#45;c.h</text>
</g>
<!-- Node30&#45;&gt;Node31 -->
<g id="edge43" class="edge">
<title>Node30&#45;&gt;Node31</title>
<path fill="none" stroke="#191970" d="M1485.2819,-224.4554C1469.9227,-214.9141 1450.1243,-202.6151 1434.7575,-193.0691"/>
<polygon fill="#191970" stroke="#191970" points="1436.1828,-189.8341 1425.8415,-187.5303 1432.489,-195.7802 1436.1828,-189.8341"/>
</g>
<!-- Node32&#45;&gt;Node2 -->
<g id="edge46" class="edge">
<title>Node32&#45;&gt;Node2</title>
<path fill="none" stroke="#191970" d="M1178.9879,-296.7775C1182.7561,-279.5311 1187.6017,-243.5618 1168.5,-224 1147.4946,-202.4887 966.2838,-188.4029 861.8724,-181.9942"/>
<polygon fill="#191970" stroke="#191970" points="861.899,-178.4895 851.706,-181.3796 861.4765,-185.4768 861.899,-178.4895"/>
</g>
<!-- Node32&#45;&gt;Node18 -->
<g id="edge45" class="edge">
<title>Node32&#45;&gt;Node18</title>
<path fill="none" stroke="#191970" d="M1179.0655,-296.8402C1186.7887,-267.76 1209.9273,-180.636 1220.332,-141.459"/>
<polygon fill="#191970" stroke="#191970" points="1223.7758,-142.1275 1222.9599,-131.5641 1217.0103,-140.3307 1223.7758,-142.1275"/>
</g>
<!-- Node33 -->
<g id="node34" class="node">
<title>Node33</title>
<g id="a_node34"><a xlink:href="jaeger_8pb-c_8h_source.html" target="_top" xlink:title="jaegertracingc/protoc\l&#45;gen/jaeger.pb&#45;c.h">
<polygon fill="#ffffff" stroke="#000000" points="1254,-224.5 1254,-254.5 1361,-254.5 1361,-224.5 1254,-224.5"/>
<text text-anchor="start" x="1262" y="-242.5" font-family="Helvetica,sans-Serif" font-size="10.00" fill="#000000">jaegertracingc/protoc</text>
<text text-anchor="middle" x="1307.5" y="-231.5" font-family="Helvetica,sans-Serif" font-size="10.00" fill="#000000">&#45;gen/jaeger.pb&#45;c.h</text>
</a>
</g>
</g>
<!-- Node32&#45;&gt;Node33 -->
<g id="edge47" class="edge">
<title>Node32&#45;&gt;Node33</title>
<path fill="none" stroke="#191970" d="M1195.2691,-296.9005C1214.4654,-287.0826 1244.8355,-271.5498 1269.1449,-259.1167"/>
<polygon fill="#191970" stroke="#191970" points="1270.8197,-262.1914 1278.1291,-254.5218 1267.6322,-255.9592 1270.8197,-262.1914"/>
</g>
<!-- Node32&#45;&gt;Node34 -->
<g id="edge49" class="edge">
<title>Node32&#45;&gt;Node34</title>
<path fill="none" stroke="#191970" d="M1165.7543,-296.9005C1153.836,-286.2535 1134.3943,-268.8856 1120.0132,-256.0385"/>
<polygon fill="#191970" stroke="#191970" points="1122.0151,-253.1337 1112.2257,-249.0817 1117.3516,-258.354 1122.0151,-253.1337"/>
</g>
<!-- Node33&#45;&gt;Node31 -->
<g id="edge48" class="edge">
<title>Node33&#45;&gt;Node31</title>
<path fill="none" stroke="#191970" d="M1332.6966,-224.4554C1348.8272,-214.8241 1369.6638,-202.3828 1385.7136,-192.7996"/>
<polygon fill="#191970" stroke="#191970" points="1387.747,-195.662 1394.5387,-187.5303 1384.1584,-189.6518 1387.747,-195.662"/>
</g>
<!-- Node34&#45;&gt;Node2 -->
<g id="edge50" class="edge">
<title>Node34&#45;&gt;Node2</title>
<path fill="none" stroke="#191970" d="M1061.5269,-229.9597C1052.6447,-227.9216 1043.2649,-225.8325 1034.5,-224 973.2266,-211.1896 903.0051,-198.2287 853.3146,-189.3441"/>
<polygon fill="#191970" stroke="#191970" points="853.8056,-185.8765 843.3465,-187.5672 852.5771,-192.7679 853.8056,-185.8765"/>
</g>
<!-- Node35&#45;&gt;Node2 -->
<g id="edge52" class="edge">
<title>Node35&#45;&gt;Node2</title>
<path fill="none" stroke="#191970" d="M876.591,-296.8973C861.6095,-287.7076 839.9337,-272.6576 825.5,-255 811.3322,-237.6677 801.0089,-214.0063 794.9217,-197.5043"/>
<polygon fill="#191970" stroke="#191970" points="798.1433,-196.1141 791.5354,-187.8324 791.5366,-198.4272 798.1433,-196.1141"/>
</g>
<!-- Node36 -->
<g id="node37" class="node">
<title>Node36</title>
<polygon fill="#ffffff" stroke="#bfbfbf" points="834,-230 834,-249 881,-249 881,-230 834,-230"/>
<text text-anchor="middle" x="857.5" y="-237" font-family="Helvetica,sans-Serif" font-size="10.00" fill="#000000">errno.h</text>
</g>
<!-- Node35&#45;&gt;Node36 -->
<g id="edge53" class="edge">
<title>Node35&#45;&gt;Node36</title>
<path fill="none" stroke="#191970" d="M888.3421,-296.9005C882.9421,-286.8505 874.3245,-270.8122 867.5694,-258.2403"/>
<polygon fill="#191970" stroke="#191970" points="870.4647,-256.234 862.6484,-249.0817 864.2984,-259.5472 870.4647,-256.234"/>
</g>
<!-- Node37 -->
<g id="node38" class="node">
<title>Node37</title>
<polygon fill="#ffffff" stroke="#bfbfbf" points="899,-230 899,-249 956,-249 956,-230 899,-230"/>
<text text-anchor="middle" x="927.5" y="-237" font-family="Helvetica,sans-Serif" font-size="10.00" fill="#000000">pthread.h</text>
</g>
<!-- Node35&#45;&gt;Node37 -->
<g id="edge54" class="edge">
<title>Node35&#45;&gt;Node37</title>
<path fill="none" stroke="#191970" d="M898.3714,-296.9005C903.4714,-286.8505 911.6102,-270.8122 917.99,-258.2403"/>
<polygon fill="#191970" stroke="#191970" points="921.2334,-259.583 922.6377,-249.0817 914.9912,-256.4153 921.2334,-259.583"/>
</g>
<!-- Node38 -->
<g id="node39" class="node">
<title>Node38</title>
<polygon fill="#ffffff" stroke="#bfbfbf" points="974,-230 974,-249 1025,-249 1025,-230 974,-230"/>
<text text-anchor="middle" x="999.5" y="-237" font-family="Helvetica,sans-Serif" font-size="10.00" fill="#000000">sched.h</text>
</g>
<!-- Node35&#45;&gt;Node38 -->
<g id="edge55" class="edge">
<title>Node35&#45;&gt;Node38</title>
<path fill="none" stroke="#191970" d="M908.6872,-296.9005C926.2403,-285.8057 955.3394,-267.4128 975.8598,-254.4424"/>
<polygon fill="#191970" stroke="#191970" points="977.758,-257.3832 984.341,-249.0817 974.0179,-251.4661 977.758,-257.3832"/>
</g>
<!-- Node39&#45;&gt;Node1 -->
<g id="edge57" class="edge">
<title>Node39&#45;&gt;Node1</title>
<path fill="none" stroke="#191970" d="M683.5,-291.2967C683.5,-281.7699 683.5,-269.3954 683.5,-259.1306"/>
<polygon fill="#191970" stroke="#191970" points="687.0001,-259.0549 683.5,-249.055 680.0001,-259.055 687.0001,-259.0549"/>
</g>
<!-- Node39&#45;&gt;Node2 -->
<g id="edge58" class="edge">
<title>Node39&#45;&gt;Node2</title>
<path fill="none" stroke="#191970" d="M657.3073,-291.3943C632.1125,-274.9262 600.3246,-247.7471 618.5,-224 630.689,-208.0744 675.0263,-196.3913 715.3632,-188.7847"/>
<polygon fill="#191970" stroke="#191970" points="716.0279,-192.2213 725.239,-186.9861 714.7737,-185.3345 716.0279,-192.2213"/>
</g>
<!-- Node40&#45;&gt;Node2 -->
<g id="edge60" class="edge">
<title>Node40&#45;&gt;Node2</title>
<path fill="none" stroke="#191970" d="M1324.1579,-296.8902C1349.6838,-281.0143 1393.2493,-248.6183 1370.5,-224 1353.4685,-205.5692 1014.377,-188.1212 861.7938,-181.1688"/>
<polygon fill="#191970" stroke="#191970" points="861.7258,-177.6622 851.5777,-180.7063 861.4091,-184.655 861.7258,-177.6622"/>
</g>
<!-- Node40&#45;&gt;Node33 -->
<g id="edge61" class="edge">
<title>Node40&#45;&gt;Node33</title>
<path fill="none" stroke="#191970" d="M1307.5,-296.9005C1307.5,-288.5099 1307.5,-275.9451 1307.5,-264.7085"/>
<polygon fill="#191970" stroke="#191970" points="1311.0001,-264.5217 1307.5,-254.5218 1304.0001,-264.5218 1311.0001,-264.5217"/>
</g>
</g>
</svg>
