<?xml version="1.0" encoding="UTF-8" standalone="no"?>
<!DOCTYPE svg PUBLIC "-//W3C//DTD SVG 1.1//EN"
 "http://www.w3.org/Graphics/SVG/1.1/DTD/svg11.dtd">
<!-- Generated by graphviz version 2.40.1 (20161225.0304)
 -->
<!-- Title: jaegertracingc/span.h Pages: 1 -->
<svg width="1154pt" height="453pt"
 viewBox="0.00 0.00 1153.71 453.00" xmlns="http://www.w3.org/2000/svg" xmlns:xlink="http://www.w3.org/1999/xlink">
<g id="graph0" class="graph" transform="scale(1 1) rotate(0) translate(4 449)">
<title>jaegertracingc/span.h</title>
<polygon fill="#ffffff" stroke="transparent" points="-4,4 -4,-449 1149.7138,-449 1149.7138,4 -4,4"/>
<!-- Node0 -->
<g id="node1" class="node">
<title>Node0</title>
<polygon fill="#bfbfbf" stroke="#000000" points="254.7138,-425.5 254.7138,-444.5 364.7138,-444.5 364.7138,-425.5 254.7138,-425.5"/>
<text text-anchor="middle" x="309.7138" y="-432.5" font-family="Helvetica,sans-Serif" font-size="10.00" fill="#000000">jaegertracingc/span.h</text>
</g>
<!-- Node1 -->
<g id="node2" class="node">
<title>Node1</title>
<g id="a_node2"><a xlink:href="clock_8h.html" target="_top" xlink:title="Timestamp and duration representations. ">
<polygon fill="#ffffff" stroke="#000000" points="132.7138,-297 132.7138,-316 244.7138,-316 244.7138,-297 132.7138,-297"/>
<text text-anchor="middle" x="188.7138" y="-304" font-family="Helvetica,sans-Serif" font-size="10.00" fill="#000000">jaegertracingc/clock.h</text>
</a>
</g>
</g>
<!-- Node0&#45;&gt;Node1 -->
<g id="edge1" class="edge">
<title>Node0&#45;&gt;Node1</title>
<path fill="none" stroke="#191970" d="M297.9659,-425.1882C287.3585,-416.1486 271.4999,-402.1793 258.7138,-389 237.9969,-367.646 216.1192,-341.1345 202.4477,-324.022"/>
<polygon fill="#191970" stroke="#191970" points="205.05,-321.6706 196.096,-316.0071 199.5639,-326.0183 205.05,-321.6706"/>
</g>
<!-- Node2 -->
<g id="node3" class="node">
<title>Node2</title>
<g id="a_node3"><a xlink:href="common_8h.html" target="_top" xlink:title="Common headers, struct definitions, and macros. ">
<polygon fill="#ffffff" stroke="#000000" points="386.7138,-168.5 386.7138,-187.5 512.7138,-187.5 512.7138,-168.5 386.7138,-168.5"/>
<text text-anchor="middle" x="449.7138" y="-175.5" font-family="Helvetica,sans-Serif" font-size="10.00" fill="#000000">jaegertracingc/common.h</text>
</a>
</g>
</g>
<!-- Node0&#45;&gt;Node2 -->
<g id="edge26" class="edge">
<title>Node0&#45;&gt;Node2</title>
<path fill="none" stroke="#191970" d="M254.4816,-430.7524C153.4856,-420.5634 -45.7343,-387.9032 9.7138,-291 38.9012,-239.991 68.2262,-243.3637 123.7138,-224 168.9974,-208.1972 295.0087,-193.345 376.444,-184.9883"/>
<polygon fill="#191970" stroke="#191970" points="377.0436,-188.4455 386.6384,-183.9522 376.3358,-181.4814 377.0436,-188.4455"/>
</g>
<!-- Node20 -->
<g id="node21" class="node">
<title>Node20</title>
<g id="a_node21"><a xlink:href="key__value_8h.html" target="_top" xlink:title="Key value pair representation. ">
<polygon fill="#ffffff" stroke="#000000" points="18.7138,-291.5 18.7138,-321.5 114.7138,-321.5 114.7138,-291.5 18.7138,-291.5"/>
<text text-anchor="start" x="26.7138" y="-309.5" font-family="Helvetica,sans-Serif" font-size="10.00" fill="#000000">jaegertracingc/key</text>
<text text-anchor="middle" x="66.7138" y="-298.5" font-family="Helvetica,sans-Serif" font-size="10.00" fill="#000000">_value.h</text>
</a>
</g>
</g>
<!-- Node0&#45;&gt;Node20 -->
<g id="edge27" class="edge">
<title>Node0&#45;&gt;Node20</title>
<path fill="none" stroke="#191970" d="M291.4493,-425.3416C251.8821,-404.4182 157.5534,-354.5366 104.5418,-326.5037"/>
<polygon fill="#191970" stroke="#191970" points="105.9371,-323.2823 95.4608,-321.7016 102.6647,-329.4704 105.9371,-323.2823"/>
</g>
<!-- Node21 -->
<g id="node22" class="node">
<title>Node21</title>
<g id="a_node22"><a xlink:href="vector_8h.html" target="_top" xlink:title="C generic vector implementation. ">
<polygon fill="#ffffff" stroke="#000000" points="204.7138,-230 204.7138,-249 320.7138,-249 320.7138,-230 204.7138,-230"/>
<text text-anchor="middle" x="262.7138" y="-237" font-family="Helvetica,sans-Serif" font-size="10.00" fill="#000000">jaegertracingc/vector.h</text>
</a>
</g>
</g>
<!-- Node0&#45;&gt;Node21 -->
<g id="edge52" class="edge">
<title>Node0&#45;&gt;Node21</title>
<path fill="none" stroke="#191970" d="M305.3257,-425.3081C301.3093,-416.1196 295.4404,-401.8487 291.7138,-389 278.4503,-343.2702 269.4962,-287.8939 265.3524,-259.0752"/>
<polygon fill="#191970" stroke="#191970" points="268.8071,-258.5072 263.9576,-249.0873 261.8744,-259.4753 268.8071,-258.5072"/>
</g>
<!-- Node22 -->
<g id="node23" class="node">
<title>Node22</title>
<g id="a_node23"><a xlink:href="log__record_8h.html" target="_top" xlink:title="Log record representation for use in span. ">
<polygon fill="#ffffff" stroke="#000000" points="301.2138,-358.5 301.2138,-388.5 394.2138,-388.5 394.2138,-358.5 301.2138,-358.5"/>
<text text-anchor="start" x="309.2138" y="-376.5" font-family="Helvetica,sans-Serif" font-size="10.00" fill="#000000">jaegertracingc/log</text>
<text text-anchor="middle" x="347.7138" y="-365.5" font-family="Helvetica,sans-Serif" font-size="10.00" fill="#000000">_record.h</text>
</a>
</g>
</g>
<!-- Node0&#45;&gt;Node22 -->
<g id="edge33" class="edge">
<title>Node0&#45;&gt;Node22</title>
<path fill="none" stroke="#191970" d="M315.6513,-425.3906C320.3179,-417.838 327.0222,-406.9876 333.095,-397.1593"/>
<polygon fill="#191970" stroke="#191970" points="336.139,-398.8914 338.4179,-388.5446 330.184,-395.2119 336.139,-398.8914"/>
</g>
<!-- Node23 -->
<g id="node24" class="node">
<title>Node23</title>
<g id="a_node24"><a xlink:href="tag_8h.html" target="_top" xlink:title="Tag representation and functions. ">
<polygon fill="#ffffff" stroke="#000000" points="376.7138,-297 376.7138,-316 478.7138,-316 478.7138,-297 376.7138,-297"/>
<text text-anchor="middle" x="427.7138" y="-304" font-family="Helvetica,sans-Serif" font-size="10.00" fill="#000000">jaegertracingc/tag.h</text>
</a>
</g>
</g>
<!-- Node0&#45;&gt;Node23 -->
<g id="edge43" class="edge">
<title>Node0&#45;&gt;Node23</title>
<path fill="none" stroke="#191970" d="M344.5792,-425.3599C364.1964,-418.2716 387.6938,-406.7297 402.7138,-389 417.855,-371.1272 423.8268,-344.2706 426.1816,-326.0962"/>
<polygon fill="#191970" stroke="#191970" points="429.672,-326.3696 427.23,-316.0601 422.7099,-325.6423 429.672,-326.3696"/>
</g>
<!-- Node26 -->
<g id="node27" class="node">
<title>Node26</title>
<g id="a_node27"><a xlink:href="threading_8h.html" target="_top" xlink:title="Threading utilities. ">
<polygon fill="#ffffff" stroke="#000000" points="636.7138,-364 636.7138,-383 764.7138,-383 764.7138,-364 636.7138,-364"/>
<text text-anchor="middle" x="700.7138" y="-371" font-family="Helvetica,sans-Serif" font-size="10.00" fill="#000000">jaegertracingc/threading.h</text>
</a>
</g>
</g>
<!-- Node0&#45;&gt;Node26 -->
<g id="edge44" class="edge">
<title>Node0&#45;&gt;Node26</title>
<path fill="none" stroke="#191970" d="M364.9052,-426.319C434.4094,-415.3867 553.9211,-396.5889 630.0389,-384.6164"/>
<polygon fill="#191970" stroke="#191970" points="630.6859,-388.0577 640.0206,-383.0464 629.5982,-381.1428 630.6859,-388.0577"/>
</g>
<!-- Node30 -->
<g id="node31" class="node">
<title>Node30</title>
<g id="a_node31"><a xlink:href="trace__id_8h.html" target="_top" xlink:title="Trace ID representation. ">
<polygon fill="#ffffff" stroke="#000000" points="497.2138,-297 497.2138,-316 620.2138,-316 620.2138,-297 497.2138,-297"/>
<text text-anchor="middle" x="558.7138" y="-304" font-family="Helvetica,sans-Serif" font-size="10.00" fill="#000000">jaegertracingc/trace_id.h</text>
</a>
</g>
</g>
<!-- Node0&#45;&gt;Node30 -->
<g id="edge49" class="edge">
<title>Node0&#45;&gt;Node30</title>
<path fill="none" stroke="#191970" d="M337.9784,-425.387C361.8509,-416.8935 396.6874,-403.6121 425.7138,-389 466.5291,-368.4532 511.1151,-339.2991 536.904,-321.7133"/>
<polygon fill="#191970" stroke="#191970" points="538.9459,-324.5569 545.2049,-316.0085 534.9812,-318.7879 538.9459,-324.5569"/>
</g>
<!-- Node1&#45;&gt;Node2 -->
<g id="edge2" class="edge">
<title>Node1&#45;&gt;Node2</title>
<path fill="none" stroke="#191970" d="M186.205,-296.9053C182.3816,-279.8615 177.3356,-244.2028 195.7138,-224 219.4855,-197.8682 310.3116,-186.4765 376.5858,-181.5805"/>
<polygon fill="#191970" stroke="#191970" points="376.8562,-185.0702 386.5858,-180.8767 376.3647,-178.0875 376.8562,-185.0702"/>
</g>
<!-- Node3 -->
<g id="node4" class="node">
<title>Node3</title>
<g id="a_node4"><a xlink:href="config_8h_source.html" target="_top" xlink:title="jaegertracingc/config.h">
<polygon fill="#ffffff" stroke="#000000" points="1026.2138,-112.5 1026.2138,-131.5 1141.2138,-131.5 1141.2138,-112.5 1026.2138,-112.5"/>
<text text-anchor="middle" x="1083.7138" y="-119.5" font-family="Helvetica,sans-Serif" font-size="10.00" fill="#000000">jaegertracingc/config.h</text>
</a>
</g>
</g>
<!-- Node2&#45;&gt;Node3 -->
<g id="edge3" class="edge">
<title>Node2&#45;&gt;Node3</title>
<path fill="none" stroke="#191970" d="M512.9015,-168.9885C515.8784,-168.638 518.8274,-168.3062 521.7138,-168 738.8605,-144.9679 794.5671,-155.0321 1011.7138,-132 1013.0197,-131.8615 1014.3385,-131.7177 1015.6668,-131.5693"/>
<polygon fill="#191970" stroke="#191970" points="1016.4643,-134.9996 1025.9855,-130.3524 1015.6444,-128.0478 1016.4643,-134.9996"/>
</g>
<!-- Node5 -->
<g id="node6" class="node">
<title>Node5</title>
<polygon fill="#ffffff" stroke="#bfbfbf" points="663.7138,-56.5 663.7138,-75.5 715.7138,-75.5 715.7138,-56.5 663.7138,-56.5"/>
<text text-anchor="middle" x="689.7138" y="-63.5" font-family="Helvetica,sans-Serif" font-size="10.00" fill="#000000">assert.h</text>
</g>
<!-- Node2&#45;&gt;Node5 -->
<g id="edge5" class="edge">
<title>Node2&#45;&gt;Node5</title>
<path fill="none" stroke="#191970" d="M512.9035,-169.0074C515.8799,-168.6519 518.8282,-168.3138 521.7138,-168 572.3504,-162.494 944.1404,-169.404 978.7138,-132 984.7473,-125.4725 984.4841,-118.7614 978.7138,-112 962.4857,-92.9846 800.3834,-76.0179 726.304,-69.1896"/>
<polygon fill="#191970" stroke="#191970" points="726.3166,-65.6764 716.0408,-68.2567 725.6829,-72.6477 726.3166,-65.6764"/>
</g>
<!-- Node6 -->
<g id="node7" class="node">
<title>Node6</title>
<polygon fill="#ffffff" stroke="#bfbfbf" points="375.2138,-112.5 375.2138,-131.5 424.2138,-131.5 424.2138,-112.5 375.2138,-112.5"/>
<text text-anchor="middle" x="399.7138" y="-119.5" font-family="Helvetica,sans-Serif" font-size="10.00" fill="#000000">ctype.h</text>
</g>
<!-- Node2&#45;&gt;Node6 -->
<g id="edge6" class="edge">
<title>Node2&#45;&gt;Node6</title>
<path fill="none" stroke="#191970" d="M441.0044,-168.2455C433.9065,-160.2958 423.7053,-148.8706 415.2188,-139.3656"/>
<polygon fill="#191970" stroke="#191970" points="417.5943,-136.771 408.3233,-131.6427 412.3727,-141.4331 417.5943,-136.771"/>
</g>
<!-- Node7 -->
<g id="node8" class="node">
<title>Node7</title>
<polygon fill="#ffffff" stroke="#bfbfbf" points="442.2138,-112.5 442.2138,-131.5 501.2138,-131.5 501.2138,-112.5 442.2138,-112.5"/>
<text text-anchor="middle" x="471.7138" y="-119.5" font-family="Helvetica,sans-Serif" font-size="10.00" fill="#000000">inttypes.h</text>
</g>
<!-- Node2&#45;&gt;Node7 -->
<g id="edge7" class="edge">
<title>Node2&#45;&gt;Node7</title>
<path fill="none" stroke="#191970" d="M453.5459,-168.2455C456.4797,-160.7776 460.6184,-150.2427 464.2048,-141.1137"/>
<polygon fill="#191970" stroke="#191970" points="467.5266,-142.23 467.9256,-131.6427 461.0114,-139.6704 467.5266,-142.23"/>
</g>
<!-- Node8 -->
<g id="node9" class="node">
<title>Node8</title>
<polygon fill="#ffffff" stroke="#bfbfbf" points="519.7138,-112.5 519.7138,-131.5 567.7138,-131.5 567.7138,-112.5 519.7138,-112.5"/>
<text text-anchor="middle" x="543.7138" y="-119.5" font-family="Helvetica,sans-Serif" font-size="10.00" fill="#000000">limits.h</text>
</g>
<!-- Node2&#45;&gt;Node8 -->
<g id="edge8" class="edge">
<title>Node2&#45;&gt;Node8</title>
<path fill="none" stroke="#191970" d="M466.0873,-168.2455C480.6446,-159.5731 502.1448,-146.7645 518.829,-136.825"/>
<polygon fill="#191970" stroke="#191970" points="520.7282,-139.7676 527.5279,-131.6427 517.1455,-133.7539 520.7282,-139.7676"/>
</g>
<!-- Node9 -->
<g id="node10" class="node">
<title>Node9</title>
<polygon fill="#ffffff" stroke="#bfbfbf" points="156.7138,-.5 156.7138,-19.5 208.7138,-19.5 208.7138,-.5 156.7138,-.5"/>
<text text-anchor="middle" x="182.7138" y="-7.5" font-family="Helvetica,sans-Serif" font-size="10.00" fill="#000000">stdarg.h</text>
</g>
<!-- Node2&#45;&gt;Node9 -->
<g id="edge9" class="edge">
<title>Node2&#45;&gt;Node9</title>
<path fill="none" stroke="#191970" d="M420.5018,-168.4201C399.7023,-160.6886 371.8125,-148.3996 350.7138,-132 316.2962,-105.2478 323.47,-82.3107 288.7138,-56 267.6306,-40.04 240.1565,-28.3201 218.4621,-20.7051"/>
<polygon fill="#191970" stroke="#191970" points="219.539,-17.3747 208.9449,-17.4947 217.3016,-24.0075 219.539,-17.3747"/>
</g>
<!-- Node10 -->
<g id="node11" class="node">
<title>Node10</title>
<polygon fill="#ffffff" stroke="#bfbfbf" points="585.7138,-112.5 585.7138,-131.5 641.7138,-131.5 641.7138,-112.5 585.7138,-112.5"/>
<text text-anchor="middle" x="613.7138" y="-119.5" font-family="Helvetica,sans-Serif" font-size="10.00" fill="#000000">stdbool.h</text>
</g>
<!-- Node2&#45;&gt;Node10 -->
<g id="edge10" class="edge">
<title>Node2&#45;&gt;Node10</title>
<path fill="none" stroke="#191970" d="M477.9064,-168.3733C505.059,-159.1016 546.3044,-145.0178 576.2163,-134.804"/>
<polygon fill="#191970" stroke="#191970" points="577.5566,-138.0449 585.8891,-131.5011 575.2945,-131.4204 577.5566,-138.0449"/>
</g>
<!-- Node11 -->
<g id="node12" class="node">
<title>Node11</title>
<polygon fill="#ffffff" stroke="#bfbfbf" points="659.7138,-112.5 659.7138,-131.5 711.7138,-131.5 711.7138,-112.5 659.7138,-112.5"/>
<text text-anchor="middle" x="685.7138" y="-119.5" font-family="Helvetica,sans-Serif" font-size="10.00" fill="#000000">stddef.h</text>
</g>
<!-- Node2&#45;&gt;Node11 -->
<g id="edge11" class="edge">
<title>Node2&#45;&gt;Node11</title>
<path fill="none" stroke="#191970" d="M494.5852,-168.4489C533.2753,-160.0523 590.852,-147.1744 649.5678,-132.2052"/>
<polygon fill="#191970" stroke="#191970" points="650.5657,-135.5626 659.3815,-129.6862 648.8253,-128.7824 650.5657,-135.5626"/>
</g>
<!-- Node12 -->
<g id="node13" class="node">
<title>Node12</title>
<polygon fill="#ffffff" stroke="#bfbfbf" points="164.2138,-56.5 164.2138,-75.5 213.2138,-75.5 213.2138,-56.5 164.2138,-56.5"/>
<text text-anchor="middle" x="188.7138" y="-63.5" font-family="Helvetica,sans-Serif" font-size="10.00" fill="#000000">stdint.h</text>
</g>
<!-- Node2&#45;&gt;Node12 -->
<g id="edge12" class="edge">
<title>Node2&#45;&gt;Node12</title>
<path fill="none" stroke="#191970" d="M390.1045,-168.4399C355.2526,-161.3792 311.1006,-149.8382 274.7138,-132 248.5228,-119.1602 222.5236,-97.6768 206.0836,-82.7216"/>
<polygon fill="#191970" stroke="#191970" points="208.1118,-79.828 198.4074,-75.5765 203.3424,-84.9518 208.1118,-79.828"/>
</g>
<!-- Node13 -->
<g id="node14" class="node">
<title>Node13</title>
<polygon fill="#ffffff" stroke="#bfbfbf" points="274.7138,-.5 274.7138,-19.5 320.7138,-19.5 320.7138,-.5 274.7138,-.5"/>
<text text-anchor="middle" x="297.7138" y="-7.5" font-family="Helvetica,sans-Serif" font-size="10.00" fill="#000000">stdio.h</text>
</g>
<!-- Node2&#45;&gt;Node13 -->
<g id="edge13" class="edge">
<title>Node2&#45;&gt;Node13</title>
<path fill="none" stroke="#191970" d="M424.1634,-168.49C406.1452,-160.7924 382.3529,-148.5152 365.7138,-132 363.6481,-129.9497 326.4145,-62.3198 307.9391,-28.6556"/>
<polygon fill="#191970" stroke="#191970" points="310.946,-26.8595 303.0681,-19.775 304.8086,-30.2259 310.946,-26.8595"/>
</g>
<!-- Node14 -->
<g id="node15" class="node">
<title>Node14</title>
<polygon fill="#ffffff" stroke="#bfbfbf" points="729.7138,-112.5 729.7138,-131.5 777.7138,-131.5 777.7138,-112.5 729.7138,-112.5"/>
<text text-anchor="middle" x="753.7138" y="-119.5" font-family="Helvetica,sans-Serif" font-size="10.00" fill="#000000">stdlib.h</text>
</g>
<!-- Node2&#45;&gt;Node14 -->
<g id="edge14" class="edge">
<title>Node2&#45;&gt;Node14</title>
<path fill="none" stroke="#191970" d="M511.1383,-168.4971C574.0832,-158.6054 668.7342,-143.2693 719.7585,-131.9512"/>
<polygon fill="#191970" stroke="#191970" points="720.6985,-135.3265 729.6584,-129.6723 719.1281,-128.5049 720.6985,-135.3265"/>
</g>
<!-- Node15 -->
<g id="node16" class="node">
<title>Node15</title>
<polygon fill="#ffffff" stroke="#bfbfbf" points="231.2138,-56.5 231.2138,-75.5 280.2138,-75.5 280.2138,-56.5 231.2138,-56.5"/>
<text text-anchor="middle" x="255.7138" y="-63.5" font-family="Helvetica,sans-Serif" font-size="10.00" fill="#000000">string.h</text>
</g>
<!-- Node2&#45;&gt;Node15 -->
<g id="edge15" class="edge">
<title>Node2&#45;&gt;Node15</title>
<path fill="none" stroke="#191970" d="M386.6763,-170.2373C356.3884,-163.9384 321.0446,-152.5535 294.7138,-132 279.3487,-120.0063 268.8,-100.135 262.5855,-85.3246"/>
<polygon fill="#191970" stroke="#191970" points="265.7003,-83.6763 258.8196,-75.6199 259.1744,-86.2088 265.7003,-83.6763"/>
</g>
<!-- Node16 -->
<g id="node17" class="node">
<title>Node16</title>
<polygon fill="#ffffff" stroke="#bfbfbf" points="795.7138,-112.5 795.7138,-131.5 839.7138,-131.5 839.7138,-112.5 795.7138,-112.5"/>
<text text-anchor="middle" x="817.7138" y="-119.5" font-family="Helvetica,sans-Serif" font-size="10.00" fill="#000000">time.h</text>
</g>
<!-- Node2&#45;&gt;Node16 -->
<g id="edge16" class="edge">
<title>Node2&#45;&gt;Node16</title>
<path fill="none" stroke="#191970" d="M512.9284,-169.2093C515.8981,-168.7998 518.8382,-168.395 521.7138,-168 636.2477,-152.2666 669.0326,-158.0084 785.4717,-131.9613"/>
<polygon fill="#191970" stroke="#191970" points="786.5159,-135.3135 795.4939,-129.688 784.9674,-128.4869 786.5159,-135.3135"/>
</g>
<!-- Node17 -->
<g id="node18" class="node">
<title>Node17</title>
<polygon fill="#ffffff" stroke="#bfbfbf" points="858.2138,-112.5 858.2138,-131.5 969.2138,-131.5 969.2138,-112.5 858.2138,-112.5"/>
<text text-anchor="middle" x="913.7138" y="-119.5" font-family="Helvetica,sans-Serif" font-size="10.00" fill="#000000">opentracing&#45;c/tracer.h</text>
</g>
<!-- Node2&#45;&gt;Node17 -->
<g id="edge17" class="edge">
<title>Node2&#45;&gt;Node17</title>
<path fill="none" stroke="#191970" d="M512.9165,-169.1186C515.8894,-168.7333 518.8334,-168.3585 521.7138,-168 663.5468,-150.3468 702.0435,-151.0774 847.8444,-132.0643"/>
<polygon fill="#191970" stroke="#191970" points="848.6079,-135.4942 858.0671,-130.722 847.6965,-128.5538 848.6079,-135.4942"/>
</g>
<!-- Node18 -->
<g id="node19" class="node">
<title>Node18</title>
<g id="a_node19"><a xlink:href="alloc_8h.html" target="_top" xlink:title="Allocator struct and functions. ">
<polygon fill="#ffffff" stroke="#000000" points="95.2138,-112.5 95.2138,-131.5 204.2138,-131.5 204.2138,-112.5 95.2138,-112.5"/>
<text text-anchor="middle" x="149.7138" y="-119.5" font-family="Helvetica,sans-Serif" font-size="10.00" fill="#000000">jaegertracingc/alloc.h</text>
</a>
</g>
</g>
<!-- Node2&#45;&gt;Node18 -->
<g id="edge18" class="edge">
<title>Node2&#45;&gt;Node18</title>
<path fill="none" stroke="#191970" d="M398.4828,-168.4369C346.4929,-158.7321 266.0065,-143.708 210.7457,-133.3926"/>
<polygon fill="#191970" stroke="#191970" points="211.2059,-129.9182 200.7334,-131.5237 209.9214,-136.7993 211.2059,-129.9182"/>
</g>
<!-- Node19 -->
<g id="node20" class="node">
<title>Node19</title>
<g id="a_node20"><a xlink:href="logging_8h.html" target="_top" xlink:title="Logging interface and initialization functions. ">
<polygon fill="#ffffff" stroke="#000000" points="27.2138,-56.5 27.2138,-75.5 146.2138,-75.5 146.2138,-56.5 27.2138,-56.5"/>
<text text-anchor="middle" x="86.7138" y="-63.5" font-family="Helvetica,sans-Serif" font-size="10.00" fill="#000000">jaegertracingc/logging.h</text>
</a>
</g>
</g>
<!-- Node2&#45;&gt;Node19 -->
<g id="edge25" class="edge">
<title>Node2&#45;&gt;Node19</title>
<path fill="none" stroke="#191970" d="M386.5457,-174.497C287.5943,-168.3571 105.2481,-154.1583 85.7138,-132 74.8438,-119.6699 76.4687,-100.437 79.9992,-85.9075"/>
<polygon fill="#191970" stroke="#191970" points="83.4758,-86.4847 82.895,-75.9057 76.7519,-84.5378 83.4758,-86.4847"/>
</g>
<!-- Node4 -->
<g id="node5" class="node">
<title>Node4</title>
<g id="a_node5"><a xlink:href="visibility_8h_source.html" target="_top" xlink:title="jaegertracingc/visibility.h">
<polygon fill="#ffffff" stroke="#000000" points="1021.7138,-56.5 1021.7138,-75.5 1145.7138,-75.5 1145.7138,-56.5 1021.7138,-56.5"/>
<text text-anchor="middle" x="1083.7138" y="-63.5" font-family="Helvetica,sans-Serif" font-size="10.00" fill="#000000">jaegertracingc/visibility.h</text>
</a>
</g>
</g>
<!-- Node3&#45;&gt;Node4 -->
<g id="edge4" class="edge">
<title>Node3&#45;&gt;Node4</title>
<path fill="none" stroke="#191970" d="M1083.7138,-112.2455C1083.7138,-104.9382 1083.7138,-94.6944 1083.7138,-85.7046"/>
<polygon fill="#191970" stroke="#191970" points="1087.2139,-85.6426 1083.7138,-75.6427 1080.2139,-85.6427 1087.2139,-85.6426"/>
</g>
<!-- Node18&#45;&gt;Node5 -->
<g id="edge19" class="edge">
<title>Node18&#45;&gt;Node5</title>
<path fill="none" stroke="#191970" d="M204.4636,-116.3222C314.7073,-104.8896 560.8133,-79.3675 653.4845,-69.7571"/>
<polygon fill="#191970" stroke="#191970" points="653.9132,-73.2315 663.4988,-68.7186 653.1911,-66.2689 653.9132,-73.2315"/>
</g>
<!-- Node18&#45;&gt;Node12 -->
<g id="edge20" class="edge">
<title>Node18&#45;&gt;Node12</title>
<path fill="none" stroke="#191970" d="M156.5071,-112.2455C161.9316,-104.4564 169.6798,-93.3308 176.2171,-83.9439"/>
<polygon fill="#191970" stroke="#191970" points="179.1555,-85.849 181.9983,-75.6427 173.4112,-81.8485 179.1555,-85.849"/>
</g>
<!-- Node18&#45;&gt;Node15 -->
<g id="edge21" class="edge">
<title>Node18&#45;&gt;Node15</title>
<path fill="none" stroke="#191970" d="M168.1776,-112.2455C184.8212,-103.4527 209.5131,-90.4079 228.433,-80.4125"/>
<polygon fill="#191970" stroke="#191970" points="230.2546,-83.4086 237.4616,-75.6427 226.9847,-77.2193 230.2546,-83.4086"/>
</g>
<!-- Node18&#45;&gt;Node19 -->
<g id="edge22" class="edge">
<title>Node18&#45;&gt;Node19</title>
<path fill="none" stroke="#191970" d="M138.74,-112.2455C129.5256,-104.0549 116.1606,-92.1749 105.2841,-82.5069"/>
<polygon fill="#191970" stroke="#191970" points="107.3612,-79.6704 97.5618,-75.6427 102.7106,-84.9023 107.3612,-79.6704"/>
</g>
<!-- Node19&#45;&gt;Node9 -->
<g id="edge23" class="edge">
<title>Node19&#45;&gt;Node9</title>
<path fill="none" stroke="#191970" d="M103.4357,-56.2455C118.3027,-47.5731 140.2603,-34.7645 157.2995,-24.825"/>
<polygon fill="#191970" stroke="#191970" points="159.3092,-27.7047 166.1835,-19.6427 155.7821,-21.6582 159.3092,-27.7047"/>
</g>
<!-- Node19&#45;&gt;Node13 -->
<g id="edge24" class="edge">
<title>Node19&#45;&gt;Node13</title>
<path fill="none" stroke="#191970" d="M122.986,-56.3733C162.898,-45.7805 226.4767,-28.9065 264.938,-18.6988"/>
<polygon fill="#191970" stroke="#191970" points="265.8449,-22.0793 274.6124,-16.1312 264.0492,-15.3136 265.8449,-22.0793"/>
</g>
<!-- Node20&#45;&gt;Node2 -->
<g id="edge29" class="edge">
<title>Node20&#45;&gt;Node2</title>
<path fill="none" stroke="#191970" d="M82.4391,-291.2635C103.0079,-272.2795 141.0039,-240.3523 179.7138,-224 214.2947,-209.3919 308.9295,-195.3047 376.3837,-186.6529"/>
<polygon fill="#191970" stroke="#191970" points="377.0651,-190.0946 386.5452,-185.3642 376.1843,-183.1503 377.0651,-190.0946"/>
</g>
<!-- Node20&#45;&gt;Node18 -->
<g id="edge28" class="edge">
<title>Node20&#45;&gt;Node18</title>
<path fill="none" stroke="#191970" d="M73.506,-291.4016C88.5174,-258.0329 124.4961,-178.0561 141.0773,-141.1979"/>
<polygon fill="#191970" stroke="#191970" points="144.471,-142.1851 145.3818,-131.6295 138.0872,-139.3133 144.471,-142.1851"/>
</g>
<!-- Node20&#45;&gt;Node19 -->
<g id="edge30" class="edge">
<title>Node20&#45;&gt;Node19</title>
<path fill="none" stroke="#191970" d="M66.2386,-291.2641C65.4526,-258.3401 64.8367,-178.1829 74.7138,-112 76.0352,-103.1457 78.3911,-93.5364 80.6677,-85.4015"/>
<polygon fill="#191970" stroke="#191970" points="84.044,-86.3261 83.5211,-75.7442 77.3309,-84.3426 84.044,-86.3261"/>
</g>
<!-- Node20&#45;&gt;Node21 -->
<g id="edge31" class="edge">
<title>Node20&#45;&gt;Node21</title>
<path fill="none" stroke="#191970" d="M110.7,-291.4639C145.1699,-279.6808 192.6052,-263.4657 225.2736,-252.2984"/>
<polygon fill="#191970" stroke="#191970" points="226.577,-255.5518 234.9073,-249.0053 224.3127,-248.9281 226.577,-255.5518"/>
</g>
<!-- Node21&#45;&gt;Node2 -->
<g id="edge32" class="edge">
<title>Node21&#45;&gt;Node2</title>
<path fill="none" stroke="#191970" d="M291.9325,-229.8906C324.0444,-219.3298 375.7628,-202.3208 411.1745,-190.6747"/>
<polygon fill="#191970" stroke="#191970" points="412.2942,-193.9909 420.7002,-187.5419 410.1073,-187.3413 412.2942,-193.9909"/>
</g>
<!-- Node22&#45;&gt;Node1 -->
<g id="edge34" class="edge">
<title>Node22&#45;&gt;Node1</title>
<path fill="none" stroke="#191970" d="M312.0311,-358.4639C284.752,-346.969 247.4634,-331.2561 221.0516,-320.1266"/>
<polygon fill="#191970" stroke="#191970" points="222.0796,-316.7618 211.5052,-316.1039 219.3613,-323.2125 222.0796,-316.7618"/>
</g>
<!-- Node22&#45;&gt;Node2 -->
<g id="edge35" class="edge">
<title>Node22&#45;&gt;Node2</title>
<path fill="none" stroke="#191970" d="M349.587,-358.3144C352.0899,-341.3046 357.4532,-313.2091 367.7138,-291 384.9451,-253.7028 415.3063,-216.2573 433.8565,-195.2106"/>
<polygon fill="#191970" stroke="#191970" points="436.4901,-197.5162 440.561,-187.7347 431.2788,-192.8426 436.4901,-197.5162"/>
</g>
<!-- Node22&#45;&gt;Node21 -->
<g id="edge42" class="edge">
<title>Node22&#45;&gt;Node21</title>
<path fill="none" stroke="#191970" d="M338.1284,-358.389C322.429,-333.6393 291.2899,-284.5495 274.3498,-257.8438"/>
<polygon fill="#191970" stroke="#191970" points="277.1181,-255.6738 268.806,-249.1042 271.207,-259.4234 277.1181,-255.6738"/>
</g>
<!-- Node22&#45;&gt;Node23 -->
<g id="edge36" class="edge">
<title>Node22&#45;&gt;Node23</title>
<path fill="none" stroke="#191970" d="M365.867,-358.2967C378.5734,-347.6551 395.5225,-333.4602 408.464,-322.6217"/>
<polygon fill="#191970" stroke="#191970" points="410.8856,-325.159 416.3049,-316.055 406.3911,-319.7924 410.8856,-325.159"/>
</g>
<!-- Node23&#45;&gt;Node2 -->
<g id="edge38" class="edge">
<title>Node23&#45;&gt;Node2</title>
<path fill="none" stroke="#191970" d="M429.3673,-296.8416C432.9507,-275.9114 441.4952,-226.004 446.2937,-197.9762"/>
<polygon fill="#191970" stroke="#191970" points="449.8032,-198.2177 448.041,-187.7705 442.9036,-197.0364 449.8032,-198.2177"/>
</g>
<!-- Node23&#45;&gt;Node18 -->
<g id="edge37" class="edge">
<title>Node23&#45;&gt;Node18</title>
<path fill="none" stroke="#191970" d="M417.6348,-296.9256C400.411,-280.8205 363.8581,-247.7445 329.7138,-224 278.8221,-188.6092 214.7439,-154.5801 178.3862,-136.1604"/>
<polygon fill="#191970" stroke="#191970" points="179.8388,-132.9733 169.3325,-131.6064 176.6933,-139.2268 179.8388,-132.9733"/>
</g>
<!-- Node23&#45;&gt;Node21 -->
<g id="edge41" class="edge">
<title>Node23&#45;&gt;Node21</title>
<path fill="none" stroke="#191970" d="M404.0733,-296.9005C375.6474,-285.3579 327.7689,-265.9163 295.7121,-252.8993"/>
<polygon fill="#191970" stroke="#191970" points="296.8925,-249.6011 286.3104,-249.0817 294.2589,-256.0868 296.8925,-249.6011"/>
</g>
<!-- Node24 -->
<g id="node25" class="node">
<title>Node24</title>
<g id="a_node25"><a xlink:href="jaeger_8pb-c_8h_source.html" target="_top" xlink:title="jaegertracingc/protoc\l&#45;gen/jaeger.pb&#45;c.h">
<polygon fill="#ffffff" stroke="#000000" points="456.2138,-224.5 456.2138,-254.5 563.2138,-254.5 563.2138,-224.5 456.2138,-224.5"/>
<text text-anchor="start" x="464.2138" y="-242.5" font-family="Helvetica,sans-Serif" font-size="10.00" fill="#000000">jaegertracingc/protoc</text>
<text text-anchor="middle" x="509.7138" y="-231.5" font-family="Helvetica,sans-Serif" font-size="10.00" fill="#000000">&#45;gen/jaeger.pb&#45;c.h</text>
</a>
</g>
</g>
<!-- Node23&#45;&gt;Node24 -->
<g id="edge39" class="edge">
<title>Node23&#45;&gt;Node24</title>
<path fill="none" stroke="#191970" d="M439.4624,-296.9005C450.8961,-287.5583 468.6627,-273.0417 483.4677,-260.945"/>
<polygon fill="#191970" stroke="#191970" points="485.7997,-263.5594 491.3289,-254.5218 481.3706,-258.1387 485.7997,-263.5594"/>
</g>
<!-- Node25 -->
<g id="node26" class="node">
<title>Node25</title>
<polygon fill="#ffffff" stroke="#bfbfbf" points="531.2138,-168.5 531.2138,-187.5 646.2138,-187.5 646.2138,-168.5 531.2138,-168.5"/>
<text text-anchor="middle" x="588.7138" y="-175.5" font-family="Helvetica,sans-Serif" font-size="10.00" fill="#000000">protobuf&#45;c/protobuf&#45;c.h</text>
</g>
<!-- Node24&#45;&gt;Node25 -->
<g id="edge40" class="edge">
<title>Node24&#45;&gt;Node25</title>
<path fill="none" stroke="#191970" d="M529.2419,-224.2977C541.0075,-215.1384 555.9813,-203.4816 567.9603,-194.1562"/>
<polygon fill="#191970" stroke="#191970" points="570.324,-196.7516 576.0649,-187.8469 566.024,-191.228 570.324,-196.7516"/>
</g>
<!-- Node26&#45;&gt;Node2 -->
<g id="edge45" class="edge">
<title>Node26&#45;&gt;Node2</title>
<path fill="none" stroke="#191970" d="M694.7342,-363.9677C675.9371,-334.2604 617.6378,-244.138 589.7138,-224 567.273,-207.8164 538.8082,-197.097 513.4137,-190.1133"/>
<polygon fill="#191970" stroke="#191970" points="514.0439,-186.6607 503.4844,-187.5257 512.2785,-193.4345 514.0439,-186.6607"/>
</g>
<!-- Node27 -->
<g id="node28" class="node">
<title>Node27</title>
<polygon fill="#ffffff" stroke="#bfbfbf" points="677.2138,-297 677.2138,-316 724.2138,-316 724.2138,-297 677.2138,-297"/>
<text text-anchor="middle" x="700.7138" y="-304" font-family="Helvetica,sans-Serif" font-size="10.00" fill="#000000">errno.h</text>
</g>
<!-- Node26&#45;&gt;Node27 -->
<g id="edge46" class="edge">
<title>Node26&#45;&gt;Node27</title>
<path fill="none" stroke="#191970" d="M700.7138,-363.9005C700.7138,-354.149 700.7138,-338.7597 700.7138,-326.3695"/>
<polygon fill="#191970" stroke="#191970" points="704.2139,-326.0816 700.7138,-316.0817 697.2139,-326.0817 704.2139,-326.0816"/>
</g>
<!-- Node28 -->
<g id="node29" class="node">
<title>Node28</title>
<polygon fill="#ffffff" stroke="#bfbfbf" points="742.2138,-297 742.2138,-316 799.2138,-316 799.2138,-297 742.2138,-297"/>
<text text-anchor="middle" x="770.7138" y="-304" font-family="Helvetica,sans-Serif" font-size="10.00" fill="#000000">pthread.h</text>
</g>
<!-- Node26&#45;&gt;Node28 -->
<g id="edge47" class="edge">
<title>Node26&#45;&gt;Node28</title>
<path fill="none" stroke="#191970" d="M710.7431,-363.9005C721.8669,-353.2535 740.0124,-335.8856 753.4348,-323.0385"/>
<polygon fill="#191970" stroke="#191970" points="755.899,-325.5247 760.7031,-316.0817 751.0588,-320.4678 755.899,-325.5247"/>
</g>
<!-- Node29 -->
<g id="node30" class="node">
<title>Node29</title>
<polygon fill="#ffffff" stroke="#bfbfbf" points="817.2138,-297 817.2138,-316 868.2138,-316 868.2138,-297 817.2138,-297"/>
<text text-anchor="middle" x="842.7138" y="-304" font-family="Helvetica,sans-Serif" font-size="10.00" fill="#000000">sched.h</text>
</g>
<!-- Node26&#45;&gt;Node29 -->
<g id="edge48" class="edge">
<title>Node26&#45;&gt;Node29</title>
<path fill="none" stroke="#191970" d="M721.0589,-363.9005C745.2061,-352.5072 785.6641,-333.4178 813.2382,-320.4075"/>
<polygon fill="#191970" stroke="#191970" points="814.856,-323.5142 822.4064,-316.0817 811.869,-317.1835 814.856,-323.5142"/>
</g>
<!-- Node30&#45;&gt;Node2 -->
<g id="edge50" class="edge">
<title>Node30&#45;&gt;Node2</title>
<path fill="none" stroke="#191970" d="M564.2605,-296.875C572.9407,-280.4029 587.2204,-246.4191 571.7138,-224 562.8925,-211.2464 528.5677,-198.968 498.5653,-190.3093"/>
<polygon fill="#191970" stroke="#191970" points="499.1728,-186.8448 488.5993,-187.5162 497.2837,-193.5851 499.1728,-186.8448"/>
</g>
<!-- Node30&#45;&gt;Node24 -->
<g id="edge51" class="edge">
<title>Node30&#45;&gt;Node24</title>
<path fill="none" stroke="#191970" d="M551.6933,-296.9005C545.1772,-287.9908 535.2192,-274.3748 526.637,-262.6399"/>
<polygon fill="#191970" stroke="#191970" points="529.4282,-260.5274 520.6998,-254.5218 523.778,-264.6596 529.4282,-260.5274"/>
</g>
</g>
</svg>
