<?xml version="1.0" encoding="UTF-8" standalone="no"?>
<!DOCTYPE svg PUBLIC "-//W3C//DTD SVG 1.1//EN"
 "http://www.w3.org/Graphics/SVG/1.1/DTD/svg11.dtd">
<!-- Generated by graphviz version 2.40.1 (20161225.0304)
 -->
<!-- Title: jaegertracingc/span.h Pages: 1 -->
<svg width="312pt" height="196pt"
 viewBox="0.00 0.00 311.50 196.00" xmlns="http://www.w3.org/2000/svg" xmlns:xlink="http://www.w3.org/1999/xlink">
<g id="graph0" class="graph" transform="scale(1 1) rotate(0) translate(4 192)">
<title>jaegertracingc/span.h</title>
<polygon fill="#ffffff" stroke="transparent" points="-4,4 -4,-192 307.5,-192 307.5,4 -4,4"/>
<!-- Node33 -->
<g id="node1" class="node">
<title>Node33</title>
<polygon fill="#bfbfbf" stroke="#000000" points="98.5,-168.5 98.5,-187.5 208.5,-187.5 208.5,-168.5 98.5,-168.5"/>
<text text-anchor="middle" x="153.5" y="-175.5" font-family="Helvetica,sans-Serif" font-size="10.00" fill="#000000">jaegertracingc/span.h</text>
</g>
<!-- Node34 -->
<g id="node2" class="node">
<title>Node34</title>
<g id="a_node2"><a xlink:href="baggage_8h.html" target="_top" xlink:title="Baggage restriction utilities. ">
<polygon fill="#ffffff" stroke="#000000" points="0,-112.5 0,-131.5 125,-131.5 125,-112.5 0,-112.5"/>
<text text-anchor="middle" x="62.5" y="-119.5" font-family="Helvetica,sans-Serif" font-size="10.00" fill="#000000">jaegertracingc/baggage.h</text>
</a>
</g>
</g>
<!-- Node33&#45;&gt;Node34 -->
<g id="edge1" class="edge">
<title>Node33&#45;&gt;Node34</title>
<path fill="none" stroke="#191970" d="M128.7496,-162.769C112.6242,-152.8456 92.074,-140.1994 78.1693,-131.6427"/>
<polygon fill="#191970" stroke="#191970" points="127.2981,-165.9853 137.649,-168.2455 130.9668,-160.0237 127.2981,-165.9853"/>
</g>
<!-- Node35 -->
<g id="node3" class="node">
<title>Node35</title>
<g id="a_node3"><a xlink:href="propagation_8c.html" target="_top" xlink:title="Trace ID representation. ">
<polygon fill="#ffffff" stroke="#000000" points="126,-.5 126,-19.5 265,-19.5 265,-.5 126,-.5"/>
<text text-anchor="middle" x="195.5" y="-7.5" font-family="Helvetica,sans-Serif" font-size="10.00" fill="#000000">jaegertracingc/propagation.c</text>
</a>
</g>
</g>
<!-- Node33&#45;&gt;Node35 -->
<g id="edge2" class="edge">
<title>Node33&#45;&gt;Node35</title>
<path fill="none" stroke="#191970" d="M155.6388,-158.2006C158.6007,-133.7881 164.8301,-91.2064 175.5,-56 179.4402,-42.999 186.005,-28.7614 190.5326,-19.6221"/>
<polygon fill="#191970" stroke="#191970" points="152.1394,-157.9961 154.4728,-168.3307 159.0934,-158.7966 152.1394,-157.9961"/>
</g>
<!-- Node36 -->
<g id="node4" class="node">
<title>Node36</title>
<g id="a_node4"><a xlink:href="reporter_8h.html" target="_top" xlink:title="Span reporter interface. ">
<polygon fill="#ffffff" stroke="#000000" points="181.5,-112.5 181.5,-131.5 303.5,-131.5 303.5,-112.5 181.5,-112.5"/>
<text text-anchor="middle" x="242.5" y="-119.5" font-family="Helvetica,sans-Serif" font-size="10.00" fill="#000000">jaegertracingc/reporter.h</text>
</a>
</g>
</g>
<!-- Node33&#45;&gt;Node36 -->
<g id="edge3" class="edge">
<title>Node33&#45;&gt;Node36</title>
<path fill="none" stroke="#191970" d="M177.7064,-162.769C193.4775,-152.8456 213.576,-140.1994 227.175,-131.6427"/>
<polygon fill="#191970" stroke="#191970" points="175.6026,-159.9575 169.0026,-168.2455 179.3305,-165.8823 175.6026,-159.9575"/>
</g>
<!-- Node37 -->
<g id="node5" class="node">
<title>Node37</title>
<g id="a_node5"><a xlink:href="tracer_8h.html" target="_top" xlink:title="Tracer implementation. ">
<polygon fill="#ffffff" stroke="#000000" points="184,-56.5 184,-75.5 297,-75.5 297,-56.5 184,-56.5"/>
<text text-anchor="middle" x="240.5" y="-63.5" font-family="Helvetica,sans-Serif" font-size="10.00" fill="#000000">jaegertracingc/tracer.h</text>
</a>
</g>
</g>
<!-- Node36&#45;&gt;Node37 -->
<g id="edge4" class="edge">
<title>Node36&#45;&gt;Node37</title>
<path fill="none" stroke="#191970" d="M241.7913,-102.1575C241.4698,-93.155 241.1043,-82.9199 240.8444,-75.6427"/>
<polygon fill="#191970" stroke="#191970" points="238.2968,-102.3769 242.1516,-112.2455 245.2924,-102.127 238.2968,-102.3769"/>
</g>
<!-- Node37&#45;&gt;Node35 -->
<g id="edge5" class="edge">
<title>Node37&#45;&gt;Node35</title>
<path fill="none" stroke="#191970" d="M226.2054,-48.2112C218.6004,-38.7472 209.5462,-27.4797 203.2486,-19.6427"/>
<polygon fill="#191970" stroke="#191970" points="223.6694,-50.6428 232.6616,-56.2455 229.1259,-46.2581 223.6694,-50.6428"/>
</g>
</g>
</svg>
