<?xml version="1.0" encoding="UTF-8" standalone="no"?>
<!DOCTYPE svg PUBLIC "-//W3C//DTD SVG 1.1//EN"
 "http://www.w3.org/Graphics/SVG/1.1/DTD/svg11.dtd">
<!-- Generated by graphviz version 2.40.1 (20161225.0304)
 -->
<!-- Title: jaegertracingc/span.h Pages: 1 -->
<svg width="1100pt" height="453pt"
 viewBox="0.00 0.00 1100.42 453.00" xmlns="http://www.w3.org/2000/svg" xmlns:xlink="http://www.w3.org/1999/xlink">
<g id="graph0" class="graph" transform="scale(1 1) rotate(0) translate(4 449)">
<title>jaegertracingc/span.h</title>
<polygon fill="#ffffff" stroke="transparent" points="-4,4 -4,-449 1096.4198,-449 1096.4198,4 -4,4"/>
<!-- Node0 -->
<g id="node1" class="node">
<title>Node0</title>
<polygon fill="#bfbfbf" stroke="#000000" points="431.1587,-425.5 431.1587,-444.5 541.1587,-444.5 541.1587,-425.5 431.1587,-425.5"/>
<text text-anchor="middle" x="486.1587" y="-432.5" font-family="Helvetica,sans-Serif" font-size="10.00" fill="#000000">jaegertracingc/span.h</text>
</g>
<!-- Node1 -->
<g id="node2" class="node">
<title>Node1</title>
<g id="a_node2"><a xlink:href="clock_8h.html" target="_top" xlink:title="Timestamp and duration representations. ">
<polygon fill="#ffffff" stroke="#000000" points="430.1587,-297 430.1587,-316 542.1587,-316 542.1587,-297 430.1587,-297"/>
<text text-anchor="middle" x="486.1587" y="-304" font-family="Helvetica,sans-Serif" font-size="10.00" fill="#000000">jaegertracingc/clock.h</text>
</a>
</g>
</g>
<!-- Node0&#45;&gt;Node1 -->
<g id="edge1" class="edge">
<title>Node0&#45;&gt;Node1</title>
<path fill="none" stroke="#191970" d="M486.1587,-425.3416C486.1587,-404.4114 486.1587,-354.504 486.1587,-326.4762"/>
<polygon fill="#191970" stroke="#191970" points="489.6588,-326.2704 486.1587,-316.2705 482.6588,-326.2705 489.6588,-326.2704"/>
</g>
<!-- Node2 -->
<g id="node3" class="node">
<title>Node2</title>
<g id="a_node3"><a xlink:href="common_8h.html" target="_top" xlink:title="Common headers, struct definitions, and macros. ">
<polygon fill="#ffffff" stroke="#000000" points="440.1587,-168.5 440.1587,-187.5 566.1587,-187.5 566.1587,-168.5 440.1587,-168.5"/>
<text text-anchor="middle" x="503.1587" y="-175.5" font-family="Helvetica,sans-Serif" font-size="10.00" fill="#000000">jaegertracingc/common.h</text>
</a>
</g>
</g>
<!-- Node0&#45;&gt;Node2 -->
<g id="edge26" class="edge">
<title>Node0&#45;&gt;Node2</title>
<path fill="none" stroke="#191970" d="M541.3298,-432.432C605.2838,-428.1637 704.9102,-417.0839 728.1587,-389 761.6661,-348.5234 784.1569,-315.2016 689.1587,-224 672.8174,-208.3118 621.2161,-196.2962 576.4989,-188.486"/>
<polygon fill="#191970" stroke="#191970" points="576.9342,-185.0099 566.4894,-186.7863 575.7623,-191.9111 576.9342,-185.0099"/>
</g>
<!-- Node20 -->
<g id="node21" class="node">
<title>Node20</title>
<g id="a_node21"><a xlink:href="hashtable_8h.html" target="_top" xlink:title="Hashtable data structure. ">
<polygon fill="#ffffff" stroke="#000000" points="588.6587,-364 588.6587,-383 719.6587,-383 719.6587,-364 588.6587,-364"/>
<text text-anchor="middle" x="654.1587" y="-371" font-family="Helvetica,sans-Serif" font-size="10.00" fill="#000000">jaegertracingc/hashtable.h</text>
</a>
</g>
</g>
<!-- Node0&#45;&gt;Node20 -->
<g id="edge27" class="edge">
<title>Node0&#45;&gt;Node20</title>
<path fill="none" stroke="#191970" d="M512.4087,-425.3906C540.888,-414.9652 586.5329,-398.2559 618.3044,-386.6252"/>
<polygon fill="#191970" stroke="#191970" points="619.9056,-389.7663 628.093,-383.0419 617.4993,-383.1929 619.9056,-389.7663"/>
</g>
<!-- Node21 -->
<g id="node22" class="node">
<title>Node21</title>
<g id="a_node22"><a xlink:href="key__value_8h.html" target="_top" xlink:title="Key value pair representation. ">
<polygon fill="#ffffff" stroke="#000000" points="560.1587,-291.5 560.1587,-321.5 656.1587,-321.5 656.1587,-291.5 560.1587,-291.5"/>
<text text-anchor="start" x="568.1587" y="-309.5" font-family="Helvetica,sans-Serif" font-size="10.00" fill="#000000">jaegertracingc/key</text>
<text text-anchor="middle" x="608.1587" y="-298.5" font-family="Helvetica,sans-Serif" font-size="10.00" fill="#000000">_value.h</text>
</a>
</g>
</g>
<!-- Node0&#45;&gt;Node21 -->
<g id="edge37" class="edge">
<title>Node0&#45;&gt;Node21</title>
<path fill="none" stroke="#191970" d="M495.3285,-425.3416C514.5766,-405.068 559.637,-357.6069 586.6286,-329.1772"/>
<polygon fill="#191970" stroke="#191970" points="589.379,-331.3636 593.726,-321.7016 584.3025,-326.5439 589.379,-331.3636"/>
</g>
<!-- Node22 -->
<g id="node23" class="node">
<title>Node22</title>
<g id="a_node23"><a xlink:href="vector_8h.html" target="_top" xlink:title="C generic vector implementation. ">
<polygon fill="#ffffff" stroke="#000000" points="268.1587,-230 268.1587,-249 384.1587,-249 384.1587,-230 268.1587,-230"/>
<text text-anchor="middle" x="326.1587" y="-237" font-family="Helvetica,sans-Serif" font-size="10.00" fill="#000000">jaegertracingc/vector.h</text>
</a>
</g>
</g>
<!-- Node0&#45;&gt;Node22 -->
<g id="edge57" class="edge">
<title>Node0&#45;&gt;Node22</title>
<path fill="none" stroke="#191970" d="M440.334,-425.463C404.3772,-417.0159 358.4193,-403.7599 346.1587,-389 315.3113,-351.8643 318.5212,-290.6815 322.7335,-259.3462"/>
<polygon fill="#191970" stroke="#191970" points="326.2253,-259.6647 324.2696,-249.2519 319.305,-258.6115 326.2253,-259.6647"/>
</g>
<!-- Node24 -->
<g id="node25" class="node">
<title>Node24</title>
<g id="a_node25"><a xlink:href="log__record_8h.html" target="_top" xlink:title="Log record representation for use in span. ">
<polygon fill="#ffffff" stroke="#000000" points="355.6587,-358.5 355.6587,-388.5 448.6587,-388.5 448.6587,-358.5 355.6587,-358.5"/>
<text text-anchor="start" x="363.6587" y="-376.5" font-family="Helvetica,sans-Serif" font-size="10.00" fill="#000000">jaegertracingc/log</text>
<text text-anchor="middle" x="402.1587" y="-365.5" font-family="Helvetica,sans-Serif" font-size="10.00" fill="#000000">_record.h</text>
</a>
</g>
</g>
<!-- Node0&#45;&gt;Node24 -->
<g id="edge38" class="edge">
<title>Node0&#45;&gt;Node24</title>
<path fill="none" stroke="#191970" d="M473.0337,-425.3906C461.7706,-417.1444 445.1378,-404.9669 430.8153,-394.4807"/>
<polygon fill="#191970" stroke="#191970" points="432.8436,-391.628 422.7074,-388.5446 428.7084,-397.276 432.8436,-391.628"/>
</g>
<!-- Node25 -->
<g id="node26" class="node">
<title>Node25</title>
<g id="a_node26"><a xlink:href="tag_8h.html" target="_top" xlink:title="Tag representation and functions. ">
<polygon fill="#ffffff" stroke="#000000" points="196.1587,-297 196.1587,-316 298.1587,-316 298.1587,-297 196.1587,-297"/>
<text text-anchor="middle" x="247.1587" y="-304" font-family="Helvetica,sans-Serif" font-size="10.00" fill="#000000">jaegertracingc/tag.h</text>
</a>
</g>
</g>
<!-- Node0&#45;&gt;Node25 -->
<g id="edge48" class="edge">
<title>Node0&#45;&gt;Node25</title>
<path fill="none" stroke="#191970" d="M431.1184,-429.5897C394.9135,-423.932 347.8119,-412.4084 312.1587,-389 287.3668,-372.7227 267.8396,-343.8265 256.8949,-324.9168"/>
<polygon fill="#191970" stroke="#191970" points="259.8887,-323.0986 251.9714,-316.0582 253.7702,-326.4992 259.8887,-323.0986"/>
</g>
<!-- Node28 -->
<g id="node29" class="node">
<title>Node28</title>
<g id="a_node29"><a xlink:href="threading_8h.html" target="_top" xlink:title="Threading utilities. ">
<polygon fill="#ffffff" stroke="#000000" points="791.1587,-364 791.1587,-383 919.1587,-383 919.1587,-364 791.1587,-364"/>
<text text-anchor="middle" x="855.1587" y="-371" font-family="Helvetica,sans-Serif" font-size="10.00" fill="#000000">jaegertracingc/threading.h</text>
</a>
</g>
</g>
<!-- Node0&#45;&gt;Node28 -->
<g id="edge49" class="edge">
<title>Node0&#45;&gt;Node28</title>
<path fill="none" stroke="#191970" d="M541.1859,-426.7245C599.2073,-417.8786 693.242,-403.2007 774.1587,-389 781.5127,-387.7094 789.2318,-386.3014 796.8621,-384.8774"/>
<polygon fill="#191970" stroke="#191970" points="797.6242,-388.2955 806.8035,-383.0047 796.3283,-381.4165 797.6242,-388.2955"/>
</g>
<!-- Node32 -->
<g id="node33" class="node">
<title>Node32</title>
<g id="a_node33"><a xlink:href="trace__id_8h.html" target="_top" xlink:title="Trace ID representation. ">
<polygon fill="#ffffff" stroke="#000000" points="54.6587,-297 54.6587,-316 177.6587,-316 177.6587,-297 54.6587,-297"/>
<text text-anchor="middle" x="116.1587" y="-304" font-family="Helvetica,sans-Serif" font-size="10.00" fill="#000000">jaegertracingc/trace_id.h</text>
</a>
</g>
</g>
<!-- Node0&#45;&gt;Node32 -->
<g id="edge54" class="edge">
<title>Node0&#45;&gt;Node32</title>
<path fill="none" stroke="#191970" d="M430.9478,-426.8335C388.1723,-419.5611 327.8548,-407.2239 277.1587,-389 226.2673,-370.7059 170.9992,-339.6982 140.2654,-321.3558"/>
<polygon fill="#191970" stroke="#191970" points="141.9178,-318.2651 131.5469,-316.098 138.3028,-324.2594 141.9178,-318.2651"/>
</g>
<!-- Node1&#45;&gt;Node2 -->
<g id="edge2" class="edge">
<title>Node1&#45;&gt;Node2</title>
<path fill="none" stroke="#191970" d="M487.4365,-296.8416C490.2054,-275.9114 496.808,-226.004 500.5159,-197.9762"/>
<polygon fill="#191970" stroke="#191970" points="504.0243,-198.1432 501.8661,-187.7705 497.0847,-197.225 504.0243,-198.1432"/>
</g>
<!-- Node3 -->
<g id="node4" class="node">
<title>Node3</title>
<g id="a_node4"><a xlink:href="config_8h_source.html" target="_top" xlink:title="jaegertracingc/config.h">
<polygon fill="#ffffff" stroke="#000000" points="950.6587,-112.5 950.6587,-131.5 1065.6587,-131.5 1065.6587,-112.5 950.6587,-112.5"/>
<text text-anchor="middle" x="1008.1587" y="-119.5" font-family="Helvetica,sans-Serif" font-size="10.00" fill="#000000">jaegertracingc/config.h</text>
</a>
</g>
</g>
<!-- Node2&#45;&gt;Node3 -->
<g id="edge3" class="edge">
<title>Node2&#45;&gt;Node3</title>
<path fill="none" stroke="#191970" d="M566.3509,-170.9925C661.8211,-160.4057 842.0772,-140.417 940.2542,-129.53"/>
<polygon fill="#191970" stroke="#191970" points="940.8084,-132.9901 950.3617,-128.4092 940.0368,-126.0327 940.8084,-132.9901"/>
</g>
<!-- Node5 -->
<g id="node6" class="node">
<title>Node5</title>
<polygon fill="#ffffff" stroke="#bfbfbf" points="19.1587,-56.5 19.1587,-75.5 71.1587,-75.5 71.1587,-56.5 19.1587,-56.5"/>
<text text-anchor="middle" x="45.1587" y="-63.5" font-family="Helvetica,sans-Serif" font-size="10.00" fill="#000000">assert.h</text>
</g>
<!-- Node2&#45;&gt;Node5 -->
<g id="edge5" class="edge">
<title>Node2&#45;&gt;Node5</title>
<path fill="none" stroke="#191970" d="M439.7607,-176.1021C320.9998,-171.9035 74.5553,-159.8992 48.1587,-132 36.7256,-119.9162 37.284,-100.341 39.9163,-85.641"/>
<polygon fill="#191970" stroke="#191970" points="43.405,-86.0774 42.1693,-75.5549 36.5734,-84.5514 43.405,-86.0774"/>
</g>
<!-- Node6 -->
<g id="node7" class="node">
<title>Node6</title>
<polygon fill="#ffffff" stroke="#bfbfbf" points="299.6587,-112.5 299.6587,-131.5 348.6587,-131.5 348.6587,-112.5 299.6587,-112.5"/>
<text text-anchor="middle" x="324.1587" y="-119.5" font-family="Helvetica,sans-Serif" font-size="10.00" fill="#000000">ctype.h</text>
</g>
<!-- Node2&#45;&gt;Node6 -->
<g id="edge6" class="edge">
<title>Node2&#45;&gt;Node6</title>
<path fill="none" stroke="#191970" d="M472.3875,-168.3733C440.6819,-158.4542 391.3714,-143.0275 358.437,-132.7239"/>
<polygon fill="#191970" stroke="#191970" points="359.3683,-129.3481 348.7794,-129.7026 357.2782,-136.0288 359.3683,-129.3481"/>
</g>
<!-- Node7 -->
<g id="node8" class="node">
<title>Node7</title>
<polygon fill="#ffffff" stroke="#bfbfbf" points="366.6587,-112.5 366.6587,-131.5 425.6587,-131.5 425.6587,-112.5 366.6587,-112.5"/>
<text text-anchor="middle" x="396.1587" y="-119.5" font-family="Helvetica,sans-Serif" font-size="10.00" fill="#000000">inttypes.h</text>
</g>
<!-- Node2&#45;&gt;Node7 -->
<g id="edge7" class="edge">
<title>Node2&#45;&gt;Node7</title>
<path fill="none" stroke="#191970" d="M484.5207,-168.2455C467.72,-159.4527 442.7952,-146.4079 423.6969,-136.4125"/>
<polygon fill="#191970" stroke="#191970" points="425.066,-133.1787 414.5831,-131.6427 421.8201,-139.3807 425.066,-133.1787"/>
</g>
<!-- Node8 -->
<g id="node9" class="node">
<title>Node8</title>
<polygon fill="#ffffff" stroke="#bfbfbf" points="444.1587,-112.5 444.1587,-131.5 492.1587,-131.5 492.1587,-112.5 444.1587,-112.5"/>
<text text-anchor="middle" x="468.1587" y="-119.5" font-family="Helvetica,sans-Serif" font-size="10.00" fill="#000000">limits.h</text>
</g>
<!-- Node2&#45;&gt;Node8 -->
<g id="edge8" class="edge">
<title>Node2&#45;&gt;Node8</title>
<path fill="none" stroke="#191970" d="M497.0622,-168.2455C492.2441,-160.5367 485.3836,-149.5598 479.5554,-140.2348"/>
<polygon fill="#191970" stroke="#191970" points="482.4534,-138.2677 474.1854,-131.6427 476.5174,-141.9777 482.4534,-138.2677"/>
</g>
<!-- Node9 -->
<g id="node10" class="node">
<title>Node9</title>
<polygon fill="#ffffff" stroke="#bfbfbf" points="346.1587,-.5 346.1587,-19.5 398.1587,-19.5 398.1587,-.5 346.1587,-.5"/>
<text text-anchor="middle" x="372.1587" y="-7.5" font-family="Helvetica,sans-Serif" font-size="10.00" fill="#000000">stdarg.h</text>
</g>
<!-- Node2&#45;&gt;Node9 -->
<g id="edge9" class="edge">
<title>Node2&#45;&gt;Node9</title>
<path fill="none" stroke="#191970" d="M566.2276,-175.2034C711.3944,-168.4619 1058.0883,-150.4983 1075.1587,-132 1098.0659,-107.1767 1098.2503,-80.6519 1075.1587,-56 1052.1627,-31.4502 549.4257,-15.1211 408.5562,-11.0158"/>
<polygon fill="#191970" stroke="#191970" points="408.3948,-7.5098 398.298,-10.7199 408.1929,-14.5069 408.3948,-7.5098"/>
</g>
<!-- Node10 -->
<g id="node11" class="node">
<title>Node10</title>
<polygon fill="#ffffff" stroke="#bfbfbf" points="510.1587,-112.5 510.1587,-131.5 566.1587,-131.5 566.1587,-112.5 510.1587,-112.5"/>
<text text-anchor="middle" x="538.1587" y="-119.5" font-family="Helvetica,sans-Serif" font-size="10.00" fill="#000000">stdbool.h</text>
</g>
<!-- Node2&#45;&gt;Node10 -->
<g id="edge10" class="edge">
<title>Node2&#45;&gt;Node10</title>
<path fill="none" stroke="#191970" d="M509.2552,-168.2455C514.0732,-160.5367 520.9338,-149.5598 526.7619,-140.2348"/>
<polygon fill="#191970" stroke="#191970" points="529.8,-141.9777 532.132,-131.6427 523.864,-138.2677 529.8,-141.9777"/>
</g>
<!-- Node11 -->
<g id="node12" class="node">
<title>Node11</title>
<polygon fill="#ffffff" stroke="#bfbfbf" points="584.1587,-112.5 584.1587,-131.5 636.1587,-131.5 636.1587,-112.5 584.1587,-112.5"/>
<text text-anchor="middle" x="610.1587" y="-119.5" font-family="Helvetica,sans-Serif" font-size="10.00" fill="#000000">stddef.h</text>
</g>
<!-- Node2&#45;&gt;Node11 -->
<g id="edge11" class="edge">
<title>Node2&#45;&gt;Node11</title>
<path fill="none" stroke="#191970" d="M521.7967,-168.2455C538.5973,-159.4527 563.5221,-146.4079 582.6205,-136.4125"/>
<polygon fill="#191970" stroke="#191970" points="584.4973,-139.3807 591.7343,-131.6427 581.2514,-133.1787 584.4973,-139.3807"/>
</g>
<!-- Node12 -->
<g id="node13" class="node">
<title>Node12</title>
<polygon fill="#ffffff" stroke="#bfbfbf" points="89.6587,-56.5 89.6587,-75.5 138.6587,-75.5 138.6587,-56.5 89.6587,-56.5"/>
<text text-anchor="middle" x="114.1587" y="-63.5" font-family="Helvetica,sans-Serif" font-size="10.00" fill="#000000">stdint.h</text>
</g>
<!-- Node2&#45;&gt;Node12 -->
<g id="edge12" class="edge">
<title>Node2&#45;&gt;Node12</title>
<path fill="none" stroke="#191970" d="M440.0774,-169.4701C373.6487,-160.0651 273.7135,-144.597 237.1587,-132 200.1435,-119.2443 160.8617,-96.3035 136.9156,-81.1126"/>
<polygon fill="#191970" stroke="#191970" points="138.5328,-77.9909 128.2313,-75.5148 134.7402,-83.8745 138.5328,-77.9909"/>
</g>
<!-- Node13 -->
<g id="node14" class="node">
<title>Node13</title>
<polygon fill="#ffffff" stroke="#bfbfbf" points="170.1587,-.5 170.1587,-19.5 216.1587,-19.5 216.1587,-.5 170.1587,-.5"/>
<text text-anchor="middle" x="193.1587" y="-7.5" font-family="Helvetica,sans-Serif" font-size="10.00" fill="#000000">stdio.h</text>
</g>
<!-- Node2&#45;&gt;Node13 -->
<g id="edge13" class="edge">
<title>Node2&#45;&gt;Node13</title>
<path fill="none" stroke="#191970" d="M439.9214,-175.2362C319.9556,-169.4928 68.3821,-154.8665 36.1587,-132 7.0446,-111.34 -11.7933,-84.1528 10.1587,-56 28.3711,-32.643 112.1579,-19.3317 159.7963,-13.528"/>
<polygon fill="#191970" stroke="#191970" points="160.4161,-16.9794 169.9407,-12.339 159.6012,-10.027 160.4161,-16.9794"/>
</g>
<!-- Node14 -->
<g id="node15" class="node">
<title>Node14</title>
<polygon fill="#ffffff" stroke="#bfbfbf" points="654.1587,-112.5 654.1587,-131.5 702.1587,-131.5 702.1587,-112.5 654.1587,-112.5"/>
<text text-anchor="middle" x="678.1587" y="-119.5" font-family="Helvetica,sans-Serif" font-size="10.00" fill="#000000">stdlib.h</text>
</g>
<!-- Node2&#45;&gt;Node14 -->
<g id="edge14" class="edge">
<title>Node2&#45;&gt;Node14</title>
<path fill="none" stroke="#191970" d="M533.2423,-168.3733C564.1057,-158.4969 612.0326,-143.1603 644.2291,-132.8575"/>
<polygon fill="#191970" stroke="#191970" points="645.6307,-136.0839 654.0882,-129.7026 643.4972,-129.4169 645.6307,-136.0839"/>
</g>
<!-- Node15 -->
<g id="node16" class="node">
<title>Node15</title>
<polygon fill="#ffffff" stroke="#bfbfbf" points="156.6587,-56.5 156.6587,-75.5 205.6587,-75.5 205.6587,-56.5 156.6587,-56.5"/>
<text text-anchor="middle" x="181.1587" y="-63.5" font-family="Helvetica,sans-Serif" font-size="10.00" fill="#000000">string.h</text>
</g>
<!-- Node2&#45;&gt;Node15 -->
<g id="edge15" class="edge">
<title>Node2&#45;&gt;Node15</title>
<path fill="none" stroke="#191970" d="M442.4932,-168.4621C386.0408,-159.0804 306.3669,-144.4022 277.1587,-132 247.8809,-119.5683 218.3457,-97.5031 199.9184,-82.332"/>
<polygon fill="#191970" stroke="#191970" points="201.7189,-79.2726 191.8144,-75.5106 197.2111,-84.628 201.7189,-79.2726"/>
</g>
<!-- Node16 -->
<g id="node17" class="node">
<title>Node16</title>
<polygon fill="#ffffff" stroke="#bfbfbf" points="720.1587,-112.5 720.1587,-131.5 764.1587,-131.5 764.1587,-112.5 720.1587,-112.5"/>
<text text-anchor="middle" x="742.1587" y="-119.5" font-family="Helvetica,sans-Serif" font-size="10.00" fill="#000000">time.h</text>
</g>
<!-- Node2&#45;&gt;Node16 -->
<g id="edge16" class="edge">
<title>Node2&#45;&gt;Node16</title>
<path fill="none" stroke="#191970" d="M552.649,-168.4253C592.7609,-160.3562 650.9089,-147.963 710.007,-132.1381"/>
<polygon fill="#191970" stroke="#191970" points="711.1456,-135.4559 719.8829,-129.4634 709.3156,-128.6993 711.1456,-135.4559"/>
</g>
<!-- Node17 -->
<g id="node18" class="node">
<title>Node17</title>
<polygon fill="#ffffff" stroke="#bfbfbf" points="782.6587,-112.5 782.6587,-131.5 893.6587,-131.5 893.6587,-112.5 782.6587,-112.5"/>
<text text-anchor="middle" x="838.1587" y="-119.5" font-family="Helvetica,sans-Serif" font-size="10.00" fill="#000000">opentracing&#45;c/tracer.h</text>
</g>
<!-- Node2&#45;&gt;Node17 -->
<g id="edge17" class="edge">
<title>Node2&#45;&gt;Node17</title>
<path fill="none" stroke="#191970" d="M560.3666,-168.4369C619.2258,-158.5977 710.7937,-143.2909 772.5534,-132.9669"/>
<polygon fill="#191970" stroke="#191970" points="773.2939,-136.3917 782.58,-131.2908 772.1397,-129.4875 773.2939,-136.3917"/>
</g>
<!-- Node18 -->
<g id="node19" class="node">
<title>Node18</title>
<g id="a_node19"><a xlink:href="alloc_8h.html" target="_top" xlink:title="Allocator struct and functions. ">
<polygon fill="#ffffff" stroke="#000000" points="57.6587,-112.5 57.6587,-131.5 166.6587,-131.5 166.6587,-112.5 57.6587,-112.5"/>
<text text-anchor="middle" x="112.1587" y="-119.5" font-family="Helvetica,sans-Serif" font-size="10.00" fill="#000000">jaegertracingc/alloc.h</text>
</a>
</g>
</g>
<!-- Node2&#45;&gt;Node18 -->
<g id="edge18" class="edge">
<title>Node2&#45;&gt;Node18</title>
<path fill="none" stroke="#191970" d="M439.9162,-169.004C374.9834,-159.7585 271.0093,-144.9288 181.1587,-132 179.6985,-131.7899 178.221,-131.5771 176.7311,-131.3624"/>
<polygon fill="#191970" stroke="#191970" points="177.1678,-127.8893 166.7704,-129.9252 176.168,-134.8175 177.1678,-127.8893"/>
</g>
<!-- Node19 -->
<g id="node20" class="node">
<title>Node19</title>
<g id="a_node20"><a xlink:href="logging_8h.html" target="_top" xlink:title="Logging interface and initialization functions. ">
<polygon fill="#ffffff" stroke="#000000" points="223.6587,-56.5 223.6587,-75.5 342.6587,-75.5 342.6587,-56.5 223.6587,-56.5"/>
<text text-anchor="middle" x="283.1587" y="-63.5" font-family="Helvetica,sans-Serif" font-size="10.00" fill="#000000">jaegertracingc/logging.h</text>
</a>
</g>
</g>
<!-- Node2&#45;&gt;Node19 -->
<g id="edge25" class="edge">
<title>Node2&#45;&gt;Node19</title>
<path fill="none" stroke="#191970" d="M441.6864,-168.4683C382.4652,-158.6963 300.3662,-143.363 290.1587,-132 279.1137,-119.7047 278.2482,-100.4676 279.6225,-85.9277"/>
<polygon fill="#191970" stroke="#191970" points="283.1044,-86.2967 280.9785,-75.9173 276.1677,-85.357 283.1044,-86.2967"/>
</g>
<!-- Node4 -->
<g id="node5" class="node">
<title>Node4</title>
<g id="a_node5"><a xlink:href="visibility_8h_source.html" target="_top" xlink:title="jaegertracingc/visibility.h">
<polygon fill="#ffffff" stroke="#000000" points="942.1587,-56.5 942.1587,-75.5 1066.1587,-75.5 1066.1587,-56.5 942.1587,-56.5"/>
<text text-anchor="middle" x="1004.1587" y="-63.5" font-family="Helvetica,sans-Serif" font-size="10.00" fill="#000000">jaegertracingc/visibility.h</text>
</a>
</g>
</g>
<!-- Node3&#45;&gt;Node4 -->
<g id="edge4" class="edge">
<title>Node3&#45;&gt;Node4</title>
<path fill="none" stroke="#191970" d="M1007.4619,-112.2455C1006.94,-104.9382 1006.2083,-94.6944 1005.5662,-85.7046"/>
<polygon fill="#191970" stroke="#191970" points="1009.0511,-85.3679 1004.8475,-75.6427 1002.0689,-85.8667 1009.0511,-85.3679"/>
</g>
<!-- Node18&#45;&gt;Node5 -->
<g id="edge19" class="edge">
<title>Node18&#45;&gt;Node5</title>
<path fill="none" stroke="#191970" d="M100.4882,-112.2455C90.5926,-103.9746 76.196,-91.9416 64.5686,-82.2232"/>
<polygon fill="#191970" stroke="#191970" points="66.6129,-79.3703 56.6955,-75.6427 62.1237,-84.7413 66.6129,-79.3703"/>
</g>
<!-- Node18&#45;&gt;Node12 -->
<g id="edge20" class="edge">
<title>Node18&#45;&gt;Node12</title>
<path fill="none" stroke="#191970" d="M112.5071,-112.2455C112.768,-104.9382 113.1339,-94.6944 113.455,-85.7046"/>
<polygon fill="#191970" stroke="#191970" points="116.9551,-85.7613 113.8143,-75.6427 109.9595,-85.5113 116.9551,-85.7613"/>
</g>
<!-- Node18&#45;&gt;Node15 -->
<g id="edge21" class="edge">
<title>Node18&#45;&gt;Node15</title>
<path fill="none" stroke="#191970" d="M124.1776,-112.2455C134.3685,-103.9746 149.1949,-91.9416 161.1694,-82.2232"/>
<polygon fill="#191970" stroke="#191970" points="163.7185,-84.662 169.2775,-75.6427 159.3073,-79.2268 163.7185,-84.662"/>
</g>
<!-- Node18&#45;&gt;Node19 -->
<g id="edge22" class="edge">
<title>Node18&#45;&gt;Node19</title>
<path fill="none" stroke="#191970" d="M141.5546,-112.3733C169.9893,-103.0613 213.2464,-88.8953 244.4668,-78.671"/>
<polygon fill="#191970" stroke="#191970" points="245.7323,-81.9396 254.1463,-75.5011 243.5537,-75.2872 245.7323,-81.9396"/>
</g>
<!-- Node19&#45;&gt;Node9 -->
<g id="edge23" class="edge">
<title>Node19&#45;&gt;Node9</title>
<path fill="none" stroke="#191970" d="M298.6613,-56.2455C312.3166,-47.6534 332.4244,-35.0014 348.1576,-25.1018"/>
<polygon fill="#191970" stroke="#191970" points="350.2338,-27.9307 356.8337,-19.6427 346.5058,-22.006 350.2338,-27.9307"/>
</g>
<!-- Node19&#45;&gt;Node13 -->
<g id="edge24" class="edge">
<title>Node19&#45;&gt;Node13</title>
<path fill="none" stroke="#191970" d="M267.4819,-56.2455C253.6731,-47.6534 233.3394,-35.0014 217.4294,-25.1018"/>
<polygon fill="#191970" stroke="#191970" points="218.9955,-21.954 208.6558,-19.6427 215.2974,-27.8974 218.9955,-21.954"/>
</g>
<!-- Node20&#45;&gt;Node2 -->
<g id="edge28" class="edge">
<title>Node20&#45;&gt;Node2</title>
<path fill="none" stroke="#191970" d="M661.3252,-363.8627C668.2117,-353.953 678.1461,-337.781 682.1587,-322 693.0715,-279.0815 695.2233,-255.5606 664.1587,-224 650.3532,-209.9741 606.1127,-197.9168 567.4938,-189.6694"/>
<polygon fill="#191970" stroke="#191970" points="567.804,-186.1591 557.301,-187.5509 566.3796,-193.0127 567.804,-186.1591"/>
</g>
<!-- Node20&#45;&gt;Node21 -->
<g id="edge29" class="edge">
<title>Node20&#45;&gt;Node21</title>
<path fill="none" stroke="#191970" d="M647.568,-363.9005C641.5103,-355.0773 632.2838,-341.6387 624.2808,-329.9822"/>
<polygon fill="#191970" stroke="#191970" points="627.0177,-327.7848 618.4721,-321.5218 621.2468,-331.7468 627.0177,-327.7848"/>
</g>
<!-- Node23 -->
<g id="node24" class="node">
<title>Node23</title>
<g id="a_node24"><a xlink:href="list_8h_source.html" target="_top" xlink:title="jaegertracingc/list.h">
<polygon fill="#ffffff" stroke="#000000" points="554.6587,-230 554.6587,-249 655.6587,-249 655.6587,-230 554.6587,-230"/>
<text text-anchor="middle" x="605.1587" y="-237" font-family="Helvetica,sans-Serif" font-size="10.00" fill="#000000">jaegertracingc/list.h</text>
</a>
</g>
</g>
<!-- Node20&#45;&gt;Node23 -->
<g id="edge35" class="edge">
<title>Node20&#45;&gt;Node23</title>
<path fill="none" stroke="#191970" d="M658.6934,-363.846C665.489,-347.9066 676.3808,-315.4214 665.1587,-291 658.1729,-275.7977 644.2398,-263.3979 631.5576,-254.5778"/>
<polygon fill="#191970" stroke="#191970" points="633.3674,-251.5796 623.0782,-249.0531 629.5461,-257.4446 633.3674,-251.5796"/>
</g>
<!-- Node21&#45;&gt;Node2 -->
<g id="edge31" class="edge">
<title>Node21&#45;&gt;Node2</title>
<path fill="none" stroke="#191970" d="M585.6176,-291.4081C572.699,-281.9942 556.7928,-269.0268 545.1587,-255 530.4857,-237.3093 518.5147,-213.7121 511.1603,-197.3232"/>
<polygon fill="#191970" stroke="#191970" points="514.1932,-195.5185 507.012,-187.7287 507.7681,-198.2965 514.1932,-195.5185"/>
</g>
<!-- Node21&#45;&gt;Node18 -->
<g id="edge30" class="edge">
<title>Node21&#45;&gt;Node18</title>
<path fill="none" stroke="#191970" d="M569.3989,-291.3834C526.4107,-274.6746 454.9597,-247.0715 393.1587,-224 305.6859,-191.3447 202.381,-154.2125 148.696,-135.0231"/>
<polygon fill="#191970" stroke="#191970" points="149.5465,-131.6104 138.9519,-131.5425 147.1918,-138.2025 149.5465,-131.6104"/>
</g>
<!-- Node21&#45;&gt;Node19 -->
<g id="edge32" class="edge">
<title>Node21&#45;&gt;Node19</title>
<path fill="none" stroke="#191970" d="M656.1643,-295.5274C759.151,-269.9572 985.4403,-201.7002 902.1587,-112 883.6953,-92.1137 510.9775,-75.04 352.9794,-68.6668"/>
<polygon fill="#191970" stroke="#191970" points="353.021,-65.1658 342.8889,-68.2626 352.7408,-72.1602 353.021,-65.1658"/>
</g>
<!-- Node21&#45;&gt;Node22 -->
<g id="edge33" class="edge">
<title>Node21&#45;&gt;Node22</title>
<path fill="none" stroke="#191970" d="M559.9925,-293.255C557.0065,-292.4795 554.0437,-291.7221 551.1587,-291 492.973,-276.4361 425.91,-261.2971 380.2418,-251.2344"/>
<polygon fill="#191970" stroke="#191970" points="380.7786,-247.7689 370.2604,-249.0408 379.276,-254.6057 380.7786,-247.7689"/>
</g>
<!-- Node22&#45;&gt;Node2 -->
<g id="edge34" class="edge">
<title>Node22&#45;&gt;Node2</title>
<path fill="none" stroke="#191970" d="M353.8149,-229.8906C384.0797,-219.3749 432.7442,-202.466 466.2498,-190.8243"/>
<polygon fill="#191970" stroke="#191970" points="467.3993,-194.1302 475.6966,-187.5419 465.1018,-187.5179 467.3993,-194.1302"/>
</g>
<!-- Node23&#45;&gt;Node2 -->
<g id="edge36" class="edge">
<title>Node23&#45;&gt;Node2</title>
<path fill="none" stroke="#191970" d="M589.2212,-229.8906C572.7535,-219.9616 546.8329,-204.333 527.7383,-192.8201"/>
<polygon fill="#191970" stroke="#191970" points="529.3553,-189.7081 518.9843,-187.5419 525.7409,-195.7027 529.3553,-189.7081"/>
</g>
<!-- Node24&#45;&gt;Node1 -->
<g id="edge39" class="edge">
<title>Node24&#45;&gt;Node1</title>
<path fill="none" stroke="#191970" d="M421.2196,-358.2967C434.6884,-347.5537 452.6972,-333.1895 466.3335,-322.3129"/>
<polygon fill="#191970" stroke="#191970" points="468.544,-325.0268 474.1793,-316.055 464.1791,-319.5544 468.544,-325.0268"/>
</g>
<!-- Node24&#45;&gt;Node2 -->
<g id="edge40" class="edge">
<title>Node24&#45;&gt;Node2</title>
<path fill="none" stroke="#191970" d="M403.8055,-358.3137C406.0643,-341.3033 411.0532,-313.2072 421.1587,-291 438.1757,-253.6045 468.6063,-216.1909 487.228,-195.1769"/>
<polygon fill="#191970" stroke="#191970" points="489.8609,-197.4834 493.9604,-187.7138 484.6633,-192.7946 489.8609,-197.4834"/>
</g>
<!-- Node24&#45;&gt;Node22 -->
<g id="edge47" class="edge">
<title>Node24&#45;&gt;Node22</title>
<path fill="none" stroke="#191970" d="M393.5883,-358.389C379.5511,-333.6393 351.7091,-284.5495 336.5626,-257.8438"/>
<polygon fill="#191970" stroke="#191970" points="339.5837,-256.0758 331.6058,-249.1042 333.4948,-259.5293 339.5837,-256.0758"/>
</g>
<!-- Node24&#45;&gt;Node25 -->
<g id="edge41" class="edge">
<title>Node24&#45;&gt;Node25</title>
<path fill="none" stroke="#191970" d="M367.3737,-358.4639C340.7809,-346.969 304.4303,-331.2561 278.683,-320.1266"/>
<polygon fill="#191970" stroke="#191970" points="279.9446,-316.859 269.3767,-316.1039 277.1671,-323.2844 279.9446,-316.859"/>
</g>
<!-- Node25&#45;&gt;Node2 -->
<g id="edge43" class="edge">
<title>Node25&#45;&gt;Node2</title>
<path fill="none" stroke="#191970" d="M245.3449,-296.8346C242.7343,-279.6788 240.1249,-243.8484 259.1587,-224 282.2283,-199.943 366.4615,-188.1649 429.5465,-182.6093"/>
<polygon fill="#191970" stroke="#191970" points="430.2012,-186.0666 439.8716,-181.7383 429.6127,-179.0914 430.2012,-186.0666"/>
</g>
<!-- Node25&#45;&gt;Node18 -->
<g id="edge42" class="edge">
<title>Node25&#45;&gt;Node18</title>
<path fill="none" stroke="#191970" d="M244.5953,-296.7464C237.8515,-272.5835 217.6471,-208.9468 182.1587,-168 171.0154,-155.1428 155.4364,-144.4296 141.8037,-136.5861"/>
<polygon fill="#191970" stroke="#191970" points="143.2061,-133.3634 132.7551,-131.6234 139.8399,-139.501 143.2061,-133.3634"/>
</g>
<!-- Node25&#45;&gt;Node22 -->
<g id="edge46" class="edge">
<title>Node25&#45;&gt;Node22</title>
<path fill="none" stroke="#191970" d="M258.4775,-296.9005C271.1488,-286.1539 291.8935,-268.5603 307.0814,-255.6794"/>
<polygon fill="#191970" stroke="#191970" points="309.4982,-258.2191 314.8609,-249.0817 304.9705,-252.8805 309.4982,-258.2191"/>
</g>
<!-- Node26 -->
<g id="node27" class="node">
<title>Node26</title>
<g id="a_node27"><a xlink:href="jaeger_8pb-c_8h_source.html" target="_top" xlink:title="jaegertracingc/protoc\l&#45;gen/jaeger.pb&#45;c.h">
<polygon fill="#ffffff" stroke="#000000" points="66.6587,-224.5 66.6587,-254.5 173.6587,-254.5 173.6587,-224.5 66.6587,-224.5"/>
<text text-anchor="start" x="74.6587" y="-242.5" font-family="Helvetica,sans-Serif" font-size="10.00" fill="#000000">jaegertracingc/protoc</text>
<text text-anchor="middle" x="120.1587" y="-231.5" font-family="Helvetica,sans-Serif" font-size="10.00" fill="#000000">&#45;gen/jaeger.pb&#45;c.h</text>
</a>
</g>
</g>
<!-- Node25&#45;&gt;Node26 -->
<g id="edge44" class="edge">
<title>Node25&#45;&gt;Node26</title>
<path fill="none" stroke="#191970" d="M228.9627,-296.9005C210.4345,-287.1258 181.169,-271.6865 157.6544,-259.2812"/>
<polygon fill="#191970" stroke="#191970" points="159.1106,-256.0923 148.6328,-254.5218 155.8443,-262.2835 159.1106,-256.0923"/>
</g>
<!-- Node27 -->
<g id="node28" class="node">
<title>Node27</title>
<polygon fill="#ffffff" stroke="#bfbfbf" points="58.6587,-168.5 58.6587,-187.5 173.6587,-187.5 173.6587,-168.5 58.6587,-168.5"/>
<text text-anchor="middle" x="116.1587" y="-175.5" font-family="Helvetica,sans-Serif" font-size="10.00" fill="#000000">protobuf&#45;c/protobuf&#45;c.h</text>
</g>
<!-- Node26&#45;&gt;Node27 -->
<g id="edge45" class="edge">
<title>Node26&#45;&gt;Node27</title>
<path fill="none" stroke="#191970" d="M119.1699,-224.2977C118.6552,-216.3834 118.0191,-206.6043 117.4644,-198.0759"/>
<polygon fill="#191970" stroke="#191970" points="120.9409,-197.5986 116.7991,-187.8469 113.9556,-198.053 120.9409,-197.5986"/>
</g>
<!-- Node28&#45;&gt;Node2 -->
<g id="edge50" class="edge">
<title>Node28&#45;&gt;Node2</title>
<path fill="none" stroke="#191970" d="M846.8918,-363.6968C838.6807,-353.658 826.063,-337.3877 817.1587,-322 793.3362,-280.832 811.6541,-253.2646 774.1587,-224 744.0842,-200.5273 645.8667,-188.4314 576.3558,-182.6574"/>
<polygon fill="#191970" stroke="#191970" points="576.5682,-179.1633 566.3199,-181.8508 576.0074,-186.1408 576.5682,-179.1633"/>
</g>
<!-- Node29 -->
<g id="node30" class="node">
<title>Node29</title>
<polygon fill="#ffffff" stroke="#bfbfbf" points="970.6587,-297 970.6587,-316 1017.6587,-316 1017.6587,-297 970.6587,-297"/>
<text text-anchor="middle" x="994.1587" y="-304" font-family="Helvetica,sans-Serif" font-size="10.00" fill="#000000">errno.h</text>
</g>
<!-- Node28&#45;&gt;Node29 -->
<g id="edge51" class="edge">
<title>Node28&#45;&gt;Node29</title>
<path fill="none" stroke="#191970" d="M875.2811,-363.8333C896.793,-353.4948 931.8973,-336.6114 962.1587,-322 963.1593,-321.5169 964.1774,-321.025 965.2056,-320.5281"/>
<polygon fill="#191970" stroke="#191970" points="967.0539,-323.5221 974.5316,-316.0164 964.0054,-317.2207 967.0539,-323.5221"/>
</g>
<!-- Node30 -->
<g id="node31" class="node">
<title>Node30</title>
<polygon fill="#ffffff" stroke="#bfbfbf" points="826.6587,-297 826.6587,-316 883.6587,-316 883.6587,-297 826.6587,-297"/>
<text text-anchor="middle" x="855.1587" y="-304" font-family="Helvetica,sans-Serif" font-size="10.00" fill="#000000">pthread.h</text>
</g>
<!-- Node28&#45;&gt;Node30 -->
<g id="edge52" class="edge">
<title>Node28&#45;&gt;Node30</title>
<path fill="none" stroke="#191970" d="M855.1587,-363.9005C855.1587,-354.149 855.1587,-338.7597 855.1587,-326.3695"/>
<polygon fill="#191970" stroke="#191970" points="858.6588,-326.0816 855.1587,-316.0817 851.6588,-326.0817 858.6588,-326.0816"/>
</g>
<!-- Node31 -->
<g id="node32" class="node">
<title>Node31</title>
<polygon fill="#ffffff" stroke="#bfbfbf" points="901.6587,-297 901.6587,-316 952.6587,-316 952.6587,-297 901.6587,-297"/>
<text text-anchor="middle" x="927.1587" y="-304" font-family="Helvetica,sans-Serif" font-size="10.00" fill="#000000">sched.h</text>
</g>
<!-- Node28&#45;&gt;Node31 -->
<g id="edge53" class="edge">
<title>Node28&#45;&gt;Node31</title>
<path fill="none" stroke="#191970" d="M865.4745,-363.9005C876.9162,-353.2535 895.5802,-335.8856 909.386,-323.0385"/>
<polygon fill="#191970" stroke="#191970" points="911.9256,-325.4562 916.862,-316.0817 907.1569,-320.3317 911.9256,-325.4562"/>
</g>
<!-- Node32&#45;&gt;Node2 -->
<g id="edge55" class="edge">
<title>Node32&#45;&gt;Node2</title>
<path fill="none" stroke="#191970" d="M100.4161,-296.8229C76.3064,-280.8502 35.2196,-248.3183 57.1587,-224 81.6048,-196.9029 309.5749,-184.8207 429.7651,-180.2963"/>
<polygon fill="#191970" stroke="#191970" points="430.1274,-183.7854 439.9919,-179.9197 429.8698,-176.7901 430.1274,-183.7854"/>
</g>
<!-- Node32&#45;&gt;Node26 -->
<g id="edge56" class="edge">
<title>Node32&#45;&gt;Node26</title>
<path fill="none" stroke="#191970" d="M116.7318,-296.9005C117.2327,-288.5099 117.9829,-275.9451 118.6537,-264.7085"/>
<polygon fill="#191970" stroke="#191970" points="122.1596,-264.7126 119.2619,-254.5218 115.172,-264.2954 122.1596,-264.7126"/>
</g>
</g>
</svg>
