<?xml version="1.0" encoding="UTF-8" standalone="no"?>
<!DOCTYPE svg PUBLIC "-//W3C//DTD SVG 1.1//EN"
 "http://www.w3.org/Graphics/SVG/1.1/DTD/svg11.dtd">
<!-- Generated by graphviz version 2.40.1 (20161225.0304)
 -->
<!-- Title: jaegertracingc/internal/strings.h Pages: 1 -->
<svg width="195pt" height="95pt"
 viewBox="0.00 0.00 194.50 95.00" xmlns="http://www.w3.org/2000/svg" xmlns:xlink="http://www.w3.org/1999/xlink">
<g id="graph0" class="graph" transform="scale(1 1) rotate(0) translate(4 91)">
<title>jaegertracingc/internal/strings.h</title>
<polygon fill="#ffffff" stroke="transparent" points="-4,4 -4,-91 190.5,-91 190.5,4 -4,4"/>
<!-- Node0 -->
<g id="node1" class="node">
<title>Node0</title>
<polygon fill="#bfbfbf" stroke="#000000" points="39,-56.5 39,-86.5 151,-86.5 151,-56.5 39,-56.5"/>
<text text-anchor="start" x="47" y="-74.5" font-family="Helvetica,sans-Serif" font-size="10.00" fill="#000000">jaegertracingc/internal</text>
<text text-anchor="middle" x="95" y="-63.5" font-family="Helvetica,sans-Serif" font-size="10.00" fill="#000000">/strings.h</text>
</g>
<!-- Node1 -->
<g id="node2" class="node">
<title>Node1</title>
<polygon fill="#ffffff" stroke="#bfbfbf" points="0,-.5 0,-19.5 52,-19.5 52,-.5 0,-.5"/>
<text text-anchor="middle" x="26" y="-7.5" font-family="Helvetica,sans-Serif" font-size="10.00" fill="#000000">assert.h</text>
</g>
<!-- Node0&#45;&gt;Node1 -->
<g id="edge1" class="edge">
<title>Node0&#45;&gt;Node1</title>
<path fill="none" stroke="#191970" d="M77.9438,-56.2977C67.8671,-47.3163 55.096,-35.9334 44.7389,-26.702"/>
<polygon fill="#191970" stroke="#191970" points="46.8417,-23.8879 37.0478,-19.8469 42.1841,-29.1135 46.8417,-23.8879"/>
</g>
<!-- Node2 -->
<g id="node3" class="node">
<title>Node2</title>
<polygon fill="#ffffff" stroke="#bfbfbf" points="70.5,-.5 70.5,-19.5 119.5,-19.5 119.5,-.5 70.5,-.5"/>
<text text-anchor="middle" x="95" y="-7.5" font-family="Helvetica,sans-Serif" font-size="10.00" fill="#000000">ctype.h</text>
</g>
<!-- Node0&#45;&gt;Node2 -->
<g id="edge2" class="edge">
<title>Node0&#45;&gt;Node2</title>
<path fill="none" stroke="#191970" d="M95,-56.2977C95,-48.3834 95,-38.6043 95,-30.0759"/>
<polygon fill="#191970" stroke="#191970" points="98.5001,-29.8469 95,-19.8469 91.5001,-29.847 98.5001,-29.8469"/>
</g>
<!-- Node3 -->
<g id="node4" class="node">
<title>Node3</title>
<polygon fill="#ffffff" stroke="#bfbfbf" points="137.5,-.5 137.5,-19.5 186.5,-19.5 186.5,-.5 137.5,-.5"/>
<text text-anchor="middle" x="162" y="-7.5" font-family="Helvetica,sans-Serif" font-size="10.00" fill="#000000">string.h</text>
</g>
<!-- Node0&#45;&gt;Node3 -->
<g id="edge3" class="edge">
<title>Node0&#45;&gt;Node3</title>
<path fill="none" stroke="#191970" d="M111.5618,-56.2977C121.3465,-47.3163 133.7474,-35.9334 143.8043,-26.702"/>
<polygon fill="#191970" stroke="#191970" points="146.2722,-29.1876 151.2725,-19.8469 141.5387,-24.0307 146.2722,-29.1876"/>
</g>
</g>
</svg>
