<?xml version="1.0" encoding="UTF-8" standalone="no"?>
<!DOCTYPE svg PUBLIC "-//W3C//DTD SVG 1.1//EN"
 "http://www.w3.org/Graphics/SVG/1.1/DTD/svg11.dtd">
<!-- Generated by graphviz version 2.40.1 (20161225.0304)
 -->
<!-- Title: jaegertracingc/internal/strings.h Pages: 1 -->
<svg width="1197pt" height="442pt"
 viewBox="0.00 0.00 1196.50 442.00" xmlns="http://www.w3.org/2000/svg" xmlns:xlink="http://www.w3.org/1999/xlink">
<g id="graph0" class="graph" transform="scale(1 1) rotate(0) translate(4 438)">
<title>jaegertracingc/internal/strings.h</title>
<polygon fill="#ffffff" stroke="transparent" points="-4,4 -4,-438 1192.5,-438 1192.5,4 -4,4"/>
<!-- Node0 -->
<g id="node1" class="node">
<title>Node0</title>
<polygon fill="#bfbfbf" stroke="#000000" points="930.5,-403.5 930.5,-433.5 1042.5,-433.5 1042.5,-403.5 930.5,-403.5"/>
<text text-anchor="start" x="938.5" y="-421.5" font-family="Helvetica,sans-Serif" font-size="10.00" fill="#000000">jaegertracingc/internal</text>
<text text-anchor="middle" x="986.5" y="-410.5" font-family="Helvetica,sans-Serif" font-size="10.00" fill="#000000">/strings.h</text>
</g>
<!-- Node1 -->
<g id="node2" class="node">
<title>Node1</title>
<polygon fill="#ffffff" stroke="#bfbfbf" points="1101.5,-56.5 1101.5,-75.5 1153.5,-75.5 1153.5,-56.5 1101.5,-56.5"/>
<text text-anchor="middle" x="1127.5" y="-63.5" font-family="Helvetica,sans-Serif" font-size="10.00" fill="#000000">assert.h</text>
</g>
<!-- Node0&#45;&gt;Node1 -->
<g id="edge1" class="edge">
<title>Node0&#45;&gt;Node1</title>
<path fill="none" stroke="#191970" d="M1042.5,-409.1613C1102.2809,-395.6139 1188.5,-364.1717 1188.5,-295.5 1188.5,-295.5 1188.5,-295.5 1188.5,-178 1188.5,-140.6364 1161.9944,-103.8655 1143.9271,-83.141"/>
<polygon fill="#191970" stroke="#191970" points="1146.3391,-80.5903 1137.0313,-75.5291 1141.1513,-85.29 1146.3391,-80.5903"/>
</g>
<!-- Node2 -->
<g id="node3" class="node">
<title>Node2</title>
<polygon fill="#ffffff" stroke="#bfbfbf" points="0,-112.5 0,-131.5 49,-131.5 49,-112.5 0,-112.5"/>
<text text-anchor="middle" x="24.5" y="-119.5" font-family="Helvetica,sans-Serif" font-size="10.00" fill="#000000">ctype.h</text>
</g>
<!-- Node0&#45;&gt;Node2 -->
<g id="edge2" class="edge">
<title>Node0&#45;&gt;Node2</title>
<path fill="none" stroke="#191970" d="M930.3746,-414.611C763.5904,-402.3111 282.5,-361.1427 282.5,-295.5 282.5,-295.5 282.5,-295.5 282.5,-234 282.5,-209.9149 129.2572,-156.4301 58.9772,-133.1675"/>
<polygon fill="#191970" stroke="#191970" points="59.8311,-129.7639 49.2381,-129.9617 57.6424,-136.4129 59.8311,-129.7639"/>
</g>
<!-- Node3 -->
<g id="node4" class="node">
<title>Node3</title>
<polygon fill="#ffffff" stroke="#bfbfbf" points="1034,-56.5 1034,-75.5 1083,-75.5 1083,-56.5 1034,-56.5"/>
<text text-anchor="middle" x="1058.5" y="-63.5" font-family="Helvetica,sans-Serif" font-size="10.00" fill="#000000">string.h</text>
</g>
<!-- Node0&#45;&gt;Node3 -->
<g id="edge3" class="edge">
<title>Node0&#45;&gt;Node3</title>
<path fill="none" stroke="#191970" d="M1038.8415,-403.4423C1086.8373,-386.0437 1150.5,-352.2665 1150.5,-295.5 1150.5,-295.5 1150.5,-295.5 1150.5,-178 1150.5,-135.5397 1110.5299,-100.3942 1083.281,-81.3678"/>
<polygon fill="#191970" stroke="#191970" points="1085.2,-78.4405 1074.9478,-75.768 1081.2957,-84.2506 1085.2,-78.4405"/>
</g>
<!-- Node4 -->
<g id="node5" class="node">
<title>Node4</title>
<g id="a_node5"><a xlink:href="hashtable_8h.html" target="_top" xlink:title="Hashtable data structure. ">
<polygon fill="#ffffff" stroke="#000000" points="695,-347.5 695,-366.5 826,-366.5 826,-347.5 695,-347.5"/>
<text text-anchor="middle" x="760.5" y="-354.5" font-family="Helvetica,sans-Serif" font-size="10.00" fill="#000000">jaegertracingc/hashtable.h</text>
</a>
</g>
</g>
<!-- Node0&#45;&gt;Node4 -->
<g id="edge4" class="edge">
<title>Node0&#45;&gt;Node4</title>
<path fill="none" stroke="#191970" d="M931.2142,-403.4554C892.5132,-392.9239 841.466,-379.0328 805.3041,-369.1923"/>
<polygon fill="#191970" stroke="#191970" points="806.0901,-365.779 795.522,-366.5303 804.2521,-372.5333 806.0901,-365.779"/>
</g>
<!-- Node5 -->
<g id="node6" class="node">
<title>Node5</title>
<g id="a_node6"><a xlink:href="common_8h.html" target="_top" xlink:title="Common headers, struct definitions, and macros. ">
<polygon fill="#ffffff" stroke="#000000" points="599.5,-168.5 599.5,-187.5 725.5,-187.5 725.5,-168.5 599.5,-168.5"/>
<text text-anchor="middle" x="662.5" y="-175.5" font-family="Helvetica,sans-Serif" font-size="10.00" fill="#000000">jaegertracingc/common.h</text>
</a>
</g>
</g>
<!-- Node4&#45;&gt;Node5 -->
<g id="edge5" class="edge">
<title>Node4&#45;&gt;Node5</title>
<path fill="none" stroke="#191970" d="M755.2311,-347.3762C739.6109,-318.8455 693.3589,-234.3648 672.6846,-196.6024"/>
<polygon fill="#191970" stroke="#191970" points="675.6673,-194.7621 667.795,-187.6714 669.5272,-198.1237 675.6673,-194.7621"/>
</g>
<!-- Node20 -->
<g id="node21" class="node">
<title>Node20</title>
<g id="a_node21"><a xlink:href="key__value_8h.html" target="_top" xlink:title="Key value pair representation. ">
<polygon fill="#ffffff" stroke="#000000" points="774.5,-280.5 774.5,-310.5 870.5,-310.5 870.5,-280.5 774.5,-280.5"/>
<text text-anchor="start" x="782.5" y="-298.5" font-family="Helvetica,sans-Serif" font-size="10.00" fill="#000000">jaegertracingc/key</text>
<text text-anchor="middle" x="822.5" y="-287.5" font-family="Helvetica,sans-Serif" font-size="10.00" fill="#000000">_value.h</text>
</a>
</g>
</g>
<!-- Node4&#45;&gt;Node20 -->
<g id="edge29" class="edge">
<title>Node4&#45;&gt;Node20</title>
<path fill="none" stroke="#191970" d="M770.1875,-347.3906C778.19,-339.4527 789.865,-327.8718 800.1563,-317.6635"/>
<polygon fill="#191970" stroke="#191970" points="802.6983,-320.0719 807.3331,-310.5446 797.7686,-315.1021 802.6983,-320.0719"/>
</g>
<!-- Node22 -->
<g id="node23" class="node">
<title>Node22</title>
<g id="a_node23"><a xlink:href="list_8h_source.html" target="_top" xlink:title="jaegertracingc/list.h">
<polygon fill="#ffffff" stroke="#000000" points="569,-224.5 569,-243.5 670,-243.5 670,-224.5 569,-224.5"/>
<text text-anchor="middle" x="619.5" y="-231.5" font-family="Helvetica,sans-Serif" font-size="10.00" fill="#000000">jaegertracingc/list.h</text>
</a>
</g>
</g>
<!-- Node4&#45;&gt;Node22 -->
<g id="edge35" class="edge">
<title>Node4&#45;&gt;Node22</title>
<path fill="none" stroke="#191970" d="M740.9248,-347.4325C724.8516,-339.0609 701.9724,-325.9269 684.5,-311 663.8498,-293.3583 644.3406,-268.7953 632.1832,-252.194"/>
<polygon fill="#191970" stroke="#191970" points="634.8965,-249.9717 626.2248,-243.8846 629.2079,-254.0509 634.8965,-249.9717"/>
</g>
<!-- Node5&#45;&gt;Node1 -->
<g id="edge8" class="edge">
<title>Node5&#45;&gt;Node1</title>
<path fill="none" stroke="#191970" d="M725.5334,-176.6965C825.4816,-173.6815 1015.0027,-163.8254 1073.5,-132 1093.3161,-121.2191 1108.6737,-99.8896 1117.8598,-84.3883"/>
<polygon fill="#191970" stroke="#191970" points="1120.9293,-86.0704 1122.7667,-75.6361 1114.8234,-82.6472 1120.9293,-86.0704"/>
</g>
<!-- Node5&#45;&gt;Node2 -->
<g id="edge9" class="edge">
<title>Node5&#45;&gt;Node2</title>
<path fill="none" stroke="#191970" d="M599.3081,-174.8729C469.9905,-168.2056 178.0666,-151.7146 59.1828,-131.6885"/>
<polygon fill="#191970" stroke="#191970" points="59.6941,-128.2247 49.2372,-129.9286 58.4743,-135.1176 59.6941,-128.2247"/>
</g>
<!-- Node5&#45;&gt;Node3 -->
<g id="edge18" class="edge">
<title>Node5&#45;&gt;Node3</title>
<path fill="none" stroke="#191970" d="M725.8771,-175.011C831.3261,-169.3965 1033.4664,-155.6585 1055.5,-132 1066.8375,-119.8264 1066.2918,-100.2632 1063.6885,-85.5904"/>
<polygon fill="#191970" stroke="#191970" points="1067.0392,-84.5331 1061.4593,-75.5267 1060.2048,-86.047 1067.0392,-84.5331"/>
</g>
<!-- Node6 -->
<g id="node7" class="node">
<title>Node6</title>
<g id="a_node7"><a xlink:href="config_8h_source.html" target="_top" xlink:title="jaegertracingc/config.h">
<polygon fill="#ffffff" stroke="#000000" points="363,-112.5 363,-131.5 478,-131.5 478,-112.5 363,-112.5"/>
<text text-anchor="middle" x="420.5" y="-119.5" font-family="Helvetica,sans-Serif" font-size="10.00" fill="#000000">jaegertracingc/config.h</text>
</a>
</g>
</g>
<!-- Node5&#45;&gt;Node6 -->
<g id="edge6" class="edge">
<title>Node5&#45;&gt;Node6</title>
<path fill="none" stroke="#191970" d="M621.1737,-168.4369C579.7573,-158.8529 515.9223,-144.0812 471.4065,-133.78"/>
<polygon fill="#191970" stroke="#191970" points="472.1875,-130.3683 461.6559,-131.5237 470.6093,-137.1881 472.1875,-130.3683"/>
</g>
<!-- Node8 -->
<g id="node9" class="node">
<title>Node8</title>
<polygon fill="#ffffff" stroke="#bfbfbf" points="535,-112.5 535,-131.5 594,-131.5 594,-112.5 535,-112.5"/>
<text text-anchor="middle" x="564.5" y="-119.5" font-family="Helvetica,sans-Serif" font-size="10.00" fill="#000000">inttypes.h</text>
</g>
<!-- Node5&#45;&gt;Node8 -->
<g id="edge10" class="edge">
<title>Node5&#45;&gt;Node8</title>
<path fill="none" stroke="#191970" d="M645.4297,-168.2455C630.253,-159.5731 607.8379,-146.7645 590.4437,-136.825"/>
<polygon fill="#191970" stroke="#191970" points="591.7936,-133.5653 581.3747,-131.6427 588.3206,-139.643 591.7936,-133.5653"/>
</g>
<!-- Node9 -->
<g id="node10" class="node">
<title>Node9</title>
<polygon fill="#ffffff" stroke="#bfbfbf" points="612.5,-112.5 612.5,-131.5 660.5,-131.5 660.5,-112.5 612.5,-112.5"/>
<text text-anchor="middle" x="636.5" y="-119.5" font-family="Helvetica,sans-Serif" font-size="10.00" fill="#000000">limits.h</text>
</g>
<!-- Node5&#45;&gt;Node9 -->
<g id="edge11" class="edge">
<title>Node5&#45;&gt;Node9</title>
<path fill="none" stroke="#191970" d="M657.9711,-168.2455C654.4666,-160.6973 649.5073,-150.0158 645.2377,-140.8197"/>
<polygon fill="#191970" stroke="#191970" points="648.3627,-139.2389 640.977,-131.6427 642.0136,-142.1867 648.3627,-139.2389"/>
</g>
<!-- Node10 -->
<g id="node11" class="node">
<title>Node10</title>
<polygon fill="#ffffff" stroke="#bfbfbf" points="739.5,-.5 739.5,-19.5 791.5,-19.5 791.5,-.5 739.5,-.5"/>
<text text-anchor="middle" x="765.5" y="-7.5" font-family="Helvetica,sans-Serif" font-size="10.00" fill="#000000">stdarg.h</text>
</g>
<!-- Node5&#45;&gt;Node10 -->
<g id="edge12" class="edge">
<title>Node5&#45;&gt;Node10</title>
<path fill="none" stroke="#191970" d="M664.3317,-168.3064C668.8161,-146.5116 681.9681,-92.6829 708.5,-56 717.2031,-43.9672 729.8274,-33.3401 740.9843,-25.3402"/>
<polygon fill="#191970" stroke="#191970" points="743.2328,-28.0428 749.5144,-19.511 739.2834,-22.2634 743.2328,-28.0428"/>
</g>
<!-- Node11 -->
<g id="node12" class="node">
<title>Node11</title>
<polygon fill="#ffffff" stroke="#bfbfbf" points="754.5,-112.5 754.5,-131.5 810.5,-131.5 810.5,-112.5 754.5,-112.5"/>
<text text-anchor="middle" x="782.5" y="-119.5" font-family="Helvetica,sans-Serif" font-size="10.00" fill="#000000">stdbool.h</text>
</g>
<!-- Node5&#45;&gt;Node11 -->
<g id="edge13" class="edge">
<title>Node5&#45;&gt;Node11</title>
<path fill="none" stroke="#191970" d="M683.1287,-168.3733C702.3919,-159.3838 731.3486,-145.8706 753.0419,-135.7471"/>
<polygon fill="#191970" stroke="#191970" points="754.5587,-138.9017 762.1405,-131.5011 751.5985,-132.5584 754.5587,-138.9017"/>
</g>
<!-- Node12 -->
<g id="node13" class="node">
<title>Node12</title>
<polygon fill="#ffffff" stroke="#bfbfbf" points="828.5,-112.5 828.5,-131.5 880.5,-131.5 880.5,-112.5 828.5,-112.5"/>
<text text-anchor="middle" x="854.5" y="-119.5" font-family="Helvetica,sans-Serif" font-size="10.00" fill="#000000">stddef.h</text>
</g>
<!-- Node5&#45;&gt;Node12 -->
<g id="edge14" class="edge">
<title>Node5&#45;&gt;Node12</title>
<path fill="none" stroke="#191970" d="M695.506,-168.3733C729.7584,-158.383 783.1664,-142.8056 818.4904,-132.5028"/>
<polygon fill="#191970" stroke="#191970" points="819.7667,-135.7765 828.3867,-129.6164 817.8066,-129.0565 819.7667,-135.7765"/>
</g>
<!-- Node13 -->
<g id="node14" class="node">
<title>Node13</title>
<polygon fill="#ffffff" stroke="#bfbfbf" points="717,-56.5 717,-75.5 766,-75.5 766,-56.5 717,-56.5"/>
<text text-anchor="middle" x="741.5" y="-63.5" font-family="Helvetica,sans-Serif" font-size="10.00" fill="#000000">stdint.h</text>
</g>
<!-- Node5&#45;&gt;Node13 -->
<g id="edge15" class="edge">
<title>Node5&#45;&gt;Node13</title>
<path fill="none" stroke="#191970" d="M599.1266,-169.1683C552.6925,-160.0085 501.7461,-142.6103 526.5,-112 548.767,-84.465 651.6957,-72.6796 706.6664,-68.2781"/>
<polygon fill="#191970" stroke="#191970" points="706.9574,-71.7662 716.6628,-67.5169 706.4259,-64.7864 706.9574,-71.7662"/>
</g>
<!-- Node14 -->
<g id="node15" class="node">
<title>Node14</title>
<polygon fill="#ffffff" stroke="#bfbfbf" points="467.5,-.5 467.5,-19.5 513.5,-19.5 513.5,-.5 467.5,-.5"/>
<text text-anchor="middle" x="490.5" y="-7.5" font-family="Helvetica,sans-Serif" font-size="10.00" fill="#000000">stdio.h</text>
</g>
<!-- Node5&#45;&gt;Node14 -->
<g id="edge16" class="edge">
<title>Node5&#45;&gt;Node14</title>
<path fill="none" stroke="#191970" d="M599.2621,-175.9325C484.1711,-171.5141 250.0319,-159.2497 225.5,-132 155.3153,-54.0396 372.1437,-22.3712 457.519,-13.119"/>
<polygon fill="#191970" stroke="#191970" points="457.9037,-16.5979 467.4854,-12.0765 457.1755,-9.6359 457.9037,-16.5979"/>
</g>
<!-- Node15 -->
<g id="node16" class="node">
<title>Node15</title>
<polygon fill="#ffffff" stroke="#bfbfbf" points="67.5,-112.5 67.5,-131.5 115.5,-131.5 115.5,-112.5 67.5,-112.5"/>
<text text-anchor="middle" x="91.5" y="-119.5" font-family="Helvetica,sans-Serif" font-size="10.00" fill="#000000">stdlib.h</text>
</g>
<!-- Node5&#45;&gt;Node15 -->
<g id="edge17" class="edge">
<title>Node5&#45;&gt;Node15</title>
<path fill="none" stroke="#191970" d="M599.3778,-176.863C500.1445,-174.1425 301.6622,-164.9309 125.4731,-131.812"/>
<polygon fill="#191970" stroke="#191970" points="125.9842,-128.3464 115.505,-129.9078 124.6707,-135.222 125.9842,-128.3464"/>
</g>
<!-- Node16 -->
<g id="node17" class="node">
<title>Node16</title>
<polygon fill="#ffffff" stroke="#bfbfbf" points="133.5,-112.5 133.5,-131.5 177.5,-131.5 177.5,-112.5 133.5,-112.5"/>
<text text-anchor="middle" x="155.5" y="-119.5" font-family="Helvetica,sans-Serif" font-size="10.00" fill="#000000">time.h</text>
</g>
<!-- Node5&#45;&gt;Node16 -->
<g id="edge19" class="edge">
<title>Node5&#45;&gt;Node16</title>
<path fill="none" stroke="#191970" d="M599.1592,-175.3081C508.2665,-170.6567 335.8777,-158.892 191.5,-132 190.2445,-131.7662 188.9693,-131.5091 187.6846,-131.2339"/>
<polygon fill="#191970" stroke="#191970" points="188.3703,-127.7989 177.8277,-128.8491 186.7242,-134.6026 188.3703,-127.7989"/>
</g>
<!-- Node17 -->
<g id="node18" class="node">
<title>Node17</title>
<polygon fill="#ffffff" stroke="#bfbfbf" points="234,-112.5 234,-131.5 345,-131.5 345,-112.5 234,-112.5"/>
<text text-anchor="middle" x="289.5" y="-119.5" font-family="Helvetica,sans-Serif" font-size="10.00" fill="#000000">opentracing&#45;c/tracer.h</text>
</g>
<!-- Node5&#45;&gt;Node17 -->
<g id="edge20" class="edge">
<title>Node5&#45;&gt;Node17</title>
<path fill="none" stroke="#191970" d="M599.3705,-168.6544C539.2932,-159.7418 446.0635,-145.8622 355.0995,-132.0858"/>
<polygon fill="#191970" stroke="#191970" points="355.5783,-128.6185 345.1667,-130.5806 354.5294,-135.5395 355.5783,-128.6185"/>
</g>
<!-- Node18 -->
<g id="node19" class="node">
<title>Node18</title>
<g id="a_node19"><a xlink:href="alloc_8h.html" target="_top" xlink:title="Allocator struct and functions. ">
<polygon fill="#ffffff" stroke="#000000" points="937,-112.5 937,-131.5 1046,-131.5 1046,-112.5 937,-112.5"/>
<text text-anchor="middle" x="991.5" y="-119.5" font-family="Helvetica,sans-Serif" font-size="10.00" fill="#000000">jaegertracingc/alloc.h</text>
</a>
</g>
</g>
<!-- Node5&#45;&gt;Node18 -->
<g id="edge21" class="edge">
<title>Node5&#45;&gt;Node18</title>
<path fill="none" stroke="#191970" d="M718.6833,-168.4369C776.3691,-158.618 866.0454,-143.354 926.6942,-133.0308"/>
<polygon fill="#191970" stroke="#191970" points="927.6458,-136.4192 936.9167,-131.2908 926.4712,-129.5185 927.6458,-136.4192"/>
</g>
<!-- Node19 -->
<g id="node20" class="node">
<title>Node19</title>
<g id="a_node20"><a xlink:href="logging_8h.html" target="_top" xlink:title="Logging interface and initialization functions. ">
<polygon fill="#ffffff" stroke="#000000" points="784,-56.5 784,-75.5 903,-75.5 903,-56.5 784,-56.5"/>
<text text-anchor="middle" x="843.5" y="-63.5" font-family="Helvetica,sans-Serif" font-size="10.00" fill="#000000">jaegertracingc/logging.h</text>
</a>
</g>
</g>
<!-- Node5&#45;&gt;Node19 -->
<g id="edge28" class="edge">
<title>Node5&#45;&gt;Node19</title>
<path fill="none" stroke="#191970" d="M672.9098,-168.3945C688.0757,-154.7195 717.4979,-129.3741 745.5,-112 765.8569,-99.3694 790.2376,-87.9125 809.5883,-79.5919"/>
<polygon fill="#191970" stroke="#191970" points="811.0698,-82.7657 818.9218,-75.6526 808.3478,-76.3165 811.0698,-82.7657"/>
</g>
<!-- Node7 -->
<g id="node8" class="node">
<title>Node7</title>
<g id="a_node8"><a xlink:href="visibility_8h_source.html" target="_top" xlink:title="jaegertracingc/visibility.h">
<polygon fill="#ffffff" stroke="#000000" points="358.5,-56.5 358.5,-75.5 482.5,-75.5 482.5,-56.5 358.5,-56.5"/>
<text text-anchor="middle" x="420.5" y="-63.5" font-family="Helvetica,sans-Serif" font-size="10.00" fill="#000000">jaegertracingc/visibility.h</text>
</a>
</g>
</g>
<!-- Node6&#45;&gt;Node7 -->
<g id="edge7" class="edge">
<title>Node6&#45;&gt;Node7</title>
<path fill="none" stroke="#191970" d="M420.5,-112.2455C420.5,-104.9382 420.5,-94.6944 420.5,-85.7046"/>
<polygon fill="#191970" stroke="#191970" points="424.0001,-85.6426 420.5,-75.6427 417.0001,-85.6427 424.0001,-85.6426"/>
</g>
<!-- Node18&#45;&gt;Node1 -->
<g id="edge22" class="edge">
<title>Node18&#45;&gt;Node1</title>
<path fill="none" stroke="#191970" d="M1014.8792,-112.3733C1037.0045,-103.2629 1070.4134,-89.5062 1095.1019,-79.3404"/>
<polygon fill="#191970" stroke="#191970" points="1096.5117,-82.5451 1104.4258,-75.5011 1093.8464,-76.0723 1096.5117,-82.5451"/>
</g>
<!-- Node18&#45;&gt;Node3 -->
<g id="edge24" class="edge">
<title>Node18&#45;&gt;Node3</title>
<path fill="none" stroke="#191970" d="M1003.1705,-112.2455C1013.0661,-103.9746 1027.4627,-91.9416 1039.0901,-82.2232"/>
<polygon fill="#191970" stroke="#191970" points="1041.535,-84.7413 1046.9632,-75.6427 1037.0458,-79.3703 1041.535,-84.7413"/>
</g>
<!-- Node18&#45;&gt;Node13 -->
<g id="edge23" class="edge">
<title>Node18&#45;&gt;Node13</title>
<path fill="none" stroke="#191970" d="M941.4912,-112.4741C899.7828,-104.2757 838.5983,-91.6639 776.3236,-76.0667"/>
<polygon fill="#191970" stroke="#191970" points="776.8752,-72.5961 766.3223,-73.538 775.1593,-79.3825 776.8752,-72.5961"/>
</g>
<!-- Node18&#45;&gt;Node19 -->
<g id="edge25" class="edge">
<title>Node18&#45;&gt;Node19</title>
<path fill="none" stroke="#191970" d="M966.0579,-112.3733C941.7674,-103.1822 904.9792,-89.2624 878.0457,-79.0713"/>
<polygon fill="#191970" stroke="#191970" points="879.2016,-75.7666 868.6101,-75.5011 876.7243,-82.3136 879.2016,-75.7666"/>
</g>
<!-- Node19&#45;&gt;Node10 -->
<g id="edge26" class="edge">
<title>Node19&#45;&gt;Node10</title>
<path fill="none" stroke="#191970" d="M829.9134,-56.2455C818.1695,-47.814 800.9801,-35.4729 787.3118,-25.6598"/>
<polygon fill="#191970" stroke="#191970" points="789.0954,-22.6316 778.9309,-19.6427 785.0129,-28.3179 789.0954,-22.6316"/>
</g>
<!-- Node19&#45;&gt;Node14 -->
<g id="edge27" class="edge">
<title>Node19&#45;&gt;Node14</title>
<path fill="none" stroke="#191970" d="M783.6184,-56.5004C708.6511,-44.6075 582.8777,-24.6548 523.4736,-15.2309"/>
<polygon fill="#191970" stroke="#191970" points="523.9416,-11.7615 513.5166,-13.6514 522.8447,-18.675 523.9416,-11.7615"/>
</g>
<!-- Node20&#45;&gt;Node5 -->
<g id="edge31" class="edge">
<title>Node20&#45;&gt;Node5</title>
<path fill="none" stroke="#191970" d="M801.9104,-280.3795C771.4903,-258.0397 714.8146,-216.4185 683.923,-193.7325"/>
<polygon fill="#191970" stroke="#191970" points="685.7104,-190.7027 675.5786,-187.6046 681.567,-196.3448 685.7104,-190.7027"/>
</g>
<!-- Node20&#45;&gt;Node18 -->
<g id="edge30" class="edge">
<title>Node20&#45;&gt;Node18</title>
<path fill="none" stroke="#191970" d="M864.3635,-280.4455C883.7279,-271.9548 906.031,-259.8366 922.5,-244 953.4858,-214.204 974.5647,-167.4337 984.6541,-141.3054"/>
<polygon fill="#191970" stroke="#191970" points="987.9914,-142.3725 988.1957,-131.7797 981.4302,-139.9331 987.9914,-142.3725"/>
</g>
<!-- Node20&#45;&gt;Node19 -->
<g id="edge32" class="edge">
<title>Node20&#45;&gt;Node19</title>
<path fill="none" stroke="#191970" d="M852.8986,-280.4946C866.765,-271.8907 881.7848,-259.6614 889.5,-244 915.4256,-191.3726 911.9508,-166.2009 889.5,-112 884.6688,-100.3363 875.2863,-90.0881 866.2482,-82.243"/>
<polygon fill="#191970" stroke="#191970" points="868.167,-79.2942 858.1852,-75.7423 863.7734,-84.7436 868.167,-79.2942"/>
</g>
<!-- Node21 -->
<g id="node22" class="node">
<title>Node21</title>
<g id="a_node22"><a xlink:href="vector_8h.html" target="_top" xlink:title="C generic vector implementation. ">
<polygon fill="#ffffff" stroke="#000000" points="764.5,-224.5 764.5,-243.5 880.5,-243.5 880.5,-224.5 764.5,-224.5"/>
<text text-anchor="middle" x="822.5" y="-231.5" font-family="Helvetica,sans-Serif" font-size="10.00" fill="#000000">jaegertracingc/vector.h</text>
</a>
</g>
</g>
<!-- Node20&#45;&gt;Node21 -->
<g id="edge33" class="edge">
<title>Node20&#45;&gt;Node21</title>
<path fill="none" stroke="#191970" d="M822.5,-280.2977C822.5,-272.3834 822.5,-262.6043 822.5,-254.0759"/>
<polygon fill="#191970" stroke="#191970" points="826.0001,-253.8469 822.5,-243.8469 819.0001,-253.847 826.0001,-253.8469"/>
</g>
<!-- Node21&#45;&gt;Node5 -->
<g id="edge34" class="edge">
<title>Node21&#45;&gt;Node5</title>
<path fill="none" stroke="#191970" d="M794.995,-224.3733C768.6198,-215.1419 728.6149,-201.1402 699.4642,-190.9375"/>
<polygon fill="#191970" stroke="#191970" points="700.2409,-187.5012 689.6461,-187.5011 697.9284,-194.1082 700.2409,-187.5012"/>
</g>
<!-- Node22&#45;&gt;Node5 -->
<g id="edge36" class="edge">
<title>Node22&#45;&gt;Node5</title>
<path fill="none" stroke="#191970" d="M626.99,-224.2455C633.0326,-216.3761 641.6903,-205.101 648.9441,-195.6542"/>
<polygon fill="#191970" stroke="#191970" points="651.7815,-197.7058 655.0958,-187.6427 646.2295,-193.4426 651.7815,-197.7058"/>
</g>
</g>
</svg>
