<?xml version="1.0" encoding="UTF-8" standalone="no"?>
<!DOCTYPE svg PUBLIC "-//W3C//DTD SVG 1.1//EN"
 "http://www.w3.org/Graphics/SVG/1.1/DTD/svg11.dtd">
<!-- Generated by graphviz version 2.40.1 (20161225.0304)
 -->
<!-- Title: jaeger_remotely_controlled_sampler Pages: 1 -->
<svg width="1055pt" height="558pt"
 viewBox="0.00 0.00 1055.00 557.50" xmlns="http://www.w3.org/2000/svg" xmlns:xlink="http://www.w3.org/1999/xlink">
<g id="graph0" class="graph" transform="scale(1 1) rotate(0) translate(4 553.5)">
<title>jaeger_remotely_controlled_sampler</title>
<polygon fill="#ffffff" stroke="transparent" points="-4,4 -4,-553.5 1051,-553.5 1051,4 -4,4"/>
<!-- Node1 -->
<g id="node1" class="node">
<title>Node1</title>
<polygon fill="#bfbfbf" stroke="#000000" points="914,-308.5 914,-338.5 1047,-338.5 1047,-308.5 914,-308.5"/>
<text text-anchor="start" x="922" y="-326.5" font-family="Helvetica,sans-Serif" font-size="10.00" fill="#000000">jaeger_remotely_controlled</text>
<text text-anchor="middle" x="980.5" y="-315.5" font-family="Helvetica,sans-Serif" font-size="10.00" fill="#000000">_sampler</text>
</g>
<!-- Node2 -->
<g id="node2" class="node">
<title>Node2</title>
<g id="a_node2"><a xlink:href="structjaeger__metrics.html" target="_top" xlink:title="jaeger_metrics">
<polygon fill="#ffffff" stroke="#000000" points="742,-379 742,-398 822,-398 822,-379 742,-379"/>
<text text-anchor="middle" x="782" y="-386" font-family="Helvetica,sans-Serif" font-size="10.00" fill="#000000">jaeger_metrics</text>
</a>
</g>
</g>
<!-- Node2&#45;&gt;Node1 -->
<g id="edge1" class="edge">
<title>Node2&#45;&gt;Node1</title>
<path fill="none" stroke="#9a32cd" stroke-dasharray="5,2" d="M832.0874,-380.0628C852.2297,-376.0147 875.4952,-370.5005 896,-363.5 915.5075,-356.84 936.4561,-346.9436 952.615,-338.661"/>
<polygon fill="#9a32cd" stroke="#9a32cd" points="831.3229,-376.6458 822.1742,-381.9891 832.6582,-383.5173 831.3229,-376.6458"/>
<text text-anchor="middle" x="877" y="-376.5" font-family="Helvetica,sans-Serif" font-size="10.00" fill="#000000"> metrics</text>
</g>
<!-- Node3 -->
<g id="node3" class="node">
<title>Node3</title>
<g id="a_node3"><a xlink:href="structjaeger__counter.html" target="_top" xlink:title="Counter metric interface. ">
<polygon fill="#ffffff" stroke="#000000" points="450.5,-417 450.5,-436 530.5,-436 530.5,-417 450.5,-417"/>
<text text-anchor="middle" x="490.5" y="-424" font-family="Helvetica,sans-Serif" font-size="10.00" fill="#000000">jaeger_counter</text>
</a>
</g>
</g>
<!-- Node3&#45;&gt;Node2 -->
<g id="edge2" class="edge">
<title>Node3&#45;&gt;Node2</title>
<path fill="none" stroke="#9a32cd" stroke-dasharray="5,2" d="M540.823,-421.9191C584.5809,-417.6918 649.63,-410.8201 706,-402.5 717.6799,-400.7761 730.3104,-398.583 741.8577,-396.4471"/>
<polygon fill="#9a32cd" stroke="#9a32cd" points="540.3466,-418.4486 530.725,-422.8842 541.0126,-425.4168 540.3466,-418.4486"/>
<text text-anchor="middle" x="644" y="-541.5" font-family="Helvetica,sans-Serif" font-size="10.00" fill="#000000"> traces_started_sampled</text>
<text text-anchor="start" x="582" y="-530.5" font-family="Helvetica,sans-Serif" font-size="10.00" fill="#000000">baggage_restrictions</text>
<text text-anchor="middle" x="644" y="-519.5" font-family="Helvetica,sans-Serif" font-size="10.00" fill="#000000">_update_success</text>
<text text-anchor="middle" x="644" y="-508.5" font-family="Helvetica,sans-Serif" font-size="10.00" fill="#000000">traces_started_not_sampled</text>
<text text-anchor="middle" x="644" y="-497.5" font-family="Helvetica,sans-Serif" font-size="10.00" fill="#000000">reporter_failure</text>
<text text-anchor="middle" x="644" y="-486.5" font-family="Helvetica,sans-Serif" font-size="10.00" fill="#000000">spans_finished</text>
<text text-anchor="middle" x="644" y="-475.5" font-family="Helvetica,sans-Serif" font-size="10.00" fill="#000000">sampler_query_failure</text>
<text text-anchor="middle" x="644" y="-464.5" font-family="Helvetica,sans-Serif" font-size="10.00" fill="#000000">reporter_dropped</text>
<text text-anchor="middle" x="644" y="-453.5" font-family="Helvetica,sans-Serif" font-size="10.00" fill="#000000">spans_started</text>
<text text-anchor="middle" x="644" y="-442.5" font-family="Helvetica,sans-Serif" font-size="10.00" fill="#000000">sampler_retrieved</text>
<text text-anchor="middle" x="644" y="-431.5" font-family="Helvetica,sans-Serif" font-size="10.00" fill="#000000">baggage_update_failure</text>
<text text-anchor="middle" x="644" y="-420.5" font-family="Helvetica,sans-Serif" font-size="10.00" fill="#000000">...</text>
</g>
<!-- Node4 -->
<g id="node4" class="node">
<title>Node4</title>
<polygon fill="#ffffff" stroke="#bfbfbf" points="169.5,-397 169.5,-416 267.5,-416 267.5,-397 169.5,-397"/>
<text text-anchor="middle" x="218.5" y="-404" font-family="Helvetica,sans-Serif" font-size="10.00" fill="#000000">jaeger_destructible</text>
</g>
<!-- Node4&#45;&gt;Node3 -->
<g id="edge3" class="edge">
<title>Node4&#45;&gt;Node3</title>
<path fill="none" stroke="#191970" d="M277.9038,-410.8679C330.209,-414.7139 404.9437,-420.2091 450.4545,-423.5555"/>
<polygon fill="#191970" stroke="#191970" points="277.9869,-407.3647 267.7571,-410.1218 277.4735,-414.3458 277.9869,-407.3647"/>
</g>
<!-- Node5 -->
<g id="node5" class="node">
<title>Node5</title>
<g id="a_node5"><a xlink:href="structjaeger__gauge.html" target="_top" xlink:title="Gauge metric interface. ">
<polygon fill="#ffffff" stroke="#000000" points="453.5,-379 453.5,-398 527.5,-398 527.5,-379 453.5,-379"/>
<text text-anchor="middle" x="490.5" y="-386" font-family="Helvetica,sans-Serif" font-size="10.00" fill="#000000">jaeger_gauge</text>
</a>
</g>
</g>
<!-- Node4&#45;&gt;Node5 -->
<g id="edge5" class="edge">
<title>Node4&#45;&gt;Node5</title>
<path fill="none" stroke="#191970" d="M277.7844,-402.5768C331.2364,-399.0395 408.184,-393.9474 453.3931,-390.9556"/>
<polygon fill="#191970" stroke="#191970" points="277.5042,-399.0876 267.7571,-403.2403 277.9665,-406.0723 277.5042,-399.0876"/>
</g>
<!-- Node5&#45;&gt;Node2 -->
<g id="edge4" class="edge">
<title>Node5&#45;&gt;Node2</title>
<path fill="none" stroke="#9a32cd" stroke-dasharray="5,2" d="M537.8439,-388.5C594.5089,-388.5 688.4103,-388.5 741.7372,-388.5"/>
<polygon fill="#9a32cd" stroke="#9a32cd" points="537.7148,-385.0001 527.7148,-388.5 537.7147,-392.0001 537.7148,-385.0001"/>
<text text-anchor="middle" x="644" y="-391.5" font-family="Helvetica,sans-Serif" font-size="10.00" fill="#000000"> reporter_queue_length</text>
</g>
<!-- Node6 -->
<g id="node6" class="node">
<title>Node6</title>
<g id="a_node6"><a xlink:href="structjaeger__http__sampling__manager.html" target="_top" xlink:title="jaeger_http_sampling\l_manager">
<polygon fill="#ffffff" stroke="#000000" points="436,-282.5 436,-312.5 545,-312.5 545,-282.5 436,-282.5"/>
<text text-anchor="start" x="444" y="-300.5" font-family="Helvetica,sans-Serif" font-size="10.00" fill="#000000">jaeger_http_sampling</text>
<text text-anchor="middle" x="490.5" y="-289.5" font-family="Helvetica,sans-Serif" font-size="10.00" fill="#000000">_manager</text>
</a>
</g>
</g>
<!-- Node6&#45;&gt;Node1 -->
<g id="edge6" class="edge">
<title>Node6&#45;&gt;Node1</title>
<path fill="none" stroke="#9a32cd" stroke-dasharray="5,2" d="M555.4259,-300.945C648.5963,-305.8888 819.3491,-314.9491 913.601,-319.9503"/>
<polygon fill="#9a32cd" stroke="#9a32cd" points="555.4544,-297.4417 545.2829,-300.4068 555.0834,-304.4319 555.4544,-297.4417"/>
<text text-anchor="middle" x="782" y="-318.5" font-family="Helvetica,sans-Serif" font-size="10.00" fill="#000000"> manager</text>
</g>
<!-- Node7 -->
<g id="node7" class="node">
<title>Node7</title>
<g id="a_node7"><a xlink:href="structjaeger__vector.html" target="_top" xlink:title="jaeger_vector">
<polygon fill="#ffffff" stroke="#000000" points="181,-261 181,-280 256,-280 256,-261 181,-261"/>
<text text-anchor="middle" x="218.5" y="-268" font-family="Helvetica,sans-Serif" font-size="10.00" fill="#000000">jaeger_vector</text>
</a>
</g>
</g>
<!-- Node7&#45;&gt;Node6 -->
<g id="edge7" class="edge">
<title>Node7&#45;&gt;Node6</title>
<path fill="none" stroke="#9a32cd" stroke-dasharray="5,2" d="M266.5381,-274.3475C302.9287,-277.3618 354.1465,-281.8171 399,-286.5 410.935,-287.7461 423.7303,-289.2062 435.8575,-290.6479"/>
<polygon fill="#9a32cd" stroke="#9a32cd" points="266.4686,-270.8301 256.2153,-273.4982 265.8946,-277.8065 266.4686,-270.8301"/>
<text text-anchor="middle" x="343" y="-289.5" font-family="Helvetica,sans-Serif" font-size="10.00" fill="#000000"> response</text>
</g>
<!-- Node16 -->
<g id="node16" class="node">
<title>Node16</title>
<g id="a_node16"><a xlink:href="structjaeger__adaptive__sampler.html" target="_top" xlink:title="jaeger_adaptive_sampler">
<polygon fill="#ffffff" stroke="#000000" points="428,-159 428,-178 553,-178 553,-159 428,-159"/>
<text text-anchor="middle" x="490.5" y="-166" font-family="Helvetica,sans-Serif" font-size="10.00" fill="#000000">jaeger_adaptive_sampler</text>
</a>
</g>
</g>
<!-- Node7&#45;&gt;Node16 -->
<g id="edge23" class="edge">
<title>Node7&#45;&gt;Node16</title>
<path fill="none" stroke="#9a32cd" stroke-dasharray="5,2" d="M266.2273,-262.7147C312.4082,-254.4191 378.3598,-240.3205 399,-224.5 411.951,-214.5732 404.384,-202.8492 417,-192.5 424.6799,-186.2 434.0613,-181.5368 443.5189,-178.0905"/>
<polygon fill="#9a32cd" stroke="#9a32cd" points="265.358,-259.3139 256.1168,-264.4956 266.5723,-266.2078 265.358,-259.3139"/>
<text text-anchor="middle" x="343" y="-261.5" font-family="Helvetica,sans-Serif" font-size="10.00" fill="#000000"> op_samplers</text>
</g>
<!-- Node8 -->
<g id="node8" class="node">
<title>Node8</title>
<g id="a_node8"><a xlink:href="structjaeger__url.html" target="_top" xlink:title="jaeger_url">
<polygon fill="#ffffff" stroke="#000000" points="189,-302 189,-321 248,-321 248,-302 189,-302"/>
<text text-anchor="middle" x="218.5" y="-309" font-family="Helvetica,sans-Serif" font-size="10.00" fill="#000000">jaeger_url</text>
</a>
</g>
</g>
<!-- Node8&#45;&gt;Node6 -->
<g id="edge8" class="edge">
<title>Node8&#45;&gt;Node6</title>
<path fill="none" stroke="#9a32cd" stroke-dasharray="5,2" d="M258.1961,-309.4568C305.0547,-307.045 383.24,-303.0207 435.8114,-300.3149"/>
<polygon fill="#9a32cd" stroke="#9a32cd" points="257.9334,-305.9656 248.1266,-309.9751 258.2933,-312.9564 257.9334,-305.9656"/>
<text text-anchor="middle" x="343" y="-310.5" font-family="Helvetica,sans-Serif" font-size="10.00" fill="#000000"> sampling_server_url</text>
</g>
<!-- Node9 -->
<g id="node9" class="node">
<title>Node9</title>
<g id="a_node9"><a xlink:href="structjaeger__sampler.html" target="_top" xlink:title="jaeger_sampler">
<polygon fill="#ffffff" stroke="#000000" points="12,-165 12,-184 95,-184 95,-165 12,-165"/>
<text text-anchor="middle" x="53.5" y="-172" font-family="Helvetica,sans-Serif" font-size="10.00" fill="#000000">jaeger_sampler</text>
</a>
</g>
</g>
<!-- Node9&#45;&gt;Node1 -->
<g id="edge9" class="edge">
<title>Node9&#45;&gt;Node1</title>
<path fill="none" stroke="#9a32cd" stroke-dasharray="5,2" d="M60.7128,-193.4692C79.3099,-238.7677 133.467,-349.5 218.5,-349.5 218.5,-349.5 218.5,-349.5 782,-349.5 826.1403,-349.5 875.3378,-343.1012 913.7115,-336.6523"/>
<polygon fill="#9a32cd" stroke="#9a32cd" points="63.9592,-192.161 57.0164,-184.158 57.4531,-194.7439 63.9592,-192.161"/>
<text text-anchor="middle" x="490.5" y="-352.5" font-family="Helvetica,sans-Serif" font-size="10.00" fill="#000000"> base</text>
</g>
<!-- Node11 -->
<g id="node11" class="node">
<title>Node11</title>
<g id="a_node11"><a xlink:href="structjaeger__const__sampler.html" target="_top" xlink:title="jaeger_const_sampler">
<polygon fill="#ffffff" stroke="#000000" points="287,-204 287,-223 399,-223 399,-204 287,-204"/>
<text text-anchor="middle" x="343" y="-211" font-family="Helvetica,sans-Serif" font-size="10.00" fill="#000000">jaeger_const_sampler</text>
</a>
</g>
</g>
<!-- Node9&#45;&gt;Node11 -->
<g id="edge12" class="edge">
<title>Node9&#45;&gt;Node11</title>
<path fill="none" stroke="#9a32cd" stroke-dasharray="5,2" d="M82.2129,-188.1957C95.0139,-193.6539 110.46,-199.373 125,-202.5 179.0905,-214.1327 242.3899,-216.0747 286.801,-215.5958"/>
<polygon fill="#9a32cd" stroke="#9a32cd" points="83.5594,-184.9642 72.9982,-184.1199 80.7278,-191.366 83.5594,-184.9642"/>
<text text-anchor="middle" x="137.5" y="-210.5" font-family="Helvetica,sans-Serif" font-size="10.00" fill="#000000"> base</text>
</g>
<!-- Node12 -->
<g id="node12" class="node">
<title>Node12</title>
<g id="a_node12"><a xlink:href="structjaeger__guaranteed__throughput__probabilistic__sampler.html" target="_top" xlink:title="jaeger_guaranteed_throughput\l_probabilistic_sampler">
<polygon fill="#ffffff" stroke="#000000" points="417,-59.5 417,-89.5 564,-89.5 564,-59.5 417,-59.5"/>
<text text-anchor="start" x="425" y="-77.5" font-family="Helvetica,sans-Serif" font-size="10.00" fill="#000000">jaeger_guaranteed_throughput</text>
<text text-anchor="middle" x="490.5" y="-66.5" font-family="Helvetica,sans-Serif" font-size="10.00" fill="#000000">_probabilistic_sampler</text>
</a>
</g>
</g>
<!-- Node9&#45;&gt;Node12 -->
<g id="edge16" class="edge">
<title>Node9&#45;&gt;Node12</title>
<path fill="none" stroke="#9a32cd" stroke-dasharray="5,2" d="M71.4289,-158.0002C92.7038,-139.5059 130.0911,-110.3059 168,-96.5 249.3385,-66.8776 349.7425,-64.9654 416.7063,-68.1249"/>
<polygon fill="#9a32cd" stroke="#9a32cd" points="68.996,-155.4799 63.8448,-164.7382 73.6452,-160.7129 68.996,-155.4799"/>
<text text-anchor="middle" x="218.5" y="-99.5" font-family="Helvetica,sans-Serif" font-size="10.00" fill="#000000"> base</text>
</g>
<!-- Node13 -->
<g id="node13" class="node">
<title>Node13</title>
<g id="a_node13"><a xlink:href="structjaeger__probabilistic__sampler.html" target="_top" xlink:title="jaeger_probabilistic\l_sampler">
<polygon fill="#ffffff" stroke="#000000" points="168.5,-117.5 168.5,-147.5 268.5,-147.5 268.5,-117.5 168.5,-117.5"/>
<text text-anchor="start" x="176.5" y="-135.5" font-family="Helvetica,sans-Serif" font-size="10.00" fill="#000000">jaeger_probabilistic</text>
<text text-anchor="middle" x="218.5" y="-124.5" font-family="Helvetica,sans-Serif" font-size="10.00" fill="#000000">_sampler</text>
</a>
</g>
</g>
<!-- Node9&#45;&gt;Node13 -->
<g id="edge15" class="edge">
<title>Node9&#45;&gt;Node13</title>
<path fill="none" stroke="#9a32cd" stroke-dasharray="5,2" d="M100.6858,-162.4891C121.8633,-157.0984 146.8676,-150.7337 168.3804,-145.2577"/>
<polygon fill="#9a32cd" stroke="#9a32cd" points="99.7686,-159.1108 90.9411,-164.9695 101.4954,-165.8945 99.7686,-159.1108"/>
<text text-anchor="middle" x="137.5" y="-159.5" font-family="Helvetica,sans-Serif" font-size="10.00" fill="#000000"> base</text>
</g>
<!-- Node14 -->
<g id="node14" class="node">
<title>Node14</title>
<g id="a_node14"><a xlink:href="structjaeger__rate__limiting__sampler.html" target="_top" xlink:title="jaeger_rate_limiting\l_sampler">
<polygon fill="#ffffff" stroke="#000000" points="168,-.5 168,-30.5 269,-30.5 269,-.5 168,-.5"/>
<text text-anchor="start" x="176" y="-18.5" font-family="Helvetica,sans-Serif" font-size="10.00" fill="#000000">jaeger_rate_limiting</text>
<text text-anchor="middle" x="218.5" y="-7.5" font-family="Helvetica,sans-Serif" font-size="10.00" fill="#000000">_sampler</text>
</a>
</g>
</g>
<!-- Node9&#45;&gt;Node14 -->
<g id="edge19" class="edge">
<title>Node9&#45;&gt;Node14</title>
<path fill="none" stroke="#9a32cd" stroke-dasharray="5,2" d="M59.2313,-154.921C68.4816,-126.6983 89.3635,-74.7676 125,-45.5 137.252,-35.4377 152.9417,-28.7271 167.9544,-24.2609"/>
<polygon fill="#9a32cd" stroke="#9a32cd" points="55.787,-154.2099 56.1551,-164.7984 62.4704,-156.2914 55.787,-154.2099"/>
<text text-anchor="middle" x="137.5" y="-48.5" font-family="Helvetica,sans-Serif" font-size="10.00" fill="#000000"> base</text>
</g>
<!-- Node9&#45;&gt;Node16 -->
<g id="edge25" class="edge">
<title>Node9&#45;&gt;Node16</title>
<path fill="none" stroke="#9a32cd" stroke-dasharray="5,2" d="M105.6354,-174.4381C173.2817,-174.2681 294.9667,-173.6568 399,-171.5 408.3754,-171.3056 418.2895,-171.0415 427.9959,-170.7501"/>
<polygon fill="#9a32cd" stroke="#9a32cd" points="105.2455,-170.9389 95.2535,-174.4618 105.2615,-177.9389 105.2455,-170.9389"/>
<text text-anchor="middle" x="218.5" y="-177.5" font-family="Helvetica,sans-Serif" font-size="10.00" fill="#000000"> base</text>
</g>
<!-- Node10 -->
<g id="node10" class="node">
<title>Node10</title>
<g id="a_node10"><a xlink:href="structjaeger__sampler__choice.html" target="_top" xlink:title="jaeger_sampler_choice">
<polygon fill="#ffffff" stroke="#000000" points="724,-138 724,-157 840,-157 840,-138 724,-138"/>
<text text-anchor="middle" x="782" y="-145" font-family="Helvetica,sans-Serif" font-size="10.00" fill="#000000">jaeger_sampler_choice</text>
</a>
</g>
</g>
<!-- Node10&#45;&gt;Node1 -->
<g id="edge10" class="edge">
<title>Node10&#45;&gt;Node1</title>
<path fill="none" stroke="#9a32cd" stroke-dasharray="5,2" d="M800.8018,-164.1706C839.255,-198.2651 926.3746,-275.5097 963.3692,-308.311"/>
<polygon fill="#9a32cd" stroke="#9a32cd" points="802.7594,-161.2287 792.955,-157.2132 798.1154,-166.4664 802.7594,-161.2287"/>
<text text-anchor="middle" x="877" y="-249.5" font-family="Helvetica,sans-Serif" font-size="10.00" fill="#000000"> sampler</text>
</g>
<!-- Node11&#45;&gt;Node10 -->
<g id="edge11" class="edge">
<title>Node11&#45;&gt;Node10</title>
<path fill="none" stroke="#9a32cd" stroke-dasharray="5,2" d="M409.1894,-212.4134C482.6606,-209.9483 604.2958,-202.1092 706,-177.5 725.7159,-172.7294 747.1195,-163.9276 762.1734,-157.0868"/>
<polygon fill="#9a32cd" stroke="#9a32cd" points="409.035,-208.9164 399.1491,-212.7267 409.2534,-215.913 409.035,-208.9164"/>
<text text-anchor="middle" x="490.5" y="-215.5" font-family="Helvetica,sans-Serif" font-size="10.00" fill="#000000"> const_sampler</text>
</g>
<!-- Node12&#45;&gt;Node10 -->
<g id="edge13" class="edge">
<title>Node12&#45;&gt;Node10</title>
<path fill="none" stroke="#9a32cd" stroke-dasharray="5,2" d="M574.5959,-71.7597C615.3766,-72.9514 664.4115,-78.1847 706,-93.5 732.7322,-103.3444 758.6295,-125.1762 772.2047,-137.8597"/>
<polygon fill="#9a32cd" stroke="#9a32cd" points="574.4885,-68.2566 564.4153,-71.5401 574.3375,-75.255 574.4885,-68.2566"/>
<text text-anchor="start" x="592.5" y="-107.5" font-family="Helvetica,sans-Serif" font-size="10.00" fill="#000000"> guaranteed_throughput</text>
<text text-anchor="middle" x="644" y="-96.5" font-family="Helvetica,sans-Serif" font-size="10.00" fill="#000000">_probabilistic_sampler</text>
</g>
<!-- Node13&#45;&gt;Node10 -->
<g id="edge20" class="edge">
<title>Node13&#45;&gt;Node10</title>
<path fill="none" stroke="#9a32cd" stroke-dasharray="5,2" d="M278.8104,-133.1111C347.7694,-133.9111 464.0411,-135.5691 564,-138.5 618.1444,-140.0876 679.8212,-142.7098 723.7208,-144.7154"/>
<polygon fill="#9a32cd" stroke="#9a32cd" points="278.6122,-129.6087 268.573,-132.9946 278.5325,-136.6082 278.6122,-129.6087"/>
<text text-anchor="middle" x="490.5" y="-141.5" font-family="Helvetica,sans-Serif" font-size="10.00" fill="#000000"> probabilistic_sampler</text>
</g>
<!-- Node13&#45;&gt;Node12 -->
<g id="edge14" class="edge">
<title>Node13&#45;&gt;Node12</title>
<path fill="none" stroke="#9a32cd" stroke-dasharray="5,2" d="M259.9767,-113.6793C268.7643,-110.2229 278.0819,-106.9413 287,-104.5 329.1944,-92.9494 377.6043,-85.5838 416.6197,-81.0428"/>
<polygon fill="#9a32cd" stroke="#9a32cd" points="258.6298,-110.4487 250.6931,-117.4671 261.2743,-116.93 258.6298,-110.4487"/>
<text text-anchor="middle" x="343" y="-107.5" font-family="Helvetica,sans-Serif" font-size="10.00" fill="#000000"> probabilistic_sampler</text>
</g>
<!-- Node13&#45;&gt;Node16 -->
<g id="edge24" class="edge">
<title>Node13&#45;&gt;Node16</title>
<path fill="none" stroke="#9a32cd" stroke-dasharray="5,2" d="M278.738,-140.4727C322.9524,-146.3246 382.8558,-154.253 427.668,-160.184"/>
<polygon fill="#9a32cd" stroke="#9a32cd" points="279.0788,-136.9873 268.706,-139.1449 278.1603,-143.9268 279.0788,-136.9873"/>
<text text-anchor="middle" x="343" y="-159.5" font-family="Helvetica,sans-Serif" font-size="10.00" fill="#000000"> default_sampler</text>
</g>
<!-- Node14&#45;&gt;Node10 -->
<g id="edge21" class="edge">
<title>Node14&#45;&gt;Node10</title>
<path fill="none" stroke="#9a32cd" stroke-dasharray="5,2" d="M279.5378,-7.7296C376.5099,1.6056 568.8066,7.6072 706,-68.5 737.6205,-86.0413 764.1683,-121.0613 775.7553,-137.9525"/>
<polygon fill="#9a32cd" stroke="#9a32cd" points="278.9229,-4.2738 269.3246,-8.7595 279.6253,-11.2384 278.9229,-4.2738"/>
<text text-anchor="middle" x="490.5" y="-21.5" font-family="Helvetica,sans-Serif" font-size="10.00" fill="#000000"> rate_limiting_sampler</text>
</g>
<!-- Node14&#45;&gt;Node12 -->
<g id="edge17" class="edge">
<title>Node14&#45;&gt;Node12</title>
<path fill="none" stroke="#9a32cd" stroke-dasharray="5,2" d="M279.1996,-23.3899C314.4257,-28.5146 359.502,-36.0093 399,-45.5 414.8789,-49.3154 432.0095,-54.4595 447.1064,-59.3558"/>
<polygon fill="#9a32cd" stroke="#9a32cd" points="279.4653,-19.8924 269.0706,-21.942 278.4747,-26.822 279.4653,-19.8924"/>
<text text-anchor="middle" x="343" y="-48.5" font-family="Helvetica,sans-Serif" font-size="10.00" fill="#000000"> lower_bound_sampler</text>
</g>
<!-- Node15 -->
<g id="node15" class="node">
<title>Node15</title>
<g id="a_node15"><a xlink:href="structjaeger__token__bucket.html" target="_top" xlink:title="jaeger_token_bucket">
<polygon fill="#ffffff" stroke="#000000" points="0,-1 0,-20 107,-20 107,-1 0,-1"/>
<text text-anchor="middle" x="53.5" y="-8" font-family="Helvetica,sans-Serif" font-size="10.00" fill="#000000">jaeger_token_bucket</text>
</a>
</g>
</g>
<!-- Node15&#45;&gt;Node14 -->
<g id="edge18" class="edge">
<title>Node15&#45;&gt;Node14</title>
<path fill="none" stroke="#9a32cd" stroke-dasharray="5,2" d="M117.409,-10.7309C128.2859,-10.8937 139.468,-11.1381 150,-11.5 155.7147,-11.6963 161.6946,-11.9597 167.6393,-12.258"/>
<polygon fill="#9a32cd" stroke="#9a32cd" points="117.1495,-7.2274 107.1053,-10.5986 117.0595,-14.2268 117.1495,-7.2274"/>
<text text-anchor="middle" x="137.5" y="-14.5" font-family="Helvetica,sans-Serif" font-size="10.00" fill="#000000"> tok</text>
</g>
<!-- Node16&#45;&gt;Node10 -->
<g id="edge22" class="edge">
<title>Node16&#45;&gt;Node10</title>
<path fill="none" stroke="#9a32cd" stroke-dasharray="5,2" d="M563.0418,-163.274C612.5661,-159.7062 677.3223,-155.0411 723.5391,-151.7116"/>
<polygon fill="#9a32cd" stroke="#9a32cd" points="562.7567,-159.7854 553.0341,-163.995 563.2597,-166.7673 562.7567,-159.7854"/>
<text text-anchor="middle" x="644" y="-165.5" font-family="Helvetica,sans-Serif" font-size="10.00" fill="#000000"> adaptive_sampler</text>
</g>
</g>
</svg>
