<?xml version="1.0" encoding="UTF-8" standalone="no"?>
<!DOCTYPE svg PUBLIC "-//W3C//DTD SVG 1.1//EN"
 "http://www.w3.org/Graphics/SVG/1.1/DTD/svg11.dtd">
<!-- Generated by graphviz version 2.40.1 (20161225.0304)
 -->
<!-- Title: jaeger_span Pages: 1 -->
<svg width="982pt" height="327pt"
 viewBox="0.00 0.00 982.00 327.00" xmlns="http://www.w3.org/2000/svg" xmlns:xlink="http://www.w3.org/1999/xlink">
<g id="graph0" class="graph" transform="scale(1 1) rotate(0) translate(4 323)">
<title>jaeger_span</title>
<polygon fill="#ffffff" stroke="transparent" points="-4,4 -4,-323 978,-323 978,4 -4,4"/>
<!-- Node1 -->
<g id="node1" class="node">
<title>Node1</title>
<polygon fill="#bfbfbf" stroke="#000000" points="905,-217.5 905,-236.5 974,-236.5 974,-217.5 905,-217.5"/>
<text text-anchor="middle" x="939.5" y="-224.5" font-family="Helvetica,sans-Serif" font-size="10.00" fill="#000000">jaeger_span</text>
</g>
<!-- Node2 -->
<g id="node2" class="node">
<title>Node2</title>
<g id="a_node2"><a xlink:href="structjaeger__vector.html" target="_top" xlink:title="jaeger_vector">
<polygon fill="#ffffff" stroke="#000000" points="555.5,-208.5 555.5,-227.5 630.5,-227.5 630.5,-208.5 555.5,-208.5"/>
<text text-anchor="middle" x="593" y="-215.5" font-family="Helvetica,sans-Serif" font-size="10.00" fill="#000000">jaeger_vector</text>
</a>
</g>
</g>
<!-- Node2&#45;&gt;Node1 -->
<g id="edge1" class="edge">
<title>Node2&#45;&gt;Node1</title>
<path fill="none" stroke="#9a32cd" stroke-dasharray="5,2" d="M641.1665,-219.2511C712.0455,-221.0921 842.7463,-224.4869 904.9072,-226.1015"/>
<polygon fill="#9a32cd" stroke="#9a32cd" points="640.8287,-215.7412 630.7412,-218.9803 640.6469,-222.7389 640.8287,-215.7412"/>
<text text-anchor="middle" x="779.5" y="-249" font-family="Helvetica,sans-Serif" font-size="10.00" fill="#000000"> refs</text>
<text text-anchor="middle" x="779.5" y="-238" font-family="Helvetica,sans-Serif" font-size="10.00" fill="#000000">tags</text>
<text text-anchor="middle" x="779.5" y="-227" font-family="Helvetica,sans-Serif" font-size="10.00" fill="#000000">logs</text>
</g>
<!-- Node3 -->
<g id="node3" class="node">
<title>Node3</title>
<g id="a_node3"><a xlink:href="structjaeger__tracer.html" target="_top" xlink:title="Tracer implementation. ">
<polygon fill="#ffffff" stroke="#000000" points="743,-123.5 743,-142.5 816,-142.5 816,-123.5 743,-123.5"/>
<text text-anchor="middle" x="779.5" y="-130.5" font-family="Helvetica,sans-Serif" font-size="10.00" fill="#000000">jaeger_tracer</text>
</a>
</g>
</g>
<!-- Node2&#45;&gt;Node3 -->
<g id="edge9" class="edge">
<title>Node2&#45;&gt;Node3</title>
<path fill="none" stroke="#9a32cd" stroke-dasharray="5,2" d="M626.8442,-204.7254C649.9228,-195.4662 681.0658,-182.5642 708,-170 726.7463,-161.2553 747.7145,-150.2552 762.07,-142.5302"/>
<polygon fill="#9a32cd" stroke="#9a32cd" points="625.4748,-201.5034 617.4829,-208.459 628.068,-208.0053 625.4748,-201.5034"/>
<text text-anchor="middle" x="688" y="-189" font-family="Helvetica,sans-Serif" font-size="10.00" fill="#000000"> tags</text>
</g>
<!-- Node3&#45;&gt;Node1 -->
<g id="edge2" class="edge">
<title>Node3&#45;&gt;Node1</title>
<path fill="none" stroke="#9a32cd" stroke-dasharray="5,2" d="M804.3694,-147.6108C837.4957,-167.0725 895.1737,-200.9583 923.2349,-217.4443"/>
<polygon fill="#9a32cd" stroke="#9a32cd" points="806.1172,-144.5783 795.7222,-142.5305 802.5713,-150.6138 806.1172,-144.5783"/>
<text text-anchor="middle" x="869" y="-196" font-family="Helvetica,sans-Serif" font-size="10.00" fill="#000000"> tracer</text>
</g>
<!-- Node4 -->
<g id="node4" class="node">
<title>Node4</title>
<g id="a_node4"><a xlink:href="structjaeger__tracer__options.html" target="_top" xlink:title="Options that can be used to customize the tracer. ">
<polygon fill="#ffffff" stroke="#000000" points="538,-123.5 538,-142.5 648,-142.5 648,-123.5 538,-123.5"/>
<text text-anchor="middle" x="593" y="-130.5" font-family="Helvetica,sans-Serif" font-size="10.00" fill="#000000">jaeger_tracer_options</text>
</a>
</g>
</g>
<!-- Node4&#45;&gt;Node3 -->
<g id="edge3" class="edge">
<title>Node4&#45;&gt;Node3</title>
<path fill="none" stroke="#9a32cd" stroke-dasharray="5,2" d="M658.422,-133C686.6903,-133 718.7145,-133 742.7249,-133"/>
<polygon fill="#9a32cd" stroke="#9a32cd" points="658.1992,-129.5001 648.1992,-133 658.1991,-136.5001 658.1992,-129.5001"/>
<text text-anchor="middle" x="688" y="-136" font-family="Helvetica,sans-Serif" font-size="10.00" fill="#000000"> options</text>
</g>
<!-- Node5 -->
<g id="node5" class="node">
<title>Node5</title>
<g id="a_node5"><a xlink:href="structjaeger__metrics.html" target="_top" xlink:title="jaeger_metrics">
<polygon fill="#ffffff" stroke="#000000" points="382,-84.5 382,-103.5 462,-103.5 462,-84.5 382,-84.5"/>
<text text-anchor="middle" x="422" y="-91.5" font-family="Helvetica,sans-Serif" font-size="10.00" fill="#000000">jaeger_metrics</text>
</a>
</g>
</g>
<!-- Node5&#45;&gt;Node3 -->
<g id="edge4" class="edge">
<title>Node5&#45;&gt;Node3</title>
<path fill="none" stroke="#9a32cd" stroke-dasharray="5,2" d="M472.2333,-93.2794C518.5873,-93.2537 589.2261,-94.8351 650,-103 683.1652,-107.4557 720.3061,-116.4884 746.2791,-123.4838"/>
<polygon fill="#9a32cd" stroke="#9a32cd" points="472.1366,-89.7795 462.1475,-93.3106 472.1583,-96.7795 472.1366,-89.7795"/>
<text text-anchor="middle" x="593" y="-106" font-family="Helvetica,sans-Serif" font-size="10.00" fill="#000000"> metrics</text>
</g>
<!-- Node6 -->
<g id="node6" class="node">
<title>Node6</title>
<g id="a_node6"><a xlink:href="structjaeger__counter.html" target="_top" xlink:title="Counter metric interface. ">
<polygon fill="#ffffff" stroke="#000000" points="138.5,-110.5 138.5,-129.5 218.5,-129.5 218.5,-110.5 138.5,-110.5"/>
<text text-anchor="middle" x="178.5" y="-117.5" font-family="Helvetica,sans-Serif" font-size="10.00" fill="#000000">jaeger_counter</text>
</a>
</g>
</g>
<!-- Node6&#45;&gt;Node5 -->
<g id="edge5" class="edge">
<title>Node6&#45;&gt;Node5</title>
<path fill="none" stroke="#9a32cd" stroke-dasharray="5,2" d="M228.9025,-114.6182C274.1982,-109.7817 339.8523,-102.7714 381.7312,-98.2997"/>
<polygon fill="#9a32cd" stroke="#9a32cd" points="228.2809,-111.1646 218.7091,-115.7066 229.0242,-118.125 228.2809,-111.1646"/>
<text text-anchor="middle" x="302" y="-237" font-family="Helvetica,sans-Serif" font-size="10.00" fill="#000000"> traces_started_sampled</text>
<text text-anchor="start" x="240" y="-226" font-family="Helvetica,sans-Serif" font-size="10.00" fill="#000000">baggage_restrictions</text>
<text text-anchor="middle" x="302" y="-215" font-family="Helvetica,sans-Serif" font-size="10.00" fill="#000000">_update_success</text>
<text text-anchor="middle" x="302" y="-204" font-family="Helvetica,sans-Serif" font-size="10.00" fill="#000000">traces_started_not_sampled</text>
<text text-anchor="middle" x="302" y="-193" font-family="Helvetica,sans-Serif" font-size="10.00" fill="#000000">reporter_failure</text>
<text text-anchor="middle" x="302" y="-182" font-family="Helvetica,sans-Serif" font-size="10.00" fill="#000000">spans_finished</text>
<text text-anchor="middle" x="302" y="-171" font-family="Helvetica,sans-Serif" font-size="10.00" fill="#000000">sampler_query_failure</text>
<text text-anchor="middle" x="302" y="-160" font-family="Helvetica,sans-Serif" font-size="10.00" fill="#000000">reporter_dropped</text>
<text text-anchor="middle" x="302" y="-149" font-family="Helvetica,sans-Serif" font-size="10.00" fill="#000000">spans_started</text>
<text text-anchor="middle" x="302" y="-138" font-family="Helvetica,sans-Serif" font-size="10.00" fill="#000000">sampler_retrieved</text>
<text text-anchor="middle" x="302" y="-127" font-family="Helvetica,sans-Serif" font-size="10.00" fill="#000000">baggage_update_failure</text>
<text text-anchor="middle" x="302" y="-116" font-family="Helvetica,sans-Serif" font-size="10.00" fill="#000000">...</text>
</g>
<!-- Node7 -->
<g id="node7" class="node">
<title>Node7</title>
<polygon fill="#ffffff" stroke="#bfbfbf" points="0,-110.5 0,-129.5 98,-129.5 98,-110.5 0,-110.5"/>
<text text-anchor="middle" x="49" y="-117.5" font-family="Helvetica,sans-Serif" font-size="10.00" fill="#000000">jaeger_destructible</text>
</g>
<!-- Node7&#45;&gt;Node6 -->
<g id="edge6" class="edge">
<title>Node7&#45;&gt;Node6</title>
<path fill="none" stroke="#191970" d="M108.6395,-120C118.6299,-120 128.7835,-120 138.1412,-120"/>
<polygon fill="#191970" stroke="#191970" points="108.3279,-116.5001 98.3278,-120 108.3278,-123.5001 108.3279,-116.5001"/>
</g>
<!-- Node8 -->
<g id="node8" class="node">
<title>Node8</title>
<g id="a_node8"><a xlink:href="structjaeger__gauge.html" target="_top" xlink:title="Gauge metric interface. ">
<polygon fill="#ffffff" stroke="#000000" points="141.5,-72.5 141.5,-91.5 215.5,-91.5 215.5,-72.5 141.5,-72.5"/>
<text text-anchor="middle" x="178.5" y="-79.5" font-family="Helvetica,sans-Serif" font-size="10.00" fill="#000000">jaeger_gauge</text>
</a>
</g>
</g>
<!-- Node7&#45;&gt;Node8 -->
<g id="edge8" class="edge">
<title>Node7&#45;&gt;Node8</title>
<path fill="none" stroke="#191970" d="M91.719,-107.4647C109.336,-102.2952 129.4232,-96.4009 145.8321,-91.5859"/>
<polygon fill="#191970" stroke="#191970" points="90.2882,-104.2369 81.6783,-110.411 92.2592,-110.9537 90.2882,-104.2369"/>
</g>
<!-- Node16 -->
<g id="node16" class="node">
<title>Node16</title>
<g id="a_node16"><a xlink:href="structjaeger__list__node.html" target="_top" xlink:title="Base class for list elements. ">
<polygon fill="#ffffff" stroke="#000000" points="135,-204.5 135,-223.5 222,-223.5 222,-204.5 135,-204.5"/>
<text text-anchor="middle" x="178.5" y="-211.5" font-family="Helvetica,sans-Serif" font-size="10.00" fill="#000000">jaeger_list_node</text>
</a>
</g>
</g>
<!-- Node7&#45;&gt;Node16 -->
<g id="edge18" class="edge">
<title>Node7&#45;&gt;Node16</title>
<path fill="none" stroke="#191970" d="M70.7902,-135.8168C97.8548,-155.4622 143.166,-188.3521 165.3946,-204.4872"/>
<polygon fill="#191970" stroke="#191970" points="72.5198,-132.7475 62.371,-129.7056 68.4078,-138.4124 72.5198,-132.7475"/>
</g>
<!-- Node8&#45;&gt;Node5 -->
<g id="edge7" class="edge">
<title>Node8&#45;&gt;Node5</title>
<path fill="none" stroke="#9a32cd" stroke-dasharray="5,2" d="M225.6987,-79.8939C263.2609,-78.7862 317.1184,-78.4661 364,-83 369.8148,-83.5623 375.9155,-84.4196 381.8867,-85.4126"/>
<polygon fill="#9a32cd" stroke="#9a32cd" points="225.4366,-76.4005 215.5557,-80.2238 225.6643,-83.3968 225.4366,-76.4005"/>
<text text-anchor="middle" x="302" y="-86" font-family="Helvetica,sans-Serif" font-size="10.00" fill="#000000"> reporter_queue_length</text>
</g>
<!-- Node9 -->
<g id="node9" class="node">
<title>Node9</title>
<g id="a_node9"><a xlink:href="structjaeger__headers__config.html" target="_top" xlink:title="HTTP headers to use for span context propagation. ">
<polygon fill="#ffffff" stroke="#000000" points="536,-161.5 536,-180.5 650,-180.5 650,-161.5 536,-161.5"/>
<text text-anchor="middle" x="593" y="-168.5" font-family="Helvetica,sans-Serif" font-size="10.00" fill="#000000">jaeger_headers_config</text>
</a>
</g>
</g>
<!-- Node9&#45;&gt;Node3 -->
<g id="edge10" class="edge">
<title>Node9&#45;&gt;Node3</title>
<path fill="none" stroke="#9a32cd" stroke-dasharray="5,2" d="M650.0356,-159.3788C680.1883,-153.2351 716.3219,-145.8727 742.7441,-140.4891"/>
<polygon fill="#9a32cd" stroke="#9a32cd" points="649.1617,-155.9849 640.0618,-161.411 650.5593,-162.8439 649.1617,-155.9849"/>
<text text-anchor="middle" x="688" y="-158" font-family="Helvetica,sans-Serif" font-size="10.00" fill="#000000"> headers</text>
</g>
<!-- Node10 -->
<g id="node10" class="node">
<title>Node10</title>
<g id="a_node10"><a xlink:href="structjaeger__reporter.html" target="_top" xlink:title="jaeger_reporter">
<polygon fill="#ffffff" stroke="#000000" points="552.5,-38.5 552.5,-57.5 633.5,-57.5 633.5,-38.5 552.5,-38.5"/>
<text text-anchor="middle" x="593" y="-45.5" font-family="Helvetica,sans-Serif" font-size="10.00" fill="#000000">jaeger_reporter</text>
</a>
</g>
</g>
<!-- Node10&#45;&gt;Node3 -->
<g id="edge11" class="edge">
<title>Node10&#45;&gt;Node3</title>
<path fill="none" stroke="#9a32cd" stroke-dasharray="5,2" d="M643.4754,-51.1861C664.2733,-54.0063 688.1065,-59.2585 708,-69 735.231,-82.3346 759.8813,-109.0567 771.8569,-123.3912"/>
<polygon fill="#9a32cd" stroke="#9a32cd" points="643.887,-47.7105 633.5399,-49.988 643.0489,-54.6601 643.887,-47.7105"/>
<text text-anchor="middle" x="688" y="-72" font-family="Helvetica,sans-Serif" font-size="10.00" fill="#000000"> reporter</text>
</g>
<!-- Node11 -->
<g id="node11" class="node">
<title>Node11</title>
<g id="a_node11"><a xlink:href="structjaeger__sampler.html" target="_top" xlink:title="jaeger_sampler">
<polygon fill="#ffffff" stroke="#000000" points="551.5,-.5 551.5,-19.5 634.5,-19.5 634.5,-.5 551.5,-.5"/>
<text text-anchor="middle" x="593" y="-7.5" font-family="Helvetica,sans-Serif" font-size="10.00" fill="#000000">jaeger_sampler</text>
</a>
</g>
</g>
<!-- Node11&#45;&gt;Node3 -->
<g id="edge12" class="edge">
<title>Node11&#45;&gt;Node3</title>
<path fill="none" stroke="#9a32cd" stroke-dasharray="5,2" d="M644.5611,-16.5653C665.535,-21.0302 689.2062,-28.5056 708,-41 740.6806,-62.7265 764.8907,-104.3575 774.7006,-123.2482"/>
<polygon fill="#9a32cd" stroke="#9a32cd" points="644.9997,-13.085 634.5147,-14.6064 643.66,-19.9556 644.9997,-13.085"/>
<text text-anchor="middle" x="688" y="-44" font-family="Helvetica,sans-Serif" font-size="10.00" fill="#000000"> sampler</text>
</g>
<!-- Node12 -->
<g id="node12" class="node">
<title>Node12</title>
<g id="a_node12"><a xlink:href="structjaeger__span__context.html" target="_top" xlink:title="Span context represents propagated span identity and state. ">
<polygon fill="#ffffff" stroke="#000000" points="726,-278.5 726,-297.5 833,-297.5 833,-278.5 726,-278.5"/>
<text text-anchor="middle" x="779.5" y="-285.5" font-family="Helvetica,sans-Serif" font-size="10.00" fill="#000000">jaeger_span_context</text>
</a>
</g>
</g>
<!-- Node12&#45;&gt;Node1 -->
<g id="edge13" class="edge">
<title>Node12&#45;&gt;Node1</title>
<path fill="none" stroke="#9a32cd" stroke-dasharray="5,2" d="M814.2076,-274.7677C844.4076,-263.254 887.4502,-246.844 914.4121,-236.5648"/>
<polygon fill="#9a32cd" stroke="#9a32cd" points="812.5971,-271.6359 804.5,-278.4688 815.0908,-278.1767 812.5971,-271.6359"/>
<text text-anchor="middle" x="869" y="-262" font-family="Helvetica,sans-Serif" font-size="10.00" fill="#000000"> context</text>
</g>
<!-- Node13 -->
<g id="node13" class="node">
<title>Node13</title>
<g id="a_node13"><a xlink:href="structjaeger__trace__id.html" target="_top" xlink:title="128 bit unique ID for a given trace. ">
<polygon fill="#ffffff" stroke="#000000" points="551.5,-299.5 551.5,-318.5 634.5,-318.5 634.5,-299.5 551.5,-299.5"/>
<text text-anchor="middle" x="593" y="-306.5" font-family="Helvetica,sans-Serif" font-size="10.00" fill="#000000">jaeger_trace_id</text>
</a>
</g>
</g>
<!-- Node13&#45;&gt;Node12 -->
<g id="edge14" class="edge">
<title>Node13&#45;&gt;Node12</title>
<path fill="none" stroke="#9a32cd" stroke-dasharray="5,2" d="M644.9459,-303.1509C670.1166,-300.3166 700.3192,-296.9158 725.7266,-294.0549"/>
<polygon fill="#9a32cd" stroke="#9a32cd" points="644.3998,-299.6901 634.8542,-304.2872 645.1831,-306.6462 644.3998,-299.6901"/>
<text text-anchor="middle" x="688" y="-303" font-family="Helvetica,sans-Serif" font-size="10.00" fill="#000000"> trace_id</text>
</g>
<!-- Node14 -->
<g id="node14" class="node">
<title>Node14</title>
<g id="a_node14"><a xlink:href="structjaeger__hashtable.html" target="_top" xlink:title="Hashtable data structure. ">
<polygon fill="#ffffff" stroke="#000000" points="548,-261.5 548,-280.5 638,-280.5 638,-261.5 548,-261.5"/>
<text text-anchor="middle" x="593" y="-268.5" font-family="Helvetica,sans-Serif" font-size="10.00" fill="#000000">jaeger_hashtable</text>
</a>
</g>
</g>
<!-- Node14&#45;&gt;Node12 -->
<g id="edge15" class="edge">
<title>Node14&#45;&gt;Node12</title>
<path fill="none" stroke="#9a32cd" stroke-dasharray="5,2" d="M648.4059,-272.0322C667.3445,-272.7504 688.6318,-273.9614 708,-276 714.2588,-276.6588 720.8003,-277.518 727.2753,-278.4742"/>
<polygon fill="#9a32cd" stroke="#9a32cd" points="648.2669,-268.5255 638.1532,-271.6818 648.0278,-275.5214 648.2669,-268.5255"/>
<text text-anchor="middle" x="688" y="-279" font-family="Helvetica,sans-Serif" font-size="10.00" fill="#000000"> baggage</text>
</g>
<!-- Node15 -->
<g id="node15" class="node">
<title>Node15</title>
<g id="a_node15"><a xlink:href="structjaeger__list.html" target="_top" xlink:title="Linked list implementation. ">
<polygon fill="#ffffff" stroke="#000000" points="391.5,-261.5 391.5,-280.5 452.5,-280.5 452.5,-261.5 391.5,-261.5"/>
<text text-anchor="middle" x="422" y="-268.5" font-family="Helvetica,sans-Serif" font-size="10.00" fill="#000000">jaeger_list</text>
</a>
</g>
</g>
<!-- Node15&#45;&gt;Node14 -->
<g id="edge16" class="edge">
<title>Node15&#45;&gt;Node14</title>
<path fill="none" stroke="#9a32cd" stroke-dasharray="5,2" d="M462.704,-271C488.3398,-271 521.463,-271 547.897,-271"/>
<polygon fill="#9a32cd" stroke="#9a32cd" points="462.5714,-267.5001 452.5714,-271 462.5713,-274.5001 462.5714,-267.5001"/>
<text text-anchor="middle" x="499" y="-274" font-family="Helvetica,sans-Serif" font-size="10.00" fill="#000000"> buckets</text>
</g>
<!-- Node16&#45;&gt;Node15 -->
<g id="edge17" class="edge">
<title>Node16&#45;&gt;Node15</title>
<path fill="none" stroke="#9a32cd" stroke-dasharray="5,2" d="M200.2941,-229.237C211.6278,-236.4079 226.0082,-244.3812 240,-249 291.2281,-265.9108 354.4058,-270.0725 391.2513,-270.9543"/>
<polygon fill="#9a32cd" stroke="#9a32cd" points="202.2029,-226.3034 191.9234,-223.7376 198.3593,-232.1537 202.2029,-226.3034"/>
<text text-anchor="middle" x="302" y="-272" font-family="Helvetica,sans-Serif" font-size="10.00" fill="#000000"> head</text>
</g>
<!-- Node16&#45;&gt;Node16 -->
<g id="edge19" class="edge">
<title>Node16&#45;&gt;Node16</title>
<path fill="none" stroke="#9a32cd" stroke-dasharray="5,2" d="M167.0823,-233.7663C167.9791,-238.4965 171.785,-242 178.5,-242 189.5195,-242 192.7049,-232.5653 188.056,-223.7571"/>
<polygon fill="#9a32cd" stroke="#9a32cd" points="170.5563,-234.2285 168.944,-223.7571 163.6743,-232.9484 170.5563,-234.2285"/>
<text text-anchor="middle" x="178.5" y="-256" font-family="Helvetica,sans-Serif" font-size="10.00" fill="#000000"> prev</text>
<text text-anchor="middle" x="178.5" y="-245" font-family="Helvetica,sans-Serif" font-size="10.00" fill="#000000">next</text>
</g>
</g>
</svg>
