<?xml version="1.0" encoding="UTF-8" standalone="no"?>
<!DOCTYPE svg PUBLIC "-//W3C//DTD SVG 1.1//EN"
 "http://www.w3.org/Graphics/SVG/1.1/DTD/svg11.dtd">
<!-- Generated by graphviz version 2.40.1 (20161225.0304)
 -->
<!-- Title: _Jaegertracing__Protobuf__Span Pages: 1 -->
<svg width="577pt" height="104pt"
 viewBox="0.00 0.00 577.00 104.00" xmlns="http://www.w3.org/2000/svg" xmlns:xlink="http://www.w3.org/1999/xlink">
<g id="graph0" class="graph" transform="scale(1 1) rotate(0) translate(4 100)">
<title>_Jaegertracing__Protobuf__Span</title>
<polygon fill="#ffffff" stroke="transparent" points="-4,4 -4,-100 573,-100 573,4 -4,4"/>
<!-- Node1 -->
<g id="node1" class="node">
<title>Node1</title>
<polygon fill="#bfbfbf" stroke="#000000" points="441,-39 441,-69 569,-69 569,-39 441,-39"/>
<text text-anchor="start" x="449" y="-57" font-family="Helvetica,sans-Serif" font-size="10.00" fill="#000000">_Jaegertracing__Protobuf</text>
<text text-anchor="middle" x="505" y="-46" font-family="Helvetica,sans-Serif" font-size="10.00" fill="#000000">__Span</text>
</g>
<!-- Node2 -->
<g id="node2" class="node">
<title>Node2</title>
<g id="a_node2"><a xlink:href="struct__Jaegertracing____Protobuf____SpanRef.html" target="_top" xlink:title="_Jaegertracing__Protobuf\l__SpanRef">
<polygon fill="#ffffff" stroke="#000000" points="215,-39 215,-69 343,-69 343,-39 215,-39"/>
<text text-anchor="start" x="223" y="-57" font-family="Helvetica,sans-Serif" font-size="10.00" fill="#000000">_Jaegertracing__Protobuf</text>
<text text-anchor="middle" x="279" y="-46" font-family="Helvetica,sans-Serif" font-size="10.00" fill="#000000">__SpanRef</text>
</a>
</g>
</g>
<!-- Node2&#45;&gt;Node1 -->
<g id="edge1" class="edge">
<title>Node2&#45;&gt;Node1</title>
<path fill="none" stroke="#9a32cd" stroke-dasharray="5,2" d="M353.374,-54C381.5935,-54 413.4664,-54 440.6816,-54"/>
<polygon fill="#9a32cd" stroke="#9a32cd" points="353.158,-50.5001 343.158,-54 353.158,-57.5001 353.158,-50.5001"/>
<text text-anchor="middle" x="398.5" y="-57" font-family="Helvetica,sans-Serif" font-size="10.00" fill="#000000"> references</text>
</g>
<!-- Node3 -->
<g id="node3" class="node">
<title>Node3</title>
<g id="a_node3"><a xlink:href="struct__Jaegertracing____Protobuf____TraceID.html" target="_top" xlink:title="_Jaegertracing__Protobuf\l__TraceID">
<polygon fill="#ffffff" stroke="#000000" points="0,-65 0,-95 128,-95 128,-65 0,-65"/>
<text text-anchor="start" x="8" y="-83" font-family="Helvetica,sans-Serif" font-size="10.00" fill="#000000">_Jaegertracing__Protobuf</text>
<text text-anchor="middle" x="64" y="-72" font-family="Helvetica,sans-Serif" font-size="10.00" fill="#000000">__TraceID</text>
</a>
</g>
</g>
<!-- Node3&#45;&gt;Node1 -->
<g id="edge4" class="edge">
<title>Node3&#45;&gt;Node1</title>
<path fill="none" stroke="#9a32cd" stroke-dasharray="5,2" d="M138.2179,-83.7822C140.8438,-83.8645 143.4441,-83.9377 146,-84 269.2549,-87.0044 301.2293,-88.3051 423,-69 428.7175,-68.0936 434.6503,-67.1042 440.5914,-66.0799"/>
<polygon fill="#9a32cd" stroke="#9a32cd" points="138.1187,-80.2767 128.002,-83.4237 137.8731,-87.2724 138.1187,-80.2767"/>
<text text-anchor="middle" x="279" y="-88" font-family="Helvetica,sans-Serif" font-size="10.00" fill="#000000"> trace_id</text>
</g>
<!-- Node3&#45;&gt;Node2 -->
<g id="edge2" class="edge">
<title>Node3&#45;&gt;Node2</title>
<path fill="none" stroke="#9a32cd" stroke-dasharray="5,2" d="M138.3315,-71.0111C163.2053,-68.0031 190.7055,-64.6775 214.7438,-61.7705"/>
<polygon fill="#9a32cd" stroke="#9a32cd" points="137.7233,-67.559 128.2159,-72.2344 138.5638,-74.5084 137.7233,-67.559"/>
<text text-anchor="middle" x="165" y="-72" font-family="Helvetica,sans-Serif" font-size="10.00" fill="#000000"> trace_id</text>
</g>
<!-- Node4 -->
<g id="node4" class="node">
<title>Node4</title>
<g id="a_node4"><a xlink:href="struct__Jaegertracing____Protobuf____Log.html" target="_top" xlink:title="_Jaegertracing__Protobuf__Log">
<polygon fill="#ffffff" stroke="#000000" points="202,-.5 202,-19.5 356,-19.5 356,-.5 202,-.5"/>
<text text-anchor="middle" x="279" y="-7.5" font-family="Helvetica,sans-Serif" font-size="10.00" fill="#000000">_Jaegertracing__Protobuf__Log</text>
</a>
</g>
</g>
<!-- Node4&#45;&gt;Node1 -->
<g id="edge3" class="edge">
<title>Node4&#45;&gt;Node1</title>
<path fill="none" stroke="#9a32cd" stroke-dasharray="5,2" d="M337.9916,-21.4851C369.4931,-27.6181 408.3166,-35.1767 440.6013,-41.4622"/>
<polygon fill="#9a32cd" stroke="#9a32cd" points="338.5232,-18.0229 328.0386,-19.5473 337.1855,-24.8939 338.5232,-18.0229"/>
<text text-anchor="middle" x="398.5" y="-41" font-family="Helvetica,sans-Serif" font-size="10.00" fill="#000000"> logs</text>
</g>
</g>
</svg>
