<?xml version="1.0" encoding="UTF-8" standalone="no"?>
<!DOCTYPE svg PUBLIC "-//W3C//DTD SVG 1.1//EN"
 "http://www.w3.org/Graphics/SVG/1.1/DTD/svg11.dtd">
<!-- Generated by graphviz version 2.40.1 (20161225.0304)
 -->
<!-- Title: jaeger_composite_reporter Pages: 1 -->
<svg width="182pt" height="95pt"
 viewBox="0.00 0.00 182.00 95.00" xmlns="http://www.w3.org/2000/svg" xmlns:xlink="http://www.w3.org/1999/xlink">
<g id="graph0" class="graph" transform="scale(1 1) rotate(0) translate(4 91)">
<title>jaeger_composite_reporter</title>
<polygon fill="#ffffff" stroke="transparent" points="-4,4 -4,-91 178,-91 178,4 -4,4"/>
<!-- Node1 -->
<g id="node1" class="node">
<title>Node1</title>
<polygon fill="#bfbfbf" stroke="#000000" points="20,-.5 20,-19.5 151,-19.5 151,-.5 20,-.5"/>
<text text-anchor="middle" x="85.5" y="-7.5" font-family="Helvetica,sans-Serif" font-size="10.00" fill="#000000">jaeger_composite_reporter</text>
</g>
<!-- Node2 -->
<g id="node2" class="node">
<title>Node2</title>
<g id="a_node2"><a xlink:href="structjaeger__vector.html" target="_top" xlink:title="jaeger_vector">
<polygon fill="#ffffff" stroke="#000000" points="0,-67.5 0,-86.5 75,-86.5 75,-67.5 0,-67.5"/>
<text text-anchor="middle" x="37.5" y="-74.5" font-family="Helvetica,sans-Serif" font-size="10.00" fill="#000000">jaeger_vector</text>
</a>
</g>
</g>
<!-- Node2&#45;&gt;Node1 -->
<g id="edge1" class="edge">
<title>Node2&#45;&gt;Node1</title>
<path fill="none" stroke="#9a32cd" stroke-dasharray="5,2" d="M50.4096,-58.9803C59.4948,-46.2989 71.2981,-29.8235 78.6355,-19.5817"/>
<polygon fill="#9a32cd" stroke="#9a32cd" points="47.3559,-57.233 44.3772,-67.4005 53.0463,-61.3097 47.3559,-57.233"/>
<text text-anchor="middle" x="85.5" y="-41" font-family="Helvetica,sans-Serif" font-size="10.00" fill="#000000"> reporters</text>
</g>
<!-- Node3 -->
<g id="node3" class="node">
<title>Node3</title>
<g id="a_node3"><a xlink:href="structjaeger__reporter.html" target="_top" xlink:title="jaeger_reporter">
<polygon fill="#ffffff" stroke="#000000" points="93,-67.5 93,-86.5 174,-86.5 174,-67.5 93,-67.5"/>
<text text-anchor="middle" x="133.5" y="-74.5" font-family="Helvetica,sans-Serif" font-size="10.00" fill="#000000">jaeger_reporter</text>
</a>
</g>
</g>
<!-- Node3&#45;&gt;Node1 -->
<g id="edge2" class="edge">
<title>Node3&#45;&gt;Node1</title>
<path fill="none" stroke="#9a32cd" stroke-dasharray="5,2" d="M123.5405,-58.4292C119.7308,-51.8018 115.1726,-44.3972 110.5,-38 105.8106,-31.5798 99.913,-24.9197 95.0237,-19.7065"/>
<polygon fill="#9a32cd" stroke="#9a32cd" points="120.5953,-60.3348 128.5127,-67.3751 126.7138,-56.9341 120.5953,-60.3348"/>
<text text-anchor="middle" x="129" y="-41" font-family="Helvetica,sans-Serif" font-size="10.00" fill="#000000"> base</text>
</g>
</g>
</svg>
