<?xml version="1.0" encoding="UTF-8" standalone="no"?>
<!DOCTYPE svg PUBLIC "-//W3C//DTD SVG 1.1//EN"
 "http://www.w3.org/Graphics/SVG/1.1/DTD/svg11.dtd">
<!-- Generated by graphviz version 2.40.1 (20161225.0304)
 -->
<!-- Title: extract_text_map_arg Pages: 1 -->
<svg width="450pt" height="476pt"
 viewBox="0.00 0.00 450.00 476.00" xmlns="http://www.w3.org/2000/svg" xmlns:xlink="http://www.w3.org/1999/xlink">
<g id="graph0" class="graph" transform="scale(1 1) rotate(0) translate(4 472)">
<title>extract_text_map_arg</title>
<polygon fill="#ffffff" stroke="transparent" points="-4,4 -4,-472 446,-472 446,4 -4,4"/>
<!-- Node1 -->
<g id="node1" class="node">
<title>Node1</title>
<polygon fill="#bfbfbf" stroke="#000000" points="200.5,-.5 200.5,-19.5 311.5,-19.5 311.5,-.5 200.5,-.5"/>
<text text-anchor="middle" x="256" y="-7.5" font-family="Helvetica,sans-Serif" font-size="10.00" fill="#000000">extract_text_map_arg</text>
</g>
<!-- Node2 -->
<g id="node2" class="node">
<title>Node2</title>
<g id="a_node2"><a xlink:href="structjaeger__metrics.html" target="_top" xlink:title="jaeger_metrics">
<polygon fill="#ffffff" stroke="#000000" points="121,-201.5 121,-220.5 201,-220.5 201,-201.5 121,-201.5"/>
<text text-anchor="middle" x="161" y="-208.5" font-family="Helvetica,sans-Serif" font-size="10.00" fill="#000000">jaeger_metrics</text>
</a>
</g>
</g>
<!-- Node2&#45;&gt;Node1 -->
<g id="edge1" class="edge">
<title>Node2&#45;&gt;Node1</title>
<path fill="none" stroke="#9a32cd" stroke-dasharray="5,2" d="M161.6534,-191.0415C163.4069,-161.9054 169.8029,-106.8636 193,-67 204.7954,-46.73 226.2414,-29.6509 240.8,-19.6184"/>
<polygon fill="#9a32cd" stroke="#9a32cd" points="158.1504,-191.024 161.1721,-201.1788 165.1425,-191.356 158.1504,-191.024"/>
<text text-anchor="middle" x="195" y="-108" font-family="Helvetica,sans-Serif" font-size="10.00" fill="#000000"> metrics</text>
</g>
<!-- Node3 -->
<g id="node3" class="node">
<title>Node3</title>
<g id="a_node3"><a xlink:href="structjaeger__counter.html" target="_top" xlink:title="Counter metric interface. ">
<polygon fill="#ffffff" stroke="#000000" points="0,-390.5 0,-409.5 80,-409.5 80,-390.5 0,-390.5"/>
<text text-anchor="middle" x="40" y="-397.5" font-family="Helvetica,sans-Serif" font-size="10.00" fill="#000000">jaeger_counter</text>
</a>
</g>
</g>
<!-- Node3&#45;&gt;Node2 -->
<g id="edge2" class="edge">
<title>Node3&#45;&gt;Node2</title>
<path fill="none" stroke="#9a32cd" stroke-dasharray="5,2" d="M31.9177,-380.9389C19.3757,-348.0205 -.0835,-280.1028 33,-239 43.9114,-225.4438 87.5009,-218.0901 120.8106,-214.3671"/>
<polygon fill="#9a32cd" stroke="#9a32cd" points="28.7064,-382.3347 35.6713,-390.3185 35.2053,-379.7339 28.7064,-382.3347"/>
<text text-anchor="middle" x="95" y="-363" font-family="Helvetica,sans-Serif" font-size="10.00" fill="#000000"> traces_started_sampled</text>
<text text-anchor="start" x="33" y="-352" font-family="Helvetica,sans-Serif" font-size="10.00" fill="#000000">baggage_restrictions</text>
<text text-anchor="middle" x="95" y="-341" font-family="Helvetica,sans-Serif" font-size="10.00" fill="#000000">_update_success</text>
<text text-anchor="middle" x="95" y="-330" font-family="Helvetica,sans-Serif" font-size="10.00" fill="#000000">traces_started_not_sampled</text>
<text text-anchor="middle" x="95" y="-319" font-family="Helvetica,sans-Serif" font-size="10.00" fill="#000000">reporter_failure</text>
<text text-anchor="middle" x="95" y="-308" font-family="Helvetica,sans-Serif" font-size="10.00" fill="#000000">spans_finished</text>
<text text-anchor="middle" x="95" y="-297" font-family="Helvetica,sans-Serif" font-size="10.00" fill="#000000">sampler_query_failure</text>
<text text-anchor="middle" x="95" y="-286" font-family="Helvetica,sans-Serif" font-size="10.00" fill="#000000">reporter_dropped</text>
<text text-anchor="middle" x="95" y="-275" font-family="Helvetica,sans-Serif" font-size="10.00" fill="#000000">spans_started</text>
<text text-anchor="middle" x="95" y="-264" font-family="Helvetica,sans-Serif" font-size="10.00" fill="#000000">sampler_retrieved</text>
<text text-anchor="middle" x="95" y="-253" font-family="Helvetica,sans-Serif" font-size="10.00" fill="#000000">baggage_update_failure</text>
<text text-anchor="middle" x="95" y="-242" font-family="Helvetica,sans-Serif" font-size="10.00" fill="#000000">...</text>
</g>
<!-- Node4 -->
<g id="node4" class="node">
<title>Node4</title>
<polygon fill="#ffffff" stroke="#bfbfbf" points="112,-448.5 112,-467.5 210,-467.5 210,-448.5 112,-448.5"/>
<text text-anchor="middle" x="161" y="-455.5" font-family="Helvetica,sans-Serif" font-size="10.00" fill="#000000">jaeger_destructible</text>
</g>
<!-- Node4&#45;&gt;Node3 -->
<g id="edge3" class="edge">
<title>Node4&#45;&gt;Node3</title>
<path fill="none" stroke="#191970" d="M131.7233,-443.9665C109.506,-433.3169 79.5503,-418.958 60.0104,-409.5917"/>
<polygon fill="#191970" stroke="#191970" points="130.4889,-447.2561 141.0193,-448.4225 133.5146,-440.9438 130.4889,-447.2561"/>
</g>
<!-- Node5 -->
<g id="node5" class="node">
<title>Node5</title>
<g id="a_node5"><a xlink:href="structjaeger__gauge.html" target="_top" xlink:title="Gauge metric interface. ">
<polygon fill="#ffffff" stroke="#000000" points="124,-390.5 124,-409.5 198,-409.5 198,-390.5 124,-390.5"/>
<text text-anchor="middle" x="161" y="-397.5" font-family="Helvetica,sans-Serif" font-size="10.00" fill="#000000">jaeger_gauge</text>
</a>
</g>
</g>
<!-- Node4&#45;&gt;Node5 -->
<g id="edge5" class="edge">
<title>Node4&#45;&gt;Node5</title>
<path fill="none" stroke="#191970" d="M161,-438.153C161,-428.5796 161,-417.5235 161,-409.7856"/>
<polygon fill="#191970" stroke="#191970" points="157.5001,-438.4224 161,-448.4225 164.5001,-438.4225 157.5001,-438.4224"/>
</g>
<!-- Node11 -->
<g id="node11" class="node">
<title>Node11</title>
<g id="a_node11"><a xlink:href="structjaeger__list__node.html" target="_top" xlink:title="Base class for list elements. ">
<polygon fill="#ffffff" stroke="#000000" points="228.5,-390.5 228.5,-409.5 315.5,-409.5 315.5,-390.5 228.5,-390.5"/>
<text text-anchor="middle" x="272" y="-397.5" font-family="Helvetica,sans-Serif" font-size="10.00" fill="#000000">jaeger_list_node</text>
</a>
</g>
</g>
<!-- Node4&#45;&gt;Node11 -->
<g id="edge12" class="edge">
<title>Node4&#45;&gt;Node11</title>
<path fill="none" stroke="#191970" d="M188.4072,-443.6791C208.7304,-433.0598 235.8791,-418.874 253.6434,-409.5917"/>
<polygon fill="#191970" stroke="#191970" points="186.5715,-440.6893 179.3294,-448.4225 189.8133,-446.8934 186.5715,-440.6893"/>
</g>
<!-- Node5&#45;&gt;Node2 -->
<g id="edge4" class="edge">
<title>Node5&#45;&gt;Node2</title>
<path fill="none" stroke="#9a32cd" stroke-dasharray="5,2" d="M161,-380.2639C161,-340.2024 161,-250.6222 161,-220.8396"/>
<polygon fill="#9a32cd" stroke="#9a32cd" points="157.5001,-380.3676 161,-390.3676 164.5001,-380.3677 157.5001,-380.3676"/>
<text text-anchor="middle" x="211" y="-302.5" font-family="Helvetica,sans-Serif" font-size="10.00" fill="#000000"> reporter_queue_length</text>
</g>
<!-- Node6 -->
<g id="node6" class="node">
<title>Node6</title>
<g id="a_node6"><a xlink:href="structjaeger__headers__config.html" target="_top" xlink:title="HTTP headers to use for span context propagation. ">
<polygon fill="#ffffff" stroke="#000000" points="328,-67.5 328,-86.5 442,-86.5 442,-67.5 328,-67.5"/>
<text text-anchor="middle" x="385" y="-74.5" font-family="Helvetica,sans-Serif" font-size="10.00" fill="#000000">jaeger_headers_config</text>
</a>
</g>
</g>
<!-- Node6&#45;&gt;Node1 -->
<g id="edge6" class="edge">
<title>Node6&#45;&gt;Node1</title>
<path fill="none" stroke="#9a32cd" stroke-dasharray="5,2" d="M357.5245,-62.7298C332.481,-49.7227 296.1779,-30.8676 274.4483,-19.5817"/>
<polygon fill="#9a32cd" stroke="#9a32cd" points="356.0298,-65.8973 366.5174,-67.4005 359.2563,-59.6852 356.0298,-65.8973"/>
<text text-anchor="middle" x="343" y="-41" font-family="Helvetica,sans-Serif" font-size="10.00" fill="#000000"> config</text>
</g>
<!-- Node7 -->
<g id="node7" class="node">
<title>Node7</title>
<g id="a_node7"><a xlink:href="structjaeger__span__context.html" target="_top" xlink:title="Span context represents propagated span identity and state. ">
<polygon fill="#ffffff" stroke="#000000" points="202.5,-67.5 202.5,-86.5 309.5,-86.5 309.5,-67.5 202.5,-67.5"/>
<text text-anchor="middle" x="256" y="-74.5" font-family="Helvetica,sans-Serif" font-size="10.00" fill="#000000">jaeger_span_context</text>
</a>
</g>
</g>
<!-- Node7&#45;&gt;Node1 -->
<g id="edge7" class="edge">
<title>Node7&#45;&gt;Node1</title>
<path fill="none" stroke="#9a32cd" stroke-dasharray="5,2" d="M256,-57.1079C256,-44.714 256,-29.3263 256,-19.5817"/>
<polygon fill="#9a32cd" stroke="#9a32cd" points="252.5001,-57.4005 256,-67.4005 259.5001,-57.4006 252.5001,-57.4005"/>
<text text-anchor="middle" x="264.5" y="-41" font-family="Helvetica,sans-Serif" font-size="10.00" fill="#000000"> ctx</text>
</g>
<!-- Node8 -->
<g id="node8" class="node">
<title>Node8</title>
<g id="a_node8"><a xlink:href="structjaeger__trace__id.html" target="_top" xlink:title="128 bit unique ID for a given trace. ">
<polygon fill="#ffffff" stroke="#000000" points="319.5,-134.5 319.5,-153.5 402.5,-153.5 402.5,-134.5 319.5,-134.5"/>
<text text-anchor="middle" x="361" y="-141.5" font-family="Helvetica,sans-Serif" font-size="10.00" fill="#000000">jaeger_trace_id</text>
</a>
</g>
</g>
<!-- Node8&#45;&gt;Node7 -->
<g id="edge8" class="edge">
<title>Node8&#45;&gt;Node7</title>
<path fill="none" stroke="#9a32cd" stroke-dasharray="5,2" d="M337.4807,-128.9467C326.1545,-121.7016 312.3758,-112.894 300,-105 290.3815,-98.8648 279.5723,-91.986 271.0745,-86.5818"/>
<polygon fill="#9a32cd" stroke="#9a32cd" points="335.6548,-131.9335 345.9646,-134.3747 339.4274,-126.0371 335.6548,-131.9335"/>
<text text-anchor="middle" x="335" y="-108" font-family="Helvetica,sans-Serif" font-size="10.00" fill="#000000"> trace_id</text>
</g>
<!-- Node9 -->
<g id="node9" class="node">
<title>Node9</title>
<g id="a_node9"><a xlink:href="structjaeger__hashtable.html" target="_top" xlink:title="Hashtable data structure. ">
<polygon fill="#ffffff" stroke="#000000" points="211,-134.5 211,-153.5 301,-153.5 301,-134.5 211,-134.5"/>
<text text-anchor="middle" x="256" y="-141.5" font-family="Helvetica,sans-Serif" font-size="10.00" fill="#000000">jaeger_hashtable</text>
</a>
</g>
</g>
<!-- Node9&#45;&gt;Node7 -->
<g id="edge9" class="edge">
<title>Node9&#45;&gt;Node7</title>
<path fill="none" stroke="#9a32cd" stroke-dasharray="5,2" d="M256,-124.1079C256,-111.714 256,-96.3263 256,-86.5817"/>
<polygon fill="#9a32cd" stroke="#9a32cd" points="252.5001,-124.4005 256,-134.4005 259.5001,-124.4006 252.5001,-124.4005"/>
<text text-anchor="middle" x="276" y="-108" font-family="Helvetica,sans-Serif" font-size="10.00" fill="#000000"> baggage</text>
</g>
<!-- Node10 -->
<g id="node10" class="node">
<title>Node10</title>
<g id="a_node10"><a xlink:href="structjaeger__list.html" target="_top" xlink:title="Linked list implementation. ">
<polygon fill="#ffffff" stroke="#000000" points="236.5,-201.5 236.5,-220.5 297.5,-220.5 297.5,-201.5 236.5,-201.5"/>
<text text-anchor="middle" x="267" y="-208.5" font-family="Helvetica,sans-Serif" font-size="10.00" fill="#000000">jaeger_list</text>
</a>
</g>
</g>
<!-- Node10&#45;&gt;Node9 -->
<g id="edge10" class="edge">
<title>Node10&#45;&gt;Node9</title>
<path fill="none" stroke="#9a32cd" stroke-dasharray="5,2" d="M263.7963,-191.4863C261.751,-179.0286 259.1893,-163.4258 257.5731,-153.5817"/>
<polygon fill="#9a32cd" stroke="#9a32cd" points="260.35,-192.0997 265.424,-201.4005 267.2575,-190.9656 260.35,-192.0997"/>
<text text-anchor="middle" x="282" y="-175" font-family="Helvetica,sans-Serif" font-size="10.00" fill="#000000"> buckets</text>
</g>
<!-- Node11&#45;&gt;Node10 -->
<g id="edge11" class="edge">
<title>Node11&#45;&gt;Node10</title>
<path fill="none" stroke="#9a32cd" stroke-dasharray="5,2" d="M271.4779,-380.2639C270.4181,-340.2024 268.0482,-250.6222 267.2603,-220.8396"/>
<polygon fill="#9a32cd" stroke="#9a32cd" points="267.9818,-380.4637 271.7452,-390.3676 274.9794,-380.2785 267.9818,-380.4637"/>
<text text-anchor="middle" x="284.5" y="-302.5" font-family="Helvetica,sans-Serif" font-size="10.00" fill="#000000"> head</text>
</g>
<!-- Node11&#45;&gt;Node11 -->
<g id="edge13" class="edge">
<title>Node11&#45;&gt;Node11</title>
<path fill="none" stroke="#9a32cd" stroke-dasharray="5,2" d="M325.8202,-404.1251C330.543,-403.2549 333.5,-401.8799 333.5,-400 333.5,-396.9922 325.9301,-395.2768 315.6694,-394.8538"/>
<polygon fill="#9a32cd" stroke="#9a32cd" points="325.2688,-400.6628 315.6694,-405.1462 325.9695,-407.6277 325.2688,-400.6628"/>
<text text-anchor="middle" x="344.5" y="-403" font-family="Helvetica,sans-Serif" font-size="10.00" fill="#000000"> prev</text>
<text text-anchor="middle" x="344.5" y="-392" font-family="Helvetica,sans-Serif" font-size="10.00" fill="#000000">next</text>
</g>
</g>
</svg>
