<?xml version="1.0" encoding="UTF-8" standalone="no"?>
<!DOCTYPE svg PUBLIC "-//W3C//DTD SVG 1.1//EN"
 "http://www.w3.org/Graphics/SVG/1.1/DTD/svg11.dtd">
<!-- Generated by graphviz version 2.40.1 (20161225.0304)
 -->
<!-- Title: _Jaegertracing__Protobuf__SamplingManager__PerOperationSamplingStrategy Pages: 1 -->
<svg width="806pt" height="50pt"
 viewBox="0.00 0.00 806.00 50.00" xmlns="http://www.w3.org/2000/svg" xmlns:xlink="http://www.w3.org/1999/xlink">
<g id="graph0" class="graph" transform="scale(1 1) rotate(0) translate(4 46)">
<title>_Jaegertracing__Protobuf__SamplingManager__PerOperationSamplingStrategy</title>
<polygon fill="#ffffff" stroke="transparent" points="-4,4 -4,-46 802,-46 802,4 -4,4"/>
<!-- Node1 -->
<g id="node1" class="node">
<title>Node1</title>
<polygon fill="#bfbfbf" stroke="#000000" points="625,-.5 625,-41.5 798,-41.5 798,-.5 625,-.5"/>
<text text-anchor="start" x="633" y="-29.5" font-family="Helvetica,sans-Serif" font-size="10.00" fill="#000000">_Jaegertracing__Protobuf</text>
<text text-anchor="start" x="633" y="-18.5" font-family="Helvetica,sans-Serif" font-size="10.00" fill="#000000">__SamplingManager__PerOperation</text>
<text text-anchor="middle" x="711.5" y="-7.5" font-family="Helvetica,sans-Serif" font-size="10.00" fill="#000000">SamplingStrategy</text>
</g>
<!-- Node2 -->
<g id="node2" class="node">
<title>Node2</title>
<g id="a_node2"><a xlink:href="struct__Jaegertracing____Protobuf____SamplingManager____PerOperationSamplingStrategy____OperationSamplingStrategy.html" target="_top" xlink:title="_Jaegertracing__Protobuf\l__SamplingManager__PerOperation\lSamplingStrategy__OperationSamplingStrategy">
<polygon fill="#ffffff" stroke="#000000" points="262,-.5 262,-41.5 486,-41.5 486,-.5 262,-.5"/>
<text text-anchor="start" x="270" y="-29.5" font-family="Helvetica,sans-Serif" font-size="10.00" fill="#000000">_Jaegertracing__Protobuf</text>
<text text-anchor="start" x="270" y="-18.5" font-family="Helvetica,sans-Serif" font-size="10.00" fill="#000000">__SamplingManager__PerOperation</text>
<text text-anchor="middle" x="374" y="-7.5" font-family="Helvetica,sans-Serif" font-size="10.00" fill="#000000">SamplingStrategy__OperationSamplingStrategy</text>
</a>
</g>
</g>
<!-- Node2&#45;&gt;Node1 -->
<g id="edge1" class="edge">
<title>Node2&#45;&gt;Node1</title>
<path fill="none" stroke="#9a32cd" stroke-dasharray="5,2" d="M496.5318,-21C539.0975,-21 585.9143,-21 624.9603,-21"/>
<polygon fill="#9a32cd" stroke="#9a32cd" points="496.3826,-17.5001 486.3826,-21 496.3826,-24.5001 496.3826,-17.5001"/>
<text text-anchor="middle" x="555.5" y="-24" font-family="Helvetica,sans-Serif" font-size="10.00" fill="#000000"> per_operation_strategy</text>
</g>
<!-- Node3 -->
<g id="node3" class="node">
<title>Node3</title>
<g id="a_node3"><a xlink:href="struct__Jaegertracing____Protobuf____SamplingManager____RateLimitingSamplingStrategy.html" target="_top" xlink:title="_Jaegertracing__Protobuf\l__SamplingManager__RateLimiting\lSamplingStrategy">
<polygon fill="#ffffff" stroke="#000000" points="0,-.5 0,-41.5 170,-41.5 170,-.5 0,-.5"/>
<text text-anchor="start" x="8" y="-29.5" font-family="Helvetica,sans-Serif" font-size="10.00" fill="#000000">_Jaegertracing__Protobuf</text>
<text text-anchor="start" x="8" y="-18.5" font-family="Helvetica,sans-Serif" font-size="10.00" fill="#000000">__SamplingManager__RateLimiting</text>
<text text-anchor="middle" x="85" y="-7.5" font-family="Helvetica,sans-Serif" font-size="10.00" fill="#000000">SamplingStrategy</text>
</a>
</g>
</g>
<!-- Node3&#45;&gt;Node2 -->
<g id="edge2" class="edge">
<title>Node3&#45;&gt;Node2</title>
<path fill="none" stroke="#9a32cd" stroke-dasharray="5,2" d="M180.3904,-21C206.4588,-21 234.9475,-21 261.8579,-21"/>
<polygon fill="#9a32cd" stroke="#9a32cd" points="180.1465,-17.5001 170.1464,-21 180.1464,-24.5001 180.1465,-17.5001"/>
<text text-anchor="middle" x="216" y="-24" font-family="Helvetica,sans-Serif" font-size="10.00" fill="#000000"> rate_limiting</text>
</g>
</g>
</svg>
