<?xml version="1.0" encoding="UTF-8" standalone="no"?>
<!DOCTYPE svg PUBLIC "-//W3C//DTD SVG 1.1//EN"
 "http://www.w3.org/Graphics/SVG/1.1/DTD/svg11.dtd">
<!-- Generated by graphviz version 2.40.1 (20161225.0304)
 -->
<!-- Title: extract_text_map_arg Pages: 1 -->
<svg width="504pt" height="340pt"
 viewBox="0.00 0.00 503.50 340.00" xmlns="http://www.w3.org/2000/svg" xmlns:xlink="http://www.w3.org/1999/xlink">
<g id="graph0" class="graph" transform="scale(1 1) rotate(0) translate(4 336)">
<title>extract_text_map_arg</title>
<polygon fill="#ffffff" stroke="transparent" points="-4,4 -4,-336 499.5,-336 499.5,4 -4,4"/>
<!-- Node1 -->
<g id="node1" class="node">
<title>Node1</title>
<polygon fill="#bfbfbf" stroke="#000000" points="202.5,-.5 202.5,-19.5 313.5,-19.5 313.5,-.5 202.5,-.5"/>
<text text-anchor="middle" x="258" y="-7.5" font-family="Helvetica,sans-Serif" font-size="10.00" fill="#000000">extract_text_map_arg</text>
</g>
<!-- Node2 -->
<g id="node2" class="node">
<title>Node2</title>
<g id="a_node2"><a xlink:href="structjaeger__metrics.html" target="_top" xlink:title="jaeger_metrics">
<polygon fill="#ffffff" stroke="#000000" points="103,-67.5 103,-86.5 183,-86.5 183,-67.5 103,-67.5"/>
<text text-anchor="middle" x="143" y="-74.5" font-family="Helvetica,sans-Serif" font-size="10.00" fill="#000000">jaeger_metrics</text>
</a>
</g>
</g>
<!-- Node2&#45;&gt;Node1 -->
<g id="edge1" class="edge">
<title>Node2&#45;&gt;Node1</title>
<path fill="none" stroke="#9a32cd" stroke-dasharray="5,2" d="M168.3841,-62.211C190.6724,-49.2256 222.4385,-30.7184 241.5539,-19.5817"/>
<polygon fill="#9a32cd" stroke="#9a32cd" points="166.3553,-59.3423 159.4767,-67.4005 169.8792,-65.3906 166.3553,-59.3423"/>
<text text-anchor="middle" x="226" y="-41" font-family="Helvetica,sans-Serif" font-size="10.00" fill="#000000"> metrics</text>
</g>
<!-- Node3 -->
<g id="node3" class="node">
<title>Node3</title>
<g id="a_node3"><a xlink:href="structjaeger__counter.html" target="_top" xlink:title="Counter metric interface. ">
<polygon fill="#ffffff" stroke="#000000" points="0,-255.5 0,-274.5 80,-274.5 80,-255.5 0,-255.5"/>
<text text-anchor="middle" x="40" y="-262.5" font-family="Helvetica,sans-Serif" font-size="10.00" fill="#000000">jaeger_counter</text>
</a>
</g>
</g>
<!-- Node3&#45;&gt;Node2 -->
<g id="edge2" class="edge">
<title>Node3&#45;&gt;Node2</title>
<path fill="none" stroke="#9a32cd" stroke-dasharray="5,2" d="M27.8182,-246.7573C26.2439,-243.6184 24.8766,-240.3008 24,-237 8.9421,-180.2987 -12.4244,-150.9896 24,-105 33.7841,-92.6465 72.2595,-85.2033 102.8476,-81.1304"/>
<polygon fill="#9a32cd" stroke="#9a32cd" points="24.8204,-248.5645 32.879,-255.4427 30.8686,-245.0403 24.8204,-248.5645"/>
<text text-anchor="middle" x="86" y="-229" font-family="Helvetica,sans-Serif" font-size="10.00" fill="#000000"> traces_started_sampled</text>
<text text-anchor="start" x="24" y="-218" font-family="Helvetica,sans-Serif" font-size="10.00" fill="#000000">baggage_restrictions</text>
<text text-anchor="middle" x="86" y="-207" font-family="Helvetica,sans-Serif" font-size="10.00" fill="#000000">_update_success</text>
<text text-anchor="middle" x="86" y="-196" font-family="Helvetica,sans-Serif" font-size="10.00" fill="#000000">traces_started_not_sampled</text>
<text text-anchor="middle" x="86" y="-185" font-family="Helvetica,sans-Serif" font-size="10.00" fill="#000000">reporter_failure</text>
<text text-anchor="middle" x="86" y="-174" font-family="Helvetica,sans-Serif" font-size="10.00" fill="#000000">spans_finished</text>
<text text-anchor="middle" x="86" y="-163" font-family="Helvetica,sans-Serif" font-size="10.00" fill="#000000">sampler_query_failure</text>
<text text-anchor="middle" x="86" y="-152" font-family="Helvetica,sans-Serif" font-size="10.00" fill="#000000">reporter_dropped</text>
<text text-anchor="middle" x="86" y="-141" font-family="Helvetica,sans-Serif" font-size="10.00" fill="#000000">spans_started</text>
<text text-anchor="middle" x="86" y="-130" font-family="Helvetica,sans-Serif" font-size="10.00" fill="#000000">sampler_retrieved</text>
<text text-anchor="middle" x="86" y="-119" font-family="Helvetica,sans-Serif" font-size="10.00" fill="#000000">baggage_update_failure</text>
<text text-anchor="middle" x="86" y="-108" font-family="Helvetica,sans-Serif" font-size="10.00" fill="#000000">...</text>
</g>
<!-- Node4 -->
<g id="node4" class="node">
<title>Node4</title>
<polygon fill="#ffffff" stroke="#bfbfbf" points="38,-312.5 38,-331.5 136,-331.5 136,-312.5 38,-312.5"/>
<text text-anchor="middle" x="87" y="-319.5" font-family="Helvetica,sans-Serif" font-size="10.00" fill="#000000">jaeger_destructible</text>
</g>
<!-- Node4&#45;&gt;Node3 -->
<g id="edge3" class="edge">
<title>Node4&#45;&gt;Node3</title>
<path fill="none" stroke="#191970" d="M72.4466,-304.3501C64.3319,-294.5089 54.5442,-282.6387 47.8552,-274.5265"/>
<polygon fill="#191970" stroke="#191970" points="69.9648,-306.842 79.0271,-312.3307 75.3656,-302.3887 69.9648,-306.842"/>
</g>
<!-- Node5 -->
<g id="node5" class="node">
<title>Node5</title>
<g id="a_node5"><a xlink:href="structjaeger__gauge.html" target="_top" xlink:title="Gauge metric interface. ">
<polygon fill="#ffffff" stroke="#000000" points="124,-255.5 124,-274.5 198,-274.5 198,-255.5 124,-255.5"/>
<text text-anchor="middle" x="161" y="-262.5" font-family="Helvetica,sans-Serif" font-size="10.00" fill="#000000">jaeger_gauge</text>
</a>
</g>
</g>
<!-- Node4&#45;&gt;Node5 -->
<g id="edge5" class="edge">
<title>Node4&#45;&gt;Node5</title>
<path fill="none" stroke="#191970" d="M107.6216,-306.1158C120.8044,-295.9615 137.4624,-283.1303 148.6323,-274.5265"/>
<polygon fill="#191970" stroke="#191970" points="105.3396,-303.4556 99.5531,-312.3307 109.6112,-309.0012 105.3396,-303.4556"/>
</g>
<!-- Node5&#45;&gt;Node2 -->
<g id="edge4" class="edge">
<title>Node5&#45;&gt;Node2</title>
<path fill="none" stroke="#9a32cd" stroke-dasharray="5,2" d="M161.4974,-244.9893C161.8916,-214.5043 161.2329,-154.7236 152,-105 150.8441,-98.7749 148.6964,-92.011 146.7889,-86.6908"/>
<polygon fill="#9a32cd" stroke="#9a32cd" points="157.995,-245.0938 161.3105,-255.1565 164.9938,-245.2225 157.995,-245.0938"/>
<text text-anchor="middle" x="212" y="-168.5" font-family="Helvetica,sans-Serif" font-size="10.00" fill="#000000"> reporter_queue_length</text>
</g>
<!-- Node6 -->
<g id="node6" class="node">
<title>Node6</title>
<g id="a_node6"><a xlink:href="structjaeger__headers__config.html" target="_top" xlink:title="HTTP headers to use for span context propagation. ">
<polygon fill="#ffffff" stroke="#000000" points="201,-67.5 201,-86.5 315,-86.5 315,-67.5 201,-67.5"/>
<text text-anchor="middle" x="258" y="-74.5" font-family="Helvetica,sans-Serif" font-size="10.00" fill="#000000">jaeger_headers_config</text>
</a>
</g>
</g>
<!-- Node6&#45;&gt;Node1 -->
<g id="edge6" class="edge">
<title>Node6&#45;&gt;Node1</title>
<path fill="none" stroke="#9a32cd" stroke-dasharray="5,2" d="M258,-57.1079C258,-44.714 258,-29.3263 258,-19.5817"/>
<polygon fill="#9a32cd" stroke="#9a32cd" points="254.5001,-57.4005 258,-67.4005 261.5001,-57.4006 254.5001,-57.4005"/>
<text text-anchor="middle" x="273" y="-41" font-family="Helvetica,sans-Serif" font-size="10.00" fill="#000000"> config</text>
</g>
<!-- Node7 -->
<g id="node7" class="node">
<title>Node7</title>
<g id="a_node7"><a xlink:href="structjaeger__span__context.html" target="_top" xlink:title="Span context represents propagated span identity and state. ">
<polygon fill="#ffffff" stroke="#000000" points="333.5,-67.5 333.5,-86.5 440.5,-86.5 440.5,-67.5 333.5,-67.5"/>
<text text-anchor="middle" x="387" y="-74.5" font-family="Helvetica,sans-Serif" font-size="10.00" fill="#000000">jaeger_span_context</text>
</a>
</g>
</g>
<!-- Node7&#45;&gt;Node1 -->
<g id="edge7" class="edge">
<title>Node7&#45;&gt;Node1</title>
<path fill="none" stroke="#9a32cd" stroke-dasharray="5,2" d="M359.5245,-62.7298C334.481,-49.7227 298.1779,-30.8676 276.4483,-19.5817"/>
<polygon fill="#9a32cd" stroke="#9a32cd" points="358.0298,-65.8973 368.5174,-67.4005 361.2563,-59.6852 358.0298,-65.8973"/>
<text text-anchor="middle" x="339.5" y="-41" font-family="Helvetica,sans-Serif" font-size="10.00" fill="#000000"> ctx</text>
</g>
<!-- Node8 -->
<g id="node8" class="node">
<title>Node8</title>
<g id="a_node8"><a xlink:href="structjaeger__vector.html" target="_top" xlink:title="jaeger_vector">
<polygon fill="#ffffff" stroke="#000000" points="319.5,-255.5 319.5,-274.5 394.5,-274.5 394.5,-255.5 319.5,-255.5"/>
<text text-anchor="middle" x="357" y="-262.5" font-family="Helvetica,sans-Serif" font-size="10.00" fill="#000000">jaeger_vector</text>
</a>
</g>
</g>
<!-- Node8&#45;&gt;Node7 -->
<g id="edge8" class="edge">
<title>Node8&#45;&gt;Node7</title>
<path fill="none" stroke="#9a32cd" stroke-dasharray="5,2" d="M360.1327,-245.3683C366.4917,-205.5188 380.7108,-116.4125 385.4382,-86.7876"/>
<polygon fill="#9a32cd" stroke="#9a32cd" points="356.6486,-244.992 358.5289,-255.4186 363.5611,-246.0951 356.6486,-244.992"/>
<text text-anchor="middle" x="402" y="-168.5" font-family="Helvetica,sans-Serif" font-size="10.00" fill="#000000"> baggage</text>
</g>
<!-- Node9 -->
<g id="node9" class="node">
<title>Node9</title>
<g id="a_node9"><a xlink:href="structjaeger__trace__id.html" target="_top" xlink:title="128 bit unique ID for a given trace. ">
<polygon fill="#ffffff" stroke="#000000" points="412.5,-255.5 412.5,-274.5 495.5,-274.5 495.5,-255.5 412.5,-255.5"/>
<text text-anchor="middle" x="454" y="-262.5" font-family="Helvetica,sans-Serif" font-size="10.00" fill="#000000">jaeger_trace_id</text>
</a>
</g>
</g>
<!-- Node9&#45;&gt;Node7 -->
<g id="edge9" class="edge">
<title>Node9&#45;&gt;Node7</title>
<path fill="none" stroke="#9a32cd" stroke-dasharray="5,2" d="M455.1316,-245.2303C456.0168,-213.2371 453.7797,-149.2419 426,-105 421.2131,-97.3763 413.5239,-91.2017 406.2333,-86.6104"/>
<polygon fill="#9a32cd" stroke="#9a32cd" points="451.6242,-245.3367 454.7057,-255.4735 458.6182,-245.6276 451.6242,-245.3367"/>
<text text-anchor="middle" x="474" y="-168.5" font-family="Helvetica,sans-Serif" font-size="10.00" fill="#000000"> trace_id</text>
</g>
</g>
</svg>
