<?xml version="1.0" encoding="UTF-8" standalone="no"?>
<!DOCTYPE svg PUBLIC "-//W3C//DTD SVG 1.1//EN"
 "http://www.w3.org/Graphics/SVG/1.1/DTD/svg11.dtd">
<!-- Generated by graphviz version 2.40.1 (20161225.0304)
 -->
<!-- Title: jaeger_metrics Pages: 1 -->
<svg width="272pt" height="273pt"
 viewBox="0.00 0.00 271.64 273.00" xmlns="http://www.w3.org/2000/svg" xmlns:xlink="http://www.w3.org/1999/xlink">
<g id="graph0" class="graph" transform="scale(1 1) rotate(0) translate(4 269)">
<title>jaeger_metrics</title>
<polygon fill="#ffffff" stroke="transparent" points="-4,4 -4,-269 267.6441,-269 267.6441,4 -4,4"/>
<!-- Node1 -->
<g id="node1" class="node">
<title>Node1</title>
<polygon fill="#bfbfbf" stroke="#000000" points="52.6441,-.5 52.6441,-19.5 132.6441,-19.5 132.6441,-.5 52.6441,-.5"/>
<text text-anchor="middle" x="92.6441" y="-7.5" font-family="Helvetica,sans-Serif" font-size="10.00" fill="#000000">jaeger_metrics</text>
</g>
<!-- Node2 -->
<g id="node2" class="node">
<title>Node2</title>
<g id="a_node2"><a xlink:href="structjaeger__counter.html" target="_top" xlink:title="Counter metric interface. ">
<polygon fill="#ffffff" stroke="#000000" points="5.6441,-188.5 5.6441,-207.5 85.6441,-207.5 85.6441,-188.5 5.6441,-188.5"/>
<text text-anchor="middle" x="45.6441" y="-195.5" font-family="Helvetica,sans-Serif" font-size="10.00" fill="#000000">jaeger_counter</text>
</a>
</g>
</g>
<!-- Node2&#45;&gt;Node1 -->
<g id="edge1" class="edge">
<title>Node2&#45;&gt;Node1</title>
<path fill="none" stroke="#9a32cd" stroke-dasharray="5,2" d="M26.9897,-180.8624C24.3959,-177.5302 22.1175,-173.8626 20.6441,-170 -.2656,-115.1861 -12.4793,-86.4213 20.6441,-38 25.2254,-31.3028 41.561,-24.6813 57.516,-19.56"/>
<polygon fill="#9a32cd" stroke="#9a32cd" points="24.4958,-183.3224 33.8088,-188.3741 29.6788,-178.6173 24.4958,-183.3224"/>
<text text-anchor="middle" x="82.6441" y="-162" font-family="Helvetica,sans-Serif" font-size="10.00" fill="#000000"> traces_started_sampled</text>
<text text-anchor="start" x="20.6441" y="-151" font-family="Helvetica,sans-Serif" font-size="10.00" fill="#000000">baggage_restrictions</text>
<text text-anchor="middle" x="82.6441" y="-140" font-family="Helvetica,sans-Serif" font-size="10.00" fill="#000000">_update_success</text>
<text text-anchor="middle" x="82.6441" y="-129" font-family="Helvetica,sans-Serif" font-size="10.00" fill="#000000">traces_started_not_sampled</text>
<text text-anchor="middle" x="82.6441" y="-118" font-family="Helvetica,sans-Serif" font-size="10.00" fill="#000000">reporter_failure</text>
<text text-anchor="middle" x="82.6441" y="-107" font-family="Helvetica,sans-Serif" font-size="10.00" fill="#000000">spans_finished</text>
<text text-anchor="middle" x="82.6441" y="-96" font-family="Helvetica,sans-Serif" font-size="10.00" fill="#000000">sampler_query_failure</text>
<text text-anchor="middle" x="82.6441" y="-85" font-family="Helvetica,sans-Serif" font-size="10.00" fill="#000000">reporter_dropped</text>
<text text-anchor="middle" x="82.6441" y="-74" font-family="Helvetica,sans-Serif" font-size="10.00" fill="#000000">spans_started</text>
<text text-anchor="middle" x="82.6441" y="-63" font-family="Helvetica,sans-Serif" font-size="10.00" fill="#000000">sampler_retrieved</text>
<text text-anchor="middle" x="82.6441" y="-52" font-family="Helvetica,sans-Serif" font-size="10.00" fill="#000000">baggage_update_failure</text>
<text text-anchor="middle" x="82.6441" y="-41" font-family="Helvetica,sans-Serif" font-size="10.00" fill="#000000">...</text>
</g>
<!-- Node3 -->
<g id="node3" class="node">
<title>Node3</title>
<polygon fill="#ffffff" stroke="#bfbfbf" points="43.6441,-245.5 43.6441,-264.5 141.6441,-264.5 141.6441,-245.5 43.6441,-245.5"/>
<text text-anchor="middle" x="92.6441" y="-252.5" font-family="Helvetica,sans-Serif" font-size="10.00" fill="#000000">jaeger_destructible</text>
</g>
<!-- Node3&#45;&gt;Node2 -->
<g id="edge2" class="edge">
<title>Node3&#45;&gt;Node2</title>
<path fill="none" stroke="#191970" d="M78.0907,-237.3501C69.976,-227.5089 60.1882,-215.6387 53.4992,-207.5265"/>
<polygon fill="#191970" stroke="#191970" points="75.6089,-239.842 84.6712,-245.3307 81.0097,-235.3887 75.6089,-239.842"/>
</g>
<!-- Node4 -->
<g id="node4" class="node">
<title>Node4</title>
<g id="a_node4"><a xlink:href="structjaeger__gauge.html" target="_top" xlink:title="Gauge metric interface. ">
<polygon fill="#ffffff" stroke="#000000" points="116.6441,-188.5 116.6441,-207.5 190.6441,-207.5 190.6441,-188.5 116.6441,-188.5"/>
<text text-anchor="middle" x="153.6441" y="-195.5" font-family="Helvetica,sans-Serif" font-size="10.00" fill="#000000">jaeger_gauge</text>
</a>
</g>
</g>
<!-- Node3&#45;&gt;Node4 -->
<g id="edge4" class="edge">
<title>Node3&#45;&gt;Node4</title>
<path fill="none" stroke="#191970" d="M110.5812,-238.239C121.2908,-228.2317 134.5045,-215.8845 143.4491,-207.5265"/>
<polygon fill="#191970" stroke="#191970" points="107.9089,-235.9459 102.9919,-245.3307 112.6881,-241.0606 107.9089,-235.9459"/>
</g>
<!-- Node4&#45;&gt;Node1 -->
<g id="edge3" class="edge">
<title>Node4&#45;&gt;Node1</title>
<path fill="none" stroke="#9a32cd" stroke-dasharray="5,2" d="M158.2166,-178.4799C164.5784,-146.385 172.4268,-81.6785 144.6441,-38 139.4162,-29.7811 130.9075,-23.8062 122.2728,-19.5418"/>
<polygon fill="#9a32cd" stroke="#9a32cd" points="154.7674,-177.8722 156.0892,-188.3842 161.6113,-179.3423 154.7674,-177.8722"/>
<text text-anchor="middle" x="213.6441" y="-101.5" font-family="Helvetica,sans-Serif" font-size="10.00" fill="#000000"> reporter_queue_length</text>
</g>
</g>
</svg>
