<?xml version="1.0" encoding="UTF-8" standalone="no"?>
<!DOCTYPE svg PUBLIC "-//W3C//DTD SVG 1.1//EN"
 "http://www.w3.org/Graphics/SVG/1.1/DTD/svg11.dtd">
<!-- Generated by graphviz version 2.40.1 (20161225.0304)
 -->
<!-- Title: jaeger_http_sampling_manager Pages: 1 -->
<svg width="206pt" height="106pt"
 viewBox="0.00 0.00 205.50 106.00" xmlns="http://www.w3.org/2000/svg" xmlns:xlink="http://www.w3.org/1999/xlink">
<g id="graph0" class="graph" transform="scale(1 1) rotate(0) translate(4 102)">
<title>jaeger_http_sampling_manager</title>
<polygon fill="#ffffff" stroke="transparent" points="-4,4 -4,-102 201.5,-102 201.5,4 -4,4"/>
<!-- Node1 -->
<g id="node1" class="node">
<title>Node1</title>
<polygon fill="#bfbfbf" stroke="#000000" points="25,-.5 25,-30.5 134,-30.5 134,-.5 25,-.5"/>
<text text-anchor="start" x="33" y="-18.5" font-family="Helvetica,sans-Serif" font-size="10.00" fill="#000000">jaeger_http_sampling</text>
<text text-anchor="middle" x="79.5" y="-7.5" font-family="Helvetica,sans-Serif" font-size="10.00" fill="#000000">_manager</text>
</g>
<!-- Node2 -->
<g id="node2" class="node">
<title>Node2</title>
<g id="a_node2"><a xlink:href="structjaeger__vector.html" target="_top" xlink:title="jaeger_vector">
<polygon fill="#ffffff" stroke="#000000" points="0,-78.5 0,-97.5 75,-97.5 75,-78.5 0,-78.5"/>
<text text-anchor="middle" x="37.5" y="-85.5" font-family="Helvetica,sans-Serif" font-size="10.00" fill="#000000">jaeger_vector</text>
</a>
</g>
</g>
<!-- Node2&#45;&gt;Node1 -->
<g id="edge1" class="edge">
<title>Node2&#45;&gt;Node1</title>
<path fill="none" stroke="#9a32cd" stroke-dasharray="5,2" d="M46.7497,-68.9601C50.0039,-62.54 53.78,-55.386 57.5,-49 61.0723,-42.8675 65.2905,-36.3036 69.0728,-30.6256"/>
<polygon fill="#9a32cd" stroke="#9a32cd" points="43.4601,-67.7155 42.1487,-78.2289 49.7301,-70.828 43.4601,-67.7155"/>
<text text-anchor="middle" x="79" y="-52" font-family="Helvetica,sans-Serif" font-size="10.00" fill="#000000"> response</text>
</g>
<!-- Node3 -->
<g id="node3" class="node">
<title>Node3</title>
<g id="a_node3"><a xlink:href="structjaeger__url.html" target="_top" xlink:title="jaeger_url">
<polygon fill="#ffffff" stroke="#000000" points="93,-78.5 93,-97.5 152,-97.5 152,-78.5 93,-78.5"/>
<text text-anchor="middle" x="122.5" y="-85.5" font-family="Helvetica,sans-Serif" font-size="10.00" fill="#000000">jaeger_url</text>
</a>
</g>
</g>
<!-- Node3&#45;&gt;Node1 -->
<g id="edge2" class="edge">
<title>Node3&#45;&gt;Node1</title>
<path fill="none" stroke="#9a32cd" stroke-dasharray="5,2" d="M112.3146,-69.5352C108.6542,-63.0095 104.4529,-55.643 100.5,-49 96.9197,-42.9832 92.8586,-36.4428 89.2683,-30.7512"/>
<polygon fill="#9a32cd" stroke="#9a32cd" points="109.2777,-71.2757 117.1985,-78.3122 115.3946,-67.8721 109.2777,-71.2757"/>
<text text-anchor="middle" x="152" y="-52" font-family="Helvetica,sans-Serif" font-size="10.00" fill="#000000"> sampling_server_url</text>
</g>
</g>
</svg>
