<?xml version="1.0" encoding="UTF-8" standalone="no"?>
<!DOCTYPE svg PUBLIC "-//W3C//DTD SVG 1.1//EN"
 "http://www.w3.org/Graphics/SVG/1.1/DTD/svg11.dtd">
<!-- Generated by graphviz version 2.40.1 (20161225.0304)
 -->
<!-- Title: _Jaegertracing__Protobuf__Batch Pages: 1 -->
<svg width="779pt" height="115pt"
 viewBox="0.00 0.00 779.00 114.50" xmlns="http://www.w3.org/2000/svg" xmlns:xlink="http://www.w3.org/1999/xlink">
<g id="graph0" class="graph" transform="scale(1 1) rotate(0) translate(4 110.5)">
<title>_Jaegertracing__Protobuf__Batch</title>
<polygon fill="#ffffff" stroke="transparent" points="-4,4 -4,-110.5 775,-110.5 775,4 -4,4"/>
<!-- Node1 -->
<g id="node1" class="node">
<title>Node1</title>
<polygon fill="#bfbfbf" stroke="#000000" points="643,-17.5 643,-47.5 771,-47.5 771,-17.5 643,-17.5"/>
<text text-anchor="start" x="651" y="-35.5" font-family="Helvetica,sans-Serif" font-size="10.00" fill="#000000">_Jaegertracing__Protobuf</text>
<text text-anchor="middle" x="707" y="-24.5" font-family="Helvetica,sans-Serif" font-size="10.00" fill="#000000">__Batch</text>
</g>
<!-- Node2 -->
<g id="node2" class="node">
<title>Node2</title>
<g id="a_node2"><a xlink:href="struct__Jaegertracing____Protobuf____Span.html" target="_top" xlink:title="_Jaegertracing__Protobuf\l__Span">
<polygon fill="#ffffff" stroke="#000000" points="441,-49.5 441,-79.5 569,-79.5 569,-49.5 441,-49.5"/>
<text text-anchor="start" x="449" y="-67.5" font-family="Helvetica,sans-Serif" font-size="10.00" fill="#000000">_Jaegertracing__Protobuf</text>
<text text-anchor="middle" x="505" y="-56.5" font-family="Helvetica,sans-Serif" font-size="10.00" fill="#000000">__Span</text>
</a>
</g>
</g>
<!-- Node2&#45;&gt;Node1 -->
<g id="edge1" class="edge">
<title>Node2&#45;&gt;Node1</title>
<path fill="none" stroke="#9a32cd" stroke-dasharray="5,2" d="M579.3004,-52.7296C600.1964,-49.4194 622.7351,-45.8489 642.9754,-42.6425"/>
<polygon fill="#9a32cd" stroke="#9a32cd" points="578.5208,-49.3094 569.1916,-54.331 579.6161,-56.2232 578.5208,-49.3094"/>
<text text-anchor="middle" x="606" y="-53.5" font-family="Helvetica,sans-Serif" font-size="10.00" fill="#000000"> spans</text>
</g>
<!-- Node3 -->
<g id="node3" class="node">
<title>Node3</title>
<g id="a_node3"><a xlink:href="struct__Jaegertracing____Protobuf____SpanRef.html" target="_top" xlink:title="_Jaegertracing__Protobuf\l__SpanRef">
<polygon fill="#ffffff" stroke="#000000" points="215,-49.5 215,-79.5 343,-79.5 343,-49.5 215,-49.5"/>
<text text-anchor="start" x="223" y="-67.5" font-family="Helvetica,sans-Serif" font-size="10.00" fill="#000000">_Jaegertracing__Protobuf</text>
<text text-anchor="middle" x="279" y="-56.5" font-family="Helvetica,sans-Serif" font-size="10.00" fill="#000000">__SpanRef</text>
</a>
</g>
</g>
<!-- Node3&#45;&gt;Node2 -->
<g id="edge2" class="edge">
<title>Node3&#45;&gt;Node2</title>
<path fill="none" stroke="#9a32cd" stroke-dasharray="5,2" d="M353.374,-64.5C381.5935,-64.5 413.4664,-64.5 440.6816,-64.5"/>
<polygon fill="#9a32cd" stroke="#9a32cd" points="353.158,-61.0001 343.158,-64.5 353.158,-68.0001 353.158,-61.0001"/>
<text text-anchor="middle" x="398.5" y="-67.5" font-family="Helvetica,sans-Serif" font-size="10.00" fill="#000000"> references</text>
</g>
<!-- Node4 -->
<g id="node4" class="node">
<title>Node4</title>
<g id="a_node4"><a xlink:href="struct__Jaegertracing____Protobuf____TraceID.html" target="_top" xlink:title="_Jaegertracing__Protobuf\l__TraceID">
<polygon fill="#ffffff" stroke="#000000" points="0,-75.5 0,-105.5 128,-105.5 128,-75.5 0,-75.5"/>
<text text-anchor="start" x="8" y="-93.5" font-family="Helvetica,sans-Serif" font-size="10.00" fill="#000000">_Jaegertracing__Protobuf</text>
<text text-anchor="middle" x="64" y="-82.5" font-family="Helvetica,sans-Serif" font-size="10.00" fill="#000000">__TraceID</text>
</a>
</g>
</g>
<!-- Node4&#45;&gt;Node2 -->
<g id="edge5" class="edge">
<title>Node4&#45;&gt;Node2</title>
<path fill="none" stroke="#9a32cd" stroke-dasharray="5,2" d="M138.2179,-94.2822C140.8438,-94.3645 143.4441,-94.4377 146,-94.5 269.2549,-97.5044 301.3738,-99.6954 423,-79.5 428.7107,-78.5518 434.6388,-77.5336 440.5769,-76.4906"/>
<polygon fill="#9a32cd" stroke="#9a32cd" points="138.1187,-90.7767 128.002,-93.9237 137.8731,-97.7724 138.1187,-90.7767"/>
<text text-anchor="middle" x="279" y="-98.5" font-family="Helvetica,sans-Serif" font-size="10.00" fill="#000000"> trace_id</text>
</g>
<!-- Node4&#45;&gt;Node3 -->
<g id="edge3" class="edge">
<title>Node4&#45;&gt;Node3</title>
<path fill="none" stroke="#9a32cd" stroke-dasharray="5,2" d="M138.3315,-81.5111C163.2053,-78.5031 190.7055,-75.1775 214.7438,-72.2705"/>
<polygon fill="#9a32cd" stroke="#9a32cd" points="137.7233,-78.059 128.2159,-82.7344 138.5638,-85.0084 137.7233,-78.059"/>
<text text-anchor="middle" x="165" y="-82.5" font-family="Helvetica,sans-Serif" font-size="10.00" fill="#000000"> trace_id</text>
</g>
<!-- Node5 -->
<g id="node5" class="node">
<title>Node5</title>
<g id="a_node5"><a xlink:href="struct__Jaegertracing____Protobuf____Log.html" target="_top" xlink:title="_Jaegertracing__Protobuf__Log">
<polygon fill="#ffffff" stroke="#000000" points="202,-11 202,-30 356,-30 356,-11 202,-11"/>
<text text-anchor="middle" x="279" y="-18" font-family="Helvetica,sans-Serif" font-size="10.00" fill="#000000">_Jaegertracing__Protobuf__Log</text>
</a>
</g>
</g>
<!-- Node5&#45;&gt;Node2 -->
<g id="edge4" class="edge">
<title>Node5&#45;&gt;Node2</title>
<path fill="none" stroke="#9a32cd" stroke-dasharray="5,2" d="M337.9916,-31.9851C369.4931,-38.1181 408.3166,-45.6767 440.6013,-51.9622"/>
<polygon fill="#9a32cd" stroke="#9a32cd" points="338.5232,-28.5229 328.0386,-30.0473 337.1855,-35.3939 338.5232,-28.5229"/>
<text text-anchor="middle" x="398.5" y="-50.5" font-family="Helvetica,sans-Serif" font-size="10.00" fill="#000000"> logs</text>
</g>
<!-- Node6 -->
<g id="node6" class="node">
<title>Node6</title>
<g id="a_node6"><a xlink:href="struct__Jaegertracing____Protobuf____Process.html" target="_top" xlink:title="_Jaegertracing__Protobuf\l__Process">
<polygon fill="#ffffff" stroke="#000000" points="441,-.5 441,-30.5 569,-30.5 569,-.5 441,-.5"/>
<text text-anchor="start" x="449" y="-18.5" font-family="Helvetica,sans-Serif" font-size="10.00" fill="#000000">_Jaegertracing__Protobuf</text>
<text text-anchor="middle" x="505" y="-7.5" font-family="Helvetica,sans-Serif" font-size="10.00" fill="#000000">__Process</text>
</a>
</g>
</g>
<!-- Node6&#45;&gt;Node1 -->
<g id="edge6" class="edge">
<title>Node6&#45;&gt;Node1</title>
<path fill="none" stroke="#9a32cd" stroke-dasharray="5,2" d="M579.493,-19.9692C594.5655,-21.0133 610.2978,-22.2037 625,-23.5 630.7065,-24.0031 636.6317,-24.5688 642.5679,-25.1651"/>
<polygon fill="#9a32cd" stroke="#9a32cd" points="579.3983,-16.4548 569.1844,-19.2702 578.9247,-23.4388 579.3983,-16.4548"/>
<text text-anchor="middle" x="606" y="-26.5" font-family="Helvetica,sans-Serif" font-size="10.00" fill="#000000"> process</text>
</g>
</g>
</svg>
