<?xml version="1.0" encoding="UTF-8" standalone="no"?>
<!DOCTYPE svg PUBLIC "-//W3C//DTD SVG 1.1//EN"
 "http://www.w3.org/Graphics/SVG/1.1/DTD/svg11.dtd">
<!-- Generated by graphviz version 2.40.1 (20161225.0304)
 -->
<!-- Title: jaeger_default_counter Pages: 1 -->
<svg width="123pt" height="152pt"
 viewBox="0.00 0.00 123.00 152.00" xmlns="http://www.w3.org/2000/svg" xmlns:xlink="http://www.w3.org/1999/xlink">
<g id="graph0" class="graph" transform="scale(1 1) rotate(0) translate(4 148)">
<title>jaeger_default_counter</title>
<polygon fill="#ffffff" stroke="transparent" points="-4,4 -4,-148 119,-148 119,4 -4,4"/>
<!-- Node1 -->
<g id="node1" class="node">
<title>Node1</title>
<polygon fill="#bfbfbf" stroke="#000000" points="0,-.5 0,-19.5 115,-19.5 115,-.5 0,-.5"/>
<text text-anchor="middle" x="57.5" y="-7.5" font-family="Helvetica,sans-Serif" font-size="10.00" fill="#000000">jaeger_default_counter</text>
</g>
<!-- Node2 -->
<g id="node2" class="node">
<title>Node2</title>
<g id="a_node2"><a xlink:href="structjaeger__counter.html" target="_top" xlink:title="Counter metric interface. ">
<polygon fill="#ffffff" stroke="#000000" points="17.5,-67.5 17.5,-86.5 97.5,-86.5 97.5,-67.5 17.5,-67.5"/>
<text text-anchor="middle" x="57.5" y="-74.5" font-family="Helvetica,sans-Serif" font-size="10.00" fill="#000000">jaeger_counter</text>
</a>
</g>
</g>
<!-- Node2&#45;&gt;Node1 -->
<g id="edge1" class="edge">
<title>Node2&#45;&gt;Node1</title>
<path fill="none" stroke="#9a32cd" stroke-dasharray="5,2" d="M57.5,-57.1079C57.5,-44.714 57.5,-29.3263 57.5,-19.5817"/>
<polygon fill="#9a32cd" stroke="#9a32cd" points="54.0001,-57.4005 57.5,-67.4005 61.0001,-57.4006 54.0001,-57.4005"/>
<text text-anchor="middle" x="70" y="-41" font-family="Helvetica,sans-Serif" font-size="10.00" fill="#000000"> base</text>
</g>
<!-- Node3 -->
<g id="node3" class="node">
<title>Node3</title>
<polygon fill="#ffffff" stroke="#bfbfbf" points="8.5,-124.5 8.5,-143.5 106.5,-143.5 106.5,-124.5 8.5,-124.5"/>
<text text-anchor="middle" x="57.5" y="-131.5" font-family="Helvetica,sans-Serif" font-size="10.00" fill="#000000">jaeger_destructible</text>
</g>
<!-- Node3&#45;&gt;Node2 -->
<g id="edge2" class="edge">
<title>Node3&#45;&gt;Node2</title>
<path fill="none" stroke="#191970" d="M57.5,-114.2342C57.5,-104.8491 57.5,-94.0651 57.5,-86.5265"/>
<polygon fill="#191970" stroke="#191970" points="54.0001,-114.3307 57.5,-124.3307 61.0001,-114.3308 54.0001,-114.3307"/>
</g>
</g>
</svg>
