<?xml version="1.0" encoding="UTF-8" standalone="no"?>
<!DOCTYPE svg PUBLIC "-//W3C//DTD SVG 1.1//EN"
 "http://www.w3.org/Graphics/SVG/1.1/DTD/svg11.dtd">
<!-- Generated by graphviz version 2.40.1 (20161225.0304)
 -->
<!-- Title: jaeger_operation_sampler Pages: 1 -->
<svg width="299pt" height="251pt"
 viewBox="0.00 0.00 299.26 251.00" xmlns="http://www.w3.org/2000/svg" xmlns:xlink="http://www.w3.org/1999/xlink">
<g id="graph0" class="graph" transform="scale(1 1) rotate(0) translate(4 247)">
<title>jaeger_operation_sampler</title>
<polygon fill="#ffffff" stroke="transparent" points="-4,4 -4,-247 295.2622,-247 295.2622,4 -4,4"/>
<!-- Node1 -->
<g id="node1" class="node">
<title>Node1</title>
<polygon fill="#bfbfbf" stroke="#000000" points="24.2622,-.5 24.2622,-19.5 152.2622,-19.5 152.2622,-.5 24.2622,-.5"/>
<text text-anchor="middle" x="88.2622" y="-7.5" font-family="Helvetica,sans-Serif" font-size="10.00" fill="#000000">jaeger_operation_sampler</text>
</g>
<!-- Node2 -->
<g id="node2" class="node">
<title>Node2</title>
<g id="a_node2"><a xlink:href="structjaeger__guaranteed__throughput__probabilistic__sampler.html" target="_top" xlink:title="jaeger_guaranteed_throughput\l_probabilistic_sampler">
<polygon fill="#ffffff" stroke="#000000" points="14.7622,-67.5 14.7622,-97.5 161.7622,-97.5 161.7622,-67.5 14.7622,-67.5"/>
<text text-anchor="start" x="22.7622" y="-85.5" font-family="Helvetica,sans-Serif" font-size="10.00" fill="#000000">jaeger_guaranteed_throughput</text>
<text text-anchor="middle" x="88.2622" y="-74.5" font-family="Helvetica,sans-Serif" font-size="10.00" fill="#000000">_probabilistic_sampler</text>
</a>
</g>
</g>
<!-- Node2&#45;&gt;Node1 -->
<g id="edge1" class="edge">
<title>Node2&#45;&gt;Node1</title>
<path fill="none" stroke="#9a32cd" stroke-dasharray="5,2" d="M88.2622,-57.305C88.2622,-44.424 88.2622,-29.4836 88.2622,-19.8957"/>
<polygon fill="#9a32cd" stroke="#9a32cd" points="84.7623,-57.4779 88.2622,-67.478 91.7623,-57.478 84.7623,-57.4779"/>
<text text-anchor="middle" x="107.2622" y="-41" font-family="Helvetica,sans-Serif" font-size="10.00" fill="#000000"> sampler</text>
</g>
<!-- Node3 -->
<g id="node3" class="node">
<title>Node3</title>
<g id="a_node3"><a xlink:href="structjaeger__probabilistic__sampler.html" target="_top" xlink:title="jaeger_probabilistic\l_sampler">
<polygon fill="#ffffff" stroke="#000000" points="38.2622,-145.5 38.2622,-175.5 138.2622,-175.5 138.2622,-145.5 38.2622,-145.5"/>
<text text-anchor="start" x="46.2622" y="-163.5" font-family="Helvetica,sans-Serif" font-size="10.00" fill="#000000">jaeger_probabilistic</text>
<text text-anchor="middle" x="88.2622" y="-152.5" font-family="Helvetica,sans-Serif" font-size="10.00" fill="#000000">_sampler</text>
</a>
</g>
</g>
<!-- Node3&#45;&gt;Node2 -->
<g id="edge2" class="edge">
<title>Node3&#45;&gt;Node2</title>
<path fill="none" stroke="#9a32cd" stroke-dasharray="5,2" d="M88.2622,-135.2875C88.2622,-122.9187 88.2622,-108.4264 88.2622,-97.7592"/>
<polygon fill="#9a32cd" stroke="#9a32cd" points="84.7623,-135.4608 88.2622,-145.4608 91.7623,-135.4608 84.7623,-135.4608"/>
<text text-anchor="middle" x="135.7622" y="-119" font-family="Helvetica,sans-Serif" font-size="10.00" fill="#000000"> probabilistic_sampler</text>
</g>
<!-- Node4 -->
<g id="node4" class="node">
<title>Node4</title>
<g id="a_node4"><a xlink:href="structjaeger__sampler.html" target="_top" xlink:title="jaeger_sampler">
<polygon fill="#ffffff" stroke="#000000" points="46.7622,-223.5 46.7622,-242.5 129.7622,-242.5 129.7622,-223.5 46.7622,-223.5"/>
<text text-anchor="middle" x="88.2622" y="-230.5" font-family="Helvetica,sans-Serif" font-size="10.00" fill="#000000">jaeger_sampler</text>
</a>
</g>
</g>
<!-- Node4&#45;&gt;Node2 -->
<g id="edge4" class="edge">
<title>Node4&#45;&gt;Node2</title>
<path fill="none" stroke="#9a32cd" stroke-dasharray="5,2" d="M53.3353,-219.0184C35.1815,-209.7431 14.6626,-195.6262 4.2622,-176 -12.5458,-144.2821 26.9312,-114.7199 57.2984,-97.6395"/>
<polygon fill="#9a32cd" stroke="#9a32cd" points="52.0162,-222.2673 62.5469,-223.4311 55.0404,-215.9543 52.0162,-222.2673"/>
<text text-anchor="middle" x="16.7622" y="-158" font-family="Helvetica,sans-Serif" font-size="10.00" fill="#000000"> base</text>
</g>
<!-- Node4&#45;&gt;Node3 -->
<g id="edge3" class="edge">
<title>Node4&#45;&gt;Node3</title>
<path fill="none" stroke="#9a32cd" stroke-dasharray="5,2" d="M88.2622,-213.0177C88.2622,-201.2164 88.2622,-186.513 88.2622,-175.668"/>
<polygon fill="#9a32cd" stroke="#9a32cd" points="84.7623,-213.2223 88.2622,-223.2223 91.7623,-213.2224 84.7623,-213.2223"/>
<text text-anchor="middle" x="100.7622" y="-197" font-family="Helvetica,sans-Serif" font-size="10.00" fill="#000000"> base</text>
</g>
<!-- Node5 -->
<g id="node5" class="node">
<title>Node5</title>
<g id="a_node5"><a xlink:href="structjaeger__rate__limiting__sampler.html" target="_top" xlink:title="jaeger_rate_limiting\l_sampler">
<polygon fill="#ffffff" stroke="#000000" points="156.7622,-145.5 156.7622,-175.5 257.7622,-175.5 257.7622,-145.5 156.7622,-145.5"/>
<text text-anchor="start" x="164.7622" y="-163.5" font-family="Helvetica,sans-Serif" font-size="10.00" fill="#000000">jaeger_rate_limiting</text>
<text text-anchor="middle" x="207.2622" y="-152.5" font-family="Helvetica,sans-Serif" font-size="10.00" fill="#000000">_sampler</text>
</a>
</g>
</g>
<!-- Node4&#45;&gt;Node5 -->
<g id="edge7" class="edge">
<title>Node4&#45;&gt;Node5</title>
<path fill="none" stroke="#9a32cd" stroke-dasharray="5,2" d="M113.0047,-217.9258C133.3327,-205.5411 161.9958,-188.0783 182.3657,-175.668"/>
<polygon fill="#9a32cd" stroke="#9a32cd" points="111.03,-215.0304 104.3111,-223.2223 114.672,-221.0084 111.03,-215.0304"/>
<text text-anchor="middle" x="164.7622" y="-197" font-family="Helvetica,sans-Serif" font-size="10.00" fill="#000000"> base</text>
</g>
<!-- Node5&#45;&gt;Node2 -->
<g id="edge5" class="edge">
<title>Node5&#45;&gt;Node2</title>
<path fill="none" stroke="#9a32cd" stroke-dasharray="5,2" d="M198.6488,-135.9144C195.1268,-128.7021 190.4034,-121.3295 184.2622,-116 175.3298,-108.2482 164.4972,-102.2594 153.371,-97.6416"/>
<polygon fill="#9a32cd" stroke="#9a32cd" points="195.5746,-137.6271 202.7272,-145.4432 202.0099,-134.8727 195.5746,-137.6271"/>
<text text-anchor="middle" x="242.2622" y="-119" font-family="Helvetica,sans-Serif" font-size="10.00" fill="#000000"> lower_bound_sampler</text>
</g>
<!-- Node6 -->
<g id="node6" class="node">
<title>Node6</title>
<g id="a_node6"><a xlink:href="structjaeger__token__bucket.html" target="_top" xlink:title="jaeger_token_bucket">
<polygon fill="#ffffff" stroke="#000000" points="153.7622,-223.5 153.7622,-242.5 260.7622,-242.5 260.7622,-223.5 153.7622,-223.5"/>
<text text-anchor="middle" x="207.2622" y="-230.5" font-family="Helvetica,sans-Serif" font-size="10.00" fill="#000000">jaeger_token_bucket</text>
</a>
</g>
</g>
<!-- Node6&#45;&gt;Node5 -->
<g id="edge6" class="edge">
<title>Node6&#45;&gt;Node5</title>
<path fill="none" stroke="#9a32cd" stroke-dasharray="5,2" d="M207.2622,-213.0177C207.2622,-201.2164 207.2622,-186.513 207.2622,-175.668"/>
<polygon fill="#9a32cd" stroke="#9a32cd" points="203.7623,-213.2223 207.2622,-223.2223 210.7623,-213.2224 203.7623,-213.2223"/>
<text text-anchor="middle" x="215.7622" y="-197" font-family="Helvetica,sans-Serif" font-size="10.00" fill="#000000"> tok</text>
</g>
</g>
</svg>
