<?xml version="1.0" encoding="UTF-8" standalone="no"?>
<!DOCTYPE svg PUBLIC "-//W3C//DTD SVG 1.1//EN"
 "http://www.w3.org/Graphics/SVG/1.1/DTD/svg11.dtd">
<!-- Generated by graphviz version 2.40.1 (20161225.0304)
 -->
<!-- Title: jaeger_default_baggage_restriction_manager Pages: 1 -->
<svg width="141pt" height="184pt"
 viewBox="0.00 0.00 141.00 184.00" xmlns="http://www.w3.org/2000/svg" xmlns:xlink="http://www.w3.org/1999/xlink">
<g id="graph0" class="graph" transform="scale(1 1) rotate(0) translate(4 180)">
<title>jaeger_default_baggage_restriction_manager</title>
<polygon fill="#ffffff" stroke="transparent" points="-4,4 -4,-180 137,-180 137,4 -4,4"/>
<!-- Node2 -->
<g id="node1" class="node">
<title>Node2</title>
<polygon fill="#bfbfbf" stroke="#000000" points="7,-.5 7,-30.5 126,-30.5 126,-.5 7,-.5"/>
<text text-anchor="start" x="15" y="-18.5" font-family="Helvetica,sans-Serif" font-size="10.00" fill="#000000">jaeger_default_baggage</text>
<text text-anchor="middle" x="66.5" y="-7.5" font-family="Helvetica,sans-Serif" font-size="10.00" fill="#000000">_restriction_manager</text>
</g>
<!-- Node3 -->
<g id="node2" class="node">
<title>Node3</title>
<g id="a_node2"><a xlink:href="structjaeger__baggage__restriction__manager.html" target="_top" xlink:title="Interface for object that manages baggage restrictions. ">
<polygon fill="#ffffff" stroke="#000000" points="0,-78.5 0,-108.5 133,-108.5 133,-78.5 0,-78.5"/>
<text text-anchor="start" x="8" y="-96.5" font-family="Helvetica,sans-Serif" font-size="10.00" fill="#000000">jaeger_baggage_restriction</text>
<text text-anchor="middle" x="66.5" y="-85.5" font-family="Helvetica,sans-Serif" font-size="10.00" fill="#000000">_manager</text>
</a>
</g>
</g>
<!-- Node3&#45;&gt;Node2 -->
<g id="edge1" class="edge">
<title>Node3&#45;&gt;Node2</title>
<path fill="none" stroke="#191970" d="M64.8418,-68.4687C64.7013,-65.6137 64.5819,-62.7444 64.5,-60 64.2095,-50.2601 64.6895,-39.3279 65.2518,-30.7365"/>
<polygon fill="#191970" stroke="#191970" points="61.3501,-68.7151 65.4131,-78.4999 68.3388,-68.3171 61.3501,-68.7151"/>
</g>
<!-- Node3&#45;&gt;Node2 -->
<g id="edge3" class="edge">
<title>Node3&#45;&gt;Node2</title>
<path fill="none" stroke="#9a32cd" stroke-dasharray="5,2" d="M66.5,-68.2875C66.5,-55.9187 66.5,-41.4264 66.5,-30.7592"/>
<polygon fill="#9a32cd" stroke="#9a32cd" points="63.0001,-68.4608 66.5,-78.4608 70.0001,-68.4608 63.0001,-68.4608"/>
<text text-anchor="middle" x="79" y="-52" font-family="Helvetica,sans-Serif" font-size="10.00" fill="#000000"> base</text>
</g>
<!-- Node4 -->
<g id="node3" class="node">
<title>Node4</title>
<g id="a_node3"><a xlink:href="structjaeger__baggage__restriction.html" target="_top" xlink:title="Representation of baggage restriction for a given key and a given service. ">
<polygon fill="#ffffff" stroke="#000000" points="0,-156.5 0,-175.5 133,-175.5 133,-156.5 0,-156.5"/>
<text text-anchor="middle" x="66.5" y="-163.5" font-family="Helvetica,sans-Serif" font-size="10.00" fill="#000000">jaeger_baggage_restriction</text>
</a>
</g>
</g>
<!-- Node4&#45;&gt;Node3 -->
<g id="edge2" class="edge">
<title>Node4&#45;&gt;Node3</title>
<path fill="none" stroke="#9a32cd" stroke-dasharray="5,2" d="M66.5,-146.0177C66.5,-134.2164 66.5,-119.513 66.5,-108.668"/>
<polygon fill="#9a32cd" stroke="#9a32cd" points="63.0001,-146.2223 66.5,-156.2223 70.0001,-146.2224 63.0001,-146.2223"/>
<text text-anchor="middle" x="99" y="-130" font-family="Helvetica,sans-Serif" font-size="10.00" fill="#000000"> get_restriction</text>
</g>
</g>
</svg>
