<?xml version="1.0" encoding="UTF-8" standalone="no"?>
<!DOCTYPE svg PUBLIC "-//W3C//DTD SVG 1.1//EN"
 "http://www.w3.org/Graphics/SVG/1.1/DTD/svg11.dtd">
<!-- Generated by graphviz version 2.40.1 (20161225.0304)
 -->
<!-- Title: jaeger_span_ref Pages: 1 -->
<svg width="184pt" height="162pt"
 viewBox="0.00 0.00 184.00 162.00" xmlns="http://www.w3.org/2000/svg" xmlns:xlink="http://www.w3.org/1999/xlink">
<g id="graph0" class="graph" transform="scale(1 1) rotate(0) translate(4 158)">
<title>jaeger_span_ref</title>
<polygon fill="#ffffff" stroke="transparent" points="-4,4 -4,-158 180,-158 180,4 -4,4"/>
<!-- Node1 -->
<g id="node1" class="node">
<title>Node1</title>
<polygon fill="#bfbfbf" stroke="#000000" points="42.5,-.5 42.5,-19.5 128.5,-19.5 128.5,-.5 42.5,-.5"/>
<text text-anchor="middle" x="85.5" y="-7.5" font-family="Helvetica,sans-Serif" font-size="10.00" fill="#000000">jaeger_span_ref</text>
</g>
<!-- Node2 -->
<g id="node2" class="node">
<title>Node2</title>
<g id="a_node2"><a xlink:href="structjaeger__span__context.html" target="_top" xlink:title="Span context represents propagated span identity and state. ">
<polygon fill="#ffffff" stroke="#000000" points="32,-67.5 32,-86.5 139,-86.5 139,-67.5 32,-67.5"/>
<text text-anchor="middle" x="85.5" y="-74.5" font-family="Helvetica,sans-Serif" font-size="10.00" fill="#000000">jaeger_span_context</text>
</a>
</g>
</g>
<!-- Node2&#45;&gt;Node1 -->
<g id="edge1" class="edge">
<title>Node2&#45;&gt;Node1</title>
<path fill="none" stroke="#9a32cd" stroke-dasharray="5,2" d="M85.5,-57.1079C85.5,-44.714 85.5,-29.3263 85.5,-19.5817"/>
<polygon fill="#9a32cd" stroke="#9a32cd" points="82.0001,-57.4005 85.5,-67.4005 89.0001,-57.4006 82.0001,-57.4005"/>
<text text-anchor="middle" x="103.5" y="-41" font-family="Helvetica,sans-Serif" font-size="10.00" fill="#000000"> context</text>
</g>
<!-- Node3 -->
<g id="node3" class="node">
<title>Node3</title>
<g id="a_node3"><a xlink:href="structjaeger__vector.html" target="_top" xlink:title="jaeger_vector">
<polygon fill="#ffffff" stroke="#000000" points="0,-134.5 0,-153.5 75,-153.5 75,-134.5 0,-134.5"/>
<text text-anchor="middle" x="37.5" y="-141.5" font-family="Helvetica,sans-Serif" font-size="10.00" fill="#000000">jaeger_vector</text>
</a>
</g>
</g>
<!-- Node3&#45;&gt;Node2 -->
<g id="edge2" class="edge">
<title>Node3&#45;&gt;Node2</title>
<path fill="none" stroke="#9a32cd" stroke-dasharray="5,2" d="M50.4096,-125.9803C59.4948,-113.2989 71.2981,-96.8235 78.6355,-86.5817"/>
<polygon fill="#9a32cd" stroke="#9a32cd" points="47.3559,-124.233 44.3772,-134.4005 53.0463,-128.3097 47.3559,-124.233"/>
<text text-anchor="middle" x="84.5" y="-108" font-family="Helvetica,sans-Serif" font-size="10.00" fill="#000000"> baggage</text>
</g>
<!-- Node4 -->
<g id="node4" class="node">
<title>Node4</title>
<g id="a_node4"><a xlink:href="structjaeger__trace__id.html" target="_top" xlink:title="128 bit unique ID for a given trace. ">
<polygon fill="#ffffff" stroke="#000000" points="93,-134.5 93,-153.5 176,-153.5 176,-134.5 93,-134.5"/>
<text text-anchor="middle" x="134.5" y="-141.5" font-family="Helvetica,sans-Serif" font-size="10.00" fill="#000000">jaeger_trace_id</text>
</a>
</g>
</g>
<!-- Node4&#45;&gt;Node2 -->
<g id="edge3" class="edge">
<title>Node4&#45;&gt;Node2</title>
<path fill="none" stroke="#9a32cd" stroke-dasharray="5,2" d="M122.6273,-125.3757C118.3163,-118.8356 113.3183,-111.5008 108.5,-105 103.855,-98.7331 98.3136,-91.9679 93.834,-86.6575"/>
<polygon fill="#9a32cd" stroke="#9a32cd" points="119.9726,-127.7146 128.3512,-134.1993 125.8453,-123.905 119.9726,-127.7146"/>
<text text-anchor="middle" x="134.5" y="-108" font-family="Helvetica,sans-Serif" font-size="10.00" fill="#000000"> trace_id</text>
</g>
</g>
</svg>
