<?xml version="1.0" encoding="UTF-8" standalone="no"?>
<!DOCTYPE svg PUBLIC "-//W3C//DTD SVG 1.1//EN"
 "http://www.w3.org/Graphics/SVG/1.1/DTD/svg11.dtd">
<!-- Generated by graphviz version 2.40.1 (20161225.0304)
 -->
<!-- Title: jaeger_rate_limiting_sampler Pages: 1 -->
<svg width="216pt" height="106pt"
 viewBox="0.00 0.00 216.00 106.00" xmlns="http://www.w3.org/2000/svg" xmlns:xlink="http://www.w3.org/1999/xlink">
<g id="graph0" class="graph" transform="scale(1 1) rotate(0) translate(4 102)">
<title>jaeger_rate_limiting_sampler</title>
<polygon fill="#ffffff" stroke="transparent" points="-4,4 -4,-102 212,-102 212,4 -4,4"/>
<!-- Node1 -->
<g id="node1" class="node">
<title>Node1</title>
<polygon fill="#bfbfbf" stroke="#000000" points="59,-.5 59,-30.5 160,-30.5 160,-.5 59,-.5"/>
<text text-anchor="start" x="67" y="-18.5" font-family="Helvetica,sans-Serif" font-size="10.00" fill="#000000">jaeger_rate_limiting</text>
<text text-anchor="middle" x="109.5" y="-7.5" font-family="Helvetica,sans-Serif" font-size="10.00" fill="#000000">_sampler</text>
</g>
<!-- Node2 -->
<g id="node2" class="node">
<title>Node2</title>
<g id="a_node2"><a xlink:href="structjaeger__token__bucket.html" target="_top" xlink:title="jaeger_token_bucket">
<polygon fill="#ffffff" stroke="#000000" points="0,-78.5 0,-97.5 107,-97.5 107,-78.5 0,-78.5"/>
<text text-anchor="middle" x="53.5" y="-85.5" font-family="Helvetica,sans-Serif" font-size="10.00" fill="#000000">jaeger_token_bucket</text>
</a>
</g>
</g>
<!-- Node2&#45;&gt;Node1 -->
<g id="edge1" class="edge">
<title>Node2&#45;&gt;Node1</title>
<path fill="none" stroke="#9a32cd" stroke-dasharray="5,2" d="M67.2701,-70.1727C76.6337,-58.0502 88.889,-42.1838 97.784,-30.668"/>
<polygon fill="#9a32cd" stroke="#9a32cd" points="64.3954,-68.1687 61.0524,-78.2223 69.9353,-72.4478 64.3954,-68.1687"/>
<text text-anchor="middle" x="92" y="-52" font-family="Helvetica,sans-Serif" font-size="10.00" fill="#000000"> tok</text>
</g>
<!-- Node3 -->
<g id="node3" class="node">
<title>Node3</title>
<g id="a_node3"><a xlink:href="structjaeger__sampler.html" target="_top" xlink:title="jaeger_sampler">
<polygon fill="#ffffff" stroke="#000000" points="125,-78.5 125,-97.5 208,-97.5 208,-78.5 125,-78.5"/>
<text text-anchor="middle" x="166.5" y="-85.5" font-family="Helvetica,sans-Serif" font-size="10.00" fill="#000000">jaeger_sampler</text>
</a>
</g>
</g>
<!-- Node3&#45;&gt;Node1 -->
<g id="edge2" class="edge">
<title>Node3&#45;&gt;Node1</title>
<path fill="none" stroke="#9a32cd" stroke-dasharray="5,2" d="M152.484,-70.1727C142.9532,-58.0502 130.479,-42.1838 121.4252,-30.668"/>
<polygon fill="#9a32cd" stroke="#9a32cd" points="149.8806,-72.5242 158.8127,-78.2223 155.3835,-68.1978 149.8806,-72.5242"/>
<text text-anchor="middle" x="155" y="-52" font-family="Helvetica,sans-Serif" font-size="10.00" fill="#000000"> base</text>
</g>
</g>
</svg>
