<?xml version="1.0" encoding="UTF-8" standalone="no"?>
<!DOCTYPE svg PUBLIC "-//W3C//DTD SVG 1.1//EN"
 "http://www.w3.org/Graphics/SVG/1.1/DTD/svg11.dtd">
<!-- Generated by graphviz version 2.40.1 (20161225.0304)
 -->
<!-- Title: jaeger_span_context Pages: 1 -->
<svg width="238pt" height="288pt"
 viewBox="0.00 0.00 238.00 288.00" xmlns="http://www.w3.org/2000/svg" xmlns:xlink="http://www.w3.org/1999/xlink">
<g id="graph0" class="graph" transform="scale(1 1) rotate(0) translate(4 284)">
<title>jaeger_span_context</title>
<polygon fill="#ffffff" stroke="transparent" points="-4,4 -4,-284 234,-284 234,4 -4,4"/>
<!-- Node1 -->
<g id="node1" class="node">
<title>Node1</title>
<polygon fill="#bfbfbf" stroke="#000000" points="18,-.5 18,-19.5 125,-19.5 125,-.5 18,-.5"/>
<text text-anchor="middle" x="71.5" y="-7.5" font-family="Helvetica,sans-Serif" font-size="10.00" fill="#000000">jaeger_span_context</text>
</g>
<!-- Node2 -->
<g id="node2" class="node">
<title>Node2</title>
<g id="a_node2"><a xlink:href="structjaeger__trace__id.html" target="_top" xlink:title="128 bit unique ID for a given trace. ">
<polygon fill="#ffffff" stroke="#000000" points="0,-67.5 0,-86.5 83,-86.5 83,-67.5 0,-67.5"/>
<text text-anchor="middle" x="41.5" y="-74.5" font-family="Helvetica,sans-Serif" font-size="10.00" fill="#000000">jaeger_trace_id</text>
</a>
</g>
</g>
<!-- Node2&#45;&gt;Node1 -->
<g id="edge1" class="edge">
<title>Node2&#45;&gt;Node1</title>
<path fill="none" stroke="#9a32cd" stroke-dasharray="5,2" d="M49.9012,-58.2374C55.5322,-45.6614 62.7129,-29.6246 67.2097,-19.5817"/>
<polygon fill="#9a32cd" stroke="#9a32cd" points="46.6906,-56.8433 45.7983,-67.4005 53.0794,-59.704 46.6906,-56.8433"/>
<text text-anchor="middle" x="77.5" y="-41" font-family="Helvetica,sans-Serif" font-size="10.00" fill="#000000"> trace_id</text>
</g>
<!-- Node3 -->
<g id="node3" class="node">
<title>Node3</title>
<g id="a_node3"><a xlink:href="structjaeger__hashtable.html" target="_top" xlink:title="Hashtable data structure. ">
<polygon fill="#ffffff" stroke="#000000" points="101.5,-67.5 101.5,-86.5 191.5,-86.5 191.5,-67.5 101.5,-67.5"/>
<text text-anchor="middle" x="146.5" y="-74.5" font-family="Helvetica,sans-Serif" font-size="10.00" fill="#000000">jaeger_hashtable</text>
</a>
</g>
</g>
<!-- Node3&#45;&gt;Node1 -->
<g id="edge2" class="edge">
<title>Node3&#45;&gt;Node1</title>
<path fill="none" stroke="#9a32cd" stroke-dasharray="5,2" d="M127.9627,-60.44C113.576,-47.5879 94.1357,-30.2212 82.2257,-19.5817"/>
<polygon fill="#9a32cd" stroke="#9a32cd" points="125.9649,-63.3485 135.7543,-67.4005 130.6285,-58.1282 125.9649,-63.3485"/>
<text text-anchor="middle" x="132.5" y="-41" font-family="Helvetica,sans-Serif" font-size="10.00" fill="#000000"> baggage</text>
</g>
<!-- Node4 -->
<g id="node4" class="node">
<title>Node4</title>
<g id="a_node4"><a xlink:href="structjaeger__list.html" target="_top" xlink:title="Linked list implementation. ">
<polygon fill="#ffffff" stroke="#000000" points="116,-134.5 116,-153.5 177,-153.5 177,-134.5 116,-134.5"/>
<text text-anchor="middle" x="146.5" y="-141.5" font-family="Helvetica,sans-Serif" font-size="10.00" fill="#000000">jaeger_list</text>
</a>
</g>
</g>
<!-- Node4&#45;&gt;Node3 -->
<g id="edge3" class="edge">
<title>Node4&#45;&gt;Node3</title>
<path fill="none" stroke="#9a32cd" stroke-dasharray="5,2" d="M146.5,-124.1079C146.5,-111.714 146.5,-96.3263 146.5,-86.5817"/>
<polygon fill="#9a32cd" stroke="#9a32cd" points="143.0001,-124.4005 146.5,-134.4005 150.0001,-124.4006 143.0001,-124.4005"/>
<text text-anchor="middle" x="165.5" y="-108" font-family="Helvetica,sans-Serif" font-size="10.00" fill="#000000"> buckets</text>
</g>
<!-- Node5 -->
<g id="node5" class="node">
<title>Node5</title>
<g id="a_node5"><a xlink:href="structjaeger__list__node.html" target="_top" xlink:title="Base class for list elements. ">
<polygon fill="#ffffff" stroke="#000000" points="103,-202.5 103,-221.5 190,-221.5 190,-202.5 103,-202.5"/>
<text text-anchor="middle" x="146.5" y="-209.5" font-family="Helvetica,sans-Serif" font-size="10.00" fill="#000000">jaeger_list_node</text>
</a>
</g>
</g>
<!-- Node5&#45;&gt;Node4 -->
<g id="edge4" class="edge">
<title>Node5&#45;&gt;Node4</title>
<path fill="none" stroke="#9a32cd" stroke-dasharray="5,2" d="M146.5,-192.1951C146.5,-179.5514 146.5,-163.7157 146.5,-153.7247"/>
<polygon fill="#9a32cd" stroke="#9a32cd" points="143.0001,-192.2572 146.5,-202.2573 150.0001,-192.2573 143.0001,-192.2572"/>
<text text-anchor="middle" x="159" y="-175" font-family="Helvetica,sans-Serif" font-size="10.00" fill="#000000"> head</text>
</g>
<!-- Node5&#45;&gt;Node5 -->
<g id="edge6" class="edge">
<title>Node5&#45;&gt;Node5</title>
<path fill="none" stroke="#9a32cd" stroke-dasharray="5,2" d="M200.3202,-216.1251C205.043,-215.2549 208,-213.8799 208,-212 208,-208.9922 200.4301,-207.2768 190.1694,-206.8538"/>
<polygon fill="#9a32cd" stroke="#9a32cd" points="199.7688,-212.6628 190.1694,-217.1462 200.4695,-219.6277 199.7688,-212.6628"/>
<text text-anchor="middle" x="219" y="-215" font-family="Helvetica,sans-Serif" font-size="10.00" fill="#000000"> prev</text>
<text text-anchor="middle" x="219" y="-204" font-family="Helvetica,sans-Serif" font-size="10.00" fill="#000000">next</text>
</g>
<!-- Node6 -->
<g id="node6" class="node">
<title>Node6</title>
<polygon fill="#ffffff" stroke="#bfbfbf" points="97.5,-260.5 97.5,-279.5 195.5,-279.5 195.5,-260.5 97.5,-260.5"/>
<text text-anchor="middle" x="146.5" y="-267.5" font-family="Helvetica,sans-Serif" font-size="10.00" fill="#000000">jaeger_destructible</text>
</g>
<!-- Node6&#45;&gt;Node5 -->
<g id="edge5" class="edge">
<title>Node6&#45;&gt;Node5</title>
<path fill="none" stroke="#191970" d="M146.5,-250.153C146.5,-240.5796 146.5,-229.5235 146.5,-221.7856"/>
<polygon fill="#191970" stroke="#191970" points="143.0001,-250.4224 146.5,-260.4225 150.0001,-250.4225 143.0001,-250.4224"/>
</g>
</g>
</svg>
