<?xml version="1.0" encoding="UTF-8" standalone="no"?>
<!DOCTYPE svg PUBLIC "-//W3C//DTD SVG 1.1//EN"
 "http://www.w3.org/Graphics/SVG/1.1/DTD/svg11.dtd">
<!-- Generated by graphviz version 2.40.1 (20161225.0304)
 -->
<!-- Title: mock_http_server_context Pages: 1 -->
<svg width="140pt" height="162pt"
 viewBox="0.00 0.00 140.00 162.00" xmlns="http://www.w3.org/2000/svg" xmlns:xlink="http://www.w3.org/1999/xlink">
<g id="graph0" class="graph" transform="scale(1 1) rotate(0) translate(4 158)">
<title>mock_http_server_context</title>
<polygon fill="#ffffff" stroke="transparent" points="-4,4 -4,-158 136,-158 136,4 -4,4"/>
<!-- Node1 -->
<g id="node1" class="node">
<title>Node1</title>
<polygon fill="#bfbfbf" stroke="#000000" points="0,-.5 0,-19.5 132,-19.5 132,-.5 0,-.5"/>
<text text-anchor="middle" x="66" y="-7.5" font-family="Helvetica,sans-Serif" font-size="10.00" fill="#000000">mock_http_server_context</text>
</g>
<!-- Node2 -->
<g id="node2" class="node">
<title>Node2</title>
<g id="a_node2"><a xlink:href="structmock__http__server.html" target="_top" xlink:title="mock_http_server">
<polygon fill="#ffffff" stroke="#000000" points="18.5,-67.5 18.5,-86.5 113.5,-86.5 113.5,-67.5 18.5,-67.5"/>
<text text-anchor="middle" x="66" y="-74.5" font-family="Helvetica,sans-Serif" font-size="10.00" fill="#000000">mock_http_server</text>
</a>
</g>
</g>
<!-- Node2&#45;&gt;Node1 -->
<g id="edge1" class="edge">
<title>Node2&#45;&gt;Node1</title>
<path fill="none" stroke="#9a32cd" stroke-dasharray="5,2" d="M66,-57.1079C66,-44.714 66,-29.3263 66,-19.5817"/>
<polygon fill="#9a32cd" stroke="#9a32cd" points="62.5001,-57.4005 66,-67.4005 69.5001,-57.4006 62.5001,-57.4005"/>
<text text-anchor="middle" x="81.5" y="-41" font-family="Helvetica,sans-Serif" font-size="10.00" fill="#000000"> server</text>
</g>
<!-- Node3 -->
<g id="node3" class="node">
<title>Node3</title>
<g id="a_node3"><a xlink:href="structjaeger__vector.html" target="_top" xlink:title="jaeger_vector">
<polygon fill="#ffffff" stroke="#000000" points="28.5,-134.5 28.5,-153.5 103.5,-153.5 103.5,-134.5 28.5,-134.5"/>
<text text-anchor="middle" x="66" y="-141.5" font-family="Helvetica,sans-Serif" font-size="10.00" fill="#000000">jaeger_vector</text>
</a>
</g>
</g>
<!-- Node3&#45;&gt;Node2 -->
<g id="edge2" class="edge">
<title>Node3&#45;&gt;Node2</title>
<path fill="none" stroke="#9a32cd" stroke-dasharray="5,2" d="M66,-124.1079C66,-111.714 66,-96.3263 66,-86.5817"/>
<polygon fill="#9a32cd" stroke="#9a32cd" points="62.5001,-124.4005 66,-134.4005 69.5001,-124.4006 62.5001,-124.4005"/>
<text text-anchor="middle" x="90.5" y="-108" font-family="Helvetica,sans-Serif" font-size="10.00" fill="#000000"> responses</text>
</g>
</g>
</svg>
