<?xml version="1.0" encoding="UTF-8" standalone="no"?>
<!DOCTYPE svg PUBLIC "-//W3C//DTD SVG 1.1//EN"
 "http://www.w3.org/Graphics/SVG/1.1/DTD/svg11.dtd">
<!-- Generated by graphviz version 2.40.1 (20161225.0304)
 -->
<!-- Title: jaeger_key_value_node Pages: 1 -->
<svg width="246pt" height="154pt"
 viewBox="0.00 0.00 245.50 154.00" xmlns="http://www.w3.org/2000/svg" xmlns:xlink="http://www.w3.org/1999/xlink">
<g id="graph0" class="graph" transform="scale(1 1) rotate(0) translate(4 150)">
<title>jaeger_key_value_node</title>
<polygon fill="#ffffff" stroke="transparent" points="-4,4 -4,-150 241.5,-150 241.5,4 -4,4"/>
<!-- Node1 -->
<g id="node1" class="node">
<title>Node1</title>
<polygon fill="#bfbfbf" stroke="#000000" points="8.5,-.5 8.5,-19.5 127.5,-19.5 127.5,-.5 8.5,-.5"/>
<text text-anchor="middle" x="68" y="-7.5" font-family="Helvetica,sans-Serif" font-size="10.00" fill="#000000">jaeger_key_value_node</text>
</g>
<!-- Node2 -->
<g id="node2" class="node">
<title>Node2</title>
<g id="a_node2"><a xlink:href="structjaeger__key__value.html" target="_top" xlink:title="jaeger_key_value">
<polygon fill="#ffffff" stroke="#000000" points="0,-68.5 0,-87.5 92,-87.5 92,-68.5 0,-68.5"/>
<text text-anchor="middle" x="46" y="-75.5" font-family="Helvetica,sans-Serif" font-size="10.00" fill="#000000">jaeger_key_value</text>
</a>
</g>
</g>
<!-- Node2&#45;&gt;Node1 -->
<g id="edge1" class="edge">
<title>Node2&#45;&gt;Node1</title>
<path fill="none" stroke="#9a32cd" stroke-dasharray="5,2" d="M52.2838,-58.5772C56.3944,-45.8719 61.5887,-29.8166 64.8538,-19.7247"/>
<polygon fill="#9a32cd" stroke="#9a32cd" points="48.9003,-57.6654 49.1521,-68.2573 55.5604,-59.8202 48.9003,-57.6654"/>
<text text-anchor="middle" x="70" y="-41" font-family="Helvetica,sans-Serif" font-size="10.00" fill="#000000"> data</text>
</g>
<!-- Node3 -->
<g id="node3" class="node">
<title>Node3</title>
<g id="a_node3"><a xlink:href="structjaeger__list__node.html" target="_top" xlink:title="Base class for list elements. ">
<polygon fill="#ffffff" stroke="#000000" points="110.5,-68.5 110.5,-87.5 197.5,-87.5 197.5,-68.5 110.5,-68.5"/>
<text text-anchor="middle" x="154" y="-75.5" font-family="Helvetica,sans-Serif" font-size="10.00" fill="#000000">jaeger_list_node</text>
</a>
</g>
</g>
<!-- Node3&#45;&gt;Node1 -->
<g id="edge2" class="edge">
<title>Node3&#45;&gt;Node1</title>
<path fill="none" stroke="#9a32cd" stroke-dasharray="5,2" d="M133.6135,-61.8805C116.9275,-48.6869 93.8917,-30.4725 80.0216,-19.5054"/>
<polygon fill="#9a32cd" stroke="#9a32cd" points="131.6633,-64.8003 141.6783,-68.2573 136.005,-59.3094 131.6633,-64.8003"/>
<text text-anchor="middle" x="128.5" y="-41" font-family="Helvetica,sans-Serif" font-size="10.00" fill="#000000"> base</text>
</g>
<!-- Node3&#45;&gt;Node3 -->
<g id="edge4" class="edge">
<title>Node3&#45;&gt;Node3</title>
<path fill="none" stroke="#9a32cd" stroke-dasharray="5,2" d="M207.8202,-82.1251C212.543,-81.2549 215.5,-79.8799 215.5,-78 215.5,-74.9922 207.9301,-73.2768 197.6694,-72.8538"/>
<polygon fill="#9a32cd" stroke="#9a32cd" points="207.2688,-78.6628 197.6694,-83.1462 207.9695,-85.6277 207.2688,-78.6628"/>
<text text-anchor="middle" x="226.5" y="-81" font-family="Helvetica,sans-Serif" font-size="10.00" fill="#000000"> prev</text>
<text text-anchor="middle" x="226.5" y="-70" font-family="Helvetica,sans-Serif" font-size="10.00" fill="#000000">next</text>
</g>
<!-- Node4 -->
<g id="node4" class="node">
<title>Node4</title>
<polygon fill="#ffffff" stroke="#bfbfbf" points="105,-126.5 105,-145.5 203,-145.5 203,-126.5 105,-126.5"/>
<text text-anchor="middle" x="154" y="-133.5" font-family="Helvetica,sans-Serif" font-size="10.00" fill="#000000">jaeger_destructible</text>
</g>
<!-- Node4&#45;&gt;Node3 -->
<g id="edge3" class="edge">
<title>Node4&#45;&gt;Node3</title>
<path fill="none" stroke="#191970" d="M154,-116.153C154,-106.5796 154,-95.5235 154,-87.7856"/>
<polygon fill="#191970" stroke="#191970" points="150.5001,-116.4224 154,-126.4225 157.5001,-116.4225 150.5001,-116.4224"/>
</g>
</g>
</svg>
