<?xml version="1.0" encoding="UTF-8" standalone="no"?>
<!DOCTYPE svg PUBLIC "-//W3C//DTD SVG 1.1//EN"
 "http://www.w3.org/Graphics/SVG/1.1/DTD/svg11.dtd">
<!-- Generated by graphviz version 2.40.1 (20161225.0304)
 -->
<!-- Title: jaeger_list Pages: 1 -->
<svg width="141pt" height="154pt"
 viewBox="0.00 0.00 140.50 154.00" xmlns="http://www.w3.org/2000/svg" xmlns:xlink="http://www.w3.org/1999/xlink">
<g id="graph0" class="graph" transform="scale(1 1) rotate(0) translate(4 150)">
<title>jaeger_list</title>
<polygon fill="#ffffff" stroke="transparent" points="-4,4 -4,-150 136.5,-150 136.5,4 -4,4"/>
<!-- Node1 -->
<g id="node1" class="node">
<title>Node1</title>
<polygon fill="#bfbfbf" stroke="#000000" points="18.5,-.5 18.5,-19.5 79.5,-19.5 79.5,-.5 18.5,-.5"/>
<text text-anchor="middle" x="49" y="-7.5" font-family="Helvetica,sans-Serif" font-size="10.00" fill="#000000">jaeger_list</text>
</g>
<!-- Node2 -->
<g id="node2" class="node">
<title>Node2</title>
<g id="a_node2"><a xlink:href="structjaeger__list__node.html" target="_top" xlink:title="Base class for list elems. ">
<polygon fill="#ffffff" stroke="#000000" points="5.5,-68.5 5.5,-87.5 92.5,-87.5 92.5,-68.5 5.5,-68.5"/>
<text text-anchor="middle" x="49" y="-75.5" font-family="Helvetica,sans-Serif" font-size="10.00" fill="#000000">jaeger_list_node</text>
</a>
</g>
</g>
<!-- Node2&#45;&gt;Node1 -->
<g id="edge1" class="edge">
<title>Node2&#45;&gt;Node1</title>
<path fill="none" stroke="#9a32cd" stroke-dasharray="5,2" d="M49,-58.1951C49,-45.5514 49,-29.7157 49,-19.7247"/>
<polygon fill="#9a32cd" stroke="#9a32cd" points="45.5001,-58.2572 49,-68.2573 52.5001,-58.2573 45.5001,-58.2572"/>
<text text-anchor="middle" x="61.5" y="-41" font-family="Helvetica,sans-Serif" font-size="10.00" fill="#000000"> head</text>
</g>
<!-- Node2&#45;&gt;Node2 -->
<g id="edge3" class="edge">
<title>Node2&#45;&gt;Node2</title>
<path fill="none" stroke="#9a32cd" stroke-dasharray="5,2" d="M102.8202,-82.1251C107.543,-81.2549 110.5,-79.8799 110.5,-78 110.5,-74.9922 102.9301,-73.2768 92.6694,-72.8538"/>
<polygon fill="#9a32cd" stroke="#9a32cd" points="102.2688,-78.6628 92.6694,-83.1462 102.9695,-85.6277 102.2688,-78.6628"/>
<text text-anchor="middle" x="121.5" y="-81" font-family="Helvetica,sans-Serif" font-size="10.00" fill="#000000"> prev</text>
<text text-anchor="middle" x="121.5" y="-70" font-family="Helvetica,sans-Serif" font-size="10.00" fill="#000000">next</text>
</g>
<!-- Node3 -->
<g id="node3" class="node">
<title>Node3</title>
<polygon fill="#ffffff" stroke="#bfbfbf" points="0,-126.5 0,-145.5 98,-145.5 98,-126.5 0,-126.5"/>
<text text-anchor="middle" x="49" y="-133.5" font-family="Helvetica,sans-Serif" font-size="10.00" fill="#000000">jaeger_destructible</text>
</g>
<!-- Node3&#45;&gt;Node2 -->
<g id="edge2" class="edge">
<title>Node3&#45;&gt;Node2</title>
<path fill="none" stroke="#191970" d="M49,-116.153C49,-106.5796 49,-95.5235 49,-87.7856"/>
<polygon fill="#191970" stroke="#191970" points="45.5001,-116.4224 49,-126.4225 52.5001,-116.4225 45.5001,-116.4224"/>
</g>
</g>
</svg>
