<?xml version="1.0" encoding="UTF-8" standalone="no"?>
<!DOCTYPE svg PUBLIC "-//W3C//DTD SVG 1.1//EN"
 "http://www.w3.org/Graphics/SVG/1.1/DTD/svg11.dtd">
<!-- Generated by graphviz version 2.40.1 (20161225.0304)
 -->
<!-- Title: jaeger_adaptive_sampler Pages: 1 -->
<svg width="263pt" height="173pt"
 viewBox="0.00 0.00 262.50 173.00" xmlns="http://www.w3.org/2000/svg" xmlns:xlink="http://www.w3.org/1999/xlink">
<g id="graph0" class="graph" transform="scale(1 1) rotate(0) translate(4 169)">
<title>jaeger_adaptive_sampler</title>
<polygon fill="#ffffff" stroke="transparent" points="-4,4 -4,-169 258.5,-169 258.5,4 -4,4"/>
<!-- Node1 -->
<g id="node1" class="node">
<title>Node1</title>
<polygon fill="#bfbfbf" stroke="#000000" points="49,-.5 49,-19.5 174,-19.5 174,-.5 49,-.5"/>
<text text-anchor="middle" x="111.5" y="-7.5" font-family="Helvetica,sans-Serif" font-size="10.00" fill="#000000">jaeger_adaptive_sampler</text>
</g>
<!-- Node2 -->
<g id="node2" class="node">
<title>Node2</title>
<g id="a_node2"><a xlink:href="structjaeger__vector.html" target="_top" xlink:title="jaeger_vector">
<polygon fill="#ffffff" stroke="#000000" points="0,-73 0,-92 75,-92 75,-73 0,-73"/>
<text text-anchor="middle" x="37.5" y="-80" font-family="Helvetica,sans-Serif" font-size="10.00" fill="#000000">jaeger_vector</text>
</a>
</g>
</g>
<!-- Node2&#45;&gt;Node1 -->
<g id="edge1" class="edge">
<title>Node2&#45;&gt;Node1</title>
<path fill="none" stroke="#9a32cd" stroke-dasharray="5,2" d="M33.3503,-62.6494C32.7138,-54.3529 33.5504,-45.0292 38.5,-38 43.2281,-31.2854 59.7951,-24.6629 75.9534,-19.5455"/>
<polygon fill="#9a32cd" stroke="#9a32cd" points="29.9072,-63.2944 34.8133,-72.6848 36.834,-62.2845 29.9072,-63.2944"/>
<text text-anchor="middle" x="68" y="-41" font-family="Helvetica,sans-Serif" font-size="10.00" fill="#000000"> op_samplers</text>
</g>
<!-- Node3 -->
<g id="node3" class="node">
<title>Node3</title>
<g id="a_node3"><a xlink:href="structjaeger__probabilistic__sampler.html" target="_top" xlink:title="jaeger_probabilistic\l_sampler">
<polygon fill="#ffffff" stroke="#000000" points="154.5,-67.5 154.5,-97.5 254.5,-97.5 254.5,-67.5 154.5,-67.5"/>
<text text-anchor="start" x="162.5" y="-85.5" font-family="Helvetica,sans-Serif" font-size="10.00" fill="#000000">jaeger_probabilistic</text>
<text text-anchor="middle" x="204.5" y="-74.5" font-family="Helvetica,sans-Serif" font-size="10.00" fill="#000000">_sampler</text>
</a>
</g>
</g>
<!-- Node3&#45;&gt;Node1 -->
<g id="edge2" class="edge">
<title>Node3&#45;&gt;Node1</title>
<path fill="none" stroke="#9a32cd" stroke-dasharray="5,2" d="M176.9992,-61.0612C159.3994,-47.3409 137.4143,-30.202 123.9203,-19.6825"/>
<polygon fill="#9a32cd" stroke="#9a32cd" points="175.1918,-64.09 185.2303,-67.478 179.4955,-58.5694 175.1918,-64.09"/>
<text text-anchor="middle" x="198" y="-41" font-family="Helvetica,sans-Serif" font-size="10.00" fill="#000000"> default_sampler</text>
</g>
<!-- Node4 -->
<g id="node4" class="node">
<title>Node4</title>
<g id="a_node4"><a xlink:href="structjaeger__sampler.html" target="_top" xlink:title="jaeger_sampler">
<polygon fill="#ffffff" stroke="#000000" points="86,-145.5 86,-164.5 169,-164.5 169,-145.5 86,-145.5"/>
<text text-anchor="middle" x="127.5" y="-152.5" font-family="Helvetica,sans-Serif" font-size="10.00" fill="#000000">jaeger_sampler</text>
</a>
</g>
</g>
<!-- Node4&#45;&gt;Node1 -->
<g id="edge4" class="edge">
<title>Node4&#45;&gt;Node1</title>
<path fill="none" stroke="#9a32cd" stroke-dasharray="5,2" d="M124.9614,-135.1449C123.5867,-124.1953 121.8901,-110.3536 120.5,-98 117.2886,-69.4616 113.9666,-35.6606 112.4091,-19.513"/>
<polygon fill="#9a32cd" stroke="#9a32cd" points="121.522,-135.8442 126.2512,-145.325 128.4664,-134.9643 121.522,-135.8442"/>
<text text-anchor="middle" x="133" y="-80" font-family="Helvetica,sans-Serif" font-size="10.00" fill="#000000"> base</text>
</g>
<!-- Node4&#45;&gt;Node3 -->
<g id="edge3" class="edge">
<title>Node4&#45;&gt;Node3</title>
<path fill="none" stroke="#9a32cd" stroke-dasharray="5,2" d="M145.3192,-138.2222C158.3233,-125.9781 175.8037,-109.5193 188.3905,-97.668"/>
<polygon fill="#9a32cd" stroke="#9a32cd" points="142.7659,-135.819 137.8846,-145.2223 147.5645,-140.9154 142.7659,-135.819"/>
<text text-anchor="middle" x="181" y="-119" font-family="Helvetica,sans-Serif" font-size="10.00" fill="#000000"> base</text>
</g>
</g>
</svg>
