<?xml version="1.0" encoding="UTF-8" standalone="no"?>
<!DOCTYPE svg PUBLIC "-//W3C//DTD SVG 1.1//EN"
 "http://www.w3.org/Graphics/SVG/1.1/DTD/svg11.dtd">
<!-- Generated by graphviz version 2.40.1 (20161225.0304)
 -->
<!-- Title: parsing_context Pages: 1 -->
<svg width="206pt" height="173pt"
 viewBox="0.00 0.00 205.50 173.00" xmlns="http://www.w3.org/2000/svg" xmlns:xlink="http://www.w3.org/1999/xlink">
<g id="graph0" class="graph" transform="scale(1 1) rotate(0) translate(4 169)">
<title>parsing_context</title>
<polygon fill="#ffffff" stroke="transparent" points="-4,4 -4,-169 201.5,-169 201.5,4 -4,4"/>
<!-- Node1 -->
<g id="node1" class="node">
<title>Node1</title>
<polygon fill="#bfbfbf" stroke="#000000" points="36.5,-.5 36.5,-19.5 122.5,-19.5 122.5,-.5 36.5,-.5"/>
<text text-anchor="middle" x="79.5" y="-7.5" font-family="Helvetica,sans-Serif" font-size="10.00" fill="#000000">parsing_context</text>
</g>
<!-- Node2 -->
<g id="node2" class="node">
<title>Node2</title>
<g id="a_node2"><a xlink:href="structjaeger__http__sampling__manager.html" target="_top" xlink:title="jaeger_http_sampling\l_manager">
<polygon fill="#ffffff" stroke="#000000" points="25,-67.5 25,-97.5 134,-97.5 134,-67.5 25,-67.5"/>
<text text-anchor="start" x="33" y="-85.5" font-family="Helvetica,sans-Serif" font-size="10.00" fill="#000000">jaeger_http_sampling</text>
<text text-anchor="middle" x="79.5" y="-74.5" font-family="Helvetica,sans-Serif" font-size="10.00" fill="#000000">_manager</text>
</a>
</g>
</g>
<!-- Node2&#45;&gt;Node1 -->
<g id="edge1" class="edge">
<title>Node2&#45;&gt;Node1</title>
<path fill="none" stroke="#9a32cd" stroke-dasharray="5,2" d="M79.5,-57.305C79.5,-44.424 79.5,-29.4836 79.5,-19.8957"/>
<polygon fill="#9a32cd" stroke="#9a32cd" points="76.0001,-57.4779 79.5,-67.478 83.0001,-57.478 76.0001,-57.4779"/>
<text text-anchor="middle" x="100" y="-41" font-family="Helvetica,sans-Serif" font-size="10.00" fill="#000000"> manager</text>
</g>
<!-- Node3 -->
<g id="node3" class="node">
<title>Node3</title>
<g id="a_node3"><a xlink:href="structjaeger__vector.html" target="_top" xlink:title="jaeger_vector">
<polygon fill="#ffffff" stroke="#000000" points="0,-145.5 0,-164.5 75,-164.5 75,-145.5 0,-145.5"/>
<text text-anchor="middle" x="37.5" y="-152.5" font-family="Helvetica,sans-Serif" font-size="10.00" fill="#000000">jaeger_vector</text>
</a>
</g>
</g>
<!-- Node3&#45;&gt;Node2 -->
<g id="edge2" class="edge">
<title>Node3&#45;&gt;Node2</title>
<path fill="none" stroke="#9a32cd" stroke-dasharray="5,2" d="M46.7497,-135.9601C50.0039,-129.54 53.78,-122.386 57.5,-116 61.0723,-109.8675 65.2905,-103.3036 69.0728,-97.6256"/>
<polygon fill="#9a32cd" stroke="#9a32cd" points="43.4601,-134.7155 42.1487,-145.2289 49.7301,-137.828 43.4601,-134.7155"/>
<text text-anchor="middle" x="79" y="-119" font-family="Helvetica,sans-Serif" font-size="10.00" fill="#000000"> response</text>
</g>
<!-- Node4 -->
<g id="node4" class="node">
<title>Node4</title>
<g id="a_node4"><a xlink:href="structjaeger__url.html" target="_top" xlink:title="jaeger_url">
<polygon fill="#ffffff" stroke="#000000" points="93,-145.5 93,-164.5 152,-164.5 152,-145.5 93,-145.5"/>
<text text-anchor="middle" x="122.5" y="-152.5" font-family="Helvetica,sans-Serif" font-size="10.00" fill="#000000">jaeger_url</text>
</a>
</g>
</g>
<!-- Node4&#45;&gt;Node2 -->
<g id="edge3" class="edge">
<title>Node4&#45;&gt;Node2</title>
<path fill="none" stroke="#9a32cd" stroke-dasharray="5,2" d="M112.3146,-136.5352C108.6542,-130.0095 104.4529,-122.643 100.5,-116 96.9197,-109.9832 92.8586,-103.4428 89.2683,-97.7512"/>
<polygon fill="#9a32cd" stroke="#9a32cd" points="109.2777,-138.2757 117.1985,-145.3122 115.3946,-134.8721 109.2777,-138.2757"/>
<text text-anchor="middle" x="152" y="-119" font-family="Helvetica,sans-Serif" font-size="10.00" fill="#000000"> sampling_server_url</text>
</g>
</g>
</svg>
