<?xml version="1.0" encoding="UTF-8" standalone="no"?>
<!DOCTYPE svg PUBLIC "-//W3C//DTD SVG 1.1//EN"
 "http://www.w3.org/Graphics/SVG/1.1/DTD/svg11.dtd">
<!-- Generated by graphviz version 2.40.1 (20161225.0304)
 -->
<!-- Title: jaeger_config Pages: 1 -->
<svg width="350pt" height="154pt"
 viewBox="0.00 0.00 350.00 154.00" xmlns="http://www.w3.org/2000/svg" xmlns:xlink="http://www.w3.org/1999/xlink">
<g id="graph0" class="graph" transform="scale(1 1) rotate(0) translate(4 150)">
<title>jaeger_config</title>
<polygon fill="#ffffff" stroke="transparent" points="-4,4 -4,-150 346,-150 346,4 -4,4"/>
<!-- Node1 -->
<g id="node1" class="node">
<title>Node1</title>
<polygon fill="#bfbfbf" stroke="#000000" points="268,-60.5 268,-79.5 342,-79.5 342,-60.5 268,-60.5"/>
<text text-anchor="middle" x="305" y="-67.5" font-family="Helvetica,sans-Serif" font-size="10.00" fill="#000000">jaeger_config</text>
</g>
<!-- Node2 -->
<g id="node2" class="node">
<title>Node2</title>
<g id="a_node2"><a xlink:href="structjaeger__reporter__config.html" target="_top" xlink:title="Reporter config. ">
<polygon fill="#ffffff" stroke="#000000" points="12.5,-126.5 12.5,-145.5 125.5,-145.5 125.5,-126.5 12.5,-126.5"/>
<text text-anchor="middle" x="69" y="-133.5" font-family="Helvetica,sans-Serif" font-size="10.00" fill="#000000">jaeger_reporter_config</text>
</a>
</g>
</g>
<!-- Node2&#45;&gt;Node1 -->
<g id="edge1" class="edge">
<title>Node2&#45;&gt;Node1</title>
<path fill="none" stroke="#9a32cd" stroke-dasharray="5,2" d="M135.9142,-126.2955C170.5637,-120.1893 213.2054,-110.9708 250,-98 263.5411,-93.2265 277.9756,-85.7787 288.6582,-79.764"/>
<polygon fill="#9a32cd" stroke="#9a32cd" points="135.1644,-122.8729 125.9002,-128.0134 136.348,-129.7722 135.1644,-122.8729"/>
<text text-anchor="middle" x="203" y="-125" font-family="Helvetica,sans-Serif" font-size="10.00" fill="#000000"> reporter</text>
</g>
<!-- Node3 -->
<g id="node3" class="node">
<title>Node3</title>
<g id="a_node3"><a xlink:href="structjaeger__baggage__restrictions__config.html" target="_top" xlink:title="Baggage restrictions config. ">
<polygon fill="#ffffff" stroke="#000000" points="0,-77 0,-107 138,-107 138,-77 0,-77"/>
<text text-anchor="start" x="8" y="-95" font-family="Helvetica,sans-Serif" font-size="10.00" fill="#000000">jaeger_baggage_restrictions</text>
<text text-anchor="middle" x="69" y="-84" font-family="Helvetica,sans-Serif" font-size="10.00" fill="#000000">_config</text>
</a>
</g>
</g>
<!-- Node3&#45;&gt;Node1 -->
<g id="edge2" class="edge">
<title>Node3&#45;&gt;Node1</title>
<path fill="none" stroke="#9a32cd" stroke-dasharray="5,2" d="M148.3325,-84.6046C188.7651,-80.8355 236.0075,-76.4315 267.9588,-73.453"/>
<polygon fill="#9a32cd" stroke="#9a32cd" points="147.8451,-81.1348 138.2132,-85.5479 148.4949,-88.1045 147.8451,-81.1348"/>
<text text-anchor="middle" x="203" y="-86" font-family="Helvetica,sans-Serif" font-size="10.00" fill="#000000"> baggage_restrictions</text>
</g>
<!-- Node4 -->
<g id="node4" class="node">
<title>Node4</title>
<g id="a_node4"><a xlink:href="structjaeger__sampler__config.html" target="_top" xlink:title="Sampler config. ">
<polygon fill="#ffffff" stroke="#000000" points="12,-38.5 12,-57.5 126,-57.5 126,-38.5 12,-38.5"/>
<text text-anchor="middle" x="69" y="-45.5" font-family="Helvetica,sans-Serif" font-size="10.00" fill="#000000">jaeger_sampler_config</text>
</a>
</g>
</g>
<!-- Node4&#45;&gt;Node1 -->
<g id="edge3" class="edge">
<title>Node4&#45;&gt;Node1</title>
<path fill="none" stroke="#9a32cd" stroke-dasharray="5,2" d="M136.5387,-50.6521C170.6431,-52.4541 212.6117,-55.3769 250,-60 255.7791,-60.7146 261.8705,-61.6435 267.8103,-62.6471"/>
<polygon fill="#9a32cd" stroke="#9a32cd" points="136.3855,-47.1399 126.2208,-50.1282 136.0304,-54.1309 136.3855,-47.1399"/>
<text text-anchor="middle" x="203" y="-63" font-family="Helvetica,sans-Serif" font-size="10.00" fill="#000000"> sampler</text>
</g>
<!-- Node5 -->
<g id="node5" class="node">
<title>Node5</title>
<g id="a_node5"><a xlink:href="structjaeger__headers__config.html" target="_top" xlink:title="HTTP headers to use for span context propagation. ">
<polygon fill="#ffffff" stroke="#000000" points="12,-.5 12,-19.5 126,-19.5 126,-.5 12,-.5"/>
<text text-anchor="middle" x="69" y="-7.5" font-family="Helvetica,sans-Serif" font-size="10.00" fill="#000000">jaeger_headers_config</text>
</a>
</g>
</g>
<!-- Node5&#45;&gt;Node1 -->
<g id="edge4" class="edge">
<title>Node5&#45;&gt;Node1</title>
<path fill="none" stroke="#9a32cd" stroke-dasharray="5,2" d="M136.3578,-13.091C171.1266,-16.3145 213.7411,-22.8394 250,-36 265.8283,-41.7451 281.9906,-52.4306 292.6612,-60.2946"/>
<polygon fill="#9a32cd" stroke="#9a32cd" points="136.5668,-9.5962 126.3045,-12.2298 135.9692,-16.5707 136.5668,-9.5962"/>
<text text-anchor="middle" x="203" y="-39" font-family="Helvetica,sans-Serif" font-size="10.00" fill="#000000"> headers</text>
</g>
</g>
</svg>
