<?xml version="1.0" encoding="UTF-8" standalone="no"?>
<!DOCTYPE svg PUBLIC "-//W3C//DTD SVG 1.1//EN"
 "http://www.w3.org/Graphics/SVG/1.1/DTD/svg11.dtd">
<!-- Generated by graphviz version 2.40.1 (20161225.0304)
 -->
<!-- Title: jaeger_list_node Pages: 1 -->
<svg width="141pt" height="87pt"
 viewBox="0.00 0.00 140.50 87.00" xmlns="http://www.w3.org/2000/svg" xmlns:xlink="http://www.w3.org/1999/xlink">
<g id="graph0" class="graph" transform="scale(1 1) rotate(0) translate(4 83)">
<title>jaeger_list_node</title>
<polygon fill="#ffffff" stroke="transparent" points="-4,4 -4,-83 136.5,-83 136.5,4 -4,4"/>
<!-- Node2 -->
<g id="node1" class="node">
<title>Node2</title>
<polygon fill="#bfbfbf" stroke="#000000" points="5.5,-1.5 5.5,-20.5 92.5,-20.5 92.5,-1.5 5.5,-1.5"/>
<text text-anchor="middle" x="49" y="-8.5" font-family="Helvetica,sans-Serif" font-size="10.00" fill="#000000">jaeger_list_node</text>
</g>
<!-- Node2&#45;&gt;Node2 -->
<g id="edge2" class="edge">
<title>Node2&#45;&gt;Node2</title>
<path fill="none" stroke="#9a32cd" stroke-dasharray="5,2" d="M102.8202,-15.1251C107.543,-14.2549 110.5,-12.8799 110.5,-11 110.5,-7.9922 102.9301,-6.2768 92.6694,-5.8538"/>
<polygon fill="#9a32cd" stroke="#9a32cd" points="102.2688,-11.6628 92.6694,-16.1462 102.9695,-18.6277 102.2688,-11.6628"/>
<text text-anchor="middle" x="121.5" y="-14" font-family="Helvetica,sans-Serif" font-size="10.00" fill="#000000"> prev</text>
<text text-anchor="middle" x="121.5" y="-3" font-family="Helvetica,sans-Serif" font-size="10.00" fill="#000000">next</text>
</g>
<!-- Node3 -->
<g id="node2" class="node">
<title>Node3</title>
<polygon fill="#ffffff" stroke="#bfbfbf" points="0,-59.5 0,-78.5 98,-78.5 98,-59.5 0,-59.5"/>
<text text-anchor="middle" x="49" y="-66.5" font-family="Helvetica,sans-Serif" font-size="10.00" fill="#000000">jaeger_destructible</text>
</g>
<!-- Node3&#45;&gt;Node2 -->
<g id="edge1" class="edge">
<title>Node3&#45;&gt;Node2</title>
<path fill="none" stroke="#191970" d="M49,-49.153C49,-39.5796 49,-28.5235 49,-20.7856"/>
<polygon fill="#191970" stroke="#191970" points="45.5001,-49.4224 49,-59.4225 52.5001,-49.4225 45.5001,-49.4224"/>
</g>
</g>
</svg>
