<?xml version="1.0" encoding="UTF-8" standalone="no"?>
<!DOCTYPE svg PUBLIC "-//W3C//DTD SVG 1.1//EN"
 "http://www.w3.org/Graphics/SVG/1.1/DTD/svg11.dtd">
<!-- Generated by graphviz version 2.40.1 (20161225.0304)
 -->
<!-- Title: jaeger_baggage_setter Pages: 1 -->
<svg width="373pt" height="351pt"
 viewBox="0.00 0.00 372.50 351.00" xmlns="http://www.w3.org/2000/svg" xmlns:xlink="http://www.w3.org/1999/xlink">
<g id="graph0" class="graph" transform="scale(1 1) rotate(0) translate(4 347)">
<title>jaeger_baggage_setter</title>
<polygon fill="#ffffff" stroke="transparent" points="-4,4 -4,-347 368.5,-347 368.5,4 -4,4"/>
<!-- Node1 -->
<g id="node1" class="node">
<title>Node1</title>
<polygon fill="#bfbfbf" stroke="#000000" points="177.5,-.5 177.5,-19.5 292.5,-19.5 292.5,-.5 177.5,-.5"/>
<text text-anchor="middle" x="235" y="-7.5" font-family="Helvetica,sans-Serif" font-size="10.00" fill="#000000">jaeger_baggage_setter</text>
</g>
<!-- Node2 -->
<g id="node2" class="node">
<title>Node2</title>
<g id="a_node2"><a xlink:href="structjaeger__metrics.html" target="_top" xlink:title="jaeger_metrics">
<polygon fill="#ffffff" stroke="#000000" points="133,-73 133,-92 213,-92 213,-73 133,-73"/>
<text text-anchor="middle" x="173" y="-80" font-family="Helvetica,sans-Serif" font-size="10.00" fill="#000000">jaeger_metrics</text>
</a>
</g>
</g>
<!-- Node2&#45;&gt;Node1 -->
<g id="edge1" class="edge">
<title>Node2&#45;&gt;Node1</title>
<path fill="none" stroke="#9a32cd" stroke-dasharray="5,2" d="M187.9216,-65.0513C200.1105,-50.7982 216.885,-31.1829 226.7709,-19.6228"/>
<polygon fill="#9a32cd" stroke="#9a32cd" points="185.2009,-62.8476 181.3616,-72.7223 190.5209,-67.3971 185.2009,-62.8476"/>
<text text-anchor="middle" x="227" y="-41" font-family="Helvetica,sans-Serif" font-size="10.00" fill="#000000"> metrics</text>
</g>
<!-- Node3 -->
<g id="node3" class="node">
<title>Node3</title>
<g id="a_node3"><a xlink:href="structjaeger__counter.html" target="_top" xlink:title="Counter metric interface. ">
<polygon fill="#ffffff" stroke="#000000" points="0,-266.5 0,-285.5 80,-285.5 80,-266.5 0,-266.5"/>
<text text-anchor="middle" x="40" y="-273.5" font-family="Helvetica,sans-Serif" font-size="10.00" fill="#000000">jaeger_counter</text>
</a>
</g>
</g>
<!-- Node3&#45;&gt;Node2 -->
<g id="edge2" class="edge">
<title>Node3&#45;&gt;Node2</title>
<path fill="none" stroke="#9a32cd" stroke-dasharray="5,2" d="M27.8182,-257.7573C26.2439,-254.6184 24.8766,-251.3008 24,-248 8.9421,-191.2987 -12.6524,-161.808 24,-116 37.4174,-99.231 93.5207,-90.2701 132.9125,-85.9504"/>
<polygon fill="#9a32cd" stroke="#9a32cd" points="24.8204,-259.5645 32.879,-266.4427 30.8686,-256.0403 24.8204,-259.5645"/>
<text text-anchor="middle" x="86" y="-240" font-family="Helvetica,sans-Serif" font-size="10.00" fill="#000000"> traces_started_sampled</text>
<text text-anchor="start" x="24" y="-229" font-family="Helvetica,sans-Serif" font-size="10.00" fill="#000000">baggage_restrictions</text>
<text text-anchor="middle" x="86" y="-218" font-family="Helvetica,sans-Serif" font-size="10.00" fill="#000000">_update_success</text>
<text text-anchor="middle" x="86" y="-207" font-family="Helvetica,sans-Serif" font-size="10.00" fill="#000000">traces_started_not_sampled</text>
<text text-anchor="middle" x="86" y="-196" font-family="Helvetica,sans-Serif" font-size="10.00" fill="#000000">reporter_failure</text>
<text text-anchor="middle" x="86" y="-185" font-family="Helvetica,sans-Serif" font-size="10.00" fill="#000000">spans_finished</text>
<text text-anchor="middle" x="86" y="-174" font-family="Helvetica,sans-Serif" font-size="10.00" fill="#000000">sampler_query_failure</text>
<text text-anchor="middle" x="86" y="-163" font-family="Helvetica,sans-Serif" font-size="10.00" fill="#000000">reporter_dropped</text>
<text text-anchor="middle" x="86" y="-152" font-family="Helvetica,sans-Serif" font-size="10.00" fill="#000000">spans_started</text>
<text text-anchor="middle" x="86" y="-141" font-family="Helvetica,sans-Serif" font-size="10.00" fill="#000000">sampler_retrieved</text>
<text text-anchor="middle" x="86" y="-130" font-family="Helvetica,sans-Serif" font-size="10.00" fill="#000000">baggage_update_failure</text>
<text text-anchor="middle" x="86" y="-119" font-family="Helvetica,sans-Serif" font-size="10.00" fill="#000000">...</text>
</g>
<!-- Node4 -->
<g id="node4" class="node">
<title>Node4</title>
<polygon fill="#ffffff" stroke="#bfbfbf" points="38,-323.5 38,-342.5 136,-342.5 136,-323.5 38,-323.5"/>
<text text-anchor="middle" x="87" y="-330.5" font-family="Helvetica,sans-Serif" font-size="10.00" fill="#000000">jaeger_destructible</text>
</g>
<!-- Node4&#45;&gt;Node3 -->
<g id="edge3" class="edge">
<title>Node4&#45;&gt;Node3</title>
<path fill="none" stroke="#191970" d="M72.4466,-315.3501C64.3319,-305.5089 54.5442,-293.6387 47.8552,-285.5265"/>
<polygon fill="#191970" stroke="#191970" points="69.9648,-317.842 79.0271,-323.3307 75.3656,-313.3887 69.9648,-317.842"/>
</g>
<!-- Node5 -->
<g id="node5" class="node">
<title>Node5</title>
<g id="a_node5"><a xlink:href="structjaeger__gauge.html" target="_top" xlink:title="Gauge metric interface. ">
<polygon fill="#ffffff" stroke="#000000" points="111,-266.5 111,-285.5 185,-285.5 185,-266.5 111,-266.5"/>
<text text-anchor="middle" x="148" y="-273.5" font-family="Helvetica,sans-Serif" font-size="10.00" fill="#000000">jaeger_gauge</text>
</a>
</g>
</g>
<!-- Node4&#45;&gt;Node5 -->
<g id="edge5" class="edge">
<title>Node4&#45;&gt;Node5</title>
<path fill="none" stroke="#191970" d="M104.9372,-316.239C115.6467,-306.2317 128.8604,-293.8845 137.805,-285.5265"/>
<polygon fill="#191970" stroke="#191970" points="102.2648,-313.9459 97.3478,-323.3307 107.044,-319.0606 102.2648,-313.9459"/>
</g>
<!-- Node5&#45;&gt;Node2 -->
<g id="edge4" class="edge">
<title>Node5&#45;&gt;Node2</title>
<path fill="none" stroke="#9a32cd" stroke-dasharray="5,2" d="M150.8552,-256.2908C151.2468,-253.5082 151.6382,-250.6826 152,-248 159.9743,-188.8715 168.7129,-117.738 171.8223,-92.2071"/>
<polygon fill="#9a32cd" stroke="#9a32cd" points="147.3583,-256.0207 149.4071,-266.4155 154.2878,-257.0118 147.3583,-256.0207"/>
<text text-anchor="middle" x="219" y="-179.5" font-family="Helvetica,sans-Serif" font-size="10.00" fill="#000000"> reporter_queue_length</text>
</g>
<!-- Node6 -->
<g id="node6" class="node">
<title>Node6</title>
<g id="a_node6"><a xlink:href="structjaeger__baggage__restriction__manager.html" target="_top" xlink:title="Interface for object that manages baggage restrictions. ">
<polygon fill="#ffffff" stroke="#000000" points="231.5,-67.5 231.5,-97.5 364.5,-97.5 364.5,-67.5 231.5,-67.5"/>
<text text-anchor="start" x="239.5" y="-85.5" font-family="Helvetica,sans-Serif" font-size="10.00" fill="#000000">jaeger_baggage_restriction</text>
<text text-anchor="middle" x="298" y="-74.5" font-family="Helvetica,sans-Serif" font-size="10.00" fill="#000000">_manager</text>
</a>
</g>
</g>
<!-- Node6&#45;&gt;Node1 -->
<g id="edge6" class="edge">
<title>Node6&#45;&gt;Node1</title>
<path fill="none" stroke="#9a32cd" stroke-dasharray="5,2" d="M278.1004,-59.5997C266.4879,-46.2361 252.4305,-30.0589 243.599,-19.8957"/>
<polygon fill="#9a32cd" stroke="#9a32cd" points="275.7452,-62.2254 284.9464,-67.478 281.029,-57.6339 275.7452,-62.2254"/>
<text text-anchor="middle" x="288.5" y="-41" font-family="Helvetica,sans-Serif" font-size="10.00" fill="#000000"> manager</text>
</g>
<!-- Node7 -->
<g id="node7" class="node">
<title>Node7</title>
<g id="a_node7"><a xlink:href="structjaeger__baggage__restriction.html" target="_top" xlink:title="Representation of baggage restriction for a given key and a given service. ">
<polygon fill="#ffffff" stroke="#000000" points="231.5,-266.5 231.5,-285.5 364.5,-285.5 364.5,-266.5 231.5,-266.5"/>
<text text-anchor="middle" x="298" y="-273.5" font-family="Helvetica,sans-Serif" font-size="10.00" fill="#000000">jaeger_baggage_restriction</text>
</a>
</g>
</g>
<!-- Node7&#45;&gt;Node6 -->
<g id="edge7" class="edge">
<title>Node7&#45;&gt;Node6</title>
<path fill="none" stroke="#9a32cd" stroke-dasharray="5,2" d="M298,-255.9277C298,-217.0883 298,-132.4319 298,-97.7657"/>
<polygon fill="#9a32cd" stroke="#9a32cd" points="294.5001,-256.4043 298,-266.4043 301.5001,-256.4043 294.5001,-256.4043"/>
<text text-anchor="middle" x="330.5" y="-179.5" font-family="Helvetica,sans-Serif" font-size="10.00" fill="#000000"> get_restriction</text>
</g>
</g>
</svg>
