<?xml version="1.0" encoding="UTF-8" standalone="no"?>
<!DOCTYPE svg PUBLIC "-//W3C//DTD SVG 1.1//EN"
 "http://www.w3.org/Graphics/SVG/1.1/DTD/svg11.dtd">
<!-- Generated by graphviz version 2.40.1 (20161225.0304)
 -->
<!-- Title: jaeger_hashtable Pages: 1 -->
<svg width="141pt" height="221pt"
 viewBox="0.00 0.00 140.50 221.00" xmlns="http://www.w3.org/2000/svg" xmlns:xlink="http://www.w3.org/1999/xlink">
<g id="graph0" class="graph" transform="scale(1 1) rotate(0) translate(4 217)">
<title>jaeger_hashtable</title>
<polygon fill="#ffffff" stroke="transparent" points="-4,4 -4,-217 136.5,-217 136.5,4 -4,4"/>
<!-- Node1 -->
<g id="node1" class="node">
<title>Node1</title>
<polygon fill="#bfbfbf" stroke="#000000" points="4,-.5 4,-19.5 94,-19.5 94,-.5 4,-.5"/>
<text text-anchor="middle" x="49" y="-7.5" font-family="Helvetica,sans-Serif" font-size="10.00" fill="#000000">jaeger_hashtable</text>
</g>
<!-- Node2 -->
<g id="node2" class="node">
<title>Node2</title>
<g id="a_node2"><a xlink:href="structjaeger__list.html" target="_top" xlink:title="Linked list implementation. ">
<polygon fill="#ffffff" stroke="#000000" points="18.5,-67.5 18.5,-86.5 79.5,-86.5 79.5,-67.5 18.5,-67.5"/>
<text text-anchor="middle" x="49" y="-74.5" font-family="Helvetica,sans-Serif" font-size="10.00" fill="#000000">jaeger_list</text>
</a>
</g>
</g>
<!-- Node2&#45;&gt;Node1 -->
<g id="edge1" class="edge">
<title>Node2&#45;&gt;Node1</title>
<path fill="none" stroke="#9a32cd" stroke-dasharray="5,2" d="M49,-57.1079C49,-44.714 49,-29.3263 49,-19.5817"/>
<polygon fill="#9a32cd" stroke="#9a32cd" points="45.5001,-57.4005 49,-67.4005 52.5001,-57.4006 45.5001,-57.4005"/>
<text text-anchor="middle" x="68" y="-41" font-family="Helvetica,sans-Serif" font-size="10.00" fill="#000000"> buckets</text>
</g>
<!-- Node3 -->
<g id="node3" class="node">
<title>Node3</title>
<g id="a_node3"><a xlink:href="structjaeger__list__node.html" target="_top" xlink:title="Base class for list elements. ">
<polygon fill="#ffffff" stroke="#000000" points="5.5,-135.5 5.5,-154.5 92.5,-154.5 92.5,-135.5 5.5,-135.5"/>
<text text-anchor="middle" x="49" y="-142.5" font-family="Helvetica,sans-Serif" font-size="10.00" fill="#000000">jaeger_list_node</text>
</a>
</g>
</g>
<!-- Node3&#45;&gt;Node2 -->
<g id="edge2" class="edge">
<title>Node3&#45;&gt;Node2</title>
<path fill="none" stroke="#9a32cd" stroke-dasharray="5,2" d="M49,-125.1951C49,-112.5514 49,-96.7157 49,-86.7247"/>
<polygon fill="#9a32cd" stroke="#9a32cd" points="45.5001,-125.2572 49,-135.2573 52.5001,-125.2573 45.5001,-125.2572"/>
<text text-anchor="middle" x="61.5" y="-108" font-family="Helvetica,sans-Serif" font-size="10.00" fill="#000000"> head</text>
</g>
<!-- Node3&#45;&gt;Node3 -->
<g id="edge4" class="edge">
<title>Node3&#45;&gt;Node3</title>
<path fill="none" stroke="#9a32cd" stroke-dasharray="5,2" d="M102.8202,-149.1251C107.543,-148.2549 110.5,-146.8799 110.5,-145 110.5,-141.9922 102.9301,-140.2768 92.6694,-139.8538"/>
<polygon fill="#9a32cd" stroke="#9a32cd" points="102.2688,-145.6628 92.6694,-150.1462 102.9695,-152.6277 102.2688,-145.6628"/>
<text text-anchor="middle" x="121.5" y="-148" font-family="Helvetica,sans-Serif" font-size="10.00" fill="#000000"> prev</text>
<text text-anchor="middle" x="121.5" y="-137" font-family="Helvetica,sans-Serif" font-size="10.00" fill="#000000">next</text>
</g>
<!-- Node4 -->
<g id="node4" class="node">
<title>Node4</title>
<polygon fill="#ffffff" stroke="#bfbfbf" points="0,-193.5 0,-212.5 98,-212.5 98,-193.5 0,-193.5"/>
<text text-anchor="middle" x="49" y="-200.5" font-family="Helvetica,sans-Serif" font-size="10.00" fill="#000000">jaeger_destructible</text>
</g>
<!-- Node4&#45;&gt;Node3 -->
<g id="edge3" class="edge">
<title>Node4&#45;&gt;Node3</title>
<path fill="none" stroke="#191970" d="M49,-183.153C49,-173.5796 49,-162.5235 49,-154.7856"/>
<polygon fill="#191970" stroke="#191970" points="45.5001,-183.4224 49,-193.4225 52.5001,-183.4225 45.5001,-183.4224"/>
</g>
</g>
</svg>
