<?xml version="1.0" encoding="UTF-8" standalone="no"?>
<!DOCTYPE svg PUBLIC "-//W3C//DTD SVG 1.1//EN"
 "http://www.w3.org/Graphics/SVG/1.1/DTD/svg11.dtd">
<!-- Generated by graphviz version 2.40.1 (20161225.0304)
 -->
<!-- Title: jaeger_hashtable_lookup_result Pages: 1 -->
<svg width="259pt" height="232pt"
 viewBox="0.00 0.00 259.00 232.00" xmlns="http://www.w3.org/2000/svg" xmlns:xlink="http://www.w3.org/1999/xlink">
<g id="graph0" class="graph" transform="scale(1 1) rotate(0) translate(4 228)">
<title>jaeger_hashtable_lookup_result</title>
<polygon fill="#ffffff" stroke="transparent" points="-4,4 -4,-228 255,-228 255,4 -4,4"/>
<!-- Node1 -->
<g id="node1" class="node">
<title>Node1</title>
<polygon fill="#bfbfbf" stroke="#000000" points="51.5,-.5 51.5,-30.5 175.5,-30.5 175.5,-.5 51.5,-.5"/>
<text text-anchor="start" x="59.5" y="-18.5" font-family="Helvetica,sans-Serif" font-size="10.00" fill="#000000">jaeger_hashtable_lookup</text>
<text text-anchor="middle" x="113.5" y="-7.5" font-family="Helvetica,sans-Serif" font-size="10.00" fill="#000000">_result</text>
</g>
<!-- Node2 -->
<g id="node2" class="node">
<title>Node2</title>
<g id="a_node2"><a xlink:href="structjaeger__key__value__node.html" target="_top" xlink:title="Define link list node for key&#45;value pairs. ">
<polygon fill="#ffffff" stroke="#000000" points="0,-78.5 0,-97.5 119,-97.5 119,-78.5 0,-78.5"/>
<text text-anchor="middle" x="59.5" y="-85.5" font-family="Helvetica,sans-Serif" font-size="10.00" fill="#000000">jaeger_key_value_node</text>
</a>
</g>
</g>
<!-- Node2&#45;&gt;Node1 -->
<g id="edge1" class="edge">
<title>Node2&#45;&gt;Node1</title>
<path fill="none" stroke="#9a32cd" stroke-dasharray="5,2" d="M72.7783,-70.1727C81.8075,-58.0502 93.6251,-42.1838 102.2024,-30.668"/>
<polygon fill="#9a32cd" stroke="#9a32cd" points="69.9492,-68.1117 66.7827,-78.2223 75.5631,-72.2932 69.9492,-68.1117"/>
<text text-anchor="middle" x="100" y="-52" font-family="Helvetica,sans-Serif" font-size="10.00" fill="#000000"> node</text>
</g>
<!-- Node3 -->
<g id="node3" class="node">
<title>Node3</title>
<g id="a_node3"><a xlink:href="structjaeger__key__value.html" target="_top" xlink:title="jaeger_key_value">
<polygon fill="#ffffff" stroke="#000000" points="13.5,-146.5 13.5,-165.5 105.5,-165.5 105.5,-146.5 13.5,-146.5"/>
<text text-anchor="middle" x="59.5" y="-153.5" font-family="Helvetica,sans-Serif" font-size="10.00" fill="#000000">jaeger_key_value</text>
</a>
</g>
</g>
<!-- Node3&#45;&gt;Node2 -->
<g id="edge2" class="edge">
<title>Node3&#45;&gt;Node2</title>
<path fill="none" stroke="#9a32cd" stroke-dasharray="5,2" d="M59.5,-136.1951C59.5,-123.5514 59.5,-107.7157 59.5,-97.7247"/>
<polygon fill="#9a32cd" stroke="#9a32cd" points="56.0001,-136.2572 59.5,-146.2573 63.0001,-136.2573 56.0001,-136.2572"/>
<text text-anchor="middle" x="70.5" y="-119" font-family="Helvetica,sans-Serif" font-size="10.00" fill="#000000"> data</text>
</g>
<!-- Node4 -->
<g id="node4" class="node">
<title>Node4</title>
<g id="a_node4"><a xlink:href="structjaeger__list__node.html" target="_top" xlink:title="Base class for list elements. ">
<polygon fill="#ffffff" stroke="#000000" points="124,-146.5 124,-165.5 211,-165.5 211,-146.5 124,-146.5"/>
<text text-anchor="middle" x="167.5" y="-153.5" font-family="Helvetica,sans-Serif" font-size="10.00" fill="#000000">jaeger_list_node</text>
</a>
</g>
</g>
<!-- Node4&#45;&gt;Node2 -->
<g id="edge3" class="edge">
<title>Node4&#45;&gt;Node2</title>
<path fill="none" stroke="#9a32cd" stroke-dasharray="5,2" d="M143.3274,-140.7802C122.2769,-127.5262 92.4147,-108.7241 74.5969,-97.5054"/>
<polygon fill="#9a32cd" stroke="#9a32cd" points="141.699,-143.8909 152.0262,-146.2573 145.4288,-137.9673 141.699,-143.8909"/>
<text text-anchor="middle" x="132" y="-119" font-family="Helvetica,sans-Serif" font-size="10.00" fill="#000000"> base</text>
</g>
<!-- Node4&#45;&gt;Node4 -->
<g id="edge5" class="edge">
<title>Node4&#45;&gt;Node4</title>
<path fill="none" stroke="#9a32cd" stroke-dasharray="5,2" d="M221.3202,-160.1251C226.043,-159.2549 229,-157.8799 229,-156 229,-152.9922 221.4301,-151.2768 211.1694,-150.8538"/>
<polygon fill="#9a32cd" stroke="#9a32cd" points="220.7688,-156.6628 211.1694,-161.1462 221.4695,-163.6277 220.7688,-156.6628"/>
<text text-anchor="middle" x="240" y="-159" font-family="Helvetica,sans-Serif" font-size="10.00" fill="#000000"> prev</text>
<text text-anchor="middle" x="240" y="-148" font-family="Helvetica,sans-Serif" font-size="10.00" fill="#000000">next</text>
</g>
<!-- Node6 -->
<g id="node6" class="node">
<title>Node6</title>
<g id="a_node6"><a xlink:href="structjaeger__list.html" target="_top" xlink:title="Linked list implementation. ">
<polygon fill="#ffffff" stroke="#000000" points="137,-78.5 137,-97.5 198,-97.5 198,-78.5 137,-78.5"/>
<text text-anchor="middle" x="167.5" y="-85.5" font-family="Helvetica,sans-Serif" font-size="10.00" fill="#000000">jaeger_list</text>
</a>
</g>
</g>
<!-- Node4&#45;&gt;Node6 -->
<g id="edge7" class="edge">
<title>Node4&#45;&gt;Node6</title>
<path fill="none" stroke="#9a32cd" stroke-dasharray="5,2" d="M167.5,-136.1951C167.5,-123.5514 167.5,-107.7157 167.5,-97.7247"/>
<polygon fill="#9a32cd" stroke="#9a32cd" points="164.0001,-136.2572 167.5,-146.2573 171.0001,-136.2573 164.0001,-136.2572"/>
<text text-anchor="middle" x="180" y="-119" font-family="Helvetica,sans-Serif" font-size="10.00" fill="#000000"> head</text>
</g>
<!-- Node5 -->
<g id="node5" class="node">
<title>Node5</title>
<polygon fill="#ffffff" stroke="#bfbfbf" points="118.5,-204.5 118.5,-223.5 216.5,-223.5 216.5,-204.5 118.5,-204.5"/>
<text text-anchor="middle" x="167.5" y="-211.5" font-family="Helvetica,sans-Serif" font-size="10.00" fill="#000000">jaeger_destructible</text>
</g>
<!-- Node5&#45;&gt;Node4 -->
<g id="edge4" class="edge">
<title>Node5&#45;&gt;Node4</title>
<path fill="none" stroke="#191970" d="M167.5,-194.153C167.5,-184.5796 167.5,-173.5235 167.5,-165.7856"/>
<polygon fill="#191970" stroke="#191970" points="164.0001,-194.4224 167.5,-204.4225 171.0001,-194.4225 164.0001,-194.4224"/>
</g>
<!-- Node6&#45;&gt;Node1 -->
<g id="edge6" class="edge">
<title>Node6&#45;&gt;Node1</title>
<path fill="none" stroke="#9a32cd" stroke-dasharray="5,2" d="M154.2217,-70.1727C145.1925,-58.0502 133.3749,-42.1838 124.7976,-30.668"/>
<polygon fill="#9a32cd" stroke="#9a32cd" points="151.4369,-72.2932 160.2173,-78.2223 157.0508,-68.1117 151.4369,-72.2932"/>
<text text-anchor="middle" x="161" y="-52" font-family="Helvetica,sans-Serif" font-size="10.00" fill="#000000"> bucket</text>
</g>
</g>
</svg>
