<?xml version="1.0" encoding="UTF-8" standalone="no"?>
<!DOCTYPE svg PUBLIC "-//W3C//DTD SVG 1.1//EN"
 "http://www.w3.org/Graphics/SVG/1.1/DTD/svg11.dtd">
<!-- Generated by graphviz version 2.40.1 (20161225.0304)
 -->
<!-- Title: _Jaegertracing__Protobuf__SamplingManager__SamplingStrategyResponse Pages: 1 -->
<svg width="1097pt" height="80pt"
 viewBox="0.00 0.00 1097.00 80.00" xmlns="http://www.w3.org/2000/svg" xmlns:xlink="http://www.w3.org/1999/xlink">
<g id="graph0" class="graph" transform="scale(1 1) rotate(0) translate(4 76)">
<title>_Jaegertracing__Protobuf__SamplingManager__SamplingStrategyResponse</title>
<polygon fill="#ffffff" stroke="transparent" points="-4,4 -4,-76 1093,-76 1093,4 -4,4"/>
<!-- Node1 -->
<g id="node1" class="node">
<title>Node1</title>
<polygon fill="#bfbfbf" stroke="#000000" points="896,-30.5 896,-71.5 1089,-71.5 1089,-30.5 896,-30.5"/>
<text text-anchor="start" x="904" y="-59.5" font-family="Helvetica,sans-Serif" font-size="10.00" fill="#000000">_Jaegertracing__Protobuf</text>
<text text-anchor="start" x="904" y="-48.5" font-family="Helvetica,sans-Serif" font-size="10.00" fill="#000000">__SamplingManager__SamplingStrategy</text>
<text text-anchor="middle" x="992.5" y="-37.5" font-family="Helvetica,sans-Serif" font-size="10.00" fill="#000000">Response</text>
</g>
<!-- Node2 -->
<g id="node2" class="node">
<title>Node2</title>
<g id="a_node2"><a xlink:href="struct__Jaegertracing____Protobuf____SamplingManager____RateLimitingSamplingStrategy.html" target="_top" xlink:title="_Jaegertracing__Protobuf\l__SamplingManager__RateLimiting\lSamplingStrategy">
<polygon fill="#ffffff" stroke="#000000" points="0,-25.5 0,-66.5 170,-66.5 170,-25.5 0,-25.5"/>
<text text-anchor="start" x="8" y="-54.5" font-family="Helvetica,sans-Serif" font-size="10.00" fill="#000000">_Jaegertracing__Protobuf</text>
<text text-anchor="start" x="8" y="-43.5" font-family="Helvetica,sans-Serif" font-size="10.00" fill="#000000">__SamplingManager__RateLimiting</text>
<text text-anchor="middle" x="85" y="-32.5" font-family="Helvetica,sans-Serif" font-size="10.00" fill="#000000">SamplingStrategy</text>
</a>
</g>
</g>
<!-- Node2&#45;&gt;Node1 -->
<g id="edge1" class="edge">
<title>Node2&#45;&gt;Node1</title>
<path fill="none" stroke="#9a32cd" stroke-dasharray="5,2" d="M180.2723,-50.7794C182.8755,-50.8603 185.4553,-50.9342 188,-51 467.0193,-58.2129 536.8878,-52.5556 816,-53 843.5555,-53.0439 850.4455,-53.2406 878,-53 883.8648,-52.9488 889.8984,-52.8828 895.984,-52.8062"/>
<polygon fill="#9a32cd" stroke="#9a32cd" points="180.2543,-47.2769 170.141,-50.4349 180.0163,-54.2728 180.2543,-47.2769"/>
<text text-anchor="middle" x="555.5" y="-57" font-family="Helvetica,sans-Serif" font-size="10.00" fill="#000000"> rate_limiting</text>
</g>
<!-- Node4 -->
<g id="node4" class="node">
<title>Node4</title>
<g id="a_node4"><a xlink:href="struct__Jaegertracing____Protobuf____SamplingManager____PerOperationSamplingStrategy____OperationSamplingStrategy.html" target="_top" xlink:title="_Jaegertracing__Protobuf\l__SamplingManager__PerOperation\lSamplingStrategy__OperationSamplingStrategy">
<polygon fill="#ffffff" stroke="#000000" points="262,-.5 262,-41.5 486,-41.5 486,-.5 262,-.5"/>
<text text-anchor="start" x="270" y="-29.5" font-family="Helvetica,sans-Serif" font-size="10.00" fill="#000000">_Jaegertracing__Protobuf</text>
<text text-anchor="start" x="270" y="-18.5" font-family="Helvetica,sans-Serif" font-size="10.00" fill="#000000">__SamplingManager__PerOperation</text>
<text text-anchor="middle" x="374" y="-7.5" font-family="Helvetica,sans-Serif" font-size="10.00" fill="#000000">SamplingStrategy__OperationSamplingStrategy</text>
</a>
</g>
</g>
<!-- Node2&#45;&gt;Node4 -->
<g id="edge4" class="edge">
<title>Node2&#45;&gt;Node4</title>
<path fill="none" stroke="#9a32cd" stroke-dasharray="5,2" d="M180.3904,-37.7482C206.4588,-35.4932 234.9475,-33.0288 261.8579,-30.7009"/>
<polygon fill="#9a32cd" stroke="#9a32cd" points="179.8076,-34.2855 170.1464,-38.6344 180.4109,-41.2594 179.8076,-34.2855"/>
<text text-anchor="middle" x="216" y="-39" font-family="Helvetica,sans-Serif" font-size="10.00" fill="#000000"> rate_limiting</text>
</g>
<!-- Node3 -->
<g id="node3" class="node">
<title>Node3</title>
<g id="a_node3"><a xlink:href="struct__Jaegertracing____Protobuf____SamplingManager____PerOperationSamplingStrategy.html" target="_top" xlink:title="_Jaegertracing__Protobuf\l__SamplingManager__PerOperation\lSamplingStrategy">
<polygon fill="#ffffff" stroke="#000000" points="625,-.5 625,-41.5 798,-41.5 798,-.5 625,-.5"/>
<text text-anchor="start" x="633" y="-29.5" font-family="Helvetica,sans-Serif" font-size="10.00" fill="#000000">_Jaegertracing__Protobuf</text>
<text text-anchor="start" x="633" y="-18.5" font-family="Helvetica,sans-Serif" font-size="10.00" fill="#000000">__SamplingManager__PerOperation</text>
<text text-anchor="middle" x="711.5" y="-7.5" font-family="Helvetica,sans-Serif" font-size="10.00" fill="#000000">SamplingStrategy</text>
</a>
</g>
</g>
<!-- Node3&#45;&gt;Node1 -->
<g id="edge2" class="edge">
<title>Node3&#45;&gt;Node1</title>
<path fill="none" stroke="#9a32cd" stroke-dasharray="5,2" d="M808.3994,-31.3451C836.6973,-34.3663 867.6144,-37.667 895.8941,-40.6862"/>
<polygon fill="#9a32cd" stroke="#9a32cd" points="808.4172,-27.8272 798.1021,-30.2458 807.674,-34.7877 808.4172,-27.8272"/>
<text text-anchor="middle" x="847" y="-41" font-family="Helvetica,sans-Serif" font-size="10.00" fill="#000000"> per_operation</text>
</g>
<!-- Node4&#45;&gt;Node3 -->
<g id="edge3" class="edge">
<title>Node4&#45;&gt;Node3</title>
<path fill="none" stroke="#9a32cd" stroke-dasharray="5,2" d="M496.5318,-21C539.0975,-21 585.9143,-21 624.9603,-21"/>
<polygon fill="#9a32cd" stroke="#9a32cd" points="496.3826,-17.5001 486.3826,-21 496.3826,-24.5001 496.3826,-17.5001"/>
<text text-anchor="middle" x="555.5" y="-24" font-family="Helvetica,sans-Serif" font-size="10.00" fill="#000000"> per_operation_strategy</text>
</g>
</g>
</svg>
