<?xml version="1.0" encoding="UTF-8" standalone="no"?>
<!DOCTYPE svg PUBLIC "-//W3C//DTD SVG 1.1//EN"
 "http://www.w3.org/Graphics/SVG/1.1/DTD/svg11.dtd">
<!-- Generated by graphviz version 2.40.1 (20161225.0304)
 -->
<!-- Title: jaeger_span Pages: 1 -->
<svg width="821pt" height="301pt"
 viewBox="0.00 0.00 821.00 301.00" xmlns="http://www.w3.org/2000/svg" xmlns:xlink="http://www.w3.org/1999/xlink">
<g id="graph0" class="graph" transform="scale(1 1) rotate(0) translate(4 297)">
<title>jaeger_span</title>
<polygon fill="#ffffff" stroke="transparent" points="-4,4 -4,-297 817,-297 817,4 -4,4"/>
<!-- Node1 -->
<g id="node1" class="node">
<title>Node1</title>
<polygon fill="#bfbfbf" stroke="#000000" points="744,-60.5 744,-79.5 813,-79.5 813,-60.5 744,-60.5"/>
<text text-anchor="middle" x="778.5" y="-67.5" font-family="Helvetica,sans-Serif" font-size="10.00" fill="#000000">jaeger_span</text>
</g>
<!-- Node2 -->
<g id="node2" class="node">
<title>Node2</title>
<g id="a_node2"><a xlink:href="structjaeger__vector.html" target="_top" xlink:title="jaeger_vector">
<polygon fill="#ffffff" stroke="#000000" points="394.5,-60.5 394.5,-79.5 469.5,-79.5 469.5,-60.5 394.5,-60.5"/>
<text text-anchor="middle" x="432" y="-67.5" font-family="Helvetica,sans-Serif" font-size="10.00" fill="#000000">jaeger_vector</text>
</a>
</g>
</g>
<!-- Node2&#45;&gt;Node1 -->
<g id="edge1" class="edge">
<title>Node2&#45;&gt;Node1</title>
<path fill="none" stroke="#9a32cd" stroke-dasharray="5,2" d="M480.1665,-70C551.0455,-70 681.7463,-70 743.9072,-70"/>
<polygon fill="#9a32cd" stroke="#9a32cd" points="479.7412,-66.5001 469.7412,-70 479.7411,-73.5001 479.7412,-66.5001"/>
<text text-anchor="middle" x="618.5" y="-95" font-family="Helvetica,sans-Serif" font-size="10.00" fill="#000000"> refs</text>
<text text-anchor="middle" x="618.5" y="-84" font-family="Helvetica,sans-Serif" font-size="10.00" fill="#000000">tags</text>
<text text-anchor="middle" x="618.5" y="-73" font-family="Helvetica,sans-Serif" font-size="10.00" fill="#000000">logs</text>
</g>
<!-- Node3 -->
<g id="node3" class="node">
<title>Node3</title>
<g id="a_node3"><a xlink:href="structjaeger__tracer.html" target="_top" xlink:title="Tracer implementation. ">
<polygon fill="#ffffff" stroke="#000000" points="582,-161.5 582,-180.5 655,-180.5 655,-161.5 582,-161.5"/>
<text text-anchor="middle" x="618.5" y="-168.5" font-family="Helvetica,sans-Serif" font-size="10.00" fill="#000000">jaeger_tracer</text>
</a>
</g>
</g>
<!-- Node2&#45;&gt;Node3 -->
<g id="edge9" class="edge">
<title>Node2&#45;&gt;Node3</title>
<path fill="none" stroke="#9a32cd" stroke-dasharray="5,2" d="M459.3739,-84.3001C482.7317,-96.5548 517.1734,-114.749 547,-131 565.7351,-141.2078 587.0626,-153.1863 601.5123,-161.3558"/>
<polygon fill="#9a32cd" stroke="#9a32cd" points="460.8737,-81.1347 450.3916,-79.5937 457.6249,-87.3351 460.8737,-81.1347"/>
<text text-anchor="middle" x="527" y="-134" font-family="Helvetica,sans-Serif" font-size="10.00" fill="#000000"> tags</text>
</g>
<!-- Node12 -->
<g id="node12" class="node">
<title>Node12</title>
<g id="a_node12"><a xlink:href="structjaeger__span__context.html" target="_top" xlink:title="Span context represents propagated span identity and state. ">
<polygon fill="#ffffff" stroke="#000000" points="565,-14.5 565,-33.5 672,-33.5 672,-14.5 565,-14.5"/>
<text text-anchor="middle" x="618.5" y="-21.5" font-family="Helvetica,sans-Serif" font-size="10.00" fill="#000000">jaeger_span_context</text>
</a>
</g>
</g>
<!-- Node2&#45;&gt;Node12 -->
<g id="edge14" class="edge">
<title>Node2&#45;&gt;Node12</title>
<path fill="none" stroke="#9a32cd" stroke-dasharray="5,2" d="M467.3248,-57.1292C479.7571,-52.8925 493.8967,-48.4011 507,-45 525.6849,-40.1502 546.4039,-35.936 564.8616,-32.5816"/>
<polygon fill="#9a32cd" stroke="#9a32cd" points="466.071,-53.8595 457.7728,-60.4467 468.3676,-60.4721 466.071,-53.8595"/>
<text text-anchor="middle" x="527" y="-48" font-family="Helvetica,sans-Serif" font-size="10.00" fill="#000000"> baggage</text>
</g>
<!-- Node3&#45;&gt;Node1 -->
<g id="edge2" class="edge">
<title>Node3&#45;&gt;Node1</title>
<path fill="none" stroke="#9a32cd" stroke-dasharray="5,2" d="M642.2137,-156.0307C675.584,-134.9657 735.4385,-97.1825 763.371,-79.5502"/>
<polygon fill="#9a32cd" stroke="#9a32cd" points="640.1403,-153.2005 633.5524,-161.4982 643.8769,-159.1198 640.1403,-153.2005"/>
<text text-anchor="middle" x="708" y="-126" font-family="Helvetica,sans-Serif" font-size="10.00" fill="#000000"> tracer</text>
</g>
<!-- Node4 -->
<g id="node4" class="node">
<title>Node4</title>
<g id="a_node4"><a xlink:href="structjaeger__tracer__options.html" target="_top" xlink:title="Options that can be used to customize the tracer. ">
<polygon fill="#ffffff" stroke="#000000" points="377,-159.5 377,-178.5 487,-178.5 487,-159.5 377,-159.5"/>
<text text-anchor="middle" x="432" y="-166.5" font-family="Helvetica,sans-Serif" font-size="10.00" fill="#000000">jaeger_tracer_options</text>
</a>
</g>
</g>
<!-- Node4&#45;&gt;Node3 -->
<g id="edge3" class="edge">
<title>Node4&#45;&gt;Node3</title>
<path fill="none" stroke="#9a32cd" stroke-dasharray="5,2" d="M497.422,-169.7016C525.6903,-170.0047 557.7145,-170.3481 581.7249,-170.6056"/>
<polygon fill="#9a32cd" stroke="#9a32cd" points="497.2362,-166.1995 487.1992,-169.5919 497.161,-173.1991 497.2362,-166.1995"/>
<text text-anchor="middle" x="527" y="-173" font-family="Helvetica,sans-Serif" font-size="10.00" fill="#000000"> options</text>
</g>
<!-- Node5 -->
<g id="node5" class="node">
<title>Node5</title>
<g id="a_node5"><a xlink:href="structjaeger__metrics.html" target="_top" xlink:title="jaeger_metrics">
<polygon fill="#ffffff" stroke="#000000" points="392,-121.5 392,-140.5 472,-140.5 472,-121.5 392,-121.5"/>
<text text-anchor="middle" x="432" y="-128.5" font-family="Helvetica,sans-Serif" font-size="10.00" fill="#000000">jaeger_metrics</text>
</a>
</g>
</g>
<!-- Node5&#45;&gt;Node3 -->
<g id="edge4" class="edge">
<title>Node5&#45;&gt;Node3</title>
<path fill="none" stroke="#9a32cd" stroke-dasharray="5,2" d="M482.1752,-140.6275C502.3535,-144.6054 525.8159,-149.3648 547,-154 558.3426,-156.4818 570.6559,-159.3473 581.8166,-162.0101"/>
<polygon fill="#9a32cd" stroke="#9a32cd" points="482.7425,-137.1721 472.2559,-138.6825 481.3955,-144.0413 482.7425,-137.1721"/>
<text text-anchor="middle" x="527" y="-157" font-family="Helvetica,sans-Serif" font-size="10.00" fill="#000000"> metrics</text>
</g>
<!-- Node6 -->
<g id="node6" class="node">
<title>Node6</title>
<g id="a_node6"><a xlink:href="structjaeger__counter.html" target="_top" xlink:title="Counter metric interface. ">
<polygon fill="#ffffff" stroke="#000000" points="135,-139.5 135,-158.5 215,-158.5 215,-139.5 135,-139.5"/>
<text text-anchor="middle" x="175" y="-146.5" font-family="Helvetica,sans-Serif" font-size="10.00" fill="#000000">jaeger_counter</text>
</a>
</g>
</g>
<!-- Node6&#45;&gt;Node5 -->
<g id="edge5" class="edge">
<title>Node6&#45;&gt;Node5</title>
<path fill="none" stroke="#9a32cd" stroke-dasharray="5,2" d="M225.1521,-145.4874C273.8075,-142.0796 346.7004,-136.9743 391.7025,-133.8224"/>
<polygon fill="#9a32cd" stroke="#9a32cd" points="224.8872,-141.9973 215.1563,-146.1875 225.3764,-148.9802 224.8872,-141.9973"/>
<text text-anchor="middle" x="295" y="-268" font-family="Helvetica,sans-Serif" font-size="10.00" fill="#000000"> traces_started_sampled</text>
<text text-anchor="start" x="233" y="-257" font-family="Helvetica,sans-Serif" font-size="10.00" fill="#000000">baggage_restrictions</text>
<text text-anchor="middle" x="295" y="-246" font-family="Helvetica,sans-Serif" font-size="10.00" fill="#000000">_update_success</text>
<text text-anchor="middle" x="295" y="-235" font-family="Helvetica,sans-Serif" font-size="10.00" fill="#000000">traces_started_not_sampled</text>
<text text-anchor="middle" x="295" y="-224" font-family="Helvetica,sans-Serif" font-size="10.00" fill="#000000">reporter_failure</text>
<text text-anchor="middle" x="295" y="-213" font-family="Helvetica,sans-Serif" font-size="10.00" fill="#000000">spans_finished</text>
<text text-anchor="middle" x="295" y="-202" font-family="Helvetica,sans-Serif" font-size="10.00" fill="#000000">sampler_query_failure</text>
<text text-anchor="middle" x="295" y="-191" font-family="Helvetica,sans-Serif" font-size="10.00" fill="#000000">reporter_dropped</text>
<text text-anchor="middle" x="295" y="-180" font-family="Helvetica,sans-Serif" font-size="10.00" fill="#000000">spans_started</text>
<text text-anchor="middle" x="295" y="-169" font-family="Helvetica,sans-Serif" font-size="10.00" fill="#000000">sampler_retrieved</text>
<text text-anchor="middle" x="295" y="-158" font-family="Helvetica,sans-Serif" font-size="10.00" fill="#000000">baggage_update_failure</text>
<text text-anchor="middle" x="295" y="-147" font-family="Helvetica,sans-Serif" font-size="10.00" fill="#000000">...</text>
</g>
<!-- Node7 -->
<g id="node7" class="node">
<title>Node7</title>
<polygon fill="#ffffff" stroke="#bfbfbf" points="0,-119.5 0,-138.5 98,-138.5 98,-119.5 0,-119.5"/>
<text text-anchor="middle" x="49" y="-126.5" font-family="Helvetica,sans-Serif" font-size="10.00" fill="#000000">jaeger_destructible</text>
</g>
<!-- Node7&#45;&gt;Node6 -->
<g id="edge6" class="edge">
<title>Node7&#45;&gt;Node6</title>
<path fill="none" stroke="#191970" d="M108.1757,-138.393C117.196,-139.8248 126.3212,-141.2732 134.8081,-142.6203"/>
<polygon fill="#191970" stroke="#191970" points="108.5008,-134.9008 98.0757,-136.7898 107.4033,-141.8143 108.5008,-134.9008"/>
</g>
<!-- Node8 -->
<g id="node8" class="node">
<title>Node8</title>
<g id="a_node8"><a xlink:href="structjaeger__gauge.html" target="_top" xlink:title="Gauge metric interface. ">
<polygon fill="#ffffff" stroke="#000000" points="138,-101.5 138,-120.5 212,-120.5 212,-101.5 138,-101.5"/>
<text text-anchor="middle" x="175" y="-108.5" font-family="Helvetica,sans-Serif" font-size="10.00" fill="#000000">jaeger_gauge</text>
</a>
</g>
</g>
<!-- Node7&#45;&gt;Node8 -->
<g id="edge8" class="edge">
<title>Node7&#45;&gt;Node8</title>
<path fill="none" stroke="#191970" d="M108.1492,-120.5501C118.3068,-119.099 128.5983,-117.6288 137.9623,-116.2911"/>
<polygon fill="#191970" stroke="#191970" points="107.4802,-117.1101 98.0757,-121.9892 108.4702,-124.0397 107.4802,-117.1101"/>
</g>
<!-- Node8&#45;&gt;Node5 -->
<g id="edge7" class="edge">
<title>Node8&#45;&gt;Node5</title>
<path fill="none" stroke="#9a32cd" stroke-dasharray="5,2" d="M222.4288,-112.5966C259.2009,-114.0784 311.4061,-116.7144 357,-121 368.3782,-122.0695 380.6848,-123.567 391.9747,-125.0781"/>
<polygon fill="#9a32cd" stroke="#9a32cd" points="222.1402,-109.0828 212.0115,-112.191 221.8678,-116.0775 222.1402,-109.0828"/>
<text text-anchor="middle" x="295" y="-124" font-family="Helvetica,sans-Serif" font-size="10.00" fill="#000000"> reporter_queue_length</text>
</g>
<!-- Node9 -->
<g id="node9" class="node">
<title>Node9</title>
<g id="a_node9"><a xlink:href="structjaeger__headers__config.html" target="_top" xlink:title="HTTP headers to use for span context propagation. ">
<polygon fill="#ffffff" stroke="#000000" points="375,-273.5 375,-292.5 489,-292.5 489,-273.5 375,-273.5"/>
<text text-anchor="middle" x="432" y="-280.5" font-family="Helvetica,sans-Serif" font-size="10.00" fill="#000000">jaeger_headers_config</text>
</a>
</g>
</g>
<!-- Node9&#45;&gt;Node3 -->
<g id="edge10" class="edge">
<title>Node9&#45;&gt;Node3</title>
<path fill="none" stroke="#9a32cd" stroke-dasharray="5,2" d="M472.7898,-270.1112C478.2792,-268.1709 483.8053,-266.1096 489,-264 515.521,-253.2298 523.2753,-252.0155 547,-236 571.7498,-219.2925 596.6492,-194.394 609.5247,-180.7725"/>
<polygon fill="#9a32cd" stroke="#9a32cd" points="471.353,-266.9038 463.0283,-273.4574 473.6229,-273.5255 471.353,-266.9038"/>
<text text-anchor="middle" x="527" y="-259" font-family="Helvetica,sans-Serif" font-size="10.00" fill="#000000"> headers</text>
</g>
<!-- Node10 -->
<g id="node10" class="node">
<title>Node10</title>
<g id="a_node10"><a xlink:href="structjaeger__reporter.html" target="_top" xlink:title="jaeger_reporter">
<polygon fill="#ffffff" stroke="#000000" points="391.5,-235.5 391.5,-254.5 472.5,-254.5 472.5,-235.5 391.5,-235.5"/>
<text text-anchor="middle" x="432" y="-242.5" font-family="Helvetica,sans-Serif" font-size="10.00" fill="#000000">jaeger_reporter</text>
</a>
</g>
</g>
<!-- Node10&#45;&gt;Node3 -->
<g id="edge11" class="edge">
<title>Node10&#45;&gt;Node3</title>
<path fill="none" stroke="#9a32cd" stroke-dasharray="5,2" d="M474.8531,-232.4898C496.7235,-225.6918 523.5844,-216.7015 547,-207 566.0024,-199.1269 586.9306,-188.3249 601.2068,-180.6119"/>
<polygon fill="#9a32cd" stroke="#9a32cd" points="473.7208,-229.176 465.186,-235.4536 475.7727,-235.8686 473.7208,-229.176"/>
<text text-anchor="middle" x="527" y="-224" font-family="Helvetica,sans-Serif" font-size="10.00" fill="#000000"> reporter</text>
</g>
<!-- Node11 -->
<g id="node11" class="node">
<title>Node11</title>
<g id="a_node11"><a xlink:href="structjaeger__sampler.html" target="_top" xlink:title="jaeger_sampler">
<polygon fill="#ffffff" stroke="#000000" points="390.5,-197.5 390.5,-216.5 473.5,-216.5 473.5,-197.5 390.5,-197.5"/>
<text text-anchor="middle" x="432" y="-204.5" font-family="Helvetica,sans-Serif" font-size="10.00" fill="#000000">jaeger_sampler</text>
</a>
</g>
</g>
<!-- Node11&#45;&gt;Node3 -->
<g id="edge12" class="edge">
<title>Node11&#45;&gt;Node3</title>
<path fill="none" stroke="#9a32cd" stroke-dasharray="5,2" d="M483.5939,-197.1793C503.4218,-193.3921 526.2666,-189.013 547,-185 558.3008,-182.8127 570.602,-180.4114 581.7645,-178.2247"/>
<polygon fill="#9a32cd" stroke="#9a32cd" points="482.6938,-193.7878 473.5273,-199.1006 484.0062,-200.6637 482.6938,-193.7878"/>
<text text-anchor="middle" x="527" y="-195" font-family="Helvetica,sans-Serif" font-size="10.00" fill="#000000"> sampler</text>
</g>
<!-- Node12&#45;&gt;Node1 -->
<g id="edge13" class="edge">
<title>Node12&#45;&gt;Node1</title>
<path fill="none" stroke="#9a32cd" stroke-dasharray="5,2" d="M682.1729,-33.6931C696.7548,-36.6667 712.061,-40.4014 726,-45 738.0796,-48.9852 750.9864,-55.1037 760.9798,-60.2901"/>
<polygon fill="#9a32cd" stroke="#9a32cd" points="682.7039,-30.2308 672.2192,-31.7548 681.3658,-37.1017 682.7039,-30.2308"/>
<text text-anchor="middle" x="708" y="-48" font-family="Helvetica,sans-Serif" font-size="10.00" fill="#000000"> context</text>
</g>
<!-- Node13 -->
<g id="node13" class="node">
<title>Node13</title>
<g id="a_node13"><a xlink:href="structjaeger__trace__id.html" target="_top" xlink:title="128 bit unique ID for a given trace. ">
<polygon fill="#ffffff" stroke="#000000" points="390.5,-.5 390.5,-19.5 473.5,-19.5 473.5,-.5 390.5,-.5"/>
<text text-anchor="middle" x="432" y="-7.5" font-family="Helvetica,sans-Serif" font-size="10.00" fill="#000000">jaeger_trace_id</text>
</a>
</g>
</g>
<!-- Node13&#45;&gt;Node12 -->
<g id="edge15" class="edge">
<title>Node13&#45;&gt;Node12</title>
<path fill="none" stroke="#9a32cd" stroke-dasharray="5,2" d="M483.6815,-8.5715C503.52,-8.5149 526.3493,-9.0474 547,-11 555.29,-11.7839 564.058,-13.0276 572.5063,-14.442"/>
<polygon fill="#9a32cd" stroke="#9a32cd" points="483.5794,-5.0721 473.6071,-8.6504 483.6343,-12.0719 483.5794,-5.0721"/>
<text text-anchor="middle" x="527" y="-14" font-family="Helvetica,sans-Serif" font-size="10.00" fill="#000000"> trace_id</text>
</g>
</g>
</svg>
