<?xml version="1.0" encoding="UTF-8" standalone="no"?>
<!DOCTYPE svg PUBLIC "-//W3C//DTD SVG 1.1//EN"
 "http://www.w3.org/Graphics/SVG/1.1/DTD/svg11.dtd">
<!-- Generated by graphviz version 2.40.1 (20161225.0304)
 -->
<!-- Title: jaeger_sampler_choice Pages: 1 -->
<svg width="827pt" height="275pt"
 viewBox="0.00 0.00 827.00 274.50" xmlns="http://www.w3.org/2000/svg" xmlns:xlink="http://www.w3.org/1999/xlink">
<g id="graph0" class="graph" transform="scale(1 1) rotate(0) translate(4 270.5)">
<title>jaeger_sampler_choice</title>
<polygon fill="#ffffff" stroke="transparent" points="-4,4 -4,-270.5 823,-270.5 823,4 -4,4"/>
<!-- Node1 -->
<g id="node1" class="node">
<title>Node1</title>
<polygon fill="#bfbfbf" stroke="#000000" points="703,-120 703,-139 819,-139 819,-120 703,-120"/>
<text text-anchor="middle" x="761" y="-127" font-family="Helvetica,sans-Serif" font-size="10.00" fill="#000000">jaeger_sampler_choice</text>
</g>
<!-- Node2 -->
<g id="node2" class="node">
<title>Node2</title>
<g id="a_node2"><a xlink:href="structjaeger__const__sampler.html" target="_top" xlink:title="jaeger_const_sampler">
<polygon fill="#ffffff" stroke="#000000" points="287,-247 287,-266 399,-266 399,-247 287,-247"/>
<text text-anchor="middle" x="343" y="-254" font-family="Helvetica,sans-Serif" font-size="10.00" fill="#000000">jaeger_const_sampler</text>
</a>
</g>
</g>
<!-- Node2&#45;&gt;Node1 -->
<g id="edge1" class="edge">
<title>Node2&#45;&gt;Node1</title>
<path fill="none" stroke="#9a32cd" stroke-dasharray="5,2" d="M409.2618,-247.5216C479.6283,-236.5058 593.1475,-214.452 685,-176.5 708.9444,-166.6065 733.9908,-149.62 748.5119,-139.0048"/>
<polygon fill="#9a32cd" stroke="#9a32cd" points="408.5532,-244.0893 399.2007,-249.0674 409.6162,-251.0081 408.5532,-244.0893"/>
<text text-anchor="middle" x="490.5" y="-248.5" font-family="Helvetica,sans-Serif" font-size="10.00" fill="#000000"> const_sampler</text>
</g>
<!-- Node3 -->
<g id="node3" class="node">
<title>Node3</title>
<g id="a_node3"><a xlink:href="structjaeger__sampler.html" target="_top" xlink:title="jaeger_sampler">
<polygon fill="#ffffff" stroke="#000000" points="12,-120 12,-139 95,-139 95,-120 12,-120"/>
<text text-anchor="middle" x="53.5" y="-127" font-family="Helvetica,sans-Serif" font-size="10.00" fill="#000000">jaeger_sampler</text>
</a>
</g>
</g>
<!-- Node3&#45;&gt;Node2 -->
<g id="edge2" class="edge">
<title>Node3&#45;&gt;Node2</title>
<path fill="none" stroke="#9a32cd" stroke-dasharray="5,2" d="M65.1549,-147.4286C83.4563,-173.8314 121.6712,-222.3266 168,-243.5 205.13,-260.4693 251.3373,-263.2357 286.9458,-262.0185"/>
<polygon fill="#9a32cd" stroke="#9a32cd" points="68.0252,-145.4249 59.5314,-139.092 62.2221,-149.3395 68.0252,-145.4249"/>
<text text-anchor="middle" x="137.5" y="-235.5" font-family="Helvetica,sans-Serif" font-size="10.00" fill="#000000"> base</text>
</g>
<!-- Node4 -->
<g id="node4" class="node">
<title>Node4</title>
<g id="a_node4"><a xlink:href="structjaeger__guaranteed__throughput__probabilistic__sampler.html" target="_top" xlink:title="jaeger_guaranteed_throughput\l_probabilistic_sampler">
<polygon fill="#ffffff" stroke="#000000" points="417,-58.5 417,-88.5 564,-88.5 564,-58.5 417,-58.5"/>
<text text-anchor="start" x="425" y="-76.5" font-family="Helvetica,sans-Serif" font-size="10.00" fill="#000000">jaeger_guaranteed_throughput</text>
<text text-anchor="middle" x="490.5" y="-65.5" font-family="Helvetica,sans-Serif" font-size="10.00" fill="#000000">_probabilistic_sampler</text>
</a>
</g>
</g>
<!-- Node3&#45;&gt;Node4 -->
<g id="edge6" class="edge">
<title>Node3&#45;&gt;Node4</title>
<path fill="none" stroke="#9a32cd" stroke-dasharray="5,2" d="M88.7585,-116.59C111.152,-108.9261 140.9182,-99.7153 168,-94.5 252.2966,-78.2665 351.0272,-73.9361 416.8284,-73.0793"/>
<polygon fill="#9a32cd" stroke="#9a32cd" points="87.3156,-113.3863 79.0245,-119.9824 89.6193,-119.9964 87.3156,-113.3863"/>
<text text-anchor="middle" x="218.5" y="-97.5" font-family="Helvetica,sans-Serif" font-size="10.00" fill="#000000"> base</text>
</g>
<!-- Node5 -->
<g id="node5" class="node">
<title>Node5</title>
<g id="a_node5"><a xlink:href="structjaeger__probabilistic__sampler.html" target="_top" xlink:title="jaeger_probabilistic\l_sampler">
<polygon fill="#ffffff" stroke="#000000" points="168.5,-114.5 168.5,-144.5 268.5,-144.5 268.5,-114.5 168.5,-114.5"/>
<text text-anchor="start" x="176.5" y="-132.5" font-family="Helvetica,sans-Serif" font-size="10.00" fill="#000000">jaeger_probabilistic</text>
<text text-anchor="middle" x="218.5" y="-121.5" font-family="Helvetica,sans-Serif" font-size="10.00" fill="#000000">_sampler</text>
</a>
</g>
</g>
<!-- Node3&#45;&gt;Node5 -->
<g id="edge5" class="edge">
<title>Node3&#45;&gt;Node5</title>
<path fill="none" stroke="#9a32cd" stroke-dasharray="5,2" d="M105.3617,-129.5C125.4675,-129.5 148.4031,-129.5 168.3436,-129.5"/>
<polygon fill="#9a32cd" stroke="#9a32cd" points="105.1365,-126.0001 95.1365,-129.5 105.1364,-133.0001 105.1365,-126.0001"/>
<text text-anchor="middle" x="137.5" y="-132.5" font-family="Helvetica,sans-Serif" font-size="10.00" fill="#000000"> base</text>
</g>
<!-- Node6 -->
<g id="node6" class="node">
<title>Node6</title>
<g id="a_node6"><a xlink:href="structjaeger__rate__limiting__sampler.html" target="_top" xlink:title="jaeger_rate_limiting\l_sampler">
<polygon fill="#ffffff" stroke="#000000" points="168,-.5 168,-30.5 269,-30.5 269,-.5 168,-.5"/>
<text text-anchor="start" x="176" y="-18.5" font-family="Helvetica,sans-Serif" font-size="10.00" fill="#000000">jaeger_rate_limiting</text>
<text text-anchor="middle" x="218.5" y="-7.5" font-family="Helvetica,sans-Serif" font-size="10.00" fill="#000000">_sampler</text>
</a>
</g>
</g>
<!-- Node3&#45;&gt;Node6 -->
<g id="edge9" class="edge">
<title>Node3&#45;&gt;Node6</title>
<path fill="none" stroke="#9a32cd" stroke-dasharray="5,2" d="M64.5789,-111.2912C77.0365,-92.2782 98.9645,-62.8586 125,-45.5 137.7658,-36.9887 153.1118,-30.754 167.6461,-26.2472"/>
<polygon fill="#9a32cd" stroke="#9a32cd" points="61.5013,-109.6089 59.1016,-119.9284 67.4128,-113.3577 61.5013,-109.6089"/>
<text text-anchor="middle" x="137.5" y="-48.5" font-family="Helvetica,sans-Serif" font-size="10.00" fill="#000000"> base</text>
</g>
<!-- Node8 -->
<g id="node8" class="node">
<title>Node8</title>
<g id="a_node8"><a xlink:href="structjaeger__adaptive__sampler.html" target="_top" xlink:title="jaeger_adaptive_sampler">
<polygon fill="#ffffff" stroke="#000000" points="428,-169 428,-188 553,-188 553,-169 428,-169"/>
<text text-anchor="middle" x="490.5" y="-176" font-family="Helvetica,sans-Serif" font-size="10.00" fill="#000000">jaeger_adaptive_sampler</text>
</a>
</g>
</g>
<!-- Node3&#45;&gt;Node8 -->
<g id="edge15" class="edge">
<title>Node3&#45;&gt;Node8</title>
<path fill="none" stroke="#9a32cd" stroke-dasharray="5,2" d="M104.7512,-141.2454C124.4784,-145.6203 147.245,-150.4925 168,-154.5 220.658,-164.6675 233.6015,-169.5151 287,-174.5 333.9703,-178.8848 387.293,-179.7841 427.5694,-179.6409"/>
<polygon fill="#9a32cd" stroke="#9a32cd" points="105.2613,-137.7732 94.7389,-139.0101 103.736,-144.605 105.2613,-137.7732"/>
<text text-anchor="middle" x="218.5" y="-175.5" font-family="Helvetica,sans-Serif" font-size="10.00" fill="#000000"> base</text>
</g>
<!-- Node4&#45;&gt;Node1 -->
<g id="edge3" class="edge">
<title>Node4&#45;&gt;Node1</title>
<path fill="none" stroke="#9a32cd" stroke-dasharray="5,2" d="M574.2204,-75.8792C608.9892,-78.4631 649.4413,-83.5661 685,-93.5 706.7952,-99.5889 730.0588,-111.5018 745.0227,-119.9541"/>
<polygon fill="#9a32cd" stroke="#9a32cd" points="574.3163,-72.3777 564.1003,-75.1855 573.8375,-79.3613 574.3163,-72.3777"/>
<text text-anchor="start" x="582" y="-107.5" font-family="Helvetica,sans-Serif" font-size="10.00" fill="#000000"> guaranteed_throughput</text>
<text text-anchor="middle" x="633.5" y="-96.5" font-family="Helvetica,sans-Serif" font-size="10.00" fill="#000000">_probabilistic_sampler</text>
</g>
<!-- Node5&#45;&gt;Node1 -->
<g id="edge10" class="edge">
<title>Node5&#45;&gt;Node1</title>
<path fill="none" stroke="#9a32cd" stroke-dasharray="5,2" d="M278.6869,-129.5C383.773,-129.5 599.3712,-129.5 702.943,-129.5"/>
<polygon fill="#9a32cd" stroke="#9a32cd" points="278.5647,-126.0001 268.5647,-129.5 278.5647,-133.0001 278.5647,-126.0001"/>
<text text-anchor="middle" x="490.5" y="-132.5" font-family="Helvetica,sans-Serif" font-size="10.00" fill="#000000"> probabilistic_sampler</text>
</g>
<!-- Node5&#45;&gt;Node4 -->
<g id="edge4" class="edge">
<title>Node5&#45;&gt;Node4</title>
<path fill="none" stroke="#9a32cd" stroke-dasharray="5,2" d="M265.3723,-111.004C272.5443,-108.5798 279.9174,-106.3127 287,-104.5 329.4114,-93.6454 377.8306,-86.0807 416.7967,-81.1428"/>
<polygon fill="#9a32cd" stroke="#9a32cd" points="264.038,-107.763 255.763,-114.3792 266.3579,-114.3674 264.038,-107.763"/>
<text text-anchor="middle" x="343" y="-107.5" font-family="Helvetica,sans-Serif" font-size="10.00" fill="#000000"> probabilistic_sampler</text>
</g>
<!-- Node5&#45;&gt;Node8 -->
<g id="edge14" class="edge">
<title>Node5&#45;&gt;Node8</title>
<path fill="none" stroke="#9a32cd" stroke-dasharray="5,2" d="M278.5507,-140.318C326.044,-148.8737 391.7266,-160.7063 437.3341,-168.9223"/>
<polygon fill="#9a32cd" stroke="#9a32cd" points="279.1681,-136.8729 268.706,-138.5445 277.927,-143.762 279.1681,-136.8729"/>
<text text-anchor="middle" x="343" y="-163.5" font-family="Helvetica,sans-Serif" font-size="10.00" fill="#000000"> default_sampler</text>
</g>
<!-- Node6&#45;&gt;Node1 -->
<g id="edge11" class="edge">
<title>Node6&#45;&gt;Node1</title>
<path fill="none" stroke="#9a32cd" stroke-dasharray="5,2" d="M279.2664,-10.5659C371.9035,-5.6744 551.729,-6.6843 685,-72.5 710.7312,-85.2073 736.5942,-106.9732 750.5226,-119.6132"/>
<polygon fill="#9a32cd" stroke="#9a32cd" points="279.0077,-7.0749 269.2229,-11.1378 279.4057,-14.0636 279.0077,-7.0749"/>
<text text-anchor="middle" x="490.5" y="-32.5" font-family="Helvetica,sans-Serif" font-size="10.00" fill="#000000"> rate_limiting_sampler</text>
</g>
<!-- Node6&#45;&gt;Node4 -->
<g id="edge7" class="edge">
<title>Node6&#45;&gt;Node4</title>
<path fill="none" stroke="#9a32cd" stroke-dasharray="5,2" d="M279.1645,-23.5379C314.3789,-28.7117 359.4552,-36.2062 399,-45.5 414.3633,-49.1107 430.9247,-53.8975 445.6793,-58.4902"/>
<polygon fill="#9a32cd" stroke="#9a32cd" points="279.4372,-20.041 269.0393,-22.074 278.4355,-26.9689 279.4372,-20.041"/>
<text text-anchor="middle" x="343" y="-48.5" font-family="Helvetica,sans-Serif" font-size="10.00" fill="#000000"> lower_bound_sampler</text>
</g>
<!-- Node7 -->
<g id="node7" class="node">
<title>Node7</title>
<g id="a_node7"><a xlink:href="structjaeger__token__bucket.html" target="_top" xlink:title="jaeger_token_bucket">
<polygon fill="#ffffff" stroke="#000000" points="0,-1 0,-20 107,-20 107,-1 0,-1"/>
<text text-anchor="middle" x="53.5" y="-8" font-family="Helvetica,sans-Serif" font-size="10.00" fill="#000000">jaeger_token_bucket</text>
</a>
</g>
</g>
<!-- Node7&#45;&gt;Node6 -->
<g id="edge8" class="edge">
<title>Node7&#45;&gt;Node6</title>
<path fill="none" stroke="#9a32cd" stroke-dasharray="5,2" d="M117.409,-10.7309C128.2859,-10.8937 139.468,-11.1381 150,-11.5 155.7147,-11.6963 161.6946,-11.9597 167.6393,-12.258"/>
<polygon fill="#9a32cd" stroke="#9a32cd" points="117.1495,-7.2274 107.1053,-10.5986 117.0595,-14.2268 117.1495,-7.2274"/>
<text text-anchor="middle" x="137.5" y="-14.5" font-family="Helvetica,sans-Serif" font-size="10.00" fill="#000000"> tok</text>
</g>
<!-- Node8&#45;&gt;Node1 -->
<g id="edge12" class="edge">
<title>Node8&#45;&gt;Node1</title>
<path fill="none" stroke="#9a32cd" stroke-dasharray="5,2" d="M553.6748,-167.1998C591.7298,-160.3759 641.1551,-151.4832 685,-143.5 692.9197,-142.058 701.3018,-140.5229 709.4945,-139.0175"/>
<polygon fill="#9a32cd" stroke="#9a32cd" points="552.9829,-163.7679 543.7573,-168.9775 554.218,-170.6581 552.9829,-163.7679"/>
<text text-anchor="middle" x="633.5" y="-164.5" font-family="Helvetica,sans-Serif" font-size="10.00" fill="#000000"> adaptive_sampler</text>
</g>
<!-- Node9 -->
<g id="node9" class="node">
<title>Node9</title>
<g id="a_node9"><a xlink:href="structjaeger__vector.html" target="_top" xlink:title="jaeger_vector">
<polygon fill="#ffffff" stroke="#000000" points="181,-215 181,-234 256,-234 256,-215 181,-215"/>
<text text-anchor="middle" x="218.5" y="-222" font-family="Helvetica,sans-Serif" font-size="10.00" fill="#000000">jaeger_vector</text>
</a>
</g>
</g>
<!-- Node9&#45;&gt;Node8 -->
<g id="edge13" class="edge">
<title>Node9&#45;&gt;Node8</title>
<path fill="none" stroke="#9a32cd" stroke-dasharray="5,2" d="M266.426,-220.4391C302.9594,-216.9142 354.4103,-211.0247 399,-202.5 419.002,-198.676 441.0947,-192.9257 458.5599,-188.0123"/>
<polygon fill="#9a32cd" stroke="#9a32cd" points="265.6922,-216.9926 256.0641,-221.4141 266.348,-223.9618 265.6922,-216.9926"/>
<text text-anchor="middle" x="343" y="-220.5" font-family="Helvetica,sans-Serif" font-size="10.00" fill="#000000"> op_samplers</text>
</g>
</g>
</svg>
