<?xml version="1.0" encoding="UTF-8" standalone="no"?>
<!DOCTYPE svg PUBLIC "-//W3C//DTD SVG 1.1//EN"
 "http://www.w3.org/Graphics/SVG/1.1/DTD/svg11.dtd">
<!-- Generated by graphviz version 2.40.1 (20161225.0304)
 -->
<!-- Title: jaeger_remote_reporter Pages: 1 -->
<svg width="479pt" height="351pt"
 viewBox="0.00 0.00 479.33 351.00" xmlns="http://www.w3.org/2000/svg" xmlns:xlink="http://www.w3.org/1999/xlink">
<g id="graph0" class="graph" transform="scale(1 1) rotate(0) translate(4 347)">
<title>jaeger_remote_reporter</title>
<polygon fill="#ffffff" stroke="transparent" points="-4,4 -4,-347 475.3341,-347 475.3341,4 -4,4"/>
<!-- Node1 -->
<g id="node1" class="node">
<title>Node1</title>
<polygon fill="#bfbfbf" stroke="#000000" points="178.3341,-.5 178.3341,-19.5 294.3341,-19.5 294.3341,-.5 178.3341,-.5"/>
<text text-anchor="middle" x="236.3341" y="-7.5" font-family="Helvetica,sans-Serif" font-size="10.00" fill="#000000">jaeger_remote_reporter</text>
</g>
<!-- Node2 -->
<g id="node2" class="node">
<title>Node2</title>
<g id="a_node2"><a xlink:href="structjaeger__metrics.html" target="_top" xlink:title="jaeger_metrics">
<polygon fill="#ffffff" stroke="#000000" points="52.3341,-73 52.3341,-92 132.3341,-92 132.3341,-73 52.3341,-73"/>
<text text-anchor="middle" x="92.3341" y="-80" font-family="Helvetica,sans-Serif" font-size="10.00" fill="#000000">jaeger_metrics</text>
</a>
</g>
</g>
<!-- Node2&#45;&gt;Node1 -->
<g id="edge1" class="edge">
<title>Node2&#45;&gt;Node1</title>
<path fill="none" stroke="#9a32cd" stroke-dasharray="5,2" d="M116.9923,-67.7165C132.3937,-58.7079 152.7603,-47.1993 171.3341,-38 184.7672,-31.3468 200.1591,-24.6758 212.5921,-19.515"/>
<polygon fill="#9a32cd" stroke="#9a32cd" points="114.9393,-64.8639 108.1048,-72.9596 118.4961,-70.893 114.9393,-64.8639"/>
<text text-anchor="middle" x="189.3341" y="-41" font-family="Helvetica,sans-Serif" font-size="10.00" fill="#000000"> metrics</text>
</g>
<!-- Node3 -->
<g id="node3" class="node">
<title>Node3</title>
<g id="a_node3"><a xlink:href="structjaeger__counter.html" target="_top" xlink:title="Counter metric interface. ">
<polygon fill="#ffffff" stroke="#000000" points="5.3341,-266.5 5.3341,-285.5 85.3341,-285.5 85.3341,-266.5 5.3341,-266.5"/>
<text text-anchor="middle" x="45.3341" y="-273.5" font-family="Helvetica,sans-Serif" font-size="10.00" fill="#000000">jaeger_counter</text>
</a>
</g>
</g>
<!-- Node3&#45;&gt;Node2 -->
<g id="edge2" class="edge">
<title>Node3&#45;&gt;Node2</title>
<path fill="none" stroke="#9a32cd" stroke-dasharray="5,2" d="M26.6798,-258.8624C24.0859,-255.5302 21.8076,-251.8626 20.3341,-248 -.5755,-193.1861 -11.2084,-165.4656 20.3341,-116 27.5984,-104.608 39.8523,-97.0287 52.211,-92.0125"/>
<polygon fill="#9a32cd" stroke="#9a32cd" points="24.1859,-261.3224 33.4988,-266.3741 29.3688,-256.6173 24.1859,-261.3224"/>
<text text-anchor="middle" x="82.3341" y="-240" font-family="Helvetica,sans-Serif" font-size="10.00" fill="#000000"> traces_started_sampled</text>
<text text-anchor="start" x="20.3341" y="-229" font-family="Helvetica,sans-Serif" font-size="10.00" fill="#000000">baggage_restrictions</text>
<text text-anchor="middle" x="82.3341" y="-218" font-family="Helvetica,sans-Serif" font-size="10.00" fill="#000000">_update_success</text>
<text text-anchor="middle" x="82.3341" y="-207" font-family="Helvetica,sans-Serif" font-size="10.00" fill="#000000">traces_started_not_sampled</text>
<text text-anchor="middle" x="82.3341" y="-196" font-family="Helvetica,sans-Serif" font-size="10.00" fill="#000000">reporter_failure</text>
<text text-anchor="middle" x="82.3341" y="-185" font-family="Helvetica,sans-Serif" font-size="10.00" fill="#000000">spans_finished</text>
<text text-anchor="middle" x="82.3341" y="-174" font-family="Helvetica,sans-Serif" font-size="10.00" fill="#000000">sampler_query_failure</text>
<text text-anchor="middle" x="82.3341" y="-163" font-family="Helvetica,sans-Serif" font-size="10.00" fill="#000000">reporter_dropped</text>
<text text-anchor="middle" x="82.3341" y="-152" font-family="Helvetica,sans-Serif" font-size="10.00" fill="#000000">spans_started</text>
<text text-anchor="middle" x="82.3341" y="-141" font-family="Helvetica,sans-Serif" font-size="10.00" fill="#000000">sampler_retrieved</text>
<text text-anchor="middle" x="82.3341" y="-130" font-family="Helvetica,sans-Serif" font-size="10.00" fill="#000000">baggage_update_failure</text>
<text text-anchor="middle" x="82.3341" y="-119" font-family="Helvetica,sans-Serif" font-size="10.00" fill="#000000">...</text>
</g>
<!-- Node4 -->
<g id="node4" class="node">
<title>Node4</title>
<polygon fill="#ffffff" stroke="#bfbfbf" points="43.3341,-323.5 43.3341,-342.5 141.3341,-342.5 141.3341,-323.5 43.3341,-323.5"/>
<text text-anchor="middle" x="92.3341" y="-330.5" font-family="Helvetica,sans-Serif" font-size="10.00" fill="#000000">jaeger_destructible</text>
</g>
<!-- Node4&#45;&gt;Node3 -->
<g id="edge3" class="edge">
<title>Node4&#45;&gt;Node3</title>
<path fill="none" stroke="#191970" d="M77.7807,-315.3501C69.666,-305.5089 59.8783,-293.6387 53.1893,-285.5265"/>
<polygon fill="#191970" stroke="#191970" points="75.299,-317.842 84.3612,-323.3307 80.6997,-313.3887 75.299,-317.842"/>
</g>
<!-- Node5 -->
<g id="node5" class="node">
<title>Node5</title>
<g id="a_node5"><a xlink:href="structjaeger__gauge.html" target="_top" xlink:title="Gauge metric interface. ">
<polygon fill="#ffffff" stroke="#000000" points="116.3341,-266.5 116.3341,-285.5 190.3341,-285.5 190.3341,-266.5 116.3341,-266.5"/>
<text text-anchor="middle" x="153.3341" y="-273.5" font-family="Helvetica,sans-Serif" font-size="10.00" fill="#000000">jaeger_gauge</text>
</a>
</g>
</g>
<!-- Node4&#45;&gt;Node5 -->
<g id="edge5" class="edge">
<title>Node4&#45;&gt;Node5</title>
<path fill="none" stroke="#191970" d="M110.2713,-316.239C120.9808,-306.2317 134.1946,-293.8845 143.1391,-285.5265"/>
<polygon fill="#191970" stroke="#191970" points="107.5989,-313.9459 102.6819,-323.3307 112.3781,-319.0606 107.5989,-313.9459"/>
</g>
<!-- Node5&#45;&gt;Node2 -->
<g id="edge4" class="edge">
<title>Node5&#45;&gt;Node2</title>
<path fill="none" stroke="#9a32cd" stroke-dasharray="5,2" d="M157.6026,-256.2558C163.3891,-224.3442 170.2592,-160.5182 144.3341,-116 138.1192,-105.3279 126.9946,-97.4838 116.6254,-92.0805"/>
<polygon fill="#9a32cd" stroke="#9a32cd" points="154.1566,-255.6403 155.6565,-266.1284 161.0245,-256.9941 154.1566,-255.6403"/>
<text text-anchor="middle" x="213.3341" y="-179.5" font-family="Helvetica,sans-Serif" font-size="10.00" fill="#000000"> reporter_queue_length</text>
</g>
<!-- Node6 -->
<g id="node6" class="node">
<title>Node6</title>
<g id="a_node6"><a xlink:href="structjaeger__vector.html" target="_top" xlink:title="jaeger_vector">
<polygon fill="#ffffff" stroke="#000000" points="150.8341,-73 150.8341,-92 225.8341,-92 225.8341,-73 150.8341,-73"/>
<text text-anchor="middle" x="188.3341" y="-80" font-family="Helvetica,sans-Serif" font-size="10.00" fill="#000000">jaeger_vector</text>
</a>
</g>
</g>
<!-- Node6&#45;&gt;Node1 -->
<g id="edge6" class="edge">
<title>Node6&#45;&gt;Node1</title>
<path fill="none" stroke="#9a32cd" stroke-dasharray="5,2" d="M200.4191,-64.2466C209.8065,-50.0677 222.4526,-30.9668 229.9632,-19.6228"/>
<polygon fill="#9a32cd" stroke="#9a32cd" points="197.4097,-62.452 194.8076,-72.7223 203.2464,-66.3163 197.4097,-62.452"/>
<text text-anchor="middle" x="232.3341" y="-41" font-family="Helvetica,sans-Serif" font-size="10.00" fill="#000000"> spans</text>
</g>
<!-- Node7 -->
<g id="node7" class="node">
<title>Node7</title>
<g id="a_node7"><a xlink:href="structjaeger__reporter.html" target="_top" xlink:title="jaeger_reporter">
<polygon fill="#ffffff" stroke="#000000" points="243.8341,-73 243.8341,-92 324.8341,-92 324.8341,-73 243.8341,-73"/>
<text text-anchor="middle" x="284.3341" y="-80" font-family="Helvetica,sans-Serif" font-size="10.00" fill="#000000">jaeger_reporter</text>
</a>
</g>
</g>
<!-- Node7&#45;&gt;Node1 -->
<g id="edge7" class="edge">
<title>Node7&#45;&gt;Node1</title>
<path fill="none" stroke="#9a32cd" stroke-dasharray="5,2" d="M272.2491,-64.2466C262.8617,-50.0677 250.2156,-30.9668 242.705,-19.6228"/>
<polygon fill="#9a32cd" stroke="#9a32cd" points="269.4218,-66.3163 277.8606,-72.7223 275.2585,-62.452 269.4218,-66.3163"/>
<text text-anchor="middle" x="273.8341" y="-41" font-family="Helvetica,sans-Serif" font-size="10.00" fill="#000000"> base</text>
</g>
<!-- Node8 -->
<g id="node8" class="node">
<title>Node8</title>
<g id="a_node8"><a xlink:href="struct__Jaegertracing____Protobuf____Process.html" target="_top" xlink:title="_Jaegertracing__Protobuf\l__Process">
<polygon fill="#ffffff" stroke="#000000" points="343.3341,-67.5 343.3341,-97.5 471.3341,-97.5 471.3341,-67.5 343.3341,-67.5"/>
<text text-anchor="start" x="351.3341" y="-85.5" font-family="Helvetica,sans-Serif" font-size="10.00" fill="#000000">_Jaegertracing__Protobuf</text>
<text text-anchor="middle" x="407.3341" y="-74.5" font-family="Helvetica,sans-Serif" font-size="10.00" fill="#000000">__Process</text>
</a>
</g>
</g>
<!-- Node8&#45;&gt;Node1 -->
<g id="edge8" class="edge">
<title>Node8&#45;&gt;Node1</title>
<path fill="none" stroke="#9a32cd" stroke-dasharray="5,2" d="M362.4154,-63.4555C329.2391,-49.3895 285.4491,-30.8236 259.1715,-19.6825"/>
<polygon fill="#9a32cd" stroke="#9a32cd" points="361.3299,-66.7968 371.9028,-67.478 364.0623,-60.3521 361.3299,-66.7968"/>
<text text-anchor="middle" x="345.3341" y="-41" font-family="Helvetica,sans-Serif" font-size="10.00" fill="#000000"> process</text>
</g>
</g>
</svg>
