<?xml version="1.0" encoding="UTF-8" standalone="no"?>
<!DOCTYPE svg PUBLIC "-//W3C//DTD SVG 1.1//EN"
 "http://www.w3.org/Graphics/SVG/1.1/DTD/svg11.dtd">
<!-- Generated by graphviz version 2.40.1 (20161225.0304)
 -->
<!-- Title: jaeger_tracer Pages: 1 -->
<svg width="644pt" height="315pt"
 viewBox="0.00 0.00 644.00 315.00" xmlns="http://www.w3.org/2000/svg" xmlns:xlink="http://www.w3.org/1999/xlink">
<g id="graph0" class="graph" transform="scale(1 1) rotate(0) translate(4 311)">
<title>jaeger_tracer</title>
<polygon fill="#ffffff" stroke="transparent" points="-4,4 -4,-311 640,-311 640,4 -4,4"/>
<!-- Node1 -->
<g id="node1" class="node">
<title>Node1</title>
<polygon fill="#bfbfbf" stroke="#000000" points="563,-95.5 563,-114.5 636,-114.5 636,-95.5 563,-95.5"/>
<text text-anchor="middle" x="599.5" y="-102.5" font-family="Helvetica,sans-Serif" font-size="10.00" fill="#000000">jaeger_tracer</text>
</g>
<!-- Node2 -->
<g id="node2" class="node">
<title>Node2</title>
<g id="a_node2"><a xlink:href="structjaeger__tracer__options.html" target="_top" xlink:title="Options that can be used to customize the tracer. ">
<polygon fill="#ffffff" stroke="#000000" points="377,-190.5 377,-209.5 487,-209.5 487,-190.5 377,-190.5"/>
<text text-anchor="middle" x="432" y="-197.5" font-family="Helvetica,sans-Serif" font-size="10.00" fill="#000000">jaeger_tracer_options</text>
</a>
</g>
</g>
<!-- Node2&#45;&gt;Node1 -->
<g id="edge1" class="edge">
<title>Node2&#45;&gt;Node1</title>
<path fill="none" stroke="#9a32cd" stroke-dasharray="5,2" d="M479.8251,-187.4848C500.8521,-180.6911 525.2093,-170.9826 545,-158 563.7605,-145.6932 581.6381,-126.3595 591.5324,-114.7585"/>
<polygon fill="#9a32cd" stroke="#9a32cd" points="478.6319,-184.1903 470.1168,-190.4946 480.7048,-190.8763 478.6319,-184.1903"/>
<text text-anchor="middle" x="526" y="-179" font-family="Helvetica,sans-Serif" font-size="10.00" fill="#000000"> options</text>
</g>
<!-- Node3 -->
<g id="node3" class="node">
<title>Node3</title>
<g id="a_node3"><a xlink:href="structjaeger__metrics.html" target="_top" xlink:title="jaeger_metrics">
<polygon fill="#ffffff" stroke="#000000" points="392,-152.5 392,-171.5 472,-171.5 472,-152.5 392,-152.5"/>
<text text-anchor="middle" x="432" y="-159.5" font-family="Helvetica,sans-Serif" font-size="10.00" fill="#000000">jaeger_metrics</text>
</a>
</g>
</g>
<!-- Node3&#45;&gt;Node1 -->
<g id="edge2" class="edge">
<title>Node3&#45;&gt;Node1</title>
<path fill="none" stroke="#9a32cd" stroke-dasharray="5,2" d="M481.8255,-150.3669C501.7269,-145.1955 524.6955,-138.5603 545,-131 557.3788,-126.3908 570.7747,-120.0204 581.1879,-114.7389"/>
<polygon fill="#9a32cd" stroke="#9a32cd" points="480.8566,-147.0018 472.0288,-152.86 482.5831,-153.7856 480.8566,-147.0018"/>
<text text-anchor="middle" x="526" y="-146" font-family="Helvetica,sans-Serif" font-size="10.00" fill="#000000"> metrics</text>
</g>
<!-- Node4 -->
<g id="node4" class="node">
<title>Node4</title>
<g id="a_node4"><a xlink:href="structjaeger__counter.html" target="_top" xlink:title="Counter metric interface. ">
<polygon fill="#ffffff" stroke="#000000" points="135,-170.5 135,-189.5 215,-189.5 215,-170.5 135,-170.5"/>
<text text-anchor="middle" x="175" y="-177.5" font-family="Helvetica,sans-Serif" font-size="10.00" fill="#000000">jaeger_counter</text>
</a>
</g>
</g>
<!-- Node4&#45;&gt;Node3 -->
<g id="edge3" class="edge">
<title>Node4&#45;&gt;Node3</title>
<path fill="none" stroke="#9a32cd" stroke-dasharray="5,2" d="M225.1521,-176.4874C273.8075,-173.0796 346.7004,-167.9743 391.7025,-164.8224"/>
<polygon fill="#9a32cd" stroke="#9a32cd" points="224.8872,-172.9973 215.1563,-177.1875 225.3764,-179.9802 224.8872,-172.9973"/>
<text text-anchor="middle" x="295" y="-299" font-family="Helvetica,sans-Serif" font-size="10.00" fill="#000000"> traces_started_sampled</text>
<text text-anchor="start" x="233" y="-288" font-family="Helvetica,sans-Serif" font-size="10.00" fill="#000000">baggage_restrictions</text>
<text text-anchor="middle" x="295" y="-277" font-family="Helvetica,sans-Serif" font-size="10.00" fill="#000000">_update_success</text>
<text text-anchor="middle" x="295" y="-266" font-family="Helvetica,sans-Serif" font-size="10.00" fill="#000000">traces_started_not_sampled</text>
<text text-anchor="middle" x="295" y="-255" font-family="Helvetica,sans-Serif" font-size="10.00" fill="#000000">reporter_failure</text>
<text text-anchor="middle" x="295" y="-244" font-family="Helvetica,sans-Serif" font-size="10.00" fill="#000000">spans_finished</text>
<text text-anchor="middle" x="295" y="-233" font-family="Helvetica,sans-Serif" font-size="10.00" fill="#000000">sampler_query_failure</text>
<text text-anchor="middle" x="295" y="-222" font-family="Helvetica,sans-Serif" font-size="10.00" fill="#000000">reporter_dropped</text>
<text text-anchor="middle" x="295" y="-211" font-family="Helvetica,sans-Serif" font-size="10.00" fill="#000000">spans_started</text>
<text text-anchor="middle" x="295" y="-200" font-family="Helvetica,sans-Serif" font-size="10.00" fill="#000000">sampler_retrieved</text>
<text text-anchor="middle" x="295" y="-189" font-family="Helvetica,sans-Serif" font-size="10.00" fill="#000000">baggage_update_failure</text>
<text text-anchor="middle" x="295" y="-178" font-family="Helvetica,sans-Serif" font-size="10.00" fill="#000000">...</text>
</g>
<!-- Node5 -->
<g id="node5" class="node">
<title>Node5</title>
<polygon fill="#ffffff" stroke="#bfbfbf" points="0,-150.5 0,-169.5 98,-169.5 98,-150.5 0,-150.5"/>
<text text-anchor="middle" x="49" y="-157.5" font-family="Helvetica,sans-Serif" font-size="10.00" fill="#000000">jaeger_destructible</text>
</g>
<!-- Node5&#45;&gt;Node4 -->
<g id="edge4" class="edge">
<title>Node5&#45;&gt;Node4</title>
<path fill="none" stroke="#191970" d="M108.1757,-169.393C117.196,-170.8248 126.3212,-172.2732 134.8081,-173.6203"/>
<polygon fill="#191970" stroke="#191970" points="108.5008,-165.9008 98.0757,-167.7898 107.4033,-172.8143 108.5008,-165.9008"/>
</g>
<!-- Node6 -->
<g id="node6" class="node">
<title>Node6</title>
<g id="a_node6"><a xlink:href="structjaeger__gauge.html" target="_top" xlink:title="Gauge metric interface. ">
<polygon fill="#ffffff" stroke="#000000" points="138,-132.5 138,-151.5 212,-151.5 212,-132.5 138,-132.5"/>
<text text-anchor="middle" x="175" y="-139.5" font-family="Helvetica,sans-Serif" font-size="10.00" fill="#000000">jaeger_gauge</text>
</a>
</g>
</g>
<!-- Node5&#45;&gt;Node6 -->
<g id="edge6" class="edge">
<title>Node5&#45;&gt;Node6</title>
<path fill="none" stroke="#191970" d="M108.1492,-151.5501C118.3068,-150.099 128.5983,-148.6288 137.9623,-147.2911"/>
<polygon fill="#191970" stroke="#191970" points="107.4802,-148.1101 98.0757,-152.9892 108.4702,-155.0397 107.4802,-148.1101"/>
</g>
<!-- Node6&#45;&gt;Node3 -->
<g id="edge5" class="edge">
<title>Node6&#45;&gt;Node3</title>
<path fill="none" stroke="#9a32cd" stroke-dasharray="5,2" d="M222.4288,-143.5966C259.2009,-145.0784 311.4061,-147.7144 357,-152 368.3782,-153.0695 380.6848,-154.567 391.9747,-156.0781"/>
<polygon fill="#9a32cd" stroke="#9a32cd" points="222.1402,-140.0828 212.0115,-143.191 221.8678,-147.0775 222.1402,-140.0828"/>
<text text-anchor="middle" x="295" y="-155" font-family="Helvetica,sans-Serif" font-size="10.00" fill="#000000"> reporter_queue_length</text>
</g>
<!-- Node7 -->
<g id="node7" class="node">
<title>Node7</title>
<g id="a_node7"><a xlink:href="structjaeger__vector.html" target="_top" xlink:title="jaeger_vector">
<polygon fill="#ffffff" stroke="#000000" points="394.5,-114.5 394.5,-133.5 469.5,-133.5 469.5,-114.5 394.5,-114.5"/>
<text text-anchor="middle" x="432" y="-121.5" font-family="Helvetica,sans-Serif" font-size="10.00" fill="#000000">jaeger_vector</text>
</a>
</g>
</g>
<!-- Node7&#45;&gt;Node1 -->
<g id="edge7" class="edge">
<title>Node7&#45;&gt;Node1</title>
<path fill="none" stroke="#9a32cd" stroke-dasharray="5,2" d="M479.7666,-118.5817C506.1847,-115.585 538.5011,-111.9193 562.8991,-109.1517"/>
<polygon fill="#9a32cd" stroke="#9a32cd" points="479.132,-115.1311 469.5903,-119.736 479.9211,-122.0865 479.132,-115.1311"/>
<text text-anchor="middle" x="526" y="-119" font-family="Helvetica,sans-Serif" font-size="10.00" fill="#000000"> tags</text>
</g>
<!-- Node8 -->
<g id="node8" class="node">
<title>Node8</title>
<g id="a_node8"><a xlink:href="structjaeger__headers__config.html" target="_top" xlink:title="HTTP headers to use for span context propagation. ">
<polygon fill="#ffffff" stroke="#000000" points="375,-76.5 375,-95.5 489,-95.5 489,-76.5 375,-76.5"/>
<text text-anchor="middle" x="432" y="-83.5" font-family="Helvetica,sans-Serif" font-size="10.00" fill="#000000">jaeger_headers_config</text>
</a>
</g>
</g>
<!-- Node8&#45;&gt;Node1 -->
<g id="edge8" class="edge">
<title>Node8&#45;&gt;Node1</title>
<path fill="none" stroke="#9a32cd" stroke-dasharray="5,2" d="M499.486,-92.0268C514.485,-93.5174 530.2951,-95.2061 545,-97 550.7906,-97.7064 556.916,-98.5304 562.8879,-99.3758"/>
<polygon fill="#9a32cd" stroke="#9a32cd" points="499.5481,-88.5163 489.2552,-91.0276 498.8676,-95.4832 499.5481,-88.5163"/>
<text text-anchor="middle" x="526" y="-100" font-family="Helvetica,sans-Serif" font-size="10.00" fill="#000000"> headers</text>
</g>
<!-- Node9 -->
<g id="node9" class="node">
<title>Node9</title>
<g id="a_node9"><a xlink:href="structjaeger__reporter.html" target="_top" xlink:title="jaeger_reporter">
<polygon fill="#ffffff" stroke="#000000" points="391.5,-38.5 391.5,-57.5 472.5,-57.5 472.5,-38.5 391.5,-38.5"/>
<text text-anchor="middle" x="432" y="-45.5" font-family="Helvetica,sans-Serif" font-size="10.00" fill="#000000">jaeger_reporter</text>
</a>
</g>
</g>
<!-- Node9&#45;&gt;Node1 -->
<g id="edge9" class="edge">
<title>Node9&#45;&gt;Node1</title>
<path fill="none" stroke="#9a32cd" stroke-dasharray="5,2" d="M482.3776,-59.0771C502.1774,-64.0233 524.9281,-70.4509 545,-78 557.8484,-82.8323 571.7017,-89.7194 582.2261,-95.3282"/>
<polygon fill="#9a32cd" stroke="#9a32cd" points="483.1664,-55.667 472.6219,-56.6988 481.5084,-62.4678 483.1664,-55.667"/>
<text text-anchor="middle" x="526" y="-81" font-family="Helvetica,sans-Serif" font-size="10.00" fill="#000000"> reporter</text>
</g>
<!-- Node10 -->
<g id="node10" class="node">
<title>Node10</title>
<g id="a_node10"><a xlink:href="structjaeger__sampler.html" target="_top" xlink:title="jaeger_sampler">
<polygon fill="#ffffff" stroke="#000000" points="390.5,-.5 390.5,-19.5 473.5,-19.5 473.5,-.5 390.5,-.5"/>
<text text-anchor="middle" x="432" y="-7.5" font-family="Helvetica,sans-Serif" font-size="10.00" fill="#000000">jaeger_sampler</text>
</a>
</g>
</g>
<!-- Node10&#45;&gt;Node1 -->
<g id="edge10" class="edge">
<title>Node10&#45;&gt;Node1</title>
<path fill="none" stroke="#9a32cd" stroke-dasharray="5,2" d="M479.8251,-22.5152C500.8521,-29.3089 525.2093,-39.0174 545,-52 563.7605,-64.3068 581.6381,-83.6405 591.5324,-95.2415"/>
<polygon fill="#9a32cd" stroke="#9a32cd" points="480.7048,-19.1237 470.1168,-19.5054 478.6319,-25.8097 480.7048,-19.1237"/>
<text text-anchor="middle" x="526" y="-55" font-family="Helvetica,sans-Serif" font-size="10.00" fill="#000000"> sampler</text>
</g>
</g>
</svg>
