<?xml version="1.0" encoding="UTF-8" standalone="no"?>
<!DOCTYPE svg PUBLIC "-//W3C//DTD SVG 1.1//EN"
 "http://www.w3.org/Graphics/SVG/1.1/DTD/svg11.dtd">
<!-- Generated by graphviz version 2.40.1 (20161225.0304)
 -->
<!-- Title: jaegertracingc/tag.h Pages: 1 -->
<svg width="340pt" height="330pt"
 viewBox="0.00 0.00 339.66 330.00" xmlns="http://www.w3.org/2000/svg" xmlns:xlink="http://www.w3.org/1999/xlink">
<g id="graph0" class="graph" transform="scale(1 1) rotate(0) translate(4 326)">
<title>jaegertracingc/tag.h</title>
<polygon fill="#ffffff" stroke="transparent" points="-4,4 -4,-326 335.6584,-326 335.6584,4 -4,4"/>
<!-- Node22 -->
<g id="node1" class="node">
<title>Node22</title>
<polygon fill="#bfbfbf" stroke="#000000" points="78.8492,-302.5 78.8492,-321.5 180.8492,-321.5 180.8492,-302.5 78.8492,-302.5"/>
<text text-anchor="middle" x="129.8492" y="-309.5" font-family="Helvetica,sans-Serif" font-size="10.00" fill="#000000">jaegertracingc/tag.h</text>
</g>
<!-- Node23 -->
<g id="node2" class="node">
<title>Node23</title>
<g id="a_node2"><a xlink:href="tracer_8h.html" target="_top" xlink:title="Tracer implementation. ">
<polygon fill="#ffffff" stroke="#000000" points="14.3492,-56.5 14.3492,-75.5 127.3492,-75.5 127.3492,-56.5 14.3492,-56.5"/>
<text text-anchor="middle" x="70.8492" y="-63.5" font-family="Helvetica,sans-Serif" font-size="10.00" fill="#000000">jaegertracingc/tracer.h</text>
</a>
</g>
</g>
<!-- Node22&#45;&gt;Node23 -->
<g id="edge1" class="edge">
<title>Node22&#45;&gt;Node23</title>
<path fill="none" stroke="#191970" d="M69.1546,-302.3313C48.0526,-295.7383 26.5162,-284.6497 13.8492,-266 -5.0206,-238.2178 -8.4505,-212.9003 35.8492,-112 41.9811,-98.0337 53.1702,-84.4355 61.2494,-75.6921"/>
<polygon fill="#191970" stroke="#191970" points="68.2111,-305.7017 78.7862,-305.0552 70.1161,-298.9659 68.2111,-305.7017"/>
</g>
<!-- Node25 -->
<g id="node4" class="node">
<title>Node25</title>
<g id="a_node4"><a xlink:href="log__record_8h.html" target="_top" xlink:title="Log record representation for use in span. ">
<polygon fill="#ffffff" stroke="#000000" points="203.3492,-235.5 203.3492,-265.5 296.3492,-265.5 296.3492,-235.5 203.3492,-235.5"/>
<text text-anchor="start" x="211.3492" y="-253.5" font-family="Helvetica,sans-Serif" font-size="10.00" fill="#000000">jaegertracingc/log</text>
<text text-anchor="middle" x="249.8492" y="-242.5" font-family="Helvetica,sans-Serif" font-size="10.00" fill="#000000">_record.h</text>
</a>
</g>
</g>
<!-- Node22&#45;&gt;Node25 -->
<g id="edge3" class="edge">
<title>Node22&#45;&gt;Node25</title>
<path fill="none" stroke="#191970" d="M157.5763,-297.7899C176.4213,-288.1318 201.3133,-275.3747 220.4939,-265.5446"/>
<polygon fill="#191970" stroke="#191970" points="155.9022,-294.7149 148.5992,-302.3906 159.0949,-300.9444 155.9022,-294.7149"/>
</g>
<!-- Node26 -->
<g id="node5" class="node">
<title>Node26</title>
<g id="a_node5"><a xlink:href="span_8h.html" target="_top" xlink:title="Span, span context, and span ref representations and functions. ">
<polygon fill="#ffffff" stroke="#000000" points="194.8492,-174 194.8492,-193 304.8492,-193 304.8492,-174 194.8492,-174"/>
<text text-anchor="middle" x="249.8492" y="-181" font-family="Helvetica,sans-Serif" font-size="10.00" fill="#000000">jaegertracingc/span.h</text>
</a>
</g>
</g>
<!-- Node22&#45;&gt;Node26 -->
<g id="edge9" class="edge">
<title>Node22&#45;&gt;Node26</title>
<path fill="none" stroke="#191970" d="M143.8558,-294.2363C156.6542,-278.295 176.348,-254.4786 194.8492,-235 209.4434,-219.6348 227.5917,-203.0929 238.9516,-193.0166"/>
<polygon fill="#191970" stroke="#191970" points="141.0009,-292.2029 137.5064,-302.2048 146.4755,-296.5651 141.0009,-292.2029"/>
</g>
<!-- Node29 -->
<g id="node8" class="node">
<title>Node29</title>
<g id="a_node8"><a xlink:href="sampler_8h.html" target="_top" xlink:title="Span sampler interface. ">
<polygon fill="#ffffff" stroke="#000000" points="23.3492,-241 23.3492,-260 146.3492,-260 146.3492,-241 23.3492,-241"/>
<text text-anchor="middle" x="84.8492" y="-248" font-family="Helvetica,sans-Serif" font-size="10.00" fill="#000000">jaegertracingc/sampler.h</text>
</a>
</g>
</g>
<!-- Node22&#45;&gt;Node29 -->
<g id="edge10" class="edge">
<title>Node22&#45;&gt;Node29</title>
<path fill="none" stroke="#191970" d="M116.8588,-294.2465C108.7596,-283.1775 98.6457,-269.3552 91.9796,-260.2449"/>
<polygon fill="#191970" stroke="#191970" points="114.0882,-296.3871 122.818,-302.3906 119.7374,-292.2535 114.0882,-296.3871"/>
</g>
<!-- Node24 -->
<g id="node3" class="node">
<title>Node24</title>
<g id="a_node3"><a xlink:href="propagation_8c.html" target="_top" xlink:title="Trace ID representation. ">
<polygon fill="#ffffff" stroke="#000000" points="139.3492,-.5 139.3492,-19.5 278.3492,-19.5 278.3492,-.5 139.3492,-.5"/>
<text text-anchor="middle" x="208.8492" y="-7.5" font-family="Helvetica,sans-Serif" font-size="10.00" fill="#000000">jaegertracingc/propagation.c</text>
</a>
</g>
</g>
<!-- Node23&#45;&gt;Node24 -->
<g id="edge2" class="edge">
<title>Node23&#45;&gt;Node24</title>
<path fill="none" stroke="#191970" d="M104.0705,-52.5189C129.2032,-42.3201 163.091,-28.5685 185.4357,-19.5011"/>
<polygon fill="#191970" stroke="#191970" points="102.5223,-49.3699 94.5723,-56.3733 105.1545,-55.8562 102.5223,-49.3699"/>
</g>
<!-- Node25&#45;&gt;Node26 -->
<g id="edge4" class="edge">
<title>Node25&#45;&gt;Node26</title>
<path fill="none" stroke="#191970" d="M249.8492,-225.1199C249.8492,-213.9072 249.8492,-201.4031 249.8492,-193.055"/>
<polygon fill="#191970" stroke="#191970" points="246.3493,-225.2966 249.8492,-235.2967 253.3493,-225.2967 246.3493,-225.2966"/>
</g>
<!-- Node26&#45;&gt;Node24 -->
<g id="edge6" class="edge">
<title>Node26&#45;&gt;Node24</title>
<path fill="none" stroke="#191970" d="M285.4522,-169.7366C311.517,-157.303 340.4668,-137.1223 328.8492,-112 308.0766,-67.0806 256.6906,-34.6909 228.3645,-19.5681"/>
<polygon fill="#191970" stroke="#191970" points="283.7441,-166.667 276.0604,-173.9616 286.616,-173.0508 283.7441,-166.667"/>
</g>
<!-- Node27 -->
<g id="node6" class="node">
<title>Node27</title>
<g id="a_node6"><a xlink:href="baggage_8h.html" target="_top" xlink:title="Baggage restriction utilities. ">
<polygon fill="#ffffff" stroke="#000000" points="194.3492,-112.5 194.3492,-131.5 319.3492,-131.5 319.3492,-112.5 194.3492,-112.5"/>
<text text-anchor="middle" x="256.8492" y="-119.5" font-family="Helvetica,sans-Serif" font-size="10.00" fill="#000000">jaegertracingc/baggage.h</text>
</a>
</g>
</g>
<!-- Node26&#45;&gt;Node27 -->
<g id="edge5" class="edge">
<title>Node26&#45;&gt;Node27</title>
<path fill="none" stroke="#191970" d="M252.0976,-163.7462C253.3148,-153.0519 254.7647,-140.314 255.74,-131.7449"/>
<polygon fill="#191970" stroke="#191970" points="248.5964,-163.5589 250.943,-173.8906 255.5515,-164.3506 248.5964,-163.5589"/>
</g>
<!-- Node28 -->
<g id="node7" class="node">
<title>Node28</title>
<g id="a_node7"><a xlink:href="reporter_8h.html" target="_top" xlink:title="Span reporter interface. ">
<polygon fill="#ffffff" stroke="#000000" points="53.8492,-112.5 53.8492,-131.5 175.8492,-131.5 175.8492,-112.5 53.8492,-112.5"/>
<text text-anchor="middle" x="114.8492" y="-119.5" font-family="Helvetica,sans-Serif" font-size="10.00" fill="#000000">jaegertracingc/reporter.h</text>
</a>
</g>
</g>
<!-- Node26&#45;&gt;Node28 -->
<g id="edge7" class="edge">
<title>Node26&#45;&gt;Node28</title>
<path fill="none" stroke="#191970" d="M219.5335,-169.6895C194.0275,-158.0701 158.2251,-141.7601 135.7948,-131.5419"/>
<polygon fill="#191970" stroke="#191970" points="218.2043,-172.93 228.7555,-173.8906 221.1062,-166.5598 218.2043,-172.93"/>
</g>
<!-- Node28&#45;&gt;Node23 -->
<g id="edge8" class="edge">
<title>Node28&#45;&gt;Node23</title>
<path fill="none" stroke="#191970" d="M100.8723,-104.2112C93.4363,-94.7472 84.5832,-83.4797 78.4256,-75.6427"/>
<polygon fill="#191970" stroke="#191970" points="98.2546,-106.5447 107.185,-112.2455 103.7589,-102.22 98.2546,-106.5447"/>
</g>
<!-- Node29&#45;&gt;Node23 -->
<g id="edge11" class="edge">
<title>Node29&#45;&gt;Node23</title>
<path fill="none" stroke="#191970" d="M66.8435,-233.3716C58.4174,-224.1031 49.2779,-211.9217 44.8492,-199 32.3128,-162.422 35.0125,-149.3945 44.8492,-112 48.4431,-98.3376 57.1219,-84.4664 63.4673,-75.5817"/>
<polygon fill="#191970" stroke="#191970" points="64.4652,-235.9474 73.9282,-240.7122 69.502,-231.0862 64.4652,-235.9474"/>
</g>
<!-- Node30 -->
<g id="node9" class="node">
<title>Node30</title>
<g id="a_node9"><a xlink:href="mock__agent_8h.html" target="_top" xlink:title="Key value pair representation. ">
<polygon fill="#ffffff" stroke="#000000" points="53.8492,-168.5 53.8492,-198.5 157.8492,-198.5 157.8492,-168.5 53.8492,-168.5"/>
<text text-anchor="start" x="61.8492" y="-186.5" font-family="Helvetica,sans-Serif" font-size="10.00" fill="#000000">jaegertracingc/mock</text>
<text text-anchor="middle" x="105.8492" y="-175.5" font-family="Helvetica,sans-Serif" font-size="10.00" fill="#000000">_agent.h</text>
</a>
</g>
</g>
<!-- Node29&#45;&gt;Node30 -->
<g id="edge12" class="edge">
<title>Node29&#45;&gt;Node30</title>
<path fill="none" stroke="#191970" d="M90.9285,-231.1042C94.1805,-220.7287 98.1247,-208.145 101.1409,-198.5218"/>
<polygon fill="#191970" stroke="#191970" points="87.5091,-230.3114 87.858,-240.9005 94.1887,-232.4051 87.5091,-230.3114"/>
</g>
</g>
</svg>
