<?xml version="1.0" encoding="UTF-8" standalone="no"?>
<!DOCTYPE svg PUBLIC "-//W3C//DTD SVG 1.1//EN"
 "http://www.w3.org/Graphics/SVG/1.1/DTD/svg11.dtd">
<!-- Generated by graphviz version 2.40.1 (20161225.0304)
 -->
<!-- Title: jaegertracingc/tag.h Pages: 1 -->
<svg width="1154pt" height="319pt"
 viewBox="0.00 0.00 1153.50 319.00" xmlns="http://www.w3.org/2000/svg" xmlns:xlink="http://www.w3.org/1999/xlink">
<g id="graph0" class="graph" transform="scale(1 1) rotate(0) translate(4 315)">
<title>jaegertracingc/tag.h</title>
<polygon fill="#ffffff" stroke="transparent" points="-4,4 -4,-315 1149.5,-315 1149.5,4 -4,4"/>
<!-- Node0 -->
<g id="node1" class="node">
<title>Node0</title>
<polygon fill="#bfbfbf" stroke="#000000" points="385,-291.5 385,-310.5 487,-310.5 487,-291.5 385,-291.5"/>
<text text-anchor="middle" x="436" y="-298.5" font-family="Helvetica,sans-Serif" font-size="10.00" fill="#000000">jaegertracingc/tag.h</text>
</g>
<!-- Node1 -->
<g id="node2" class="node">
<title>Node1</title>
<g id="a_node2"><a xlink:href="alloc_8h.html" target="_top" xlink:title="Allocator struct and functions. ">
<polygon fill="#ffffff" stroke="#000000" points="100.5,-112.5 100.5,-131.5 209.5,-131.5 209.5,-112.5 100.5,-112.5"/>
<text text-anchor="middle" x="155" y="-119.5" font-family="Helvetica,sans-Serif" font-size="10.00" fill="#000000">jaegertracingc/alloc.h</text>
</a>
</g>
</g>
<!-- Node0&#45;&gt;Node1 -->
<g id="edge1" class="edge">
<title>Node0&#45;&gt;Node1</title>
<path fill="none" stroke="#191970" d="M420.8922,-291.3762C374.6744,-261.9349 234.9287,-172.9154 178.7563,-137.133"/>
<polygon fill="#191970" stroke="#191970" points="180.4971,-134.0921 170.1825,-131.6714 176.7362,-139.996 180.4971,-134.0921"/>
</g>
<!-- Node8 -->
<g id="node9" class="node">
<title>Node8</title>
<g id="a_node9"><a xlink:href="common_8h.html" target="_top" xlink:title="Common headers, struct definitions, and macros. ">
<polygon fill="#ffffff" stroke="#000000" points="413,-168.5 413,-187.5 539,-187.5 539,-168.5 413,-168.5"/>
<text text-anchor="middle" x="476" y="-175.5" font-family="Helvetica,sans-Serif" font-size="10.00" fill="#000000">jaegertracingc/common.h</text>
</a>
</g>
</g>
<!-- Node0&#45;&gt;Node8 -->
<g id="edge8" class="edge">
<title>Node0&#45;&gt;Node8</title>
<path fill="none" stroke="#191970" d="M428.4063,-291.3495C417.5962,-276.3511 400.3084,-246.8016 412,-224 418.933,-210.4789 431.8936,-200.0326 444.3481,-192.5377"/>
<polygon fill="#191970" stroke="#191970" points="446.1928,-195.5168 453.234,-187.6001 442.7928,-189.3979 446.1928,-195.5168"/>
</g>
<!-- Node19 -->
<g id="node20" class="node">
<title>Node19</title>
<g id="a_node20"><a xlink:href="jaeger_8pb-c_8h_source.html" target="_top" xlink:title="jaegertracingc/protoc\l&#45;gen/jaeger.pb&#45;c.h">
<polygon fill="#ffffff" stroke="#000000" points="559.5,-224.5 559.5,-254.5 666.5,-254.5 666.5,-224.5 559.5,-224.5"/>
<text text-anchor="start" x="567.5" y="-242.5" font-family="Helvetica,sans-Serif" font-size="10.00" fill="#000000">jaegertracingc/protoc</text>
<text text-anchor="middle" x="613" y="-231.5" font-family="Helvetica,sans-Serif" font-size="10.00" fill="#000000">&#45;gen/jaeger.pb&#45;c.h</text>
</a>
</g>
</g>
<!-- Node0&#45;&gt;Node19 -->
<g id="edge26" class="edge">
<title>Node0&#45;&gt;Node19</title>
<path fill="none" stroke="#191970" d="M463.6563,-291.3906C489.3855,-282.4508 528.4127,-268.8905 560.1189,-257.8739"/>
<polygon fill="#191970" stroke="#191970" points="561.4036,-261.1329 569.7009,-254.5446 559.1061,-254.5206 561.4036,-261.1329"/>
</g>
<!-- Node21 -->
<g id="node22" class="node">
<title>Node21</title>
<g id="a_node22"><a xlink:href="vector_8h.html" target="_top" xlink:title="C generic vector implementation. ">
<polygon fill="#ffffff" stroke="#000000" points="421,-230 421,-249 537,-249 537,-230 421,-230"/>
<text text-anchor="middle" x="479" y="-237" font-family="Helvetica,sans-Serif" font-size="10.00" fill="#000000">jaegertracingc/vector.h</text>
</a>
</g>
</g>
<!-- Node0&#45;&gt;Node21 -->
<g id="edge28" class="edge">
<title>Node0&#45;&gt;Node21</title>
<path fill="none" stroke="#191970" d="M442.7188,-291.3906C448.993,-282.417 458.5223,-268.7879 466.2404,-257.7491"/>
<polygon fill="#191970" stroke="#191970" points="469.3247,-259.4459 472.1865,-249.2449 463.5879,-255.4348 469.3247,-259.4459"/>
</g>
<!-- Node2 -->
<g id="node3" class="node">
<title>Node2</title>
<polygon fill="#ffffff" stroke="#bfbfbf" points="0,-56.5 0,-75.5 52,-75.5 52,-56.5 0,-56.5"/>
<text text-anchor="middle" x="26" y="-63.5" font-family="Helvetica,sans-Serif" font-size="10.00" fill="#000000">assert.h</text>
</g>
<!-- Node1&#45;&gt;Node2 -->
<g id="edge2" class="edge">
<title>Node1&#45;&gt;Node2</title>
<path fill="none" stroke="#191970" d="M132.8241,-112.3733C112.0234,-103.3435 80.7083,-89.7494 57.3542,-79.6111"/>
<polygon fill="#191970" stroke="#191970" points="58.4532,-76.2727 47.8865,-75.5011 55.6657,-82.6938 58.4532,-76.2727"/>
</g>
<!-- Node3 -->
<g id="node4" class="node">
<title>Node3</title>
<polygon fill="#ffffff" stroke="#bfbfbf" points="70.5,-56.5 70.5,-75.5 119.5,-75.5 119.5,-56.5 70.5,-56.5"/>
<text text-anchor="middle" x="95" y="-63.5" font-family="Helvetica,sans-Serif" font-size="10.00" fill="#000000">stdint.h</text>
</g>
<!-- Node1&#45;&gt;Node3 -->
<g id="edge3" class="edge">
<title>Node1&#45;&gt;Node3</title>
<path fill="none" stroke="#191970" d="M144.5488,-112.2455C135.7731,-104.0549 123.0446,-92.1749 112.686,-82.5069"/>
<polygon fill="#191970" stroke="#191970" points="115.0301,-79.9072 105.3314,-75.6427 110.2539,-85.0246 115.0301,-79.9072"/>
</g>
<!-- Node4 -->
<g id="node5" class="node">
<title>Node4</title>
<polygon fill="#ffffff" stroke="#bfbfbf" points="137.5,-56.5 137.5,-75.5 186.5,-75.5 186.5,-56.5 137.5,-56.5"/>
<text text-anchor="middle" x="162" y="-63.5" font-family="Helvetica,sans-Serif" font-size="10.00" fill="#000000">string.h</text>
</g>
<!-- Node1&#45;&gt;Node4 -->
<g id="edge4" class="edge">
<title>Node1&#45;&gt;Node4</title>
<path fill="none" stroke="#191970" d="M156.2193,-112.2455C157.1327,-104.9382 158.4132,-94.6944 159.5369,-85.7046"/>
<polygon fill="#191970" stroke="#191970" points="163.0272,-85.9996 160.7947,-75.6427 156.0813,-85.1313 163.0272,-85.9996"/>
</g>
<!-- Node5 -->
<g id="node6" class="node">
<title>Node5</title>
<g id="a_node6"><a xlink:href="logging_8h.html" target="_top" xlink:title="Logging interface and initialization functions. ">
<polygon fill="#ffffff" stroke="#000000" points="204.5,-56.5 204.5,-75.5 323.5,-75.5 323.5,-56.5 204.5,-56.5"/>
<text text-anchor="middle" x="264" y="-63.5" font-family="Helvetica,sans-Serif" font-size="10.00" fill="#000000">jaegertracingc/logging.h</text>
</a>
</g>
</g>
<!-- Node1&#45;&gt;Node5 -->
<g id="edge5" class="edge">
<title>Node1&#45;&gt;Node5</title>
<path fill="none" stroke="#191970" d="M173.9864,-112.2455C191.1792,-103.4125 216.7238,-90.2887 236.2132,-80.2758"/>
<polygon fill="#191970" stroke="#191970" points="237.9359,-83.3257 245.2312,-75.6427 234.737,-77.0993 237.9359,-83.3257"/>
</g>
<!-- Node6 -->
<g id="node7" class="node">
<title>Node6</title>
<polygon fill="#ffffff" stroke="#bfbfbf" points="267,-.5 267,-19.5 319,-19.5 319,-.5 267,-.5"/>
<text text-anchor="middle" x="293" y="-7.5" font-family="Helvetica,sans-Serif" font-size="10.00" fill="#000000">stdarg.h</text>
</g>
<!-- Node5&#45;&gt;Node6 -->
<g id="edge6" class="edge">
<title>Node5&#45;&gt;Node6</title>
<path fill="none" stroke="#191970" d="M269.0514,-56.2455C273.0019,-48.617 278.6097,-37.7881 283.4058,-28.5267"/>
<polygon fill="#191970" stroke="#191970" points="286.5159,-30.1321 288.0065,-19.6427 280.2999,-26.9131 286.5159,-30.1321"/>
</g>
<!-- Node7 -->
<g id="node8" class="node">
<title>Node7</title>
<polygon fill="#ffffff" stroke="#bfbfbf" points="352,-.5 352,-19.5 398,-19.5 398,-.5 352,-.5"/>
<text text-anchor="middle" x="375" y="-7.5" font-family="Helvetica,sans-Serif" font-size="10.00" fill="#000000">stdio.h</text>
</g>
<!-- Node5&#45;&gt;Node7 -->
<g id="edge7" class="edge">
<title>Node5&#45;&gt;Node7</title>
<path fill="none" stroke="#191970" d="M283.0816,-56.3733C300.7402,-47.4644 327.2053,-34.1127 347.2098,-24.0203"/>
<polygon fill="#191970" stroke="#191970" points="348.8158,-27.1303 356.1674,-19.5011 345.6628,-20.8806 348.8158,-27.1303"/>
</g>
<!-- Node8&#45;&gt;Node1 -->
<g id="edge24" class="edge">
<title>Node8&#45;&gt;Node1</title>
<path fill="none" stroke="#191970" d="M421.1829,-168.4369C365.3229,-158.6918 278.7179,-143.5832 219.5695,-133.2645"/>
<polygon fill="#191970" stroke="#191970" points="220.0438,-129.7944 209.591,-131.5237 218.8407,-136.6903 220.0438,-129.7944"/>
</g>
<!-- Node8&#45;&gt;Node2 -->
<g id="edge11" class="edge">
<title>Node8&#45;&gt;Node2</title>
<path fill="none" stroke="#191970" d="M412.6531,-175.4906C318.3301,-170.9092 146.1499,-159.048 91,-132 68.7908,-121.1076 49.8047,-99.4784 38.1861,-83.9465"/>
<polygon fill="#191970" stroke="#191970" points="40.8982,-81.7224 32.2279,-75.6333 35.2086,-85.8003 40.8982,-81.7224"/>
</g>
<!-- Node8&#45;&gt;Node3 -->
<g id="edge18" class="edge">
<title>Node8&#45;&gt;Node3</title>
<path fill="none" stroke="#191970" d="M412.7361,-169.8256C367.7967,-162.8251 306.5329,-150.8334 255,-132 237.4427,-125.5834 235.0169,-119.7368 218,-112 188.8143,-98.7307 154.5779,-86.159 129.6464,-77.5226"/>
<polygon fill="#191970" stroke="#191970" points="130.5034,-74.1165 119.9088,-74.1854 128.234,-80.7384 130.5034,-74.1165"/>
</g>
<!-- Node8&#45;&gt;Node4 -->
<g id="edge21" class="edge">
<title>Node8&#45;&gt;Node4</title>
<path fill="none" stroke="#191970" d="M434.0084,-168.449C399.6761,-160.178 350.1046,-147.1745 308,-132 265.6796,-116.7477 218.5648,-94.4275 189.6015,-80.0557"/>
<polygon fill="#191970" stroke="#191970" points="191.0177,-76.8507 180.5082,-75.5082 187.8867,-83.1115 191.0177,-76.8507"/>
</g>
<!-- Node8&#45;&gt;Node5 -->
<g id="edge25" class="edge">
<title>Node8&#45;&gt;Node5</title>
<path fill="none" stroke="#191970" d="M432.7391,-168.42C404.5369,-161.0344 367.6104,-149.1523 338,-132 315.3768,-118.8951 293.5515,-98.1102 279.5399,-83.3701"/>
<polygon fill="#191970" stroke="#191970" points="281.9699,-80.8432 272.6041,-75.8903 276.837,-85.6028 281.9699,-80.8432"/>
</g>
<!-- Node8&#45;&gt;Node6 -->
<g id="edge15" class="edge">
<title>Node8&#45;&gt;Node6</title>
<path fill="none" stroke="#191970" d="M454.3604,-168.3887C437.223,-160.1713 413.2196,-147.2706 395,-132 361.3746,-103.8172 360.1868,-89.6221 332,-56 324.13,-46.6125 315.3075,-36.1974 308.0469,-27.6548"/>
<polygon fill="#191970" stroke="#191970" points="310.5464,-25.1914 301.4002,-19.8438 305.2154,-29.7279 310.5464,-25.1914"/>
</g>
<!-- Node8&#45;&gt;Node7 -->
<g id="edge19" class="edge">
<title>Node8&#45;&gt;Node7</title>
<path fill="none" stroke="#191970" d="M455.2551,-168.356C440.5807,-160.5216 421.5356,-148.1329 410,-132 387.6714,-100.7726 379.5241,-55.5456 376.5974,-29.8361"/>
<polygon fill="#191970" stroke="#191970" points="380.0737,-29.4229 375.612,-19.8134 373.1073,-30.1079 380.0737,-29.4229"/>
</g>
<!-- Node9 -->
<g id="node10" class="node">
<title>Node9</title>
<g id="a_node10"><a xlink:href="config_8h_source.html" target="_top" xlink:title="jaegertracingc/config.h">
<polygon fill="#ffffff" stroke="#000000" points="418.5,-112.5 418.5,-131.5 533.5,-131.5 533.5,-112.5 418.5,-112.5"/>
<text text-anchor="middle" x="476" y="-119.5" font-family="Helvetica,sans-Serif" font-size="10.00" fill="#000000">jaegertracingc/config.h</text>
</a>
</g>
</g>
<!-- Node8&#45;&gt;Node9 -->
<g id="edge9" class="edge">
<title>Node8&#45;&gt;Node9</title>
<path fill="none" stroke="#191970" d="M476,-168.2455C476,-160.9382 476,-150.6944 476,-141.7046"/>
<polygon fill="#191970" stroke="#191970" points="479.5001,-141.6426 476,-131.6427 472.5001,-141.6427 479.5001,-141.6426"/>
</g>
<!-- Node11 -->
<g id="node12" class="node">
<title>Node11</title>
<polygon fill="#ffffff" stroke="#bfbfbf" points="551.5,-112.5 551.5,-131.5 600.5,-131.5 600.5,-112.5 551.5,-112.5"/>
<text text-anchor="middle" x="576" y="-119.5" font-family="Helvetica,sans-Serif" font-size="10.00" fill="#000000">ctype.h</text>
</g>
<!-- Node8&#45;&gt;Node11 -->
<g id="edge12" class="edge">
<title>Node8&#45;&gt;Node11</title>
<path fill="none" stroke="#191970" d="M493.4187,-168.2455C509.0485,-159.4928 532.2019,-146.527 550.0185,-136.5496"/>
<polygon fill="#191970" stroke="#191970" points="551.766,-139.5825 558.7809,-131.6427 548.3457,-133.475 551.766,-139.5825"/>
</g>
<!-- Node12 -->
<g id="node13" class="node">
<title>Node12</title>
<polygon fill="#ffffff" stroke="#bfbfbf" points="618.5,-112.5 618.5,-131.5 677.5,-131.5 677.5,-112.5 618.5,-112.5"/>
<text text-anchor="middle" x="648" y="-119.5" font-family="Helvetica,sans-Serif" font-size="10.00" fill="#000000">inttypes.h</text>
</g>
<!-- Node8&#45;&gt;Node12 -->
<g id="edge13" class="edge">
<title>Node8&#45;&gt;Node12</title>
<path fill="none" stroke="#191970" d="M505.5679,-168.3733C534.1688,-159.0613 577.6788,-144.8953 609.0819,-134.671"/>
<polygon fill="#191970" stroke="#191970" points="610.3928,-137.9251 618.818,-131.5011 608.2257,-131.269 610.3928,-137.9251"/>
</g>
<!-- Node13 -->
<g id="node14" class="node">
<title>Node13</title>
<polygon fill="#ffffff" stroke="#bfbfbf" points="696,-112.5 696,-131.5 744,-131.5 744,-112.5 696,-112.5"/>
<text text-anchor="middle" x="720" y="-119.5" font-family="Helvetica,sans-Serif" font-size="10.00" fill="#000000">limits.h</text>
</g>
<!-- Node8&#45;&gt;Node13 -->
<g id="edge14" class="edge">
<title>Node8&#45;&gt;Node13</title>
<path fill="none" stroke="#191970" d="M524.8684,-168.4951C565.6218,-160.3095 625.3963,-147.7055 686.155,-132.0754"/>
<polygon fill="#191970" stroke="#191970" points="687.1132,-135.4427 695.9121,-129.5411 685.3534,-128.6675 687.1132,-135.4427"/>
</g>
<!-- Node14 -->
<g id="node15" class="node">
<title>Node14</title>
<polygon fill="#ffffff" stroke="#bfbfbf" points="762,-112.5 762,-131.5 818,-131.5 818,-112.5 762,-112.5"/>
<text text-anchor="middle" x="790" y="-119.5" font-family="Helvetica,sans-Serif" font-size="10.00" fill="#000000">stdbool.h</text>
</g>
<!-- Node8&#45;&gt;Node14 -->
<g id="edge16" class="edge">
<title>Node8&#45;&gt;Node14</title>
<path fill="none" stroke="#191970" d="M539.0461,-169.3544C593.0998,-161.5272 673.2187,-148.9441 751.7268,-132.1169"/>
<polygon fill="#191970" stroke="#191970" points="752.7582,-135.4746 761.7892,-129.9345 751.2745,-128.6337 752.7582,-135.4746"/>
</g>
<!-- Node15 -->
<g id="node16" class="node">
<title>Node15</title>
<polygon fill="#ffffff" stroke="#bfbfbf" points="836,-112.5 836,-131.5 888,-131.5 888,-112.5 836,-112.5"/>
<text text-anchor="middle" x="862" y="-119.5" font-family="Helvetica,sans-Serif" font-size="10.00" fill="#000000">stddef.h</text>
</g>
<!-- Node8&#45;&gt;Node15 -->
<g id="edge17" class="edge">
<title>Node8&#45;&gt;Node15</title>
<path fill="none" stroke="#191970" d="M539.3042,-169.2992C542.583,-168.8576 545.83,-168.4224 549,-168 669.2396,-151.9793 703.2081,-156.9017 825.5906,-132.047"/>
<polygon fill="#191970" stroke="#191970" points="826.6416,-135.4042 835.7314,-129.9612 825.2313,-128.5477 826.6416,-135.4042"/>
</g>
<!-- Node16 -->
<g id="node17" class="node">
<title>Node16</title>
<polygon fill="#ffffff" stroke="#bfbfbf" points="906,-112.5 906,-131.5 954,-131.5 954,-112.5 906,-112.5"/>
<text text-anchor="middle" x="930" y="-119.5" font-family="Helvetica,sans-Serif" font-size="10.00" fill="#000000">stdlib.h</text>
</g>
<!-- Node8&#45;&gt;Node16 -->
<g id="edge20" class="edge">
<title>Node8&#45;&gt;Node16</title>
<path fill="none" stroke="#191970" d="M539.2916,-169.1996C542.5737,-168.784 545.8249,-168.3816 549,-168 700.0643,-149.8445 742.7442,-162.1327 895.7452,-131.91"/>
<polygon fill="#191970" stroke="#191970" points="896.8681,-135.2546 905.985,-129.8571 895.492,-128.3912 896.8681,-135.2546"/>
</g>
<!-- Node17 -->
<g id="node18" class="node">
<title>Node17</title>
<polygon fill="#ffffff" stroke="#bfbfbf" points="972,-112.5 972,-131.5 1016,-131.5 1016,-112.5 972,-112.5"/>
<text text-anchor="middle" x="994" y="-119.5" font-family="Helvetica,sans-Serif" font-size="10.00" fill="#000000">time.h</text>
</g>
<!-- Node8&#45;&gt;Node17 -->
<g id="edge22" class="edge">
<title>Node8&#45;&gt;Node17</title>
<path fill="none" stroke="#191970" d="M539.2842,-169.1362C542.5682,-168.7372 545.8218,-168.3556 549,-168 729.3223,-147.8215 780.1862,-167.853 961.9259,-131.8094"/>
<polygon fill="#191970" stroke="#191970" points="962.6958,-135.2247 971.8085,-129.8202 961.3145,-128.3623 962.6958,-135.2247"/>
</g>
<!-- Node18 -->
<g id="node19" class="node">
<title>Node18</title>
<polygon fill="#ffffff" stroke="#bfbfbf" points="1034.5,-112.5 1034.5,-131.5 1145.5,-131.5 1145.5,-112.5 1034.5,-112.5"/>
<text text-anchor="middle" x="1090" y="-119.5" font-family="Helvetica,sans-Serif" font-size="10.00" fill="#000000">opentracing&#45;c/tracer.h</text>
</g>
<!-- Node8&#45;&gt;Node18 -->
<g id="edge23" class="edge">
<title>Node8&#45;&gt;Node18</title>
<path fill="none" stroke="#191970" d="M539.2795,-169.0925C542.5647,-168.7049 545.8199,-168.3378 549,-168 756.6767,-145.9428 812.4856,-155.8264 1024.1695,-132.0074"/>
<polygon fill="#191970" stroke="#191970" points="1024.8284,-135.4551 1034.3688,-130.8475 1024.0373,-128.5 1024.8284,-135.4551"/>
</g>
<!-- Node10 -->
<g id="node11" class="node">
<title>Node10</title>
<g id="a_node11"><a xlink:href="visibility_8h_source.html" target="_top" xlink:title="jaegertracingc/visibility.h">
<polygon fill="#ffffff" stroke="#000000" points="418,-56.5 418,-75.5 542,-75.5 542,-56.5 418,-56.5"/>
<text text-anchor="middle" x="480" y="-63.5" font-family="Helvetica,sans-Serif" font-size="10.00" fill="#000000">jaegertracingc/visibility.h</text>
</a>
</g>
</g>
<!-- Node9&#45;&gt;Node10 -->
<g id="edge10" class="edge">
<title>Node9&#45;&gt;Node10</title>
<path fill="none" stroke="#191970" d="M476.6967,-112.2455C477.2187,-104.9382 477.9504,-94.6944 478.5925,-85.7046"/>
<polygon fill="#191970" stroke="#191970" points="482.0898,-85.8667 479.3112,-75.6427 475.1076,-85.3679 482.0898,-85.8667"/>
</g>
<!-- Node20 -->
<g id="node21" class="node">
<title>Node20</title>
<polygon fill="#ffffff" stroke="#bfbfbf" points="557.5,-168.5 557.5,-187.5 672.5,-187.5 672.5,-168.5 557.5,-168.5"/>
<text text-anchor="middle" x="615" y="-175.5" font-family="Helvetica,sans-Serif" font-size="10.00" fill="#000000">protobuf&#45;c/protobuf&#45;c.h</text>
</g>
<!-- Node19&#45;&gt;Node20 -->
<g id="edge27" class="edge">
<title>Node19&#45;&gt;Node20</title>
<path fill="none" stroke="#191970" d="M613.4944,-224.2977C613.7518,-216.3834 614.0698,-206.6043 614.3471,-198.0759"/>
<polygon fill="#191970" stroke="#191970" points="617.8528,-197.9554 614.6798,-187.8469 610.8565,-197.7279 617.8528,-197.9554"/>
</g>
<!-- Node21&#45;&gt;Node8 -->
<g id="edge29" class="edge">
<title>Node21&#45;&gt;Node8</title>
<path fill="none" stroke="#191970" d="M478.5313,-229.8906C478.1154,-221.3657 477.4946,-208.6392 476.9719,-197.9235"/>
<polygon fill="#191970" stroke="#191970" points="480.4585,-197.5624 476.4754,-187.7449 473.4668,-197.9035 480.4585,-197.5624"/>
</g>
</g>
</svg>
