<?xml version="1.0" encoding="UTF-8" standalone="no"?>
<!DOCTYPE svg PUBLIC "-//W3C//DTD SVG 1.1//EN"
 "http://www.w3.org/Graphics/SVG/1.1/DTD/svg11.dtd">
<!-- Generated by graphviz version 2.40.1 (20161225.0304)
 -->
<!-- Title: jaegertracingc/tag.h Pages: 1 -->
<svg width="401pt" height="330pt"
 viewBox="0.00 0.00 400.50 330.00" xmlns="http://www.w3.org/2000/svg" xmlns:xlink="http://www.w3.org/1999/xlink">
<g id="graph0" class="graph" transform="scale(1 1) rotate(0) translate(4 326)">
<title>jaegertracingc/tag.h</title>
<polygon fill="#ffffff" stroke="transparent" points="-4,4 -4,-326 396.5,-326 396.5,4 -4,4"/>
<!-- Node22 -->
<g id="node1" class="node">
<title>Node22</title>
<polygon fill="#bfbfbf" stroke="#000000" points="152.5,-302.5 152.5,-321.5 254.5,-321.5 254.5,-302.5 152.5,-302.5"/>
<text text-anchor="middle" x="203.5" y="-309.5" font-family="Helvetica,sans-Serif" font-size="10.00" fill="#000000">jaegertracingc/tag.h</text>
</g>
<!-- Node23 -->
<g id="node2" class="node">
<title>Node23</title>
<g id="a_node2"><a xlink:href="log__record_8h.html" target="_top" xlink:title="Log record representation for use in span. ">
<polygon fill="#ffffff" stroke="#000000" points="63,-235.5 63,-265.5 156,-265.5 156,-235.5 63,-235.5"/>
<text text-anchor="start" x="71" y="-253.5" font-family="Helvetica,sans-Serif" font-size="10.00" fill="#000000">jaegertracingc/log</text>
<text text-anchor="middle" x="109.5" y="-242.5" font-family="Helvetica,sans-Serif" font-size="10.00" fill="#000000">_record.h</text>
</a>
</g>
</g>
<!-- Node22&#45;&gt;Node23 -->
<g id="edge1" class="edge">
<title>Node22&#45;&gt;Node23</title>
<path fill="none" stroke="#191970" d="M180.3507,-296.8545C165.7766,-287.3193 147.0396,-275.0605 132.495,-265.5446"/>
<polygon fill="#191970" stroke="#191970" points="178.5281,-299.8445 188.8125,-302.3906 182.3606,-293.9868 178.5281,-299.8445"/>
</g>
<!-- Node24 -->
<g id="node3" class="node">
<title>Node24</title>
<g id="a_node3"><a xlink:href="span_8h.html" target="_top" xlink:title="Span, span context, and span ref representations and functions. ">
<polygon fill="#ffffff" stroke="#000000" points="54.5,-174 54.5,-193 164.5,-193 164.5,-174 54.5,-174"/>
<text text-anchor="middle" x="109.5" y="-181" font-family="Helvetica,sans-Serif" font-size="10.00" fill="#000000">jaegertracingc/span.h</text>
</a>
</g>
</g>
<!-- Node22&#45;&gt;Node24 -->
<g id="edge8" class="edge">
<title>Node22&#45;&gt;Node24</title>
<path fill="none" stroke="#191970" d="M196.0429,-292.8805C189.1969,-276.6188 178.0715,-253.0938 164.5,-235 152.0984,-218.4659 134.0544,-202.7237 122.0569,-193.094"/>
<polygon fill="#191970" stroke="#191970" points="192.8992,-294.4413 199.9064,-302.3879 199.3842,-291.8059 192.8992,-294.4413"/>
</g>
<!-- Node26 -->
<g id="node5" class="node">
<title>Node26</title>
<g id="a_node5"><a xlink:href="tracer_8h.html" target="_top" xlink:title="Tracer implementation. ">
<polygon fill="#ffffff" stroke="#000000" points="77,-56.5 77,-75.5 190,-75.5 190,-56.5 77,-56.5"/>
<text text-anchor="middle" x="133.5" y="-63.5" font-family="Helvetica,sans-Serif" font-size="10.00" fill="#000000">jaegertracingc/tracer.h</text>
</a>
</g>
</g>
<!-- Node22&#45;&gt;Node26 -->
<g id="edge9" class="edge">
<title>Node22&#45;&gt;Node26</title>
<path fill="none" stroke="#191970" d="M209.2758,-292.3583C219.1545,-254.731 235.3217,-170.989 203.5,-112 194.1794,-94.7221 175.2227,-82.8748 159.385,-75.5353"/>
<polygon fill="#191970" stroke="#191970" points="205.7695,-291.9053 206.472,-302.4769 212.5153,-293.7746 205.7695,-291.9053"/>
</g>
<!-- Node28 -->
<g id="node7" class="node">
<title>Node28</title>
<g id="a_node7"><a xlink:href="sampler_8h.html" target="_top" xlink:title="Span sampler interface. ">
<polygon fill="#ffffff" stroke="#000000" points="251,-241 251,-260 374,-260 374,-241 251,-241"/>
<text text-anchor="middle" x="312.5" y="-248" font-family="Helvetica,sans-Serif" font-size="10.00" fill="#000000">jaegertracingc/sampler.h</text>
</a>
</g>
</g>
<!-- Node22&#45;&gt;Node28 -->
<g id="edge10" class="edge">
<title>Node22&#45;&gt;Node28</title>
<path fill="none" stroke="#191970" d="M229.3498,-297.415C249.8391,-285.8546 277.8769,-270.035 295.5883,-260.0419"/>
<polygon fill="#191970" stroke="#191970" points="227.5207,-294.4283 220.5313,-302.3906 230.9605,-300.5249 227.5207,-294.4283"/>
</g>
<!-- Node23&#45;&gt;Node24 -->
<g id="edge2" class="edge">
<title>Node23&#45;&gt;Node24</title>
<path fill="none" stroke="#191970" d="M109.5,-225.1199C109.5,-213.9072 109.5,-201.4031 109.5,-193.055"/>
<polygon fill="#191970" stroke="#191970" points="106.0001,-225.2966 109.5,-235.2967 113.0001,-225.2967 106.0001,-225.2966"/>
</g>
<!-- Node25 -->
<g id="node4" class="node">
<title>Node25</title>
<g id="a_node4"><a xlink:href="propagation_8c.html" target="_top" xlink:title="Trace ID representation. ">
<polygon fill="#ffffff" stroke="#000000" points="0,-.5 0,-19.5 139,-19.5 139,-.5 0,-.5"/>
<text text-anchor="middle" x="69.5" y="-7.5" font-family="Helvetica,sans-Serif" font-size="10.00" fill="#000000">jaegertracingc/propagation.c</text>
</a>
</g>
</g>
<!-- Node24&#45;&gt;Node25 -->
<g id="edge3" class="edge">
<title>Node24&#45;&gt;Node25</title>
<path fill="none" stroke="#191970" d="M85.905,-167.5973C74.7397,-158.6122 62.5499,-146.3142 56.5,-132 39.9982,-92.9561 57.007,-40.8931 65.3993,-19.6445"/>
<polygon fill="#191970" stroke="#191970" points="84.0344,-170.5705 94.1247,-173.8011 88.2514,-164.9832 84.0344,-170.5705"/>
</g>
<!-- Node24&#45;&gt;Node26 -->
<g id="edge4" class="edge">
<title>Node24&#45;&gt;Node26</title>
<path fill="none" stroke="#191970" d="M87.6548,-167.494C71.0884,-153.2809 52.8405,-131.7599 63.5,-112 72.8206,-94.7221 91.7773,-82.8748 107.615,-75.5353"/>
<polygon fill="#191970" stroke="#191970" points="85.5394,-170.2845 95.5182,-173.8445 89.9375,-164.8386 85.5394,-170.2845"/>
</g>
<!-- Node27 -->
<g id="node6" class="node">
<title>Node27</title>
<g id="a_node6"><a xlink:href="reporter_8h.html" target="_top" xlink:title="Span reporter interface. ">
<polygon fill="#ffffff" stroke="#000000" points="72.5,-112.5 72.5,-131.5 194.5,-131.5 194.5,-112.5 72.5,-112.5"/>
<text text-anchor="middle" x="133.5" y="-119.5" font-family="Helvetica,sans-Serif" font-size="10.00" fill="#000000">jaegertracingc/reporter.h</text>
</a>
</g>
</g>
<!-- Node24&#45;&gt;Node27 -->
<g id="edge6" class="edge">
<title>Node24&#45;&gt;Node27</title>
<path fill="none" stroke="#191970" d="M116.9463,-164.4189C121.1722,-153.5901 126.2827,-140.4944 129.6971,-131.7449"/>
<polygon fill="#191970" stroke="#191970" points="113.625,-163.3024 113.25,-173.8906 120.146,-165.8473 113.625,-163.3024"/>
</g>
<!-- Node26&#45;&gt;Node25 -->
<g id="edge5" class="edge">
<title>Node26&#45;&gt;Node25</title>
<path fill="none" stroke="#191970" d="M114.8086,-49.645C103.6781,-39.9058 89.9337,-27.8795 80.5202,-19.6427"/>
<polygon fill="#191970" stroke="#191970" points="112.5215,-52.2945 122.3521,-56.2455 117.131,-47.0264 112.5215,-52.2945"/>
</g>
<!-- Node27&#45;&gt;Node26 -->
<g id="edge7" class="edge">
<title>Node27&#45;&gt;Node26</title>
<path fill="none" stroke="#191970" d="M133.5,-102.1575C133.5,-93.155 133.5,-82.9199 133.5,-75.6427"/>
<polygon fill="#191970" stroke="#191970" points="130.0001,-102.2455 133.5,-112.2455 137.0001,-102.2456 130.0001,-102.2455"/>
</g>
<!-- Node28&#45;&gt;Node26 -->
<g id="edge12" class="edge">
<title>Node28&#45;&gt;Node26</title>
<path fill="none" stroke="#191970" d="M300.201,-232.3936C293.7661,-222.6568 285.9147,-210.3491 279.5,-199 258.2767,-161.4511 267.5878,-141.898 236.5,-112 218.1497,-94.352 191.8754,-82.7656 170.4571,-75.6354"/>
<polygon fill="#191970" stroke="#191970" points="297.3733,-234.4614 305.8434,-240.826 303.1911,-230.5686 297.3733,-234.4614"/>
</g>
<!-- Node29 -->
<g id="node8" class="node">
<title>Node29</title>
<g id="a_node8"><a xlink:href="mock__agent_8h.html" target="_top" xlink:title="Key value pair representation. ">
<polygon fill="#ffffff" stroke="#000000" points="288.5,-168.5 288.5,-198.5 392.5,-198.5 392.5,-168.5 288.5,-168.5"/>
<text text-anchor="start" x="296.5" y="-186.5" font-family="Helvetica,sans-Serif" font-size="10.00" fill="#000000">jaegertracingc/mock</text>
<text text-anchor="middle" x="340.5" y="-175.5" font-family="Helvetica,sans-Serif" font-size="10.00" fill="#000000">_agent.h</text>
</a>
</g>
</g>
<!-- Node28&#45;&gt;Node29 -->
<g id="edge11" class="edge">
<title>Node28&#45;&gt;Node29</title>
<path fill="none" stroke="#191970" d="M320.4691,-231.4311C324.8309,-220.9939 330.1583,-208.2463 334.2222,-198.5218"/>
<polygon fill="#191970" stroke="#191970" points="317.1384,-230.3242 316.5117,-240.9005 323.5971,-233.0234 317.1384,-230.3242"/>
</g>
</g>
</svg>
