<?xml version="1.0" encoding="UTF-8" standalone="no"?>
<!DOCTYPE svg PUBLIC "-//W3C//DTD SVG 1.1//EN"
 "http://www.w3.org/Graphics/SVG/1.1/DTD/svg11.dtd">
<!-- Generated by graphviz version 2.40.1 (20161225.0304)
 -->
<!-- Title: jaegertracingc/threading.h Pages: 1 -->
<svg width="1067pt" height="252pt"
 viewBox="0.00 0.00 1066.71 252.00" xmlns="http://www.w3.org/2000/svg" xmlns:xlink="http://www.w3.org/1999/xlink">
<g id="graph0" class="graph" transform="scale(1 1) rotate(0) translate(4 248)">
<title>jaegertracingc/threading.h</title>
<polygon fill="#ffffff" stroke="transparent" points="-4,4 -4,-248 1062.7071,-248 1062.7071,4 -4,4"/>
<!-- Node0 -->
<g id="node1" class="node">
<title>Node0</title>
<polygon fill="#bfbfbf" stroke="#000000" points="632,-224.5 632,-243.5 760,-243.5 760,-224.5 632,-224.5"/>
<text text-anchor="middle" x="696" y="-231.5" font-family="Helvetica,sans-Serif" font-size="10.00" fill="#000000">jaegertracingc/threading.h</text>
</g>
<!-- Node1 -->
<g id="node2" class="node">
<title>Node1</title>
<g id="a_node2"><a xlink:href="common_8h.html" target="_top" xlink:title="Common headers, struct definitions, and macros. ">
<polygon fill="#ffffff" stroke="#000000" points="493,-168.5 493,-187.5 619,-187.5 619,-168.5 493,-168.5"/>
<text text-anchor="middle" x="556" y="-175.5" font-family="Helvetica,sans-Serif" font-size="10.00" fill="#000000">jaegertracingc/common.h</text>
</a>
</g>
</g>
<!-- Node0&#45;&gt;Node1 -->
<g id="edge1" class="edge">
<title>Node0&#45;&gt;Node1</title>
<path fill="none" stroke="#191970" d="M671.9331,-224.3733C649.1572,-215.2629 614.7656,-201.5062 589.351,-191.3404"/>
<polygon fill="#191970" stroke="#191970" points="590.3375,-187.9654 579.7528,-187.5011 587.7377,-194.4648 590.3375,-187.9654"/>
</g>
<!-- Node19 -->
<g id="node20" class="node">
<title>Node19</title>
<polygon fill="#ffffff" stroke="#bfbfbf" points="637.5,-168.5 637.5,-187.5 684.5,-187.5 684.5,-168.5 637.5,-168.5"/>
<text text-anchor="middle" x="661" y="-175.5" font-family="Helvetica,sans-Serif" font-size="10.00" fill="#000000">errno.h</text>
</g>
<!-- Node0&#45;&gt;Node19 -->
<g id="edge25" class="edge">
<title>Node0&#45;&gt;Node19</title>
<path fill="none" stroke="#191970" d="M689.9035,-224.2455C685.0855,-216.5367 678.2249,-205.5598 672.3968,-196.2348"/>
<polygon fill="#191970" stroke="#191970" points="675.2947,-194.2677 667.0267,-187.6427 669.3587,-197.9777 675.2947,-194.2677"/>
</g>
<!-- Node20 -->
<g id="node21" class="node">
<title>Node20</title>
<polygon fill="#ffffff" stroke="#bfbfbf" points="702.5,-168.5 702.5,-187.5 759.5,-187.5 759.5,-168.5 702.5,-168.5"/>
<text text-anchor="middle" x="731" y="-175.5" font-family="Helvetica,sans-Serif" font-size="10.00" fill="#000000">pthread.h</text>
</g>
<!-- Node0&#45;&gt;Node20 -->
<g id="edge26" class="edge">
<title>Node0&#45;&gt;Node20</title>
<path fill="none" stroke="#191970" d="M702.0965,-224.2455C706.9145,-216.5367 713.7751,-205.5598 719.6032,-196.2348"/>
<polygon fill="#191970" stroke="#191970" points="722.6413,-197.9777 724.9733,-187.6427 716.7053,-194.2677 722.6413,-197.9777"/>
</g>
<!-- Node21 -->
<g id="node22" class="node">
<title>Node21</title>
<polygon fill="#ffffff" stroke="#bfbfbf" points="777.5,-168.5 777.5,-187.5 828.5,-187.5 828.5,-168.5 777.5,-168.5"/>
<text text-anchor="middle" x="803" y="-175.5" font-family="Helvetica,sans-Serif" font-size="10.00" fill="#000000">sched.h</text>
</g>
<!-- Node0&#45;&gt;Node21 -->
<g id="edge27" class="edge">
<title>Node0&#45;&gt;Node21</title>
<path fill="none" stroke="#191970" d="M714.638,-224.2455C731.4386,-215.4527 756.3634,-202.4079 775.4618,-192.4125"/>
<polygon fill="#191970" stroke="#191970" points="777.3386,-195.3807 784.5756,-187.6427 774.0927,-189.1787 777.3386,-195.3807"/>
</g>
<!-- Node2 -->
<g id="node3" class="node">
<title>Node2</title>
<g id="a_node3"><a xlink:href="config_8h_source.html" target="_top" xlink:title="jaegertracingc/config.h">
<polygon fill="#ffffff" stroke="#000000" points="6.5,-112.5 6.5,-131.5 121.5,-131.5 121.5,-112.5 6.5,-112.5"/>
<text text-anchor="middle" x="64" y="-119.5" font-family="Helvetica,sans-Serif" font-size="10.00" fill="#000000">jaegertracingc/config.h</text>
</a>
</g>
</g>
<!-- Node1&#45;&gt;Node2 -->
<g id="edge2" class="edge">
<title>Node1&#45;&gt;Node2</title>
<path fill="none" stroke="#191970" d="M492.9179,-171.5486C411.0325,-163.0616 263.7272,-147.4107 138,-132 135.9392,-131.7474 133.8465,-131.4873 131.7342,-131.2215"/>
<polygon fill="#191970" stroke="#191970" points="132.1134,-127.7416 121.7501,-129.9443 131.2251,-134.685 132.1134,-127.7416"/>
</g>
<!-- Node4 -->
<g id="node5" class="node">
<title>Node4</title>
<polygon fill="#ffffff" stroke="#bfbfbf" points="430,-56.5 430,-75.5 482,-75.5 482,-56.5 430,-56.5"/>
<text text-anchor="middle" x="456" y="-63.5" font-family="Helvetica,sans-Serif" font-size="10.00" fill="#000000">assert.h</text>
</g>
<!-- Node1&#45;&gt;Node4 -->
<g id="edge4" class="edge">
<title>Node1&#45;&gt;Node4</title>
<path fill="none" stroke="#191970" d="M509.9032,-168.433C474.823,-160.1076 430.7881,-147.0374 420,-132 408.6374,-116.1619 422.7838,-96.3414 436.5436,-82.5751"/>
<polygon fill="#191970" stroke="#191970" points="439.0729,-85.0017 443.9837,-75.6137 434.2903,-79.8902 439.0729,-85.0017"/>
</g>
<!-- Node5 -->
<g id="node6" class="node">
<title>Node5</title>
<polygon fill="#ffffff" stroke="#bfbfbf" points="180.5,-112.5 180.5,-131.5 229.5,-131.5 229.5,-112.5 180.5,-112.5"/>
<text text-anchor="middle" x="205" y="-119.5" font-family="Helvetica,sans-Serif" font-size="10.00" fill="#000000">ctype.h</text>
</g>
<!-- Node1&#45;&gt;Node5 -->
<g id="edge5" class="edge">
<title>Node1&#45;&gt;Node5</title>
<path fill="none" stroke="#191970" d="M492.7417,-171.6902C430.4066,-164.8327 332.3773,-152.3378 239.5896,-132.116"/>
<polygon fill="#191970" stroke="#191970" points="240.2802,-128.6842 229.76,-129.94 238.7671,-135.5187 240.2802,-128.6842"/>
</g>
<!-- Node6 -->
<g id="node7" class="node">
<title>Node6</title>
<polygon fill="#ffffff" stroke="#bfbfbf" points="247.5,-112.5 247.5,-131.5 306.5,-131.5 306.5,-112.5 247.5,-112.5"/>
<text text-anchor="middle" x="277" y="-119.5" font-family="Helvetica,sans-Serif" font-size="10.00" fill="#000000">inttypes.h</text>
</g>
<!-- Node1&#45;&gt;Node6 -->
<g id="edge6" class="edge">
<title>Node1&#45;&gt;Node6</title>
<path fill="none" stroke="#191970" d="M500.9924,-168.4522C454.5048,-160.1577 385.9343,-147.3968 316.9443,-132.1073"/>
<polygon fill="#191970" stroke="#191970" points="317.2875,-128.5977 306.765,-129.8333 315.7613,-135.4294 317.2875,-128.5977"/>
</g>
<!-- Node7 -->
<g id="node8" class="node">
<title>Node7</title>
<polygon fill="#ffffff" stroke="#bfbfbf" points="325,-112.5 325,-131.5 373,-131.5 373,-112.5 325,-112.5"/>
<text text-anchor="middle" x="349" y="-119.5" font-family="Helvetica,sans-Serif" font-size="10.00" fill="#000000">limits.h</text>
</g>
<!-- Node1&#45;&gt;Node7 -->
<g id="edge7" class="edge">
<title>Node1&#45;&gt;Node7</title>
<path fill="none" stroke="#191970" d="M520.4154,-168.3733C481.955,-157.9685 421.0933,-141.5035 383.1864,-131.2485"/>
<polygon fill="#191970" stroke="#191970" points="383.7082,-127.7639 373.1411,-128.5309 381.8801,-134.521 383.7082,-127.7639"/>
</g>
<!-- Node8 -->
<g id="node9" class="node">
<title>Node8</title>
<polygon fill="#ffffff" stroke="#bfbfbf" points="464,-.5 464,-19.5 516,-19.5 516,-.5 464,-.5"/>
<text text-anchor="middle" x="490" y="-7.5" font-family="Helvetica,sans-Serif" font-size="10.00" fill="#000000">stdarg.h</text>
</g>
<!-- Node1&#45;&gt;Node8 -->
<g id="edge8" class="edge">
<title>Node1&#45;&gt;Node8</title>
<path fill="none" stroke="#191970" d="M492.97,-174.9734C389.2651,-169.3418 191.9748,-155.6301 171,-132 88.6831,-39.2623 353.7417,-16.6255 453.5583,-11.4452"/>
<polygon fill="#191970" stroke="#191970" points="453.9691,-14.9294 463.7865,-10.9459 453.6277,-7.9377 453.9691,-14.9294"/>
</g>
<!-- Node9 -->
<g id="node10" class="node">
<title>Node9</title>
<polygon fill="#ffffff" stroke="#bfbfbf" points="429,-112.5 429,-131.5 485,-131.5 485,-112.5 429,-112.5"/>
<text text-anchor="middle" x="457" y="-119.5" font-family="Helvetica,sans-Serif" font-size="10.00" fill="#000000">stdbool.h</text>
</g>
<!-- Node1&#45;&gt;Node9 -->
<g id="edge9" class="edge">
<title>Node1&#45;&gt;Node9</title>
<path fill="none" stroke="#191970" d="M538.7555,-168.2455C523.4239,-159.5731 500.7801,-146.7645 483.2084,-136.825"/>
<polygon fill="#191970" stroke="#191970" points="484.4741,-133.5198 474.0469,-131.6427 481.0276,-139.6126 484.4741,-133.5198"/>
</g>
<!-- Node10 -->
<g id="node11" class="node">
<title>Node10</title>
<polygon fill="#ffffff" stroke="#bfbfbf" points="503,-112.5 503,-131.5 555,-131.5 555,-112.5 503,-112.5"/>
<text text-anchor="middle" x="529" y="-119.5" font-family="Helvetica,sans-Serif" font-size="10.00" fill="#000000">stddef.h</text>
</g>
<!-- Node1&#45;&gt;Node10 -->
<g id="edge10" class="edge">
<title>Node1&#45;&gt;Node10</title>
<path fill="none" stroke="#191970" d="M551.297,-168.2455C547.6576,-160.6973 542.5076,-150.0158 538.0738,-140.8197"/>
<polygon fill="#191970" stroke="#191970" points="541.1449,-139.1303 533.6491,-131.6427 534.8395,-142.1704 541.1449,-139.1303"/>
</g>
<!-- Node11 -->
<g id="node12" class="node">
<title>Node11</title>
<polygon fill="#ffffff" stroke="#bfbfbf" points="757.5,-56.5 757.5,-75.5 806.5,-75.5 806.5,-56.5 757.5,-56.5"/>
<text text-anchor="middle" x="782" y="-63.5" font-family="Helvetica,sans-Serif" font-size="10.00" fill="#000000">stdint.h</text>
</g>
<!-- Node1&#45;&gt;Node11 -->
<g id="edge11" class="edge">
<title>Node1&#45;&gt;Node11</title>
<path fill="none" stroke="#191970" d="M615.8952,-168.4656C685.0797,-157.1661 790.2227,-138.9898 796,-132 806.9137,-118.7958 800.7885,-99.1379 793.5307,-84.7097"/>
<polygon fill="#191970" stroke="#191970" points="796.4394,-82.7387 788.5206,-75.7 790.3217,-86.1406 796.4394,-82.7387"/>
</g>
<!-- Node12 -->
<g id="node13" class="node">
<title>Node12</title>
<polygon fill="#ffffff" stroke="#bfbfbf" points="716,-.5 716,-19.5 762,-19.5 762,-.5 716,-.5"/>
<text text-anchor="middle" x="739" y="-7.5" font-family="Helvetica,sans-Serif" font-size="10.00" fill="#000000">stdio.h</text>
</g>
<!-- Node1&#45;&gt;Node12 -->
<g id="edge12" class="edge">
<title>Node1&#45;&gt;Node12</title>
<path fill="none" stroke="#191970" d="M619.1929,-169.0358C622.1685,-168.6727 625.1157,-168.3252 628,-168 673.9929,-162.8147 1011.7182,-166.1128 1043,-132 1123.8655,-43.8159 866.4846,-18.1768 772.209,-11.8402"/>
<polygon fill="#191970" stroke="#191970" points="772.2676,-8.3369 762.0645,-11.1911 771.8206,-15.3226 772.2676,-8.3369"/>
</g>
<!-- Node13 -->
<g id="node14" class="node">
<title>Node13</title>
<polygon fill="#ffffff" stroke="#bfbfbf" points="739,-112.5 739,-131.5 787,-131.5 787,-112.5 739,-112.5"/>
<text text-anchor="middle" x="763" y="-119.5" font-family="Helvetica,sans-Serif" font-size="10.00" fill="#000000">stdlib.h</text>
</g>
<!-- Node1&#45;&gt;Node13 -->
<g id="edge13" class="edge">
<title>Node1&#45;&gt;Node13</title>
<path fill="none" stroke="#191970" d="M592.8614,-168.4971C627.9378,-159.3839 682.1632,-145.1122 729,-132 729.1,-131.972 729.2001,-131.944 729.3004,-131.9158"/>
<polygon fill="#191970" stroke="#191970" points="730.2228,-135.2924 738.8764,-129.1798 728.2996,-128.5618 730.2228,-135.2924"/>
</g>
<!-- Node14 -->
<g id="node15" class="node">
<title>Node14</title>
<polygon fill="#ffffff" stroke="#bfbfbf" points="899.5,-56.5 899.5,-75.5 948.5,-75.5 948.5,-56.5 899.5,-56.5"/>
<text text-anchor="middle" x="924" y="-63.5" font-family="Helvetica,sans-Serif" font-size="10.00" fill="#000000">string.h</text>
</g>
<!-- Node1&#45;&gt;Node14 -->
<g id="edge14" class="edge">
<title>Node1&#45;&gt;Node14</title>
<path fill="none" stroke="#191970" d="M619.1944,-169.049C622.1695,-168.6823 625.1163,-168.3305 628,-168 672.114,-162.9443 996.0501,-164.7812 1026,-132 1050.2911,-105.4126 996.8063,-84.9314 958.487,-74.2384"/>
<polygon fill="#191970" stroke="#191970" points="959.2084,-70.8084 948.6439,-71.6088 957.4017,-77.5712 959.2084,-70.8084"/>
</g>
<!-- Node15 -->
<g id="node16" class="node">
<title>Node15</title>
<polygon fill="#ffffff" stroke="#bfbfbf" points="843,-112.5 843,-131.5 887,-131.5 887,-112.5 843,-112.5"/>
<text text-anchor="middle" x="865" y="-119.5" font-family="Helvetica,sans-Serif" font-size="10.00" fill="#000000">time.h</text>
</g>
<!-- Node1&#45;&gt;Node15 -->
<g id="edge15" class="edge">
<title>Node1&#45;&gt;Node15</title>
<path fill="none" stroke="#191970" d="M619.2509,-169.2492C674.8148,-161.1092 757.6868,-147.8676 829,-132 830.2466,-131.7226 831.5143,-131.4288 832.7926,-131.1226"/>
<polygon fill="#191970" stroke="#191970" points="833.8039,-134.4767 842.6222,-128.604 832.0664,-127.6957 833.8039,-134.4767"/>
</g>
<!-- Node16 -->
<g id="node17" class="node">
<title>Node16</title>
<polygon fill="#ffffff" stroke="#bfbfbf" points="905.5,-112.5 905.5,-131.5 1016.5,-131.5 1016.5,-112.5 905.5,-112.5"/>
<text text-anchor="middle" x="961" y="-119.5" font-family="Helvetica,sans-Serif" font-size="10.00" fill="#000000">opentracing&#45;c/tracer.h</text>
</g>
<!-- Node1&#45;&gt;Node16 -->
<g id="edge16" class="edge">
<title>Node1&#45;&gt;Node16</title>
<path fill="none" stroke="#191970" d="M619.2139,-169.204C622.1838,-168.7959 625.1241,-168.3929 628,-168 743.9353,-152.1623 775.4048,-149.2843 895.3946,-132.0655"/>
<polygon fill="#191970" stroke="#191970" points="895.9416,-135.5229 905.3412,-130.6345 894.9447,-128.5943 895.9416,-135.5229"/>
</g>
<!-- Node17 -->
<g id="node18" class="node">
<title>Node17</title>
<g id="a_node18"><a xlink:href="alloc_8h.html" target="_top" xlink:title="Allocator struct and functions. ">
<polygon fill="#ffffff" stroke="#000000" points="611.5,-112.5 611.5,-131.5 720.5,-131.5 720.5,-112.5 611.5,-112.5"/>
<text text-anchor="middle" x="666" y="-119.5" font-family="Helvetica,sans-Serif" font-size="10.00" fill="#000000">jaegertracingc/alloc.h</text>
</a>
</g>
</g>
<!-- Node1&#45;&gt;Node17 -->
<g id="edge17" class="edge">
<title>Node1&#45;&gt;Node17</title>
<path fill="none" stroke="#191970" d="M575.1605,-168.2455C592.5111,-159.4125 618.2901,-146.2887 637.9583,-136.2758"/>
<polygon fill="#191970" stroke="#191970" points="639.7353,-139.2986 647.059,-131.6427 636.5595,-133.0605 639.7353,-139.2986"/>
</g>
<!-- Node18 -->
<g id="node19" class="node">
<title>Node18</title>
<g id="a_node19"><a xlink:href="logging_8h.html" target="_top" xlink:title="Logging interface and initialization functions. ">
<polygon fill="#ffffff" stroke="#000000" points="555.5,-56.5 555.5,-75.5 674.5,-75.5 674.5,-56.5 555.5,-56.5"/>
<text text-anchor="middle" x="615" y="-63.5" font-family="Helvetica,sans-Serif" font-size="10.00" fill="#000000">jaegertracingc/logging.h</text>
</a>
</g>
</g>
<!-- Node1&#45;&gt;Node18 -->
<g id="edge24" class="edge">
<title>Node1&#45;&gt;Node18</title>
<path fill="none" stroke="#191970" d="M561.0303,-168.4509C570.8273,-149.8533 592.6159,-108.4919 605.309,-84.3964"/>
<polygon fill="#191970" stroke="#191970" points="608.4183,-86.0036 609.9824,-75.5249 602.225,-82.7411 608.4183,-86.0036"/>
</g>
<!-- Node3 -->
<g id="node4" class="node">
<title>Node3</title>
<g id="a_node4"><a xlink:href="visibility_8h_source.html" target="_top" xlink:title="jaegertracingc/visibility.h">
<polygon fill="#ffffff" stroke="#000000" points="0,-56.5 0,-75.5 124,-75.5 124,-56.5 0,-56.5"/>
<text text-anchor="middle" x="62" y="-63.5" font-family="Helvetica,sans-Serif" font-size="10.00" fill="#000000">jaegertracingc/visibility.h</text>
</a>
</g>
</g>
<!-- Node2&#45;&gt;Node3 -->
<g id="edge3" class="edge">
<title>Node2&#45;&gt;Node3</title>
<path fill="none" stroke="#191970" d="M63.6516,-112.2455C63.3907,-104.9382 63.0248,-94.6944 62.7037,-85.7046"/>
<polygon fill="#191970" stroke="#191970" points="66.1992,-85.5113 62.3444,-75.6427 59.2036,-85.7613 66.1992,-85.5113"/>
</g>
<!-- Node17&#45;&gt;Node4 -->
<g id="edge18" class="edge">
<title>Node17&#45;&gt;Node4</title>
<path fill="none" stroke="#191970" d="M629.8997,-112.3733C591.2534,-102.0676 530.3118,-85.8165 491.7866,-75.5431"/>
<polygon fill="#191970" stroke="#191970" points="492.5917,-72.1356 482.0275,-72.9407 490.788,-78.8992 492.5917,-72.1356"/>
</g>
<!-- Node17&#45;&gt;Node11 -->
<g id="edge19" class="edge">
<title>Node17&#45;&gt;Node11</title>
<path fill="none" stroke="#191970" d="M685.9411,-112.3733C704.4786,-103.4241 732.3028,-89.9917 753.2413,-79.8835"/>
<polygon fill="#191970" stroke="#191970" points="754.8352,-83.0006 762.3191,-75.5011 751.7919,-76.6967 754.8352,-83.0006"/>
</g>
<!-- Node17&#45;&gt;Node14 -->
<g id="edge20" class="edge">
<title>Node17&#45;&gt;Node14</title>
<path fill="none" stroke="#191970" d="M710.0586,-112.4369C760.7696,-101.4298 843.0062,-83.5801 889.3606,-73.5186"/>
<polygon fill="#191970" stroke="#191970" points="890.2031,-76.9174 899.2331,-71.3758 888.7182,-70.0766 890.2031,-76.9174"/>
</g>
<!-- Node17&#45;&gt;Node18 -->
<g id="edge21" class="edge">
<title>Node17&#45;&gt;Node18</title>
<path fill="none" stroke="#191970" d="M657.1165,-112.2455C649.8034,-104.2155 639.2609,-92.6394 630.5533,-83.0781"/>
<polygon fill="#191970" stroke="#191970" points="633.1028,-80.6795 623.7817,-75.6427 627.9273,-85.3928 633.1028,-80.6795"/>
</g>
<!-- Node18&#45;&gt;Node8 -->
<g id="edge22" class="edge">
<title>Node18&#45;&gt;Node8</title>
<path fill="none" stroke="#191970" d="M593.5117,-56.3733C573.356,-47.3435 543.012,-33.7494 520.382,-23.6111"/>
<polygon fill="#191970" stroke="#191970" points="521.7649,-20.3955 511.2079,-19.5011 518.9029,-26.7838 521.7649,-20.3955"/>
</g>
<!-- Node18&#45;&gt;Node12 -->
<g id="edge23" class="edge">
<title>Node18&#45;&gt;Node12</title>
<path fill="none" stroke="#191970" d="M636.3164,-56.3733C656.2216,-47.3838 686.1436,-33.8706 708.56,-23.7471"/>
<polygon fill="#191970" stroke="#191970" points="710.2887,-26.8068 717.9618,-19.5011 707.4075,-20.4272 710.2887,-26.8068"/>
</g>
</g>
</svg>
