<?xml version="1.0" encoding="UTF-8" standalone="no"?>
<!DOCTYPE svg PUBLIC "-//W3C//DTD SVG 1.1//EN"
 "http://www.w3.org/Graphics/SVG/1.1/DTD/svg11.dtd">
<!-- Generated by graphviz version 2.40.1 (20161225.0304)
 -->
<!-- Title: jaegertracingc/threading.h Pages: 1 -->
<svg width="473pt" height="274pt"
 viewBox="0.00 0.00 472.83 274.00" xmlns="http://www.w3.org/2000/svg" xmlns:xlink="http://www.w3.org/1999/xlink">
<g id="graph0" class="graph" transform="scale(1 1) rotate(0) translate(4 270)">
<title>jaegertracingc/threading.h</title>
<polygon fill="#ffffff" stroke="transparent" points="-4,4 -4,-270 468.8292,-270 468.8292,4 -4,4"/>
<!-- Node22 -->
<g id="node1" class="node">
<title>Node22</title>
<polygon fill="#bfbfbf" stroke="#000000" points="204,-246.5 204,-265.5 332,-265.5 332,-246.5 204,-246.5"/>
<text text-anchor="middle" x="268" y="-253.5" font-family="Helvetica,sans-Serif" font-size="10.00" fill="#000000">jaegertracingc/threading.h</text>
</g>
<!-- Node23 -->
<g id="node2" class="node">
<title>Node23</title>
<g id="a_node2"><a xlink:href="internal_2random_8h_source.html" target="_top" xlink:title="jaegertracingc/internal\l/random.h">
<polygon fill="#ffffff" stroke="#000000" points="0,-179.5 0,-209.5 112,-209.5 112,-179.5 0,-179.5"/>
<text text-anchor="start" x="8" y="-197.5" font-family="Helvetica,sans-Serif" font-size="10.00" fill="#000000">jaegertracingc/internal</text>
<text text-anchor="middle" x="56" y="-186.5" font-family="Helvetica,sans-Serif" font-size="10.00" fill="#000000">/random.h</text>
</a>
</g>
</g>
<!-- Node22&#45;&gt;Node23 -->
<g id="edge1" class="edge">
<title>Node22&#45;&gt;Node23</title>
<path fill="none" stroke="#191970" d="M225.2641,-243.6025C191.3864,-233.7748 143.913,-220.0031 107.861,-209.5446"/>
<polygon fill="#191970" stroke="#191970" points="224.2958,-246.9659 234.875,-246.3906 226.2461,-240.2431 224.2958,-246.9659"/>
</g>
<!-- Node24 -->
<g id="node3" class="node">
<title>Node24</title>
<g id="a_node3"><a xlink:href="mock__agent_8h.html" target="_top" xlink:title="Key value pair representation. ">
<polygon fill="#ffffff" stroke="#000000" points="346,-112.5 346,-142.5 450,-142.5 450,-112.5 346,-112.5"/>
<text text-anchor="start" x="354" y="-130.5" font-family="Helvetica,sans-Serif" font-size="10.00" fill="#000000">jaegertracingc/mock</text>
<text text-anchor="middle" x="398" y="-119.5" font-family="Helvetica,sans-Serif" font-size="10.00" fill="#000000">_agent.h</text>
</a>
</g>
</g>
<!-- Node22&#45;&gt;Node24 -->
<g id="edge2" class="edge">
<title>Node22&#45;&gt;Node24</title>
<path fill="none" stroke="#191970" d="M280.1166,-237.6762C291.423,-221.3071 309.3148,-197.1757 328,-179 342.0593,-165.3241 359.8908,-152.2573 374.0378,-142.7076"/>
<polygon fill="#191970" stroke="#191970" points="276.9762,-236.0714 274.2643,-246.3133 282.7712,-239.998 276.9762,-236.0714"/>
</g>
<!-- Node25 -->
<g id="node4" class="node">
<title>Node25</title>
<g id="a_node4"><a xlink:href="span_8h.html" target="_top" xlink:title="Span, span context, and span ref representations and functions. ">
<polygon fill="#ffffff" stroke="#000000" points="130,-185 130,-204 240,-204 240,-185 130,-185"/>
<text text-anchor="middle" x="185" y="-192" font-family="Helvetica,sans-Serif" font-size="10.00" fill="#000000">jaegertracingc/span.h</text>
</a>
</g>
</g>
<!-- Node22&#45;&gt;Node25 -->
<g id="edge3" class="edge">
<title>Node22&#45;&gt;Node25</title>
<path fill="none" stroke="#191970" d="M246.6077,-240.1491C231.1858,-228.722 210.8784,-213.6749 197.8777,-204.0419"/>
<polygon fill="#191970" stroke="#191970" points="244.9128,-243.2493 255.0313,-246.3906 249.0802,-237.625 244.9128,-243.2493"/>
</g>
<!-- Node28 -->
<g id="node7" class="node">
<title>Node28</title>
<g id="a_node7"><a xlink:href="reporter_8h.html" target="_top" xlink:title="Span reporter interface. ">
<polygon fill="#ffffff" stroke="#000000" points="206,-118 206,-137 328,-137 328,-118 206,-118"/>
<text text-anchor="middle" x="267" y="-125" font-family="Helvetica,sans-Serif" font-size="10.00" fill="#000000">jaegertracingc/reporter.h</text>
</a>
</g>
</g>
<!-- Node22&#45;&gt;Node28 -->
<g id="edge9" class="edge">
<title>Node22&#45;&gt;Node28</title>
<path fill="none" stroke="#191970" d="M267.8457,-236.1733C267.6282,-208.2236 267.2397,-158.3037 267.076,-137.2705"/>
<polygon fill="#191970" stroke="#191970" points="264.347,-236.3692 267.9248,-246.3416 271.3468,-236.3146 264.347,-236.3692"/>
</g>
<!-- Node29 -->
<g id="node8" class="node">
<title>Node29</title>
<g id="a_node8"><a xlink:href="sampler_8h.html" target="_top" xlink:title="Span sampler interface. ">
<polygon fill="#ffffff" stroke="#000000" points="336.5,-185 336.5,-204 459.5,-204 459.5,-185 336.5,-185"/>
<text text-anchor="middle" x="398" y="-192" font-family="Helvetica,sans-Serif" font-size="10.00" fill="#000000">jaegertracingc/sampler.h</text>
</a>
</g>
</g>
<!-- Node22&#45;&gt;Node29 -->
<g id="edge10" class="edge">
<title>Node22&#45;&gt;Node29</title>
<path fill="none" stroke="#191970" d="M297.5181,-242.0357C322.0577,-230.4265 356.3258,-214.2151 377.8301,-204.0419"/>
<polygon fill="#191970" stroke="#191970" points="295.8553,-238.9504 288.3125,-246.3906 298.8488,-245.278 295.8553,-238.9504"/>
</g>
<!-- Node26 -->
<g id="node5" class="node">
<title>Node26</title>
<g id="a_node5"><a xlink:href="propagation_8c.html" target="_top" xlink:title="Trace ID representation. ">
<polygon fill="#ffffff" stroke="#000000" points="112.5,-.5 112.5,-19.5 251.5,-19.5 251.5,-.5 112.5,-.5"/>
<text text-anchor="middle" x="182" y="-7.5" font-family="Helvetica,sans-Serif" font-size="10.00" fill="#000000">jaegertracingc/propagation.c</text>
</a>
</g>
</g>
<!-- Node25&#45;&gt;Node26 -->
<g id="edge4" class="edge">
<title>Node25&#45;&gt;Node26</title>
<path fill="none" stroke="#191970" d="M183.567,-174.7234C181.7845,-147.8531 179.0807,-98.307 180,-56 180.2744,-43.373 180.9719,-28.8101 181.4657,-19.5108"/>
<polygon fill="#191970" stroke="#191970" points="180.0797,-175.029 184.2613,-184.7637 187.063,-174.546 180.0797,-175.029"/>
</g>
<!-- Node27 -->
<g id="node6" class="node">
<title>Node27</title>
<g id="a_node6"><a xlink:href="tracer_8h.html" target="_top" xlink:title="Tracer implementation. ">
<polygon fill="#ffffff" stroke="#000000" points="189.5,-56.5 189.5,-75.5 302.5,-75.5 302.5,-56.5 189.5,-56.5"/>
<text text-anchor="middle" x="246" y="-63.5" font-family="Helvetica,sans-Serif" font-size="10.00" fill="#000000">jaegertracingc/tracer.h</text>
</a>
</g>
</g>
<!-- Node25&#45;&gt;Node27 -->
<g id="edge5" class="edge">
<title>Node25&#45;&gt;Node27</title>
<path fill="none" stroke="#191970" d="M184.2903,-174.853C184.462,-157.402 186.7336,-131.6861 197,-112 204.8773,-96.8951 219.7071,-84.0575 230.9971,-75.8139"/>
<polygon fill="#191970" stroke="#191970" points="180.7921,-175.0258 184.4178,-184.9809 187.7915,-174.9376 180.7921,-175.0258"/>
</g>
<!-- Node25&#45;&gt;Node28 -->
<g id="edge7" class="edge">
<title>Node25&#45;&gt;Node28</title>
<path fill="none" stroke="#191970" d="M204.8279,-178.2992C220.5989,-165.4131 242.1299,-147.8207 255.2732,-137.0817"/>
<polygon fill="#191970" stroke="#191970" points="202.2779,-175.8629 196.7486,-184.9005 206.7069,-181.2836 202.2779,-175.8629"/>
</g>
<!-- Node27&#45;&gt;Node26 -->
<g id="edge6" class="edge">
<title>Node27&#45;&gt;Node26</title>
<path fill="none" stroke="#191970" d="M227.3086,-49.645C216.1781,-39.9058 202.4337,-27.8795 193.0202,-19.6427"/>
<polygon fill="#191970" stroke="#191970" points="225.0215,-52.2945 234.8521,-56.2455 229.631,-47.0264 225.0215,-52.2945"/>
</g>
<!-- Node28&#45;&gt;Node27 -->
<g id="edge8" class="edge">
<title>Node28&#45;&gt;Node27</title>
<path fill="none" stroke="#191970" d="M260.4845,-108.4189C256.7869,-97.5901 252.3152,-84.4944 249.3275,-75.7449"/>
<polygon fill="#191970" stroke="#191970" points="257.175,-109.5581 263.7188,-117.8906 263.7995,-107.2961 257.175,-109.5581"/>
</g>
<!-- Node29&#45;&gt;Node24 -->
<g id="edge11" class="edge">
<title>Node29&#45;&gt;Node24</title>
<path fill="none" stroke="#191970" d="M398,-174.7758C398,-164.4641 398,-152.0437 398,-142.5218"/>
<polygon fill="#191970" stroke="#191970" points="394.5001,-174.9005 398,-184.9005 401.5001,-174.9006 394.5001,-174.9005"/>
</g>
<!-- Node29&#45;&gt;Node27 -->
<g id="edge12" class="edge">
<title>Node29&#45;&gt;Node27</title>
<path fill="none" stroke="#191970" d="M422.7441,-179.236C446.8698,-162.4538 477.4331,-134.8389 459,-112 439.6947,-88.0804 359.0746,-75.9928 302.7593,-70.354"/>
<polygon fill="#191970" stroke="#191970" points="420.628,-176.4402 414.2496,-184.8999 424.5114,-182.2643 420.628,-176.4402"/>
</g>
</g>
</svg>
