<?xml version="1.0" encoding="UTF-8" standalone="no"?>
<!DOCTYPE svg PUBLIC "-//W3C//DTD SVG 1.1//EN"
 "http://www.w3.org/Graphics/SVG/1.1/DTD/svg11.dtd">
<!-- Generated by graphviz version 2.40.1 (20161225.0304)
 -->
<!-- Title: jaegertracingc/token_bucket.h Pages: 1 -->
<svg width="1067pt" height="319pt"
 viewBox="0.00 0.00 1066.59 319.00" xmlns="http://www.w3.org/2000/svg" xmlns:xlink="http://www.w3.org/1999/xlink">
<g id="graph0" class="graph" transform="scale(1 1) rotate(0) translate(4 315)">
<title>jaegertracingc/token_bucket.h</title>
<polygon fill="#ffffff" stroke="transparent" points="-4,4 -4,-315 1062.592,-315 1062.592,4 -4,4"/>
<!-- Node0 -->
<g id="node1" class="node">
<title>Node0</title>
<polygon fill="#bfbfbf" stroke="#000000" points="504,-280.5 504,-310.5 608,-310.5 608,-280.5 504,-280.5"/>
<text text-anchor="start" x="512" y="-298.5" font-family="Helvetica,sans-Serif" font-size="10.00" fill="#000000">jaegertracingc/token</text>
<text text-anchor="middle" x="556" y="-287.5" font-family="Helvetica,sans-Serif" font-size="10.00" fill="#000000">_bucket.h</text>
</g>
<!-- Node1 -->
<g id="node2" class="node">
<title>Node1</title>
<g id="a_node2"><a xlink:href="clock_8h.html" target="_top" xlink:title="Timestamp and duration representations. ">
<polygon fill="#ffffff" stroke="#000000" points="458,-224.5 458,-243.5 570,-243.5 570,-224.5 458,-224.5"/>
<text text-anchor="middle" x="514" y="-231.5" font-family="Helvetica,sans-Serif" font-size="10.00" fill="#000000">jaegertracingc/clock.h</text>
</a>
</g>
</g>
<!-- Node0&#45;&gt;Node1 -->
<g id="edge1" class="edge">
<title>Node0&#45;&gt;Node1</title>
<path fill="none" stroke="#191970" d="M545.618,-280.2977C539.8487,-271.8498 532.6284,-261.2773 526.5447,-252.369"/>
<polygon fill="#191970" stroke="#191970" points="529.2547,-250.1311 520.7247,-243.8469 523.4741,-254.0788 529.2547,-250.1311"/>
</g>
<!-- Node2 -->
<g id="node3" class="node">
<title>Node2</title>
<g id="a_node3"><a xlink:href="common_8h.html" target="_top" xlink:title="Common headers, struct definitions, and macros. ">
<polygon fill="#ffffff" stroke="#000000" points="493,-168.5 493,-187.5 619,-187.5 619,-168.5 493,-168.5"/>
<text text-anchor="middle" x="556" y="-175.5" font-family="Helvetica,sans-Serif" font-size="10.00" fill="#000000">jaegertracingc/common.h</text>
</a>
</g>
</g>
<!-- Node0&#45;&gt;Node2 -->
<g id="edge26" class="edge">
<title>Node0&#45;&gt;Node2</title>
<path fill="none" stroke="#191970" d="M565.9262,-280.356C574.1105,-266.0176 583.6736,-243.7977 579,-224 576.7294,-214.3814 572.1225,-204.4809 567.6241,-196.3404"/>
<polygon fill="#191970" stroke="#191970" points="570.633,-194.5524 562.5397,-187.7151 564.6027,-198.1071 570.633,-194.5524"/>
</g>
<!-- Node1&#45;&gt;Node2 -->
<g id="edge2" class="edge">
<title>Node1&#45;&gt;Node2</title>
<path fill="none" stroke="#191970" d="M521.3158,-224.2455C527.2179,-216.3761 535.6742,-205.101 542.7594,-195.6542"/>
<polygon fill="#191970" stroke="#191970" points="545.568,-197.7427 548.768,-187.6427 539.9679,-193.5427 545.568,-197.7427"/>
</g>
<!-- Node3 -->
<g id="node4" class="node">
<title>Node3</title>
<g id="a_node4"><a xlink:href="config_8h_source.html" target="_top" xlink:title="jaegertracingc/config.h">
<polygon fill="#ffffff" stroke="#000000" points="6.5,-112.5 6.5,-131.5 121.5,-131.5 121.5,-112.5 6.5,-112.5"/>
<text text-anchor="middle" x="64" y="-119.5" font-family="Helvetica,sans-Serif" font-size="10.00" fill="#000000">jaegertracingc/config.h</text>
</a>
</g>
</g>
<!-- Node2&#45;&gt;Node3 -->
<g id="edge3" class="edge">
<title>Node2&#45;&gt;Node3</title>
<path fill="none" stroke="#191970" d="M492.9179,-171.5486C411.0325,-163.0616 263.7272,-147.4107 138,-132 135.9392,-131.7474 133.8465,-131.4873 131.7342,-131.2215"/>
<polygon fill="#191970" stroke="#191970" points="132.1134,-127.7416 121.7501,-129.9443 131.2251,-134.685 132.1134,-127.7416"/>
</g>
<!-- Node5 -->
<g id="node6" class="node">
<title>Node5</title>
<polygon fill="#ffffff" stroke="#bfbfbf" points="414,-56.5 414,-75.5 466,-75.5 466,-56.5 414,-56.5"/>
<text text-anchor="middle" x="440" y="-63.5" font-family="Helvetica,sans-Serif" font-size="10.00" fill="#000000">assert.h</text>
</g>
<!-- Node2&#45;&gt;Node5 -->
<g id="edge5" class="edge">
<title>Node2&#45;&gt;Node5</title>
<path fill="none" stroke="#191970" d="M509.9032,-168.433C474.823,-160.1076 430.7881,-147.0374 420,-132 409.8092,-117.7952 417.75,-98.3229 426.4542,-84.2133"/>
<polygon fill="#191970" stroke="#191970" points="429.4202,-86.0748 432.1015,-75.8249 423.6135,-82.1656 429.4202,-86.0748"/>
</g>
<!-- Node6 -->
<g id="node7" class="node">
<title>Node6</title>
<polygon fill="#ffffff" stroke="#bfbfbf" points="180.5,-112.5 180.5,-131.5 229.5,-131.5 229.5,-112.5 180.5,-112.5"/>
<text text-anchor="middle" x="205" y="-119.5" font-family="Helvetica,sans-Serif" font-size="10.00" fill="#000000">ctype.h</text>
</g>
<!-- Node2&#45;&gt;Node6 -->
<g id="edge6" class="edge">
<title>Node2&#45;&gt;Node6</title>
<path fill="none" stroke="#191970" d="M492.7417,-171.6902C430.4066,-164.8327 332.3773,-152.3378 239.5896,-132.116"/>
<polygon fill="#191970" stroke="#191970" points="240.2802,-128.6842 229.76,-129.94 238.7671,-135.5187 240.2802,-128.6842"/>
</g>
<!-- Node7 -->
<g id="node8" class="node">
<title>Node7</title>
<polygon fill="#ffffff" stroke="#bfbfbf" points="247.5,-112.5 247.5,-131.5 306.5,-131.5 306.5,-112.5 247.5,-112.5"/>
<text text-anchor="middle" x="277" y="-119.5" font-family="Helvetica,sans-Serif" font-size="10.00" fill="#000000">inttypes.h</text>
</g>
<!-- Node2&#45;&gt;Node7 -->
<g id="edge7" class="edge">
<title>Node2&#45;&gt;Node7</title>
<path fill="none" stroke="#191970" d="M500.9924,-168.4522C454.5048,-160.1577 385.9343,-147.3968 316.9443,-132.1073"/>
<polygon fill="#191970" stroke="#191970" points="317.2875,-128.5977 306.765,-129.8333 315.7613,-135.4294 317.2875,-128.5977"/>
</g>
<!-- Node8 -->
<g id="node9" class="node">
<title>Node8</title>
<polygon fill="#ffffff" stroke="#bfbfbf" points="325,-112.5 325,-131.5 373,-131.5 373,-112.5 325,-112.5"/>
<text text-anchor="middle" x="349" y="-119.5" font-family="Helvetica,sans-Serif" font-size="10.00" fill="#000000">limits.h</text>
</g>
<!-- Node2&#45;&gt;Node8 -->
<g id="edge8" class="edge">
<title>Node2&#45;&gt;Node8</title>
<path fill="none" stroke="#191970" d="M520.4154,-168.3733C481.955,-157.9685 421.0933,-141.5035 383.1864,-131.2485"/>
<polygon fill="#191970" stroke="#191970" points="383.7082,-127.7639 373.1411,-128.5309 381.8801,-134.521 383.7082,-127.7639"/>
</g>
<!-- Node9 -->
<g id="node10" class="node">
<title>Node9</title>
<polygon fill="#ffffff" stroke="#bfbfbf" points="464,-.5 464,-19.5 516,-19.5 516,-.5 464,-.5"/>
<text text-anchor="middle" x="490" y="-7.5" font-family="Helvetica,sans-Serif" font-size="10.00" fill="#000000">stdarg.h</text>
</g>
<!-- Node2&#45;&gt;Node9 -->
<g id="edge9" class="edge">
<title>Node2&#45;&gt;Node9</title>
<path fill="none" stroke="#191970" d="M492.97,-174.9734C389.2651,-169.3418 191.9748,-155.6301 171,-132 88.6831,-39.2623 353.7417,-16.6255 453.5583,-11.4452"/>
<polygon fill="#191970" stroke="#191970" points="453.9691,-14.9294 463.7865,-10.9459 453.6277,-7.9377 453.9691,-14.9294"/>
</g>
<!-- Node10 -->
<g id="node11" class="node">
<title>Node10</title>
<polygon fill="#ffffff" stroke="#bfbfbf" points="429,-112.5 429,-131.5 485,-131.5 485,-112.5 429,-112.5"/>
<text text-anchor="middle" x="457" y="-119.5" font-family="Helvetica,sans-Serif" font-size="10.00" fill="#000000">stdbool.h</text>
</g>
<!-- Node2&#45;&gt;Node10 -->
<g id="edge10" class="edge">
<title>Node2&#45;&gt;Node10</title>
<path fill="none" stroke="#191970" d="M538.7555,-168.2455C523.4239,-159.5731 500.7801,-146.7645 483.2084,-136.825"/>
<polygon fill="#191970" stroke="#191970" points="484.4741,-133.5198 474.0469,-131.6427 481.0276,-139.6126 484.4741,-133.5198"/>
</g>
<!-- Node11 -->
<g id="node12" class="node">
<title>Node11</title>
<polygon fill="#ffffff" stroke="#bfbfbf" points="503,-112.5 503,-131.5 555,-131.5 555,-112.5 503,-112.5"/>
<text text-anchor="middle" x="529" y="-119.5" font-family="Helvetica,sans-Serif" font-size="10.00" fill="#000000">stddef.h</text>
</g>
<!-- Node2&#45;&gt;Node11 -->
<g id="edge11" class="edge">
<title>Node2&#45;&gt;Node11</title>
<path fill="none" stroke="#191970" d="M551.297,-168.2455C547.6576,-160.6973 542.5076,-150.0158 538.0738,-140.8197"/>
<polygon fill="#191970" stroke="#191970" points="541.1449,-139.1303 533.6491,-131.6427 534.8395,-142.1704 541.1449,-139.1303"/>
</g>
<!-- Node12 -->
<g id="node13" class="node">
<title>Node12</title>
<polygon fill="#ffffff" stroke="#bfbfbf" points="757.5,-56.5 757.5,-75.5 806.5,-75.5 806.5,-56.5 757.5,-56.5"/>
<text text-anchor="middle" x="782" y="-63.5" font-family="Helvetica,sans-Serif" font-size="10.00" fill="#000000">stdint.h</text>
</g>
<!-- Node2&#45;&gt;Node12 -->
<g id="edge12" class="edge">
<title>Node2&#45;&gt;Node12</title>
<path fill="none" stroke="#191970" d="M619.2865,-174.7502C682.6965,-170.0127 773.9718,-158.6513 796,-132 806.9137,-118.7958 800.7885,-99.1379 793.5307,-84.7097"/>
<polygon fill="#191970" stroke="#191970" points="796.4394,-82.7387 788.5206,-75.7 790.3217,-86.1406 796.4394,-82.7387"/>
</g>
<!-- Node13 -->
<g id="node14" class="node">
<title>Node13</title>
<polygon fill="#ffffff" stroke="#bfbfbf" points="716,-.5 716,-19.5 762,-19.5 762,-.5 716,-.5"/>
<text text-anchor="middle" x="739" y="-7.5" font-family="Helvetica,sans-Serif" font-size="10.00" fill="#000000">stdio.h</text>
</g>
<!-- Node2&#45;&gt;Node13 -->
<g id="edge13" class="edge">
<title>Node2&#45;&gt;Node13</title>
<path fill="none" stroke="#191970" d="M619.0998,-176.6759C744.4011,-173.3913 1014.9927,-162.7774 1043,-132 1123.5278,-43.5074 866.3642,-18.0669 772.1769,-11.8108"/>
<polygon fill="#191970" stroke="#191970" points="772.2428,-8.3081 762.0419,-11.1705 771.8013,-15.2942 772.2428,-8.3081"/>
</g>
<!-- Node14 -->
<g id="node15" class="node">
<title>Node14</title>
<polygon fill="#ffffff" stroke="#bfbfbf" points="739,-112.5 739,-131.5 787,-131.5 787,-112.5 739,-112.5"/>
<text text-anchor="middle" x="763" y="-119.5" font-family="Helvetica,sans-Serif" font-size="10.00" fill="#000000">stdlib.h</text>
</g>
<!-- Node2&#45;&gt;Node14 -->
<g id="edge14" class="edge">
<title>Node2&#45;&gt;Node14</title>
<path fill="none" stroke="#191970" d="M592.8614,-168.4971C627.9378,-159.3839 682.1632,-145.1122 729,-132 729.1,-131.972 729.2001,-131.944 729.3004,-131.9158"/>
<polygon fill="#191970" stroke="#191970" points="730.2228,-135.2924 738.8764,-129.1798 728.2996,-128.5618 730.2228,-135.2924"/>
</g>
<!-- Node15 -->
<g id="node16" class="node">
<title>Node15</title>
<polygon fill="#ffffff" stroke="#bfbfbf" points="899.5,-56.5 899.5,-75.5 948.5,-75.5 948.5,-56.5 899.5,-56.5"/>
<text text-anchor="middle" x="924" y="-63.5" font-family="Helvetica,sans-Serif" font-size="10.00" fill="#000000">string.h</text>
</g>
<!-- Node2&#45;&gt;Node15 -->
<g id="edge15" class="edge">
<title>Node2&#45;&gt;Node15</title>
<path fill="none" stroke="#191970" d="M619.2349,-176.4382C741.1656,-172.7706 999.184,-161.5687 1026,-132 1050.1932,-105.3234 996.741,-84.872 958.4545,-74.2087"/>
<polygon fill="#191970" stroke="#191970" points="959.1841,-70.781 948.6199,-71.587 957.3809,-77.5448 959.1841,-70.781"/>
</g>
<!-- Node16 -->
<g id="node17" class="node">
<title>Node16</title>
<polygon fill="#ffffff" stroke="#bfbfbf" points="843,-112.5 843,-131.5 887,-131.5 887,-112.5 843,-112.5"/>
<text text-anchor="middle" x="865" y="-119.5" font-family="Helvetica,sans-Serif" font-size="10.00" fill="#000000">time.h</text>
</g>
<!-- Node2&#45;&gt;Node16 -->
<g id="edge16" class="edge">
<title>Node2&#45;&gt;Node16</title>
<path fill="none" stroke="#191970" d="M619.2509,-169.2492C674.8148,-161.1092 757.6868,-147.8676 829,-132 830.2466,-131.7226 831.5143,-131.4288 832.7926,-131.1226"/>
<polygon fill="#191970" stroke="#191970" points="833.8039,-134.4767 842.6222,-128.604 832.0664,-127.6957 833.8039,-134.4767"/>
</g>
<!-- Node17 -->
<g id="node18" class="node">
<title>Node17</title>
<polygon fill="#ffffff" stroke="#bfbfbf" points="905.5,-112.5 905.5,-131.5 1016.5,-131.5 1016.5,-112.5 905.5,-112.5"/>
<text text-anchor="middle" x="961" y="-119.5" font-family="Helvetica,sans-Serif" font-size="10.00" fill="#000000">opentracing&#45;c/tracer.h</text>
</g>
<!-- Node2&#45;&gt;Node17 -->
<g id="edge17" class="edge">
<title>Node2&#45;&gt;Node17</title>
<path fill="none" stroke="#191970" d="M619.025,-169.8215C685.1817,-161.1577 792.4983,-146.8818 895.398,-132.0663"/>
<polygon fill="#191970" stroke="#191970" points="895.9434,-135.5239 905.3407,-130.631 894.9432,-128.5957 895.9434,-135.5239"/>
</g>
<!-- Node18 -->
<g id="node19" class="node">
<title>Node18</title>
<g id="a_node19"><a xlink:href="alloc_8h.html" target="_top" xlink:title="Allocator struct and functions. ">
<polygon fill="#ffffff" stroke="#000000" points="611.5,-112.5 611.5,-131.5 720.5,-131.5 720.5,-112.5 611.5,-112.5"/>
<text text-anchor="middle" x="666" y="-119.5" font-family="Helvetica,sans-Serif" font-size="10.00" fill="#000000">jaegertracingc/alloc.h</text>
</a>
</g>
</g>
<!-- Node2&#45;&gt;Node18 -->
<g id="edge18" class="edge">
<title>Node2&#45;&gt;Node18</title>
<path fill="none" stroke="#191970" d="M575.1605,-168.2455C592.5111,-159.4125 618.2901,-146.2887 637.9583,-136.2758"/>
<polygon fill="#191970" stroke="#191970" points="639.7353,-139.2986 647.059,-131.6427 636.5595,-133.0605 639.7353,-139.2986"/>
</g>
<!-- Node19 -->
<g id="node20" class="node">
<title>Node19</title>
<g id="a_node20"><a xlink:href="logging_8h.html" target="_top" xlink:title="Logging interface and initialization functions. ">
<polygon fill="#ffffff" stroke="#000000" points="555.5,-56.5 555.5,-75.5 674.5,-75.5 674.5,-56.5 555.5,-56.5"/>
<text text-anchor="middle" x="615" y="-63.5" font-family="Helvetica,sans-Serif" font-size="10.00" fill="#000000">jaegertracingc/logging.h</text>
</a>
</g>
</g>
<!-- Node2&#45;&gt;Node19 -->
<g id="edge25" class="edge">
<title>Node2&#45;&gt;Node19</title>
<path fill="none" stroke="#191970" d="M561.0303,-168.4509C570.8273,-149.8533 592.6159,-108.4919 605.309,-84.3964"/>
<polygon fill="#191970" stroke="#191970" points="608.4183,-86.0036 609.9824,-75.5249 602.225,-82.7411 608.4183,-86.0036"/>
</g>
<!-- Node4 -->
<g id="node5" class="node">
<title>Node4</title>
<g id="a_node5"><a xlink:href="visibility_8h_source.html" target="_top" xlink:title="jaegertracingc/visibility.h">
<polygon fill="#ffffff" stroke="#000000" points="0,-56.5 0,-75.5 124,-75.5 124,-56.5 0,-56.5"/>
<text text-anchor="middle" x="62" y="-63.5" font-family="Helvetica,sans-Serif" font-size="10.00" fill="#000000">jaegertracingc/visibility.h</text>
</a>
</g>
</g>
<!-- Node3&#45;&gt;Node4 -->
<g id="edge4" class="edge">
<title>Node3&#45;&gt;Node4</title>
<path fill="none" stroke="#191970" d="M63.6516,-112.2455C63.3907,-104.9382 63.0248,-94.6944 62.7037,-85.7046"/>
<polygon fill="#191970" stroke="#191970" points="66.1992,-85.5113 62.3444,-75.6427 59.2036,-85.7613 66.1992,-85.5113"/>
</g>
<!-- Node18&#45;&gt;Node5 -->
<g id="edge19" class="edge">
<title>Node18&#45;&gt;Node5</title>
<path fill="none" stroke="#191970" d="M627.406,-112.4369C584.9851,-101.9255 517.38,-85.1738 476.0145,-74.9239"/>
<polygon fill="#191970" stroke="#191970" points="476.6428,-71.4738 466.0945,-72.4659 474.9591,-78.2684 476.6428,-71.4738"/>
</g>
<!-- Node18&#45;&gt;Node12 -->
<g id="edge20" class="edge">
<title>Node18&#45;&gt;Node12</title>
<path fill="none" stroke="#191970" d="M685.9411,-112.3733C704.4786,-103.4241 732.3028,-89.9917 753.2413,-79.8835"/>
<polygon fill="#191970" stroke="#191970" points="754.8352,-83.0006 762.3191,-75.5011 751.7919,-76.6967 754.8352,-83.0006"/>
</g>
<!-- Node18&#45;&gt;Node15 -->
<g id="edge21" class="edge">
<title>Node18&#45;&gt;Node15</title>
<path fill="none" stroke="#191970" d="M710.0586,-112.4369C760.7696,-101.4298 843.0062,-83.5801 889.3606,-73.5186"/>
<polygon fill="#191970" stroke="#191970" points="890.2031,-76.9174 899.2331,-71.3758 888.7182,-70.0766 890.2031,-76.9174"/>
</g>
<!-- Node18&#45;&gt;Node19 -->
<g id="edge22" class="edge">
<title>Node18&#45;&gt;Node19</title>
<path fill="none" stroke="#191970" d="M657.1165,-112.2455C649.8034,-104.2155 639.2609,-92.6394 630.5533,-83.0781"/>
<polygon fill="#191970" stroke="#191970" points="633.1028,-80.6795 623.7817,-75.6427 627.9273,-85.3928 633.1028,-80.6795"/>
</g>
<!-- Node19&#45;&gt;Node9 -->
<g id="edge23" class="edge">
<title>Node19&#45;&gt;Node9</title>
<path fill="none" stroke="#191970" d="M593.5117,-56.3733C573.356,-47.3435 543.012,-33.7494 520.382,-23.6111"/>
<polygon fill="#191970" stroke="#191970" points="521.7649,-20.3955 511.2079,-19.5011 518.9029,-26.7838 521.7649,-20.3955"/>
</g>
<!-- Node19&#45;&gt;Node13 -->
<g id="edge24" class="edge">
<title>Node19&#45;&gt;Node13</title>
<path fill="none" stroke="#191970" d="M636.3164,-56.3733C656.2216,-47.3838 686.1436,-33.8706 708.56,-23.7471"/>
<polygon fill="#191970" stroke="#191970" points="710.2887,-26.8068 717.9618,-19.5011 707.4075,-20.4272 710.2887,-26.8068"/>
</g>
</g>
</svg>
