<?xml version="1.0" encoding="UTF-8" standalone="no"?>
<!DOCTYPE svg PUBLIC "-//W3C//DTD SVG 1.1//EN"
 "http://www.w3.org/Graphics/SVG/1.1/DTD/svg11.dtd">
<!-- Generated by graphviz version 2.40.1 (20161225.0304)
 -->
<!-- Title: jaegertracingc/trace_id.h Pages: 1 -->
<svg width="384pt" height="263pt"
 viewBox="0.00 0.00 383.50 263.00" xmlns="http://www.w3.org/2000/svg" xmlns:xlink="http://www.w3.org/1999/xlink">
<g id="graph0" class="graph" transform="scale(1 1) rotate(0) translate(4 259)">
<title>jaegertracingc/trace_id.h</title>
<polygon fill="#ffffff" stroke="transparent" points="-4,4 -4,-259 379.5,-259 379.5,4 -4,4"/>
<!-- Node21 -->
<g id="node1" class="node">
<title>Node21</title>
<polygon fill="#bfbfbf" stroke="#000000" points="93,-235.5 93,-254.5 216,-254.5 216,-235.5 93,-235.5"/>
<text text-anchor="middle" x="154.5" y="-242.5" font-family="Helvetica,sans-Serif" font-size="10.00" fill="#000000">jaegertracingc/trace_id.h</text>
</g>
<!-- Node22 -->
<g id="node2" class="node">
<title>Node22</title>
<g id="a_node2"><a xlink:href="span_8h.html" target="_top" xlink:title="Span, span context, and span ref representations and functions. ">
<polygon fill="#ffffff" stroke="#000000" points="32.5,-179.5 32.5,-198.5 142.5,-198.5 142.5,-179.5 32.5,-179.5"/>
<text text-anchor="middle" x="87.5" y="-186.5" font-family="Helvetica,sans-Serif" font-size="10.00" fill="#000000">jaegertracingc/span.h</text>
</a>
</g>
</g>
<!-- Node21&#45;&gt;Node22 -->
<g id="edge1" class="edge">
<title>Node21&#45;&gt;Node22</title>
<path fill="none" stroke="#191970" d="M134.9324,-228.645C123.2802,-218.9058 108.8916,-206.8795 99.0368,-198.6427"/>
<polygon fill="#191970" stroke="#191970" points="132.9121,-231.5179 142.8295,-235.2455 137.4012,-226.1469 132.9121,-231.5179"/>
</g>
<!-- Node26 -->
<g id="node6" class="node">
<title>Node26</title>
<g id="a_node6"><a xlink:href="sampler_8h.html" target="_top" xlink:title="Span sampler interface. ">
<polygon fill="#ffffff" stroke="#000000" points="182,-179.5 182,-198.5 305,-198.5 305,-179.5 182,-179.5"/>
<text text-anchor="middle" x="243.5" y="-186.5" font-family="Helvetica,sans-Serif" font-size="10.00" fill="#000000">jaegertracingc/sampler.h</text>
</a>
</g>
</g>
<!-- Node21&#45;&gt;Node26 -->
<g id="edge7" class="edge">
<title>Node21&#45;&gt;Node26</title>
<path fill="none" stroke="#191970" d="M178.7064,-229.769C194.4775,-219.8456 214.576,-207.1994 228.175,-198.6427"/>
<polygon fill="#191970" stroke="#191970" points="176.6026,-226.9575 170.0026,-235.2455 180.3305,-232.8823 176.6026,-226.9575"/>
</g>
<!-- Node23 -->
<g id="node3" class="node">
<title>Node23</title>
<g id="a_node3"><a xlink:href="propagation_8c.html" target="_top" xlink:title="Trace ID representation. ">
<polygon fill="#ffffff" stroke="#000000" points="0,-.5 0,-19.5 139,-19.5 139,-.5 0,-.5"/>
<text text-anchor="middle" x="69.5" y="-7.5" font-family="Helvetica,sans-Serif" font-size="10.00" fill="#000000">jaegertracingc/propagation.c</text>
</a>
</g>
</g>
<!-- Node22&#45;&gt;Node23 -->
<g id="edge2" class="edge">
<title>Node22&#45;&gt;Node23</title>
<path fill="none" stroke="#191970" d="M81.7957,-169.5407C79.5727,-161.3967 77.1644,-151.7962 75.5,-143 68.2806,-104.8472 66.6565,-94.8206 67.5,-56 67.7744,-43.373 68.4719,-28.8101 68.9657,-19.5108"/>
<polygon fill="#191970" stroke="#191970" points="78.4432,-170.5479 84.5331,-179.2176 85.1789,-168.6424 78.4432,-170.5479"/>
</g>
<!-- Node24 -->
<g id="node4" class="node">
<title>Node24</title>
<g id="a_node4"><a xlink:href="tracer_8h.html" target="_top" xlink:title="Tracer implementation. ">
<polygon fill="#ffffff" stroke="#000000" points="77,-56.5 77,-75.5 190,-75.5 190,-56.5 77,-56.5"/>
<text text-anchor="middle" x="133.5" y="-63.5" font-family="Helvetica,sans-Serif" font-size="10.00" fill="#000000">jaegertracingc/tracer.h</text>
</a>
</g>
</g>
<!-- Node22&#45;&gt;Node24 -->
<g id="edge3" class="edge">
<title>Node22&#45;&gt;Node24</title>
<path fill="none" stroke="#191970" d="M82.1952,-169.3757C78.8877,-153.2799 76.5987,-130.2551 84.5,-112 91.2668,-96.3661 106.2528,-83.6028 117.882,-75.5209"/>
<polygon fill="#191970" stroke="#191970" points="78.8272,-170.3423 84.535,-179.2681 85.6392,-168.731 78.8272,-170.3423"/>
</g>
<!-- Node25 -->
<g id="node5" class="node">
<title>Node25</title>
<g id="a_node5"><a xlink:href="reporter_8h.html" target="_top" xlink:title="Span reporter interface. ">
<polygon fill="#ffffff" stroke="#000000" points="93.5,-118 93.5,-137 215.5,-137 215.5,-118 93.5,-118"/>
<text text-anchor="middle" x="154.5" y="-125" font-family="Helvetica,sans-Serif" font-size="10.00" fill="#000000">jaegertracingc/reporter.h</text>
</a>
</g>
</g>
<!-- Node22&#45;&gt;Node25 -->
<g id="edge5" class="edge">
<title>Node22&#45;&gt;Node25</title>
<path fill="none" stroke="#191970" d="M105.4231,-172.5482C117.6993,-161.2798 133.5655,-146.716 143.8837,-137.2449"/>
<polygon fill="#191970" stroke="#191970" points="102.969,-170.0499 97.9688,-179.3906 107.7025,-175.2068 102.969,-170.0499"/>
</g>
<!-- Node24&#45;&gt;Node23 -->
<g id="edge4" class="edge">
<title>Node24&#45;&gt;Node23</title>
<path fill="none" stroke="#191970" d="M114.8086,-49.645C103.6781,-39.9058 89.9337,-27.8795 80.5202,-19.6427"/>
<polygon fill="#191970" stroke="#191970" points="112.5215,-52.2945 122.3521,-56.2455 117.131,-47.0264 112.5215,-52.2945"/>
</g>
<!-- Node25&#45;&gt;Node24 -->
<g id="edge6" class="edge">
<title>Node25&#45;&gt;Node24</title>
<path fill="none" stroke="#191970" d="M147.9845,-108.4189C144.2869,-97.5901 139.8152,-84.4944 136.8275,-75.7449"/>
<polygon fill="#191970" stroke="#191970" points="144.675,-109.5581 151.2188,-117.8906 151.2995,-107.2961 144.675,-109.5581"/>
</g>
<!-- Node26&#45;&gt;Node24 -->
<g id="edge9" class="edge">
<title>Node26&#45;&gt;Node24</title>
<path fill="none" stroke="#191970" d="M243.0715,-169.0164C241.7399,-152.1725 237.4599,-128.2798 224.5,-112 210.2772,-94.1339 187.2815,-82.593 167.9658,-75.5394"/>
<polygon fill="#191970" stroke="#191970" points="239.5944,-169.56 243.5929,-179.3713 246.5855,-169.2079 239.5944,-169.56"/>
</g>
<!-- Node27 -->
<g id="node7" class="node">
<title>Node27</title>
<g id="a_node7"><a xlink:href="mock__agent_8h.html" target="_top" xlink:title="Key value pair representation. ">
<polygon fill="#ffffff" stroke="#000000" points="271.5,-112.5 271.5,-142.5 375.5,-142.5 375.5,-112.5 271.5,-112.5"/>
<text text-anchor="start" x="279.5" y="-130.5" font-family="Helvetica,sans-Serif" font-size="10.00" fill="#000000">jaegertracingc/mock</text>
<text text-anchor="middle" x="323.5" y="-119.5" font-family="Helvetica,sans-Serif" font-size="10.00" fill="#000000">_agent.h</text>
</a>
</g>
</g>
<!-- Node26&#45;&gt;Node27 -->
<g id="edge8" class="edge">
<title>Node26&#45;&gt;Node27</title>
<path fill="none" stroke="#191970" d="M264.263,-173.0385C276.5048,-163.6276 291.9018,-151.7911 303.9298,-142.5446"/>
<polygon fill="#191970" stroke="#191970" points="261.7949,-170.521 256,-179.3906 266.0613,-176.0707 261.7949,-170.521"/>
</g>
</g>
</svg>
