<?xml version="1.0" encoding="UTF-8" standalone="no"?>
<!DOCTYPE svg PUBLIC "-//W3C//DTD SVG 1.1//EN"
 "http://www.w3.org/Graphics/SVG/1.1/DTD/svg11.dtd">
<!-- Generated by graphviz version 2.40.1 (20161225.0304)
 -->
<!-- Title: jaegertracingc/trace_id.h Pages: 1 -->
<svg width="472pt" height="263pt"
 viewBox="0.00 0.00 471.50 263.00" xmlns="http://www.w3.org/2000/svg" xmlns:xlink="http://www.w3.org/1999/xlink">
<g id="graph0" class="graph" transform="scale(1 1) rotate(0) translate(4 259)">
<title>jaegertracingc/trace_id.h</title>
<polygon fill="#ffffff" stroke="transparent" points="-4,4 -4,-259 467.5,-259 467.5,4 -4,4"/>
<!-- Node21 -->
<g id="node1" class="node">
<title>Node21</title>
<polygon fill="#bfbfbf" stroke="#000000" points="181,-235.5 181,-254.5 304,-254.5 304,-235.5 181,-235.5"/>
<text text-anchor="middle" x="242.5" y="-242.5" font-family="Helvetica,sans-Serif" font-size="10.00" fill="#000000">jaegertracingc/trace_id.h</text>
</g>
<!-- Node22 -->
<g id="node2" class="node">
<title>Node22</title>
<g id="a_node2"><a xlink:href="span_8h.html" target="_top" xlink:title="Span, span context, and span ref representations and functions. ">
<polygon fill="#ffffff" stroke="#000000" points="120.5,-179.5 120.5,-198.5 230.5,-198.5 230.5,-179.5 120.5,-179.5"/>
<text text-anchor="middle" x="175.5" y="-186.5" font-family="Helvetica,sans-Serif" font-size="10.00" fill="#000000">jaegertracingc/span.h</text>
</a>
</g>
</g>
<!-- Node21&#45;&gt;Node22 -->
<g id="edge1" class="edge">
<title>Node21&#45;&gt;Node22</title>
<path fill="none" stroke="#191970" d="M222.9324,-228.645C211.2802,-218.9058 196.8916,-206.8795 187.0368,-198.6427"/>
<polygon fill="#191970" stroke="#191970" points="220.9121,-231.5179 230.8295,-235.2455 225.4012,-226.1469 220.9121,-231.5179"/>
</g>
<!-- Node27 -->
<g id="node7" class="node">
<title>Node27</title>
<g id="a_node7"><a xlink:href="sampler_8h.html" target="_top" xlink:title="Span sampler interface. ">
<polygon fill="#ffffff" stroke="#000000" points="270,-179.5 270,-198.5 393,-198.5 393,-179.5 270,-179.5"/>
<text text-anchor="middle" x="331.5" y="-186.5" font-family="Helvetica,sans-Serif" font-size="10.00" fill="#000000">jaegertracingc/sampler.h</text>
</a>
</g>
</g>
<!-- Node21&#45;&gt;Node27 -->
<g id="edge7" class="edge">
<title>Node21&#45;&gt;Node27</title>
<path fill="none" stroke="#191970" d="M266.7064,-229.769C282.4775,-219.8456 302.576,-207.1994 316.175,-198.6427"/>
<polygon fill="#191970" stroke="#191970" points="264.6026,-226.9575 258.0026,-235.2455 268.3305,-232.8823 264.6026,-226.9575"/>
</g>
<!-- Node23 -->
<g id="node3" class="node">
<title>Node23</title>
<g id="a_node3"><a xlink:href="baggage_8h.html" target="_top" xlink:title="Baggage restriction utilities. ">
<polygon fill="#ffffff" stroke="#000000" points="0,-118 0,-137 125,-137 125,-118 0,-118"/>
<text text-anchor="middle" x="62.5" y="-125" font-family="Helvetica,sans-Serif" font-size="10.00" fill="#000000">jaegertracingc/baggage.h</text>
</a>
</g>
</g>
<!-- Node22&#45;&gt;Node23 -->
<g id="edge2" class="edge">
<title>Node22&#45;&gt;Node23</title>
<path fill="none" stroke="#191970" d="M148.9881,-174.571C127.7225,-162.9972 98.4764,-147.0801 80.0323,-137.0419"/>
<polygon fill="#191970" stroke="#191970" points="147.3872,-177.6844 157.8438,-179.3906 150.7335,-171.536 147.3872,-177.6844"/>
</g>
<!-- Node24 -->
<g id="node4" class="node">
<title>Node24</title>
<g id="a_node4"><a xlink:href="propagation_8c.html" target="_top" xlink:title="Trace ID representation. ">
<polygon fill="#ffffff" stroke="#000000" points="128,-.5 128,-19.5 267,-19.5 267,-.5 128,-.5"/>
<text text-anchor="middle" x="197.5" y="-7.5" font-family="Helvetica,sans-Serif" font-size="10.00" fill="#000000">jaegertracingc/propagation.c</text>
</a>
</g>
</g>
<!-- Node22&#45;&gt;Node24 -->
<g id="edge3" class="edge">
<title>Node22&#45;&gt;Node24</title>
<path fill="none" stroke="#191970" d="M172.7416,-169.2811C169.7148,-142.9778 166.5059,-95.1751 176.5,-56 179.842,-42.9 186.7626,-28.9146 191.7469,-19.8496"/>
<polygon fill="#191970" stroke="#191970" points="169.3005,-169.9677 174.0299,-179.4484 176.245,-169.0877 169.3005,-169.9677"/>
</g>
<!-- Node25 -->
<g id="node5" class="node">
<title>Node25</title>
<g id="a_node5"><a xlink:href="reporter_8h.html" target="_top" xlink:title="Span reporter interface. ">
<polygon fill="#ffffff" stroke="#000000" points="181.5,-118 181.5,-137 303.5,-137 303.5,-118 181.5,-118"/>
<text text-anchor="middle" x="242.5" y="-125" font-family="Helvetica,sans-Serif" font-size="10.00" fill="#000000">jaegertracingc/reporter.h</text>
</a>
</g>
</g>
<!-- Node22&#45;&gt;Node25 -->
<g id="edge4" class="edge">
<title>Node22&#45;&gt;Node25</title>
<path fill="none" stroke="#191970" d="M193.4231,-172.5482C205.6993,-161.2798 221.5655,-146.716 231.8837,-137.2449"/>
<polygon fill="#191970" stroke="#191970" points="190.969,-170.0499 185.9688,-179.3906 195.7025,-175.2068 190.969,-170.0499"/>
</g>
<!-- Node26 -->
<g id="node6" class="node">
<title>Node26</title>
<g id="a_node6"><a xlink:href="tracer_8h.html" target="_top" xlink:title="Tracer implementation. ">
<polygon fill="#ffffff" stroke="#000000" points="186,-56.5 186,-75.5 299,-75.5 299,-56.5 186,-56.5"/>
<text text-anchor="middle" x="242.5" y="-63.5" font-family="Helvetica,sans-Serif" font-size="10.00" fill="#000000">jaegertracingc/tracer.h</text>
</a>
</g>
</g>
<!-- Node25&#45;&gt;Node26 -->
<g id="edge5" class="edge">
<title>Node25&#45;&gt;Node26</title>
<path fill="none" stroke="#191970" d="M242.5,-107.7462C242.5,-97.0519 242.5,-84.314 242.5,-75.7449"/>
<polygon fill="#191970" stroke="#191970" points="239.0001,-107.8906 242.5,-117.8906 246.0001,-107.8907 239.0001,-107.8906"/>
</g>
<!-- Node26&#45;&gt;Node24 -->
<g id="edge6" class="edge">
<title>Node26&#45;&gt;Node24</title>
<path fill="none" stroke="#191970" d="M228.2054,-48.2112C220.6004,-38.7472 211.5462,-27.4797 205.2486,-19.6427"/>
<polygon fill="#191970" stroke="#191970" points="225.6694,-50.6428 234.6616,-56.2455 231.1259,-46.2581 225.6694,-50.6428"/>
</g>
<!-- Node27&#45;&gt;Node26 -->
<g id="edge8" class="edge">
<title>Node27&#45;&gt;Node26</title>
<path fill="none" stroke="#191970" d="M330.5432,-168.8343C328.8707,-152.2423 324.3877,-128.8051 312.5,-112 300.7428,-95.3794 280.9099,-83.1803 265.3505,-75.5374"/>
<polygon fill="#191970" stroke="#191970" points="327.072,-169.3509 331.3086,-179.0618 334.0525,-168.8285 327.072,-169.3509"/>
</g>
<!-- Node28 -->
<g id="node8" class="node">
<title>Node28</title>
<g id="a_node8"><a xlink:href="mock__agent_8h.html" target="_top" xlink:title="Key value pair representation. ">
<polygon fill="#ffffff" stroke="#000000" points="359.5,-112.5 359.5,-142.5 463.5,-142.5 463.5,-112.5 359.5,-112.5"/>
<text text-anchor="start" x="367.5" y="-130.5" font-family="Helvetica,sans-Serif" font-size="10.00" fill="#000000">jaegertracingc/mock</text>
<text text-anchor="middle" x="411.5" y="-119.5" font-family="Helvetica,sans-Serif" font-size="10.00" fill="#000000">_agent.h</text>
</a>
</g>
</g>
<!-- Node27&#45;&gt;Node28 -->
<g id="edge9" class="edge">
<title>Node27&#45;&gt;Node28</title>
<path fill="none" stroke="#191970" d="M352.263,-173.0385C364.5048,-163.6276 379.9018,-151.7911 391.9298,-142.5446"/>
<polygon fill="#191970" stroke="#191970" points="349.7949,-170.521 344,-179.3906 354.0613,-176.0707 349.7949,-170.521"/>
</g>
</g>
</svg>
