<?xml version="1.0" encoding="UTF-8" standalone="no"?>
<!DOCTYPE svg PUBLIC "-//W3C//DTD SVG 1.1//EN"
 "http://www.w3.org/Graphics/SVG/1.1/DTD/svg11.dtd">
<!-- Generated by graphviz version 2.40.1 (20161225.0304)
 -->
<!-- Title: jaegertracingc/vector.h Pages: 1 -->
<svg width="650pt" height="408pt"
 viewBox="0.00 0.00 649.50 408.00" xmlns="http://www.w3.org/2000/svg" xmlns:xlink="http://www.w3.org/1999/xlink">
<g id="graph0" class="graph" transform="scale(1 1) rotate(0) translate(4 404)">
<title>jaegertracingc/vector.h</title>
<polygon fill="#ffffff" stroke="transparent" points="-4,4 -4,-404 645.5,-404 645.5,4 -4,4"/>
<!-- Node19 -->
<g id="node1" class="node">
<title>Node19</title>
<polygon fill="#bfbfbf" stroke="#000000" points="328.5,-380.5 328.5,-399.5 444.5,-399.5 444.5,-380.5 328.5,-380.5"/>
<text text-anchor="middle" x="386.5" y="-387.5" font-family="Helvetica,sans-Serif" font-size="10.00" fill="#000000">jaegertracingc/vector.h</text>
</g>
<!-- Node20 -->
<g id="node2" class="node">
<title>Node20</title>
<g id="a_node2"><a xlink:href="tracer_8h.html" target="_top" xlink:title="Tracer implementation. ">
<polygon fill="#ffffff" stroke="#000000" points="367,-62 367,-81 480,-81 480,-62 367,-62"/>
<text text-anchor="middle" x="423.5" y="-69" font-family="Helvetica,sans-Serif" font-size="10.00" fill="#000000">jaegertracingc/tracer.h</text>
</a>
</g>
</g>
<!-- Node19&#45;&gt;Node20 -->
<g id="edge1" class="edge">
<title>Node19&#45;&gt;Node20</title>
<path fill="none" stroke="#191970" d="M454.6272,-384.6206C530.1651,-374.4991 641.5,-345.3573 641.5,-261.5 641.5,-261.5 641.5,-261.5 641.5,-194.5 641.5,-120.4077 544.8003,-90.4487 480.2078,-78.7017"/>
<polygon fill="#191970" stroke="#191970" points="454.1672,-381.1508 444.6825,-385.8721 455.0413,-388.096 454.1672,-381.1508"/>
</g>
<!-- Node22 -->
<g id="node4" class="node">
<title>Node22</title>
<g id="a_node4"><a xlink:href="key__value_8h.html" target="_top" xlink:title="Key value pair representation. ">
<polygon fill="#ffffff" stroke="#000000" points="73.5,-313.5 73.5,-343.5 169.5,-343.5 169.5,-313.5 73.5,-313.5"/>
<text text-anchor="start" x="81.5" y="-331.5" font-family="Helvetica,sans-Serif" font-size="10.00" fill="#000000">jaegertracingc/key</text>
<text text-anchor="middle" x="121.5" y="-320.5" font-family="Helvetica,sans-Serif" font-size="10.00" fill="#000000">_value.h</text>
</a>
</g>
</g>
<!-- Node19&#45;&gt;Node22 -->
<g id="edge3" class="edge">
<title>Node19&#45;&gt;Node22</title>
<path fill="none" stroke="#191970" d="M333.4924,-378.3254C292.4884,-369.2131 234.3232,-356.1096 183.5,-344 178.9669,-342.9199 174.2525,-341.777 169.5381,-340.621"/>
<polygon fill="#191970" stroke="#191970" points="332.7505,-381.7459 343.2713,-380.4952 334.2669,-374.9121 332.7505,-381.7459"/>
</g>
<!-- Node25 -->
<g id="node7" class="node">
<title>Node25</title>
<g id="a_node7"><a xlink:href="span_8h.html" target="_top" xlink:title="Span, span context, and span ref representations and functions. ">
<polygon fill="#ffffff" stroke="#000000" points="166.5,-185 166.5,-204 276.5,-204 276.5,-185 166.5,-185"/>
<text text-anchor="middle" x="221.5" y="-192" font-family="Helvetica,sans-Serif" font-size="10.00" fill="#000000">jaegertracingc/span.h</text>
</a>
</g>
</g>
<!-- Node19&#45;&gt;Node25 -->
<g id="edge16" class="edge">
<title>Node19&#45;&gt;Node25</title>
<path fill="none" stroke="#191970" d="M346.3076,-376.8449C304.7105,-360.7534 242.2825,-329.0346 216.5,-277 204.5868,-252.9566 212.746,-220.0184 218.0097,-204.0093"/>
<polygon fill="#191970" stroke="#191970" points="345.2881,-380.2001 355.8807,-380.4161 347.7347,-373.6416 345.2881,-380.2001"/>
</g>
<!-- Node27 -->
<g id="node9" class="node">
<title>Node27</title>
<g id="a_node9"><a xlink:href="reporter_8h.html" target="_top" xlink:title="Span reporter interface. ">
<polygon fill="#ffffff" stroke="#000000" points="273.5,-123.5 273.5,-142.5 395.5,-142.5 395.5,-123.5 273.5,-123.5"/>
<text text-anchor="middle" x="334.5" y="-130.5" font-family="Helvetica,sans-Serif" font-size="10.00" fill="#000000">jaegertracingc/reporter.h</text>
</a>
</g>
</g>
<!-- Node19&#45;&gt;Node27 -->
<g id="edge17" class="edge">
<title>Node19&#45;&gt;Node27</title>
<path fill="none" stroke="#191970" d="M377.0837,-371.3642C373.2826,-363.1541 369.172,-353.2811 366.5,-344 344.7688,-268.5182 337.0846,-173.3512 335.0851,-142.8674"/>
<polygon fill="#191970" stroke="#191970" points="373.9483,-372.9201 381.4494,-380.4025 380.2516,-369.8755 373.9483,-372.9201"/>
</g>
<!-- Node28 -->
<g id="node10" class="node">
<title>Node28</title>
<g id="a_node10"><a xlink:href="log__record_8h.html" target="_top" xlink:title="Log record representation for use in span. ">
<polygon fill="#ffffff" stroke="#000000" points="226,-246.5 226,-276.5 319,-276.5 319,-246.5 226,-246.5"/>
<text text-anchor="start" x="234" y="-264.5" font-family="Helvetica,sans-Serif" font-size="10.00" fill="#000000">jaegertracingc/log</text>
<text text-anchor="middle" x="272.5" y="-253.5" font-family="Helvetica,sans-Serif" font-size="10.00" fill="#000000">_record.h</text>
</a>
</g>
</g>
<!-- Node19&#45;&gt;Node28 -->
<g id="edge13" class="edge">
<title>Node19&#45;&gt;Node28</title>
<path fill="none" stroke="#191970" d="M366.0034,-374.0007C355.7564,-365.5686 343.4524,-354.7621 333.5,-344 313.3029,-322.1598 293.498,-293.7062 282.1685,-276.5617"/>
<polygon fill="#191970" stroke="#191970" points="364.0485,-376.9204 374.0303,-380.4721 368.442,-371.4709 364.0485,-376.9204"/>
</g>
<!-- Node29 -->
<g id="node11" class="node">
<title>Node29</title>
<g id="a_node11"><a xlink:href="mock__agent_8h.html" target="_top" xlink:title="Key value pair representation. ">
<polygon fill="#ffffff" stroke="#000000" points="504.5,-179.5 504.5,-209.5 608.5,-209.5 608.5,-179.5 504.5,-179.5"/>
<text text-anchor="start" x="512.5" y="-197.5" font-family="Helvetica,sans-Serif" font-size="10.00" fill="#000000">jaegertracingc/mock</text>
<text text-anchor="middle" x="556.5" y="-186.5" font-family="Helvetica,sans-Serif" font-size="10.00" fill="#000000">_agent.h</text>
</a>
</g>
</g>
<!-- Node19&#45;&gt;Node29 -->
<g id="edge15" class="edge">
<title>Node19&#45;&gt;Node29</title>
<path fill="none" stroke="#191970" d="M441.7634,-377.6072C491.0629,-363.0791 559.238,-333.4415 584.5,-277 594.6955,-254.2207 580.1166,-226.5332 568.4636,-209.7274"/>
<polygon fill="#191970" stroke="#191970" points="440.5381,-374.3161 431.8631,-380.3985 442.4377,-381.0535 440.5381,-374.3161"/>
</g>
<!-- Node30 -->
<g id="node12" class="node">
<title>Node30</title>
<g id="a_node12"><a xlink:href="sampler_8h.html" target="_top" xlink:title="Span sampler interface. ">
<polygon fill="#ffffff" stroke="#000000" points="452,-252 452,-271 575,-271 575,-252 452,-252"/>
<text text-anchor="middle" x="513.5" y="-259" font-family="Helvetica,sans-Serif" font-size="10.00" fill="#000000">jaegertracingc/sampler.h</text>
</a>
</g>
</g>
<!-- Node19&#45;&gt;Node30 -->
<g id="edge18" class="edge">
<title>Node19&#45;&gt;Node30</title>
<path fill="none" stroke="#191970" d="M434.7154,-376.9628C453.0839,-369.8635 472.8573,-359.307 486.5,-344 505.4515,-322.7366 511.1365,-287.9026 512.8142,-271.1256"/>
<polygon fill="#191970" stroke="#191970" points="433.497,-373.6814 425.2778,-380.3669 435.8722,-380.2662 433.497,-373.6814"/>
</g>
<!-- Node31 -->
<g id="node13" class="node">
<title>Node31</title>
<g id="a_node13"><a xlink:href="tag_8h.html" target="_top" xlink:title="Tag representation and functions. ">
<polygon fill="#ffffff" stroke="#000000" points="375.5,-319 375.5,-338 477.5,-338 477.5,-319 375.5,-319"/>
<text text-anchor="middle" x="426.5" y="-326" font-family="Helvetica,sans-Serif" font-size="10.00" fill="#000000">jaegertracingc/tag.h</text>
</a>
</g>
</g>
<!-- Node19&#45;&gt;Node31 -->
<g id="edge21" class="edge">
<title>Node19&#45;&gt;Node31</title>
<path fill="none" stroke="#191970" d="M398.2614,-371.9169C405.424,-360.9043 414.2951,-347.265 420.1619,-338.2449"/>
<polygon fill="#191970" stroke="#191970" points="395.2683,-370.0994 392.75,-380.3906 401.1363,-373.916 395.2683,-370.0994"/>
</g>
<!-- Node21 -->
<g id="node3" class="node">
<title>Node21</title>
<g id="a_node3"><a xlink:href="propagation_8c.html" target="_top" xlink:title="Trace ID representation. ">
<polygon fill="#ffffff" stroke="#000000" points="176,-.5 176,-19.5 315,-19.5 315,-.5 176,-.5"/>
<text text-anchor="middle" x="245.5" y="-7.5" font-family="Helvetica,sans-Serif" font-size="10.00" fill="#000000">jaegertracingc/propagation.c</text>
</a>
</g>
</g>
<!-- Node20&#45;&gt;Node21 -->
<g id="edge2" class="edge">
<title>Node20&#45;&gt;Node21</title>
<path fill="none" stroke="#191970" d="M386.1659,-58.6009C352.4059,-46.9366 303.4736,-30.0302 273.1172,-19.5419"/>
<polygon fill="#191970" stroke="#191970" points="385.0927,-61.933 395.6875,-61.8906 387.3787,-55.3168 385.0927,-61.933"/>
</g>
<!-- Node23 -->
<g id="node5" class="node">
<title>Node23</title>
<g id="a_node5"><a xlink:href="hashtable_8h.html" target="_top" xlink:title="Hashtable data structure. ">
<polygon fill="#ffffff" stroke="#000000" points="0,-252 0,-271 131,-271 131,-252 0,-252"/>
<text text-anchor="middle" x="65.5" y="-259" font-family="Helvetica,sans-Serif" font-size="10.00" fill="#000000">jaegertracingc/hashtable.h</text>
</a>
</g>
</g>
<!-- Node22&#45;&gt;Node23 -->
<g id="edge4" class="edge">
<title>Node22&#45;&gt;Node23</title>
<path fill="none" stroke="#191970" d="M102.2971,-305.5252C92.4415,-293.7336 80.9673,-280.0055 73.4862,-271.055"/>
<polygon fill="#191970" stroke="#191970" points="99.6941,-307.8684 108.7927,-313.2967 105.0651,-303.3792 99.6941,-307.8684"/>
</g>
<!-- Node22&#45;&gt;Node25 -->
<g id="edge12" class="edge">
<title>Node22&#45;&gt;Node25</title>
<path fill="none" stroke="#191970" d="M138.8852,-305.2038C161.1426,-275.3789 198.6963,-225.0569 214.3327,-204.1042"/>
<polygon fill="#191970" stroke="#191970" points="135.9527,-303.2813 132.7769,-313.389 141.5628,-307.4679 135.9527,-303.2813"/>
</g>
<!-- Node24 -->
<g id="node6" class="node">
<title>Node24</title>
<g id="a_node6"><a xlink:href="strings_8h.html" target="_top" xlink:title="jaegertracingc/internal\l/strings.h">
<polygon fill="#ffffff" stroke="#000000" points="56.5,-56.5 56.5,-86.5 168.5,-86.5 168.5,-56.5 56.5,-56.5"/>
<text text-anchor="start" x="64.5" y="-74.5" font-family="Helvetica,sans-Serif" font-size="10.00" fill="#000000">jaegertracingc/internal</text>
<text text-anchor="middle" x="112.5" y="-63.5" font-family="Helvetica,sans-Serif" font-size="10.00" fill="#000000">/strings.h</text>
</a>
</g>
</g>
<!-- Node23&#45;&gt;Node24 -->
<g id="edge5" class="edge">
<title>Node23&#45;&gt;Node24</title>
<path fill="none" stroke="#191970" d="M65.4503,-241.5657C65.9361,-214.1467 68.8356,-163.5799 82.5,-123 86.8587,-110.0556 94.6986,-96.7679 101.2708,-86.9324"/>
<polygon fill="#191970" stroke="#191970" points="61.9486,-241.7742 65.3656,-251.8029 68.9483,-241.8322 61.9486,-241.7742"/>
</g>
<!-- Node23&#45;&gt;Node25 -->
<g id="edge7" class="edge">
<title>Node23&#45;&gt;Node25</title>
<path fill="none" stroke="#191970" d="M97.1381,-247.9118C127.4587,-234.8895 172.4498,-215.5664 199.1905,-204.0817"/>
<polygon fill="#191970" stroke="#191970" points="95.6582,-244.7382 87.851,-251.9005 98.4206,-251.1701 95.6582,-244.7382"/>
</g>
<!-- Node24&#45;&gt;Node21 -->
<g id="edge6" class="edge">
<title>Node24&#45;&gt;Node21</title>
<path fill="none" stroke="#191970" d="M154.1197,-52.2548C177.6613,-41.369 206.0638,-28.2355 224.8897,-19.5303"/>
<polygon fill="#191970" stroke="#191970" points="152.6431,-49.0815 145.0355,-56.4554 155.5811,-55.4351 152.6431,-49.0815"/>
</g>
<!-- Node25&#45;&gt;Node21 -->
<g id="edge9" class="edge">
<title>Node25&#45;&gt;Node21</title>
<path fill="none" stroke="#191970" d="M224.0481,-174.9118C229.1579,-135.6295 240.4897,-48.5167 244.2559,-19.5641"/>
<polygon fill="#191970" stroke="#191970" points="220.5758,-174.4723 222.7566,-184.8402 227.5173,-175.3753 220.5758,-174.4723"/>
</g>
<!-- Node26 -->
<g id="node8" class="node">
<title>Node26</title>
<g id="a_node8"><a xlink:href="baggage_8h.html" target="_top" xlink:title="Baggage restriction utilities. ">
<polygon fill="#ffffff" stroke="#000000" points="92,-123.5 92,-142.5 217,-142.5 217,-123.5 92,-123.5"/>
<text text-anchor="middle" x="154.5" y="-130.5" font-family="Helvetica,sans-Serif" font-size="10.00" fill="#000000">jaegertracingc/baggage.h</text>
</a>
</g>
</g>
<!-- Node25&#45;&gt;Node26 -->
<g id="edge8" class="edge">
<title>Node25&#45;&gt;Node26</title>
<path fill="none" stroke="#191970" d="M203.5769,-178.0482C191.3007,-166.7798 175.4345,-152.216 165.1163,-142.7449"/>
<polygon fill="#191970" stroke="#191970" points="201.2975,-180.7068 211.0313,-184.8906 206.031,-175.5499 201.2975,-180.7068"/>
</g>
<!-- Node25&#45;&gt;Node27 -->
<g id="edge10" class="edge">
<title>Node25&#45;&gt;Node27</title>
<path fill="none" stroke="#191970" d="M248.0119,-180.071C269.2775,-168.4972 298.5236,-152.5801 316.9677,-142.5419"/>
<polygon fill="#191970" stroke="#191970" points="246.2665,-177.036 239.1563,-184.8906 249.6128,-183.1844 246.2665,-177.036"/>
</g>
<!-- Node27&#45;&gt;Node20 -->
<g id="edge11" class="edge">
<title>Node27&#45;&gt;Node20</title>
<path fill="none" stroke="#191970" d="M356.9764,-117.4685C373.5678,-106.0037 395.6206,-90.765 409.6914,-81.0419"/>
<polygon fill="#191970" stroke="#191970" points="354.6435,-114.8263 348.4063,-123.3906 358.6229,-120.5851 354.6435,-114.8263"/>
</g>
<!-- Node28&#45;&gt;Node25 -->
<g id="edge14" class="edge">
<title>Node28&#45;&gt;Node25</title>
<path fill="none" stroke="#191970" d="M254.7524,-238.1845C245.8354,-226.47 235.5208,-212.9195 228.7732,-204.055"/>
<polygon fill="#191970" stroke="#191970" points="252.0854,-240.4595 260.9273,-246.2967 257.6554,-236.2197 252.0854,-240.4595"/>
</g>
<!-- Node30&#45;&gt;Node20 -->
<g id="edge19" class="edge">
<title>Node30&#45;&gt;Node20</title>
<path fill="none" stroke="#191970" d="M504.5868,-242.6833C485.7578,-202.9331 442.4892,-111.5883 428.1855,-81.3917"/>
<polygon fill="#191970" stroke="#191970" points="501.4691,-244.2776 508.9132,-251.8167 507.7953,-241.2809 501.4691,-244.2776"/>
</g>
<!-- Node30&#45;&gt;Node29 -->
<g id="edge20" class="edge">
<title>Node30&#45;&gt;Node29</title>
<path fill="none" stroke="#191970" d="M525.1147,-243.4026C531.9235,-232.7936 540.423,-219.5502 546.8592,-209.5218"/>
<polygon fill="#191970" stroke="#191970" points="522.1166,-241.5942 519.6609,-251.9005 528.0077,-245.3751 522.1166,-241.5942"/>
</g>
<!-- Node31&#45;&gt;Node20 -->
<g id="edge22" class="edge">
<title>Node31&#45;&gt;Node20</title>
<path fill="none" stroke="#191970" d="M426.2668,-308.5218C425.6614,-256.6579 424.056,-119.1347 423.6141,-81.2706"/>
<polygon fill="#191970" stroke="#191970" points="422.7695,-308.7807 426.3861,-318.7391 429.769,-308.6989 422.7695,-308.7807"/>
</g>
<!-- Node31&#45;&gt;Node25 -->
<g id="edge24" class="edge">
<title>Node31&#45;&gt;Node25</title>
<path fill="none" stroke="#191970" d="M409.4473,-312.0689C390.4774,-294.3394 358.4154,-265.9688 327.5,-246 300.6893,-228.6825 267.1923,-213.3468 245.1138,-204.0082"/>
<polygon fill="#191970" stroke="#191970" points="407.0638,-314.632 416.7342,-318.9602 411.8736,-309.5461 407.0638,-314.632"/>
</g>
<!-- Node31&#45;&gt;Node28 -->
<g id="edge23" class="edge">
<title>Node31&#45;&gt;Node28</title>
<path fill="none" stroke="#191970" d="M395.1857,-314.8763C369.5935,-303.742 333.454,-288.019 307.0276,-276.5218"/>
<polygon fill="#191970" stroke="#191970" points="393.8695,-318.1205 404.4356,-318.9005 396.6621,-311.7016 393.8695,-318.1205"/>
</g>
<!-- Node31&#45;&gt;Node30 -->
<g id="edge25" class="edge">
<title>Node31&#45;&gt;Node30</title>
<path fill="none" stroke="#191970" d="M447.0737,-312.6559C463.8458,-299.7395 486.9843,-281.9201 501.0581,-271.0817"/>
<polygon fill="#191970" stroke="#191970" points="444.7523,-310.026 438.965,-318.9005 449.0234,-315.572 444.7523,-310.026"/>
</g>
</g>
</svg>
