<?xml version="1.0" encoding="UTF-8" standalone="no"?>
<!DOCTYPE svg PUBLIC "-//W3C//DTD SVG 1.1//EN"
 "http://www.w3.org/Graphics/SVG/1.1/DTD/svg11.dtd">
<!-- Generated by graphviz version 2.40.1 (20161225.0304)
 -->
<!-- Title: jaegertracingc/vector.h Pages: 1 -->
<svg width="669pt" height="397pt"
 viewBox="0.00 0.00 668.91 397.00" xmlns="http://www.w3.org/2000/svg" xmlns:xlink="http://www.w3.org/1999/xlink">
<g id="graph0" class="graph" transform="scale(1 1) rotate(0) translate(4 393)">
<title>jaegertracingc/vector.h</title>
<polygon fill="#ffffff" stroke="transparent" points="-4,4 -4,-393 664.9131,-393 664.9131,4 -4,4"/>
<!-- Node19 -->
<g id="node1" class="node">
<title>Node19</title>
<polygon fill="#bfbfbf" stroke="#000000" points="309.9131,-369.5 309.9131,-388.5 425.9131,-388.5 425.9131,-369.5 309.9131,-369.5"/>
<text text-anchor="middle" x="367.9131" y="-376.5" font-family="Helvetica,sans-Serif" font-size="10.00" fill="#000000">jaegertracingc/vector.h</text>
</g>
<!-- Node20 -->
<g id="node2" class="node">
<title>Node20</title>
<g id="a_node2"><a xlink:href="key__value_8h.html" target="_top" xlink:title="Key value pair representation. ">
<polygon fill="#ffffff" stroke="#000000" points="125.9131,-302.5 125.9131,-332.5 221.9131,-332.5 221.9131,-302.5 125.9131,-302.5"/>
<text text-anchor="start" x="133.9131" y="-320.5" font-family="Helvetica,sans-Serif" font-size="10.00" fill="#000000">jaegertracingc/key</text>
<text text-anchor="middle" x="173.9131" y="-309.5" font-family="Helvetica,sans-Serif" font-size="10.00" fill="#000000">_value.h</text>
</a>
</g>
</g>
<!-- Node19&#45;&gt;Node20 -->
<g id="edge1" class="edge">
<title>Node19&#45;&gt;Node20</title>
<path fill="none" stroke="#191970" d="M328.0047,-366.3486C297.0594,-356.5386 254.0787,-342.9133 221.3709,-332.5446"/>
<polygon fill="#191970" stroke="#191970" points="327.0105,-369.705 337.6006,-369.3906 329.1258,-363.0323 327.0105,-369.705"/>
</g>
<!-- Node22 -->
<g id="node4" class="node">
<title>Node22</title>
<g id="a_node4"><a xlink:href="span_8h.html" target="_top" xlink:title="Span, span context, and span ref representations and functions. ">
<polygon fill="#ffffff" stroke="#000000" points="194.9131,-174 194.9131,-193 304.9131,-193 304.9131,-174 194.9131,-174"/>
<text text-anchor="middle" x="249.9131" y="-181" font-family="Helvetica,sans-Serif" font-size="10.00" fill="#000000">jaegertracingc/span.h</text>
</a>
</g>
</g>
<!-- Node19&#45;&gt;Node22 -->
<g id="edge12" class="edge">
<title>Node19&#45;&gt;Node22</title>
<path fill="none" stroke="#191970" d="M299.7253,-373.228C248.203,-367.2782 176.4341,-355.5508 116.9131,-333 63.0272,-312.5842 34.2379,-316.1817 5.9131,-266 -.8593,-254.0016 -2.7651,-245.7012 5.9131,-235 29.229,-206.2492 130.2648,-192.9293 194.7884,-187.2537"/>
<polygon fill="#191970" stroke="#191970" points="299.4246,-376.7161 309.7501,-374.3425 300.1981,-369.7589 299.4246,-376.7161"/>
</g>
<!-- Node24 -->
<g id="node6" class="node">
<title>Node24</title>
<g id="a_node6"><a xlink:href="tracer_8h.html" target="_top" xlink:title="Tracer implementation. ">
<polygon fill="#ffffff" stroke="#000000" points="315.4131,-56.5 315.4131,-75.5 428.4131,-75.5 428.4131,-56.5 315.4131,-56.5"/>
<text text-anchor="middle" x="371.9131" y="-63.5" font-family="Helvetica,sans-Serif" font-size="10.00" fill="#000000">jaegertracingc/tracer.h</text>
</a>
</g>
</g>
<!-- Node19&#45;&gt;Node24 -->
<g id="edge13" class="edge">
<title>Node19&#45;&gt;Node24</title>
<path fill="none" stroke="#191970" d="M421.4062,-367.0778C505.9382,-346.6709 660.9131,-302.2073 660.9131,-250.5 660.9131,-250.5 660.9131,-250.5 660.9131,-183.5 660.9131,-132.4523 504.2234,-92.8743 421.594,-75.552"/>
<polygon fill="#191970" stroke="#191970" points="420.3789,-363.7245 411.4618,-369.446 422.0006,-370.534 420.3789,-363.7245"/>
</g>
<!-- Node25 -->
<g id="node7" class="node">
<title>Node25</title>
<g id="a_node7"><a xlink:href="reporter_8h.html" target="_top" xlink:title="Span reporter interface. ">
<polygon fill="#ffffff" stroke="#000000" points="350.9131,-112.5 350.9131,-131.5 472.9131,-131.5 472.9131,-112.5 350.9131,-112.5"/>
<text text-anchor="middle" x="411.9131" y="-119.5" font-family="Helvetica,sans-Serif" font-size="10.00" fill="#000000">jaegertracingc/reporter.h</text>
</a>
</g>
</g>
<!-- Node19&#45;&gt;Node25 -->
<g id="edge14" class="edge">
<title>Node19&#45;&gt;Node25</title>
<path fill="none" stroke="#191970" d="M378.0155,-360.467C382.0447,-352.275 386.331,-342.3878 388.9131,-333 409.6311,-257.6776 411.8081,-162.406 411.9445,-131.8815"/>
<polygon fill="#191970" stroke="#191970" points="374.8439,-358.9807 373.3601,-369.4712 381.062,-362.1957 374.8439,-358.9807"/>
</g>
<!-- Node26 -->
<g id="node8" class="node">
<title>Node26</title>
<g id="a_node8"><a xlink:href="log__record_8h.html" target="_top" xlink:title="Log record representation for use in span. ">
<polygon fill="#ffffff" stroke="#000000" points="203.4131,-235.5 203.4131,-265.5 296.4131,-265.5 296.4131,-235.5 203.4131,-235.5"/>
<text text-anchor="start" x="211.4131" y="-253.5" font-family="Helvetica,sans-Serif" font-size="10.00" fill="#000000">jaegertracingc/log</text>
<text text-anchor="middle" x="249.9131" y="-242.5" font-family="Helvetica,sans-Serif" font-size="10.00" fill="#000000">_record.h</text>
</a>
</g>
</g>
<!-- Node19&#45;&gt;Node26 -->
<g id="edge9" class="edge">
<title>Node19&#45;&gt;Node26</title>
<path fill="none" stroke="#191970" d="M318.1006,-365.9283C300.214,-358.9012 281.3982,-348.4047 268.9131,-333 253.1807,-313.5885 249.9643,-283.5771 249.5787,-265.6039"/>
<polygon fill="#191970" stroke="#191970" points="317.3017,-369.3618 327.8958,-369.4845 319.6906,-362.782 317.3017,-369.3618"/>
</g>
<!-- Node27 -->
<g id="node9" class="node">
<title>Node27</title>
<g id="a_node9"><a xlink:href="mock__agent_8h.html" target="_top" xlink:title="Key value pair representation. ">
<polygon fill="#ffffff" stroke="#000000" points="528.9131,-168.5 528.9131,-198.5 632.9131,-198.5 632.9131,-168.5 528.9131,-168.5"/>
<text text-anchor="start" x="536.9131" y="-186.5" font-family="Helvetica,sans-Serif" font-size="10.00" fill="#000000">jaegertracingc/mock</text>
<text text-anchor="middle" x="580.9131" y="-175.5" font-family="Helvetica,sans-Serif" font-size="10.00" fill="#000000">_agent.h</text>
</a>
</g>
</g>
<!-- Node19&#45;&gt;Node27 -->
<g id="edge11" class="edge">
<title>Node19&#45;&gt;Node27</title>
<path fill="none" stroke="#191970" d="M413.7208,-366.4021C460.7556,-350.9228 532.1199,-319.8478 568.9131,-266 582.7128,-245.8039 583.5222,-216.3189 582.4787,-198.6109"/>
<polygon fill="#191970" stroke="#191970" points="412.5428,-363.104 404.0746,-369.4711 414.6651,-369.7745 412.5428,-363.104"/>
</g>
<!-- Node28 -->
<g id="node10" class="node">
<title>Node28</title>
<g id="a_node10"><a xlink:href="sampler_8h.html" target="_top" xlink:title="Span sampler interface. ">
<polygon fill="#ffffff" stroke="#000000" points="436.4131,-241 436.4131,-260 559.4131,-260 559.4131,-241 436.4131,-241"/>
<text text-anchor="middle" x="497.9131" y="-248" font-family="Helvetica,sans-Serif" font-size="10.00" fill="#000000">jaegertracingc/sampler.h</text>
</a>
</g>
</g>
<!-- Node19&#45;&gt;Node28 -->
<g id="edge15" class="edge">
<title>Node19&#45;&gt;Node28</title>
<path fill="none" stroke="#191970" d="M388.0337,-362.8429C398.4145,-354.2643 411.1277,-343.3744 421.9131,-333 447.878,-308.0246 476.0052,-276.0623 489.6097,-260.2543"/>
<polygon fill="#191970" stroke="#191970" points="385.817,-360.1343 380.2899,-369.1732 390.2474,-365.5539 385.817,-360.1343"/>
</g>
<!-- Node29 -->
<g id="node11" class="node">
<title>Node29</title>
<g id="a_node11"><a xlink:href="tag_8h.html" target="_top" xlink:title="Tag representation and functions. ">
<polygon fill="#ffffff" stroke="#000000" points="277.9131,-308 277.9131,-327 379.9131,-327 379.9131,-308 277.9131,-308"/>
<text text-anchor="middle" x="328.9131" y="-315" font-family="Helvetica,sans-Serif" font-size="10.00" fill="#000000">jaegertracingc/tag.h</text>
</a>
</g>
</g>
<!-- Node19&#45;&gt;Node29 -->
<g id="edge18" class="edge">
<title>Node19&#45;&gt;Node29</title>
<path fill="none" stroke="#191970" d="M356.4458,-360.9169C349.4622,-349.9043 340.8129,-336.265 335.0928,-327.2449"/>
<polygon fill="#191970" stroke="#191970" points="353.5081,-362.8199 361.8194,-369.3906 359.4197,-359.0711 353.5081,-362.8199"/>
</g>
<!-- Node21 -->
<g id="node3" class="node">
<title>Node21</title>
<g id="a_node3"><a xlink:href="hashtable_8h.html" target="_top" xlink:title="Hashtable data structure. ">
<polygon fill="#ffffff" stroke="#000000" points="15.4131,-241 15.4131,-260 146.4131,-260 146.4131,-241 15.4131,-241"/>
<text text-anchor="middle" x="80.9131" y="-248" font-family="Helvetica,sans-Serif" font-size="10.00" fill="#000000">jaegertracingc/hashtable.h</text>
</a>
</g>
</g>
<!-- Node20&#45;&gt;Node21 -->
<g id="edge2" class="edge">
<title>Node20&#45;&gt;Node21</title>
<path fill="none" stroke="#191970" d="M144.3637,-296.2117C127.5028,-284.0646 107.1972,-269.4358 94.176,-260.055"/>
<polygon fill="#191970" stroke="#191970" points="142.6504,-299.2911 152.81,-302.2967 146.7422,-293.6115 142.6504,-299.2911"/>
</g>
<!-- Node20&#45;&gt;Node22 -->
<g id="edge3" class="edge">
<title>Node20&#45;&gt;Node22</title>
<path fill="none" stroke="#191970" d="M176.6301,-291.8904C179.3223,-274.8308 184.6122,-252.4307 194.9131,-235 205.1622,-217.6571 222.9836,-202.5432 235.558,-193.2525"/>
<polygon fill="#191970" stroke="#191970" points="173.1042,-291.8403 175.2096,-302.2239 180.0389,-292.7937 173.1042,-291.8403"/>
</g>
<!-- Node23 -->
<g id="node5" class="node">
<title>Node23</title>
<g id="a_node5"><a xlink:href="propagation_8c.html" target="_top" xlink:title="Trace ID representation. ">
<polygon fill="#ffffff" stroke="#000000" points="219.4131,-.5 219.4131,-19.5 358.4131,-19.5 358.4131,-.5 219.4131,-.5"/>
<text text-anchor="middle" x="288.9131" y="-7.5" font-family="Helvetica,sans-Serif" font-size="10.00" fill="#000000">jaegertracingc/propagation.c</text>
</a>
</g>
</g>
<!-- Node22&#45;&gt;Node23 -->
<g id="edge4" class="edge">
<title>Node22&#45;&gt;Node23</title>
<path fill="none" stroke="#191970" d="M254.3295,-163.8528C262.6798,-126.7047 280.5026,-47.4161 286.7193,-19.7595"/>
<polygon fill="#191970" stroke="#191970" points="250.8439,-163.4006 252.0655,-173.9248 257.6735,-164.9358 250.8439,-163.4006"/>
</g>
<!-- Node22&#45;&gt;Node24 -->
<g id="edge5" class="edge">
<title>Node22&#45;&gt;Node24</title>
<path fill="none" stroke="#191970" d="M263.0585,-165.1076C274.3242,-149.9878 291.4551,-128.4536 308.9131,-112 323.8935,-97.8815 343.2947,-84.3119 356.5857,-75.6168"/>
<polygon fill="#191970" stroke="#191970" points="259.9323,-163.453 256.8515,-173.59 265.5814,-167.5867 259.9323,-163.453"/>
</g>
<!-- Node22&#45;&gt;Node25 -->
<g id="edge7" class="edge">
<title>Node22&#45;&gt;Node25</title>
<path fill="none" stroke="#191970" d="M284.6856,-170.2993C315.3801,-158.6468 359.3878,-141.9402 386.7784,-131.5419"/>
<polygon fill="#191970" stroke="#191970" points="283.3324,-167.0693 275.2256,-173.8906 285.8168,-173.6136 283.3324,-167.0693"/>
</g>
<!-- Node24&#45;&gt;Node23 -->
<g id="edge6" class="edge">
<title>Node24&#45;&gt;Node23</title>
<path fill="none" stroke="#191970" d="M348.9252,-50.49C334.281,-40.6096 315.7687,-28.1194 303.2049,-19.6427"/>
<polygon fill="#191970" stroke="#191970" points="347.2084,-53.5539 357.4556,-56.2455 351.1235,-47.7511 347.2084,-53.5539"/>
</g>
<!-- Node25&#45;&gt;Node24 -->
<g id="edge8" class="edge">
<title>Node25&#45;&gt;Node24</title>
<path fill="none" stroke="#191970" d="M398.9995,-103.9209C392.2828,-94.5176 384.3415,-83.3997 378.8008,-75.6427"/>
<polygon fill="#191970" stroke="#191970" points="396.2852,-106.1425 404.9457,-112.2455 401.9813,-102.0738 396.2852,-106.1425"/>
</g>
<!-- Node26&#45;&gt;Node22 -->
<g id="edge10" class="edge">
<title>Node26&#45;&gt;Node22</title>
<path fill="none" stroke="#191970" d="M249.9131,-225.1199C249.9131,-213.9072 249.9131,-201.4031 249.9131,-193.055"/>
<polygon fill="#191970" stroke="#191970" points="246.4132,-225.2966 249.9131,-235.2967 253.4132,-225.2967 246.4132,-225.2966"/>
</g>
<!-- Node28&#45;&gt;Node24 -->
<g id="edge17" class="edge">
<title>Node28&#45;&gt;Node24</title>
<path fill="none" stroke="#191970" d="M501.3804,-230.807C505.3425,-201.7365 508.2442,-147.0085 481.9131,-112 467.8532,-93.3065 444.7732,-82.1533 423.3756,-75.5259"/>
<polygon fill="#191970" stroke="#191970" points="497.8857,-230.5031 499.8124,-240.9213 504.8031,-231.5756 497.8857,-230.5031"/>
</g>
<!-- Node28&#45;&gt;Node27 -->
<g id="edge16" class="edge">
<title>Node28&#45;&gt;Node27</title>
<path fill="none" stroke="#191970" d="M517.5959,-234.6115C531.1348,-223.6825 549.0024,-209.2592 562.3041,-198.5218"/>
<polygon fill="#191970" stroke="#191970" points="515.3878,-231.8959 509.805,-240.9005 519.7846,-237.3427 515.3878,-231.8959"/>
</g>
<!-- Node29&#45;&gt;Node22 -->
<g id="edge20" class="edge">
<title>Node29&#45;&gt;Node22</title>
<path fill="none" stroke="#191970" d="M326.532,-297.7394C323.7209,-280.2131 317.8265,-254.4505 305.9131,-235 295.2888,-217.6541 277.1817,-202.5408 264.4393,-193.2511"/>
<polygon fill="#191970" stroke="#191970" points="323.1051,-298.5045 327.9663,-307.9183 330.0367,-297.5277 323.1051,-298.5045"/>
</g>
<!-- Node29&#45;&gt;Node24 -->
<g id="edge21" class="edge">
<title>Node29&#45;&gt;Node24</title>
<path fill="none" stroke="#191970" d="M328.889,-297.5365C329.0421,-252.8485 330.619,-146.0197 341.9131,-112 346.4793,-98.2459 356.1993,-84.608 363.3432,-75.7972"/>
<polygon fill="#191970" stroke="#191970" points="325.3889,-297.7004 328.8759,-307.7049 332.3889,-297.7095 325.3889,-297.7004"/>
</g>
<!-- Node29&#45;&gt;Node26 -->
<g id="edge19" class="edge">
<title>Node29&#45;&gt;Node26</title>
<path fill="none" stroke="#191970" d="M309.8131,-301.3012C296.972,-290.4107 280.1665,-276.1579 267.6254,-265.5218"/>
<polygon fill="#191970" stroke="#191970" points="307.704,-304.1017 317.5944,-307.9005 312.2316,-298.7631 307.704,-304.1017"/>
</g>
<!-- Node29&#45;&gt;Node28 -->
<g id="edge22" class="edge">
<title>Node29&#45;&gt;Node28</title>
<path fill="none" stroke="#191970" d="M362.7621,-304.0806C395.6127,-291.057 444.65,-271.6162 473.7445,-260.0817"/>
<polygon fill="#191970" stroke="#191970" points="361.1329,-300.9614 353.1267,-307.9005 363.7127,-307.4687 361.1329,-300.9614"/>
</g>
</g>
</svg>
